<svg version="1.1" xmlns="http://www.w3.org/2000/svg" xmlns:xlink="http://www.w3.org/1999/xlink" width="408" height="716"><defs/><g><g/><g/><g/><g/><g/><g/><g/><g/><g/><g/><g/><g/><g/><g/><g/><g/><g/><g/><g><rect fill="white" stroke="none" x="0" y="0" width="408" height="716"/></g><g><rect fill="rgb(239,255,255)" stroke="none" x="15.078649200000001" y="93.03526556399999" width="378.1501242021484" height="570.7268722200001"/></g><g><path fill="none" stroke="black" paint-order="fill stroke markers" d=" M 75.393246 50.815047804 L 75.393246 716.5374099840001" stroke-miterlimit="10" stroke-width="1.2565541" stroke-dasharray="11.598960923076923,5.0262164"/><path fill="none" stroke="black" paint-order="fill stroke markers" d=" M 251.6088953819336 50.815047804 L 251.6088953819336 716.5374099840001" stroke-miterlimit="10" stroke-width="1.2565541" stroke-dasharray="11.598960923076923,5.0262164"/></g><g><path fill="none" stroke="none"/><g><path fill="white" stroke="black" paint-order="fill stroke markers" d=" M 41.53291161800001 10.253481456000003 L 109.253580382 10.253481456000003 L 109.253580382 50.815047804 L 41.53291161800001 50.815047804 L 41.53291161800001 10.253481456000003 Z" stroke-miterlimit="10" stroke-width="2.4125838720000004" stroke-dasharray=""/></g><g><text fill="black" stroke="none" font-family="sans-serif" font-size="11pt" font-style="normal" font-weight="normal" text-decoration="normal" x="57.893246000000005" y="35.736398604" text-anchor="start" dominant-baseline="alphabetic" xml:space="preserve">Main</text></g><path fill="none" stroke="none"/><g><path fill="white" stroke="black" paint-order="fill stroke markers" d=" M 211.89401540667188 10.253481456000003 L 291.3237753571953 10.253481456000003 L 291.3237753571953 50.815047804 L 211.89401540667188 50.815047804 L 211.89401540667188 10.253481456000003 Z" stroke-miterlimit="10" stroke-width="2.4125838720000004" stroke-dasharray=""/></g><g><text fill="black" stroke="none" font-family="sans-serif" font-size="11pt" font-style="normal" font-weight="normal" text-decoration="normal" x="228.25434978867187" y="35.736398604" text-anchor="start" dominant-baseline="alphabetic" xml:space="preserve">Dialog</text></g></g><g><path fill="white" stroke="black" paint-order="fill stroke markers" d=" M 67.8539214 58.354372404 L 82.9325706 58.354372404 L 82.9325706 701.4587607840001 L 67.8539214 701.4587607840001 L 67.8539214 58.354372404" stroke-miterlimit="10" stroke-width="1.2565541" stroke-dasharray=""/><path fill="white" stroke="black" paint-order="fill stroke markers" d=" M 244.06957078193358 58.354372404 L 259.1482199819336 58.354372404 L 259.1482199819336 701.4587607840001 L 244.06957078193358 701.4587607840001 L 244.06957078193358 58.354372404" stroke-miterlimit="10" stroke-width="1.2565541" stroke-dasharray=""/><path fill="#ffffc0" stroke="black" paint-order="fill stroke markers" d=" M 82.9325706 130.731888564 L 90.4718952 130.731888564 M 90.4718952 113.39144198399998 L 203.77587732501954 113.39144198399998 L 217.34666160501953 126.96222626399998 L 217.34666160501953 148.072335144 L 90.4718952 148.072335144 L 90.4718952 113.39144198399998 M 203.77587732501954 113.39144198399998 L 203.77587732501954 126.96222626399998 L 217.34666160501953 126.96222626399998" stroke-miterlimit="10" stroke-width="1.2565541" stroke-dasharray=""/><g><text fill="black" stroke="none" font-family="sans-serif" font-size="11pt" font-style="normal" font-weight="normal" text-decoration="normal" x="111.58200407999999" y="134.501550864" text-anchor="start" dominant-baseline="alphabetic" xml:space="preserve">Pressed: 'X'</text></g><g><g><rect fill="rgb(239,255,255)" stroke="none" x="110.28472924358398" y="150.33413252399998" width="106.43268289476562" height="19.602243960000003"/></g><text fill="black" stroke="none" font-family="sans-serif" font-size="11pt" font-style="normal" font-weight="normal" text-decoration="normal" x="112.54652662358399" y="163.90491680399998" text-anchor="start" dominant-baseline="alphabetic" xml:space="preserve">key_press('X')</text></g><g><path fill="none" stroke="black" paint-order="fill stroke markers" d=" M 82.9325706 169.936376484 L 241.55646258193357 169.936376484" stroke-miterlimit="10" stroke-width="1.2565541" stroke-dasharray=""/><g transform="translate(244.06957078193358,169.936376484) translate(-244.06957078193358,-169.936376484)"><path fill="black" stroke="none" paint-order="stroke fill markers" d=" M 231.50402978193358 163.653605984 L 244.06957078193358 169.936376484 L 231.50402978193358 176.219146984 Z"/></g></g><g><g><rect fill="rgb(239,255,255)" stroke="none" x="276.99128820193357" y="172.198173864" width="87.72359170824218" height="19.602243960000003"/></g><g><rect fill="rgb(239,255,255)" stroke="none" x="276.99128820193357" y="187.276823064" width="70.34177865892578" height="19.602243960000003"/></g><text fill="black" stroke="none" font-family="sans-serif" font-size="11pt" font-style="normal" font-weight="normal" text-decoration="normal" x="279.2530855819336" y="185.768958144" text-anchor="start" dominant-baseline="alphabetic" xml:space="preserve">lookup('X'):</text><text fill="red" stroke="none" font-family="sans-serif" font-size="11pt" font-style="normal" font-weight="normal" text-decoration="normal" x="279.2530855819336" y="200.847607344" text-anchor="start" dominant-baseline="alphabetic" xml:space="preserve">OP_NULL</text></g><g><path fill="none" stroke="black" paint-order="fill stroke markers" d=" M 259.1482199819336 206.879067024 L 319.4628167819336 206.879067024 L 319.4628167819336 226.481310984 L 261.6613281819336 226.481310984" stroke-miterlimit="10" stroke-width="1.2565541" stroke-dasharray=""/><g transform="translate(259.1482199819336,226.481310984) translate(-259.1482199819336,-226.481310984)"><path fill="black" stroke="none" paint-order="stroke fill markers" d=" M 271.7137609819336 220.198540484 L 259.1482199819336 226.481310984 L 271.7137609819336 232.764081484 Z"/></g></g><g><g><rect fill="rgb(239,255,255)" stroke="none" x="102.93018365032226" y="228.743108364" width="121.14177408128906" height="19.602243960000003"/></g><text fill="red" stroke="none" font-family="sans-serif" font-size="11pt" font-style="normal" font-weight="normal" text-decoration="normal" x="105.19198103032227" y="242.313892644" text-anchor="start" dominant-baseline="alphabetic" xml:space="preserve">LONGER MATCH</text></g><g><path fill="none" stroke="red" paint-order="fill stroke markers" d=" M 244.06957078193358 248.345352324 L 85.44567880000001 248.345352324" stroke-miterlimit="10" stroke-width="1.2565541" stroke-dasharray="6.03145968"/><g transform="translate(82.9325706,248.345352324) translate(-82.9325706,-248.345352324)"><path fill="red" stroke="none" paint-order="stroke fill markers" d=" M 95.4981116 242.062581824 L 82.9325706 248.345352324 L 95.4981116 254.628122824 Z"/></g></g><path fill="#ffffc0" stroke="black" paint-order="fill stroke markers" d=" M 82.9325706 300.366692064 L 90.4718952 300.366692064 M 90.4718952 283.026245484 L 202.68496545978516 283.026245484 L 216.25574973978516 296.597029764 L 216.25574973978516 317.707138644 L 90.4718952 317.707138644 L 90.4718952 283.026245484 M 202.68496545978516 283.026245484 L 202.68496545978516 296.597029764 L 216.25574973978516 296.597029764" stroke-miterlimit="10" stroke-width="1.2565541" stroke-dasharray=""/><g><text fill="black" stroke="none" font-family="sans-serif" font-size="11pt" font-style="normal" font-weight="normal" text-decoration="normal" x="111.58200407999999" y="304.136354364" text-anchor="start" dominant-baseline="alphabetic" xml:space="preserve">Pressed: 'Y'</text></g><g><g><rect fill="rgb(239,255,255)" stroke="none" x="105.80291009075195" y="319.968936024" width="115.39632120042968" height="19.602243960000003"/></g><text fill="black" stroke="none" font-family="sans-serif" font-size="11pt" font-style="normal" font-weight="normal" text-decoration="normal" x="108.06470747075196" y="333.53972030400007" text-anchor="start" dominant-baseline="alphabetic" xml:space="preserve">key_press('XY')</text></g><g><path fill="none" stroke="black" paint-order="fill stroke markers" d=" M 82.9325706 339.571179984 L 241.55646258193357 339.571179984" stroke-miterlimit="10" stroke-width="1.2565541" stroke-dasharray=""/><g transform="translate(244.06957078193358,339.571179984) translate(-244.06957078193358,-339.571179984)"><path fill="black" stroke="none" paint-order="stroke fill markers" d=" M 231.50402978193358 333.288409484 L 244.06957078193358 339.571179984 L 231.50402978193358 345.85395048400005 Z"/></g></g><g><g><rect fill="rgb(239,255,255)" stroke="none" x="276.99128820193357" y="341.83297736400004" width="96.68723001390624" height="19.602243960000003"/></g><g><rect fill="rgb(239,255,255)" stroke="none" x="276.99128820193357" y="356.911626564" width="70.34177865892578" height="19.602243960000003"/></g><text fill="black" stroke="none" font-family="sans-serif" font-size="11pt" font-style="normal" font-weight="normal" text-decoration="normal" x="279.2530855819336" y="355.40376164400004" text-anchor="start" dominant-baseline="alphabetic" xml:space="preserve">lookup('XY'):</text><text fill="red" stroke="none" font-family="sans-serif" font-size="11pt" font-style="normal" font-weight="normal" text-decoration="normal" x="279.2530855819336" y="370.482410844" text-anchor="start" dominant-baseline="alphabetic" xml:space="preserve">OP_NULL</text></g><g><path fill="none" stroke="black" paint-order="fill stroke markers" d=" M 259.1482199819336 376.513870524 L 319.4628167819336 376.513870524 L 319.4628167819336 396.11611448400004 L 261.6613281819336 396.11611448400004" stroke-miterlimit="10" stroke-width="1.2565541" stroke-dasharray=""/><g transform="translate(259.1482199819336,396.11611448400004) translate(-259.1482199819336,-396.11611448400004)"><path fill="black" stroke="none" paint-order="stroke fill markers" d=" M 271.7137609819336 389.833343984 L 259.1482199819336 396.11611448400004 L 271.7137609819336 402.39888498400006 Z"/></g></g><g><g><rect fill="rgb(239,255,255)" stroke="none" x="102.93018365032226" y="398.37791186400005" width="121.14177408128906" height="19.602243960000003"/></g><text fill="red" stroke="none" font-family="sans-serif" font-size="11pt" font-style="normal" font-weight="normal" text-decoration="normal" x="105.19198103032227" y="411.9486961440001" text-anchor="start" dominant-baseline="alphabetic" xml:space="preserve">LONGER MATCH</text></g><g><path fill="none" stroke="red" paint-order="fill stroke markers" d=" M 244.06957078193358 417.98015582400006 L 85.44567880000001 417.98015582400006" stroke-miterlimit="10" stroke-width="1.2565541" stroke-dasharray="6.03145968"/><g transform="translate(82.9325706,417.98015582400006) translate(-82.9325706,-417.98015582400006)"><path fill="red" stroke="none" paint-order="stroke fill markers" d=" M 95.4981116 411.69738532400004 L 82.9325706 417.98015582400006 L 95.4981116 424.2629263240001 Z"/></g></g><path fill="#ffffc0" stroke="black" paint-order="fill stroke markers" d=" M 82.9325706 470.0014955640001 L 90.4718952 470.0014955640001 M 90.4718952 452.6610489840001 L 203.77587732501954 452.6610489840001 L 217.34666160501953 466.2318332640001 L 217.34666160501953 487.3419421440001 L 90.4718952 487.3419421440001 L 90.4718952 452.6610489840001 M 203.77587732501954 452.6610489840001 L 203.77587732501954 466.2318332640001 L 217.34666160501953 466.2318332640001" stroke-miterlimit="10" stroke-width="1.2565541" stroke-dasharray=""/><g><text fill="black" stroke="none" font-family="sans-serif" font-size="11pt" font-style="normal" font-weight="normal" text-decoration="normal" x="111.58200407999999" y="473.7711578640001" text-anchor="start" dominant-baseline="alphabetic" xml:space="preserve">Pressed: 'Z'</text></g><g><g><rect fill="rgb(239,255,255)" stroke="none" x="100.77563882" y="489.6037395240001" width="125.45086374193359" height="19.602243960000003"/></g><text fill="black" stroke="none" font-family="sans-serif" font-size="11pt" font-style="normal" font-weight="normal" text-decoration="normal" x="103.0374362" y="503.17452380400016" text-anchor="start" dominant-baseline="alphabetic" xml:space="preserve">key_press('XYZ')</text></g><g><path fill="none" stroke="black" paint-order="fill stroke markers" d=" M 82.9325706 509.2059834840001 L 241.55646258193357 509.2059834840001" stroke-miterlimit="10" stroke-width="1.2565541" stroke-dasharray=""/><g transform="translate(244.06957078193358,509.2059834840001) translate(-244.06957078193358,-509.2059834840001)"><path fill="black" stroke="none" paint-order="stroke fill markers" d=" M 231.50402978193358 502.9232129840001 L 244.06957078193358 509.2059834840001 L 231.50402978193358 515.4887539840001 Z"/></g></g><g><g><rect fill="rgb(239,255,255)" stroke="none" x="276.99128820193357" y="511.46778086400013" width="106.74178018480468" height="19.602243960000003"/></g><g><rect fill="rgb(239,255,255)" stroke="none" x="276.99128820193357" y="526.5464300640001" width="61.32359399706055" height="19.602243960000003"/></g><text fill="black" stroke="none" font-family="sans-serif" font-size="11pt" font-style="normal" font-weight="normal" text-decoration="normal" x="279.2530855819336" y="525.0385651440001" text-anchor="start" dominant-baseline="alphabetic" xml:space="preserve">lookup('XYZ'):</text><text fill="red" stroke="none" font-family="sans-serif" font-size="11pt" font-style="normal" font-weight="normal" text-decoration="normal" x="279.2530855819336" y="540.1172143440001" text-anchor="start" dominant-baseline="alphabetic" xml:space="preserve">OP_XYZ</text></g><g><path fill="none" stroke="black" paint-order="fill stroke markers" d=" M 259.1482199819336 546.1486740240001 L 319.4628167819336 546.1486740240001 L 319.4628167819336 565.7509179840001 L 261.6613281819336 565.7509179840001" stroke-miterlimit="10" stroke-width="1.2565541" stroke-dasharray=""/><g transform="translate(259.1482199819336,565.7509179840001) translate(-259.1482199819336,-565.7509179840001)"><path fill="black" stroke="none" paint-order="stroke fill markers" d=" M 271.7137609819336 559.4681474840002 L 259.1482199819336 565.7509179840001 L 271.7137609819336 572.0336884840001 Z"/></g></g><g><g><rect fill="rgb(239,255,255)" stroke="none" x="276.99128820193357" y="568.0127153640001" width="110.95995798021484" height="19.602243960000003"/></g><text fill="black" stroke="none" font-family="sans-serif" font-size="11pt" font-style="normal" font-weight="normal" text-decoration="normal" x="279.2530855819336" y="581.5834996440001" text-anchor="start" dominant-baseline="alphabetic" xml:space="preserve">perform_XYZ()</text></g><g><path fill="none" stroke="black" paint-order="fill stroke markers" d=" M 259.1482199819336 587.6149593240001 L 319.4628167819336 587.6149593240001 L 319.4628167819336 607.2172032840001 L 261.6613281819336 607.2172032840001" stroke-miterlimit="10" stroke-width="1.2565541" stroke-dasharray=""/><g transform="translate(259.1482199819336,607.2172032840001) translate(-259.1482199819336,-607.2172032840001)"><path fill="black" stroke="none" paint-order="stroke fill markers" d=" M 271.7137609819336 600.9344327840001 L 259.1482199819336 607.2172032840001 L 271.7137609819336 613.4999737840001 Z"/></g></g><g><g><rect fill="rgb(239,255,255)" stroke="none" x="101.95745492107422" y="609.4790006640001" width="123.08723153978515" height="19.602243960000003"/></g><text fill="black" stroke="none" font-family="sans-serif" font-size="11pt" font-style="normal" font-weight="normal" text-decoration="normal" x="104.21925230107422" y="623.0497849440001" text-anchor="start" dominant-baseline="alphabetic" xml:space="preserve">KEY CONSUMED</text></g><g><path fill="none" stroke="black" paint-order="fill stroke markers" d=" M 244.06957078193358 629.0812446240001 L 85.44567880000001 629.0812446240001" stroke-miterlimit="10" stroke-width="1.2565541" stroke-dasharray="6.03145968"/><g transform="translate(82.9325706,629.0812446240001) translate(-82.9325706,-629.0812446240001)"><path fill="black" stroke="none" paint-order="stroke fill markers" d=" M 95.4981116 622.7984741240001 L 82.9325706 629.0812446240001 L 95.4981116 635.364015124 Z"/></g></g><g><g/><path fill="none" stroke="black" paint-order="fill stroke markers" d=" M 15.078649200000001 93.03526556399999 L 393.22877340214836 93.03526556399999 L 393.22877340214836 663.7621377840001 L 15.078649200000001 663.7621377840001 L 15.078649200000001 93.03526556399999 Z" stroke-miterlimit="10" stroke-width="2.154092742857143" stroke-dasharray=""/><path fill="#b0ffff" stroke="black" paint-order="fill stroke markers" d=" M 15.078649200000001 93.03526556399999 L 15.078649200000001 111.12964460399999 L 73.76322077810059 111.12964460399999 L 82.81041029810059 102.08245508399999 L 82.81041029810059 93.03526556399999 L 15.078649200000001 93.03526556399999" stroke-miterlimit="10" stroke-width="2.154092742857143" stroke-dasharray=""/><text fill="black" stroke="none" font-family="sans-serif" font-size="8.8pt" font-style="normal" font-weight="bold" text-decoration="normal" x="30.157298400000002" y="105.098184924" text-anchor="start" dominant-baseline="alphabetic" xml:space="preserve">loop</text><text fill="black" stroke="none" font-family="sans-serif" font-size="8.8pt" font-style="normal" font-weight="bold" text-decoration="normal" x="97.8890594981006" y="105.098184924" text-anchor="start" dominant-baseline="alphabetic" xml:space="preserve">[Event Loop]</text></g></g></g></svg>