<svg version="1.1" xmlns="http://www.w3.org/2000/svg" xmlns:xlink="http://www.w3.org/1999/xlink" width="949" height="2014"><defs/><g><g/><g/><g/><g/><g/><g/><g/><g/><g/><g/><g/><g/><g/><g/><g/><g/><g/><g/><g/><g/><g/><g/><g/><g/><g/><g/><g/><g/><g/><g/><g/><g/><g/><g/><g/><g/><g/><g/><g/><g/><g/><g/><g/><g/><g/><g/><g/><g/><g/><g/><g/><g/><g/><g/><g/><g/><g/><g/><g><rect fill="white" stroke="none" x="0" y="0" width="950" height="2014"/></g><g><text fill="black" stroke="none" font-family="sans-serif" font-size="16.5pt" font-style="normal" font-weight="normal" text-decoration="normal" x="428.1864052093945" y="22.6179738" text-anchor="start" dominant-baseline="alphabetic" xml:space="preserve">NeoMutt</text></g><g><rect fill="rgb(239,255,255)" stroke="none" x="15.078649200000001" y="152.595929904" width="919.8655135446678" height="1809.4379040000003"/></g><g><path fill="none" stroke="black" paint-order="fill stroke markers" d=" M 97.5424088058789 88.511670804 L 97.5424088058789 2014.8091061040004" stroke-miterlimit="10" stroke-width="1.2565541" stroke-dasharray="11.598960923076923,5.0262164"/><path fill="none" stroke="black" paint-order="fill stroke markers" d=" M 248.16412508234373 88.511670804 L 248.16412508234373 2014.8091061040004" stroke-miterlimit="10" stroke-width="1.2565541" stroke-dasharray="11.598960923076923,5.0262164"/><path fill="none" stroke="black" paint-order="fill stroke markers" d=" M 361.1005436388086 88.511670804 L 361.1005436388086 2014.8091061040004" stroke-miterlimit="10" stroke-width="1.2565541" stroke-dasharray="11.598960923076923,5.0262164"/><path fill="none" stroke="black" paint-order="fill stroke markers" d=" M 555.3722614411523 88.511670804 L 555.3722614411523 2014.8091061040004" stroke-miterlimit="10" stroke-width="1.2565541" stroke-dasharray="11.598960923076923,5.0262164"/><path fill="none" stroke="black" paint-order="fill stroke markers" d=" M 789.9439822952538 88.511670804 L 789.9439822952538 2014.8091061040004" stroke-miterlimit="10" stroke-width="1.2565541" stroke-dasharray="11.598960923076923,5.0262164"/></g><g><path fill="none" stroke="none"/><g><path fill="white" stroke="black" paint-order="fill stroke markers" d=" M 63.66540801152539 47.950104456000005 L 131.41940960023243 47.950104456000005 L 131.41940960023243 88.511670804 L 63.66540801152539 88.511670804 L 63.66540801152539 47.950104456000005 Z" stroke-miterlimit="10" stroke-width="2.4125838720000004" stroke-dasharray=""/></g><g><text fill="black" stroke="none" font-family="sans-serif" font-size="11pt" font-style="normal" font-weight="normal" text-decoration="normal" x="80.02574239352539" y="73.433021604" text-anchor="start" dominant-baseline="alphabetic" xml:space="preserve">Main</text></g><path fill="none" stroke="none"/><g><path fill="white" stroke="black" paint-order="fill stroke markers" d=" M 215.078790318874 47.950104456000005 L 281.2494598458135 47.950104456000005 L 281.2494598458135 88.511670804 L 215.078790318874 88.511670804 L 215.078790318874 47.950104456000005 Z" stroke-miterlimit="10" stroke-width="2.4125838720000004" stroke-dasharray=""/></g><g><text fill="black" stroke="none" font-family="sans-serif" font-size="11pt" font-style="normal" font-weight="normal" text-decoration="normal" x="231.439124700874" y="73.433021604" text-anchor="start" dominant-baseline="alphabetic" xml:space="preserve">User</text></g><path fill="none" stroke="none"/><g><path fill="white" stroke="black" paint-order="fill stroke markers" d=" M 315.80687681357125 47.950104456000005 L 406.39421046404584 47.950104456000005 L 406.39421046404584 88.511670804 L 315.80687681357125 88.511670804 L 315.80687681357125 47.950104456000005 Z" stroke-miterlimit="10" stroke-width="2.4125838720000004" stroke-dasharray=""/></g><g><text fill="black" stroke="none" font-family="sans-serif" font-size="11pt" font-style="normal" font-weight="normal" text-decoration="normal" x="332.16721119557127" y="73.433021604" text-anchor="start" dominant-baseline="alphabetic" xml:space="preserve">Window</text></g><path fill="none" stroke="none"/><g><path fill="white" stroke="black" paint-order="fill stroke markers" d=" M 518.8119262962128 47.950104456000005 L 591.9325965860918 47.950104456000005 L 591.9325965860918 88.511670804 L 518.8119262962128 88.511670804 L 518.8119262962128 47.950104456000005 Z" stroke-miterlimit="10" stroke-width="2.4125838720000004" stroke-dasharray=""/></g><g><text fill="black" stroke="none" font-family="sans-serif" font-size="11pt" font-style="normal" font-weight="normal" text-decoration="normal" x="535.1722606782129" y="73.433021604" text-anchor="start" dominant-baseline="alphabetic" xml:space="preserve">Index</text></g><path fill="none" stroke="none"/><g><path fill="white" stroke="black" paint-order="fill stroke markers" d=" M 752.8086482947235 47.950104456000005 L 827.0793162957841 47.950104456000005 L 827.0793162957841 88.511670804 L 752.8086482947235 88.511670804 L 752.8086482947235 47.950104456000005 Z" stroke-miterlimit="10" stroke-width="2.4125838720000004" stroke-dasharray=""/></g><g><text fill="black" stroke="none" font-family="sans-serif" font-size="11pt" font-style="normal" font-weight="normal" text-decoration="normal" x="769.1689826767235" y="73.433021604" text-anchor="start" dominant-baseline="alphabetic" xml:space="preserve">Pager</text></g></g><g><path fill="white" stroke="black" paint-order="fill stroke markers" d=" M 90.0030842058789 96.050995404 L 105.08173340587891 96.050995404 L 105.08173340587891 1927.3529407440005 L 90.0030842058789 1927.3529407440005 L 90.0030842058789 96.050995404" stroke-miterlimit="10" stroke-width="1.2565541" stroke-dasharray=""/><path fill="white" stroke="black" paint-order="fill stroke markers" d=" M 547.8329368411523 117.915036744 L 562.9115860411523 117.915036744 L 562.9115860411523 1857.9911544240006 L 547.8329368411523 1857.9911544240006 L 547.8329368411523 117.915036744" stroke-miterlimit="10" stroke-width="1.2565541" stroke-dasharray=""/><path fill="white" stroke="black" paint-order="fill stroke markers" d=" M 353.5612190388086 329.7700580040001 L 368.63986823880856 329.7700580040001 L 368.63986823880856 414.9644259840001 L 353.5612190388086 414.9644259840001 L 353.5612190388086 329.7700580040001" stroke-miterlimit="10" stroke-width="1.2565541" stroke-dasharray=""/><path fill="white" stroke="black" paint-order="fill stroke markers" d=" M 240.62480048234374 436.82846732400014 L 255.70344968234372 436.82846732400014 L 255.70344968234372 512.9756457840001 L 240.62480048234374 512.9756457840001 L 240.62480048234374 436.82846732400014" stroke-miterlimit="10" stroke-width="1.2565541" stroke-dasharray=""/><path fill="white" stroke="black" paint-order="fill stroke markers" d=" M 353.5612190388086 552.1801337040001 L 368.63986823880856 552.1801337040001 L 368.63986823880856 615.5104603440001 L 353.5612190388086 615.5104603440001 L 353.5612190388086 552.1801337040001" stroke-miterlimit="10" stroke-width="1.2565541" stroke-dasharray=""/><path fill="white" stroke="black" paint-order="fill stroke markers" d=" M 782.4046576952538 711.259882764 L 797.4833068952538 711.259882764 L 797.4833068952538 1373.966515104 L 782.4046576952538 1373.966515104 L 782.4046576952538 711.259882764" stroke-miterlimit="10" stroke-width="1.2565541" stroke-dasharray=""/><path fill="white" stroke="black" paint-order="fill stroke markers" d=" M 353.5612190388086 870.3396318240001 L 368.63986823880856 870.3396318240001 L 368.63986823880856 1016.602529064 L 353.5612190388086 1016.602529064 L 353.5612190388086 870.3396318240001" stroke-miterlimit="10" stroke-width="1.2565541" stroke-dasharray=""/><path fill="white" stroke="black" paint-order="fill stroke markers" d=" M 240.62480048234374 1055.807016984 L 255.70344968234372 1055.807016984 L 255.70344968234372 1131.954195444 L 240.62480048234374 1131.954195444 L 240.62480048234374 1055.807016984" stroke-miterlimit="10" stroke-width="1.2565541" stroke-dasharray=""/><path fill="white" stroke="black" paint-order="fill stroke markers" d=" M 353.5612190388086 1171.1586833640001 L 368.63986823880856 1171.1586833640001 L 368.63986823880856 1234.4890100040002 L 353.5612190388086 1234.4890100040002 L 353.5612190388086 1171.1586833640001" stroke-miterlimit="10" stroke-width="1.2565541" stroke-dasharray=""/><path fill="white" stroke="black" paint-order="fill stroke markers" d=" M 353.5612190388086 1432.7732469840003 L 368.63986823880856 1432.7732469840003 L 368.63986823880856 1517.9676149640004 L 353.5612190388086 1517.9676149640004 L 353.5612190388086 1432.7732469840003" stroke-miterlimit="10" stroke-width="1.2565541" stroke-dasharray=""/><path fill="white" stroke="black" paint-order="fill stroke markers" d=" M 240.62480048234374 1539.8316563040005 L 255.70344968234372 1539.8316563040005 L 255.70344968234372 1615.9788347640006 L 240.62480048234374 1615.9788347640006 L 240.62480048234374 1539.8316563040005" stroke-miterlimit="10" stroke-width="1.2565541" stroke-dasharray=""/><path fill="white" stroke="black" paint-order="fill stroke markers" d=" M 353.5612190388086 1655.1833226840006 L 368.63986823880856 1655.1833226840006 L 368.63986823880856 1718.5136493240007 L 353.5612190388086 1718.5136493240007 L 353.5612190388086 1655.1833226840006" stroke-miterlimit="10" stroke-width="1.2565541" stroke-dasharray=""/><g><g><rect fill="white" stroke="none" x="252.5538675164648" y="98.31279278400001" width="147.80693521410157" height="19.602243960000003"/></g><text fill="black" stroke="none" font-family="sans-serif" font-size="11pt" font-style="normal" font-weight="normal" text-decoration="normal" x="254.8156648964648" y="111.88357706400001" text-anchor="start" dominant-baseline="alphabetic" xml:space="preserve">mutt_index_menu()</text></g><g><path fill="none" stroke="black" paint-order="fill stroke markers" d=" M 105.08173340587891 117.915036744 L 545.3198286411523 117.915036744" stroke-miterlimit="10" stroke-width="1.2565541" stroke-dasharray=""/><g transform="translate(547.8329368411523,117.915036744) translate(-547.8329368411523,-117.915036744)"><path fill="black" stroke="none" paint-order="stroke fill markers" d=" M 535.2673958411523 111.63226624400001 L 547.8329368411523 117.915036744 L 535.2673958411523 124.197807244 Z"/></g></g><g><g><rect fill="rgb(239,255,255)" stroke="none" x="580.7546542611524" y="172.952106324" width="92.65692605882812" height="19.602243960000003"/></g><text fill="black" stroke="none" font-family="sans-serif" font-size="11pt" font-style="normal" font-weight="normal" text-decoration="normal" x="583.0164516411523" y="186.522890604" text-anchor="start" dominant-baseline="alphabetic" xml:space="preserve">set_visible()</text></g><g><path fill="none" stroke="black" paint-order="fill stroke markers" d=" M 562.9115860411523 192.554350284 L 623.2261828411523 192.554350284 L 623.2261828411523 212.15659424400002 L 565.4246942411523 212.15659424400002" stroke-miterlimit="10" stroke-width="1.2565541" stroke-dasharray=""/><g transform="translate(562.9115860411523,212.15659424400002) translate(-562.9115860411523,-212.15659424400002)"><path fill="black" stroke="none" paint-order="stroke fill markers" d=" M 575.4771270411524 205.87382374400002 L 562.9115860411523 212.15659424400002 L 575.4771270411524 218.43936474400002 Z"/></g></g><g><g><rect fill="rgb(239,255,255)" stroke="none" x="580.7546542611524" y="214.41839162400004" width="84.89026346117187" height="19.602243960000003"/></g><text fill="black" stroke="none" font-family="sans-serif" font-size="11pt" font-style="normal" font-weight="normal" text-decoration="normal" x="583.0164516411523" y="227.98917590400004" text-anchor="start" dominant-baseline="alphabetic" xml:space="preserve">set_focus()</text></g><g><path fill="none" stroke="black" paint-order="fill stroke markers" d=" M 562.9115860411523 234.02063558400002 L 623.2261828411523 234.02063558400002 L 623.2261828411523 253.62287954400003 L 565.4246942411523 253.62287954400003" stroke-miterlimit="10" stroke-width="1.2565541" stroke-dasharray=""/><g transform="translate(562.9115860411523,253.62287954400003) translate(-562.9115860411523,-253.62287954400003)"><path fill="black" stroke="none" paint-order="stroke fill markers" d=" M 575.4771270411524 247.34010904400003 L 562.9115860411523 253.62287954400003 L 575.4771270411524 259.905650044 Z"/></g></g><path fill="#ffffc0" stroke="black" paint-order="fill stroke markers" d=" M 500.30382049938476 273.22512350400007 L 596.8699181029199 273.22512350400007 L 610.4407023829199 286.79590778400006 L 610.4407023829199 307.90601666400005 L 500.30382049938476 307.90601666400005 L 500.30382049938476 273.22512350400007 M 596.8699181029199 273.22512350400007 L 596.8699181029199 286.79590778400006 L 610.4407023829199 286.79590778400006" stroke-miterlimit="10" stroke-width="1.2565541" stroke-dasharray=""/><g><text fill="black" stroke="none" font-family="sans-serif" font-size="11pt" font-style="normal" font-weight="normal" text-decoration="normal" x="521.4139293793847" y="294.33523238400005" text-anchor="start" dominant-baseline="alphabetic" xml:space="preserve">Focussed</text></g><g><g><rect fill="rgb(239,255,255)" stroke="none" x="195.80134563616699" y="310.16781404400007" width="67.04026117235351" height="19.602243960000003"/></g><text fill="black" stroke="none" font-family="sans-serif" font-size="11pt" font-style="normal" font-weight="normal" text-decoration="normal" x="198.06314301616698" y="323.7385983240001" text-anchor="start" dominant-baseline="alphabetic" xml:space="preserve">redraw()</text></g><g><path fill="none" stroke="black" paint-order="fill stroke markers" d=" M 105.08173340587891 329.7700580040001 L 351.0481108388086 329.7700580040001" stroke-miterlimit="10" stroke-width="1.2565541" stroke-dasharray=""/><g transform="translate(353.5612190388086,329.7700580040001) translate(-353.5612190388086,-329.7700580040001)"><path fill="black" stroke="none" paint-order="stroke fill markers" d=" M 340.9956780388086 323.48728750400005 L 353.5612190388086 329.7700580040001 L 340.9956780388086 336.0528285040001 Z"/></g></g><g><g><rect fill="rgb(239,255,255)" stroke="none" x="386.4829364588085" y="332.03185538400004" width="60.92359628587891" height="19.602243960000003"/></g><text fill="black" stroke="none" font-family="sans-serif" font-size="11pt" font-style="normal" font-weight="normal" text-decoration="normal" x="388.74473383880854" y="345.6026396640001" text-anchor="start" dominant-baseline="alphabetic" xml:space="preserve">reflow()</text></g><g><path fill="none" stroke="black" paint-order="fill stroke markers" d=" M 368.63986823880856 351.63409934400005 L 428.95446503880856 351.63409934400005 L 428.95446503880856 371.23634330400006 L 371.15297643880854 371.23634330400006" stroke-miterlimit="10" stroke-width="1.2565541" stroke-dasharray=""/><g transform="translate(368.63986823880856,371.23634330400006) translate(-368.63986823880856,-371.23634330400006)"><path fill="black" stroke="none" paint-order="stroke fill markers" d=" M 381.20540923880856 364.95357280400003 L 368.63986823880856 371.23634330400006 L 381.20540923880856 377.5191138040001 Z"/></g></g><g><g><rect fill="rgb(239,255,255)" stroke="none" x="428.2829376032177" y="373.4981406840001" width="59.90692987352539" height="19.602243960000003"/></g><text fill="black" stroke="none" font-family="sans-serif" font-size="11pt" font-style="normal" font-weight="normal" text-decoration="normal" x="430.5447349832177" y="387.0689249640001" text-anchor="start" dominant-baseline="alphabetic" xml:space="preserve">recalc()</text></g><g><path fill="none" stroke="black" paint-order="fill stroke markers" d=" M 368.63986823880856 393.1003846440001 L 545.3198286411523 393.1003846440001" stroke-miterlimit="10" stroke-width="1.2565541" stroke-dasharray=""/><g transform="translate(547.8329368411523,393.1003846440001) translate(-547.8329368411523,-393.1003846440001)"><path fill="black" stroke="none" paint-order="stroke fill markers" d=" M 535.2673958411523 386.81761414400006 L 547.8329368411523 393.1003846440001 L 535.2673958411523 399.3831551440001 Z"/></g></g><g><g><rect fill="rgb(239,255,255)" stroke="none" x="424.1662727167431" y="395.3621820240001" width="68.1402596464746" height="19.602243960000003"/></g><text fill="black" stroke="none" font-family="sans-serif" font-size="11pt" font-style="normal" font-weight="normal" text-decoration="normal" x="426.4280700967431" y="408.93296630400016" text-anchor="start" dominant-baseline="alphabetic" xml:space="preserve">repaint()</text></g><g><path fill="none" stroke="black" paint-order="fill stroke markers" d=" M 368.63986823880856 414.9644259840001 L 545.3198286411523 414.9644259840001" stroke-miterlimit="10" stroke-width="1.2565541" stroke-dasharray=""/><g transform="translate(547.8329368411523,414.9644259840001) translate(-547.8329368411523,-414.9644259840001)"><path fill="black" stroke="none" paint-order="stroke fill markers" d=" M 535.2673958411523 408.6816554840001 L 547.8329368411523 414.9644259840001 L 535.2673958411523 421.24719648400014 Z"/></g></g><g><g><rect fill="rgb(239,255,255)" stroke="none" x="122.92480162587891" y="417.22622336400013" width="99.85693063646484" height="19.602243960000003"/></g><text fill="black" stroke="none" font-family="sans-serif" font-size="11pt" font-style="normal" font-weight="normal" text-decoration="normal" x="125.18659900587892" y="430.79700764400013" text-anchor="start" dominant-baseline="alphabetic" xml:space="preserve">mutt_getch()</text></g><g><path fill="none" stroke="black" paint-order="fill stroke markers" d=" M 105.08173340587891 436.82846732400014 L 238.11169228234374 436.82846732400014" stroke-miterlimit="10" stroke-width="1.2565541" stroke-dasharray=""/><g transform="translate(240.62480048234374,436.82846732400014) translate(-240.62480048234374,-436.82846732400014)"><path fill="black" stroke="none" paint-order="stroke fill markers" d=" M 228.05925948234375 430.5456968240001 L 240.62480048234374 436.82846732400014 L 228.05925948234375 443.11123782400017 Z"/></g></g><path fill="#ffffc0" stroke="black" paint-order="fill stroke markers" d=" M 157.8456803258789 456.43071128400015 L 324.91178555880856 456.43071128400015 L 338.48256983880856 470.00149556400015 L 338.48256983880856 491.11160444400014 L 157.8456803258789 491.11160444400014 L 157.8456803258789 456.43071128400015 M 324.91178555880856 456.43071128400015 L 324.91178555880856 470.00149556400015 L 338.48256983880856 470.00149556400015" stroke-miterlimit="10" stroke-width="1.2565541" stroke-dasharray=""/><g><text fill="black" stroke="none" font-family="sans-serif" font-size="11pt" font-style="normal" font-weight="normal" text-decoration="normal" x="178.9557892058789" y="477.54082016400014" text-anchor="start" dominant-baseline="alphabetic" xml:space="preserve">Pressed: '&lt;enter&gt;'</text></g><g><g><rect fill="rgb(239,255,255)" stroke="none" x="134.68313673940432" y="493.3734018240001" width="76.34026040941406" height="19.602243960000003"/></g><text fill="black" stroke="none" font-family="sans-serif" font-size="11pt" font-style="normal" font-weight="normal" text-decoration="normal" x="136.9449341194043" y="506.9441861040001" text-anchor="start" dominant-baseline="alphabetic" xml:space="preserve">'&lt;enter&gt;'</text></g><g><path fill="none" stroke="black" paint-order="fill stroke markers" d=" M 240.62480048234374 512.9756457840001 L 107.59484160587891 512.9756457840001" stroke-miterlimit="10" stroke-width="1.2565541" stroke-dasharray="6.03145968"/><g transform="translate(105.08173340587891,512.9756457840001) translate(-105.08173340587891,-512.9756457840001)"><path fill="black" stroke="none" paint-order="stroke fill markers" d=" M 117.6472744058789 506.6928752840001 L 105.08173340587891 512.9756457840001 L 117.6472744058789 519.2584162840001 Z"/></g></g><g><g><rect fill="rgb(239,255,255)" stroke="none" x="157.56801014117187" y="532.5778897440001" width="143.50693216234376" height="19.602243960000003"/></g><text fill="black" stroke="none" font-family="sans-serif" font-size="11pt" font-style="normal" font-weight="normal" text-decoration="normal" x="159.82980752117186" y="546.1486740240001" text-anchor="start" dominant-baseline="alphabetic" xml:space="preserve">win.key('&lt;enter&gt;')</text></g><g><path fill="none" stroke="black" paint-order="fill stroke markers" d=" M 105.08173340587891 552.1801337040001 L 351.0481108388086 552.1801337040001" stroke-miterlimit="10" stroke-width="1.2565541" stroke-dasharray=""/><g transform="translate(353.5612190388086,552.1801337040001) translate(-353.5612190388086,-552.1801337040001)"><path fill="black" stroke="none" paint-order="stroke fill markers" d=" M 340.9956780388086 545.8973632040002 L 353.5612190388086 552.1801337040001 L 340.9956780388086 558.4629042040001 Z"/></g></g><g><g><rect fill="rgb(239,255,255)" stroke="none" x="386.4829364588085" y="554.4419310840001" width="86.55692758470703" height="19.602243960000003"/></g><text fill="black" stroke="none" font-family="sans-serif" font-size="11pt" font-style="normal" font-weight="normal" text-decoration="normal" x="388.74473383880854" y="568.0127153640001" text-anchor="start" dominant-baseline="alphabetic" xml:space="preserve">get_focus()</text></g><g><path fill="none" stroke="black" paint-order="fill stroke markers" d=" M 368.63986823880856 574.0441750440001 L 428.95446503880856 574.0441750440001 L 428.95446503880856 593.6464190040001 L 371.15297643880854 593.6464190040001" stroke-miterlimit="10" stroke-width="1.2565541" stroke-dasharray=""/><g transform="translate(368.63986823880856,593.6464190040001) translate(-368.63986823880856,-593.6464190040001)"><path fill="black" stroke="none" paint-order="stroke fill markers" d=" M 381.20540923880856 587.3636485040001 L 368.63986823880856 593.6464190040001 L 381.20540923880856 599.9291895040001 Z"/></g></g><g><g><rect fill="rgb(239,255,255)" stroke="none" x="386.4829364588085" y="595.9082163840001" width="143.50693216234376" height="19.602243960000003"/></g><text fill="black" stroke="none" font-family="sans-serif" font-size="11pt" font-style="normal" font-weight="normal" text-decoration="normal" x="388.74473383880854" y="609.4790006640001" text-anchor="start" dominant-baseline="alphabetic" xml:space="preserve">win.key('&lt;enter&gt;')</text></g><g><path fill="none" stroke="black" paint-order="fill stroke markers" d=" M 368.63986823880856 615.5104603440001 L 545.3198286411523 615.5104603440001" stroke-miterlimit="10" stroke-width="1.2565541" stroke-dasharray=""/><g transform="translate(547.8329368411523,615.5104603440001) translate(-547.8329368411523,-615.5104603440001)"><path fill="black" stroke="none" paint-order="stroke fill markers" d=" M 535.2673958411523 609.2276898440001 L 547.8329368411523 615.5104603440001 L 535.2673958411523 621.793230844 Z"/></g></g><g><g><rect fill="rgb(239,255,255)" stroke="none" x="580.7546542611524" y="617.772257724" width="136.49025430589845" height="19.602243960000003"/></g><g><rect fill="rgb(239,255,255)" stroke="none" x="580.7546542611524" y="632.850906924" width="171.02359476" height="19.602243960000003"/></g><text fill="black" stroke="none" font-family="sans-serif" font-size="11pt" font-style="normal" font-weight="normal" text-decoration="normal" x="583.0164516411523" y="631.343042004" text-anchor="start" dominant-baseline="alphabetic" xml:space="preserve">lookup('&lt;enter&gt;')</text><text fill="black" stroke="none" font-family="sans-serif" font-size="11pt" font-style="normal" font-weight="normal" text-decoration="normal" x="583.0164516411523" y="646.421691204" text-anchor="start" dominant-baseline="alphabetic" xml:space="preserve">OP_DISPLAY_MESSAGE</text></g><g><path fill="none" stroke="black" paint-order="fill stroke markers" d=" M 562.9115860411523 652.453150884 L 623.2261828411523 652.453150884 L 623.2261828411523 672.055394844 L 565.4246942411523 672.055394844" stroke-miterlimit="10" stroke-width="1.2565541" stroke-dasharray=""/><g transform="translate(562.9115860411523,672.055394844) translate(-562.9115860411523,-672.055394844)"><path fill="black" stroke="none" paint-order="stroke fill markers" d=" M 575.4771270411524 665.7726243440001 L 562.9115860411523 672.055394844 L 575.4771270411524 678.338165344 Z"/></g></g><g><g><rect fill="rgb(239,255,255)" stroke="none" x="580.7546542611524" y="691.657638804" width="183.80693521410157" height="19.602243960000003"/></g><text fill="black" stroke="none" font-family="sans-serif" font-size="11pt" font-style="normal" font-weight="normal" text-decoration="normal" x="583.0164516411523" y="705.228423084" text-anchor="start" dominant-baseline="alphabetic" xml:space="preserve">mutt_display_message()</text></g><g><path fill="none" stroke="black" paint-order="fill stroke markers" d=" M 562.9115860411523 711.259882764 L 779.8915494952538 711.259882764" stroke-miterlimit="10" stroke-width="1.2565541" stroke-dasharray=""/><g transform="translate(782.4046576952538,711.259882764) translate(-782.4046576952538,-711.259882764)"><path fill="black" stroke="none" paint-order="stroke fill markers" d=" M 769.8391166952538 704.9771122640001 L 782.4046576952538 711.259882764 L 769.8391166952538 717.542653264 Z"/></g></g><g><g><rect fill="rgb(239,255,255)" stroke="none" x="815.3263751152539" y="713.521680144" width="92.65692605882812" height="19.602243960000003"/></g><text fill="black" stroke="none" font-family="sans-serif" font-size="11pt" font-style="normal" font-weight="normal" text-decoration="normal" x="817.5881724952538" y="727.092464424" text-anchor="start" dominant-baseline="alphabetic" xml:space="preserve">set_visible()</text></g><g><path fill="none" stroke="black" paint-order="fill stroke markers" d=" M 797.4833068952538 733.123924104 L 857.7979036952538 733.123924104 L 857.7979036952538 752.726168064 L 799.9964150952538 752.726168064" stroke-miterlimit="10" stroke-width="1.2565541" stroke-dasharray=""/><g transform="translate(797.4833068952538,752.726168064) translate(-797.4833068952538,-752.726168064)"><path fill="black" stroke="none" paint-order="stroke fill markers" d=" M 810.0488478952539 746.4433975640001 L 797.4833068952538 752.726168064 L 810.0488478952539 759.008938564 Z"/></g></g><g><g><rect fill="rgb(239,255,255)" stroke="none" x="815.3263751152539" y="754.987965444" width="84.89026346117187" height="19.602243960000003"/></g><text fill="black" stroke="none" font-family="sans-serif" font-size="11pt" font-style="normal" font-weight="normal" text-decoration="normal" x="817.5881724952538" y="768.558749724" text-anchor="start" dominant-baseline="alphabetic" xml:space="preserve">set_focus()</text></g><g><path fill="none" stroke="black" paint-order="fill stroke markers" d=" M 797.4833068952538 774.590209404 L 857.7979036952538 774.590209404 L 857.7979036952538 794.192453364 L 799.9964150952538 794.192453364" stroke-miterlimit="10" stroke-width="1.2565541" stroke-dasharray=""/><g transform="translate(797.4833068952538,794.192453364) translate(-797.4833068952538,-794.192453364)"><path fill="black" stroke="none" paint-order="stroke fill markers" d=" M 810.0488478952539 787.909682864 L 797.4833068952538 794.192453364 L 810.0488478952539 800.475223864 Z"/></g></g><path fill="#ffffc0" stroke="black" paint-order="fill stroke markers" d=" M 734.8755413534863 813.7946973240001 L 831.4416389570214 813.7946973240001 L 845.0124232370214 827.3654816040001 L 845.0124232370214 848.4755904840001 L 734.8755413534863 848.4755904840001 L 734.8755413534863 813.7946973240001 M 831.4416389570214 813.7946973240001 L 831.4416389570214 827.3654816040001 L 845.0124232370214 827.3654816040001" stroke-miterlimit="10" stroke-width="1.2565541" stroke-dasharray=""/><g><text fill="black" stroke="none" font-family="sans-serif" font-size="11pt" font-style="normal" font-weight="normal" text-decoration="normal" x="755.9856502334862" y="834.9048062040001" text-anchor="start" dominant-baseline="alphabetic" xml:space="preserve">Focussed</text></g><g><g><rect fill="rgb(239,255,255)" stroke="none" x="195.80134563616699" y="850.7373878640001" width="67.04026117235351" height="19.602243960000003"/></g><text fill="black" stroke="none" font-family="sans-serif" font-size="11pt" font-style="normal" font-weight="normal" text-decoration="normal" x="198.06314301616698" y="864.3081721440001" text-anchor="start" dominant-baseline="alphabetic" xml:space="preserve">redraw()</text></g><g><path fill="none" stroke="black" paint-order="fill stroke markers" d=" M 105.08173340587891 870.3396318240001 L 351.0481108388086 870.3396318240001" stroke-miterlimit="10" stroke-width="1.2565541" stroke-dasharray=""/><g transform="translate(353.5612190388086,870.3396318240001) translate(-353.5612190388086,-870.3396318240001)"><path fill="black" stroke="none" paint-order="stroke fill markers" d=" M 340.9956780388086 864.0568613240001 L 353.5612190388086 870.3396318240001 L 340.9956780388086 876.6224023240001 Z"/></g></g><g><g><rect fill="rgb(239,255,255)" stroke="none" x="386.4829364588085" y="872.601429204" width="60.92359628587891" height="19.602243960000003"/></g><text fill="black" stroke="none" font-family="sans-serif" font-size="11pt" font-style="normal" font-weight="normal" text-decoration="normal" x="388.74473383880854" y="886.172213484" text-anchor="start" dominant-baseline="alphabetic" xml:space="preserve">reflow()</text></g><g><path fill="none" stroke="black" paint-order="fill stroke markers" d=" M 368.63986823880856 892.2036731640001 L 428.95446503880856 892.2036731640001 L 428.95446503880856 911.8059171240001 L 371.15297643880854 911.8059171240001" stroke-miterlimit="10" stroke-width="1.2565541" stroke-dasharray=""/><g transform="translate(368.63986823880856,911.8059171240001) translate(-368.63986823880856,-911.8059171240001)"><path fill="black" stroke="none" paint-order="stroke fill markers" d=" M 381.20540923880856 905.5231466240001 L 368.63986823880856 911.8059171240001 L 381.20540923880856 918.088687624 Z"/></g></g><g><g><rect fill="rgb(239,255,255)" stroke="none" x="428.2829376032177" y="914.067714504" width="59.90692987352539" height="19.602243960000003"/></g><text fill="black" stroke="none" font-family="sans-serif" font-size="11pt" font-style="normal" font-weight="normal" text-decoration="normal" x="430.5447349832177" y="927.638498784" text-anchor="start" dominant-baseline="alphabetic" xml:space="preserve">recalc()</text></g><g><path fill="none" stroke="black" paint-order="fill stroke markers" d=" M 368.63986823880856 933.669958464 L 545.3198286411523 933.669958464" stroke-miterlimit="10" stroke-width="1.2565541" stroke-dasharray=""/><g transform="translate(547.8329368411523,933.669958464) translate(-547.8329368411523,-933.669958464)"><path fill="black" stroke="none" paint-order="stroke fill markers" d=" M 535.2673958411523 927.3871879640001 L 547.8329368411523 933.669958464 L 535.2673958411523 939.952728964 Z"/></g></g><g><g><rect fill="rgb(239,255,255)" stroke="none" x="545.5687980302686" y="935.931755844" width="59.90692987352539" height="19.602243960000003"/></g><text fill="black" stroke="none" font-family="sans-serif" font-size="11pt" font-style="normal" font-weight="normal" text-decoration="normal" x="547.8305954102685" y="949.502540124" text-anchor="start" dominant-baseline="alphabetic" xml:space="preserve">recalc()</text></g><g><path fill="none" stroke="black" paint-order="fill stroke markers" d=" M 368.63986823880856 955.533999804 L 779.8915494952538 955.533999804" stroke-miterlimit="10" stroke-width="1.2565541" stroke-dasharray=""/><g transform="translate(782.4046576952538,955.533999804) translate(-782.4046576952538,-955.533999804)"><path fill="black" stroke="none" paint-order="stroke fill markers" d=" M 769.8391166952538 949.251229304 L 782.4046576952538 955.533999804 L 769.8391166952538 961.816770304 Z"/></g></g><g><g><rect fill="rgb(239,255,255)" stroke="none" x="424.1662727167431" y="975.136243764" width="68.1402596464746" height="19.602243960000003"/></g><text fill="black" stroke="none" font-family="sans-serif" font-size="11pt" font-style="normal" font-weight="normal" text-decoration="normal" x="426.4280700967431" y="988.707028044" text-anchor="start" dominant-baseline="alphabetic" xml:space="preserve">repaint()</text></g><g><path fill="none" stroke="black" paint-order="fill stroke markers" d=" M 368.63986823880856 994.738487724 L 545.3198286411523 994.738487724" stroke-miterlimit="10" stroke-width="1.2565541" stroke-dasharray=""/><g transform="translate(547.8329368411523,994.738487724) translate(-547.8329368411523,-994.738487724)"><path fill="black" stroke="none" paint-order="stroke fill markers" d=" M 535.2673958411523 988.4557172240001 L 547.8329368411523 994.738487724 L 535.2673958411523 1001.021258224 Z"/></g></g><g><g><rect fill="rgb(239,255,255)" stroke="none" x="541.452133143794" y="997.000285104" width="68.1402596464746" height="19.602243960000003"/></g><text fill="black" stroke="none" font-family="sans-serif" font-size="11pt" font-style="normal" font-weight="normal" text-decoration="normal" x="543.7139305237939" y="1010.571069384" text-anchor="start" dominant-baseline="alphabetic" xml:space="preserve">repaint()</text></g><g><path fill="none" stroke="black" paint-order="fill stroke markers" d=" M 368.63986823880856 1016.602529064 L 779.8915494952538 1016.602529064" stroke-miterlimit="10" stroke-width="1.2565541" stroke-dasharray=""/><g transform="translate(782.4046576952538,1016.602529064) translate(-782.4046576952538,-1016.602529064)"><path fill="black" stroke="none" paint-order="stroke fill markers" d=" M 769.8391166952538 1010.319758564 L 782.4046576952538 1016.602529064 L 769.8391166952538 1022.885299564 Z"/></g></g><g><g><rect fill="rgb(239,255,255)" stroke="none" x="122.92480162587891" y="1036.2047730240001" width="99.85693063646484" height="19.602243960000003"/></g><text fill="black" stroke="none" font-family="sans-serif" font-size="11pt" font-style="normal" font-weight="normal" text-decoration="normal" x="125.18659900587892" y="1049.7755573040001" text-anchor="start" dominant-baseline="alphabetic" xml:space="preserve">mutt_getch()</text></g><g><path fill="none" stroke="black" paint-order="fill stroke markers" d=" M 105.08173340587891 1055.807016984 L 238.11169228234374 1055.807016984" stroke-miterlimit="10" stroke-width="1.2565541" stroke-dasharray=""/><g transform="translate(240.62480048234374,1055.807016984) translate(-240.62480048234374,-1055.807016984)"><path fill="black" stroke="none" paint-order="stroke fill markers" d=" M 228.05925948234375 1049.524246484 L 240.62480048234374 1055.807016984 L 228.05925948234375 1062.089787484 Z"/></g></g><path fill="#ffffc0" stroke="black" paint-order="fill stroke markers" d=" M 185.06235131586914 1075.409260944 L 297.6951145688183 1075.409260944 L 311.2658988488183 1088.980045224 L 311.2658988488183 1110.090154104 L 185.06235131586914 1110.090154104 L 185.06235131586914 1075.409260944 M 297.6951145688183 1075.409260944 L 297.6951145688183 1088.980045224 L 311.2658988488183 1088.980045224" stroke-miterlimit="10" stroke-width="1.2565541" stroke-dasharray=""/><g><text fill="black" stroke="none" font-family="sans-serif" font-size="11pt" font-style="normal" font-weight="normal" text-decoration="normal" x="206.17246019586912" y="1096.519369824" text-anchor="start" dominant-baseline="alphabetic" xml:space="preserve">Pressed: 'q'</text></g><g><g><rect fill="rgb(239,255,255)" stroke="none" x="161.89980296102297" y="1112.3519514840002" width="21.90692796617676" height="19.602243960000003"/></g><text fill="black" stroke="none" font-family="sans-serif" font-size="11pt" font-style="normal" font-weight="normal" text-decoration="normal" x="164.16160034102296" y="1125.9227357640002" text-anchor="start" dominant-baseline="alphabetic" xml:space="preserve">'q'</text></g><g><path fill="none" stroke="black" paint-order="fill stroke markers" d=" M 240.62480048234374 1131.954195444 L 107.59484160587891 1131.954195444" stroke-miterlimit="10" stroke-width="1.2565541" stroke-dasharray="6.03145968"/><g transform="translate(105.08173340587891,1131.954195444) translate(-105.08173340587891,-1131.954195444)"><path fill="black" stroke="none" paint-order="stroke fill markers" d=" M 117.6472744058789 1125.6714249440001 L 105.08173340587891 1131.954195444 L 117.6472744058789 1138.236965944 Z"/></g></g><g><g><rect fill="rgb(239,255,255)" stroke="none" x="184.78467731646484" y="1151.5564394040002" width="89.07359781175781" height="19.602243960000003"/></g><text fill="black" stroke="none" font-family="sans-serif" font-size="11pt" font-style="normal" font-weight="normal" text-decoration="normal" x="187.04647469646483" y="1165.1272236840002" text-anchor="start" dominant-baseline="alphabetic" xml:space="preserve">win.key('q')</text></g><g><path fill="none" stroke="black" paint-order="fill stroke markers" d=" M 105.08173340587891 1171.1586833640001 L 351.0481108388086 1171.1586833640001" stroke-miterlimit="10" stroke-width="1.2565541" stroke-dasharray=""/><g transform="translate(353.5612190388086,1171.1586833640001) translate(-353.5612190388086,-1171.1586833640001)"><path fill="black" stroke="none" paint-order="stroke fill markers" d=" M 340.9956780388086 1164.8759128640002 L 353.5612190388086 1171.1586833640001 L 340.9956780388086 1177.441453864 Z"/></g></g><g><g><rect fill="rgb(239,255,255)" stroke="none" x="386.4829364588085" y="1173.420480744" width="86.55692758470703" height="19.602243960000003"/></g><text fill="black" stroke="none" font-family="sans-serif" font-size="11pt" font-style="normal" font-weight="normal" text-decoration="normal" x="388.74473383880854" y="1186.991265024" text-anchor="start" dominant-baseline="alphabetic" xml:space="preserve">get_focus()</text></g><g><path fill="none" stroke="black" paint-order="fill stroke markers" d=" M 368.63986823880856 1193.0227247040002 L 428.95446503880856 1193.0227247040002 L 428.95446503880856 1212.624968664 L 371.15297643880854 1212.624968664" stroke-miterlimit="10" stroke-width="1.2565541" stroke-dasharray=""/><g transform="translate(368.63986823880856,1212.624968664) translate(-368.63986823880856,-1212.624968664)"><path fill="black" stroke="none" paint-order="stroke fill markers" d=" M 381.20540923880856 1206.3421981640001 L 368.63986823880856 1212.624968664 L 381.20540923880856 1218.907739164 Z"/></g></g><g><g><rect fill="rgb(239,255,255)" stroke="none" x="530.9854640611524" y="1214.8867660440003" width="89.07359781175781" height="19.602243960000003"/></g><text fill="black" stroke="none" font-family="sans-serif" font-size="11pt" font-style="normal" font-weight="normal" text-decoration="normal" x="533.2472614411523" y="1228.4575503240003" text-anchor="start" dominant-baseline="alphabetic" xml:space="preserve">win.key('q')</text></g><g><path fill="none" stroke="black" paint-order="fill stroke markers" d=" M 368.63986823880856 1234.4890100040002 L 779.8915494952538 1234.4890100040002" stroke-miterlimit="10" stroke-width="1.2565541" stroke-dasharray=""/><g transform="translate(782.4046576952538,1234.4890100040002) translate(-782.4046576952538,-1234.4890100040002)"><path fill="black" stroke="none" paint-order="stroke fill markers" d=" M 769.8391166952538 1228.2062395040002 L 782.4046576952538 1234.4890100040002 L 769.8391166952538 1240.7717805040002 Z"/></g></g><g><g><rect fill="rgb(239,255,255)" stroke="none" x="815.3263751152539" y="1236.7508073840002" width="82.05692758470703" height="19.602243960000003"/></g><g><rect fill="rgb(239,255,255)" stroke="none" x="815.3263751152539" y="1251.8294565840001" width="64.87359323412109" height="19.602243960000003"/></g><text fill="black" stroke="none" font-family="sans-serif" font-size="11pt" font-style="normal" font-weight="normal" text-decoration="normal" x="817.5881724952538" y="1250.3215916640002" text-anchor="start" dominant-baseline="alphabetic" xml:space="preserve">lookup('q')</text><text fill="black" stroke="none" font-family="sans-serif" font-size="11pt" font-style="normal" font-weight="normal" text-decoration="normal" x="817.5881724952538" y="1265.4002408640001" text-anchor="start" dominant-baseline="alphabetic" xml:space="preserve">OP_EXIT</text></g><g><path fill="none" stroke="black" paint-order="fill stroke markers" d=" M 797.4833068952538 1271.4317005440003 L 857.7979036952538 1271.4317005440003 L 857.7979036952538 1291.0339445040001 L 799.9964150952538 1291.0339445040001" stroke-miterlimit="10" stroke-width="1.2565541" stroke-dasharray=""/><g transform="translate(797.4833068952538,1291.0339445040001) translate(-797.4833068952538,-1291.0339445040001)"><path fill="black" stroke="none" paint-order="stroke fill markers" d=" M 810.0488478952539 1284.7511740040002 L 797.4833068952538 1291.0339445040001 L 810.0488478952539 1297.3167150040001 Z"/></g></g><g><g><rect fill="rgb(239,255,255)" stroke="none" x="815.3263751152539" y="1293.295741884" width="106.04026498705078" height="19.602243960000003"/></g><text fill="black" stroke="none" font-family="sans-serif" font-size="11pt" font-style="normal" font-weight="normal" text-decoration="normal" x="817.5881724952538" y="1306.866526164" text-anchor="start" dominant-baseline="alphabetic" xml:space="preserve">set_invisible()</text></g><g><path fill="none" stroke="black" paint-order="fill stroke markers" d=" M 797.4833068952538 1312.8979858440002 L 857.7979036952538 1312.8979858440002 L 857.7979036952538 1332.5002298040001 L 799.9964150952538 1332.5002298040001" stroke-miterlimit="10" stroke-width="1.2565541" stroke-dasharray=""/><g transform="translate(797.4833068952538,1332.5002298040001) translate(-797.4833068952538,-1332.5002298040001)"><path fill="black" stroke="none" paint-order="stroke fill markers" d=" M 810.0488478952539 1326.2174593040002 L 797.4833068952538 1332.5002298040001 L 810.0488478952539 1338.783000304 Z"/></g></g><g><g><rect fill="rgb(239,255,255)" stroke="none" x="815.3263751152539" y="1334.762027184" width="114.34026040941406" height="19.602243960000003"/></g><text fill="black" stroke="none" font-family="sans-serif" font-size="11pt" font-style="normal" font-weight="normal" text-decoration="normal" x="817.5881724952538" y="1348.332811464" text-anchor="start" dominant-baseline="alphabetic" xml:space="preserve">restore_focus()</text></g><g><path fill="none" stroke="black" paint-order="fill stroke markers" d=" M 797.4833068952538 1354.3642711440002 L 857.7979036952538 1354.3642711440002 L 857.7979036952538 1373.966515104 L 799.9964150952538 1373.966515104" stroke-miterlimit="10" stroke-width="1.2565541" stroke-dasharray=""/><g transform="translate(797.4833068952538,1373.966515104) translate(-797.4833068952538,-1373.966515104)"><path fill="black" stroke="none" paint-order="stroke fill markers" d=" M 810.0488478952539 1367.6837446040001 L 797.4833068952538 1373.966515104 L 810.0488478952539 1380.249285604 Z"/></g></g><path fill="#ffffc0" stroke="black" paint-order="fill stroke markers" d=" M 500.30382049938476 1376.228312484 L 596.8699181029199 1376.228312484 L 610.4407023829199 1389.799096764 L 610.4407023829199 1410.9092056440002 L 500.30382049938476 1410.9092056440002 L 500.30382049938476 1376.228312484 M 596.8699181029199 1376.228312484 L 596.8699181029199 1389.799096764 L 610.4407023829199 1389.799096764" stroke-miterlimit="10" stroke-width="1.2565541" stroke-dasharray=""/><g><text fill="black" stroke="none" font-family="sans-serif" font-size="11pt" font-style="normal" font-weight="normal" text-decoration="normal" x="521.4139293793847" y="1397.3384213640002" text-anchor="start" dominant-baseline="alphabetic" xml:space="preserve">Focussed</text></g><g><g><rect fill="rgb(239,255,255)" stroke="none" x="195.80134563616699" y="1413.1710030240004" width="67.04026117235351" height="19.602243960000003"/></g><text fill="black" stroke="none" font-family="sans-serif" font-size="11pt" font-style="normal" font-weight="normal" text-decoration="normal" x="198.06314301616698" y="1426.7417873040004" text-anchor="start" dominant-baseline="alphabetic" xml:space="preserve">redraw()</text></g><g><path fill="none" stroke="black" paint-order="fill stroke markers" d=" M 105.08173340587891 1432.7732469840003 L 351.0481108388086 1432.7732469840003" stroke-miterlimit="10" stroke-width="1.2565541" stroke-dasharray=""/><g transform="translate(353.5612190388086,1432.7732469840003) translate(-353.5612190388086,-1432.7732469840003)"><path fill="black" stroke="none" paint-order="stroke fill markers" d=" M 340.9956780388086 1426.4904764840003 L 353.5612190388086 1432.7732469840003 L 340.9956780388086 1439.0560174840002 Z"/></g></g><g><g><rect fill="rgb(239,255,255)" stroke="none" x="386.4829364588085" y="1435.0350443640002" width="60.92359628587891" height="19.602243960000003"/></g><text fill="black" stroke="none" font-family="sans-serif" font-size="11pt" font-style="normal" font-weight="normal" text-decoration="normal" x="388.74473383880854" y="1448.6058286440002" text-anchor="start" dominant-baseline="alphabetic" xml:space="preserve">reflow()</text></g><g><path fill="none" stroke="black" paint-order="fill stroke markers" d=" M 368.63986823880856 1454.6372883240003 L 428.95446503880856 1454.6372883240003 L 428.95446503880856 1474.2395322840002 L 371.15297643880854 1474.2395322840002" stroke-miterlimit="10" stroke-width="1.2565541" stroke-dasharray=""/><g transform="translate(368.63986823880856,1474.2395322840002) translate(-368.63986823880856,-1474.2395322840002)"><path fill="black" stroke="none" paint-order="stroke fill markers" d=" M 381.20540923880856 1467.9567617840003 L 368.63986823880856 1474.2395322840002 L 381.20540923880856 1480.5223027840002 Z"/></g></g><g><g><rect fill="rgb(239,255,255)" stroke="none" x="428.2829376032177" y="1476.5013296640004" width="59.90692987352539" height="19.602243960000003"/></g><text fill="black" stroke="none" font-family="sans-serif" font-size="11pt" font-style="normal" font-weight="normal" text-decoration="normal" x="430.5447349832177" y="1490.0721139440004" text-anchor="start" dominant-baseline="alphabetic" xml:space="preserve">recalc()</text></g><g><path fill="none" stroke="black" paint-order="fill stroke markers" d=" M 368.63986823880856 1496.1035736240003 L 545.3198286411523 1496.1035736240003" stroke-miterlimit="10" stroke-width="1.2565541" stroke-dasharray=""/><g transform="translate(547.8329368411523,1496.1035736240003) translate(-547.8329368411523,-1496.1035736240003)"><path fill="black" stroke="none" paint-order="stroke fill markers" d=" M 535.2673958411523 1489.8208031240003 L 547.8329368411523 1496.1035736240003 L 535.2673958411523 1502.3863441240003 Z"/></g></g><g><g><rect fill="rgb(239,255,255)" stroke="none" x="424.1662727167431" y="1498.3653710040005" width="68.1402596464746" height="19.602243960000003"/></g><text fill="black" stroke="none" font-family="sans-serif" font-size="11pt" font-style="normal" font-weight="normal" text-decoration="normal" x="426.4280700967431" y="1511.9361552840005" text-anchor="start" dominant-baseline="alphabetic" xml:space="preserve">repaint()</text></g><g><path fill="none" stroke="black" paint-order="fill stroke markers" d=" M 368.63986823880856 1517.9676149640004 L 545.3198286411523 1517.9676149640004" stroke-miterlimit="10" stroke-width="1.2565541" stroke-dasharray=""/><g transform="translate(547.8329368411523,1517.9676149640004) translate(-547.8329368411523,-1517.9676149640004)"><path fill="black" stroke="none" paint-order="stroke fill markers" d=" M 535.2673958411523 1511.6848444640004 L 547.8329368411523 1517.9676149640004 L 535.2673958411523 1524.2503854640004 Z"/></g></g><g><g><rect fill="rgb(239,255,255)" stroke="none" x="122.92480162587891" y="1520.2294123440006" width="99.85693063646484" height="19.602243960000003"/></g><text fill="black" stroke="none" font-family="sans-serif" font-size="11pt" font-style="normal" font-weight="normal" text-decoration="normal" x="125.18659900587892" y="1533.8001966240006" text-anchor="start" dominant-baseline="alphabetic" xml:space="preserve">mutt_getch()</text></g><g><path fill="none" stroke="black" paint-order="fill stroke markers" d=" M 105.08173340587891 1539.8316563040005 L 238.11169228234374 1539.8316563040005" stroke-miterlimit="10" stroke-width="1.2565541" stroke-dasharray=""/><g transform="translate(240.62480048234374,1539.8316563040005) translate(-240.62480048234374,-1539.8316563040005)"><path fill="black" stroke="none" paint-order="stroke fill markers" d=" M 228.05925948234375 1533.5488858040005 L 240.62480048234374 1539.8316563040005 L 228.05925948234375 1546.1144268040005 Z"/></g></g><path fill="#ffffc0" stroke="black" paint-order="fill stroke markers" d=" M 185.06235131586914 1559.4339002640004 L 297.6951145688183 1559.4339002640004 L 311.2658988488183 1573.0046845440004 L 311.2658988488183 1594.1147934240005 L 185.06235131586914 1594.1147934240005 L 185.06235131586914 1559.4339002640004 M 297.6951145688183 1559.4339002640004 L 297.6951145688183 1573.0046845440004 L 311.2658988488183 1573.0046845440004" stroke-miterlimit="10" stroke-width="1.2565541" stroke-dasharray=""/><g><text fill="black" stroke="none" font-family="sans-serif" font-size="11pt" font-style="normal" font-weight="normal" text-decoration="normal" x="206.17246019586912" y="1580.5440091440005" text-anchor="start" dominant-baseline="alphabetic" xml:space="preserve">Pressed: 'q'</text></g><g><g><rect fill="rgb(239,255,255)" stroke="none" x="161.89980296102297" y="1596.3765908040007" width="21.90692796617676" height="19.602243960000003"/></g><text fill="black" stroke="none" font-family="sans-serif" font-size="11pt" font-style="normal" font-weight="normal" text-decoration="normal" x="164.16160034102296" y="1609.9473750840007" text-anchor="start" dominant-baseline="alphabetic" xml:space="preserve">'q'</text></g><g><path fill="none" stroke="black" paint-order="fill stroke markers" d=" M 240.62480048234374 1615.9788347640006 L 107.59484160587891 1615.9788347640006" stroke-miterlimit="10" stroke-width="1.2565541" stroke-dasharray="6.03145968"/><g transform="translate(105.08173340587891,1615.9788347640006) translate(-105.08173340587891,-1615.9788347640006)"><path fill="black" stroke="none" paint-order="stroke fill markers" d=" M 117.6472744058789 1609.6960642640006 L 105.08173340587891 1615.9788347640006 L 117.6472744058789 1622.2616052640005 Z"/></g></g><g><g><rect fill="rgb(239,255,255)" stroke="none" x="184.78467731646484" y="1635.5810787240007" width="89.07359781175781" height="19.602243960000003"/></g><text fill="black" stroke="none" font-family="sans-serif" font-size="11pt" font-style="normal" font-weight="normal" text-decoration="normal" x="187.04647469646483" y="1649.1518630040007" text-anchor="start" dominant-baseline="alphabetic" xml:space="preserve">win.key('q')</text></g><g><path fill="none" stroke="black" paint-order="fill stroke markers" d=" M 105.08173340587891 1655.1833226840006 L 351.0481108388086 1655.1833226840006" stroke-miterlimit="10" stroke-width="1.2565541" stroke-dasharray=""/><g transform="translate(353.5612190388086,1655.1833226840006) translate(-353.5612190388086,-1655.1833226840006)"><path fill="black" stroke="none" paint-order="stroke fill markers" d=" M 340.9956780388086 1648.9005521840006 L 353.5612190388086 1655.1833226840006 L 340.9956780388086 1661.4660931840006 Z"/></g></g><g><g><rect fill="rgb(239,255,255)" stroke="none" x="386.4829364588085" y="1657.4451200640005" width="86.55692758470703" height="19.602243960000003"/></g><text fill="black" stroke="none" font-family="sans-serif" font-size="11pt" font-style="normal" font-weight="normal" text-decoration="normal" x="388.74473383880854" y="1671.0159043440005" text-anchor="start" dominant-baseline="alphabetic" xml:space="preserve">get_focus()</text></g><g><path fill="none" stroke="black" paint-order="fill stroke markers" d=" M 368.63986823880856 1677.0473640240007 L 428.95446503880856 1677.0473640240007 L 428.95446503880856 1696.6496079840006 L 371.15297643880854 1696.6496079840006" stroke-miterlimit="10" stroke-width="1.2565541" stroke-dasharray=""/><g transform="translate(368.63986823880856,1696.6496079840006) translate(-368.63986823880856,-1696.6496079840006)"><path fill="black" stroke="none" paint-order="stroke fill markers" d=" M 381.20540923880856 1690.3668374840006 L 368.63986823880856 1696.6496079840006 L 381.20540923880856 1702.9323784840005 Z"/></g></g><g><g><rect fill="rgb(239,255,255)" stroke="none" x="413.6996036341015" y="1698.9114053640008" width="89.07359781175781" height="19.602243960000003"/></g><text fill="black" stroke="none" font-family="sans-serif" font-size="11pt" font-style="normal" font-weight="normal" text-decoration="normal" x="415.9614010141015" y="1712.4821896440008" text-anchor="start" dominant-baseline="alphabetic" xml:space="preserve">win.key('q')</text></g><g><path fill="none" stroke="black" paint-order="fill stroke markers" d=" M 368.63986823880856 1718.5136493240007 L 545.3198286411523 1718.5136493240007" stroke-miterlimit="10" stroke-width="1.2565541" stroke-dasharray=""/><g transform="translate(547.8329368411523,1718.5136493240007) translate(-547.8329368411523,-1718.5136493240007)"><path fill="black" stroke="none" paint-order="stroke fill markers" d=" M 535.2673958411523 1712.2308788240007 L 547.8329368411523 1718.5136493240007 L 535.2673958411523 1724.7964198240006 Z"/></g></g><g><g><rect fill="rgb(239,255,255)" stroke="none" x="580.7546542611524" y="1720.7754467040006" width="82.05692758470703" height="19.602243960000003"/></g><g><rect fill="rgb(239,255,255)" stroke="none" x="580.7546542611524" y="1735.8540959040006" width="64.87359323412109" height="19.602243960000003"/></g><text fill="black" stroke="none" font-family="sans-serif" font-size="11pt" font-style="normal" font-weight="normal" text-decoration="normal" x="583.0164516411523" y="1734.3462309840006" text-anchor="start" dominant-baseline="alphabetic" xml:space="preserve">lookup('q')</text><text fill="black" stroke="none" font-family="sans-serif" font-size="11pt" font-style="normal" font-weight="normal" text-decoration="normal" x="583.0164516411523" y="1749.4248801840006" text-anchor="start" dominant-baseline="alphabetic" xml:space="preserve">OP_EXIT</text></g><g><path fill="none" stroke="black" paint-order="fill stroke markers" d=" M 562.9115860411523 1755.4563398640007 L 623.2261828411523 1755.4563398640007 L 623.2261828411523 1775.0585838240006 L 565.4246942411523 1775.0585838240006" stroke-miterlimit="10" stroke-width="1.2565541" stroke-dasharray=""/><g transform="translate(562.9115860411523,1775.0585838240006) translate(-562.9115860411523,-1775.0585838240006)"><path fill="black" stroke="none" paint-order="stroke fill markers" d=" M 575.4771270411524 1768.7758133240006 L 562.9115860411523 1775.0585838240006 L 575.4771270411524 1781.3413543240006 Z"/></g></g><g><g><rect fill="rgb(239,255,255)" stroke="none" x="580.7546542611524" y="1777.3203812040006" width="106.04026498705078" height="19.602243960000003"/></g><text fill="black" stroke="none" font-family="sans-serif" font-size="11pt" font-style="normal" font-weight="normal" text-decoration="normal" x="583.0164516411523" y="1790.8911654840006" text-anchor="start" dominant-baseline="alphabetic" xml:space="preserve">set_invisible()</text></g><g><path fill="none" stroke="black" paint-order="fill stroke markers" d=" M 562.9115860411523 1796.9226251640007 L 623.2261828411523 1796.9226251640007 L 623.2261828411523 1816.5248691240006 L 565.4246942411523 1816.5248691240006" stroke-miterlimit="10" stroke-width="1.2565541" stroke-dasharray=""/><g transform="translate(562.9115860411523,1816.5248691240006) translate(-562.9115860411523,-1816.5248691240006)"><path fill="black" stroke="none" paint-order="stroke fill markers" d=" M 575.4771270411524 1810.2420986240006 L 562.9115860411523 1816.5248691240006 L 575.4771270411524 1822.8076396240006 Z"/></g></g><g><g><rect fill="rgb(239,255,255)" stroke="none" x="580.7546542611524" y="1818.7866665040006" width="114.34026040941406" height="19.602243960000003"/></g><text fill="black" stroke="none" font-family="sans-serif" font-size="11pt" font-style="normal" font-weight="normal" text-decoration="normal" x="583.0164516411523" y="1832.3574507840005" text-anchor="start" dominant-baseline="alphabetic" xml:space="preserve">restore_focus()</text></g><g><path fill="none" stroke="black" paint-order="fill stroke markers" d=" M 562.9115860411523 1838.3889104640007 L 623.2261828411523 1838.3889104640007 L 623.2261828411523 1857.9911544240006 L 565.4246942411523 1857.9911544240006" stroke-miterlimit="10" stroke-width="1.2565541" stroke-dasharray=""/><g transform="translate(562.9115860411523,1857.9911544240006) translate(-562.9115860411523,-1857.9911544240006)"><path fill="black" stroke="none" paint-order="stroke fill markers" d=" M 575.4771270411524 1851.7083839240006 L 562.9115860411523 1857.9911544240006 L 575.4771270411524 1864.2739249240005 Z"/></g></g><path fill="#ffffc0" stroke="black" paint-order="fill stroke markers" d=" M 30.157298400000002 1860.2529518040005 L 151.3567349317578 1860.2529518040005 L 164.9275192117578 1873.8237360840005 L 164.9275192117578 1910.0124941640006 L 30.157298400000002 1910.0124941640006 L 30.157298400000002 1860.2529518040005 M 151.3567349317578 1860.2529518040005 L 151.3567349317578 1873.8237360840005 L 164.9275192117578 1873.8237360840005" stroke-miterlimit="10" stroke-width="1.2565541" stroke-dasharray=""/><g><text fill="black" stroke="none" font-family="sans-serif" font-size="11pt" font-style="normal" font-weight="normal" text-decoration="normal" x="51.26740728" y="1881.3630606840006" text-anchor="start" dominant-baseline="alphabetic" xml:space="preserve">No Focussed</text><text fill="black" stroke="none" font-family="sans-serif" font-size="11pt" font-style="normal" font-weight="normal" text-decoration="normal" x="51.26740728" y="1896.4417098840006" text-anchor="start" dominant-baseline="alphabetic" xml:space="preserve">Window</text></g><g><g/><path fill="none" stroke="black" paint-order="fill stroke markers" d=" M 15.078649200000001 152.595929904 L 934.9441627446678 152.595929904 L 934.9441627446678 1962.0338339040004 L 15.078649200000001 1962.0338339040004 L 15.078649200000001 152.595929904 Z" stroke-miterlimit="10" stroke-width="2.154092742857143" stroke-dasharray=""/><path fill="#b0ffff" stroke="black" paint-order="fill stroke markers" d=" M 15.078649200000001 152.595929904 L 15.078649200000001 170.690308944 L 73.78594683706055 170.690308944 L 82.83313635706055 161.643119424 L 82.83313635706055 152.595929904 L 15.078649200000001 152.595929904" stroke-miterlimit="10" stroke-width="2.154092742857143" stroke-dasharray=""/><text fill="black" stroke="none" font-family="sans-serif" font-size="8.8pt" font-style="normal" font-weight="bold" text-decoration="normal" x="30.157298400000002" y="164.658849264" text-anchor="start" dominant-baseline="alphabetic" xml:space="preserve">loop</text><text fill="black" stroke="none" font-family="sans-serif" font-size="8.8pt" font-style="normal" font-weight="bold" text-decoration="normal" x="97.91178555706055" y="164.658849264" text-anchor="start" dominant-baseline="alphabetic" xml:space="preserve">[Event Loop]</text></g></g></g></svg>