<svg version="1.1" xmlns="http://www.w3.org/2000/svg" xmlns:xlink="http://www.w3.org/1999/xlink" width="775" height="920"><defs/><g><g/><g/><g/><g/><g/><g/><g/><g/><g/><g/><g/><g/><g/><g/><g/><g/><g/><g/><g/><g/><g/><g/><g/><g/><g/><g/><g/><g><rect fill="white" stroke="none" x="0" y="0" width="775" height="920"/></g><g><text fill="black" stroke="none" font-family="sans-serif" font-size="16.5pt" font-style="normal" font-weight="normal" text-decoration="normal" x="340.88966484493943" y="22.6179738" text-anchor="start" dominant-baseline="alphabetic" xml:space="preserve">event-multiple</text></g><g><rect fill="rgb(239,255,255)" stroke="none" x="15.078649200000001" y="130.731888564" width="745.2720328157578" height="737.34594588"/></g><g><path fill="none" stroke="black" paint-order="fill stroke markers" d=" M 75.393246 88.511670804 L 75.393246 920.853106644" stroke-miterlimit="10" stroke-width="1.2565541" stroke-dasharray="11.598960923076923,5.0262164"/><path fill="none" stroke="black" paint-order="fill stroke markers" d=" M 226.01496227646484 88.511670804 L 226.01496227646484 920.853106644" stroke-miterlimit="10" stroke-width="1.2565541" stroke-dasharray="11.598960923076923,5.0262164"/><path fill="none" stroke="black" paint-order="fill stroke markers" d=" M 319.47261306517186 88.511670804 L 319.47261306517186 920.853106644" stroke-miterlimit="10" stroke-width="1.2565541" stroke-dasharray="11.598960923076923,5.0262164"/><path fill="none" stroke="black" paint-order="fill stroke markers" d=" M 476.6943278157578 88.511670804 L 476.6943278157578 920.853106644" stroke-miterlimit="10" stroke-width="1.2565541" stroke-dasharray="11.598960923076923,5.0262164"/><path fill="none" stroke="black" paint-order="fill stroke markers" d=" M 602.6338343910508 88.511670804 L 602.6338343910508 920.853106644" stroke-miterlimit="10" stroke-width="1.2565541" stroke-dasharray="11.598960923076923,5.0262164"/></g><g><path fill="none" stroke="none"/><g><path fill="white" stroke="black" paint-order="fill stroke markers" d=" M 41.51624520564649 47.950104456000005 L 109.27024679435351 47.950104456000005 L 109.27024679435351 88.511670804 L 41.51624520564649 88.511670804 L 41.51624520564649 47.950104456000005 Z" stroke-miterlimit="10" stroke-width="2.4125838720000004" stroke-dasharray=""/></g><g><text fill="black" stroke="none" font-family="sans-serif" font-size="11pt" font-style="normal" font-weight="normal" text-decoration="normal" x="57.87657958764649" y="73.433021604" text-anchor="start" dominant-baseline="alphabetic" xml:space="preserve">Main</text></g><path fill="none" stroke="none"/><g><path fill="white" stroke="black" paint-order="fill stroke markers" d=" M 192.92962751299513 47.950104456000005 L 259.10029703993456 47.950104456000005 L 259.10029703993456 88.511670804 L 192.92962751299513 88.511670804 L 192.92962751299513 47.950104456000005 Z" stroke-miterlimit="10" stroke-width="2.4125838720000004" stroke-dasharray=""/></g><g><text fill="black" stroke="none" font-family="sans-serif" font-size="11pt" font-style="normal" font-weight="normal" text-decoration="normal" x="209.28996189499512" y="73.433021604" text-anchor="start" dominant-baseline="alphabetic" xml:space="preserve">User</text></g><path fill="none" stroke="none"/><g><path fill="white" stroke="black" paint-order="fill stroke markers" d=" M 274.17894623993453 47.950104456000005 L 364.7662798904091 47.950104456000005 L 364.7662798904091 88.511670804 L 274.17894623993453 88.511670804 L 274.17894623993453 47.950104456000005 Z" stroke-miterlimit="10" stroke-width="2.4125838720000004" stroke-dasharray=""/></g><g><text fill="black" stroke="none" font-family="sans-serif" font-size="11pt" font-style="normal" font-weight="normal" text-decoration="normal" x="290.53928062193455" y="73.433021604" text-anchor="start" dominant-baseline="alphabetic" xml:space="preserve">Window</text></g><path fill="none" stroke="none"/><g><path fill="white" stroke="black" paint-order="fill stroke markers" d=" M 429.95899343375777 47.950104456000005 L 523.4296621977578 47.950104456000005 L 523.4296621977578 88.511670804 L 429.95899343375777 88.511670804 L 429.95899343375777 47.950104456000005 Z" stroke-miterlimit="10" stroke-width="2.4125838720000004" stroke-dasharray=""/></g><g><text fill="black" stroke="none" font-family="sans-serif" font-size="11pt" font-style="normal" font-weight="normal" text-decoration="normal" x="446.3193278157578" y="73.433021604" text-anchor="start" dominant-baseline="alphabetic" xml:space="preserve">Dialog 1</text></g><path fill="none" stroke="none"/><g><path fill="white" stroke="black" paint-order="fill stroke markers" d=" M 555.8985000090507 47.950104456000005 L 649.3691687730508 47.950104456000005 L 649.3691687730508 88.511670804 L 555.8985000090507 88.511670804 L 555.8985000090507 47.950104456000005 Z" stroke-miterlimit="10" stroke-width="2.4125838720000004" stroke-dasharray=""/></g><g><text fill="black" stroke="none" font-family="sans-serif" font-size="11pt" font-style="normal" font-weight="normal" text-decoration="normal" x="572.2588343910508" y="73.433021604" text-anchor="start" dominant-baseline="alphabetic" xml:space="preserve">Dialog 2</text></g></g><g><path fill="white" stroke="black" paint-order="fill stroke markers" d=" M 67.8539214 96.050995404 L 82.9325706 96.050995404 L 82.9325706 905.7744574440001 L 67.8539214 905.7744574440001 L 67.8539214 96.050995404" stroke-miterlimit="10" stroke-width="1.2565541" stroke-dasharray=""/><path fill="white" stroke="black" paint-order="fill stroke markers" d=" M 469.1550032157578 96.050995404 L 484.2336524157578 96.050995404 L 484.2336524157578 905.7744574440001 L 469.1550032157578 905.7744574440001 L 469.1550032157578 96.050995404" stroke-miterlimit="10" stroke-width="1.2565541" stroke-dasharray=""/><path fill="white" stroke="black" paint-order="fill stroke markers" d=" M 595.0945097910508 96.050995404 L 610.1731589910507 96.050995404 L 610.1731589910507 905.7744574440001 L 595.0945097910508 905.7744574440001 L 595.0945097910508 96.050995404" stroke-miterlimit="10" stroke-width="1.2565541" stroke-dasharray=""/><path fill="white" stroke="black" paint-order="fill stroke markers" d=" M 311.93328846517187 224.973446064 L 327.01193766517184 224.973446064 L 327.01193766517184 353.8958967240001 L 311.93328846517187 353.8958967240001 L 311.93328846517187 224.973446064" stroke-miterlimit="10" stroke-width="1.2565541" stroke-dasharray=""/><path fill="white" stroke="black" paint-order="fill stroke markers" d=" M 218.47563767646483 375.75993806400015 L 233.55428687646486 375.75993806400015 L 233.55428687646486 451.9071165240002 L 218.47563767646483 451.9071165240002 L 218.47563767646483 375.75993806400015" stroke-miterlimit="10" stroke-width="1.2565541" stroke-dasharray=""/><path fill="white" stroke="black" paint-order="fill stroke markers" d=" M 311.93328846517187 491.1116044440002 L 327.01193766517184 491.1116044440002 L 327.01193766517184 833.396941284 L 311.93328846517187 833.396941284 L 311.93328846517187 491.1116044440002" stroke-miterlimit="10" stroke-width="1.2565541" stroke-dasharray=""/><path fill="#ffffc0" stroke="black" paint-order="fill stroke markers" d=" M 421.6258868739902 168.428511564 L 518.1919844775254 168.428511564 L 531.7627687575254 181.999295844 L 531.7627687575254 203.109404724 L 421.6258868739902 203.109404724 L 421.6258868739902 168.428511564 M 518.1919844775254 168.428511564 L 518.1919844775254 181.999295844 L 531.7627687575254 181.999295844" stroke-miterlimit="10" stroke-width="1.2565541" stroke-dasharray=""/><g><text fill="black" stroke="none" font-family="sans-serif" font-size="11pt" font-style="normal" font-weight="normal" text-decoration="normal" x="442.7359957539902" y="189.538620444" text-anchor="start" dominant-baseline="alphabetic" xml:space="preserve">Focussed</text></g><g><g><rect fill="rgb(239,255,255)" stroke="none" x="163.9127989464092" y="205.371202104" width="67.04026117235351" height="19.602243960000003"/></g><text fill="black" stroke="none" font-family="sans-serif" font-size="11pt" font-style="normal" font-weight="normal" text-decoration="normal" x="166.1745963264092" y="218.941986384" text-anchor="start" dominant-baseline="alphabetic" xml:space="preserve">redraw()</text></g><g><path fill="none" stroke="black" paint-order="fill stroke markers" d=" M 82.9325706 224.973446064 L 309.4201802651719 224.973446064" stroke-miterlimit="10" stroke-width="1.2565541" stroke-dasharray=""/><g transform="translate(311.93328846517187,224.973446064) translate(-311.93328846517187,-224.973446064)"><path fill="black" stroke="none" paint-order="stroke fill markers" d=" M 299.3677474651719 218.690675564 L 311.93328846517187 224.973446064 L 299.3677474651719 231.256216564 Z"/></g></g><g><g><rect fill="rgb(239,255,255)" stroke="none" x="344.8550058851718" y="227.235243444" width="60.92359628587891" height="19.602243960000003"/></g><text fill="black" stroke="none" font-family="sans-serif" font-size="11pt" font-style="normal" font-weight="normal" text-decoration="normal" x="347.1168032651718" y="240.806027724" text-anchor="start" dominant-baseline="alphabetic" xml:space="preserve">reflow()</text></g><g><path fill="none" stroke="black" paint-order="fill stroke markers" d=" M 327.01193766517184 246.837487404 L 387.32653446517185 246.837487404 L 387.32653446517185 266.439731364 L 329.5250458651718 266.439731364" stroke-miterlimit="10" stroke-width="1.2565541" stroke-dasharray=""/><g transform="translate(327.01193766517184,266.439731364) translate(-327.01193766517184,-266.439731364)"><path fill="black" stroke="none" paint-order="stroke fill markers" d=" M 339.57747866517184 260.156960864 L 327.01193766517184 266.439731364 L 339.57747866517184 272.72250186400004 Z"/></g></g><g><g><rect fill="rgb(239,255,255)" stroke="none" x="368.1300055037021" y="268.70152874400003" width="59.90692987352539" height="19.602243960000003"/></g><text fill="black" stroke="none" font-family="sans-serif" font-size="11pt" font-style="normal" font-weight="normal" text-decoration="normal" x="370.3918028837021" y="282.272313024" text-anchor="start" dominant-baseline="alphabetic" xml:space="preserve">recalc()</text></g><g><path fill="none" stroke="black" paint-order="fill stroke markers" d=" M 327.01193766517184 288.30377270400004 L 466.6418950157578 288.30377270400004" stroke-miterlimit="10" stroke-width="1.2565541" stroke-dasharray=""/><g transform="translate(469.1550032157578,288.30377270400004) translate(-469.1550032157578,-288.30377270400004)"><path fill="black" stroke="none" paint-order="stroke fill markers" d=" M 456.5894622157578 282.021002204 L 469.1550032157578 288.30377270400004 L 456.5894622157578 294.58654320400007 Z"/></g></g><g><g><rect fill="rgb(239,255,255)" stroke="none" x="431.0997587913486" y="290.56557008400006" width="59.90692987352539" height="19.602243960000003"/></g><text fill="black" stroke="none" font-family="sans-serif" font-size="11pt" font-style="normal" font-weight="normal" text-decoration="normal" x="433.36155617134864" y="304.1363543640001" text-anchor="start" dominant-baseline="alphabetic" xml:space="preserve">recalc()</text></g><g><path fill="none" stroke="black" paint-order="fill stroke markers" d=" M 327.01193766517184 310.16781404400007 L 592.5814015910507 310.16781404400007" stroke-miterlimit="10" stroke-width="1.2565541" stroke-dasharray=""/><g transform="translate(595.0945097910508,310.16781404400007) translate(-595.0945097910508,-310.16781404400007)"><path fill="black" stroke="none" paint-order="stroke fill markers" d=" M 582.5289687910507 303.88504354400004 L 595.0945097910508 310.16781404400007 L 582.5289687910507 316.4505845440001 Z"/></g></g><g><g><rect fill="rgb(239,255,255)" stroke="none" x="364.01334061722747" y="312.4296114240001" width="68.1402596464746" height="19.602243960000003"/></g><text fill="black" stroke="none" font-family="sans-serif" font-size="11pt" font-style="normal" font-weight="normal" text-decoration="normal" x="366.2751379972275" y="326.0003957040001" text-anchor="start" dominant-baseline="alphabetic" xml:space="preserve">repaint()</text></g><g><path fill="none" stroke="black" paint-order="fill stroke markers" d=" M 327.01193766517184 332.0318553840001 L 466.6418950157578 332.0318553840001" stroke-miterlimit="10" stroke-width="1.2565541" stroke-dasharray=""/><g transform="translate(469.1550032157578,332.0318553840001) translate(-469.1550032157578,-332.0318553840001)"><path fill="black" stroke="none" paint-order="stroke fill markers" d=" M 456.5894622157578 325.74908488400007 L 469.1550032157578 332.0318553840001 L 456.5894622157578 338.3146258840001 Z"/></g></g><g><g><rect fill="rgb(239,255,255)" stroke="none" x="426.983093904874" y="334.2936527640001" width="68.1402596464746" height="19.602243960000003"/></g><text fill="black" stroke="none" font-family="sans-serif" font-size="11pt" font-style="normal" font-weight="normal" text-decoration="normal" x="429.24489128487403" y="347.86443704400017" text-anchor="start" dominant-baseline="alphabetic" xml:space="preserve">repaint()</text></g><g><path fill="none" stroke="black" paint-order="fill stroke markers" d=" M 327.01193766517184 353.8958967240001 L 592.5814015910507 353.8958967240001" stroke-miterlimit="10" stroke-width="1.2565541" stroke-dasharray=""/><g transform="translate(595.0945097910508,353.8958967240001) translate(-595.0945097910508,-353.8958967240001)"><path fill="black" stroke="none" paint-order="stroke fill markers" d=" M 582.5289687910507 347.6131262240001 L 595.0945097910508 353.8958967240001 L 582.5289687910507 360.17866722400015 Z"/></g></g><g><g><rect fill="rgb(239,255,255)" stroke="none" x="100.77563882" y="356.15769410400014" width="99.85693063646484" height="19.602243960000003"/></g><text fill="black" stroke="none" font-family="sans-serif" font-size="11pt" font-style="normal" font-weight="normal" text-decoration="normal" x="103.0374362" y="369.72847838400014" text-anchor="start" dominant-baseline="alphabetic" xml:space="preserve">mutt_getch()</text></g><g><path fill="none" stroke="black" paint-order="fill stroke markers" d=" M 82.9325706 375.75993806400015 L 215.96252947646482 375.75993806400015" stroke-miterlimit="10" stroke-width="1.2565541" stroke-dasharray=""/><g transform="translate(218.47563767646483,375.75993806400015) translate(-218.47563767646483,-375.75993806400015)"><path fill="black" stroke="none" paint-order="stroke fill markers" d=" M 205.91009667646483 369.4771675640001 L 218.47563767646483 375.75993806400015 L 205.91009667646483 382.0427085640002 Z"/></g></g><path fill="#ffffc0" stroke="black" paint-order="fill stroke markers" d=" M 162.54651980881835 395.36218202400016 L 275.91262046411134 395.36218202400016 L 289.48340474411134 408.93296630400016 L 289.48340474411134 430.04307518400014 L 162.54651980881835 430.04307518400014 L 162.54651980881835 395.36218202400016 M 275.91262046411134 395.36218202400016 L 275.91262046411134 408.93296630400016 L 289.48340474411134 408.93296630400016" stroke-miterlimit="10" stroke-width="1.2565541" stroke-dasharray=""/><g><text fill="black" stroke="none" font-family="sans-serif" font-size="11pt" font-style="normal" font-weight="normal" text-decoration="normal" x="183.65662868881836" y="416.47229090400015" text-anchor="start" dominant-baseline="alphabetic" xml:space="preserve">Pressed: 'X'</text></g><g><g><rect fill="rgb(239,255,255)" stroke="none" x="139.3839733613208" y="432.30487256400016" width="22.640261553823244" height="19.602243960000003"/></g><text fill="black" stroke="none" font-family="sans-serif" font-size="11pt" font-style="normal" font-weight="normal" text-decoration="normal" x="141.6457707413208" y="445.8756568440002" text-anchor="start" dominant-baseline="alphabetic" xml:space="preserve">'X'</text></g><g><path fill="none" stroke="black" paint-order="fill stroke markers" d=" M 218.47563767646483 451.9071165240002 L 85.44567880000001 451.9071165240002" stroke-miterlimit="10" stroke-width="1.2565541" stroke-dasharray="6.03145968"/><g transform="translate(82.9325706,451.9071165240002) translate(-82.9325706,-451.9071165240002)"><path fill="black" stroke="none" paint-order="stroke fill markers" d=" M 95.4981116 445.62434602400015 L 82.9325706 451.9071165240002 L 95.4981116 458.1898870240002 Z"/></g></g><g><g><rect fill="rgb(239,255,255)" stroke="none" x="144.204464977293" y="471.5093604840002" width="106.45692911058593" height="19.602243960000003"/></g><text fill="black" stroke="none" font-family="sans-serif" font-size="11pt" font-style="normal" font-weight="normal" text-decoration="normal" x="146.46626235729298" y="485.08014476400024" text-anchor="start" dominant-baseline="alphabetic" xml:space="preserve">key_press('X')</text></g><g><path fill="none" stroke="black" paint-order="fill stroke markers" d=" M 82.9325706 491.1116044440002 L 309.4201802651719 491.1116044440002" stroke-miterlimit="10" stroke-width="1.2565541" stroke-dasharray=""/><g transform="translate(311.93328846517187,491.1116044440002) translate(-311.93328846517187,-491.1116044440002)"><path fill="black" stroke="none" paint-order="stroke fill markers" d=" M 299.3677474651719 484.82883394400017 L 311.93328846517187 491.1116044440002 L 299.3677474651719 497.3943749440002 Z"/></g></g><g><g><rect fill="rgb(239,255,255)" stroke="none" x="344.8550058851718" y="493.3734018240002" width="86.55692758470703" height="19.602243960000003"/></g><text fill="black" stroke="none" font-family="sans-serif" font-size="11pt" font-style="normal" font-weight="normal" text-decoration="normal" x="347.1168032651718" y="506.9441861040002" text-anchor="start" dominant-baseline="alphabetic" xml:space="preserve">get_focus()</text></g><g><path fill="none" stroke="black" paint-order="fill stroke markers" d=" M 327.01193766517184 512.9756457840002 L 387.32653446517185 512.9756457840002 L 387.32653446517185 532.5778897440002 L 329.5250458651718 532.5778897440002" stroke-miterlimit="10" stroke-width="1.2565541" stroke-dasharray=""/><g transform="translate(327.01193766517184,532.5778897440002) translate(-327.01193766517184,-532.5778897440002)"><path fill="black" stroke="none" paint-order="stroke fill markers" d=" M 339.57747866517184 526.2951192440003 L 327.01193766517184 532.5778897440002 L 339.57747866517184 538.8606602440002 Z"/></g></g><g><g><rect fill="rgb(239,255,255)" stroke="none" x="344.8550058851718" y="534.8396871240002" width="106.45692911058593" height="19.602243960000003"/></g><text fill="black" stroke="none" font-family="sans-serif" font-size="11pt" font-style="normal" font-weight="normal" text-decoration="normal" x="347.1168032651718" y="548.4104714040002" text-anchor="start" dominant-baseline="alphabetic" xml:space="preserve">key_press('X')</text></g><g><path fill="none" stroke="black" paint-order="fill stroke markers" d=" M 327.01193766517184 554.4419310840002 L 466.6418950157578 554.4419310840002" stroke-miterlimit="10" stroke-width="1.2565541" stroke-dasharray=""/><g transform="translate(469.1550032157578,554.4419310840002) translate(-469.1550032157578,-554.4419310840002)"><path fill="black" stroke="none" paint-order="stroke fill markers" d=" M 456.5894622157578 548.1591605840002 L 469.1550032157578 554.4419310840002 L 456.5894622157578 560.7247015840002 Z"/></g></g><g><g><rect fill="rgb(239,255,255)" stroke="none" x="502.07672063575774" y="556.7037284640002" width="87.74026193529296" height="19.602243960000003"/></g><g><rect fill="rgb(239,255,255)" stroke="none" x="502.07672063575774" y="571.7823776640001" width="70.30692758470703" height="19.602243960000003"/></g><text fill="black" stroke="none" font-family="sans-serif" font-size="11pt" font-style="normal" font-weight="normal" text-decoration="normal" x="504.33851801575776" y="570.2745127440002" text-anchor="start" dominant-baseline="alphabetic" xml:space="preserve">lookup('X'):</text><text fill="red" stroke="none" font-family="sans-serif" font-size="11pt" font-style="normal" font-weight="normal" text-decoration="normal" x="504.33851801575776" y="585.3531619440001" text-anchor="start" dominant-baseline="alphabetic" xml:space="preserve">OP_NULL</text></g><g><path fill="none" stroke="black" paint-order="fill stroke markers" d=" M 484.2336524157578 591.3846216240001 L 544.5482492157578 591.3846216240001 L 544.5482492157578 610.9868655840002 L 486.74676061575775 610.9868655840002" stroke-miterlimit="10" stroke-width="1.2565541" stroke-dasharray=""/><g transform="translate(484.2336524157578,610.9868655840002) translate(-484.2336524157578,-610.9868655840002)"><path fill="black" stroke="none" paint-order="stroke fill markers" d=" M 496.79919341575777 604.7040950840002 L 484.2336524157578 610.9868655840002 L 496.79919341575777 617.2696360840001 Z"/></g></g><g><g><rect fill="rgb(239,255,255)" stroke="none" x="356.7466722975253" y="613.2486629640001" width="82.6735962858789" height="19.602243960000003"/></g><text fill="red" stroke="none" font-family="sans-serif" font-size="11pt" font-style="normal" font-weight="normal" text-decoration="normal" x="359.00846967752534" y="626.8194472440001" text-anchor="start" dominant-baseline="alphabetic" xml:space="preserve">NO MATCH</text></g><g><path fill="none" stroke="red" paint-order="fill stroke markers" d=" M 469.1550032157578 632.8509069240001 L 329.5250458651718 632.8509069240001" stroke-miterlimit="10" stroke-width="1.2565541" stroke-dasharray="6.03145968"/><g transform="translate(327.01193766517184,632.8509069240001) translate(-327.01193766517184,-632.8509069240001)"><path fill="red" stroke="none" paint-order="stroke fill markers" d=" M 339.57747866517184 626.5681364240002 L 327.01193766517184 632.8509069240001 L 339.57747866517184 639.1336774240001 Z"/></g></g><g><g><rect fill="rgb(239,255,255)" stroke="none" x="344.8550058851718" y="652.4531508840001" width="112.60693063646484" height="19.602243960000003"/></g><text fill="black" stroke="none" font-family="sans-serif" font-size="11pt" font-style="normal" font-weight="normal" text-decoration="normal" x="347.1168032651718" y="666.0239351640001" text-anchor="start" dominant-baseline="alphabetic" xml:space="preserve">get_next_win()</text></g><g><path fill="none" stroke="black" paint-order="fill stroke markers" d=" M 327.01193766517184 672.0553948440001 L 387.32653446517185 672.0553948440001 L 387.32653446517185 691.6576388040002 L 329.5250458651718 691.6576388040002" stroke-miterlimit="10" stroke-width="1.2565541" stroke-dasharray=""/><g transform="translate(327.01193766517184,691.6576388040002) translate(-327.01193766517184,-691.6576388040002)"><path fill="black" stroke="none" paint-order="stroke fill markers" d=" M 339.57747866517184 685.3748683040002 L 327.01193766517184 691.6576388040002 L 339.57747866517184 697.9404093040001 Z"/></g></g><g><g><rect fill="rgb(239,255,255)" stroke="none" x="407.82475917281835" y="693.9194361840001" width="106.45692911058593" height="19.602243960000003"/></g><text fill="black" stroke="none" font-family="sans-serif" font-size="11pt" font-style="normal" font-weight="normal" text-decoration="normal" x="410.08655655281837" y="707.4902204640001" text-anchor="start" dominant-baseline="alphabetic" xml:space="preserve">key_press('X')</text></g><g><path fill="none" stroke="black" paint-order="fill stroke markers" d=" M 327.01193766517184 713.5216801440001 L 592.5814015910507 713.5216801440001" stroke-miterlimit="10" stroke-width="1.2565541" stroke-dasharray=""/><g transform="translate(595.0945097910508,713.5216801440001) translate(-595.0945097910508,-713.5216801440001)"><path fill="black" stroke="none" paint-order="stroke fill markers" d=" M 582.5289687910507 707.2389096440002 L 595.0945097910508 713.5216801440001 L 582.5289687910507 719.8044506440001 Z"/></g></g><g><g><rect fill="rgb(239,255,255)" stroke="none" x="628.0162272110508" y="715.7834775240001" width="87.74026193529296" height="19.602243960000003"/></g><g><rect fill="rgb(239,255,255)" stroke="none" x="628.0162272110508" y="730.8621267240001" width="88.12359323412109" height="19.602243960000003"/></g><text fill="black" stroke="none" font-family="sans-serif" font-size="11pt" font-style="normal" font-weight="normal" text-decoration="normal" x="630.2780245910508" y="729.3542618040001" text-anchor="start" dominant-baseline="alphabetic" xml:space="preserve">lookup('X'):</text><text fill="black" stroke="none" font-family="sans-serif" font-size="11pt" font-style="normal" font-weight="normal" text-decoration="normal" x="630.2780245910508" y="744.4329110040001" text-anchor="start" dominant-baseline="alphabetic" xml:space="preserve">OP_ACTION</text></g><g><path fill="none" stroke="black" paint-order="fill stroke markers" d=" M 610.1731589910507 750.4643706840001 L 670.4877557910507 750.4643706840001 L 670.4877557910507 770.0666146440001 L 612.6862671910508 770.0666146440001" stroke-miterlimit="10" stroke-width="1.2565541" stroke-dasharray=""/><g transform="translate(610.1731589910507,770.0666146440001) translate(-610.1731589910507,-770.0666146440001)"><path fill="black" stroke="none" paint-order="stroke fill markers" d=" M 622.7386999910508 763.7838441440001 L 610.1731589910507 770.0666146440001 L 622.7386999910508 776.349385144 Z"/></g></g><g><g><rect fill="rgb(239,255,255)" stroke="none" x="628.0162272110508" y="772.328412024" width="127.05692758470703" height="19.602243960000003"/></g><text fill="black" stroke="none" font-family="sans-serif" font-size="11pt" font-style="normal" font-weight="normal" text-decoration="normal" x="630.2780245910508" y="785.899196304" text-anchor="start" dominant-baseline="alphabetic" xml:space="preserve">perform_action()</text></g><g><path fill="none" stroke="black" paint-order="fill stroke markers" d=" M 610.1731589910507 791.930655984 L 670.4877557910507 791.930655984 L 670.4877557910507 811.5328999440001 L 612.6862671910508 811.5328999440001" stroke-miterlimit="10" stroke-width="1.2565541" stroke-dasharray=""/><g transform="translate(610.1731589910507,811.5328999440001) translate(-610.1731589910507,-811.5328999440001)"><path fill="black" stroke="none" paint-order="stroke fill markers" d=" M 622.7386999910508 805.2501294440001 L 610.1731589910507 811.5328999440001 L 622.7386999910508 817.815670444 Z"/></g></g><g><g><rect fill="rgb(239,255,255)" stroke="none" x="399.4997584098789" y="813.794697324" width="123.10693063646484" height="19.602243960000003"/></g><text fill="black" stroke="none" font-family="sans-serif" font-size="11pt" font-style="normal" font-weight="normal" text-decoration="normal" x="401.7615557898789" y="827.365481604" text-anchor="start" dominant-baseline="alphabetic" xml:space="preserve">KEY CONSUMED</text></g><g><path fill="none" stroke="black" paint-order="fill stroke markers" d=" M 595.0945097910508 833.396941284 L 329.5250458651718 833.396941284" stroke-miterlimit="10" stroke-width="1.2565541" stroke-dasharray="6.03145968"/><g transform="translate(327.01193766517184,833.396941284) translate(-327.01193766517184,-833.396941284)"><path fill="black" stroke="none" paint-order="stroke fill markers" d=" M 339.57747866517184 827.1141707840001 L 327.01193766517184 833.396941284 L 339.57747866517184 839.679711784 Z"/></g></g><g><g/><path fill="none" stroke="black" paint-order="fill stroke markers" d=" M 15.078649200000001 130.731888564 L 760.3506820157578 130.731888564 L 760.3506820157578 868.077834444 L 15.078649200000001 868.077834444 L 15.078649200000001 130.731888564 Z" stroke-miterlimit="10" stroke-width="2.154092742857143" stroke-dasharray=""/><path fill="#b0ffff" stroke="black" paint-order="fill stroke markers" d=" M 15.078649200000001 130.731888564 L 15.078649200000001 148.826267604 L 73.78594683706055 148.826267604 L 82.83313635706055 139.779078084 L 82.83313635706055 130.731888564 L 15.078649200000001 130.731888564" stroke-miterlimit="10" stroke-width="2.154092742857143" stroke-dasharray=""/><text fill="black" stroke="none" font-family="sans-serif" font-size="8.8pt" font-style="normal" font-weight="bold" text-decoration="normal" x="30.157298400000002" y="142.794807924" text-anchor="start" dominant-baseline="alphabetic" xml:space="preserve">loop</text><text fill="black" stroke="none" font-family="sans-serif" font-size="8.8pt" font-style="normal" font-weight="bold" text-decoration="normal" x="97.91178555706055" y="142.794807924" text-anchor="start" dominant-baseline="alphabetic" xml:space="preserve">[Event Loop]</text></g></g></g></svg>