<svg version="1.1" xmlns="http://www.w3.org/2000/svg" xmlns:xlink="http://www.w3.org/1999/xlink" width="632" height="696"><defs/><g><g/><g/><g/><g/><g/><g/><g/><g/><g/><g/><g/><g/><g/><g/><g/><g/><g/><g/><g><rect fill="white" stroke="none" x="0" y="0" width="632" height="696"/></g><g><text fill="black" stroke="none" font-family="sans-serif" font-size="16.5pt" font-style="normal" font-weight="normal" text-decoration="normal" x="269.5949107943535" y="22.6179738" text-anchor="start" dominant-baseline="alphabetic" xml:space="preserve">NeoMutt</text></g><g><rect fill="rgb(239,255,255)" stroke="none" x="15.078649200000001" y="130.731888564" width="602.6825247145858" height="512.6740728000001"/></g><g><path fill="none" stroke="black" paint-order="fill stroke markers" d=" M 75.393246 88.511670804 L 75.393246 696.1812335640001" stroke-miterlimit="10" stroke-width="1.2565541" stroke-dasharray="11.598960923076923,5.0262164"/><path fill="none" stroke="black" paint-order="fill stroke markers" d=" M 226.01496227646484 88.511670804 L 226.01496227646484 696.1812335640001" stroke-miterlimit="10" stroke-width="1.2565541" stroke-dasharray="11.598960923076923,5.0262164"/><path fill="none" stroke="black" paint-order="fill stroke markers" d=" M 319.47261306517186 88.511670804 L 319.47261306517186 696.1812335640001" stroke-miterlimit="10" stroke-width="1.2565541" stroke-dasharray="11.598960923076923,5.0262164"/><path fill="none" stroke="black" paint-order="fill stroke markers" d=" M 460.0443262898789 88.511670804 L 460.0443262898789 696.1812335640001" stroke-miterlimit="10" stroke-width="1.2565541" stroke-dasharray="11.598960923076923,5.0262164"/></g><g><path fill="none" stroke="none"/><g><path fill="white" stroke="black" paint-order="fill stroke markers" d=" M 41.51624520564649 47.950104456000005 L 109.27024679435351 47.950104456000005 L 109.27024679435351 88.511670804 L 41.51624520564649 88.511670804 L 41.51624520564649 47.950104456000005 Z" stroke-miterlimit="10" stroke-width="2.4125838720000004" stroke-dasharray=""/></g><g><text fill="black" stroke="none" font-family="sans-serif" font-size="11pt" font-style="normal" font-weight="normal" text-decoration="normal" x="57.87657958764649" y="73.433021604" text-anchor="start" dominant-baseline="alphabetic" xml:space="preserve">Main</text></g><path fill="none" stroke="none"/><g><path fill="white" stroke="black" paint-order="fill stroke markers" d=" M 192.92962751299513 47.950104456000005 L 259.10029703993456 47.950104456000005 L 259.10029703993456 88.511670804 L 192.92962751299513 88.511670804 L 192.92962751299513 47.950104456000005 Z" stroke-miterlimit="10" stroke-width="2.4125838720000004" stroke-dasharray=""/></g><g><text fill="black" stroke="none" font-family="sans-serif" font-size="11pt" font-style="normal" font-weight="normal" text-decoration="normal" x="209.28996189499512" y="73.433021604" text-anchor="start" dominant-baseline="alphabetic" xml:space="preserve">User</text></g><path fill="none" stroke="none"/><g><path fill="white" stroke="black" paint-order="fill stroke markers" d=" M 274.17894623993453 47.950104456000005 L 364.7662798904091 47.950104456000005 L 364.7662798904091 88.511670804 L 274.17894623993453 88.511670804 L 274.17894623993453 47.950104456000005 Z" stroke-miterlimit="10" stroke-width="2.4125838720000004" stroke-dasharray=""/></g><g><text fill="black" stroke="none" font-family="sans-serif" font-size="11pt" font-style="normal" font-weight="normal" text-decoration="normal" x="290.53928062193455" y="73.433021604" text-anchor="start" dominant-baseline="alphabetic" xml:space="preserve">Window</text></g><path fill="none" stroke="none"/><g><path fill="white" stroke="black" paint-order="fill stroke markers" d=" M 420.30899190787886 47.950104456000005 L 499.77966067187884 47.950104456000005 L 499.77966067187884 88.511670804 L 420.30899190787886 88.511670804 L 420.30899190787886 47.950104456000005 Z" stroke-miterlimit="10" stroke-width="2.4125838720000004" stroke-dasharray=""/></g><g><text fill="black" stroke="none" font-family="sans-serif" font-size="11pt" font-style="normal" font-weight="normal" text-decoration="normal" x="436.6693262898789" y="73.433021604" text-anchor="start" dominant-baseline="alphabetic" xml:space="preserve">Dialog</text></g></g><g><path fill="white" stroke="black" paint-order="fill stroke markers" d=" M 67.8539214 96.050995404 L 82.9325706 96.050995404 L 82.9325706 681.1025843640001 L 67.8539214 681.1025843640001 L 67.8539214 96.050995404" stroke-miterlimit="10" stroke-width="1.2565541" stroke-dasharray=""/><path fill="white" stroke="black" paint-order="fill stroke markers" d=" M 452.5050016898789 96.050995404 L 467.58365088987887 96.050995404 L 467.58365088987887 681.1025843640001 L 452.5050016898789 681.1025843640001 L 452.5050016898789 96.050995404" stroke-miterlimit="10" stroke-width="1.2565541" stroke-dasharray=""/><path fill="white" stroke="black" paint-order="fill stroke markers" d=" M 311.93328846517187 224.973446064 L 327.01193766517184 224.973446064 L 327.01193766517184 310.16781404400007 L 311.93328846517187 310.16781404400007 L 311.93328846517187 224.973446064" stroke-miterlimit="10" stroke-width="1.2565541" stroke-dasharray=""/><path fill="white" stroke="black" paint-order="fill stroke markers" d=" M 218.47563767646483 332.0318553840001 L 233.55428687646486 332.0318553840001 L 233.55428687646486 408.1790338440001 L 218.47563767646483 408.1790338440001 L 218.47563767646483 332.0318553840001" stroke-miterlimit="10" stroke-width="1.2565541" stroke-dasharray=""/><path fill="white" stroke="black" paint-order="fill stroke markers" d=" M 311.93328846517187 447.38352176400014 L 327.01193766517184 447.38352176400014 L 327.01193766517184 510.71384840400015 L 311.93328846517187 510.71384840400015 L 311.93328846517187 447.38352176400014" stroke-miterlimit="10" stroke-width="1.2565541" stroke-dasharray=""/><path fill="#ffffc0" stroke="black" paint-order="fill stroke markers" d=" M 404.9758853481113 168.428511564 L 501.54198295164645 168.428511564 L 515.1127672316464 181.999295844 L 515.1127672316464 203.109404724 L 404.9758853481113 203.109404724 L 404.9758853481113 168.428511564 M 501.54198295164645 168.428511564 L 501.54198295164645 181.999295844 L 515.1127672316464 181.999295844" stroke-miterlimit="10" stroke-width="1.2565541" stroke-dasharray=""/><g><text fill="black" stroke="none" font-family="sans-serif" font-size="11pt" font-style="normal" font-weight="normal" text-decoration="normal" x="426.0859942281113" y="189.538620444" text-anchor="start" dominant-baseline="alphabetic" xml:space="preserve">Focussed</text></g><g><g><rect fill="rgb(239,255,255)" stroke="none" x="163.9127989464092" y="205.371202104" width="67.04026117235351" height="19.602243960000003"/></g><text fill="black" stroke="none" font-family="sans-serif" font-size="11pt" font-style="normal" font-weight="normal" text-decoration="normal" x="166.1745963264092" y="218.941986384" text-anchor="start" dominant-baseline="alphabetic" xml:space="preserve">redraw()</text></g><g><path fill="none" stroke="black" paint-order="fill stroke markers" d=" M 82.9325706 224.973446064 L 309.4201802651719 224.973446064" stroke-miterlimit="10" stroke-width="1.2565541" stroke-dasharray=""/><g transform="translate(311.93328846517187,224.973446064) translate(-311.93328846517187,-224.973446064)"><path fill="black" stroke="none" paint-order="stroke fill markers" d=" M 299.3677474651719 218.690675564 L 311.93328846517187 224.973446064 L 299.3677474651719 231.256216564 Z"/></g></g><g><g><rect fill="rgb(239,255,255)" stroke="none" x="344.8550058851718" y="227.235243444" width="60.92359628587891" height="19.602243960000003"/></g><text fill="black" stroke="none" font-family="sans-serif" font-size="11pt" font-style="normal" font-weight="normal" text-decoration="normal" x="347.1168032651718" y="240.806027724" text-anchor="start" dominant-baseline="alphabetic" xml:space="preserve">reflow()</text></g><g><path fill="none" stroke="black" paint-order="fill stroke markers" d=" M 327.01193766517184 246.837487404 L 387.32653446517185 246.837487404 L 387.32653446517185 266.439731364 L 329.5250458651718 266.439731364" stroke-miterlimit="10" stroke-width="1.2565541" stroke-dasharray=""/><g transform="translate(327.01193766517184,266.439731364) translate(-327.01193766517184,-266.439731364)"><path fill="black" stroke="none" paint-order="stroke fill markers" d=" M 339.57747866517184 260.156960864 L 327.01193766517184 266.439731364 L 339.57747866517184 272.72250186400004 Z"/></g></g><g><g><rect fill="rgb(239,255,255)" stroke="none" x="359.8050047407626" y="268.70152874400003" width="59.90692987352539" height="19.602243960000003"/></g><text fill="black" stroke="none" font-family="sans-serif" font-size="11pt" font-style="normal" font-weight="normal" text-decoration="normal" x="362.06680212076265" y="282.272313024" text-anchor="start" dominant-baseline="alphabetic" xml:space="preserve">recalc()</text></g><g><path fill="none" stroke="black" paint-order="fill stroke markers" d=" M 327.01193766517184 288.30377270400004 L 449.9918934898789 288.30377270400004" stroke-miterlimit="10" stroke-width="1.2565541" stroke-dasharray=""/><g transform="translate(452.5050016898789,288.30377270400004) translate(-452.5050016898789,-288.30377270400004)"><path fill="black" stroke="none" paint-order="stroke fill markers" d=" M 439.9394606898789 282.021002204 L 452.5050016898789 288.30377270400004 L 439.9394606898789 294.58654320400007 Z"/></g></g><g><g><rect fill="rgb(239,255,255)" stroke="none" x="355.688339854288" y="290.56557008400006" width="68.1402596464746" height="19.602243960000003"/></g><text fill="black" stroke="none" font-family="sans-serif" font-size="11pt" font-style="normal" font-weight="normal" text-decoration="normal" x="357.95013723428804" y="304.1363543640001" text-anchor="start" dominant-baseline="alphabetic" xml:space="preserve">repaint()</text></g><g><path fill="none" stroke="black" paint-order="fill stroke markers" d=" M 327.01193766517184 310.16781404400007 L 449.9918934898789 310.16781404400007" stroke-miterlimit="10" stroke-width="1.2565541" stroke-dasharray=""/><g transform="translate(452.5050016898789,310.16781404400007) translate(-452.5050016898789,-310.16781404400007)"><path fill="black" stroke="none" paint-order="stroke fill markers" d=" M 439.9394606898789 303.88504354400004 L 452.5050016898789 310.16781404400007 L 439.9394606898789 316.4505845440001 Z"/></g></g><g><g><rect fill="rgb(239,255,255)" stroke="none" x="100.77563882" y="312.4296114240001" width="99.85693063646484" height="19.602243960000003"/></g><text fill="black" stroke="none" font-family="sans-serif" font-size="11pt" font-style="normal" font-weight="normal" text-decoration="normal" x="103.0374362" y="326.0003957040001" text-anchor="start" dominant-baseline="alphabetic" xml:space="preserve">mutt_getch()</text></g><g><path fill="none" stroke="black" paint-order="fill stroke markers" d=" M 82.9325706 332.0318553840001 L 215.96252947646482 332.0318553840001" stroke-miterlimit="10" stroke-width="1.2565541" stroke-dasharray=""/><g transform="translate(218.47563767646483,332.0318553840001) translate(-218.47563767646483,-332.0318553840001)"><path fill="black" stroke="none" paint-order="stroke fill markers" d=" M 205.91009667646483 325.74908488400007 L 218.47563767646483 332.0318553840001 L 205.91009667646483 338.3146258840001 Z"/></g></g><path fill="#ffffc0" stroke="black" paint-order="fill stroke markers" d=" M 162.54651980881835 351.6340993440001 L 275.91262046411134 351.6340993440001 L 289.48340474411134 365.2048836240001 L 289.48340474411134 386.3149925040001 L 162.54651980881835 386.3149925040001 L 162.54651980881835 351.6340993440001 M 275.91262046411134 351.6340993440001 L 275.91262046411134 365.2048836240001 L 289.48340474411134 365.2048836240001" stroke-miterlimit="10" stroke-width="1.2565541" stroke-dasharray=""/><g><text fill="black" stroke="none" font-family="sans-serif" font-size="11pt" font-style="normal" font-weight="normal" text-decoration="normal" x="183.65662868881836" y="372.7442082240001" text-anchor="start" dominant-baseline="alphabetic" xml:space="preserve">Pressed: 'X'</text></g><g><g><rect fill="rgb(239,255,255)" stroke="none" x="139.3839733613208" y="388.5767898840001" width="22.640261553823244" height="19.602243960000003"/></g><text fill="black" stroke="none" font-family="sans-serif" font-size="11pt" font-style="normal" font-weight="normal" text-decoration="normal" x="141.6457707413208" y="402.14757416400016" text-anchor="start" dominant-baseline="alphabetic" xml:space="preserve">'X'</text></g><g><path fill="none" stroke="black" paint-order="fill stroke markers" d=" M 218.47563767646483 408.1790338440001 L 85.44567880000001 408.1790338440001" stroke-miterlimit="10" stroke-width="1.2565541" stroke-dasharray="6.03145968"/><g transform="translate(82.9325706,408.1790338440001) translate(-82.9325706,-408.1790338440001)"><path fill="black" stroke="none" paint-order="stroke fill markers" d=" M 95.4981116 401.8962633440001 L 82.9325706 408.1790338440001 L 95.4981116 414.46180434400014 Z"/></g></g><g><g><rect fill="rgb(239,255,255)" stroke="none" x="152.52946574023244" y="427.7812778040001" width="89.80692758470703" height="19.602243960000003"/></g><text fill="black" stroke="none" font-family="sans-serif" font-size="11pt" font-style="normal" font-weight="normal" text-decoration="normal" x="154.79126312023243" y="441.3520620840002" text-anchor="start" dominant-baseline="alphabetic" xml:space="preserve">win.key('X')</text></g><g><path fill="none" stroke="black" paint-order="fill stroke markers" d=" M 82.9325706 447.38352176400014 L 309.4201802651719 447.38352176400014" stroke-miterlimit="10" stroke-width="1.2565541" stroke-dasharray=""/><g transform="translate(311.93328846517187,447.38352176400014) translate(-311.93328846517187,-447.38352176400014)"><path fill="black" stroke="none" paint-order="stroke fill markers" d=" M 299.3677474651719 441.1007512640001 L 311.93328846517187 447.38352176400014 L 299.3677474651719 453.66629226400016 Z"/></g></g><g><g><rect fill="rgb(239,255,255)" stroke="none" x="344.8550058851718" y="449.6453191440001" width="86.55692758470703" height="19.602243960000003"/></g><text fill="black" stroke="none" font-family="sans-serif" font-size="11pt" font-style="normal" font-weight="normal" text-decoration="normal" x="347.1168032651718" y="463.21610342400015" text-anchor="start" dominant-baseline="alphabetic" xml:space="preserve">get_focus()</text></g><g><path fill="none" stroke="black" paint-order="fill stroke markers" d=" M 327.01193766517184 469.2475631040001 L 387.32653446517185 469.2475631040001 L 387.32653446517185 488.8498070640001 L 329.5250458651718 488.8498070640001" stroke-miterlimit="10" stroke-width="1.2565541" stroke-dasharray=""/><g transform="translate(327.01193766517184,488.8498070640001) translate(-327.01193766517184,-488.8498070640001)"><path fill="black" stroke="none" paint-order="stroke fill markers" d=" M 339.57747866517184 482.5670365640001 L 327.01193766517184 488.8498070640001 L 339.57747866517184 495.13257756400014 Z"/></g></g><g><g><rect fill="rgb(239,255,255)" stroke="none" x="344.8550058851718" y="491.11160444400014" width="89.80692758470703" height="19.602243960000003"/></g><text fill="black" stroke="none" font-family="sans-serif" font-size="11pt" font-style="normal" font-weight="normal" text-decoration="normal" x="347.1168032651718" y="504.68238872400013" text-anchor="start" dominant-baseline="alphabetic" xml:space="preserve">win.key('X')</text></g><g><path fill="none" stroke="black" paint-order="fill stroke markers" d=" M 327.01193766517184 510.71384840400015 L 449.9918934898789 510.71384840400015" stroke-miterlimit="10" stroke-width="1.2565541" stroke-dasharray=""/><g transform="translate(452.5050016898789,510.71384840400015) translate(-452.5050016898789,-510.71384840400015)"><path fill="black" stroke="none" paint-order="stroke fill markers" d=" M 439.9394606898789 504.4310779040001 L 452.5050016898789 510.71384840400015 L 439.9394606898789 516.9966189040001 Z"/></g></g><g><g><rect fill="rgb(239,255,255)" stroke="none" x="485.42671910987883" y="512.9756457840001" width="87.74026193529296" height="19.602243960000003"/></g><g><rect fill="rgb(239,255,255)" stroke="none" x="485.42671910987883" y="528.0542949840001" width="88.12359323412109" height="19.602243960000003"/></g><text fill="black" stroke="none" font-family="sans-serif" font-size="11pt" font-style="normal" font-weight="normal" text-decoration="normal" x="487.68851648987885" y="526.5464300640001" text-anchor="start" dominant-baseline="alphabetic" xml:space="preserve">lookup('X'):</text><text fill="black" stroke="none" font-family="sans-serif" font-size="11pt" font-style="normal" font-weight="normal" text-decoration="normal" x="487.68851648987885" y="541.6250792640001" text-anchor="start" dominant-baseline="alphabetic" xml:space="preserve">OP_ACTION</text></g><g><path fill="none" stroke="black" paint-order="fill stroke markers" d=" M 467.58365088987887 547.6565389440001 L 527.8982476898789 547.6565389440001 L 527.8982476898789 567.2587829040001 L 470.09675908987884 567.2587829040001" stroke-miterlimit="10" stroke-width="1.2565541" stroke-dasharray=""/><g transform="translate(467.58365088987887,567.2587829040001) translate(-467.58365088987887,-567.2587829040001)"><path fill="black" stroke="none" paint-order="stroke fill markers" d=" M 480.14919188987886 560.9760124040001 L 467.58365088987887 567.2587829040001 L 480.14919188987886 573.5415534040001 Z"/></g></g><g><g><rect fill="rgb(239,255,255)" stroke="none" x="485.42671910987883" y="569.5205802840001" width="127.05692758470703" height="19.602243960000003"/></g><text fill="black" stroke="none" font-family="sans-serif" font-size="11pt" font-style="normal" font-weight="normal" text-decoration="normal" x="487.68851648987885" y="583.0913645640001" text-anchor="start" dominant-baseline="alphabetic" xml:space="preserve">perform_action()</text></g><g><path fill="none" stroke="black" paint-order="fill stroke markers" d=" M 467.58365088987887 589.1228242440001 L 527.8982476898789 589.1228242440001 L 527.8982476898789 608.7250682040001 L 470.09675908987884 608.7250682040001" stroke-miterlimit="10" stroke-width="1.2565541" stroke-dasharray=""/><g transform="translate(467.58365088987887,608.7250682040001) translate(-467.58365088987887,-608.7250682040001)"><path fill="black" stroke="none" paint-order="stroke fill markers" d=" M 480.14919188987886 602.4422977040001 L 467.58365088987887 608.7250682040001 L 480.14919188987886 615.007838704 Z"/></g></g><g><g/><path fill="none" stroke="black" paint-order="fill stroke markers" d=" M 15.078649200000001 130.731888564 L 617.7611739145858 130.731888564 L 617.7611739145858 643.4059613640001 L 15.078649200000001 643.4059613640001 L 15.078649200000001 130.731888564 Z" stroke-miterlimit="10" stroke-width="2.154092742857143" stroke-dasharray=""/><path fill="#b0ffff" stroke="black" paint-order="fill stroke markers" d=" M 15.078649200000001 130.731888564 L 15.078649200000001 148.826267604 L 73.78594683706055 148.826267604 L 82.83313635706055 139.779078084 L 82.83313635706055 130.731888564 L 15.078649200000001 130.731888564" stroke-miterlimit="10" stroke-width="2.154092742857143" stroke-dasharray=""/><text fill="black" stroke="none" font-family="sans-serif" font-size="8.8pt" font-style="normal" font-weight="bold" text-decoration="normal" x="30.157298400000002" y="142.794807924" text-anchor="start" dominant-baseline="alphabetic" xml:space="preserve">loop</text><text fill="black" stroke="none" font-family="sans-serif" font-size="8.8pt" font-style="normal" font-weight="bold" text-decoration="normal" x="97.91178555706055" y="142.794807924" text-anchor="start" dominant-baseline="alphabetic" xml:space="preserve">[Event Loop]</text></g></g></g></svg>