<svg version="1.1" xmlns="http://www.w3.org/2000/svg" xmlns:xlink="http://www.w3.org/1999/xlink" width="654" height="1150"><defs/><g><g/><g/><g/><g/><g/><g/><g/><g/><g/><g/><g/><g/><g/><g/><g/><g/><g/><g/><g/><g/><g/><g/><g/><g/><g/><g/><g/><g/><g/><g/><g/><g/><g><rect fill="white" stroke="none" x="0" y="0" width="654" height="1150"/></g><g><text fill="black" stroke="none" font-family="sans-serif" font-size="16.5pt" font-style="normal" font-weight="normal" text-decoration="normal" x="280.47867486176756" y="22.6179738" text-anchor="start" dominant-baseline="alphabetic" xml:space="preserve">NeoMutt</text></g><g><rect fill="rgb(239,255,255)" stroke="none" x="15.078649200000001" y="130.731888564" width="624.4500528494141" height="967.29534618"/></g><g><path fill="none" stroke="black" paint-order="fill stroke markers" d=" M 75.393246 88.511670804 L 75.393246 1150.802506944" stroke-miterlimit="10" stroke-width="1.2565541" stroke-dasharray="11.598960923076923,5.0262164"/><path fill="none" stroke="black" paint-order="fill stroke markers" d=" M 226.01496227646484 88.511670804 L 226.01496227646484 1150.802506944" stroke-miterlimit="10" stroke-width="1.2565541" stroke-dasharray="11.598960923076923,5.0262164"/><path fill="none" stroke="black" paint-order="fill stroke markers" d=" M 321.6734755505859 88.511670804 L 321.6734755505859 1150.802506944" stroke-miterlimit="10" stroke-width="1.2565541" stroke-dasharray="11.598960923076923,5.0262164"/><path fill="none" stroke="black" paint-order="fill stroke markers" d=" M 497.9118528988281 88.511670804 L 497.9118528988281 1150.802506944" stroke-miterlimit="10" stroke-width="1.2565541" stroke-dasharray="11.598960923076923,5.0262164"/></g><g><path fill="none" stroke="none"/><g><path fill="white" stroke="black" paint-order="fill stroke markers" d=" M 41.51624520564649 47.950104456000005 L 109.27024679435351 47.950104456000005 L 109.27024679435351 88.511670804 L 41.51624520564649 88.511670804 L 41.51624520564649 47.950104456000005 Z" stroke-miterlimit="10" stroke-width="2.4125838720000004" stroke-dasharray=""/></g><g><text fill="black" stroke="none" font-family="sans-serif" font-size="11pt" font-style="normal" font-weight="normal" text-decoration="normal" x="57.87657958764649" y="73.433021604" text-anchor="start" dominant-baseline="alphabetic" xml:space="preserve">Main</text></g><path fill="none" stroke="none"/><g><path fill="white" stroke="black" paint-order="fill stroke markers" d=" M 192.92962751299513 47.950104456000005 L 259.10029703993456 47.950104456000005 L 259.10029703993456 88.511670804 L 192.92962751299513 88.511670804 L 192.92962751299513 47.950104456000005 Z" stroke-miterlimit="10" stroke-width="2.4125838720000004" stroke-dasharray=""/></g><g><text fill="black" stroke="none" font-family="sans-serif" font-size="11pt" font-style="normal" font-weight="normal" text-decoration="normal" x="209.28996189499512" y="73.433021604" text-anchor="start" dominant-baseline="alphabetic" xml:space="preserve">User</text></g><path fill="none" stroke="none"/><g><path fill="white" stroke="black" paint-order="fill stroke markers" d=" M 276.3798087253486 47.950104456000005 L 366.9671423758232 47.950104456000005 L 366.9671423758232 88.511670804 L 276.3798087253486 88.511670804 L 276.3798087253486 47.950104456000005 Z" stroke-miterlimit="10" stroke-width="2.4125838720000004" stroke-dasharray=""/></g><g><text fill="black" stroke="none" font-family="sans-serif" font-size="11pt" font-style="normal" font-weight="normal" text-decoration="normal" x="292.7401431073486" y="73.433021604" text-anchor="start" dominant-baseline="alphabetic" xml:space="preserve">Window</text></g><path fill="none" stroke="none"/><g><path fill="white" stroke="black" paint-order="fill stroke markers" d=" M 458.1765185168281 47.950104456000005 L 537.6471872808281 47.950104456000005 L 537.6471872808281 88.511670804 L 458.1765185168281 88.511670804 L 458.1765185168281 47.950104456000005 Z" stroke-miterlimit="10" stroke-width="2.4125838720000004" stroke-dasharray=""/></g><g><text fill="black" stroke="none" font-family="sans-serif" font-size="11pt" font-style="normal" font-weight="normal" text-decoration="normal" x="474.5368528988281" y="73.433021604" text-anchor="start" dominant-baseline="alphabetic" xml:space="preserve">Dialog</text></g></g><g><path fill="white" stroke="black" paint-order="fill stroke markers" d=" M 67.8539214 96.050995404 L 82.9325706 96.050995404 L 82.9325706 1135.723857744 L 67.8539214 1135.723857744 L 67.8539214 96.050995404" stroke-miterlimit="10" stroke-width="1.2565541" stroke-dasharray=""/><path fill="white" stroke="black" paint-order="fill stroke markers" d=" M 490.3725282988281 96.050995404 L 505.4511774988281 96.050995404 L 505.4511774988281 1135.723857744 L 490.3725282988281 1135.723857744 L 490.3725282988281 96.050995404" stroke-miterlimit="10" stroke-width="1.2565541" stroke-dasharray=""/><path fill="white" stroke="black" paint-order="fill stroke markers" d=" M 218.47563767646483 170.690308944 L 233.55428687646486 170.690308944 L 233.55428687646486 246.837487404 L 218.47563767646483 246.837487404 L 218.47563767646483 170.690308944" stroke-miterlimit="10" stroke-width="1.2565541" stroke-dasharray=""/><path fill="white" stroke="black" paint-order="fill stroke markers" d=" M 314.13415095058593 286.041975324 L 329.2128001505859 286.041975324 L 329.2128001505859 408.1790338440001 L 314.13415095058593 408.1790338440001 L 314.13415095058593 286.041975324" stroke-miterlimit="10" stroke-width="1.2565541" stroke-dasharray=""/><path fill="white" stroke="black" paint-order="fill stroke markers" d=" M 218.47563767646483 462.46217096400017 L 233.55428687646486 462.46217096400017 L 233.55428687646486 538.6093494240001 L 218.47563767646483 538.6093494240001 L 218.47563767646483 462.46217096400017" stroke-miterlimit="10" stroke-width="1.2565541" stroke-dasharray=""/><path fill="white" stroke="black" paint-order="fill stroke markers" d=" M 314.13415095058593 592.8924865440001 L 329.2128001505859 592.8924865440001 L 329.2128001505859 715.029545064 L 314.13415095058593 715.029545064 L 314.13415095058593 592.8924865440001" stroke-miterlimit="10" stroke-width="1.2565541" stroke-dasharray=""/><path fill="white" stroke="black" paint-order="fill stroke markers" d=" M 218.47563767646483 769.312682184 L 233.55428687646486 769.312682184 L 233.55428687646486 845.4598606440001 L 218.47563767646483 845.4598606440001 L 218.47563767646483 769.312682184" stroke-miterlimit="10" stroke-width="1.2565541" stroke-dasharray=""/><path fill="white" stroke="black" paint-order="fill stroke markers" d=" M 314.13415095058593 899.742997764 L 329.2128001505859 899.742997764 L 329.2128001505859 1063.3463415840001 L 314.13415095058593 1063.3463415840001 L 314.13415095058593 899.742997764" stroke-miterlimit="10" stroke-width="1.2565541" stroke-dasharray=""/><g><g><rect fill="rgb(239,255,255)" stroke="none" x="100.77563882" y="151.088064984" width="99.85693063646484" height="19.602243960000003"/></g><text fill="black" stroke="none" font-family="sans-serif" font-size="11pt" font-style="normal" font-weight="normal" text-decoration="normal" x="103.0374362" y="164.658849264" text-anchor="start" dominant-baseline="alphabetic" xml:space="preserve">mutt_getch()</text></g><g><path fill="none" stroke="black" paint-order="fill stroke markers" d=" M 82.9325706 170.690308944 L 215.96252947646482 170.690308944" stroke-miterlimit="10" stroke-width="1.2565541" stroke-dasharray=""/><g transform="translate(218.47563767646483,170.690308944) translate(-218.47563767646483,-170.690308944)"><path fill="black" stroke="none" paint-order="stroke fill markers" d=" M 205.91009667646483 164.407538444 L 218.47563767646483 170.690308944 L 205.91009667646483 176.973079444 Z"/></g></g><path fill="#ffffc0" stroke="black" paint-order="fill stroke markers" d=" M 162.54651980881835 190.292552904 L 275.91262046411134 190.292552904 L 289.48340474411134 203.863337184 L 289.48340474411134 224.973446064 L 162.54651980881835 224.973446064 L 162.54651980881835 190.292552904 M 275.91262046411134 190.292552904 L 275.91262046411134 203.863337184 L 289.48340474411134 203.863337184" stroke-miterlimit="10" stroke-width="1.2565541" stroke-dasharray=""/><g><text fill="black" stroke="none" font-family="sans-serif" font-size="11pt" font-style="normal" font-weight="normal" text-decoration="normal" x="183.65662868881836" y="211.402661784" text-anchor="start" dominant-baseline="alphabetic" xml:space="preserve">Pressed: 'X'</text></g><g><g><rect fill="rgb(239,255,255)" stroke="none" x="139.3839733613208" y="227.235243444" width="22.640261553823244" height="19.602243960000003"/></g><text fill="black" stroke="none" font-family="sans-serif" font-size="11pt" font-style="normal" font-weight="normal" text-decoration="normal" x="141.6457707413208" y="240.806027724" text-anchor="start" dominant-baseline="alphabetic" xml:space="preserve">'X'</text></g><g><path fill="none" stroke="black" paint-order="fill stroke markers" d=" M 218.47563767646483 246.837487404 L 85.44567880000001 246.837487404" stroke-miterlimit="10" stroke-width="1.2565541" stroke-dasharray="6.03145968"/><g transform="translate(82.9325706,246.837487404) translate(-82.9325706,-246.837487404)"><path fill="black" stroke="none" paint-order="stroke fill markers" d=" M 95.4981116 240.554716904 L 82.9325706 246.837487404 L 95.4981116 253.120257904 Z"/></g></g><g><g><rect fill="rgb(239,255,255)" stroke="none" x="145.30489622000002" y="266.439731364" width="106.45692911058593" height="19.602243960000003"/></g><text fill="black" stroke="none" font-family="sans-serif" font-size="11pt" font-style="normal" font-weight="normal" text-decoration="normal" x="147.5666936" y="280.01051564400007" text-anchor="start" dominant-baseline="alphabetic" xml:space="preserve">key_press('X')</text></g><g><path fill="none" stroke="black" paint-order="fill stroke markers" d=" M 82.9325706 286.041975324 L 311.62104275058596 286.041975324" stroke-miterlimit="10" stroke-width="1.2565541" stroke-dasharray=""/><g transform="translate(314.13415095058593,286.041975324) translate(-314.13415095058593,-286.041975324)"><path fill="black" stroke="none" paint-order="stroke fill markers" d=" M 301.56860995058594 279.759204824 L 314.13415095058593 286.041975324 L 301.56860995058594 292.32474582400005 Z"/></g></g><g><g><rect fill="rgb(239,255,255)" stroke="none" x="356.564199669414" y="288.30377270400004" width="106.45692911058593" height="19.602243960000003"/></g><text fill="black" stroke="none" font-family="sans-serif" font-size="11pt" font-style="normal" font-weight="normal" text-decoration="normal" x="358.825997049414" y="301.87455698400004" text-anchor="start" dominant-baseline="alphabetic" xml:space="preserve">key_press('X')</text></g><g><path fill="none" stroke="black" paint-order="fill stroke markers" d=" M 329.2128001505859 307.90601666400005 L 487.85942009882814 307.90601666400005" stroke-miterlimit="10" stroke-width="1.2565541" stroke-dasharray=""/><g transform="translate(490.3725282988281,307.90601666400005) translate(-490.3725282988281,-307.90601666400005)"><path fill="black" stroke="none" paint-order="stroke fill markers" d=" M 477.8069872988281 301.623246164 L 490.3725282988281 307.90601666400005 L 477.8069872988281 314.1887871640001 Z"/></g></g><g><g><rect fill="rgb(239,255,255)" stroke="none" x="523.2942457188282" y="310.16781404400007" width="87.74026193529296" height="19.602243960000003"/></g><g><rect fill="rgb(239,255,255)" stroke="none" x="523.2942457188282" y="325.2464632440001" width="70.30692758470703" height="19.602243960000003"/></g><text fill="black" stroke="none" font-family="sans-serif" font-size="11pt" font-style="normal" font-weight="normal" text-decoration="normal" x="525.5560430988281" y="323.7385983240001" text-anchor="start" dominant-baseline="alphabetic" xml:space="preserve">lookup('X'):</text><text fill="red" stroke="none" font-family="sans-serif" font-size="11pt" font-style="normal" font-weight="normal" text-decoration="normal" x="525.5560430988281" y="338.8172475240001" text-anchor="start" dominant-baseline="alphabetic" xml:space="preserve">OP_NULL</text></g><g><path fill="none" stroke="black" paint-order="fill stroke markers" d=" M 505.4511774988281 344.84870720400005 L 565.7657742988281 344.84870720400005 L 565.7657742988281 364.45095116400006 L 507.96428569882806 364.45095116400006" stroke-miterlimit="10" stroke-width="1.2565541" stroke-dasharray=""/><g transform="translate(505.4511774988281,364.45095116400006) translate(-505.4511774988281,-364.45095116400006)"><path fill="black" stroke="none" paint-order="stroke fill markers" d=" M 518.0167184988281 358.16818066400003 L 505.4511774988281 364.45095116400006 L 518.0167184988281 370.7337216640001 Z"/></g></g><g><g><rect fill="rgb(239,255,255)" stroke="none" x="349.2142011952929" y="366.7127485440001" width="121.15692605882812" height="19.602243960000003"/></g><text fill="red" stroke="none" font-family="sans-serif" font-size="11pt" font-style="normal" font-weight="normal" text-decoration="normal" x="351.4759985752929" y="380.2835328240001" text-anchor="start" dominant-baseline="alphabetic" xml:space="preserve">LONGER MATCH</text></g><g><path fill="none" stroke="red" paint-order="fill stroke markers" d=" M 490.3725282988281 386.3149925040001 L 331.7259083505859 386.3149925040001" stroke-miterlimit="10" stroke-width="1.2565541" stroke-dasharray="6.03145968"/><g transform="translate(329.2128001505859,386.3149925040001) translate(-329.2128001505859,-386.3149925040001)"><path fill="red" stroke="none" paint-order="stroke fill markers" d=" M 341.7783411505859 380.03222200400006 L 329.2128001505859 386.3149925040001 L 341.7783411505859 392.5977630040001 Z"/></g></g><g><g><rect fill="rgb(239,255,255)" stroke="none" x="137.95489774587892" y="388.5767898840001" width="121.15692605882812" height="19.602243960000003"/></g><text fill="red" stroke="none" font-family="sans-serif" font-size="11pt" font-style="normal" font-weight="normal" text-decoration="normal" x="140.2166951258789" y="402.14757416400016" text-anchor="start" dominant-baseline="alphabetic" xml:space="preserve">LONGER MATCH</text></g><g><path fill="none" stroke="red" paint-order="fill stroke markers" d=" M 314.13415095058593 408.1790338440001 L 85.44567880000001 408.1790338440001" stroke-miterlimit="10" stroke-width="1.2565541" stroke-dasharray="6.03145968"/><g transform="translate(82.9325706,408.1790338440001) translate(-82.9325706,-408.1790338440001)"><path fill="red" stroke="none" paint-order="stroke fill markers" d=" M 95.4981116 401.8962633440001 L 82.9325706 408.1790338440001 L 95.4981116 414.46180434400014 Z"/></g></g><g><g><rect fill="rgb(239,255,255)" stroke="none" x="100.77563882" y="442.85992700400016" width="99.85693063646484" height="19.602243960000003"/></g><text fill="black" stroke="none" font-family="sans-serif" font-size="11pt" font-style="normal" font-weight="normal" text-decoration="normal" x="103.0374362" y="456.43071128400015" text-anchor="start" dominant-baseline="alphabetic" xml:space="preserve">mutt_getch()</text></g><g><path fill="none" stroke="black" paint-order="fill stroke markers" d=" M 82.9325706 462.46217096400017 L 215.96252947646482 462.46217096400017" stroke-miterlimit="10" stroke-width="1.2565541" stroke-dasharray=""/><g transform="translate(218.47563767646483,462.46217096400017) translate(-218.47563767646483,-462.46217096400017)"><path fill="black" stroke="none" paint-order="stroke fill markers" d=" M 205.91009667646483 456.17940046400014 L 218.47563767646483 462.46217096400017 L 205.91009667646483 468.7449414640002 Z"/></g></g><path fill="#ffffc0" stroke="black" paint-order="fill stroke markers" d=" M 163.08818774705077 482.0644149240002 L 275.3709525258789 482.0644149240002 L 288.9417368058789 495.6351992040002 L 288.9417368058789 516.7453080840002 L 163.08818774705077 516.7453080840002 L 163.08818774705077 482.0644149240002 M 275.3709525258789 482.0644149240002 L 275.3709525258789 495.6351992040002 L 288.9417368058789 495.6351992040002" stroke-miterlimit="10" stroke-width="1.2565541" stroke-dasharray=""/><g><text fill="black" stroke="none" font-family="sans-serif" font-size="11pt" font-style="normal" font-weight="normal" text-decoration="normal" x="184.19829662705078" y="503.17452380400016" text-anchor="start" dominant-baseline="alphabetic" xml:space="preserve">Pressed: 'Y'</text></g><g><g><rect fill="rgb(239,255,255)" stroke="none" x="139.92564034587892" y="519.0071054640001" width="21.556927584707033" height="19.602243960000003"/></g><text fill="black" stroke="none" font-family="sans-serif" font-size="11pt" font-style="normal" font-weight="normal" text-decoration="normal" x="142.1874377258789" y="532.5778897440001" text-anchor="start" dominant-baseline="alphabetic" xml:space="preserve">'Y'</text></g><g><path fill="none" stroke="black" paint-order="fill stroke markers" d=" M 218.47563767646483 538.6093494240001 L 85.44567880000001 538.6093494240001" stroke-miterlimit="10" stroke-width="1.2565541" stroke-dasharray="6.03145968"/><g transform="translate(82.9325706,538.6093494240001) translate(-82.9325706,-538.6093494240001)"><path fill="black" stroke="none" paint-order="stroke fill markers" d=" M 95.4981116 532.3265789240002 L 82.9325706 538.6093494240001 L 95.4981116 544.8921199240001 Z"/></g></g><g><g><rect fill="rgb(239,255,255)" stroke="none" x="140.82156263235353" y="573.2902425840001" width="115.4235962858789" height="19.602243960000003"/></g><text fill="black" stroke="none" font-family="sans-serif" font-size="11pt" font-style="normal" font-weight="normal" text-decoration="normal" x="143.08336001235352" y="586.8610268640001" text-anchor="start" dominant-baseline="alphabetic" xml:space="preserve">key_press('XY')</text></g><g><path fill="none" stroke="black" paint-order="fill stroke markers" d=" M 82.9325706 592.8924865440001 L 311.62104275058596 592.8924865440001" stroke-miterlimit="10" stroke-width="1.2565541" stroke-dasharray=""/><g transform="translate(314.13415095058593,592.8924865440001) translate(-314.13415095058593,-592.8924865440001)"><path fill="black" stroke="none" paint-order="stroke fill markers" d=" M 301.56860995058594 586.6097160440002 L 314.13415095058593 592.8924865440001 L 301.56860995058594 599.1752570440001 Z"/></g></g><g><g><rect fill="rgb(239,255,255)" stroke="none" x="352.0808660817675" y="595.1542839240001" width="115.4235962858789" height="19.602243960000003"/></g><text fill="black" stroke="none" font-family="sans-serif" font-size="11pt" font-style="normal" font-weight="normal" text-decoration="normal" x="354.34266346176753" y="608.7250682040001" text-anchor="start" dominant-baseline="alphabetic" xml:space="preserve">key_press('XY')</text></g><g><path fill="none" stroke="black" paint-order="fill stroke markers" d=" M 329.2128001505859 614.7565278840001 L 487.85942009882814 614.7565278840001" stroke-miterlimit="10" stroke-width="1.2565541" stroke-dasharray=""/><g transform="translate(490.3725282988281,614.7565278840001) translate(-490.3725282988281,-614.7565278840001)"><path fill="black" stroke="none" paint-order="stroke fill markers" d=" M 477.8069872988281 608.4737573840001 L 490.3725282988281 614.7565278840001 L 477.8069872988281 621.0392983840001 Z"/></g></g><g><g><rect fill="rgb(239,255,255)" stroke="none" x="523.2942457188282" y="617.018325264" width="96.70692911058593" height="19.602243960000003"/></g><g><rect fill="rgb(239,255,255)" stroke="none" x="523.2942457188282" y="632.096974464" width="70.30692758470703" height="19.602243960000003"/></g><text fill="black" stroke="none" font-family="sans-serif" font-size="11pt" font-style="normal" font-weight="normal" text-decoration="normal" x="525.5560430988281" y="630.589109544" text-anchor="start" dominant-baseline="alphabetic" xml:space="preserve">lookup('XY'):</text><text fill="red" stroke="none" font-family="sans-serif" font-size="11pt" font-style="normal" font-weight="normal" text-decoration="normal" x="525.5560430988281" y="645.667758744" text-anchor="start" dominant-baseline="alphabetic" xml:space="preserve">OP_NULL</text></g><g><path fill="none" stroke="black" paint-order="fill stroke markers" d=" M 505.4511774988281 651.699218424 L 565.7657742988281 651.699218424 L 565.7657742988281 671.301462384 L 507.96428569882806 671.301462384" stroke-miterlimit="10" stroke-width="1.2565541" stroke-dasharray=""/><g transform="translate(505.4511774988281,671.301462384) translate(-505.4511774988281,-671.301462384)"><path fill="black" stroke="none" paint-order="stroke fill markers" d=" M 518.0167184988281 665.0186918840001 L 505.4511774988281 671.301462384 L 518.0167184988281 677.584232884 Z"/></g></g><g><g><rect fill="rgb(239,255,255)" stroke="none" x="349.2142011952929" y="673.563259764" width="121.15692605882812" height="19.602243960000003"/></g><text fill="red" stroke="none" font-family="sans-serif" font-size="11pt" font-style="normal" font-weight="normal" text-decoration="normal" x="351.4759985752929" y="687.134044044" text-anchor="start" dominant-baseline="alphabetic" xml:space="preserve">LONGER MATCH</text></g><g><path fill="none" stroke="red" paint-order="fill stroke markers" d=" M 490.3725282988281 693.165503724 L 331.7259083505859 693.165503724" stroke-miterlimit="10" stroke-width="1.2565541" stroke-dasharray="6.03145968"/><g transform="translate(329.2128001505859,693.165503724) translate(-329.2128001505859,-693.165503724)"><path fill="red" stroke="none" paint-order="stroke fill markers" d=" M 341.7783411505859 686.882733224 L 329.2128001505859 693.165503724 L 341.7783411505859 699.448274224 Z"/></g></g><g><g><rect fill="rgb(239,255,255)" stroke="none" x="137.95489774587892" y="695.427301104" width="121.15692605882812" height="19.602243960000003"/></g><text fill="red" stroke="none" font-family="sans-serif" font-size="11pt" font-style="normal" font-weight="normal" text-decoration="normal" x="140.2166951258789" y="708.998085384" text-anchor="start" dominant-baseline="alphabetic" xml:space="preserve">LONGER MATCH</text></g><g><path fill="none" stroke="red" paint-order="fill stroke markers" d=" M 314.13415095058593 715.029545064 L 85.44567880000001 715.029545064" stroke-miterlimit="10" stroke-width="1.2565541" stroke-dasharray="6.03145968"/><g transform="translate(82.9325706,715.029545064) translate(-82.9325706,-715.029545064)"><path fill="red" stroke="none" paint-order="stroke fill markers" d=" M 95.4981116 708.746774564 L 82.9325706 715.029545064 L 95.4981116 721.312315564 Z"/></g></g><g><g><rect fill="rgb(239,255,255)" stroke="none" x="100.77563882" y="749.710438224" width="99.85693063646484" height="19.602243960000003"/></g><text fill="black" stroke="none" font-family="sans-serif" font-size="11pt" font-style="normal" font-weight="normal" text-decoration="normal" x="103.0374362" y="763.281222504" text-anchor="start" dominant-baseline="alphabetic" xml:space="preserve">mutt_getch()</text></g><g><path fill="none" stroke="black" paint-order="fill stroke markers" d=" M 82.9325706 769.312682184 L 215.96252947646482 769.312682184" stroke-miterlimit="10" stroke-width="1.2565541" stroke-dasharray=""/><g transform="translate(218.47563767646483,769.312682184) translate(-218.47563767646483,-769.312682184)"><path fill="black" stroke="none" paint-order="stroke fill markers" d=" M 205.91009667646483 763.029911684 L 218.47563767646483 769.312682184 L 205.91009667646483 775.595452684 Z"/></g></g><path fill="#ffffc0" stroke="black" paint-order="fill stroke markers" d=" M 162.54651980881835 788.9149261440001 L 275.91262046411134 788.9149261440001 L 289.48340474411134 802.4857104240001 L 289.48340474411134 823.5958193040001 L 162.54651980881835 823.5958193040001 L 162.54651980881835 788.9149261440001 M 275.91262046411134 788.9149261440001 L 275.91262046411134 802.4857104240001 L 289.48340474411134 802.4857104240001" stroke-miterlimit="10" stroke-width="1.2565541" stroke-dasharray=""/><g><text fill="black" stroke="none" font-family="sans-serif" font-size="11pt" font-style="normal" font-weight="normal" text-decoration="normal" x="183.65662868881836" y="810.0250350240001" text-anchor="start" dominant-baseline="alphabetic" xml:space="preserve">Pressed: 'Z'</text></g><g><g><rect fill="rgb(239,255,255)" stroke="none" x="139.3839733613208" y="825.857616684" width="22.640261553823244" height="19.602243960000003"/></g><text fill="black" stroke="none" font-family="sans-serif" font-size="11pt" font-style="normal" font-weight="normal" text-decoration="normal" x="141.6457707413208" y="839.428400964" text-anchor="start" dominant-baseline="alphabetic" xml:space="preserve">'Z'</text></g><g><path fill="none" stroke="black" paint-order="fill stroke markers" d=" M 218.47563767646483 845.4598606440001 L 85.44567880000001 845.4598606440001" stroke-miterlimit="10" stroke-width="1.2565541" stroke-dasharray="6.03145968"/><g transform="translate(82.9325706,845.4598606440001) translate(-82.9325706,-845.4598606440001)"><path fill="black" stroke="none" paint-order="stroke fill markers" d=" M 95.4981116 839.1770901440001 L 82.9325706 845.4598606440001 L 95.4981116 851.742631144 Z"/></g></g><g><g><rect fill="rgb(239,255,255)" stroke="none" x="135.7965649211719" y="880.140753804" width="125.47359170824218" height="19.602243960000003"/></g><text fill="black" stroke="none" font-family="sans-serif" font-size="11pt" font-style="normal" font-weight="normal" text-decoration="normal" x="138.05836230117188" y="893.711538084" text-anchor="start" dominant-baseline="alphabetic" xml:space="preserve">key_press('XYZ')</text></g><g><path fill="none" stroke="black" paint-order="fill stroke markers" d=" M 82.9325706 899.742997764 L 311.62104275058596 899.742997764" stroke-miterlimit="10" stroke-width="1.2565541" stroke-dasharray=""/><g transform="translate(314.13415095058593,899.742997764) translate(-314.13415095058593,-899.742997764)"><path fill="black" stroke="none" paint-order="stroke fill markers" d=" M 301.56860995058594 893.4602272640001 L 314.13415095058593 899.742997764 L 301.56860995058594 906.025768264 Z"/></g></g><g><g><rect fill="rgb(239,255,255)" stroke="none" x="347.05586837058587" y="902.004795144" width="125.47359170824218" height="19.602243960000003"/></g><text fill="black" stroke="none" font-family="sans-serif" font-size="11pt" font-style="normal" font-weight="normal" text-decoration="normal" x="349.3176657505859" y="915.575579424" text-anchor="start" dominant-baseline="alphabetic" xml:space="preserve">key_press('XYZ')</text></g><g><path fill="none" stroke="black" paint-order="fill stroke markers" d=" M 329.2128001505859 921.607039104 L 487.85942009882814 921.607039104" stroke-miterlimit="10" stroke-width="1.2565541" stroke-dasharray=""/><g transform="translate(490.3725282988281,921.607039104) translate(-490.3725282988281,-921.607039104)"><path fill="black" stroke="none" paint-order="stroke fill markers" d=" M 477.8069872988281 915.324268604 L 490.3725282988281 921.607039104 L 477.8069872988281 927.889809604 Z"/></g></g><g><g><rect fill="rgb(239,255,255)" stroke="none" x="523.2942457188282" y="923.868836484" width="106.75692453294921" height="19.602243960000003"/></g><g><rect fill="rgb(239,255,255)" stroke="none" x="523.2942457188282" y="938.947485684" width="61.32359399706055" height="19.602243960000003"/></g><text fill="black" stroke="none" font-family="sans-serif" font-size="11pt" font-style="normal" font-weight="normal" text-decoration="normal" x="525.5560430988281" y="937.439620764" text-anchor="start" dominant-baseline="alphabetic" xml:space="preserve">lookup('XYZ'):</text><text fill="red" stroke="none" font-family="sans-serif" font-size="11pt" font-style="normal" font-weight="normal" text-decoration="normal" x="525.5560430988281" y="952.518269964" text-anchor="start" dominant-baseline="alphabetic" xml:space="preserve">OP_XYZ</text></g><g><path fill="none" stroke="black" paint-order="fill stroke markers" d=" M 505.4511774988281 958.549729644 L 565.7657742988281 958.549729644 L 565.7657742988281 978.151973604 L 507.96428569882806 978.151973604" stroke-miterlimit="10" stroke-width="1.2565541" stroke-dasharray=""/><g transform="translate(505.4511774988281,978.151973604) translate(-505.4511774988281,-978.151973604)"><path fill="black" stroke="none" paint-order="stroke fill markers" d=" M 518.0167184988281 971.869203104 L 505.4511774988281 978.151973604 L 518.0167184988281 984.434744104 Z"/></g></g><g><g><rect fill="rgb(239,255,255)" stroke="none" x="523.2942457188282" y="980.4137709839999" width="110.95692911058593" height="19.602243960000003"/></g><text fill="black" stroke="none" font-family="sans-serif" font-size="11pt" font-style="normal" font-weight="normal" text-decoration="normal" x="525.5560430988281" y="993.9845552639999" text-anchor="start" dominant-baseline="alphabetic" xml:space="preserve">perform_XYZ()</text></g><g><path fill="none" stroke="black" paint-order="fill stroke markers" d=" M 505.4511774988281 1000.016014944 L 565.7657742988281 1000.016014944 L 565.7657742988281 1019.618258904 L 507.96428569882806 1019.618258904" stroke-miterlimit="10" stroke-width="1.2565541" stroke-dasharray=""/><g transform="translate(505.4511774988281,1019.618258904) translate(-505.4511774988281,-1019.618258904)"><path fill="black" stroke="none" paint-order="stroke fill markers" d=" M 518.0167184988281 1013.335488404 L 505.4511774988281 1019.618258904 L 518.0167184988281 1025.901029404 Z"/></g></g><g><g><rect fill="rgb(239,255,255)" stroke="none" x="348.23919890647454" y="1021.880056284" width="123.10693063646484" height="19.602243960000003"/></g><text fill="black" stroke="none" font-family="sans-serif" font-size="11pt" font-style="normal" font-weight="normal" text-decoration="normal" x="350.50099628647456" y="1035.4508405640001" text-anchor="start" dominant-baseline="alphabetic" xml:space="preserve">KEY CONSUMED</text></g><g><path fill="none" stroke="black" paint-order="fill stroke markers" d=" M 490.3725282988281 1041.482300244 L 331.7259083505859 1041.482300244" stroke-miterlimit="10" stroke-width="1.2565541" stroke-dasharray="6.03145968"/><g transform="translate(329.2128001505859,1041.482300244) translate(-329.2128001505859,-1041.482300244)"><path fill="black" stroke="none" paint-order="stroke fill markers" d=" M 341.7783411505859 1035.199529744 L 329.2128001505859 1041.482300244 L 341.7783411505859 1047.765070744 Z"/></g></g><g><g><rect fill="rgb(239,255,255)" stroke="none" x="136.97989545706056" y="1043.7440976240002" width="123.10693063646484" height="19.602243960000003"/></g><text fill="black" stroke="none" font-family="sans-serif" font-size="11pt" font-style="normal" font-weight="normal" text-decoration="normal" x="139.24169283706055" y="1057.3148819040002" text-anchor="start" dominant-baseline="alphabetic" xml:space="preserve">KEY CONSUMED</text></g><g><path fill="none" stroke="black" paint-order="fill stroke markers" d=" M 314.13415095058593 1063.3463415840001 L 85.44567880000001 1063.3463415840001" stroke-miterlimit="10" stroke-width="1.2565541" stroke-dasharray="6.03145968"/><g transform="translate(82.9325706,1063.3463415840001) translate(-82.9325706,-1063.3463415840001)"><path fill="black" stroke="none" paint-order="stroke fill markers" d=" M 95.4981116 1057.0635710840002 L 82.9325706 1063.3463415840001 L 95.4981116 1069.629112084 Z"/></g></g><g><g/><path fill="none" stroke="black" paint-order="fill stroke markers" d=" M 15.078649200000001 130.731888564 L 639.528702049414 130.731888564 L 639.528702049414 1098.027234744 L 15.078649200000001 1098.027234744 L 15.078649200000001 130.731888564 Z" stroke-miterlimit="10" stroke-width="2.154092742857143" stroke-dasharray=""/><path fill="#b0ffff" stroke="black" paint-order="fill stroke markers" d=" M 15.078649200000001 130.731888564 L 15.078649200000001 148.826267604 L 73.78594683706055 148.826267604 L 82.83313635706055 139.779078084 L 82.83313635706055 130.731888564 L 15.078649200000001 130.731888564" stroke-miterlimit="10" stroke-width="2.154092742857143" stroke-dasharray=""/><text fill="black" stroke="none" font-family="sans-serif" font-size="8.8pt" font-style="normal" font-weight="bold" text-decoration="normal" x="30.157298400000002" y="142.794807924" text-anchor="start" dominant-baseline="alphabetic" xml:space="preserve">loop</text><text fill="black" stroke="none" font-family="sans-serif" font-size="8.8pt" font-style="normal" font-weight="bold" text-decoration="normal" x="97.91178555706055" y="142.794807924" text-anchor="start" dominant-baseline="alphabetic" xml:space="preserve">[Event Loop]</text></g></g></g></svg>