<svg version="1.1" xmlns="http://www.w3.org/2000/svg" xmlns:xlink="http://www.w3.org/1999/xlink" width="780" height="712"><defs/><g><g/><g/><g/><g/><g/><g/><g/><g/><g/><g/><g/><g/><g/><g/><g/><g/><g/><g/><g/><g/><g/><g><rect fill="white" stroke="none" x="0" y="0" width="780" height="712"/></g><g><text fill="black" stroke="none" font-family="sans-serif" font-size="13.5pt" font-style="normal" font-weight="normal" text-decoration="normal" x="351.9985440903939" y="20.733142650000005" text-anchor="start" dominant-baseline="alphabetic" xml:space="preserve">NeoMutt</text></g><g/><g><path fill="none" stroke="black" paint-order="fill stroke markers" d=" M 171.70323979293622 81.135698237 L 171.70323979293622 712.805444307" stroke-miterlimit="10" stroke-width="1.1518412583333333" stroke-dasharray="10.632380846153845,4.607365033333333"/><path fill="none" stroke="black" paint-order="fill stroke markers" d=" M 369.0064780599935 81.135698237 L 369.0064780599935 712.805444307" stroke-miterlimit="10" stroke-width="1.1518412583333333" stroke-dasharray="10.632380846153845,4.607365033333333"/><path fill="none" stroke="black" paint-order="fill stroke markers" d=" M 535.3319407533204 81.135698237 L 535.3319407533204 712.805444307" stroke-miterlimit="10" stroke-width="1.1518412583333333" stroke-dasharray="10.632380846153845,4.607365033333333"/><path fill="none" stroke="black" paint-order="fill stroke markers" d=" M 722.1685042156902 81.135698237 L 722.1685042156902 712.805444307" stroke-miterlimit="10" stroke-width="1.1518412583333333" stroke-dasharray="10.632380846153845,4.607365033333333"/></g><g><path fill="none" stroke="none"/><g><path fill="white" stroke="black" paint-order="fill stroke markers" d=" M 140.18404409051533 43.954262418000006 L 203.22243549535713 43.954262418000006 L 203.22243549535713 81.135698237 L 140.18404409051533 81.135698237 L 140.18404409051533 43.954262418000006 Z" stroke-miterlimit="10" stroke-width="2.211535216" stroke-dasharray=""/></g><g><text fill="black" stroke="none" font-family="sans-serif" font-size="9pt" font-style="normal" font-weight="normal" text-decoration="normal" x="155.18101727401532" y="67.313603137" text-anchor="start" dominant-baseline="alphabetic" xml:space="preserve">Index</text></g><path fill="none" stroke="none"/><g><path fill="white" stroke="black" paint-order="fill stroke markers" d=" M 337.02061518227964 43.954262418000006 L 400.99234093770735 43.954262418000006 L 400.99234093770735 81.135698237 L 337.02061518227964 81.135698237 L 337.02061518227964 43.954262418000006 Z" stroke-miterlimit="10" stroke-width="2.211535216" stroke-dasharray=""/></g><g><text fill="black" stroke="none" font-family="sans-serif" font-size="9pt" font-style="normal" font-weight="normal" text-decoration="normal" x="352.01758836577966" y="67.313603137" text-anchor="start" dominant-baseline="alphabetic" xml:space="preserve">Pager</text></g><path fill="none" stroke="none"/><g><path fill="white" stroke="black" paint-order="fill stroke markers" d=" M 503.8683003945274 43.954262418000006 L 566.7955811121134 43.954262418000006 L 566.7955811121134 81.135698237 L 503.8683003945274 81.135698237 L 503.8683003945274 43.954262418000006 Z" stroke-miterlimit="10" stroke-width="2.211535216" stroke-dasharray=""/></g><g><text fill="black" stroke="none" font-family="sans-serif" font-size="9pt" font-style="normal" font-weight="normal" text-decoration="normal" x="518.8652735780274" y="67.313603137" text-anchor="start" dominant-baseline="alphabetic" xml:space="preserve">Menu</text></g><path fill="none" stroke="none"/><g><path fill="white" stroke="black" paint-order="fill stroke markers" d=" M 693.504864047632 43.954262418000006 L 750.8321443837483 43.954262418000006 L 750.8321443837483 81.135698237 L 693.504864047632 81.135698237 L 693.504864047632 43.954262418000006 Z" stroke-miterlimit="10" stroke-width="2.211535216" stroke-dasharray=""/></g><g><text fill="black" stroke="none" font-family="sans-serif" font-size="9pt" font-style="normal" font-weight="normal" text-decoration="normal" x="708.5018372311321" y="67.313603137" text-anchor="start" dominant-baseline="alphabetic" xml:space="preserve">User</text></g></g><g><path fill="white" stroke="black" paint-order="fill stroke markers" d=" M 164.7921922429362 108.08878368199998 L 178.61428734293622 108.08878368199998 L 178.61428734293622 698.9833492070001 L 164.7921922429362 698.9833492070001 L 164.7921922429362 108.08878368199998" stroke-miterlimit="10" stroke-width="1.1518412583333333" stroke-dasharray=""/><path fill="white" stroke="black" paint-order="fill stroke markers" d=" M 528.4208932033204 177.890363937 L 542.2429883033204 177.890363937 L 542.2429883033204 287.77601998200004 L 528.4208932033204 287.77601998200004 L 528.4208932033204 177.890363937" stroke-miterlimit="10" stroke-width="1.1518412583333333" stroke-dasharray=""/><path fill="white" stroke="black" paint-order="fill stroke markers" d=" M 715.2574566656901 197.93240183199998 L 729.0795517656902 197.93240183199998 L 729.0795517656902 267.733982087 L 715.2574566656901 267.733982087 L 715.2574566656901 197.93240183199998" stroke-miterlimit="10" stroke-width="1.1518412583333333" stroke-dasharray=""/><path fill="white" stroke="black" paint-order="fill stroke markers" d=" M 362.09543050999355 351.35765744200006 L 375.9175256099935 351.35765744200006 L 375.9175256099935 551.086931637 L 362.09543050999355 551.086931637 L 362.09543050999355 351.35765744200006" stroke-miterlimit="10" stroke-width="1.1518412583333333" stroke-dasharray=""/><path fill="white" stroke="black" paint-order="fill stroke markers" d=" M 528.4208932033204 421.15923769700004 L 542.2429883033204 421.15923769700004 L 542.2429883033204 531.044893742 L 528.4208932033204 531.044893742 L 528.4208932033204 421.15923769700004" stroke-miterlimit="10" stroke-width="1.1518412583333333" stroke-dasharray=""/><path fill="white" stroke="black" paint-order="fill stroke markers" d=" M 715.2574566656901 441.20127559200006 L 729.0795517656902 441.20127559200006 L 729.0795517656902 511.00285584700003 L 715.2574566656901 511.00285584700003 L 715.2574566656901 441.20127559200006" stroke-miterlimit="10" stroke-width="1.1518412583333333" stroke-dasharray=""/><path fill="white" stroke="black" paint-order="fill stroke markers" d=" M 362.09543050999355 614.668569097 L 375.9175256099935 614.668569097 L 375.9175256099935 698.9833492070001 L 362.09543050999355 698.9833492070001 L 362.09543050999355 614.668569097" stroke-miterlimit="10" stroke-width="1.1518412583333333" stroke-dasharray=""/><g><g><rect fill="white" stroke="none" x="23.267193418333342" y="90.12006005199999" width="125.16885295626953" height="17.96872363"/></g><text fill="black" stroke="none" font-family="sans-serif" font-size="9pt" font-style="normal" font-weight="normal" text-decoration="normal" x="25.340507683333342" y="102.55994564199999" text-anchor="start" dominant-baseline="alphabetic" xml:space="preserve">mutt_index_menu() </text></g><g><path fill="none" stroke="black" paint-order="fill stroke markers" d=" M 6.91104755 108.08878368199998 L 162.48850972626954 108.08878368199998" stroke-miterlimit="10" stroke-width="1.1518412583333333" stroke-dasharray=""/><g transform="translate(164.7921922429362,108.08878368199998) translate(-164.7921922429362,-108.08878368199998)"><path fill="black" stroke="none" paint-order="stroke fill markers" d=" M 153.27377965960287 102.32957739033331 L 164.7921922429362 108.08878368199998 L 153.27377965960287 113.84798997366666 Z"/></g></g><path fill="#ffffc0" stroke="black" paint-order="fill stroke markers" d=" M 92.3523066529362 126.057507312 L 238.61428734293625 126.057507312 L 251.05417293293624 138.497392902 L 251.05417293293624 157.848326042 L 92.3523066529362 157.848326042 L 92.3523066529362 126.057507312 M 238.61428734293625 126.057507312 L 238.61428734293625 138.497392902 L 251.05417293293624 138.497392902" stroke-miterlimit="10" stroke-width="1.1518412583333333" stroke-dasharray=""/><g><text fill="black" stroke="none" font-family="sans-serif" font-size="9pt" font-style="normal" font-weight="normal" text-decoration="normal" x="111.70323979293622" y="145.408440452" text-anchor="start" dominant-baseline="alphabetic" xml:space="preserve">Email list displayed </text></g><g><g><rect fill="white" stroke="none" x="294.67760959577475" y="159.921640307" width="117.67996135470703" height="17.96872363"/></g><text fill="black" stroke="none" font-family="sans-serif" font-size="9pt" font-style="normal" font-weight="normal" text-decoration="normal" x="296.7509238607748" y="172.361525897" text-anchor="start" dominant-baseline="alphabetic" xml:space="preserve">km_do_key(INDEX)</text></g><g><path fill="none" stroke="black" paint-order="fill stroke markers" d=" M 178.61428734293622 177.890363937 L 526.1172106866537 177.890363937" stroke-miterlimit="10" stroke-width="1.1518412583333333" stroke-dasharray=""/><g transform="translate(528.4208932033204,177.890363937) translate(-528.4208932033204,-177.890363937)"><path fill="black" stroke="none" paint-order="stroke fill markers" d=" M 516.902480619987 172.13115764533333 L 528.4208932033204 177.890363937 L 516.902480619987 183.64957022866665 Z"/></g></g><g><g><rect fill="white" stroke="none" x="587.6769082195052" y="179.96367820199998" width="82.14662853" height="17.96872363"/></g><text fill="black" stroke="none" font-family="sans-serif" font-size="9pt" font-style="normal" font-weight="normal" text-decoration="normal" x="589.7502224845052" y="192.403563792" text-anchor="start" dominant-baseline="alphabetic" xml:space="preserve">mutt_getch()</text></g><g><path fill="none" stroke="black" paint-order="fill stroke markers" d=" M 542.2429883033204 197.93240183199998 L 712.9537741490235 197.93240183199998" stroke-miterlimit="10" stroke-width="1.1518412583333333" stroke-dasharray=""/><g transform="translate(715.2574566656901,197.93240183199998) translate(-715.2574566656901,-197.93240183199998)"><path fill="black" stroke="none" paint-order="stroke fill markers" d=" M 703.7390440823568 192.17319554033332 L 715.2574566656901 197.93240183199998 L 703.7390440823568 203.69160812366664 Z"/></g></g><path fill="#ffffc0" stroke="black" paint-order="fill stroke markers" d=" M 677.539792450202 215.90112546199998 L 754.3573303911785 215.90112546199998 L 766.7972159811785 228.34101105199997 L 766.7972159811785 247.691944192 L 677.539792450202 247.691944192 L 677.539792450202 215.90112546199998 M 754.3573303911785 215.90112546199998 L 754.3573303911785 228.34101105199997 L 766.7972159811785 228.34101105199997" stroke-miterlimit="10" stroke-width="1.1518412583333333" stroke-dasharray=""/><g><text fill="black" stroke="none" font-family="monospace" font-size="9pt" font-style="normal" font-weight="normal" text-decoration="normal" x="696.8907255902019" y="235.252058602" text-anchor="start" dominant-baseline="alphabetic" xml:space="preserve">&lt;enter&gt;</text></g><g><g><rect fill="white" stroke="none" x="558.5991341716536" y="249.76525845700002" width="140.3021766257031" height="17.96872363"/></g><text fill="black" stroke="none" font-family="sans-serif" font-size="9pt" font-style="normal" font-weight="normal" text-decoration="normal" x="560.6724484366537" y="262.20514404700003" text-anchor="start" dominant-baseline="alphabetic" xml:space="preserve">OP_DISPLAY_MESSAGE</text></g><g><path fill="none" stroke="black" paint-order="fill stroke markers" d=" M 715.2574566656901 267.733982087 L 544.5466708199871 267.733982087" stroke-miterlimit="10" stroke-width="1.1518412583333333" stroke-dasharray="5.52883804"/><g transform="translate(542.2429883033204,267.733982087) translate(-542.2429883033204,-267.733982087)"><path fill="black" stroke="none" paint-order="stroke fill markers" d=" M 553.7614008866537 261.97477579533336 L 542.2429883033204 267.733982087 L 553.7614008866537 273.4931883786667 Z"/></g></g><g><g><rect fill="white" stroke="none" x="283.3665019602767" y="269.80729635200004" width="140.3021766257031" height="17.96872363"/></g><text fill="black" stroke="none" font-family="sans-serif" font-size="9pt" font-style="normal" font-weight="normal" text-decoration="normal" x="285.43981622527673" y="282.24718194200005" text-anchor="start" dominant-baseline="alphabetic" xml:space="preserve">OP_DISPLAY_MESSAGE</text></g><g><path fill="none" stroke="black" paint-order="fill stroke markers" d=" M 528.4208932033204 287.77601998200004 L 180.9179698596029 287.77601998200004" stroke-miterlimit="10" stroke-width="1.1518412583333333" stroke-dasharray="5.52883804"/><g transform="translate(178.61428734293622,287.77601998200004) translate(-178.61428734293622,-287.77601998200004)"><path fill="black" stroke="none" paint-order="stroke fill markers" d=" M 190.13269992626957 282.0168136903334 L 178.61428734293622 287.77601998200004 L 190.13269992626957 293.5352262736667 Z"/></g></g><g><g><rect fill="white" stroke="none" x="194.97043321126958" y="333.38893381200006" width="150.7688514303906" height="17.96872363"/></g><text fill="black" stroke="none" font-family="sans-serif" font-size="9pt" font-style="normal" font-weight="normal" text-decoration="normal" x="197.04374747626957" y="345.8288194020001" text-anchor="start" dominant-baseline="alphabetic" xml:space="preserve">mutt_display_message()</text></g><g><path fill="none" stroke="black" paint-order="fill stroke markers" d=" M 178.61428734293622 351.35765744200006 L 359.7917479933269 351.35765744200006" stroke-miterlimit="10" stroke-width="1.1518412583333333" stroke-dasharray=""/><g transform="translate(362.09543050999355,351.35765744200006) translate(-362.09543050999355,-351.35765744200006)"><path fill="black" stroke="none" paint-order="stroke fill markers" d=" M 350.57701792666023 345.5984511503334 L 362.09543050999355 351.35765744200006 L 350.57701792666023 357.1168637336667 Z"/></g></g><path fill="#ffffc0" stroke="black" paint-order="fill stroke markers" d=" M 277.44443194391926 369.326381072 L 448.1286385860677 369.326381072 L 460.56852417606774 381.766266662 L 460.56852417606774 401.117199802 L 277.44443194391926 401.117199802 L 277.44443194391926 369.326381072 M 448.1286385860677 369.326381072 L 448.1286385860677 381.766266662 L 460.56852417606774 381.766266662" stroke-miterlimit="10" stroke-width="1.1518412583333333" stroke-dasharray=""/><g><text fill="black" stroke="none" font-family="sans-serif" font-size="9pt" font-style="normal" font-weight="normal" text-decoration="normal" x="296.7953650839193" y="388.67731421200006" text-anchor="start" dominant-baseline="alphabetic" xml:space="preserve">First message displayed</text></g><g><g><rect fill="white" stroke="none" x="392.27367147832683" y="403.19051406700004" width="119.79107585666016" height="17.96872363"/></g><text fill="black" stroke="none" font-family="sans-serif" font-size="9pt" font-style="normal" font-weight="normal" text-decoration="normal" x="394.34698574332685" y="415.63039965700005" text-anchor="start" dominant-baseline="alphabetic" xml:space="preserve">km_do_key(PAGER)</text></g><g><path fill="none" stroke="black" paint-order="fill stroke markers" d=" M 375.9175256099935 421.15923769700004 L 526.1172106866537 421.15923769700004" stroke-miterlimit="10" stroke-width="1.1518412583333333" stroke-dasharray=""/><g transform="translate(528.4208932033204,421.15923769700004) translate(-528.4208932033204,-421.15923769700004)"><path fill="black" stroke="none" paint-order="stroke fill markers" d=" M 516.902480619987 415.4000314053334 L 528.4208932033204 421.15923769700004 L 516.902480619987 426.9184439886667 Z"/></g></g><g><g><rect fill="white" stroke="none" x="587.6769082195052" y="423.23255196200006" width="82.14662853" height="17.96872363"/></g><text fill="black" stroke="none" font-family="sans-serif" font-size="9pt" font-style="normal" font-weight="normal" text-decoration="normal" x="589.7502224845052" y="435.6724375520001" text-anchor="start" dominant-baseline="alphabetic" xml:space="preserve">mutt_getch()</text></g><g><path fill="none" stroke="black" paint-order="fill stroke markers" d=" M 542.2429883033204 441.20127559200006 L 712.9537741490235 441.20127559200006" stroke-miterlimit="10" stroke-width="1.1518412583333333" stroke-dasharray=""/><g transform="translate(715.2574566656901,441.20127559200006) translate(-715.2574566656901,-441.20127559200006)"><path fill="black" stroke="none" paint-order="stroke fill markers" d=" M 703.7390440823568 435.4420693003334 L 715.2574566656901 441.20127559200006 L 703.7390440823568 446.9604818836667 Z"/></g></g><path fill="#ffffc0" stroke="black" paint-order="fill stroke markers" d=" M 681.1509050448064 459.169999222 L 750.746217796574 459.169999222 L 763.186103386574 471.609884812 L 763.186103386574 490.960817952 L 681.1509050448064 490.960817952 L 681.1509050448064 459.169999222 M 750.746217796574 459.169999222 L 750.746217796574 471.609884812 L 763.186103386574 471.609884812" stroke-miterlimit="10" stroke-width="1.1518412583333333" stroke-dasharray=""/><g><text fill="black" stroke="none" font-family="monospace" font-size="9pt" font-style="normal" font-weight="normal" text-decoration="normal" x="700.5018381848064" y="478.52093236200005" text-anchor="start" dominant-baseline="alphabetic" xml:space="preserve">&lt;down&gt;</text></g><g><g><rect fill="white" stroke="none" x="576.9880196697005" y="493.03413221700004" width="103.52440562960938" height="17.96872363"/></g><text fill="black" stroke="none" font-family="sans-serif" font-size="9pt" font-style="normal" font-weight="normal" text-decoration="normal" x="579.0613339347005" y="505.47401780700005" text-anchor="start" dominant-baseline="alphabetic" xml:space="preserve">OP_NEXT_ENTRY</text></g><g><path fill="none" stroke="black" paint-order="fill stroke markers" d=" M 715.2574566656901 511.00285584700003 L 544.5466708199871 511.00285584700003" stroke-miterlimit="10" stroke-width="1.1518412583333333" stroke-dasharray="5.52883804"/><g transform="translate(542.2429883033204,511.00285584700003) translate(-542.2429883033204,-511.00285584700003)"><path fill="black" stroke="none" paint-order="stroke fill markers" d=" M 553.7614008866537 505.2436495553334 L 542.2429883033204 511.00285584700003 L 553.7614008866537 516.7620621386667 Z"/></g></g><g><g><rect fill="white" stroke="none" x="400.4070065918522" y="513.076170112" width="103.52440562960938" height="17.96872363"/></g><text fill="black" stroke="none" font-family="sans-serif" font-size="9pt" font-style="normal" font-weight="normal" text-decoration="normal" x="402.48032085685225" y="525.516055702" text-anchor="start" dominant-baseline="alphabetic" xml:space="preserve">OP_NEXT_ENTRY</text></g><g><path fill="none" stroke="black" paint-order="fill stroke markers" d=" M 528.4208932033204 531.044893742 L 378.22120812666014 531.044893742" stroke-miterlimit="10" stroke-width="1.1518412583333333" stroke-dasharray="5.52883804"/><g transform="translate(375.9175256099935,531.044893742) translate(-375.9175256099935,-531.044893742)"><path fill="black" stroke="none" paint-order="stroke fill markers" d=" M 387.4359381933268 525.2856874503333 L 375.9175256099935 531.044893742 L 387.4359381933268 536.8041000336667 Z"/></g></g><g><g><rect fill="white" stroke="none" x="218.5926561116602" y="533.118208007" width="103.52440562960938" height="17.96872363"/></g><text fill="black" stroke="none" font-family="sans-serif" font-size="9pt" font-style="normal" font-weight="normal" text-decoration="normal" x="220.6659703766602" y="545.5580935969999" text-anchor="start" dominant-baseline="alphabetic" xml:space="preserve">OP_NEXT_ENTRY</text></g><g><path fill="none" stroke="black" paint-order="fill stroke markers" d=" M 362.09543050999355 551.086931637 L 180.9179698596029 551.086931637" stroke-miterlimit="10" stroke-width="1.1518412583333333" stroke-dasharray="5.52883804"/><g transform="translate(178.61428734293622,551.086931637) translate(-178.61428734293622,-551.086931637)"><path fill="black" stroke="none" paint-order="stroke fill markers" d=" M 190.13269992626957 545.3277253453333 L 178.61428734293622 551.086931637 L 190.13269992626957 556.8461379286667 Z"/></g></g><g><g><rect fill="white" stroke="none" x="194.97043321126958" y="596.699845467" width="150.7688514303906" height="17.96872363"/></g><text fill="black" stroke="none" font-family="sans-serif" font-size="9pt" font-style="normal" font-weight="normal" text-decoration="normal" x="197.04374747626957" y="609.139731057" text-anchor="start" dominant-baseline="alphabetic" xml:space="preserve">mutt_display_message()</text></g><g><path fill="none" stroke="black" paint-order="fill stroke markers" d=" M 178.61428734293622 614.668569097 L 359.7917479933269 614.668569097" stroke-miterlimit="10" stroke-width="1.1518412583333333" stroke-dasharray=""/><g transform="translate(362.09543050999355,614.668569097) translate(-362.09543050999355,-614.668569097)"><path fill="black" stroke="none" paint-order="stroke fill markers" d=" M 350.57701792666023 608.9093628053333 L 362.09543050999355 614.668569097 L 350.57701792666023 620.4277753886668 Z"/></g></g><path fill="#ffffc0" stroke="black" paint-order="fill stroke markers" d=" M 267.9888807964583 632.637292727 L 457.58418973352866 632.637292727 L 470.0240753235287 645.0771783170001 L 470.0240753235287 664.428111457 L 267.9888807964583 664.428111457 L 267.9888807964583 632.637292727 M 457.58418973352866 632.637292727 L 457.58418973352866 645.0771783170001 L 470.0240753235287 645.0771783170001" stroke-miterlimit="10" stroke-width="1.1518412583333333" stroke-dasharray=""/><g><text fill="black" stroke="none" font-family="sans-serif" font-size="9pt" font-style="normal" font-weight="normal" text-decoration="normal" x="287.33981393645837" y="651.988225867" text-anchor="start" dominant-baseline="alphabetic" xml:space="preserve">Second message displayed</text></g></g></g></svg>