<svg version="1.1" xmlns="http://www.w3.org/2000/svg" xmlns:xlink="http://www.w3.org/1999/xlink" width="919" height="777"><defs/><g><g/><g/><g/><g/><g/><g/><g/><g/><g/><g/><g/><g/><g/><g/><g/><g/><g/><g/><g/><g/><g/><g><rect fill="white" stroke="none" x="0" y="0" width="919" height="777"/></g><g><text fill="black" stroke="none" font-family="sans-serif" font-size="16.5pt" font-style="normal" font-weight="normal" text-decoration="normal" x="413.13781464468747" y="22.6179738" text-anchor="start" dominant-baseline="alphabetic" xml:space="preserve">NeoMutt</text></g><g/><g><path fill="none" stroke="black" paint-order="fill stroke markers" d=" M 198.57172085410156 88.511670804 L 198.57172085410156 777.6059392440002" stroke-miterlimit="10" stroke-width="1.2565541" stroke-dasharray="11.598960923076923,5.0262164"/><path fill="none" stroke="black" paint-order="fill stroke markers" d=" M 433.1434417082031 88.511670804 L 433.1434417082031 777.6059392440002" stroke-miterlimit="10" stroke-width="1.2565541" stroke-dasharray="11.598960923076923,5.0262164"/><path fill="none" stroke="black" paint-order="fill stroke markers" d=" M 629.8484938611327 88.511670804 L 629.8484938611327 777.6059392440002" stroke-miterlimit="10" stroke-width="1.2565541" stroke-dasharray="11.598960923076923,5.0262164"/><path fill="none" stroke="black" paint-order="fill stroke markers" d=" M 851.6368742611328 88.511670804 L 851.6368742611328 777.6059392440002" stroke-miterlimit="10" stroke-width="1.2565541" stroke-dasharray="11.598960923076923,5.0262164"/></g><g><path fill="none" stroke="none"/><g><path fill="white" stroke="black" paint-order="fill stroke markers" d=" M 162.0113857091621 47.950104456000005 L 235.13205599904103 47.950104456000005 L 235.13205599904103 88.511670804 L 162.0113857091621 88.511670804 L 162.0113857091621 47.950104456000005 Z" stroke-miterlimit="10" stroke-width="2.4125838720000004" stroke-dasharray=""/></g><g><text fill="black" stroke="none" font-family="sans-serif" font-size="11pt" font-style="normal" font-weight="normal" text-decoration="normal" x="178.3717200911621" y="73.433021604" text-anchor="start" dominant-baseline="alphabetic" xml:space="preserve">Index</text></g><path fill="none" stroke="none"/><g><path fill="white" stroke="black" paint-order="fill stroke markers" d=" M 396.0081077076728 47.950104456000005 L 470.27877570873335 47.950104456000005 L 470.27877570873335 88.511670804 L 396.0081077076728 88.511670804 L 396.0081077076728 47.950104456000005 Z" stroke-miterlimit="10" stroke-width="2.4125838720000004" stroke-dasharray=""/></g><g><text fill="black" stroke="none" font-family="sans-serif" font-size="11pt" font-style="normal" font-weight="normal" text-decoration="normal" x="412.36844208967284" y="73.433021604" text-anchor="start" dominant-baseline="alphabetic" xml:space="preserve">Pager</text></g><path fill="none" stroke="none"/><g><path fill="white" stroke="black" paint-order="fill stroke markers" d=" M 593.3381598606024 47.950104456000005 L 666.358827861663 47.950104456000005 L 666.358827861663 88.511670804 L 593.3381598606024 88.511670804 L 593.3381598606024 47.950104456000005 Z" stroke-miterlimit="10" stroke-width="2.4125838720000004" stroke-dasharray=""/></g><g><text fill="black" stroke="none" font-family="sans-serif" font-size="11pt" font-style="normal" font-weight="normal" text-decoration="normal" x="609.6984942426025" y="73.433021604" text-anchor="start" dominant-baseline="alphabetic" xml:space="preserve">Menu</text></g><path fill="none" stroke="none"/><g><path fill="white" stroke="black" paint-order="fill stroke markers" d=" M 818.551539497663 47.950104456000005 L 884.7222090246025 47.950104456000005 L 884.7222090246025 88.511670804 L 818.551539497663 88.511670804 L 818.551539497663 47.950104456000005 Z" stroke-miterlimit="10" stroke-width="2.4125838720000004" stroke-dasharray=""/></g><g><text fill="black" stroke="none" font-family="sans-serif" font-size="11pt" font-style="normal" font-weight="normal" text-decoration="normal" x="834.9118738796631" y="73.433021604" text-anchor="start" dominant-baseline="alphabetic" xml:space="preserve">User</text></g></g><g><path fill="white" stroke="black" paint-order="fill stroke markers" d=" M 191.03239625410157 117.915036744 L 206.11104545410154 117.915036744 L 206.11104545410154 762.5272900440002 L 191.03239625410157 762.5272900440002 L 191.03239625410157 117.915036744" stroke-miterlimit="10" stroke-width="1.2565541" stroke-dasharray=""/><path fill="white" stroke="black" paint-order="fill stroke markers" d=" M 622.3091692611328 194.062215204 L 637.3878184611327 194.062215204 L 637.3878184611327 313.93747634400006 L 622.3091692611328 313.93747634400006 L 622.3091692611328 194.062215204" stroke-miterlimit="10" stroke-width="1.2565541" stroke-dasharray=""/><path fill="white" stroke="black" paint-order="fill stroke markers" d=" M 844.0975496611328 215.926256544 L 859.1761988611328 215.926256544 L 859.1761988611328 292.07343500400003 L 844.0975496611328 292.07343500400003 L 844.0975496611328 215.926256544" stroke-miterlimit="10" stroke-width="1.2565541" stroke-dasharray=""/><path fill="white" stroke="black" paint-order="fill stroke markers" d=" M 425.6041171082031 383.2992626640001 L 440.6827663082031 383.2992626640001 L 440.6827663082031 601.1857436040001 L 425.6041171082031 601.1857436040001 L 425.6041171082031 383.2992626640001" stroke-miterlimit="10" stroke-width="1.2565541" stroke-dasharray=""/><path fill="white" stroke="black" paint-order="fill stroke markers" d=" M 622.3091692611328 459.4464411240001 L 637.3878184611327 459.4464411240001 L 637.3878184611327 579.3217022640001 L 622.3091692611328 579.3217022640001 L 622.3091692611328 459.4464411240001" stroke-miterlimit="10" stroke-width="1.2565541" stroke-dasharray=""/><path fill="white" stroke="black" paint-order="fill stroke markers" d=" M 844.0975496611328 481.31048246400013 L 859.1761988611328 481.31048246400013 L 859.1761988611328 557.4576609240002 L 844.0975496611328 557.4576609240002 L 844.0975496611328 481.31048246400013" stroke-miterlimit="10" stroke-width="1.2565541" stroke-dasharray=""/><path fill="white" stroke="black" paint-order="fill stroke markers" d=" M 425.6041171082031 670.5475299240001 L 440.6827663082031 670.5475299240001 L 440.6827663082031 762.5272900440002 L 425.6041171082031 762.5272900440002 L 425.6041171082031 670.5475299240001" stroke-miterlimit="10" stroke-width="1.2565541" stroke-dasharray=""/><g><g><rect fill="white" stroke="none" x="25.38239282000001" y="98.31279278400001" width="147.80693521410157" height="19.602243960000003"/></g><text fill="black" stroke="none" font-family="sans-serif" font-size="11pt" font-style="normal" font-weight="normal" text-decoration="normal" x="27.64419020000001" y="111.88357706400001" text-anchor="start" dominant-baseline="alphabetic" xml:space="preserve">mutt_index_menu()</text></g><g><path fill="none" stroke="black" paint-order="fill stroke markers" d=" M 7.5393246000000005 117.915036744 L 188.51928805410157 117.915036744" stroke-miterlimit="10" stroke-width="1.2565541" stroke-dasharray=""/><g transform="translate(191.03239625410157,117.915036744) translate(-191.03239625410157,-117.915036744)"><path fill="black" stroke="none" paint-order="stroke fill markers" d=" M 178.46685525410157 111.63226624400001 L 191.03239625410157 117.915036744 L 178.46685525410157 124.197807244 Z"/></g></g><path fill="#ffffc0" stroke="black" paint-order="fill stroke markers" d=" M 106.4199478505664 137.517280704 L 277.1527095776367 137.517280704 L 290.7234938576367 151.088064984 L 290.7234938576367 172.198173864 L 106.4199478505664 172.198173864 L 106.4199478505664 137.517280704 M 277.1527095776367 137.517280704 L 277.1527095776367 151.088064984 L 290.7234938576367 151.088064984" stroke-miterlimit="10" stroke-width="1.2565541" stroke-dasharray=""/><g><text fill="black" stroke="none" font-family="sans-serif" font-size="11pt" font-style="normal" font-weight="normal" text-decoration="normal" x="127.5300567305664" y="158.627389584" text-anchor="start" dominant-baseline="alphabetic" xml:space="preserve">Email list displayed</text></g><g><g><rect fill="white" stroke="none" x="342.5399771529101" y="174.459971244" width="143.34026040941407" height="19.602243960000003"/></g><text fill="black" stroke="none" font-family="sans-serif" font-size="11pt" font-style="normal" font-weight="normal" text-decoration="normal" x="344.80177453291014" y="188.030755524" text-anchor="start" dominant-baseline="alphabetic" xml:space="preserve">km_do_key(INDEX)</text></g><g><path fill="none" stroke="black" paint-order="fill stroke markers" d=" M 206.11104545410154 194.062215204 L 619.7960610611327 194.062215204" stroke-miterlimit="10" stroke-width="1.2565541" stroke-dasharray=""/><g transform="translate(622.3091692611328,194.062215204) translate(-622.3091692611328,-194.062215204)"><path fill="black" stroke="none" paint-order="stroke fill markers" d=" M 609.7436282611327 187.779444704 L 622.3091692611328 194.062215204 L 609.7436282611327 200.344985704 Z"/></g></g><g><g><rect fill="white" stroke="none" x="690.8142187429004" y="196.324012584" width="99.85693063646484" height="19.602243960000003"/></g><text fill="black" stroke="none" font-family="sans-serif" font-size="11pt" font-style="normal" font-weight="normal" text-decoration="normal" x="693.0760161229003" y="209.894796864" text-anchor="start" dominant-baseline="alphabetic" xml:space="preserve">mutt_getch()</text></g><g><path fill="none" stroke="black" paint-order="fill stroke markers" d=" M 637.3878184611327 215.926256544 L 841.5844414611328 215.926256544" stroke-miterlimit="10" stroke-width="1.2565541" stroke-dasharray=""/><g transform="translate(844.0975496611328,215.926256544) translate(-844.0975496611328,-215.926256544)"><path fill="black" stroke="none" paint-order="stroke fill markers" d=" M 831.5320086611327 209.643486044 L 844.0975496611328 215.926256544 L 831.5320086611327 222.209027044 Z"/></g></g><path fill="#ffffc0" stroke="black" paint-order="fill stroke markers" d=" M 798.6517653811328 235.528500504 L 891.0511988611328 235.528500504 L 904.6219831411328 249.099284784 L 904.6219831411328 270.209393664 L 798.6517653811328 270.209393664 L 798.6517653811328 235.528500504 M 891.0511988611328 235.528500504 L 891.0511988611328 249.099284784 L 904.6219831411328 249.099284784" stroke-miterlimit="10" stroke-width="1.2565541" stroke-dasharray=""/><g><text fill="black" stroke="none" font-family="sans-serif" font-size="11pt" font-style="normal" font-weight="normal" text-decoration="normal" x="819.7618742611328" y="256.638609384" text-anchor="start" dominant-baseline="alphabetic" xml:space="preserve">&lt;enter&gt;</text></g><g><g><rect fill="white" stroke="none" x="655.2308866811328" y="272.471191044" width="171.02359476" height="19.602243960000003"/></g><text fill="black" stroke="none" font-family="sans-serif" font-size="11pt" font-style="normal" font-weight="normal" text-decoration="normal" x="657.4926840611328" y="286.0419753240001" text-anchor="start" dominant-baseline="alphabetic" xml:space="preserve">OP_DISPLAY_MESSAGE</text></g><g><path fill="none" stroke="black" paint-order="fill stroke markers" d=" M 844.0975496611328 292.07343500400003 L 639.9009266611328 292.07343500400003" stroke-miterlimit="10" stroke-width="1.2565541" stroke-dasharray="6.03145968"/><g transform="translate(637.3878184611327,292.07343500400003) translate(-637.3878184611327,-292.07343500400003)"><path fill="black" stroke="none" paint-order="stroke fill markers" d=" M 649.9533594611328 285.790664504 L 637.3878184611327 292.07343500400003 L 649.9533594611328 298.35620550400006 Z"/></g></g><g><g><rect fill="white" stroke="none" x="328.69830997761716" y="294.33523238400005" width="171.02359476" height="19.602243960000003"/></g><text fill="black" stroke="none" font-family="sans-serif" font-size="11pt" font-style="normal" font-weight="normal" text-decoration="normal" x="330.9601073576172" y="307.90601666400005" text-anchor="start" dominant-baseline="alphabetic" xml:space="preserve">OP_DISPLAY_MESSAGE</text></g><g><path fill="none" stroke="black" paint-order="fill stroke markers" d=" M 622.3091692611328 313.93747634400006 L 208.62415365410155 313.93747634400006" stroke-miterlimit="10" stroke-width="1.2565541" stroke-dasharray="6.03145968"/><g transform="translate(206.11104545410154,313.93747634400006) translate(-206.11104545410154,-313.93747634400006)"><path fill="black" stroke="none" paint-order="stroke fill markers" d=" M 218.67658645410154 307.65470584400003 L 206.11104545410154 313.93747634400006 L 218.67658645410154 320.2202468440001 Z"/></g></g><g><g><rect fill="white" stroke="none" x="223.95411367410154" y="363.6970187040001" width="183.80693521410157" height="19.602243960000003"/></g><text fill="black" stroke="none" font-family="sans-serif" font-size="11pt" font-style="normal" font-weight="normal" text-decoration="normal" x="226.21591105410153" y="377.2678029840001" text-anchor="start" dominant-baseline="alphabetic" xml:space="preserve">mutt_display_message()</text></g><g><path fill="none" stroke="black" paint-order="fill stroke markers" d=" M 206.11104545410154 383.2992626640001 L 423.09100890820315 383.2992626640001" stroke-miterlimit="10" stroke-width="1.2565541" stroke-dasharray=""/><g transform="translate(425.6041171082031,383.2992626640001) translate(-425.6041171082031,-383.2992626640001)"><path fill="black" stroke="none" paint-order="stroke fill markers" d=" M 413.03857610820313 377.01649216400006 L 425.6041171082031 383.2992626640001 L 413.03857610820313 389.5820331640001 Z"/></g></g><path fill="#ffffc0" stroke="black" paint-order="fill stroke markers" d=" M 323.70833587996094 402.9015066240001 L 529.0077632564453 402.9015066240001 L 542.5785475364453 416.4722909040001 L 542.5785475364453 437.5823997840001 L 323.70833587996094 437.5823997840001 L 323.70833587996094 402.9015066240001 M 529.0077632564453 402.9015066240001 L 529.0077632564453 416.4722909040001 L 542.5785475364453 416.4722909040001" stroke-miterlimit="10" stroke-width="1.2565541" stroke-dasharray=""/><g><text fill="black" stroke="none" font-family="sans-serif" font-size="11pt" font-style="normal" font-weight="normal" text-decoration="normal" x="344.8184447599609" y="424.01161550400013" text-anchor="start" dominant-baseline="alphabetic" xml:space="preserve">First message displayed</text></g><g><g><rect fill="white" stroke="none" x="458.5258345282031" y="439.8441971640001" width="145.9402665129297" height="19.602243960000003"/></g><text fill="black" stroke="none" font-family="sans-serif" font-size="11pt" font-style="normal" font-weight="normal" text-decoration="normal" x="460.78763190820314" y="453.4149814440001" text-anchor="start" dominant-baseline="alphabetic" xml:space="preserve">km_do_key(PAGER)</text></g><g><path fill="none" stroke="black" paint-order="fill stroke markers" d=" M 440.6827663082031 459.4464411240001 L 619.7960610611327 459.4464411240001" stroke-miterlimit="10" stroke-width="1.2565541" stroke-dasharray=""/><g transform="translate(622.3091692611328,459.4464411240001) translate(-622.3091692611328,-459.4464411240001)"><path fill="black" stroke="none" paint-order="stroke fill markers" d=" M 609.7436282611327 453.1636706240001 L 622.3091692611328 459.4464411240001 L 609.7436282611327 465.72921162400013 Z"/></g></g><g><g><rect fill="white" stroke="none" x="690.8142187429004" y="461.7082385040001" width="99.85693063646484" height="19.602243960000003"/></g><text fill="black" stroke="none" font-family="sans-serif" font-size="11pt" font-style="normal" font-weight="normal" text-decoration="normal" x="693.0760161229003" y="475.2790227840002" text-anchor="start" dominant-baseline="alphabetic" xml:space="preserve">mutt_getch()</text></g><g><path fill="none" stroke="black" paint-order="fill stroke markers" d=" M 637.3878184611327 481.31048246400013 L 841.5844414611328 481.31048246400013" stroke-miterlimit="10" stroke-width="1.2565541" stroke-dasharray=""/><g transform="translate(844.0975496611328,481.31048246400013) translate(-844.0975496611328,-481.31048246400013)"><path fill="black" stroke="none" paint-order="stroke fill markers" d=" M 831.5320086611327 475.0277119640001 L 844.0975496611328 481.31048246400013 L 831.5320086611327 487.59325296400016 Z"/></g></g><path fill="#ffffc0" stroke="black" paint-order="fill stroke markers" d=" M 798.4267669070117 500.9127264240002 L 891.2761973352539 500.9127264240002 L 904.8469816152539 514.4835107040002 L 904.8469816152539 535.5936195840002 L 798.4267669070117 535.5936195840002 L 798.4267669070117 500.9127264240002 M 891.2761973352539 500.9127264240002 L 891.2761973352539 514.4835107040002 L 904.8469816152539 514.4835107040002" stroke-miterlimit="10" stroke-width="1.2565541" stroke-dasharray=""/><g><text fill="black" stroke="none" font-family="sans-serif" font-size="11pt" font-style="normal" font-weight="normal" text-decoration="normal" x="819.5368757870117" y="522.0228353040002" text-anchor="start" dominant-baseline="alphabetic" xml:space="preserve">&lt;down&gt;</text></g><g><g><rect fill="white" stroke="none" x="677.7225515676074" y="537.8554169640001" width="126.04026498705078" height="19.602243960000003"/></g><text fill="black" stroke="none" font-family="sans-serif" font-size="11pt" font-style="normal" font-weight="normal" text-decoration="normal" x="679.9843489476074" y="551.4262012440001" text-anchor="start" dominant-baseline="alphabetic" xml:space="preserve">OP_NEXT_ENTRY</text></g><g><path fill="none" stroke="black" paint-order="fill stroke markers" d=" M 844.0975496611328 557.4576609240002 L 639.9009266611328 557.4576609240002" stroke-miterlimit="10" stroke-width="1.2565541" stroke-dasharray="6.03145968"/><g transform="translate(637.3878184611327,557.4576609240002) translate(-637.3878184611327,-557.4576609240002)"><path fill="black" stroke="none" paint-order="stroke fill markers" d=" M 649.9533594611328 551.1748904240002 L 637.3878184611327 557.4576609240002 L 649.9533594611328 563.7404314240001 Z"/></g></g><g><g><rect fill="white" stroke="none" x="468.4758352911426" y="559.7194583040001" width="126.04026498705078" height="19.602243960000003"/></g><text fill="black" stroke="none" font-family="sans-serif" font-size="11pt" font-style="normal" font-weight="normal" text-decoration="normal" x="470.7376326711426" y="573.2902425840001" text-anchor="start" dominant-baseline="alphabetic" xml:space="preserve">OP_NEXT_ENTRY</text></g><g><path fill="none" stroke="black" paint-order="fill stroke markers" d=" M 622.3091692611328 579.3217022640001 L 443.1958745082031 579.3217022640001" stroke-miterlimit="10" stroke-width="1.2565541" stroke-dasharray="6.03145968"/><g transform="translate(440.6827663082031,579.3217022640001) translate(-440.6827663082031,-579.3217022640001)"><path fill="black" stroke="none" paint-order="stroke fill markers" d=" M 453.2483073082031 573.0389317640002 L 440.6827663082031 579.3217022640001 L 453.2483073082031 585.6044727640001 Z"/></g></g><g><g><rect fill="white" stroke="none" x="252.83744878762693" y="581.5834996440001" width="126.04026498705078" height="19.602243960000003"/></g><text fill="black" stroke="none" font-family="sans-serif" font-size="11pt" font-style="normal" font-weight="normal" text-decoration="normal" x="255.09924616762692" y="595.1542839240001" text-anchor="start" dominant-baseline="alphabetic" xml:space="preserve">OP_NEXT_ENTRY</text></g><g><path fill="none" stroke="black" paint-order="fill stroke markers" d=" M 425.6041171082031 601.1857436040001 L 208.62415365410155 601.1857436040001" stroke-miterlimit="10" stroke-width="1.2565541" stroke-dasharray="6.03145968"/><g transform="translate(206.11104545410154,601.1857436040001) translate(-206.11104545410154,-601.1857436040001)"><path fill="black" stroke="none" paint-order="stroke fill markers" d=" M 218.67658645410154 594.9029731040001 L 206.11104545410154 601.1857436040001 L 218.67658645410154 607.4685141040001 Z"/></g></g><g><g><rect fill="white" stroke="none" x="223.95411367410154" y="650.945285964" width="183.80693521410157" height="19.602243960000003"/></g><text fill="black" stroke="none" font-family="sans-serif" font-size="11pt" font-style="normal" font-weight="normal" text-decoration="normal" x="226.21591105410153" y="664.516070244" text-anchor="start" dominant-baseline="alphabetic" xml:space="preserve">mutt_display_message()</text></g><g><path fill="none" stroke="black" paint-order="fill stroke markers" d=" M 206.11104545410154 670.5475299240001 L 423.09100890820315 670.5475299240001" stroke-miterlimit="10" stroke-width="1.2565541" stroke-dasharray=""/><g transform="translate(425.6041171082031,670.5475299240001) translate(-425.6041171082031,-670.5475299240001)"><path fill="black" stroke="none" paint-order="stroke fill markers" d=" M 413.03857610820313 664.2647594240001 L 425.6041171082031 670.5475299240001 L 413.03857610820313 676.830300424 Z"/></g></g><path fill="#ffffc0" stroke="black" paint-order="fill stroke markers" d=" M 312.14166260115235 690.1497738840002 L 540.5744365352539 690.1497738840002 L 554.1452208152539 703.7205581640002 L 554.1452208152539 724.8306670440002 L 312.14166260115235 724.8306670440002 L 312.14166260115235 690.1497738840002 M 540.5744365352539 690.1497738840002 L 540.5744365352539 703.7205581640002 L 554.1452208152539 703.7205581640002" stroke-miterlimit="10" stroke-width="1.2565541" stroke-dasharray=""/><g><text fill="black" stroke="none" font-family="sans-serif" font-size="11pt" font-style="normal" font-weight="normal" text-decoration="normal" x="333.25177148115233" y="711.2598827640002" text-anchor="start" dominant-baseline="alphabetic" xml:space="preserve">Second message displayed</text></g></g></g></svg>