<svg version="1.1" xmlns="http://www.w3.org/2000/svg" xmlns:xlink="http://www.w3.org/1999/xlink" width="919" height="739"><defs/><g><g/><g/><g/><g/><g/><g/><g/><g/><g/><g/><g/><g/><g/><g/><g/><g/><g/><g/><g/><g/><g/><g><rect fill="white" stroke="none" x="0" y="0" width="919" height="739"/></g><g/><g><path fill="none" stroke="black" paint-order="fill stroke markers" d=" M 198.48837734824218 50.815047804 L 198.48837734824218 739.9093162440001" stroke-miterlimit="10" stroke-width="1.2565541" stroke-dasharray="11.598960923076923,5.0262164"/><path fill="none" stroke="black" paint-order="fill stroke markers" d=" M 432.922219784375 50.815047804 L 432.922219784375 739.9093162440001" stroke-miterlimit="10" stroke-width="1.2565541" stroke-dasharray="11.598960923076923,5.0262164"/><path fill="none" stroke="black" paint-order="fill stroke markers" d=" M 629.6105940808593 50.815047804 L 629.6105940808593 739.9093162440001" stroke-miterlimit="10" stroke-width="1.2565541" stroke-dasharray="11.598960923076923,5.0262164"/><path fill="none" stroke="black" paint-order="fill stroke markers" d=" M 851.3353453304687 50.815047804 L 851.3353453304687 739.9093162440001" stroke-miterlimit="10" stroke-width="1.2565541" stroke-dasharray="11.598960923076923,5.0262164"/></g><g><path fill="none" stroke="none"/><g><path fill="white" stroke="black" paint-order="fill stroke markers" d=" M 161.93713453423535 10.253481456000003 L 235.03962016224904 10.253481456000003 L 235.03962016224904 50.815047804 L 161.93713453423535 50.815047804 L 161.93713453423535 10.253481456000003 Z" stroke-miterlimit="10" stroke-width="2.4125838720000004" stroke-dasharray=""/></g><g><text fill="black" stroke="none" font-family="sans-serif" font-size="11pt" font-style="normal" font-weight="normal" text-decoration="normal" x="178.29746891623535" y="35.736398604" text-anchor="start" dominant-baseline="alphabetic" xml:space="preserve">Index</text></g><path fill="none" stroke="none"/><g><path fill="white" stroke="black" paint-order="fill stroke markers" d=" M 395.798249766999 10.253481456000003 L 470.0461898017509 10.253481456000003 L 470.0461898017509 50.815047804 L 395.798249766999 50.815047804 L 395.798249766999 10.253481456000003 Z" stroke-miterlimit="10" stroke-width="2.4125838720000004" stroke-dasharray=""/></g><g><text fill="black" stroke="none" font-family="sans-serif" font-size="11pt" font-style="normal" font-weight="normal" text-decoration="normal" x="412.158584148999" y="35.736398604" text-anchor="start" dominant-baseline="alphabetic" xml:space="preserve">Pager</text></g><path fill="none" stroke="none"/><g><path fill="white" stroke="black" paint-order="fill stroke markers" d=" M 593.122986139289 10.253481456000003 L 666.0982020224296 10.253481456000003 L 666.0982020224296 50.815047804 L 593.122986139289 50.815047804 L 593.122986139289 10.253481456000003 Z" stroke-miterlimit="10" stroke-width="2.4125838720000004" stroke-dasharray=""/></g><g><text fill="black" stroke="none" font-family="sans-serif" font-size="11pt" font-style="normal" font-weight="normal" text-decoration="normal" x="609.483320521289" y="35.736398604" text-anchor="start" dominant-baseline="alphabetic" xml:space="preserve">Menu</text></g><path fill="none" stroke="none"/><g><path fill="white" stroke="black" paint-order="fill stroke markers" d=" M 818.2568293383613 10.253481456000003 L 884.4138613225762 10.253481456000003 L 884.4138613225762 50.815047804 L 818.2568293383613 50.815047804 L 818.2568293383613 10.253481456000003 Z" stroke-miterlimit="10" stroke-width="2.4125838720000004" stroke-dasharray=""/></g><g><text fill="black" stroke="none" font-family="sans-serif" font-size="11pt" font-style="normal" font-weight="normal" text-decoration="normal" x="834.6171637203613" y="35.736398604" text-anchor="start" dominant-baseline="alphabetic" xml:space="preserve">User</text></g></g><g><path fill="white" stroke="black" paint-order="fill stroke markers" d=" M 190.9490527482422 80.218413744 L 206.02770194824217 80.218413744 L 206.02770194824217 724.8306670440002 L 190.9490527482422 724.8306670440002 L 190.9490527482422 80.218413744" stroke-miterlimit="10" stroke-width="1.2565541" stroke-dasharray=""/><path fill="white" stroke="black" paint-order="fill stroke markers" d=" M 622.0712694808593 156.36559220400002 L 637.1499186808593 156.36559220400002 L 637.1499186808593 276.240853344 L 622.0712694808593 276.240853344 L 622.0712694808593 156.36559220400002" stroke-miterlimit="10" stroke-width="1.2565541" stroke-dasharray=""/><path fill="white" stroke="black" paint-order="fill stroke markers" d=" M 843.7960207304687 178.22963354400002 L 858.8746699304687 178.22963354400002 L 858.8746699304687 254.37681200400002 L 843.7960207304687 254.37681200400002 L 843.7960207304687 178.22963354400002" stroke-miterlimit="10" stroke-width="1.2565541" stroke-dasharray=""/><path fill="white" stroke="black" paint-order="fill stroke markers" d=" M 425.382895184375 345.60263966400004 L 440.461544384375 345.60263966400004 L 440.461544384375 563.489120604 L 425.382895184375 563.489120604 L 425.382895184375 345.60263966400004" stroke-miterlimit="10" stroke-width="1.2565541" stroke-dasharray=""/><path fill="white" stroke="black" paint-order="fill stroke markers" d=" M 622.0712694808593 421.74981812400006 L 637.1499186808593 421.74981812400006 L 637.1499186808593 541.6250792640001 L 622.0712694808593 541.6250792640001 L 622.0712694808593 421.74981812400006" stroke-miterlimit="10" stroke-width="1.2565541" stroke-dasharray=""/><path fill="white" stroke="black" paint-order="fill stroke markers" d=" M 843.7960207304687 443.6138594640001 L 858.8746699304687 443.6138594640001 L 858.8746699304687 519.7610379240001 L 843.7960207304687 519.7610379240001 L 843.7960207304687 443.6138594640001" stroke-miterlimit="10" stroke-width="1.2565541" stroke-dasharray=""/><path fill="white" stroke="black" paint-order="fill stroke markers" d=" M 425.382895184375 632.850906924 L 440.461544384375 632.850906924 L 440.461544384375 724.8306670440002 L 425.382895184375 724.8306670440002 L 425.382895184375 632.850906924" stroke-miterlimit="10" stroke-width="1.2565541" stroke-dasharray=""/><g><g><rect fill="white" stroke="none" x="25.38239282000001" y="60.616169784" width="147.7235917082422" height="19.602243960000003"/></g><text fill="black" stroke="none" font-family="sans-serif" font-size="11pt" font-style="normal" font-weight="normal" text-decoration="normal" x="27.64419020000001" y="74.18695406399999" text-anchor="start" dominant-baseline="alphabetic" xml:space="preserve">mutt_index_menu()</text></g><g><path fill="none" stroke="black" paint-order="fill stroke markers" d=" M 7.5393246000000005 80.218413744 L 188.4359445482422 80.218413744" stroke-miterlimit="10" stroke-width="1.2565541" stroke-dasharray=""/><g transform="translate(190.9490527482422,80.218413744) translate(-190.9490527482422,-80.218413744)"><path fill="black" stroke="none" paint-order="stroke fill markers" d=" M 178.3835117482422 73.935643244 L 190.9490527482422 80.218413744 L 178.3835117482422 86.501184244 Z"/></g></g><path fill="#ffffc0" stroke="black" paint-order="fill stroke markers" d=" M 106.39644931541015 99.82065770400001 L 277.0095211010742 99.82065770400001 L 290.5803053810742 113.39144198400001 L 290.5803053810742 134.50155086400002 L 106.39644931541015 134.50155086400002 L 106.39644931541015 99.82065770400001 M 277.0095211010742 99.82065770400001 L 277.0095211010742 113.39144198400001 L 290.5803053810742 113.39144198400001" stroke-miterlimit="10" stroke-width="1.2565541" stroke-dasharray=""/><g><text fill="black" stroke="none" font-family="sans-serif" font-size="11pt" font-style="normal" font-weight="normal" text-decoration="normal" x="127.50655819541015" y="120.93076658400001" text-anchor="start" dominant-baseline="alphabetic" xml:space="preserve">Email list displayed</text></g><g><g><rect fill="white" stroke="none" x="342.38768680867184" y="136.763348244" width="143.32359781175782" height="19.602243960000003"/></g><text fill="black" stroke="none" font-family="sans-serif" font-size="11pt" font-style="normal" font-weight="normal" text-decoration="normal" x="344.64948418867186" y="150.334132524" text-anchor="start" dominant-baseline="alphabetic" xml:space="preserve">km_do_key(INDEX)</text></g><g><path fill="none" stroke="black" paint-order="fill stroke markers" d=" M 206.02770194824217 156.36559220400002 L 619.5581612808593 156.36559220400002" stroke-miterlimit="10" stroke-width="1.2565541" stroke-dasharray=""/><g transform="translate(622.0712694808593,156.36559220400002) translate(-622.0712694808593,-156.36559220400002)"><path fill="black" stroke="none" paint-order="stroke fill markers" d=" M 609.5057284808593 150.08282170400003 L 622.0712694808593 156.36559220400002 L 609.5057284808593 162.64836270400002 Z"/></g></g><g><g><rect fill="white" stroke="none" x="690.5657179189258" y="158.627389584" width="99.81450357347656" height="19.602243960000003"/></g><text fill="black" stroke="none" font-family="sans-serif" font-size="11pt" font-style="normal" font-weight="normal" text-decoration="normal" x="692.8275152989257" y="172.198173864" text-anchor="start" dominant-baseline="alphabetic" xml:space="preserve">mutt_getch()</text></g><g><path fill="none" stroke="black" paint-order="fill stroke markers" d=" M 637.1499186808593 178.22963354400002 L 841.2829125304687 178.22963354400002" stroke-miterlimit="10" stroke-width="1.2565541" stroke-dasharray=""/><g transform="translate(843.7960207304687,178.22963354400002) translate(-843.7960207304687,-178.22963354400002)"><path fill="black" stroke="none" paint-order="stroke fill markers" d=" M 831.2304797304687 171.94686304400003 L 843.7960207304687 178.22963354400002 L 831.2304797304687 184.51240404400002 Z"/></g></g><path fill="#ffffc0" stroke="black" paint-order="fill stroke markers" d=" M 798.379781280791 197.831877504 L 890.7201251001464 197.831877504 L 904.2909093801464 211.402661784 L 904.2909093801464 232.51277066400002 L 798.379781280791 232.51277066400002 L 798.379781280791 197.831877504 M 890.7201251001464 197.831877504 L 890.7201251001464 211.402661784 L 904.2909093801464 211.402661784" stroke-miterlimit="10" stroke-width="1.2565541" stroke-dasharray=""/><g><text fill="black" stroke="none" font-family="sans-serif" font-size="11pt" font-style="normal" font-weight="normal" text-decoration="normal" x="819.489890160791" y="218.94198638400002" text-anchor="start" dominant-baseline="alphabetic" xml:space="preserve">&lt;enter&gt;</text></g><g><g><rect fill="white" stroke="none" x="654.9929869008594" y="234.774568044" width="170.95996560960938" height="19.602243960000003"/></g><text fill="black" stroke="none" font-family="sans-serif" font-size="11pt" font-style="normal" font-weight="normal" text-decoration="normal" x="657.2547842808593" y="248.345352324" text-anchor="start" dominant-baseline="alphabetic" xml:space="preserve">OP_DISPLAY_MESSAGE</text></g><g><path fill="none" stroke="black" paint-order="fill stroke markers" d=" M 843.7960207304687 254.37681200400002 L 639.6630268808593 254.37681200400002" stroke-miterlimit="10" stroke-width="1.2565541" stroke-dasharray="6.03145968"/><g transform="translate(637.1499186808593,254.37681200400002) translate(-637.1499186808593,-254.37681200400002)"><path fill="black" stroke="none" paint-order="stroke fill markers" d=" M 649.7154596808593 248.09404150400002 L 637.1499186808593 254.37681200400002 L 649.7154596808593 260.659582504 Z"/></g></g><g><g><rect fill="white" stroke="none" x="328.56950290974606" y="256.638609384" width="170.95996560960938" height="19.602243960000003"/></g><text fill="black" stroke="none" font-family="sans-serif" font-size="11pt" font-style="normal" font-weight="normal" text-decoration="normal" x="330.8313002897461" y="270.209393664" text-anchor="start" dominant-baseline="alphabetic" xml:space="preserve">OP_DISPLAY_MESSAGE</text></g><g><path fill="none" stroke="black" paint-order="fill stroke markers" d=" M 622.0712694808593 276.240853344 L 208.54081014824217 276.240853344" stroke-miterlimit="10" stroke-width="1.2565541" stroke-dasharray="6.03145968"/><g transform="translate(206.02770194824217,276.240853344) translate(-206.02770194824217,-276.240853344)"><path fill="black" stroke="none" paint-order="stroke fill markers" d=" M 218.59324294824216 269.958082844 L 206.02770194824217 276.240853344 L 218.59324294824216 282.52362384400004 Z"/></g></g><g><g><rect fill="white" stroke="none" x="223.87077016824216" y="326.000395704" width="183.66905679613282" height="19.602243960000003"/></g><text fill="black" stroke="none" font-family="sans-serif" font-size="11pt" font-style="normal" font-weight="normal" text-decoration="normal" x="226.13256754824215" y="339.5711799840001" text-anchor="start" dominant-baseline="alphabetic" xml:space="preserve">mutt_display_message()</text></g><g><path fill="none" stroke="black" paint-order="fill stroke markers" d=" M 206.02770194824217 345.60263966400004 L 422.869786984375 345.60263966400004" stroke-miterlimit="10" stroke-width="1.2565541" stroke-dasharray=""/><g transform="translate(425.382895184375,345.60263966400004) translate(-425.382895184375,-345.60263966400004)"><path fill="black" stroke="none" paint-order="stroke fill markers" d=" M 412.817354184375 339.319869164 L 425.382895184375 345.60263966400004 L 412.817354184375 351.88541016400006 Z"/></g></g><path fill="#ffffc0" stroke="black" paint-order="fill stroke markers" d=" M 323.56665802351563 365.20488362400005 L 528.7069972652343 365.20488362400005 L 542.2777815452343 378.77566790400004 L 542.2777815452343 399.88577678400003 L 323.56665802351563 399.88577678400003 L 323.56665802351563 365.20488362400005 M 528.7069972652343 365.20488362400005 L 528.7069972652343 378.77566790400004 L 542.2777815452343 378.77566790400004" stroke-miterlimit="10" stroke-width="1.2565541" stroke-dasharray=""/><g><text fill="black" stroke="none" font-family="sans-serif" font-size="11pt" font-style="normal" font-weight="normal" text-decoration="normal" x="344.6767669035156" y="386.3149925040001" text-anchor="start" dominant-baseline="alphabetic" xml:space="preserve">First message displayed</text></g><g><g><rect fill="white" stroke="none" x="458.304612604375" y="402.14757416400005" width="145.92358865648438" height="19.602243960000003"/></g><text fill="black" stroke="none" font-family="sans-serif" font-size="11pt" font-style="normal" font-weight="normal" text-decoration="normal" x="460.566409984375" y="415.71835844400005" text-anchor="start" dominant-baseline="alphabetic" xml:space="preserve">km_do_key(PAGER)</text></g><g><path fill="none" stroke="black" paint-order="fill stroke markers" d=" M 440.461544384375 421.74981812400006 L 619.5581612808593 421.74981812400006" stroke-miterlimit="10" stroke-width="1.2565541" stroke-dasharray=""/><g transform="translate(622.0712694808593,421.74981812400006) translate(-622.0712694808593,-421.74981812400006)"><path fill="black" stroke="none" paint-order="stroke fill markers" d=" M 609.5057284808593 415.46704762400003 L 622.0712694808593 421.74981812400006 L 609.5057284808593 428.0325886240001 Z"/></g></g><g><g><rect fill="white" stroke="none" x="690.5657179189258" y="424.0116155040001" width="99.81450357347656" height="19.602243960000003"/></g><text fill="black" stroke="none" font-family="sans-serif" font-size="11pt" font-style="normal" font-weight="normal" text-decoration="normal" x="692.8275152989257" y="437.58239978400013" text-anchor="start" dominant-baseline="alphabetic" xml:space="preserve">mutt_getch()</text></g><g><path fill="none" stroke="black" paint-order="fill stroke markers" d=" M 637.1499186808593 443.6138594640001 L 841.2829125304687 443.6138594640001" stroke-miterlimit="10" stroke-width="1.2565541" stroke-dasharray=""/><g transform="translate(843.7960207304687,443.6138594640001) translate(-843.7960207304687,-443.6138594640001)"><path fill="black" stroke="none" paint-order="stroke fill markers" d=" M 831.2304797304687 437.33108896400006 L 843.7960207304687 443.6138594640001 L 831.2304797304687 449.8966299640001 Z"/></g></g><path fill="#ffffc0" stroke="black" paint-order="fill stroke markers" d=" M 798.1434188235156 463.2161034240001 L 890.9564875574218 463.2161034240001 L 904.5272718374218 476.7868877040001 L 904.5272718374218 497.8969965840001 L 798.1434188235156 497.8969965840001 L 798.1434188235156 463.2161034240001 M 890.9564875574218 463.2161034240001 L 890.9564875574218 476.7868877040001 L 904.5272718374218 476.7868877040001" stroke-miterlimit="10" stroke-width="1.2565541" stroke-dasharray=""/><g><text fill="black" stroke="none" font-family="sans-serif" font-size="11pt" font-style="normal" font-weight="normal" text-decoration="normal" x="819.2535277035156" y="484.32621230400014" text-anchor="start" dominant-baseline="alphabetic" xml:space="preserve">&lt;down&gt;</text></g><g><g><rect fill="white" stroke="none" x="677.4566252065234" y="500.1587939640001" width="126.03268899828124" height="19.602243960000003"/></g><text fill="black" stroke="none" font-family="sans-serif" font-size="11pt" font-style="normal" font-weight="normal" text-decoration="normal" x="679.7184225865234" y="513.7295782440001" text-anchor="start" dominant-baseline="alphabetic" xml:space="preserve">OP_NEXT_ENTRY</text></g><g><path fill="none" stroke="black" paint-order="fill stroke markers" d=" M 843.7960207304687 519.7610379240001 L 639.6630268808593 519.7610379240001" stroke-miterlimit="10" stroke-width="1.2565541" stroke-dasharray="6.03145968"/><g transform="translate(637.1499186808593,519.7610379240001) translate(-637.1499186808593,-519.7610379240001)"><path fill="black" stroke="none" paint-order="stroke fill markers" d=" M 649.7154596808593 513.4782674240001 L 637.1499186808593 519.7610379240001 L 649.7154596808593 526.0438084240001 Z"/></g></g><g><g><rect fill="white" stroke="none" x="468.25006243347656" y="522.0228353040001" width="126.03268899828124" height="19.602243960000003"/></g><text fill="black" stroke="none" font-family="sans-serif" font-size="11pt" font-style="normal" font-weight="normal" text-decoration="normal" x="470.5118598134766" y="535.5936195840001" text-anchor="start" dominant-baseline="alphabetic" xml:space="preserve">OP_NEXT_ENTRY</text></g><g><path fill="none" stroke="black" paint-order="fill stroke markers" d=" M 622.0712694808593 541.6250792640001 L 442.97465258437495 541.6250792640001" stroke-miterlimit="10" stroke-width="1.2565541" stroke-dasharray="6.03145968"/><g transform="translate(440.461544384375,541.6250792640001) translate(-440.461544384375,-541.6250792640001)"><path fill="black" stroke="none" paint-order="stroke fill markers" d=" M 453.02708538437497 535.3423087640001 L 440.461544384375 541.6250792640001 L 453.02708538437497 547.907849764 Z"/></g></g><g><g><rect fill="white" stroke="none" x="252.68895406716794" y="543.886876644" width="126.03268899828124" height="19.602243960000003"/></g><text fill="black" stroke="none" font-family="sans-serif" font-size="11pt" font-style="normal" font-weight="normal" text-decoration="normal" x="254.95075144716793" y="557.457660924" text-anchor="start" dominant-baseline="alphabetic" xml:space="preserve">OP_NEXT_ENTRY</text></g><g><path fill="none" stroke="black" paint-order="fill stroke markers" d=" M 425.382895184375 563.489120604 L 208.54081014824217 563.489120604" stroke-miterlimit="10" stroke-width="1.2565541" stroke-dasharray="6.03145968"/><g transform="translate(206.02770194824217,563.489120604) translate(-206.02770194824217,-563.489120604)"><path fill="black" stroke="none" paint-order="stroke fill markers" d=" M 218.59324294824216 557.2063501040001 L 206.02770194824217 563.489120604 L 218.59324294824216 569.771891104 Z"/></g></g><g><g><rect fill="white" stroke="none" x="223.87077016824216" y="613.248662964" width="183.66905679613282" height="19.602243960000003"/></g><text fill="black" stroke="none" font-family="sans-serif" font-size="11pt" font-style="normal" font-weight="normal" text-decoration="normal" x="226.13256754824215" y="626.819447244" text-anchor="start" dominant-baseline="alphabetic" xml:space="preserve">mutt_display_message()</text></g><g><path fill="none" stroke="black" paint-order="fill stroke markers" d=" M 206.02770194824217 632.850906924 L 422.869786984375 632.850906924" stroke-miterlimit="10" stroke-width="1.2565541" stroke-dasharray=""/><g transform="translate(425.382895184375,632.850906924) translate(-425.382895184375,-632.850906924)"><path fill="black" stroke="none" paint-order="stroke fill markers" d=" M 412.817354184375 626.568136424 L 425.382895184375 632.850906924 L 412.817354184375 639.133677424 Z"/></g></g><path fill="#ffffc0" stroke="black" paint-order="fill stroke markers" d=" M 312.0030212437305 652.4531508840001 L 540.2706340450195 652.4531508840001 L 553.8414183250195 666.0239351640001 L 553.8414183250195 687.1340440440001 L 312.0030212437305 687.1340440440001 L 312.0030212437305 652.4531508840001 M 540.2706340450195 652.4531508840001 L 540.2706340450195 666.0239351640001 L 553.8414183250195 666.0239351640001" stroke-miterlimit="10" stroke-width="1.2565541" stroke-dasharray=""/><g><text fill="black" stroke="none" font-family="sans-serif" font-size="11pt" font-style="normal" font-weight="normal" text-decoration="normal" x="333.11313012373046" y="673.5632597640001" text-anchor="start" dominant-baseline="alphabetic" xml:space="preserve">Second message displayed</text></g></g></g></svg>