<svg version="1.1" xmlns="http://www.w3.org/2000/svg" xmlns:xlink="http://www.w3.org/1999/xlink" width="632" height="658"><defs/><g><g/><g/><g/><g/><g/><g/><g/><g/><g/><g/><g/><g/><g/><g/><g/><g/><g/><g/><g><rect fill="white" stroke="none" x="0" y="0" width="632" height="658"/></g><g><rect fill="rgb(239,255,255)" stroke="none" x="15.078649200000001" y="93.03526556399999" width="602.6196470595565" height="512.6740728"/></g><g><path fill="none" stroke="black" paint-order="fill stroke markers" d=" M 75.393246 50.815047804 L 75.393246 658.484610564" stroke-miterlimit="10" stroke-width="1.2565541" stroke-dasharray="11.598960923076923,5.0262164"/><path fill="none" stroke="black" paint-order="fill stroke markers" d=" M 225.97253521347656 50.815047804 L 225.97253521347656 658.484610564" stroke-miterlimit="10" stroke-width="1.2565541" stroke-dasharray="11.598960923076923,5.0262164"/><path fill="none" stroke="black" paint-order="fill stroke markers" d=" M 319.40821716063084 50.815047804 L 319.40821716063084 658.484610564" stroke-miterlimit="10" stroke-width="1.2565541" stroke-dasharray="11.598960923076923,5.0262164"/><path fill="none" stroke="black" paint-order="fill stroke markers" d=" M 460.00568722127537 50.815047804 L 460.00568722127537 658.484610564" stroke-miterlimit="10" stroke-width="1.2565541" stroke-dasharray="11.598960923076923,5.0262164"/></g><g><path fill="none" stroke="none"/><g><path fill="white" stroke="black" paint-order="fill stroke markers" d=" M 41.53291161800001 10.253481456000003 L 109.253580382 10.253481456000003 L 109.253580382 50.815047804 L 41.53291161800001 50.815047804 L 41.53291161800001 10.253481456000003 Z" stroke-miterlimit="10" stroke-width="2.4125838720000004" stroke-dasharray=""/></g><g><text fill="black" stroke="none" font-family="sans-serif" font-size="11pt" font-style="normal" font-weight="normal" text-decoration="normal" x="57.893246000000005" y="35.736398604" text-anchor="start" dominant-baseline="alphabetic" xml:space="preserve">Main</text></g><path fill="none" stroke="none"/><g><path fill="white" stroke="black" paint-order="fill stroke markers" d=" M 192.89401922136915 10.253481456000003 L 259.051051205584 10.253481456000003 L 259.051051205584 50.815047804 L 192.89401922136915 50.815047804 L 192.89401922136915 10.253481456000003 Z" stroke-miterlimit="10" stroke-width="2.4125838720000004" stroke-dasharray=""/></g><g><text fill="black" stroke="none" font-family="sans-serif" font-size="11pt" font-style="normal" font-weight="normal" text-decoration="normal" x="209.25435360336914" y="35.736398604" text-anchor="start" dominant-baseline="alphabetic" xml:space="preserve">User</text></g><path fill="none" stroke="none"/><g><path fill="white" stroke="black" paint-order="fill stroke markers" d=" M 274.12970040558395 10.253481456000003 L 364.6867339156777 10.253481456000003 L 364.6867339156777 50.815047804 L 274.12970040558395 50.815047804 L 274.12970040558395 10.253481456000003 Z" stroke-miterlimit="10" stroke-width="2.4125838720000004" stroke-dasharray=""/></g><g><text fill="black" stroke="none" font-family="sans-serif" font-size="11pt" font-style="normal" font-weight="normal" text-decoration="normal" x="290.49003478758397" y="35.736398604" text-anchor="start" dominant-baseline="alphabetic" xml:space="preserve">Window</text></g><path fill="none" stroke="none"/><g><path fill="white" stroke="black" paint-order="fill stroke markers" d=" M 420.2908072460136 10.253481456000003 L 499.72056719653705 10.253481456000003 L 499.72056719653705 50.815047804 L 420.2908072460136 50.815047804 L 420.2908072460136 10.253481456000003 Z" stroke-miterlimit="10" stroke-width="2.4125838720000004" stroke-dasharray=""/></g><g><text fill="black" stroke="none" font-family="sans-serif" font-size="11pt" font-style="normal" font-weight="normal" text-decoration="normal" x="436.65114162801365" y="35.736398604" text-anchor="start" dominant-baseline="alphabetic" xml:space="preserve">Dialog</text></g></g><g><path fill="white" stroke="black" paint-order="fill stroke markers" d=" M 67.8539214 58.354372404 L 82.9325706 58.354372404 L 82.9325706 643.4059613640001 L 67.8539214 643.4059613640001 L 67.8539214 58.354372404" stroke-miterlimit="10" stroke-width="1.2565541" stroke-dasharray=""/><path fill="white" stroke="black" paint-order="fill stroke markers" d=" M 452.4663626212754 58.354372404 L 467.54501182127535 58.354372404 L 467.54501182127535 643.4059613640001 L 452.4663626212754 643.4059613640001 L 452.4663626212754 58.354372404" stroke-miterlimit="10" stroke-width="1.2565541" stroke-dasharray=""/><path fill="white" stroke="black" paint-order="fill stroke markers" d=" M 311.86889256063085 187.27682306399998 L 326.9475417606308 187.27682306399998 L 326.9475417606308 272.471191044 L 311.86889256063085 272.471191044 L 311.86889256063085 187.27682306399998" stroke-miterlimit="10" stroke-width="1.2565541" stroke-dasharray=""/><path fill="white" stroke="black" paint-order="fill stroke markers" d=" M 218.43321061347655 294.33523238400005 L 233.51185981347658 294.33523238400005 L 233.51185981347658 370.48241084400007 L 218.43321061347655 370.48241084400007 L 218.43321061347655 294.33523238400005" stroke-miterlimit="10" stroke-width="1.2565541" stroke-dasharray=""/><path fill="white" stroke="black" paint-order="fill stroke markers" d=" M 311.86889256063085 409.6868987640001 L 326.9475417606308 409.6868987640001 L 326.9475417606308 473.0172254040001 L 311.86889256063085 473.0172254040001 L 311.86889256063085 409.6868987640001" stroke-miterlimit="10" stroke-width="1.2565541" stroke-dasharray=""/><path fill="#ffffc0" stroke="black" paint-order="fill stroke markers" d=" M 404.9683055446445 130.73188856399997 L 501.4722846179062 130.73188856399997 L 515.0430688979062 144.30267284399997 L 515.0430688979062 165.41278172399998 L 404.9683055446445 165.41278172399998 L 404.9683055446445 130.73188856399997 M 501.4722846179062 130.73188856399997 L 501.4722846179062 144.30267284399997 L 515.0430688979062 144.30267284399997" stroke-miterlimit="10" stroke-width="1.2565541" stroke-dasharray=""/><g><text fill="black" stroke="none" font-family="sans-serif" font-size="11pt" font-style="normal" font-weight="normal" text-decoration="normal" x="426.0784144246445" y="151.841997444" text-anchor="start" dominant-baseline="alphabetic" xml:space="preserve">Focussed</text></g><g><g><rect fill="rgb(239,255,255)" stroke="none" x="163.88438898852345" y="167.67457910399997" width="67.03268518358398" height="19.602243960000003"/></g><text fill="black" stroke="none" font-family="sans-serif" font-size="11pt" font-style="normal" font-weight="normal" text-decoration="normal" x="166.14618636852344" y="181.24536338399997" text-anchor="start" dominant-baseline="alphabetic" xml:space="preserve">redraw()</text></g><g><path fill="none" stroke="black" paint-order="fill stroke markers" d=" M 82.9325706 187.27682306399998 L 309.3557843606309 187.27682306399998" stroke-miterlimit="10" stroke-width="1.2565541" stroke-dasharray=""/><g transform="translate(311.86889256063085,187.27682306399998) translate(-311.86889256063085,-187.27682306399998)"><path fill="black" stroke="none" paint-order="stroke fill markers" d=" M 299.30335156063086 180.994052564 L 311.86889256063085 187.27682306399998 L 299.30335156063086 193.55959356399998 Z"/></g></g><g><g><rect fill="rgb(239,255,255)" stroke="none" x="344.7906099806308" y="189.538620444" width="60.92359628587891" height="19.602243960000003"/></g><text fill="black" stroke="none" font-family="sans-serif" font-size="11pt" font-style="normal" font-weight="normal" text-decoration="normal" x="347.0524073606308" y="203.109404724" text-anchor="start" dominant-baseline="alphabetic" xml:space="preserve">reflow()</text></g><g><path fill="none" stroke="black" paint-order="fill stroke markers" d=" M 326.9475417606308 209.14086440399998 L 387.26213856063083 209.14086440399998 L 387.26213856063083 228.743108364 L 329.4606499606308 228.743108364" stroke-miterlimit="10" stroke-width="1.2565541" stroke-dasharray=""/><g transform="translate(326.9475417606308,228.743108364) translate(-326.9475417606308,-228.743108364)"><path fill="black" stroke="none" paint-order="stroke fill markers" d=" M 339.5130827606308 222.460337864 L 326.9475417606308 228.743108364 L 339.5130827606308 235.025878864 Z"/></g></g><g><g><rect fill="rgb(239,255,255)" stroke="none" x="359.7542463789462" y="231.00490574399998" width="59.905411624013674" height="19.602243960000003"/></g><text fill="black" stroke="none" font-family="sans-serif" font-size="11pt" font-style="normal" font-weight="normal" text-decoration="normal" x="362.01604375894624" y="244.57569002399998" text-anchor="start" dominant-baseline="alphabetic" xml:space="preserve">recalc()</text></g><g><path fill="none" stroke="black" paint-order="fill stroke markers" d=" M 326.9475417606308 250.607149704 L 449.9532544212754 250.607149704" stroke-miterlimit="10" stroke-width="1.2565541" stroke-dasharray=""/><g transform="translate(452.4663626212754,250.607149704) translate(-452.4663626212754,-250.607149704)"><path fill="black" stroke="none" paint-order="stroke fill markers" d=" M 439.9008216212754 244.324379204 L 452.4663626212754 250.607149704 L 439.9008216212754 256.889920204 Z"/></g></g><g><g><rect fill="rgb(239,255,255)" stroke="none" x="355.6542459974765" y="252.868947084" width="68.10541238695312" height="19.602243960000003"/></g><text fill="black" stroke="none" font-family="sans-serif" font-size="11pt" font-style="normal" font-weight="normal" text-decoration="normal" x="357.9160433774765" y="266.439731364" text-anchor="start" dominant-baseline="alphabetic" xml:space="preserve">repaint()</text></g><g><path fill="none" stroke="black" paint-order="fill stroke markers" d=" M 326.9475417606308 272.471191044 L 449.9532544212754 272.471191044" stroke-miterlimit="10" stroke-width="1.2565541" stroke-dasharray=""/><g transform="translate(452.4663626212754,272.471191044) translate(-452.4663626212754,-272.471191044)"><path fill="black" stroke="none" paint-order="stroke fill markers" d=" M 439.9008216212754 266.188420544 L 452.4663626212754 272.471191044 L 439.9008216212754 278.75396154400005 Z"/></g></g><g><g><rect fill="rgb(239,255,255)" stroke="none" x="100.77563882" y="274.73298842400004" width="99.81450357347656" height="19.602243960000003"/></g><text fill="black" stroke="none" font-family="sans-serif" font-size="11pt" font-style="normal" font-weight="normal" text-decoration="normal" x="103.0374362" y="288.30377270400004" text-anchor="start" dominant-baseline="alphabetic" xml:space="preserve">mutt_getch()</text></g><g><path fill="none" stroke="black" paint-order="fill stroke markers" d=" M 82.9325706 294.33523238400005 L 215.92010241347654 294.33523238400005" stroke-miterlimit="10" stroke-width="1.2565541" stroke-dasharray=""/><g transform="translate(218.43321061347655,294.33523238400005) translate(-218.43321061347655,-294.33523238400005)"><path fill="black" stroke="none" paint-order="stroke fill markers" d=" M 205.86766961347655 288.052461884 L 218.43321061347655 294.33523238400005 L 205.86766961347655 300.6180028840001 Z"/></g></g><path fill="#ffffc0" stroke="black" paint-order="fill stroke markers" d=" M 162.53515201096678 313.93747634400006 L 275.83913413598634 313.93747634400006 L 289.40991841598634 327.50826062400006 L 289.40991841598634 348.61836950400004 L 162.53515201096678 348.61836950400004 L 162.53515201096678 313.93747634400006 M 275.83913413598634 313.93747634400006 L 275.83913413598634 327.50826062400006 L 289.40991841598634 327.50826062400006" stroke-miterlimit="10" stroke-width="1.2565541" stroke-dasharray=""/><g><text fill="black" stroke="none" font-family="sans-serif" font-size="11pt" font-style="normal" font-weight="normal" text-decoration="normal" x="183.6452608909668" y="335.04758522400004" text-anchor="start" dominant-baseline="alphabetic" xml:space="preserve">Pressed: 'X'</text></g><g><g><rect fill="rgb(239,255,255)" stroke="none" x="139.35745644695314" y="350.88016688400006" width="22.650868319570314" height="19.602243960000003"/></g><text fill="black" stroke="none" font-family="sans-serif" font-size="11pt" font-style="normal" font-weight="normal" text-decoration="normal" x="141.61925382695313" y="364.4509511640001" text-anchor="start" dominant-baseline="alphabetic" xml:space="preserve">'X'</text></g><g><path fill="none" stroke="black" paint-order="fill stroke markers" d=" M 218.43321061347655 370.48241084400007 L 85.44567880000001 370.48241084400007" stroke-miterlimit="10" stroke-width="1.2565541" stroke-dasharray="6.03145968"/><g transform="translate(82.9325706,370.48241084400007) translate(-82.9325706,-370.48241084400007)"><path fill="black" stroke="none" paint-order="stroke fill markers" d=" M 95.4981116 364.19964034400004 L 82.9325706 370.48241084400007 L 95.4981116 376.7651813440001 Z"/></g></g><g><g><rect fill="rgb(239,255,255)" stroke="none" x="152.48438936999318" y="390.0846548040001" width="89.83268442064453" height="19.602243960000003"/></g><text fill="black" stroke="none" font-family="sans-serif" font-size="11pt" font-style="normal" font-weight="normal" text-decoration="normal" x="154.74618674999317" y="403.65543908400014" text-anchor="start" dominant-baseline="alphabetic" xml:space="preserve">win.key('X')</text></g><g><path fill="none" stroke="black" paint-order="fill stroke markers" d=" M 82.9325706 409.6868987640001 L 309.3557843606309 409.6868987640001" stroke-miterlimit="10" stroke-width="1.2565541" stroke-dasharray=""/><g transform="translate(311.86889256063085,409.6868987640001) translate(-311.86889256063085,-409.6868987640001)"><path fill="black" stroke="none" paint-order="stroke fill markers" d=" M 299.30335156063086 403.40412826400006 L 311.86889256063085 409.6868987640001 L 299.30335156063086 415.9696692640001 Z"/></g></g><g><g><rect fill="rgb(239,255,255)" stroke="none" x="344.7906099806308" y="411.94869614400005" width="86.52359476" height="19.602243960000003"/></g><text fill="black" stroke="none" font-family="sans-serif" font-size="11pt" font-style="normal" font-weight="normal" text-decoration="normal" x="347.0524073606308" y="425.5194804240001" text-anchor="start" dominant-baseline="alphabetic" xml:space="preserve">get_focus()</text></g><g><path fill="none" stroke="black" paint-order="fill stroke markers" d=" M 326.9475417606308 431.55094010400006 L 387.26213856063083 431.55094010400006 L 387.26213856063083 451.1531840640001 L 329.4606499606308 451.1531840640001" stroke-miterlimit="10" stroke-width="1.2565541" stroke-dasharray=""/><g transform="translate(326.9475417606308,451.1531840640001) translate(-326.9475417606308,-451.1531840640001)"><path fill="black" stroke="none" paint-order="stroke fill markers" d=" M 339.5130827606308 444.87041356400005 L 326.9475417606308 451.1531840640001 L 339.5130827606308 457.4359545640001 Z"/></g></g><g><g><rect fill="rgb(239,255,255)" stroke="none" x="344.7906099806308" y="453.4149814440001" width="89.83268442064453" height="19.602243960000003"/></g><text fill="black" stroke="none" font-family="sans-serif" font-size="11pt" font-style="normal" font-weight="normal" text-decoration="normal" x="347.0524073606308" y="466.9857657240001" text-anchor="start" dominant-baseline="alphabetic" xml:space="preserve">win.key('X')</text></g><g><path fill="none" stroke="black" paint-order="fill stroke markers" d=" M 326.9475417606308 473.0172254040001 L 449.9532544212754 473.0172254040001" stroke-miterlimit="10" stroke-width="1.2565541" stroke-dasharray=""/><g transform="translate(452.4663626212754,473.0172254040001) translate(-452.4663626212754,-473.0172254040001)"><path fill="black" stroke="none" paint-order="stroke fill markers" d=" M 439.9008216212754 466.7344549040001 L 452.4663626212754 473.0172254040001 L 439.9008216212754 479.2999959040001 Z"/></g></g><g><g><rect fill="rgb(239,255,255)" stroke="none" x="485.3880800412753" y="475.27902278400006" width="87.72359170824218" height="19.602243960000003"/></g><g><rect fill="rgb(239,255,255)" stroke="none" x="485.3880800412753" y="490.35767198400004" width="88.08723153978515" height="19.602243960000003"/></g><text fill="black" stroke="none" font-family="sans-serif" font-size="11pt" font-style="normal" font-weight="normal" text-decoration="normal" x="487.64987742127533" y="488.84980706400006" text-anchor="start" dominant-baseline="alphabetic" xml:space="preserve">lookup('X'):</text><text fill="black" stroke="none" font-family="sans-serif" font-size="11pt" font-style="normal" font-weight="normal" text-decoration="normal" x="487.64987742127533" y="503.92845626400003" text-anchor="start" dominant-baseline="alphabetic" xml:space="preserve">OP_ACTION</text></g><g><path fill="none" stroke="black" paint-order="fill stroke markers" d=" M 467.54501182127535 509.95991594400004 L 527.8596086212754 509.95991594400004 L 527.8596086212754 529.562159904 L 470.05812002127533 529.562159904" stroke-miterlimit="10" stroke-width="1.2565541" stroke-dasharray=""/><g transform="translate(467.54501182127535,529.562159904) translate(-467.54501182127535,-529.562159904)"><path fill="black" stroke="none" paint-order="stroke fill markers" d=" M 480.11055282127535 523.2793894040001 L 467.54501182127535 529.562159904 L 480.11055282127535 535.844930404 Z"/></g></g><g><g><rect fill="rgb(239,255,255)" stroke="none" x="485.3880800412753" y="531.823957284" width="127.03268899828124" height="19.602243960000003"/></g><text fill="black" stroke="none" font-family="sans-serif" font-size="11pt" font-style="normal" font-weight="normal" text-decoration="normal" x="487.64987742127533" y="545.394741564" text-anchor="start" dominant-baseline="alphabetic" xml:space="preserve">perform_action()</text></g><g><path fill="none" stroke="black" paint-order="fill stroke markers" d=" M 467.54501182127535 551.426201244 L 527.8596086212754 551.426201244 L 527.8596086212754 571.028445204 L 470.05812002127533 571.028445204" stroke-miterlimit="10" stroke-width="1.2565541" stroke-dasharray=""/><g transform="translate(467.54501182127535,571.028445204) translate(-467.54501182127535,-571.028445204)"><path fill="black" stroke="none" paint-order="stroke fill markers" d=" M 480.11055282127535 564.7456747040001 L 467.54501182127535 571.028445204 L 480.11055282127535 577.311215704 Z"/></g></g><g><g/><path fill="none" stroke="black" paint-order="fill stroke markers" d=" M 15.078649200000001 93.03526556399999 L 617.6982962595565 93.03526556399999 L 617.6982962595565 605.7093383639999 L 15.078649200000001 605.7093383639999 L 15.078649200000001 93.03526556399999 Z" stroke-miterlimit="10" stroke-width="2.154092742857143" stroke-dasharray=""/><path fill="#b0ffff" stroke="black" paint-order="fill stroke markers" d=" M 15.078649200000001 93.03526556399999 L 15.078649200000001 111.12964460399999 L 73.76322077810059 111.12964460399999 L 82.81041029810059 102.08245508399999 L 82.81041029810059 93.03526556399999 L 15.078649200000001 93.03526556399999" stroke-miterlimit="10" stroke-width="2.154092742857143" stroke-dasharray=""/><text fill="black" stroke="none" font-family="sans-serif" font-size="8.8pt" font-style="normal" font-weight="bold" text-decoration="normal" x="30.157298400000002" y="105.098184924" text-anchor="start" dominant-baseline="alphabetic" xml:space="preserve">loop</text><text fill="black" stroke="none" font-family="sans-serif" font-size="8.8pt" font-style="normal" font-weight="bold" text-decoration="normal" x="97.8890594981006" y="105.098184924" text-anchor="start" dominant-baseline="alphabetic" xml:space="preserve">[Event Loop]</text></g></g></g></svg>