<svg version="1.1" xmlns="http://www.w3.org/2000/svg" xmlns:xlink="http://www.w3.org/1999/xlink" width="949" height="1977"><defs/><g><g/><g/><g/><g/><g/><g/><g/><g/><g/><g/><g/><g/><g/><g/><g/><g/><g/><g/><g/><g/><g/><g/><g/><g/><g/><g/><g/><g/><g/><g/><g/><g/><g/><g/><g/><g/><g/><g/><g/><g/><g/><g/><g/><g/><g/><g/><g/><g/><g/><g/><g/><g/><g/><g/><g/><g/><g/><g/><g><rect fill="white" stroke="none" x="0" y="0" width="949" height="1977"/></g><g><rect fill="rgb(239,255,255)" stroke="none" x="15.078649200000001" y="114.89930690399999" width="919.4836776071678" height="1809.4379040000003"/></g><g><path fill="none" stroke="black" paint-order="fill stroke markers" d=" M 97.51286016085938 50.815047804 L 97.51286016085938 1977.1124831040004" stroke-miterlimit="10" stroke-width="1.2565541" stroke-dasharray="11.598960923076923,5.0262164"/><path fill="none" stroke="black" paint-order="fill stroke markers" d=" M 248.09214937433592 50.815047804 L 248.09214937433592 1977.1124831040004" stroke-miterlimit="10" stroke-width="1.2565541" stroke-dasharray="11.598960923076923,5.0262164"/><path fill="none" stroke="black" paint-order="fill stroke markers" d=" M 360.9656864610742 50.815047804 L 360.9656864610742 1977.1124831040004" stroke-miterlimit="10" stroke-width="1.2565541" stroke-dasharray="11.598960923076923,5.0262164"/><path fill="none" stroke="black" paint-order="fill stroke markers" d=" M 555.1995166901758 50.815047804 L 555.1995166901758 1977.1124831040004" stroke-miterlimit="10" stroke-width="1.2565541" stroke-dasharray="11.598960923076923,5.0262164"/><path fill="none" stroke="black" paint-order="fill stroke markers" d=" M 789.6333591263085 50.815047804 L 789.6333591263085 1977.1124831040004" stroke-miterlimit="10" stroke-width="1.2565541" stroke-dasharray="11.598960923076923,5.0262164"/></g><g><path fill="none" stroke="none"/><g><path fill="white" stroke="black" paint-order="fill stroke markers" d=" M 63.65252577885938 10.253481456000003 L 131.37319454285938 10.253481456000003 L 131.37319454285938 50.815047804 L 63.65252577885938 50.815047804 L 63.65252577885938 10.253481456000003 Z" stroke-miterlimit="10" stroke-width="2.4125838720000004" stroke-dasharray=""/></g><g><text fill="black" stroke="none" font-family="sans-serif" font-size="11pt" font-style="normal" font-weight="normal" text-decoration="normal" x="80.01286016085938" y="35.736398604" text-anchor="start" dominant-baseline="alphabetic" xml:space="preserve">Main</text></g><path fill="none" stroke="none"/><g><path fill="white" stroke="black" paint-order="fill stroke markers" d=" M 215.0136333822285 10.253481456000003 L 281.17066536644336 10.253481456000003 L 281.17066536644336 50.815047804 L 215.0136333822285 50.815047804 L 215.0136333822285 10.253481456000003 Z" stroke-miterlimit="10" stroke-width="2.4125838720000004" stroke-dasharray=""/></g><g><text fill="black" stroke="none" font-family="sans-serif" font-size="11pt" font-style="normal" font-weight="normal" text-decoration="normal" x="231.3739677642285" y="35.736398604" text-anchor="start" dominant-baseline="alphabetic" xml:space="preserve">User</text></g><path fill="none" stroke="none"/><g><path fill="white" stroke="black" paint-order="fill stroke markers" d=" M 315.6871697060273 10.253481456000003 L 406.24420321612104 10.253481456000003 L 406.24420321612104 50.815047804 L 315.6871697060273 50.815047804 L 315.6871697060273 10.253481456000003 Z" stroke-miterlimit="10" stroke-width="2.4125838720000004" stroke-dasharray=""/></g><g><text fill="black" stroke="none" font-family="sans-serif" font-size="11pt" font-style="normal" font-weight="normal" text-decoration="normal" x="332.0475040880273" y="35.736398604" text-anchor="start" dominant-baseline="alphabetic" xml:space="preserve">Window</text></g><path fill="none" stroke="none"/><g><path fill="white" stroke="black" paint-order="fill stroke markers" d=" M 518.6482738761689 10.253481456000003 L 591.7507595041826 10.253481456000003 L 591.7507595041826 50.815047804 L 518.6482738761689 50.815047804 L 518.6482738761689 10.253481456000003 Z" stroke-miterlimit="10" stroke-width="2.4125838720000004" stroke-dasharray=""/></g><g><text fill="black" stroke="none" font-family="sans-serif" font-size="11pt" font-style="normal" font-weight="normal" text-decoration="normal" x="535.0086082581689" y="35.736398604" text-anchor="start" dominant-baseline="alphabetic" xml:space="preserve">Index</text></g><path fill="none" stroke="none"/><g><path fill="white" stroke="black" paint-order="fill stroke markers" d=" M 752.5093891089325 10.253481456000003 L 826.7573291436845 10.253481456000003 L 826.7573291436845 50.815047804 L 752.5093891089325 50.815047804 L 752.5093891089325 10.253481456000003 Z" stroke-miterlimit="10" stroke-width="2.4125838720000004" stroke-dasharray=""/></g><g><text fill="black" stroke="none" font-family="sans-serif" font-size="11pt" font-style="normal" font-weight="normal" text-decoration="normal" x="768.8697234909325" y="35.736398604" text-anchor="start" dominant-baseline="alphabetic" xml:space="preserve">Pager</text></g></g><g><path fill="white" stroke="black" paint-order="fill stroke markers" d=" M 89.97353556085937 58.354372404 L 105.05218476085938 58.354372404 L 105.05218476085938 1889.6563177440005 L 89.97353556085937 1889.6563177440005 L 89.97353556085937 58.354372404" stroke-miterlimit="10" stroke-width="1.2565541" stroke-dasharray=""/><path fill="white" stroke="black" paint-order="fill stroke markers" d=" M 547.6601920901758 80.218413744 L 562.7388412901757 80.218413744 L 562.7388412901757 1820.2945314240005 L 547.6601920901758 1820.2945314240005 L 547.6601920901758 80.218413744" stroke-miterlimit="10" stroke-width="1.2565541" stroke-dasharray=""/><path fill="white" stroke="black" paint-order="fill stroke markers" d=" M 353.4263618610742 292.07343500400003 L 368.5050110610742 292.07343500400003 L 368.5050110610742 377.26780298400007 L 353.4263618610742 377.26780298400007 L 353.4263618610742 292.07343500400003" stroke-miterlimit="10" stroke-width="1.2565541" stroke-dasharray=""/><path fill="white" stroke="black" paint-order="fill stroke markers" d=" M 240.55282477433593 399.1318443240001 L 255.6314739743359 399.1318443240001 L 255.6314739743359 475.2790227840001 L 240.55282477433593 475.2790227840001 L 240.55282477433593 399.1318443240001" stroke-miterlimit="10" stroke-width="1.2565541" stroke-dasharray=""/><path fill="white" stroke="black" paint-order="fill stroke markers" d=" M 353.4263618610742 514.4835107040001 L 368.5050110610742 514.4835107040001 L 368.5050110610742 577.813837344 L 353.4263618610742 577.813837344 L 353.4263618610742 514.4835107040001" stroke-miterlimit="10" stroke-width="1.2565541" stroke-dasharray=""/><path fill="white" stroke="black" paint-order="fill stroke markers" d=" M 782.0940345263085 673.563259764 L 797.1726837263085 673.563259764 L 797.1726837263085 1336.269892104 L 782.0940345263085 1336.269892104 L 782.0940345263085 673.563259764" stroke-miterlimit="10" stroke-width="1.2565541" stroke-dasharray=""/><path fill="white" stroke="black" paint-order="fill stroke markers" d=" M 353.4263618610742 832.643008824 L 368.5050110610742 832.643008824 L 368.5050110610742 978.905906064 L 353.4263618610742 978.905906064 L 353.4263618610742 832.643008824" stroke-miterlimit="10" stroke-width="1.2565541" stroke-dasharray=""/><path fill="white" stroke="black" paint-order="fill stroke markers" d=" M 240.55282477433593 1018.110393984 L 255.6314739743359 1018.110393984 L 255.6314739743359 1094.257572444 L 240.55282477433593 1094.257572444 L 240.55282477433593 1018.110393984" stroke-miterlimit="10" stroke-width="1.2565541" stroke-dasharray=""/><path fill="white" stroke="black" paint-order="fill stroke markers" d=" M 353.4263618610742 1133.462060364 L 368.5050110610742 1133.462060364 L 368.5050110610742 1196.7923870040001 L 353.4263618610742 1196.7923870040001 L 353.4263618610742 1133.462060364" stroke-miterlimit="10" stroke-width="1.2565541" stroke-dasharray=""/><path fill="white" stroke="black" paint-order="fill stroke markers" d=" M 353.4263618610742 1395.0766239840002 L 368.5050110610742 1395.0766239840002 L 368.5050110610742 1480.2709919640004 L 353.4263618610742 1480.2709919640004 L 353.4263618610742 1395.0766239840002" stroke-miterlimit="10" stroke-width="1.2565541" stroke-dasharray=""/><path fill="white" stroke="black" paint-order="fill stroke markers" d=" M 240.55282477433593 1502.1350333040004 L 255.6314739743359 1502.1350333040004 L 255.6314739743359 1578.2822117640005 L 240.55282477433593 1578.2822117640005 L 240.55282477433593 1502.1350333040004" stroke-miterlimit="10" stroke-width="1.2565541" stroke-dasharray=""/><path fill="white" stroke="black" paint-order="fill stroke markers" d=" M 353.4263618610742 1617.4866996840005 L 368.5050110610742 1617.4866996840005 L 368.5050110610742 1680.8170263240006 L 353.4263618610742 1680.8170263240006 L 353.4263618610742 1617.4866996840005" stroke-miterlimit="10" stroke-width="1.2565541" stroke-dasharray=""/><g><g><rect fill="white" stroke="none" x="252.49439257139645" y="60.616169784" width="147.7235917082422" height="19.602243960000003"/></g><text fill="black" stroke="none" font-family="sans-serif" font-size="11pt" font-style="normal" font-weight="normal" text-decoration="normal" x="254.75618995139644" y="74.18695406399999" text-anchor="start" dominant-baseline="alphabetic" xml:space="preserve">mutt_index_menu()</text></g><g><path fill="none" stroke="black" paint-order="fill stroke markers" d=" M 105.05218476085938 80.218413744 L 545.1470838901757 80.218413744" stroke-miterlimit="10" stroke-width="1.2565541" stroke-dasharray=""/><g transform="translate(547.6601920901758,80.218413744) translate(-547.6601920901758,-80.218413744)"><path fill="black" stroke="none" paint-order="stroke fill markers" d=" M 535.0946510901757 73.935643244 L 547.6601920901758 80.218413744 L 535.0946510901757 86.501184244 Z"/></g></g><g><g><rect fill="rgb(239,255,255)" stroke="none" x="580.5819095101758" y="135.255483324" width="92.5781373015039" height="19.602243960000003"/></g><text fill="black" stroke="none" font-family="sans-serif" font-size="11pt" font-style="normal" font-weight="normal" text-decoration="normal" x="582.8437068901758" y="148.826267604" text-anchor="start" dominant-baseline="alphabetic" xml:space="preserve">set_visible()</text></g><g><path fill="none" stroke="black" paint-order="fill stroke markers" d=" M 562.7388412901757 154.857727284 L 623.0534380901757 154.857727284 L 623.0534380901757 174.459971244 L 565.2519494901758 174.459971244" stroke-miterlimit="10" stroke-width="1.2565541" stroke-dasharray=""/><g transform="translate(562.7388412901757,174.459971244) translate(-562.7388412901757,-174.459971244)"><path fill="black" stroke="none" paint-order="stroke fill markers" d=" M 575.3043822901758 168.177200744 L 562.7388412901757 174.459971244 L 575.3043822901758 180.742741744 Z"/></g></g><g><g><rect fill="rgb(239,255,255)" stroke="none" x="580.5819095101758" y="176.721768624" width="84.8508652678125" height="19.602243960000003"/></g><text fill="black" stroke="none" font-family="sans-serif" font-size="11pt" font-style="normal" font-weight="normal" text-decoration="normal" x="582.8437068901758" y="190.292552904" text-anchor="start" dominant-baseline="alphabetic" xml:space="preserve">set_focus()</text></g><g><path fill="none" stroke="black" paint-order="fill stroke markers" d=" M 562.7388412901757 196.324012584 L 623.0534380901757 196.324012584 L 623.0534380901757 215.926256544 L 565.2519494901758 215.926256544" stroke-miterlimit="10" stroke-width="1.2565541" stroke-dasharray=""/><g transform="translate(562.7388412901757,215.926256544) translate(-562.7388412901757,-215.926256544)"><path fill="black" stroke="none" paint-order="stroke fill markers" d=" M 575.3043822901758 209.643486044 L 562.7388412901757 215.926256544 L 575.3043822901758 222.209027044 Z"/></g></g><path fill="#ffffc0" stroke="black" paint-order="fill stroke markers" d=" M 500.1621350135449 235.528500504 L 596.6661140868066 235.528500504 L 610.2368983668066 249.099284784 L 610.2368983668066 270.209393664 L 500.1621350135449 270.209393664 L 500.1621350135449 235.528500504 M 596.6661140868066 235.528500504 L 596.6661140868066 249.099284784 L 610.2368983668066 249.099284784" stroke-miterlimit="10" stroke-width="1.2565541" stroke-dasharray=""/><g><text fill="black" stroke="none" font-family="sans-serif" font-size="11pt" font-style="normal" font-weight="normal" text-decoration="normal" x="521.2722438935449" y="256.638609384" text-anchor="start" dominant-baseline="alphabetic" xml:space="preserve">Focussed</text></g><g><g><rect fill="rgb(239,255,255)" stroke="none" x="195.7229307191748" y="272.471191044" width="67.03268518358398" height="19.602243960000003"/></g><text fill="black" stroke="none" font-family="sans-serif" font-size="11pt" font-style="normal" font-weight="normal" text-decoration="normal" x="197.9847280991748" y="286.0419753240001" text-anchor="start" dominant-baseline="alphabetic" xml:space="preserve">redraw()</text></g><g><path fill="none" stroke="black" paint-order="fill stroke markers" d=" M 105.05218476085938 292.07343500400003 L 350.91325366107424 292.07343500400003" stroke-miterlimit="10" stroke-width="1.2565541" stroke-dasharray=""/><g transform="translate(353.4263618610742,292.07343500400003) translate(-353.4263618610742,-292.07343500400003)"><path fill="black" stroke="none" paint-order="stroke fill markers" d=" M 340.8608208610742 285.790664504 L 353.4263618610742 292.07343500400003 L 340.8608208610742 298.35620550400006 Z"/></g></g><g><g><rect fill="rgb(239,255,255)" stroke="none" x="386.34807928107415" y="294.335232384" width="60.92359628587891" height="19.602243960000003"/></g><text fill="black" stroke="none" font-family="sans-serif" font-size="11pt" font-style="normal" font-weight="normal" text-decoration="normal" x="388.60987666107417" y="307.90601666400005" text-anchor="start" dominant-baseline="alphabetic" xml:space="preserve">reflow()</text></g><g><path fill="none" stroke="black" paint-order="fill stroke markers" d=" M 368.5050110610742 313.937476344 L 428.8196078610742 313.937476344 L 428.8196078610742 333.539720304 L 371.01811926107416 333.539720304" stroke-miterlimit="10" stroke-width="1.2565541" stroke-dasharray=""/><g transform="translate(368.5050110610742,333.539720304) translate(-368.5050110610742,-333.539720304)"><path fill="black" stroke="none" paint-order="stroke fill markers" d=" M 381.0705520610742 327.256949804 L 368.5050110610742 333.539720304 L 381.0705520610742 339.82249080400004 Z"/></g></g><g><g><rect fill="rgb(239,255,255)" stroke="none" x="428.1298957636181" y="335.80151768400003" width="59.905411624013674" height="19.602243960000003"/></g><text fill="black" stroke="none" font-family="sans-serif" font-size="11pt" font-style="normal" font-weight="normal" text-decoration="normal" x="430.3916931436181" y="349.37230196400003" text-anchor="start" dominant-baseline="alphabetic" xml:space="preserve">recalc()</text></g><g><path fill="none" stroke="black" paint-order="fill stroke markers" d=" M 368.5050110610742 355.40376164400004 L 545.1470838901757 355.40376164400004" stroke-miterlimit="10" stroke-width="1.2565541" stroke-dasharray=""/><g transform="translate(547.6601920901758,355.40376164400004) translate(-547.6601920901758,-355.40376164400004)"><path fill="black" stroke="none" paint-order="stroke fill markers" d=" M 535.0946510901757 349.120991144 L 547.6601920901758 355.40376164400004 L 535.0946510901757 361.68653214400007 Z"/></g></g><g><g><rect fill="rgb(239,255,255)" stroke="none" x="424.02989538214837" y="357.66555902400006" width="68.10541238695312" height="19.602243960000003"/></g><text fill="black" stroke="none" font-family="sans-serif" font-size="11pt" font-style="normal" font-weight="normal" text-decoration="normal" x="426.2916927621484" y="371.2363433040001" text-anchor="start" dominant-baseline="alphabetic" xml:space="preserve">repaint()</text></g><g><path fill="none" stroke="black" paint-order="fill stroke markers" d=" M 368.5050110610742 377.26780298400007 L 545.1470838901757 377.26780298400007" stroke-miterlimit="10" stroke-width="1.2565541" stroke-dasharray=""/><g transform="translate(547.6601920901758,377.26780298400007) translate(-547.6601920901758,-377.26780298400007)"><path fill="black" stroke="none" paint-order="stroke fill markers" d=" M 535.0946510901757 370.98503248400004 L 547.6601920901758 377.26780298400007 L 535.0946510901757 383.5505734840001 Z"/></g></g><g><g><rect fill="rgb(239,255,255)" stroke="none" x="122.89525298085938" y="379.5296003640001" width="99.81450357347656" height="19.602243960000003"/></g><text fill="black" stroke="none" font-family="sans-serif" font-size="11pt" font-style="normal" font-weight="normal" text-decoration="normal" x="125.15705036085939" y="393.1003846440001" text-anchor="start" dominant-baseline="alphabetic" xml:space="preserve">mutt_getch()</text></g><g><path fill="none" stroke="black" paint-order="fill stroke markers" d=" M 105.05218476085938 399.1318443240001 L 238.03971657433593 399.1318443240001" stroke-miterlimit="10" stroke-width="1.2565541" stroke-dasharray=""/><g transform="translate(240.55282477433593,399.1318443240001) translate(-240.55282477433593,-399.1318443240001)"><path fill="black" stroke="none" paint-order="stroke fill markers" d=" M 227.98728377433594 392.8490738240001 L 240.55282477433593 399.1318443240001 L 227.98728377433594 405.4146148240001 Z"/></g></g><path fill="#ffffc0" stroke="black" paint-order="fill stroke markers" d=" M 157.83658608759765 418.7340882840001 L 324.7769283810742 418.7340882840001 L 338.3477126610742 432.3048725640001 L 338.3477126610742 453.4149814440001 L 157.83658608759765 453.4149814440001 L 157.83658608759765 418.7340882840001 M 324.7769283810742 418.7340882840001 L 324.7769283810742 432.3048725640001 L 338.3477126610742 432.3048725640001" stroke-miterlimit="10" stroke-width="1.2565541" stroke-dasharray=""/><g><text fill="black" stroke="none" font-family="sans-serif" font-size="11pt" font-style="normal" font-weight="normal" text-decoration="normal" x="178.94669496759764" y="439.8441971640001" text-anchor="start" dominant-baseline="alphabetic" xml:space="preserve">Pressed: '&lt;enter&gt;'</text></g><g><g><rect fill="rgb(239,255,255)" stroke="none" x="134.658890523584" y="455.6767788240001" width="76.28722848802734" height="19.602243960000003"/></g><text fill="black" stroke="none" font-family="sans-serif" font-size="11pt" font-style="normal" font-weight="normal" text-decoration="normal" x="136.920687903584" y="469.24756310400016" text-anchor="start" dominant-baseline="alphabetic" xml:space="preserve">'&lt;enter&gt;'</text></g><g><path fill="none" stroke="black" paint-order="fill stroke markers" d=" M 240.55282477433593 475.2790227840001 L 107.56529296085938 475.2790227840001" stroke-miterlimit="10" stroke-width="1.2565541" stroke-dasharray="6.03145968"/><g transform="translate(105.05218476085938,475.2790227840001) translate(-105.05218476085938,-475.2790227840001)"><path fill="black" stroke="none" paint-order="stroke fill markers" d=" M 117.61772576085937 468.9962522840001 L 105.05218476085938 475.2790227840001 L 117.61772576085937 481.56179328400015 Z"/></g></g><g><g><rect fill="rgb(239,255,255)" stroke="none" x="157.504751016416" y="494.8812667440001" width="143.46904458910157" height="19.602243960000003"/></g><text fill="black" stroke="none" font-family="sans-serif" font-size="11pt" font-style="normal" font-weight="normal" text-decoration="normal" x="159.766548396416" y="508.45205102400007" text-anchor="start" dominant-baseline="alphabetic" xml:space="preserve">win.key('&lt;enter&gt;')</text></g><g><path fill="none" stroke="black" paint-order="fill stroke markers" d=" M 105.05218476085938 514.4835107040001 L 350.91325366107424 514.4835107040001" stroke-miterlimit="10" stroke-width="1.2565541" stroke-dasharray=""/><g transform="translate(353.4263618610742,514.4835107040001) translate(-353.4263618610742,-514.4835107040001)"><path fill="black" stroke="none" paint-order="stroke fill markers" d=" M 340.8608208610742 508.20074020400006 L 353.4263618610742 514.4835107040001 L 340.8608208610742 520.766281204 Z"/></g></g><g><g><rect fill="rgb(239,255,255)" stroke="none" x="386.34807928107415" y="516.745308084" width="86.52359476" height="19.602243960000003"/></g><text fill="black" stroke="none" font-family="sans-serif" font-size="11pt" font-style="normal" font-weight="normal" text-decoration="normal" x="388.60987666107417" y="530.316092364" text-anchor="start" dominant-baseline="alphabetic" xml:space="preserve">get_focus()</text></g><g><path fill="none" stroke="black" paint-order="fill stroke markers" d=" M 368.5050110610742 536.347552044 L 428.8196078610742 536.347552044 L 428.8196078610742 555.9497960040001 L 371.01811926107416 555.9497960040001" stroke-miterlimit="10" stroke-width="1.2565541" stroke-dasharray=""/><g transform="translate(368.5050110610742,555.9497960040001) translate(-368.5050110610742,-555.9497960040001)"><path fill="black" stroke="none" paint-order="stroke fill markers" d=" M 381.0705520610742 549.6670255040001 L 368.5050110610742 555.9497960040001 L 381.0705520610742 562.232566504 Z"/></g></g><g><g><rect fill="rgb(239,255,255)" stroke="none" x="386.34807928107415" y="558.211593384" width="143.46904458910157" height="19.602243960000003"/></g><text fill="black" stroke="none" font-family="sans-serif" font-size="11pt" font-style="normal" font-weight="normal" text-decoration="normal" x="388.60987666107417" y="571.782377664" text-anchor="start" dominant-baseline="alphabetic" xml:space="preserve">win.key('&lt;enter&gt;')</text></g><g><path fill="none" stroke="black" paint-order="fill stroke markers" d=" M 368.5050110610742 577.813837344 L 545.1470838901757 577.813837344" stroke-miterlimit="10" stroke-width="1.2565541" stroke-dasharray=""/><g transform="translate(547.6601920901758,577.813837344) translate(-547.6601920901758,-577.813837344)"><path fill="black" stroke="none" paint-order="stroke fill markers" d=" M 535.0946510901757 571.5310668440001 L 547.6601920901758 577.813837344 L 535.0946510901757 584.096607844 Z"/></g></g><g><g><rect fill="rgb(239,255,255)" stroke="none" x="580.5819095101758" y="580.075634724" width="136.4145096769922" height="19.602243960000003"/></g><g><rect fill="rgb(239,255,255)" stroke="none" x="580.5819095101758" y="595.154283924" width="170.95996560960938" height="19.602243960000003"/></g><text fill="black" stroke="none" font-family="sans-serif" font-size="11pt" font-style="normal" font-weight="normal" text-decoration="normal" x="582.8437068901758" y="593.646419004" text-anchor="start" dominant-baseline="alphabetic" xml:space="preserve">lookup('&lt;enter&gt;')</text><text fill="black" stroke="none" font-family="sans-serif" font-size="11pt" font-style="normal" font-weight="normal" text-decoration="normal" x="582.8437068901758" y="608.725068204" text-anchor="start" dominant-baseline="alphabetic" xml:space="preserve">OP_DISPLAY_MESSAGE</text></g><g><path fill="none" stroke="black" paint-order="fill stroke markers" d=" M 562.7388412901757 614.756527884 L 623.0534380901757 614.756527884 L 623.0534380901757 634.358771844 L 565.2519494901758 634.358771844" stroke-miterlimit="10" stroke-width="1.2565541" stroke-dasharray=""/><g transform="translate(562.7388412901757,634.358771844) translate(-562.7388412901757,-634.358771844)"><path fill="black" stroke="none" paint-order="stroke fill markers" d=" M 575.3043822901758 628.076001344 L 562.7388412901757 634.358771844 L 575.3043822901758 640.641542344 Z"/></g></g><g><g><rect fill="rgb(239,255,255)" stroke="none" x="580.5819095101758" y="653.961015804" width="183.66905679613282" height="19.602243960000003"/></g><text fill="black" stroke="none" font-family="sans-serif" font-size="11pt" font-style="normal" font-weight="normal" text-decoration="normal" x="582.8437068901758" y="667.531800084" text-anchor="start" dominant-baseline="alphabetic" xml:space="preserve">mutt_display_message()</text></g><g><path fill="none" stroke="black" paint-order="fill stroke markers" d=" M 562.7388412901757 673.563259764 L 779.5809263263085 673.563259764" stroke-miterlimit="10" stroke-width="1.2565541" stroke-dasharray=""/><g transform="translate(782.0940345263085,673.563259764) translate(-782.0940345263085,-673.563259764)"><path fill="black" stroke="none" paint-order="stroke fill markers" d=" M 769.5284935263085 667.280489264 L 782.0940345263085 673.563259764 L 769.5284935263085 679.846030264 Z"/></g></g><g><g><rect fill="rgb(239,255,255)" stroke="none" x="815.0157519463086" y="675.825057144" width="92.5781373015039" height="19.602243960000003"/></g><text fill="black" stroke="none" font-family="sans-serif" font-size="11pt" font-style="normal" font-weight="normal" text-decoration="normal" x="817.2775493263085" y="689.395841424" text-anchor="start" dominant-baseline="alphabetic" xml:space="preserve">set_visible()</text></g><g><path fill="none" stroke="black" paint-order="fill stroke markers" d=" M 797.1726837263085 695.427301104 L 857.4872805263085 695.427301104 L 857.4872805263085 715.029545064 L 799.6857919263085 715.029545064" stroke-miterlimit="10" stroke-width="1.2565541" stroke-dasharray=""/><g transform="translate(797.1726837263085,715.029545064) translate(-797.1726837263085,-715.029545064)"><path fill="black" stroke="none" paint-order="stroke fill markers" d=" M 809.7382247263085 708.746774564 L 797.1726837263085 715.029545064 L 809.7382247263085 721.312315564 Z"/></g></g><g><g><rect fill="rgb(239,255,255)" stroke="none" x="815.0157519463086" y="717.291342444" width="84.8508652678125" height="19.602243960000003"/></g><text fill="black" stroke="none" font-family="sans-serif" font-size="11pt" font-style="normal" font-weight="normal" text-decoration="normal" x="817.2775493263085" y="730.862126724" text-anchor="start" dominant-baseline="alphabetic" xml:space="preserve">set_focus()</text></g><g><path fill="none" stroke="black" paint-order="fill stroke markers" d=" M 797.1726837263085 736.893586404 L 857.4872805263085 736.893586404 L 857.4872805263085 756.495830364 L 799.6857919263085 756.495830364" stroke-miterlimit="10" stroke-width="1.2565541" stroke-dasharray=""/><g transform="translate(797.1726837263085,756.495830364) translate(-797.1726837263085,-756.495830364)"><path fill="black" stroke="none" paint-order="stroke fill markers" d=" M 809.7382247263085 750.213059864 L 797.1726837263085 756.495830364 L 809.7382247263085 762.7786008639999 Z"/></g></g><path fill="#ffffc0" stroke="black" paint-order="fill stroke markers" d=" M 734.5959774496777 776.0980743240001 L 831.0999565229394 776.0980743240001 L 844.6707408029393 789.6688586040001 L 844.6707408029393 810.7789674840001 L 734.5959774496777 810.7789674840001 L 734.5959774496777 776.0980743240001 M 831.0999565229394 776.0980743240001 L 831.0999565229394 789.6688586040001 L 844.6707408029393 789.6688586040001" stroke-miterlimit="10" stroke-width="1.2565541" stroke-dasharray=""/><g><text fill="black" stroke="none" font-family="sans-serif" font-size="11pt" font-style="normal" font-weight="normal" text-decoration="normal" x="755.7060863296776" y="797.2081832040001" text-anchor="start" dominant-baseline="alphabetic" xml:space="preserve">Focussed</text></g><g><g><rect fill="rgb(239,255,255)" stroke="none" x="195.7229307191748" y="813.040764864" width="67.03268518358398" height="19.602243960000003"/></g><text fill="black" stroke="none" font-family="sans-serif" font-size="11pt" font-style="normal" font-weight="normal" text-decoration="normal" x="197.9847280991748" y="826.611549144" text-anchor="start" dominant-baseline="alphabetic" xml:space="preserve">redraw()</text></g><g><path fill="none" stroke="black" paint-order="fill stroke markers" d=" M 105.05218476085938 832.643008824 L 350.91325366107424 832.643008824" stroke-miterlimit="10" stroke-width="1.2565541" stroke-dasharray=""/><g transform="translate(353.4263618610742,832.643008824) translate(-353.4263618610742,-832.643008824)"><path fill="black" stroke="none" paint-order="stroke fill markers" d=" M 340.8608208610742 826.3602383240001 L 353.4263618610742 832.643008824 L 340.8608208610742 838.925779324 Z"/></g></g><g><g><rect fill="rgb(239,255,255)" stroke="none" x="386.34807928107415" y="834.904806204" width="60.92359628587891" height="19.602243960000003"/></g><text fill="black" stroke="none" font-family="sans-serif" font-size="11pt" font-style="normal" font-weight="normal" text-decoration="normal" x="388.60987666107417" y="848.475590484" text-anchor="start" dominant-baseline="alphabetic" xml:space="preserve">reflow()</text></g><g><path fill="none" stroke="black" paint-order="fill stroke markers" d=" M 368.5050110610742 854.507050164 L 428.8196078610742 854.507050164 L 428.8196078610742 874.109294124 L 371.01811926107416 874.109294124" stroke-miterlimit="10" stroke-width="1.2565541" stroke-dasharray=""/><g transform="translate(368.5050110610742,874.109294124) translate(-368.5050110610742,-874.109294124)"><path fill="black" stroke="none" paint-order="stroke fill markers" d=" M 381.0705520610742 867.8265236240001 L 368.5050110610742 874.109294124 L 381.0705520610742 880.392064624 Z"/></g></g><g><g><rect fill="rgb(239,255,255)" stroke="none" x="428.1298957636181" y="876.371091504" width="59.905411624013674" height="19.602243960000003"/></g><text fill="black" stroke="none" font-family="sans-serif" font-size="11pt" font-style="normal" font-weight="normal" text-decoration="normal" x="430.3916931436181" y="889.941875784" text-anchor="start" dominant-baseline="alphabetic" xml:space="preserve">recalc()</text></g><g><path fill="none" stroke="black" paint-order="fill stroke markers" d=" M 368.5050110610742 895.973335464 L 545.1470838901757 895.973335464" stroke-miterlimit="10" stroke-width="1.2565541" stroke-dasharray=""/><g transform="translate(547.6601920901758,895.973335464) translate(-547.6601920901758,-895.973335464)"><path fill="black" stroke="none" paint-order="stroke fill markers" d=" M 535.0946510901757 889.690564964 L 547.6601920901758 895.973335464 L 535.0946510901757 902.256105964 Z"/></g></g><g><g><rect fill="rgb(239,255,255)" stroke="none" x="545.3468169816846" y="898.235132844" width="59.905411624013674" height="19.602243960000003"/></g><text fill="black" stroke="none" font-family="sans-serif" font-size="11pt" font-style="normal" font-weight="normal" text-decoration="normal" x="547.6086143616845" y="911.805917124" text-anchor="start" dominant-baseline="alphabetic" xml:space="preserve">recalc()</text></g><g><path fill="none" stroke="black" paint-order="fill stroke markers" d=" M 368.5050110610742 917.837376804 L 779.5809263263085 917.837376804" stroke-miterlimit="10" stroke-width="1.2565541" stroke-dasharray=""/><g transform="translate(782.0940345263085,917.837376804) translate(-782.0940345263085,-917.837376804)"><path fill="black" stroke="none" paint-order="stroke fill markers" d=" M 769.5284935263085 911.554606304 L 782.0940345263085 917.837376804 L 769.5284935263085 924.1201473039999 Z"/></g></g><g><g><rect fill="rgb(239,255,255)" stroke="none" x="424.02989538214837" y="937.439620764" width="68.10541238695312" height="19.602243960000003"/></g><text fill="black" stroke="none" font-family="sans-serif" font-size="11pt" font-style="normal" font-weight="normal" text-decoration="normal" x="426.2916927621484" y="951.010405044" text-anchor="start" dominant-baseline="alphabetic" xml:space="preserve">repaint()</text></g><g><path fill="none" stroke="black" paint-order="fill stroke markers" d=" M 368.5050110610742 957.041864724 L 545.1470838901757 957.041864724" stroke-miterlimit="10" stroke-width="1.2565541" stroke-dasharray=""/><g transform="translate(547.6601920901758,957.041864724) translate(-547.6601920901758,-957.041864724)"><path fill="black" stroke="none" paint-order="stroke fill markers" d=" M 535.0946510901757 950.759094224 L 547.6601920901758 957.041864724 L 535.0946510901757 963.324635224 Z"/></g></g><g><g><rect fill="rgb(239,255,255)" stroke="none" x="541.2468166002149" y="959.303662104" width="68.10541238695312" height="19.602243960000003"/></g><text fill="black" stroke="none" font-family="sans-serif" font-size="11pt" font-style="normal" font-weight="normal" text-decoration="normal" x="543.5086139802148" y="972.874446384" text-anchor="start" dominant-baseline="alphabetic" xml:space="preserve">repaint()</text></g><g><path fill="none" stroke="black" paint-order="fill stroke markers" d=" M 368.5050110610742 978.905906064 L 779.5809263263085 978.905906064" stroke-miterlimit="10" stroke-width="1.2565541" stroke-dasharray=""/><g transform="translate(782.0940345263085,978.905906064) translate(-782.0940345263085,-978.905906064)"><path fill="black" stroke="none" paint-order="stroke fill markers" d=" M 769.5284935263085 972.623135564 L 782.0940345263085 978.905906064 L 769.5284935263085 985.1886765639999 Z"/></g></g><g><g><rect fill="rgb(239,255,255)" stroke="none" x="122.89525298085938" y="998.508150024" width="99.81450357347656" height="19.602243960000003"/></g><text fill="black" stroke="none" font-family="sans-serif" font-size="11pt" font-style="normal" font-weight="normal" text-decoration="normal" x="125.15705036085939" y="1012.078934304" text-anchor="start" dominant-baseline="alphabetic" xml:space="preserve">mutt_getch()</text></g><g><path fill="none" stroke="black" paint-order="fill stroke markers" d=" M 105.05218476085938 1018.110393984 L 238.03971657433593 1018.110393984" stroke-miterlimit="10" stroke-width="1.2565541" stroke-dasharray=""/><g transform="translate(240.55282477433593,1018.110393984) translate(-240.55282477433593,-1018.110393984)"><path fill="black" stroke="none" paint-order="stroke fill markers" d=" M 227.98728377433594 1011.827623484 L 240.55282477433593 1018.110393984 L 227.98728377433594 1024.393164484 Z"/></g></g><path fill="#ffffc0" stroke="black" paint-order="fill stroke markers" d=" M 185.02749642695312 1037.7126379439999 L 297.5860180417187 1037.7126379439999 L 311.1568023217187 1051.2834222239999 L 311.1568023217187 1072.393531104 L 185.02749642695312 1072.393531104 L 185.02749642695312 1037.7126379439999 M 297.5860180417187 1037.7126379439999 L 297.5860180417187 1051.2834222239999 L 311.1568023217187 1051.2834222239999" stroke-miterlimit="10" stroke-width="1.2565541" stroke-dasharray=""/><g><text fill="black" stroke="none" font-family="sans-serif" font-size="11pt" font-style="normal" font-weight="normal" text-decoration="normal" x="206.1376053069531" y="1058.822746824" text-anchor="start" dominant-baseline="alphabetic" xml:space="preserve">Pressed: 'q'</text></g><g><g><rect fill="rgb(239,255,255)" stroke="none" x="161.84979800191653" y="1074.6553284840002" width="21.905413531362306" height="19.602243960000003"/></g><text fill="black" stroke="none" font-family="sans-serif" font-size="11pt" font-style="normal" font-weight="normal" text-decoration="normal" x="164.11159538191652" y="1088.2261127640002" text-anchor="start" dominant-baseline="alphabetic" xml:space="preserve">'q'</text></g><g><path fill="none" stroke="black" paint-order="fill stroke markers" d=" M 240.55282477433593 1094.257572444 L 107.56529296085938 1094.257572444" stroke-miterlimit="10" stroke-width="1.2565541" stroke-dasharray="6.03145968"/><g transform="translate(105.05218476085938,1094.257572444) translate(-105.05218476085938,-1094.257572444)"><path fill="black" stroke="none" paint-order="stroke fill markers" d=" M 117.61772576085937 1087.974801944 L 105.05218476085938 1094.257572444 L 117.61772576085937 1100.540342944 Z"/></g></g><g><g><rect fill="rgb(239,255,255)" stroke="none" x="184.6956575410742" y="1113.8598164040002" width="89.08723153978515" height="19.602243960000003"/></g><text fill="black" stroke="none" font-family="sans-serif" font-size="11pt" font-style="normal" font-weight="normal" text-decoration="normal" x="186.9574549210742" y="1127.4306006840002" text-anchor="start" dominant-baseline="alphabetic" xml:space="preserve">win.key('q')</text></g><g><path fill="none" stroke="black" paint-order="fill stroke markers" d=" M 105.05218476085938 1133.462060364 L 350.91325366107424 1133.462060364" stroke-miterlimit="10" stroke-width="1.2565541" stroke-dasharray=""/><g transform="translate(353.4263618610742,1133.462060364) translate(-353.4263618610742,-1133.462060364)"><path fill="black" stroke="none" paint-order="stroke fill markers" d=" M 340.8608208610742 1127.179289864 L 353.4263618610742 1133.462060364 L 340.8608208610742 1139.744830864 Z"/></g></g><g><g><rect fill="rgb(239,255,255)" stroke="none" x="386.34807928107415" y="1135.723857744" width="86.52359476" height="19.602243960000003"/></g><text fill="black" stroke="none" font-family="sans-serif" font-size="11pt" font-style="normal" font-weight="normal" text-decoration="normal" x="388.60987666107417" y="1149.294642024" text-anchor="start" dominant-baseline="alphabetic" xml:space="preserve">get_focus()</text></g><g><path fill="none" stroke="black" paint-order="fill stroke markers" d=" M 368.5050110610742 1155.3261017040002 L 428.8196078610742 1155.3261017040002 L 428.8196078610742 1174.928345664 L 371.01811926107416 1174.928345664" stroke-miterlimit="10" stroke-width="1.2565541" stroke-dasharray=""/><g transform="translate(368.5050110610742,1174.928345664) translate(-368.5050110610742,-1174.928345664)"><path fill="black" stroke="none" paint-order="stroke fill markers" d=" M 381.0705520610742 1168.645575164 L 368.5050110610742 1174.928345664 L 381.0705520610742 1181.211116164 Z"/></g></g><g><g><rect fill="rgb(239,255,255)" stroke="none" x="530.7559070237988" y="1177.1901430440003" width="89.08723153978515" height="19.602243960000003"/></g><text fill="black" stroke="none" font-family="sans-serif" font-size="11pt" font-style="normal" font-weight="normal" text-decoration="normal" x="533.0177044037988" y="1190.7609273240002" text-anchor="start" dominant-baseline="alphabetic" xml:space="preserve">win.key('q')</text></g><g><path fill="none" stroke="black" paint-order="fill stroke markers" d=" M 368.5050110610742 1196.7923870040001 L 779.5809263263085 1196.7923870040001" stroke-miterlimit="10" stroke-width="1.2565541" stroke-dasharray=""/><g transform="translate(782.0940345263085,1196.7923870040001) translate(-782.0940345263085,-1196.7923870040001)"><path fill="black" stroke="none" paint-order="stroke fill markers" d=" M 769.5284935263085 1190.5096165040002 L 782.0940345263085 1196.7923870040001 L 769.5284935263085 1203.0751575040001 Z"/></g></g><g><g><rect fill="rgb(239,255,255)" stroke="none" x="815.0157519463086" y="1199.054184384" width="82.03268899828124" height="19.602243960000003"/></g><g><rect fill="rgb(239,255,255)" stroke="none" x="815.0157519463086" y="1214.132833584" width="64.86904992967773" height="19.602243960000003"/></g><text fill="black" stroke="none" font-family="sans-serif" font-size="11pt" font-style="normal" font-weight="normal" text-decoration="normal" x="817.2775493263085" y="1212.624968664" text-anchor="start" dominant-baseline="alphabetic" xml:space="preserve">lookup('q')</text><text fill="black" stroke="none" font-family="sans-serif" font-size="11pt" font-style="normal" font-weight="normal" text-decoration="normal" x="817.2775493263085" y="1227.703617864" text-anchor="start" dominant-baseline="alphabetic" xml:space="preserve">OP_EXIT</text></g><g><path fill="none" stroke="black" paint-order="fill stroke markers" d=" M 797.1726837263085 1233.7350775440002 L 857.4872805263085 1233.7350775440002 L 857.4872805263085 1253.337321504 L 799.6857919263085 1253.337321504" stroke-miterlimit="10" stroke-width="1.2565541" stroke-dasharray=""/><g transform="translate(797.1726837263085,1253.337321504) translate(-797.1726837263085,-1253.337321504)"><path fill="black" stroke="none" paint-order="stroke fill markers" d=" M 809.7382247263085 1247.0545510040001 L 797.1726837263085 1253.337321504 L 809.7382247263085 1259.620092004 Z"/></g></g><g><g><rect fill="rgb(239,255,255)" stroke="none" x="815.0157519463086" y="1255.599118884" width="105.94177713304687" height="19.602243960000003"/></g><text fill="black" stroke="none" font-family="sans-serif" font-size="11pt" font-style="normal" font-weight="normal" text-decoration="normal" x="817.2775493263085" y="1269.169903164" text-anchor="start" dominant-baseline="alphabetic" xml:space="preserve">set_invisible()</text></g><g><path fill="none" stroke="black" paint-order="fill stroke markers" d=" M 797.1726837263085 1275.2013628440002 L 857.4872805263085 1275.2013628440002 L 857.4872805263085 1294.803606804 L 799.6857919263085 1294.803606804" stroke-miterlimit="10" stroke-width="1.2565541" stroke-dasharray=""/><g transform="translate(797.1726837263085,1294.803606804) translate(-797.1726837263085,-1294.803606804)"><path fill="black" stroke="none" paint-order="stroke fill markers" d=" M 809.7382247263085 1288.520836304 L 797.1726837263085 1294.803606804 L 809.7382247263085 1301.086377304 Z"/></g></g><g><g><rect fill="rgb(239,255,255)" stroke="none" x="815.0157519463086" y="1297.065404184" width="114.26904764085937" height="19.602243960000003"/></g><text fill="black" stroke="none" font-family="sans-serif" font-size="11pt" font-style="normal" font-weight="normal" text-decoration="normal" x="817.2775493263085" y="1310.636188464" text-anchor="start" dominant-baseline="alphabetic" xml:space="preserve">restore_focus()</text></g><g><path fill="none" stroke="black" paint-order="fill stroke markers" d=" M 797.1726837263085 1316.6676481440002 L 857.4872805263085 1316.6676481440002 L 857.4872805263085 1336.269892104 L 799.6857919263085 1336.269892104" stroke-miterlimit="10" stroke-width="1.2565541" stroke-dasharray=""/><g transform="translate(797.1726837263085,1336.269892104) translate(-797.1726837263085,-1336.269892104)"><path fill="black" stroke="none" paint-order="stroke fill markers" d=" M 809.7382247263085 1329.987121604 L 797.1726837263085 1336.269892104 L 809.7382247263085 1342.552662604 Z"/></g></g><path fill="#ffffc0" stroke="black" paint-order="fill stroke markers" d=" M 500.1621350135449 1338.531689484 L 596.6661140868066 1338.531689484 L 610.2368983668066 1352.102473764 L 610.2368983668066 1373.2125826440001 L 500.1621350135449 1373.2125826440001 L 500.1621350135449 1338.531689484 M 596.6661140868066 1338.531689484 L 596.6661140868066 1352.102473764 L 610.2368983668066 1352.102473764" stroke-miterlimit="10" stroke-width="1.2565541" stroke-dasharray=""/><g><text fill="black" stroke="none" font-family="sans-serif" font-size="11pt" font-style="normal" font-weight="normal" text-decoration="normal" x="521.2722438935449" y="1359.6417983640001" text-anchor="start" dominant-baseline="alphabetic" xml:space="preserve">Focussed</text></g><g><g><rect fill="rgb(239,255,255)" stroke="none" x="195.7229307191748" y="1375.4743800240003" width="67.03268518358398" height="19.602243960000003"/></g><text fill="black" stroke="none" font-family="sans-serif" font-size="11pt" font-style="normal" font-weight="normal" text-decoration="normal" x="197.9847280991748" y="1389.0451643040003" text-anchor="start" dominant-baseline="alphabetic" xml:space="preserve">redraw()</text></g><g><path fill="none" stroke="black" paint-order="fill stroke markers" d=" M 105.05218476085938 1395.0766239840002 L 350.91325366107424 1395.0766239840002" stroke-miterlimit="10" stroke-width="1.2565541" stroke-dasharray=""/><g transform="translate(353.4263618610742,1395.0766239840002) translate(-353.4263618610742,-1395.0766239840002)"><path fill="black" stroke="none" paint-order="stroke fill markers" d=" M 340.8608208610742 1388.7938534840002 L 353.4263618610742 1395.0766239840002 L 340.8608208610742 1401.3593944840002 Z"/></g></g><g><g><rect fill="rgb(239,255,255)" stroke="none" x="386.34807928107415" y="1397.3384213640002" width="60.92359628587891" height="19.602243960000003"/></g><text fill="black" stroke="none" font-family="sans-serif" font-size="11pt" font-style="normal" font-weight="normal" text-decoration="normal" x="388.60987666107417" y="1410.9092056440002" text-anchor="start" dominant-baseline="alphabetic" xml:space="preserve">reflow()</text></g><g><path fill="none" stroke="black" paint-order="fill stroke markers" d=" M 368.5050110610742 1416.9406653240003 L 428.8196078610742 1416.9406653240003 L 428.8196078610742 1436.5429092840002 L 371.01811926107416 1436.5429092840002" stroke-miterlimit="10" stroke-width="1.2565541" stroke-dasharray=""/><g transform="translate(368.5050110610742,1436.5429092840002) translate(-368.5050110610742,-1436.5429092840002)"><path fill="black" stroke="none" paint-order="stroke fill markers" d=" M 381.0705520610742 1430.2601387840002 L 368.5050110610742 1436.5429092840002 L 381.0705520610742 1442.8256797840002 Z"/></g></g><g><g><rect fill="rgb(239,255,255)" stroke="none" x="428.1298957636181" y="1438.8047066640004" width="59.905411624013674" height="19.602243960000003"/></g><text fill="black" stroke="none" font-family="sans-serif" font-size="11pt" font-style="normal" font-weight="normal" text-decoration="normal" x="430.3916931436181" y="1452.3754909440004" text-anchor="start" dominant-baseline="alphabetic" xml:space="preserve">recalc()</text></g><g><path fill="none" stroke="black" paint-order="fill stroke markers" d=" M 368.5050110610742 1458.4069506240003 L 545.1470838901757 1458.4069506240003" stroke-miterlimit="10" stroke-width="1.2565541" stroke-dasharray=""/><g transform="translate(547.6601920901758,1458.4069506240003) translate(-547.6601920901758,-1458.4069506240003)"><path fill="black" stroke="none" paint-order="stroke fill markers" d=" M 535.0946510901757 1452.1241801240003 L 547.6601920901758 1458.4069506240003 L 535.0946510901757 1464.6897211240002 Z"/></g></g><g><g><rect fill="rgb(239,255,255)" stroke="none" x="424.02989538214837" y="1460.6687480040005" width="68.10541238695312" height="19.602243960000003"/></g><text fill="black" stroke="none" font-family="sans-serif" font-size="11pt" font-style="normal" font-weight="normal" text-decoration="normal" x="426.2916927621484" y="1474.2395322840005" text-anchor="start" dominant-baseline="alphabetic" xml:space="preserve">repaint()</text></g><g><path fill="none" stroke="black" paint-order="fill stroke markers" d=" M 368.5050110610742 1480.2709919640004 L 545.1470838901757 1480.2709919640004" stroke-miterlimit="10" stroke-width="1.2565541" stroke-dasharray=""/><g transform="translate(547.6601920901758,1480.2709919640004) translate(-547.6601920901758,-1480.2709919640004)"><path fill="black" stroke="none" paint-order="stroke fill markers" d=" M 535.0946510901757 1473.9882214640004 L 547.6601920901758 1480.2709919640004 L 535.0946510901757 1486.5537624640003 Z"/></g></g><g><g><rect fill="rgb(239,255,255)" stroke="none" x="122.89525298085938" y="1482.5327893440005" width="99.81450357347656" height="19.602243960000003"/></g><text fill="black" stroke="none" font-family="sans-serif" font-size="11pt" font-style="normal" font-weight="normal" text-decoration="normal" x="125.15705036085939" y="1496.1035736240005" text-anchor="start" dominant-baseline="alphabetic" xml:space="preserve">mutt_getch()</text></g><g><path fill="none" stroke="black" paint-order="fill stroke markers" d=" M 105.05218476085938 1502.1350333040004 L 238.03971657433593 1502.1350333040004" stroke-miterlimit="10" stroke-width="1.2565541" stroke-dasharray=""/><g transform="translate(240.55282477433593,1502.1350333040004) translate(-240.55282477433593,-1502.1350333040004)"><path fill="black" stroke="none" paint-order="stroke fill markers" d=" M 227.98728377433594 1495.8522628040005 L 240.55282477433593 1502.1350333040004 L 227.98728377433594 1508.4178038040004 Z"/></g></g><path fill="#ffffc0" stroke="black" paint-order="fill stroke markers" d=" M 185.02749642695312 1521.7372772640003 L 297.5860180417187 1521.7372772640003 L 311.1568023217187 1535.3080615440003 L 311.1568023217187 1556.4181704240004 L 185.02749642695312 1556.4181704240004 L 185.02749642695312 1521.7372772640003 M 297.5860180417187 1521.7372772640003 L 297.5860180417187 1535.3080615440003 L 311.1568023217187 1535.3080615440003" stroke-miterlimit="10" stroke-width="1.2565541" stroke-dasharray=""/><g><text fill="black" stroke="none" font-family="sans-serif" font-size="11pt" font-style="normal" font-weight="normal" text-decoration="normal" x="206.1376053069531" y="1542.8473861440004" text-anchor="start" dominant-baseline="alphabetic" xml:space="preserve">Pressed: 'q'</text></g><g><g><rect fill="rgb(239,255,255)" stroke="none" x="161.84979800191653" y="1558.6799678040006" width="21.905413531362306" height="19.602243960000003"/></g><text fill="black" stroke="none" font-family="sans-serif" font-size="11pt" font-style="normal" font-weight="normal" text-decoration="normal" x="164.11159538191652" y="1572.2507520840006" text-anchor="start" dominant-baseline="alphabetic" xml:space="preserve">'q'</text></g><g><path fill="none" stroke="black" paint-order="fill stroke markers" d=" M 240.55282477433593 1578.2822117640005 L 107.56529296085938 1578.2822117640005" stroke-miterlimit="10" stroke-width="1.2565541" stroke-dasharray="6.03145968"/><g transform="translate(105.05218476085938,1578.2822117640005) translate(-105.05218476085938,-1578.2822117640005)"><path fill="black" stroke="none" paint-order="stroke fill markers" d=" M 117.61772576085937 1571.9994412640006 L 105.05218476085938 1578.2822117640005 L 117.61772576085937 1584.5649822640005 Z"/></g></g><g><g><rect fill="rgb(239,255,255)" stroke="none" x="184.6956575410742" y="1597.8844557240006" width="89.08723153978515" height="19.602243960000003"/></g><text fill="black" stroke="none" font-family="sans-serif" font-size="11pt" font-style="normal" font-weight="normal" text-decoration="normal" x="186.9574549210742" y="1611.4552400040006" text-anchor="start" dominant-baseline="alphabetic" xml:space="preserve">win.key('q')</text></g><g><path fill="none" stroke="black" paint-order="fill stroke markers" d=" M 105.05218476085938 1617.4866996840005 L 350.91325366107424 1617.4866996840005" stroke-miterlimit="10" stroke-width="1.2565541" stroke-dasharray=""/><g transform="translate(353.4263618610742,1617.4866996840005) translate(-353.4263618610742,-1617.4866996840005)"><path fill="black" stroke="none" paint-order="stroke fill markers" d=" M 340.8608208610742 1611.2039291840006 L 353.4263618610742 1617.4866996840005 L 340.8608208610742 1623.7694701840005 Z"/></g></g><g><g><rect fill="rgb(239,255,255)" stroke="none" x="386.34807928107415" y="1619.7484970640005" width="86.52359476" height="19.602243960000003"/></g><text fill="black" stroke="none" font-family="sans-serif" font-size="11pt" font-style="normal" font-weight="normal" text-decoration="normal" x="388.60987666107417" y="1633.3192813440005" text-anchor="start" dominant-baseline="alphabetic" xml:space="preserve">get_focus()</text></g><g><path fill="none" stroke="black" paint-order="fill stroke markers" d=" M 368.5050110610742 1639.3507410240006 L 428.8196078610742 1639.3507410240006 L 428.8196078610742 1658.9529849840005 L 371.01811926107416 1658.9529849840005" stroke-miterlimit="10" stroke-width="1.2565541" stroke-dasharray=""/><g transform="translate(368.5050110610742,1658.9529849840005) translate(-368.5050110610742,-1658.9529849840005)"><path fill="black" stroke="none" paint-order="stroke fill markers" d=" M 381.0705520610742 1652.6702144840006 L 368.5050110610742 1658.9529849840005 L 381.0705520610742 1665.2357554840005 Z"/></g></g><g><g><rect fill="rgb(239,255,255)" stroke="none" x="413.53898580573235" y="1661.2147823640007" width="89.08723153978515" height="19.602243960000003"/></g><text fill="black" stroke="none" font-family="sans-serif" font-size="11pt" font-style="normal" font-weight="normal" text-decoration="normal" x="415.80078318573237" y="1674.7855666440007" text-anchor="start" dominant-baseline="alphabetic" xml:space="preserve">win.key('q')</text></g><g><path fill="none" stroke="black" paint-order="fill stroke markers" d=" M 368.5050110610742 1680.8170263240006 L 545.1470838901757 1680.8170263240006" stroke-miterlimit="10" stroke-width="1.2565541" stroke-dasharray=""/><g transform="translate(547.6601920901758,1680.8170263240006) translate(-547.6601920901758,-1680.8170263240006)"><path fill="black" stroke="none" paint-order="stroke fill markers" d=" M 535.0946510901757 1674.5342558240006 L 547.6601920901758 1680.8170263240006 L 535.0946510901757 1687.0997968240006 Z"/></g></g><g><g><rect fill="rgb(239,255,255)" stroke="none" x="580.5819095101758" y="1683.0788237040006" width="82.03268899828124" height="19.602243960000003"/></g><g><rect fill="rgb(239,255,255)" stroke="none" x="580.5819095101758" y="1698.1574729040005" width="64.86904992967773" height="19.602243960000003"/></g><text fill="black" stroke="none" font-family="sans-serif" font-size="11pt" font-style="normal" font-weight="normal" text-decoration="normal" x="582.8437068901758" y="1696.6496079840006" text-anchor="start" dominant-baseline="alphabetic" xml:space="preserve">lookup('q')</text><text fill="black" stroke="none" font-family="sans-serif" font-size="11pt" font-style="normal" font-weight="normal" text-decoration="normal" x="582.8437068901758" y="1711.7282571840005" text-anchor="start" dominant-baseline="alphabetic" xml:space="preserve">OP_EXIT</text></g><g><path fill="none" stroke="black" paint-order="fill stroke markers" d=" M 562.7388412901757 1717.7597168640007 L 623.0534380901757 1717.7597168640007 L 623.0534380901757 1737.3619608240006 L 565.2519494901758 1737.3619608240006" stroke-miterlimit="10" stroke-width="1.2565541" stroke-dasharray=""/><g transform="translate(562.7388412901757,1737.3619608240006) translate(-562.7388412901757,-1737.3619608240006)"><path fill="black" stroke="none" paint-order="stroke fill markers" d=" M 575.3043822901758 1731.0791903240006 L 562.7388412901757 1737.3619608240006 L 575.3043822901758 1743.6447313240005 Z"/></g></g><g><g><rect fill="rgb(239,255,255)" stroke="none" x="580.5819095101758" y="1739.6237582040005" width="105.94177713304687" height="19.602243960000003"/></g><text fill="black" stroke="none" font-family="sans-serif" font-size="11pt" font-style="normal" font-weight="normal" text-decoration="normal" x="582.8437068901758" y="1753.1945424840005" text-anchor="start" dominant-baseline="alphabetic" xml:space="preserve">set_invisible()</text></g><g><path fill="none" stroke="black" paint-order="fill stroke markers" d=" M 562.7388412901757 1759.2260021640006 L 623.0534380901757 1759.2260021640006 L 623.0534380901757 1778.8282461240005 L 565.2519494901758 1778.8282461240005" stroke-miterlimit="10" stroke-width="1.2565541" stroke-dasharray=""/><g transform="translate(562.7388412901757,1778.8282461240005) translate(-562.7388412901757,-1778.8282461240005)"><path fill="black" stroke="none" paint-order="stroke fill markers" d=" M 575.3043822901758 1772.5454756240006 L 562.7388412901757 1778.8282461240005 L 575.3043822901758 1785.1110166240005 Z"/></g></g><g><g><rect fill="rgb(239,255,255)" stroke="none" x="580.5819095101758" y="1781.0900435040005" width="114.26904764085937" height="19.602243960000003"/></g><text fill="black" stroke="none" font-family="sans-serif" font-size="11pt" font-style="normal" font-weight="normal" text-decoration="normal" x="582.8437068901758" y="1794.6608277840005" text-anchor="start" dominant-baseline="alphabetic" xml:space="preserve">restore_focus()</text></g><g><path fill="none" stroke="black" paint-order="fill stroke markers" d=" M 562.7388412901757 1800.6922874640006 L 623.0534380901757 1800.6922874640006 L 623.0534380901757 1820.2945314240005 L 565.2519494901758 1820.2945314240005" stroke-miterlimit="10" stroke-width="1.2565541" stroke-dasharray=""/><g transform="translate(562.7388412901757,1820.2945314240005) translate(-562.7388412901757,-1820.2945314240005)"><path fill="black" stroke="none" paint-order="stroke fill markers" d=" M 575.3043822901758 1814.0117609240006 L 562.7388412901757 1820.2945314240005 L 575.3043822901758 1826.5773019240005 Z"/></g></g><path fill="#ffffc0" stroke="black" paint-order="fill stroke markers" d=" M 30.157298400000002 1822.5563288040005 L 151.29763764171875 1822.5563288040005 L 164.86842192171875 1836.1271130840005 L 164.86842192171875 1872.3158711640006 L 30.157298400000002 1872.3158711640006 L 30.157298400000002 1822.5563288040005 M 151.29763764171875 1822.5563288040005 L 151.29763764171875 1836.1271130840005 L 164.86842192171875 1836.1271130840005" stroke-miterlimit="10" stroke-width="1.2565541" stroke-dasharray=""/><g><text fill="black" stroke="none" font-family="sans-serif" font-size="11pt" font-style="normal" font-weight="normal" text-decoration="normal" x="51.26740728" y="1843.6664376840006" text-anchor="start" dominant-baseline="alphabetic" xml:space="preserve">No Focussed</text><text fill="black" stroke="none" font-family="sans-serif" font-size="11pt" font-style="normal" font-weight="normal" text-decoration="normal" x="51.26740728" y="1858.7450868840006" text-anchor="start" dominant-baseline="alphabetic" xml:space="preserve">Window</text></g><g><g/><path fill="none" stroke="black" paint-order="fill stroke markers" d=" M 15.078649200000001 114.89930690399999 L 934.5623268071678 114.89930690399999 L 934.5623268071678 1924.3372109040004 L 15.078649200000001 1924.3372109040004 L 15.078649200000001 114.89930690399999 Z" stroke-miterlimit="10" stroke-width="2.154092742857143" stroke-dasharray=""/><path fill="#b0ffff" stroke="black" paint-order="fill stroke markers" d=" M 15.078649200000001 114.89930690399999 L 15.078649200000001 132.993685944 L 73.76322077810059 132.993685944 L 82.81041029810059 123.94649642399999 L 82.81041029810059 114.89930690399999 L 15.078649200000001 114.89930690399999" stroke-miterlimit="10" stroke-width="2.154092742857143" stroke-dasharray=""/><text fill="black" stroke="none" font-family="sans-serif" font-size="8.8pt" font-style="normal" font-weight="bold" text-decoration="normal" x="30.157298400000002" y="126.962226264" text-anchor="start" dominant-baseline="alphabetic" xml:space="preserve">loop</text><text fill="black" stroke="none" font-family="sans-serif" font-size="8.8pt" font-style="normal" font-weight="bold" text-decoration="normal" x="97.8890594981006" y="126.962226264" text-anchor="start" dominant-baseline="alphabetic" xml:space="preserve">[Event Loop]</text></g></g></g></svg>