<svg version="1.1" xmlns="http://www.w3.org/2000/svg" xmlns:xlink="http://www.w3.org/1999/xlink" width="775" height="883"><defs/><g><g/><g/><g/><g/><g/><g/><g/><g/><g/><g/><g/><g/><g/><g/><g/><g/><g/><g/><g/><g/><g/><g/><g/><g/><g/><g/><g/><g><rect fill="white" stroke="none" x="0" y="0" width="775" height="883"/></g><g><rect fill="rgb(239,255,255)" stroke="none" x="15.078649200000001" y="93.03526556399999" width="745.1424818819199" height="737.34594588"/></g><g><path fill="none" stroke="black" paint-order="fill stroke markers" d=" M 75.393246 50.815047804 L 75.393246 883.156483644" stroke-miterlimit="10" stroke-width="1.2565541" stroke-dasharray="11.598960923076923,5.0262164"/><path fill="none" stroke="black" paint-order="fill stroke markers" d=" M 225.97253521347656 50.815047804 L 225.97253521347656 883.156483644" stroke-miterlimit="10" stroke-width="1.2565541" stroke-dasharray="11.598960923076923,5.0262164"/><path fill="none" stroke="black" paint-order="fill stroke markers" d=" M 319.40821716063084 50.815047804 L 319.40821716063084 883.156483644" stroke-miterlimit="10" stroke-width="1.2565541" stroke-dasharray="11.598960923076923,5.0262164"/><path fill="none" stroke="black" paint-order="fill stroke markers" d=" M 476.60568569539646 50.815047804 L 476.60568569539646 883.156483644" stroke-miterlimit="10" stroke-width="1.2565541" stroke-dasharray="11.598960923076923,5.0262164"/><path fill="none" stroke="black" paint-order="fill stroke markers" d=" M 602.5285220436386 50.815047804 L 602.5285220436386 883.156483644" stroke-miterlimit="10" stroke-width="1.2565541" stroke-dasharray="11.598960923076923,5.0262164"/></g><g><path fill="none" stroke="none"/><g><path fill="white" stroke="black" paint-order="fill stroke markers" d=" M 41.53291161800001 10.253481456000003 L 109.253580382 10.253481456000003 L 109.253580382 50.815047804 L 41.53291161800001 50.815047804 L 41.53291161800001 10.253481456000003 Z" stroke-miterlimit="10" stroke-width="2.4125838720000004" stroke-dasharray=""/></g><g><text fill="black" stroke="none" font-family="sans-serif" font-size="11pt" font-style="normal" font-weight="normal" text-decoration="normal" x="57.893246000000005" y="35.736398604" text-anchor="start" dominant-baseline="alphabetic" xml:space="preserve">Main</text></g><path fill="none" stroke="none"/><g><path fill="white" stroke="black" paint-order="fill stroke markers" d=" M 192.89401922136915 10.253481456000003 L 259.051051205584 10.253481456000003 L 259.051051205584 50.815047804 L 192.89401922136915 50.815047804 L 192.89401922136915 10.253481456000003 Z" stroke-miterlimit="10" stroke-width="2.4125838720000004" stroke-dasharray=""/></g><g><text fill="black" stroke="none" font-family="sans-serif" font-size="11pt" font-style="normal" font-weight="normal" text-decoration="normal" x="209.25435360336914" y="35.736398604" text-anchor="start" dominant-baseline="alphabetic" xml:space="preserve">User</text></g><path fill="none" stroke="none"/><g><path fill="white" stroke="black" paint-order="fill stroke markers" d=" M 274.12970040558395 10.253481456000003 L 364.6867339156777 10.253481456000003 L 364.6867339156777 50.815047804 L 274.12970040558395 50.815047804 L 274.12970040558395 10.253481456000003 Z" stroke-miterlimit="10" stroke-width="2.4125838720000004" stroke-dasharray=""/></g><g><text fill="black" stroke="none" font-family="sans-serif" font-size="11pt" font-style="normal" font-weight="normal" text-decoration="normal" x="290.49003478758397" y="35.736398604" text-anchor="start" dominant-baseline="alphabetic" xml:space="preserve">Window</text></g><path fill="none" stroke="none"/><g><path fill="white" stroke="black" paint-order="fill stroke markers" d=" M 429.8908057201347 10.253481456000003 L 523.3205656706582 10.253481456000003 L 523.3205656706582 50.815047804 L 429.8908057201347 50.815047804 L 429.8908057201347 10.253481456000003 Z" stroke-miterlimit="10" stroke-width="2.4125838720000004" stroke-dasharray=""/></g><g><text fill="black" stroke="none" font-family="sans-serif" font-size="11pt" font-style="normal" font-weight="normal" text-decoration="normal" x="446.25114010213474" y="35.736398604" text-anchor="start" dominant-baseline="alphabetic" xml:space="preserve">Dialog 1</text></g><path fill="none" stroke="none"/><g><path fill="white" stroke="black" paint-order="fill stroke markers" d=" M 555.8136420683769 10.253481456000003 L 649.2434020189004 10.253481456000003 L 649.2434020189004 50.815047804 L 555.8136420683769 50.815047804 L 555.8136420683769 10.253481456000003 Z" stroke-miterlimit="10" stroke-width="2.4125838720000004" stroke-dasharray=""/></g><g><text fill="black" stroke="none" font-family="sans-serif" font-size="11pt" font-style="normal" font-weight="normal" text-decoration="normal" x="572.1739764503769" y="35.736398604" text-anchor="start" dominant-baseline="alphabetic" xml:space="preserve">Dialog 2</text></g></g><g><path fill="white" stroke="black" paint-order="fill stroke markers" d=" M 67.8539214 58.354372404 L 82.9325706 58.354372404 L 82.9325706 868.077834444 L 67.8539214 868.077834444 L 67.8539214 58.354372404" stroke-miterlimit="10" stroke-width="1.2565541" stroke-dasharray=""/><path fill="white" stroke="black" paint-order="fill stroke markers" d=" M 469.0663610953965 58.354372404 L 484.14501029539645 58.354372404 L 484.14501029539645 868.077834444 L 469.0663610953965 868.077834444 L 469.0663610953965 58.354372404" stroke-miterlimit="10" stroke-width="1.2565541" stroke-dasharray=""/><path fill="white" stroke="black" paint-order="fill stroke markers" d=" M 594.9891974436387 58.354372404 L 610.0678466436386 58.354372404 L 610.0678466436386 868.077834444 L 594.9891974436387 868.077834444 L 594.9891974436387 58.354372404" stroke-miterlimit="10" stroke-width="1.2565541" stroke-dasharray=""/><path fill="white" stroke="black" paint-order="fill stroke markers" d=" M 311.86889256063085 187.27682306399998 L 326.9475417606308 187.27682306399998 L 326.9475417606308 316.1992737240001 L 311.86889256063085 316.1992737240001 L 311.86889256063085 187.27682306399998" stroke-miterlimit="10" stroke-width="1.2565541" stroke-dasharray=""/><path fill="white" stroke="black" paint-order="fill stroke markers" d=" M 218.43321061347655 338.0633150640001 L 233.51185981347658 338.0633150640001 L 233.51185981347658 414.2104935240001 L 218.43321061347655 414.2104935240001 L 218.43321061347655 338.0633150640001" stroke-miterlimit="10" stroke-width="1.2565541" stroke-dasharray=""/><path fill="white" stroke="black" paint-order="fill stroke markers" d=" M 311.86889256063085 453.41498144400015 L 326.9475417606308 453.41498144400015 L 326.9475417606308 795.700318284 L 311.86889256063085 795.700318284 L 311.86889256063085 453.41498144400015" stroke-miterlimit="10" stroke-width="1.2565541" stroke-dasharray=""/><path fill="#ffffc0" stroke="black" paint-order="fill stroke markers" d=" M 421.5683040187656 130.73188856399997 L 518.0722830920273 130.73188856399997 L 531.6430673720273 144.30267284399997 L 531.6430673720273 165.41278172399998 L 421.5683040187656 165.41278172399998 L 421.5683040187656 130.73188856399997 M 518.0722830920273 130.73188856399997 L 518.0722830920273 144.30267284399997 L 531.6430673720273 144.30267284399997" stroke-miterlimit="10" stroke-width="1.2565541" stroke-dasharray=""/><g><text fill="black" stroke="none" font-family="sans-serif" font-size="11pt" font-style="normal" font-weight="normal" text-decoration="normal" x="442.6784128987656" y="151.841997444" text-anchor="start" dominant-baseline="alphabetic" xml:space="preserve">Focussed</text></g><g><g><rect fill="rgb(239,255,255)" stroke="none" x="163.88438898852345" y="167.67457910399997" width="67.03268518358398" height="19.602243960000003"/></g><text fill="black" stroke="none" font-family="sans-serif" font-size="11pt" font-style="normal" font-weight="normal" text-decoration="normal" x="166.14618636852344" y="181.24536338399997" text-anchor="start" dominant-baseline="alphabetic" xml:space="preserve">redraw()</text></g><g><path fill="none" stroke="black" paint-order="fill stroke markers" d=" M 82.9325706 187.27682306399998 L 309.3557843606309 187.27682306399998" stroke-miterlimit="10" stroke-width="1.2565541" stroke-dasharray=""/><g transform="translate(311.86889256063085,187.27682306399998) translate(-311.86889256063085,-187.27682306399998)"><path fill="black" stroke="none" paint-order="stroke fill markers" d=" M 299.30335156063086 180.994052564 L 311.86889256063085 187.27682306399998 L 299.30335156063086 193.55959356399998 Z"/></g></g><g><g><rect fill="rgb(239,255,255)" stroke="none" x="344.7906099806308" y="189.538620444" width="60.92359628587891" height="19.602243960000003"/></g><text fill="black" stroke="none" font-family="sans-serif" font-size="11pt" font-style="normal" font-weight="normal" text-decoration="normal" x="347.0524073606308" y="203.109404724" text-anchor="start" dominant-baseline="alphabetic" xml:space="preserve">reflow()</text></g><g><path fill="none" stroke="black" paint-order="fill stroke markers" d=" M 326.9475417606308 209.14086440399998 L 387.26213856063083 209.14086440399998 L 387.26213856063083 228.743108364 L 329.4606499606308 228.743108364" stroke-miterlimit="10" stroke-width="1.2565541" stroke-dasharray=""/><g transform="translate(326.9475417606308,228.743108364) translate(-326.9475417606308,-228.743108364)"><path fill="black" stroke="none" paint-order="stroke fill markers" d=" M 339.5130827606308 222.460337864 L 326.9475417606308 228.743108364 L 339.5130827606308 235.025878864 Z"/></g></g><g><g><rect fill="rgb(239,255,255)" stroke="none" x="368.05424561600677" y="231.00490574399998" width="59.905411624013674" height="19.602243960000003"/></g><text fill="black" stroke="none" font-family="sans-serif" font-size="11pt" font-style="normal" font-weight="normal" text-decoration="normal" x="370.3160429960068" y="244.57569002399998" text-anchor="start" dominant-baseline="alphabetic" xml:space="preserve">recalc()</text></g><g><path fill="none" stroke="black" paint-order="fill stroke markers" d=" M 326.9475417606308 250.607149704 L 466.5532528953965 250.607149704" stroke-miterlimit="10" stroke-width="1.2565541" stroke-dasharray=""/><g transform="translate(469.0663610953965,250.607149704) translate(-469.0663610953965,-250.607149704)"><path fill="black" stroke="none" paint-order="stroke fill markers" d=" M 456.5008200953965 244.324379204 L 469.0663610953965 250.607149704 L 456.5008200953965 256.889920204 Z"/></g></g><g><g><rect fill="rgb(239,255,255)" stroke="none" x="431.0156637901279" y="252.868947084" width="59.905411624013674" height="19.602243960000003"/></g><text fill="black" stroke="none" font-family="sans-serif" font-size="11pt" font-style="normal" font-weight="normal" text-decoration="normal" x="433.27746117012794" y="266.439731364" text-anchor="start" dominant-baseline="alphabetic" xml:space="preserve">recalc()</text></g><g><path fill="none" stroke="black" paint-order="fill stroke markers" d=" M 326.9475417606308 272.471191044 L 592.4760892436386 272.471191044" stroke-miterlimit="10" stroke-width="1.2565541" stroke-dasharray=""/><g transform="translate(594.9891974436387,272.471191044) translate(-594.9891974436387,-272.471191044)"><path fill="black" stroke="none" paint-order="stroke fill markers" d=" M 582.4236564436386 266.188420544 L 594.9891974436387 272.471191044 L 582.4236564436386 278.75396154400005 Z"/></g></g><g><g><rect fill="rgb(239,255,255)" stroke="none" x="363.95424523453704" y="274.73298842400004" width="68.10541238695312" height="19.602243960000003"/></g><text fill="black" stroke="none" font-family="sans-serif" font-size="11pt" font-style="normal" font-weight="normal" text-decoration="normal" x="366.21604261453706" y="288.30377270400004" text-anchor="start" dominant-baseline="alphabetic" xml:space="preserve">repaint()</text></g><g><path fill="none" stroke="black" paint-order="fill stroke markers" d=" M 326.9475417606308 294.33523238400005 L 466.5532528953965 294.33523238400005" stroke-miterlimit="10" stroke-width="1.2565541" stroke-dasharray=""/><g transform="translate(469.0663610953965,294.33523238400005) translate(-469.0663610953965,-294.33523238400005)"><path fill="black" stroke="none" paint-order="stroke fill markers" d=" M 456.5008200953965 288.052461884 L 469.0663610953965 294.33523238400005 L 456.5008200953965 300.6180028840001 Z"/></g></g><g><g><rect fill="rgb(239,255,255)" stroke="none" x="426.9156634086582" y="296.59702976400007" width="68.10541238695312" height="19.602243960000003"/></g><text fill="black" stroke="none" font-family="sans-serif" font-size="11pt" font-style="normal" font-weight="normal" text-decoration="normal" x="429.1774607886582" y="310.1678140440001" text-anchor="start" dominant-baseline="alphabetic" xml:space="preserve">repaint()</text></g><g><path fill="none" stroke="black" paint-order="fill stroke markers" d=" M 326.9475417606308 316.1992737240001 L 592.4760892436386 316.1992737240001" stroke-miterlimit="10" stroke-width="1.2565541" stroke-dasharray=""/><g transform="translate(594.9891974436387,316.1992737240001) translate(-594.9891974436387,-316.1992737240001)"><path fill="black" stroke="none" paint-order="stroke fill markers" d=" M 582.4236564436386 309.91650322400005 L 594.9891974436387 316.1992737240001 L 582.4236564436386 322.4820442240001 Z"/></g></g><g><g><rect fill="rgb(239,255,255)" stroke="none" x="100.77563882" y="318.4610711040001" width="99.81450357347656" height="19.602243960000003"/></g><text fill="black" stroke="none" font-family="sans-serif" font-size="11pt" font-style="normal" font-weight="normal" text-decoration="normal" x="103.0374362" y="332.0318553840001" text-anchor="start" dominant-baseline="alphabetic" xml:space="preserve">mutt_getch()</text></g><g><path fill="none" stroke="black" paint-order="fill stroke markers" d=" M 82.9325706 338.0633150640001 L 215.92010241347654 338.0633150640001" stroke-miterlimit="10" stroke-width="1.2565541" stroke-dasharray=""/><g transform="translate(218.43321061347655,338.0633150640001) translate(-218.43321061347655,-338.0633150640001)"><path fill="black" stroke="none" paint-order="stroke fill markers" d=" M 205.86766961347655 331.7805445640001 L 218.43321061347655 338.0633150640001 L 205.86766961347655 344.34608556400013 Z"/></g></g><path fill="#ffffc0" stroke="black" paint-order="fill stroke markers" d=" M 162.53515201096678 357.6655590240001 L 275.83913413598634 357.6655590240001 L 289.40991841598634 371.2363433040001 L 289.40991841598634 392.3464521840001 L 162.53515201096678 392.3464521840001 L 162.53515201096678 357.6655590240001 M 275.83913413598634 357.6655590240001 L 275.83913413598634 371.2363433040001 L 289.40991841598634 371.2363433040001" stroke-miterlimit="10" stroke-width="1.2565541" stroke-dasharray=""/><g><text fill="black" stroke="none" font-family="sans-serif" font-size="11pt" font-style="normal" font-weight="normal" text-decoration="normal" x="183.6452608909668" y="378.7756679040001" text-anchor="start" dominant-baseline="alphabetic" xml:space="preserve">Pressed: 'X'</text></g><g><g><rect fill="rgb(239,255,255)" stroke="none" x="139.35745644695314" y="394.6082495640001" width="22.650868319570314" height="19.602243960000003"/></g><text fill="black" stroke="none" font-family="sans-serif" font-size="11pt" font-style="normal" font-weight="normal" text-decoration="normal" x="141.61925382695313" y="408.1790338440002" text-anchor="start" dominant-baseline="alphabetic" xml:space="preserve">'X'</text></g><g><path fill="none" stroke="black" paint-order="fill stroke markers" d=" M 218.43321061347655 414.2104935240001 L 85.44567880000001 414.2104935240001" stroke-miterlimit="10" stroke-width="1.2565541" stroke-dasharray="6.03145968"/><g transform="translate(82.9325706,414.2104935240001) translate(-82.9325706,-414.2104935240001)"><path fill="black" stroke="none" paint-order="stroke fill markers" d=" M 95.4981116 407.9277230240001 L 82.9325706 414.2104935240001 L 95.4981116 420.49326402400015 Z"/></g></g><g><g><rect fill="rgb(239,255,255)" stroke="none" x="144.18439013293263" y="433.81273748400014" width="106.43268289476562" height="19.602243960000003"/></g><text fill="black" stroke="none" font-family="sans-serif" font-size="11pt" font-style="normal" font-weight="normal" text-decoration="normal" x="146.44618751293262" y="447.3835217640002" text-anchor="start" dominant-baseline="alphabetic" xml:space="preserve">key_press('X')</text></g><g><path fill="none" stroke="black" paint-order="fill stroke markers" d=" M 82.9325706 453.41498144400015 L 309.3557843606309 453.41498144400015" stroke-miterlimit="10" stroke-width="1.2565541" stroke-dasharray=""/><g transform="translate(311.86889256063085,453.41498144400015) translate(-311.86889256063085,-453.41498144400015)"><path fill="black" stroke="none" paint-order="stroke fill markers" d=" M 299.30335156063086 447.1322109440001 L 311.86889256063085 453.41498144400015 L 299.30335156063086 459.6977519440002 Z"/></g></g><g><g><rect fill="rgb(239,255,255)" stroke="none" x="344.7906099806308" y="455.6767788240001" width="86.52359476" height="19.602243960000003"/></g><text fill="black" stroke="none" font-family="sans-serif" font-size="11pt" font-style="normal" font-weight="normal" text-decoration="normal" x="347.0524073606308" y="469.24756310400016" text-anchor="start" dominant-baseline="alphabetic" xml:space="preserve">get_focus()</text></g><g><path fill="none" stroke="black" paint-order="fill stroke markers" d=" M 326.9475417606308 475.2790227840001 L 387.26213856063083 475.2790227840001 L 387.26213856063083 494.88126674400013 L 329.4606499606308 494.88126674400013" stroke-miterlimit="10" stroke-width="1.2565541" stroke-dasharray=""/><g transform="translate(326.9475417606308,494.88126674400013) translate(-326.9475417606308,-494.88126674400013)"><path fill="black" stroke="none" paint-order="stroke fill markers" d=" M 339.5130827606308 488.5984962440001 L 326.9475417606308 494.88126674400013 L 339.5130827606308 501.16403724400016 Z"/></g></g><g><g><rect fill="rgb(239,255,255)" stroke="none" x="344.7906099806308" y="497.14306412400015" width="106.43268289476562" height="19.602243960000003"/></g><text fill="black" stroke="none" font-family="sans-serif" font-size="11pt" font-style="normal" font-weight="normal" text-decoration="normal" x="347.0524073606308" y="510.71384840400015" text-anchor="start" dominant-baseline="alphabetic" xml:space="preserve">key_press('X')</text></g><g><path fill="none" stroke="black" paint-order="fill stroke markers" d=" M 326.9475417606308 516.7453080840002 L 466.5532528953965 516.7453080840002" stroke-miterlimit="10" stroke-width="1.2565541" stroke-dasharray=""/><g transform="translate(469.0663610953965,516.7453080840002) translate(-469.0663610953965,-516.7453080840002)"><path fill="black" stroke="none" paint-order="stroke fill markers" d=" M 456.5008200953965 510.46253758400013 L 469.0663610953965 516.7453080840002 L 456.5008200953965 523.0280785840001 Z"/></g></g><g><g><rect fill="rgb(239,255,255)" stroke="none" x="501.9880785153964" y="519.0071054640001" width="87.72359170824218" height="19.602243960000003"/></g><g><rect fill="rgb(239,255,255)" stroke="none" x="501.9880785153964" y="534.0857546640001" width="70.34177865892578" height="19.602243960000003"/></g><text fill="black" stroke="none" font-family="sans-serif" font-size="11pt" font-style="normal" font-weight="normal" text-decoration="normal" x="504.2498758953964" y="532.5778897440001" text-anchor="start" dominant-baseline="alphabetic" xml:space="preserve">lookup('X'):</text><text fill="red" stroke="none" font-family="sans-serif" font-size="11pt" font-style="normal" font-weight="normal" text-decoration="normal" x="504.2498758953964" y="547.6565389440001" text-anchor="start" dominant-baseline="alphabetic" xml:space="preserve">OP_NULL</text></g><g><path fill="none" stroke="black" paint-order="fill stroke markers" d=" M 484.14501029539645 553.6879986240001 L 544.4596070953964 553.6879986240001 L 544.4596070953964 573.2902425840001 L 486.6581184953964 573.2902425840001" stroke-miterlimit="10" stroke-width="1.2565541" stroke-dasharray=""/><g transform="translate(484.14501029539645,573.2902425840001) translate(-484.14501029539645,-573.2902425840001)"><path fill="black" stroke="none" paint-order="stroke fill markers" d=" M 496.71055129539644 567.0074720840001 L 484.14501029539645 573.2902425840001 L 496.71055129539644 579.5730130840001 Z"/></g></g><g><g><rect fill="rgb(239,255,255)" stroke="none" x="356.68151726822845" y="575.5520399640001" width="82.65086831957031" height="19.602243960000003"/></g><text fill="red" stroke="none" font-family="sans-serif" font-size="11pt" font-style="normal" font-weight="normal" text-decoration="normal" x="358.94331464822847" y="589.1228242440001" text-anchor="start" dominant-baseline="alphabetic" xml:space="preserve">NO MATCH</text></g><g><path fill="none" stroke="red" paint-order="fill stroke markers" d=" M 469.0663610953965 595.1542839240001 L 329.4606499606308 595.1542839240001" stroke-miterlimit="10" stroke-width="1.2565541" stroke-dasharray="6.03145968"/><g transform="translate(326.9475417606308,595.1542839240001) translate(-326.9475417606308,-595.1542839240001)"><path fill="red" stroke="none" paint-order="stroke fill markers" d=" M 339.5130827606308 588.8715134240001 L 326.9475417606308 595.1542839240001 L 339.5130827606308 601.437054424 Z"/></g></g><g><g><rect fill="rgb(239,255,255)" stroke="none" x="344.7906099806308" y="614.7565278840001" width="112.55995645433593" height="19.602243960000003"/></g><text fill="black" stroke="none" font-family="sans-serif" font-size="11pt" font-style="normal" font-weight="normal" text-decoration="normal" x="347.0524073606308" y="628.3273121640001" text-anchor="start" dominant-baseline="alphabetic" xml:space="preserve">get_next_win()</text></g><g><path fill="none" stroke="black" paint-order="fill stroke markers" d=" M 326.9475417606308 634.3587718440001 L 387.26213856063083 634.3587718440001 L 387.26213856063083 653.9610158040001 L 329.4606499606308 653.9610158040001" stroke-miterlimit="10" stroke-width="1.2565541" stroke-dasharray=""/><g transform="translate(326.9475417606308,653.9610158040001) translate(-326.9475417606308,-653.9610158040001)"><path fill="black" stroke="none" paint-order="stroke fill markers" d=" M 339.5130827606308 647.6782453040001 L 326.9475417606308 653.9610158040001 L 339.5130827606308 660.2437863040001 Z"/></g></g><g><g><rect fill="rgb(239,255,255)" stroke="none" x="407.75202815475194" y="656.2228131840001" width="106.43268289476562" height="19.602243960000003"/></g><text fill="black" stroke="none" font-family="sans-serif" font-size="11pt" font-style="normal" font-weight="normal" text-decoration="normal" x="410.01382553475196" y="669.7935974640001" text-anchor="start" dominant-baseline="alphabetic" xml:space="preserve">key_press('X')</text></g><g><path fill="none" stroke="black" paint-order="fill stroke markers" d=" M 326.9475417606308 675.8250571440001 L 592.4760892436386 675.8250571440001" stroke-miterlimit="10" stroke-width="1.2565541" stroke-dasharray=""/><g transform="translate(594.9891974436387,675.8250571440001) translate(-594.9891974436387,-675.8250571440001)"><path fill="black" stroke="none" paint-order="stroke fill markers" d=" M 582.4236564436386 669.5422866440001 L 594.9891974436387 675.8250571440001 L 582.4236564436386 682.107827644 Z"/></g></g><g><g><rect fill="rgb(239,255,255)" stroke="none" x="627.9109148636387" y="678.086854524" width="87.72359170824218" height="19.602243960000003"/></g><g><rect fill="rgb(239,255,255)" stroke="none" x="627.9109148636387" y="693.165503724" width="88.08723153978515" height="19.602243960000003"/></g><text fill="black" stroke="none" font-family="sans-serif" font-size="11pt" font-style="normal" font-weight="normal" text-decoration="normal" x="630.1727122436387" y="691.657638804" text-anchor="start" dominant-baseline="alphabetic" xml:space="preserve">lookup('X'):</text><text fill="black" stroke="none" font-family="sans-serif" font-size="11pt" font-style="normal" font-weight="normal" text-decoration="normal" x="630.1727122436387" y="706.736288004" text-anchor="start" dominant-baseline="alphabetic" xml:space="preserve">OP_ACTION</text></g><g><path fill="none" stroke="black" paint-order="fill stroke markers" d=" M 610.0678466436386 712.767747684 L 670.3824434436386 712.767747684 L 670.3824434436386 732.369991644 L 612.5809548436387 732.369991644" stroke-miterlimit="10" stroke-width="1.2565541" stroke-dasharray=""/><g transform="translate(610.0678466436386,732.369991644) translate(-610.0678466436386,-732.369991644)"><path fill="black" stroke="none" paint-order="stroke fill markers" d=" M 622.6333876436387 726.0872211440001 L 610.0678466436386 732.369991644 L 622.6333876436387 738.652762144 Z"/></g></g><g><g><rect fill="rgb(239,255,255)" stroke="none" x="627.9109148636387" y="734.631789024" width="127.03268899828124" height="19.602243960000003"/></g><text fill="black" stroke="none" font-family="sans-serif" font-size="11pt" font-style="normal" font-weight="normal" text-decoration="normal" x="630.1727122436387" y="748.202573304" text-anchor="start" dominant-baseline="alphabetic" xml:space="preserve">perform_action()</text></g><g><path fill="none" stroke="black" paint-order="fill stroke markers" d=" M 610.0678466436386 754.234032984 L 670.3824434436386 754.234032984 L 670.3824434436386 773.836276944 L 612.5809548436387 773.836276944" stroke-miterlimit="10" stroke-width="1.2565541" stroke-dasharray=""/><g transform="translate(610.0678466436386,773.836276944) translate(-610.0678466436386,-773.836276944)"><path fill="black" stroke="none" paint-order="stroke fill markers" d=" M 622.6333876436387 767.553506444 L 610.0678466436386 773.836276944 L 622.6333876436387 780.119047444 Z"/></g></g><g><g><rect fill="rgb(239,255,255)" stroke="none" x="399.4247538322422" y="776.098074324" width="123.08723153978515" height="19.602243960000003"/></g><text fill="black" stroke="none" font-family="sans-serif" font-size="11pt" font-style="normal" font-weight="normal" text-decoration="normal" x="401.6865512122422" y="789.668858604" text-anchor="start" dominant-baseline="alphabetic" xml:space="preserve">KEY CONSUMED</text></g><g><path fill="none" stroke="black" paint-order="fill stroke markers" d=" M 594.9891974436387 795.700318284 L 329.4606499606308 795.700318284" stroke-miterlimit="10" stroke-width="1.2565541" stroke-dasharray="6.03145968"/><g transform="translate(326.9475417606308,795.700318284) translate(-326.9475417606308,-795.700318284)"><path fill="black" stroke="none" paint-order="stroke fill markers" d=" M 339.5130827606308 789.417547784 L 326.9475417606308 795.700318284 L 339.5130827606308 801.983088784 Z"/></g></g><g><g/><path fill="none" stroke="black" paint-order="fill stroke markers" d=" M 15.078649200000001 93.03526556399999 L 760.2211310819199 93.03526556399999 L 760.2211310819199 830.381211444 L 15.078649200000001 830.381211444 L 15.078649200000001 93.03526556399999 Z" stroke-miterlimit="10" stroke-width="2.154092742857143" stroke-dasharray=""/><path fill="#b0ffff" stroke="black" paint-order="fill stroke markers" d=" M 15.078649200000001 93.03526556399999 L 15.078649200000001 111.12964460399999 L 73.76322077810059 111.12964460399999 L 82.81041029810059 102.08245508399999 L 82.81041029810059 93.03526556399999 L 15.078649200000001 93.03526556399999" stroke-miterlimit="10" stroke-width="2.154092742857143" stroke-dasharray=""/><text fill="black" stroke="none" font-family="sans-serif" font-size="8.8pt" font-style="normal" font-weight="bold" text-decoration="normal" x="30.157298400000002" y="105.098184924" text-anchor="start" dominant-baseline="alphabetic" xml:space="preserve">loop</text><text fill="black" stroke="none" font-family="sans-serif" font-size="8.8pt" font-style="normal" font-weight="bold" text-decoration="normal" x="97.8890594981006" y="105.098184924" text-anchor="start" dominant-baseline="alphabetic" xml:space="preserve">[Event Loop]</text></g></g></g></svg>