<svg version="1.1" xmlns="http://www.w3.org/2000/svg" xmlns:xlink="http://www.w3.org/1999/xlink" width="654" height="1113"><defs/><g><g/><g/><g/><g/><g/><g/><g/><g/><g/><g/><g/><g/><g/><g/><g/><g/><g/><g/><g/><g/><g/><g/><g/><g/><g/><g/><g/><g/><g/><g/><g/><g/><g><rect fill="white" stroke="none" x="0" y="0" width="654" height="1113"/></g><g><rect fill="rgb(239,255,255)" stroke="none" x="15.078649200000001" y="93.03526556399999" width="624.3765627065918" height="967.2953461799998"/></g><g><path fill="none" stroke="black" paint-order="fill stroke markers" d=" M 75.393246 50.815047804 L 75.393246 1113.1058839439997" stroke-miterlimit="10" stroke-width="1.2565541" stroke-dasharray="11.598960923076923,5.0262164"/><path fill="none" stroke="black" paint-order="fill stroke markers" d=" M 225.97253521347656 50.815047804 L 225.97253521347656 1113.1058839439997" stroke-miterlimit="10" stroke-width="1.2565541" stroke-dasharray="11.598960923076923,5.0262164"/><path fill="none" stroke="black" paint-order="fill stroke markers" d=" M 321.61968450444334 50.815047804 L 321.61968450444334 1113.1058839439997" stroke-miterlimit="10" stroke-width="1.2565541" stroke-dasharray="11.598960923076923,5.0262164"/><path fill="none" stroke="black" paint-order="fill stroke markers" d=" M 497.83533388637693 50.815047804 L 497.83533388637693 1113.1058839439997" stroke-miterlimit="10" stroke-width="1.2565541" stroke-dasharray="11.598960923076923,5.0262164"/></g><g><path fill="none" stroke="none"/><g><path fill="white" stroke="black" paint-order="fill stroke markers" d=" M 41.53291161800001 10.253481456000003 L 109.253580382 10.253481456000003 L 109.253580382 50.815047804 L 41.53291161800001 50.815047804 L 41.53291161800001 10.253481456000003 Z" stroke-miterlimit="10" stroke-width="2.4125838720000004" stroke-dasharray=""/></g><g><text fill="black" stroke="none" font-family="sans-serif" font-size="11pt" font-style="normal" font-weight="normal" text-decoration="normal" x="57.893246000000005" y="35.736398604" text-anchor="start" dominant-baseline="alphabetic" xml:space="preserve">Main</text></g><path fill="none" stroke="none"/><g><path fill="white" stroke="black" paint-order="fill stroke markers" d=" M 192.89401922136915 10.253481456000003 L 259.051051205584 10.253481456000003 L 259.051051205584 50.815047804 L 192.89401922136915 50.815047804 L 192.89401922136915 10.253481456000003 Z" stroke-miterlimit="10" stroke-width="2.4125838720000004" stroke-dasharray=""/></g><g><text fill="black" stroke="none" font-family="sans-serif" font-size="11pt" font-style="normal" font-weight="normal" text-decoration="normal" x="209.25435360336914" y="35.736398604" text-anchor="start" dominant-baseline="alphabetic" xml:space="preserve">User</text></g><path fill="none" stroke="none"/><g><path fill="white" stroke="black" paint-order="fill stroke markers" d=" M 276.34116774939645 10.253481456000003 L 366.8982012594902 10.253481456000003 L 366.8982012594902 50.815047804 L 276.34116774939645 50.815047804 L 276.34116774939645 10.253481456000003 Z" stroke-miterlimit="10" stroke-width="2.4125838720000004" stroke-dasharray=""/></g><g><text fill="black" stroke="none" font-family="sans-serif" font-size="11pt" font-style="normal" font-weight="normal" text-decoration="normal" x="292.70150213139647" y="35.736398604" text-anchor="start" dominant-baseline="alphabetic" xml:space="preserve">Window</text></g><path fill="none" stroke="none"/><g><path fill="white" stroke="black" paint-order="fill stroke markers" d=" M 458.1204539111152 10.253481456000003 L 537.5502138616387 10.253481456000003 L 537.5502138616387 50.815047804 L 458.1204539111152 50.815047804 L 458.1204539111152 10.253481456000003 Z" stroke-miterlimit="10" stroke-width="2.4125838720000004" stroke-dasharray=""/></g><g><text fill="black" stroke="none" font-family="sans-serif" font-size="11pt" font-style="normal" font-weight="normal" text-decoration="normal" x="474.4807882931152" y="35.736398604" text-anchor="start" dominant-baseline="alphabetic" xml:space="preserve">Dialog</text></g></g><g><path fill="white" stroke="black" paint-order="fill stroke markers" d=" M 67.8539214 58.354372404 L 82.9325706 58.354372404 L 82.9325706 1098.0272347439998 L 67.8539214 1098.0272347439998 L 67.8539214 58.354372404" stroke-miterlimit="10" stroke-width="1.2565541" stroke-dasharray=""/><path fill="white" stroke="black" paint-order="fill stroke markers" d=" M 490.29600928637694 58.354372404 L 505.3746584863769 58.354372404 L 505.3746584863769 1098.0272347439998 L 490.29600928637694 1098.0272347439998 L 490.29600928637694 58.354372404" stroke-miterlimit="10" stroke-width="1.2565541" stroke-dasharray=""/><path fill="white" stroke="black" paint-order="fill stroke markers" d=" M 218.43321061347655 132.993685944 L 233.51185981347658 132.993685944 L 233.51185981347658 209.14086440399998 L 218.43321061347655 209.14086440399998 L 218.43321061347655 132.993685944" stroke-miterlimit="10" stroke-width="1.2565541" stroke-dasharray=""/><path fill="white" stroke="black" paint-order="fill stroke markers" d=" M 314.08035990444336 248.34535232399998 L 329.1590091044433 248.34535232399998 L 329.1590091044433 370.48241084400007 L 314.08035990444336 370.48241084400007 L 314.08035990444336 248.34535232399998" stroke-miterlimit="10" stroke-width="1.2565541" stroke-dasharray=""/><path fill="white" stroke="black" paint-order="fill stroke markers" d=" M 218.43321061347655 424.7655479640001 L 233.51185981347658 424.7655479640001 L 233.51185981347658 500.91272642400014 L 218.43321061347655 500.91272642400014 L 218.43321061347655 424.7655479640001" stroke-miterlimit="10" stroke-width="1.2565541" stroke-dasharray=""/><path fill="white" stroke="black" paint-order="fill stroke markers" d=" M 314.08035990444336 555.1958635440001 L 329.1590091044433 555.1958635440001 L 329.1590091044433 677.332922064 L 314.08035990444336 677.332922064 L 314.08035990444336 555.1958635440001" stroke-miterlimit="10" stroke-width="1.2565541" stroke-dasharray=""/><path fill="white" stroke="black" paint-order="fill stroke markers" d=" M 218.43321061347655 731.6160591839999 L 233.51185981347658 731.6160591839999 L 233.51185981347658 807.763237644 L 218.43321061347655 807.763237644 L 218.43321061347655 731.6160591839999" stroke-miterlimit="10" stroke-width="1.2565541" stroke-dasharray=""/><path fill="white" stroke="black" paint-order="fill stroke markers" d=" M 314.08035990444336 862.046374764 L 329.1590091044433 862.046374764 L 329.1590091044433 1025.6497185839999 L 314.08035990444336 1025.6497185839999 L 314.08035990444336 862.046374764" stroke-miterlimit="10" stroke-width="1.2565541" stroke-dasharray=""/><g><g><rect fill="rgb(239,255,255)" stroke="none" x="100.77563882" y="113.39144198399998" width="99.81450357347656" height="19.602243960000003"/></g><text fill="black" stroke="none" font-family="sans-serif" font-size="11pt" font-style="normal" font-weight="normal" text-decoration="normal" x="103.0374362" y="126.96222626399998" text-anchor="start" dominant-baseline="alphabetic" xml:space="preserve">mutt_getch()</text></g><g><path fill="none" stroke="black" paint-order="fill stroke markers" d=" M 82.9325706 132.993685944 L 215.92010241347654 132.993685944" stroke-miterlimit="10" stroke-width="1.2565541" stroke-dasharray=""/><g transform="translate(218.43321061347655,132.993685944) translate(-218.43321061347655,-132.993685944)"><path fill="black" stroke="none" paint-order="stroke fill markers" d=" M 205.86766961347655 126.710915444 L 218.43321061347655 132.993685944 L 205.86766961347655 139.276456444 Z"/></g></g><path fill="#ffffc0" stroke="black" paint-order="fill stroke markers" d=" M 162.53515201096678 152.59592990399997 L 275.83913413598634 152.59592990399997 L 289.40991841598634 166.16671418399997 L 289.40991841598634 187.27682306399998 L 162.53515201096678 187.27682306399998 L 162.53515201096678 152.59592990399997 M 275.83913413598634 152.59592990399997 L 275.83913413598634 166.16671418399997 L 289.40991841598634 166.16671418399997" stroke-miterlimit="10" stroke-width="1.2565541" stroke-dasharray=""/><g><text fill="black" stroke="none" font-family="sans-serif" font-size="11pt" font-style="normal" font-weight="normal" text-decoration="normal" x="183.6452608909668" y="173.706038784" text-anchor="start" dominant-baseline="alphabetic" xml:space="preserve">Pressed: 'X'</text></g><g><g><rect fill="rgb(239,255,255)" stroke="none" x="139.35745644695314" y="189.53862044399997" width="22.650868319570314" height="19.602243960000003"/></g><text fill="black" stroke="none" font-family="sans-serif" font-size="11pt" font-style="normal" font-weight="normal" text-decoration="normal" x="141.61925382695313" y="203.10940472399997" text-anchor="start" dominant-baseline="alphabetic" xml:space="preserve">'X'</text></g><g><path fill="none" stroke="black" paint-order="fill stroke markers" d=" M 218.43321061347655 209.14086440399998 L 85.44567880000001 209.14086440399998" stroke-miterlimit="10" stroke-width="1.2565541" stroke-dasharray="6.03145968"/><g transform="translate(82.9325706,209.14086440399998) translate(-82.9325706,-209.14086440399998)"><path fill="black" stroke="none" paint-order="stroke fill markers" d=" M 95.4981116 202.858093904 L 82.9325706 209.14086440399998 L 95.4981116 215.42363490399998 Z"/></g></g><g><g><rect fill="rgb(239,255,255)" stroke="none" x="145.29012380483888" y="228.74310836399997" width="106.43268289476562" height="19.602243960000003"/></g><text fill="black" stroke="none" font-family="sans-serif" font-size="11pt" font-style="normal" font-weight="normal" text-decoration="normal" x="147.55192118483887" y="242.31389264399996" text-anchor="start" dominant-baseline="alphabetic" xml:space="preserve">key_press('X')</text></g><g><path fill="none" stroke="black" paint-order="fill stroke markers" d=" M 82.9325706 248.34535232399998 L 311.5672517044434 248.34535232399998" stroke-miterlimit="10" stroke-width="1.2565541" stroke-dasharray=""/><g transform="translate(314.08035990444336,248.34535232399998) translate(-314.08035990444336,-248.34535232399998)"><path fill="black" stroke="none" paint-order="stroke fill markers" d=" M 301.51481890444336 242.06258182399998 L 314.08035990444336 248.34535232399998 L 301.51481890444336 254.62812282399997 Z"/></g></g><g><g><rect fill="rgb(239,255,255)" stroke="none" x="356.5111677480273" y="250.607149704" width="106.43268289476562" height="19.602243960000003"/></g><text fill="black" stroke="none" font-family="sans-serif" font-size="11pt" font-style="normal" font-weight="normal" text-decoration="normal" x="358.7729651280273" y="264.177933984" text-anchor="start" dominant-baseline="alphabetic" xml:space="preserve">key_press('X')</text></g><g><path fill="none" stroke="black" paint-order="fill stroke markers" d=" M 329.1590091044433 270.209393664 L 487.78290108637697 270.209393664" stroke-miterlimit="10" stroke-width="1.2565541" stroke-dasharray=""/><g transform="translate(490.29600928637694,270.209393664) translate(-490.29600928637694,-270.209393664)"><path fill="black" stroke="none" paint-order="stroke fill markers" d=" M 477.73046828637695 263.926623164 L 490.29600928637694 270.209393664 L 477.73046828637695 276.49216416400003 Z"/></g></g><g><g><rect fill="rgb(239,255,255)" stroke="none" x="523.217726706377" y="272.471191044" width="87.72359170824218" height="19.602243960000003"/></g><g><rect fill="rgb(239,255,255)" stroke="none" x="523.217726706377" y="287.54984024400005" width="70.34177865892578" height="19.602243960000003"/></g><text fill="black" stroke="none" font-family="sans-serif" font-size="11pt" font-style="normal" font-weight="normal" text-decoration="normal" x="525.479524086377" y="286.0419753240001" text-anchor="start" dominant-baseline="alphabetic" xml:space="preserve">lookup('X'):</text><text fill="red" stroke="none" font-family="sans-serif" font-size="11pt" font-style="normal" font-weight="normal" text-decoration="normal" x="525.479524086377" y="301.12062452400005" text-anchor="start" dominant-baseline="alphabetic" xml:space="preserve">OP_NULL</text></g><g><path fill="none" stroke="black" paint-order="fill stroke markers" d=" M 505.3746584863769 307.152084204 L 565.6892552863769 307.152084204 L 565.6892552863769 326.754328164 L 507.8877666863769 326.754328164" stroke-miterlimit="10" stroke-width="1.2565541" stroke-dasharray=""/><g transform="translate(505.3746584863769,326.754328164) translate(-505.3746584863769,-326.754328164)"><path fill="black" stroke="none" paint-order="stroke fill markers" d=" M 517.940199486377 320.471557664 L 505.3746584863769 326.754328164 L 517.940199486377 333.03709866400004 Z"/></g></g><g><g><rect fill="rgb(239,255,255)" stroke="none" x="349.15662215476556" y="329.01612554400003" width="121.14177408128906" height="19.602243960000003"/></g><text fill="red" stroke="none" font-family="sans-serif" font-size="11pt" font-style="normal" font-weight="normal" text-decoration="normal" x="351.4184195347656" y="342.58690982400003" text-anchor="start" dominant-baseline="alphabetic" xml:space="preserve">LONGER MATCH</text></g><g><path fill="none" stroke="red" paint-order="fill stroke markers" d=" M 490.29600928637694 348.61836950400004 L 331.6721173044433 348.61836950400004" stroke-miterlimit="10" stroke-width="1.2565541" stroke-dasharray="6.03145968"/><g transform="translate(329.1590091044433,348.61836950400004) translate(-329.1590091044433,-348.61836950400004)"><path fill="red" stroke="none" paint-order="stroke fill markers" d=" M 341.7245501044433 342.335599004 L 329.1590091044433 348.61836950400004 L 341.7245501044433 354.90114000400007 Z"/></g></g><g><g><rect fill="rgb(239,255,255)" stroke="none" x="137.93557821157717" y="350.88016688400006" width="121.14177408128906" height="19.602243960000003"/></g><text fill="red" stroke="none" font-family="sans-serif" font-size="11pt" font-style="normal" font-weight="normal" text-decoration="normal" x="140.19737559157716" y="364.4509511640001" text-anchor="start" dominant-baseline="alphabetic" xml:space="preserve">LONGER MATCH</text></g><g><path fill="none" stroke="red" paint-order="fill stroke markers" d=" M 314.08035990444336 370.48241084400007 L 85.44567880000001 370.48241084400007" stroke-miterlimit="10" stroke-width="1.2565541" stroke-dasharray="6.03145968"/><g transform="translate(82.9325706,370.48241084400007) translate(-82.9325706,-370.48241084400007)"><path fill="red" stroke="none" paint-order="stroke fill markers" d=" M 95.4981116 364.19964034400004 L 82.9325706 370.48241084400007 L 95.4981116 376.7651813440001 Z"/></g></g><g><g><rect fill="rgb(239,255,255)" stroke="none" x="100.77563882" y="405.1633040040001" width="99.81450357347656" height="19.602243960000003"/></g><text fill="black" stroke="none" font-family="sans-serif" font-size="11pt" font-style="normal" font-weight="normal" text-decoration="normal" x="103.0374362" y="418.7340882840001" text-anchor="start" dominant-baseline="alphabetic" xml:space="preserve">mutt_getch()</text></g><g><path fill="none" stroke="black" paint-order="fill stroke markers" d=" M 82.9325706 424.7655479640001 L 215.92010241347654 424.7655479640001" stroke-miterlimit="10" stroke-width="1.2565541" stroke-dasharray=""/><g transform="translate(218.43321061347655,424.7655479640001) translate(-218.43321061347655,-424.7655479640001)"><path fill="black" stroke="none" paint-order="stroke fill markers" d=" M 205.86766961347655 418.4827774640001 L 218.43321061347655 424.7655479640001 L 205.86766961347655 431.04831846400015 Z"/></g></g><path fill="#ffffc0" stroke="black" paint-order="fill stroke markers" d=" M 163.08060794358397 444.36779192400013 L 275.29367820336915 444.36779192400013 L 288.86446248336915 457.9385762040001 L 288.86446248336915 479.0486850840001 L 163.08060794358397 479.0486850840001 L 163.08060794358397 444.36779192400013 M 275.29367820336915 444.36779192400013 L 275.29367820336915 457.9385762040001 L 288.86446248336915 457.9385762040001" stroke-miterlimit="10" stroke-width="1.2565541" stroke-dasharray=""/><g><text fill="black" stroke="none" font-family="sans-serif" font-size="11pt" font-style="normal" font-weight="normal" text-decoration="normal" x="184.19071682358398" y="465.4779008040001" text-anchor="start" dominant-baseline="alphabetic" xml:space="preserve">Pressed: 'Y'</text></g><g><g><rect fill="rgb(239,255,255)" stroke="none" x="139.902911425896" y="481.31048246400013" width="21.559958361684572" height="19.602243960000003"/></g><text fill="black" stroke="none" font-family="sans-serif" font-size="11pt" font-style="normal" font-weight="normal" text-decoration="normal" x="142.164708805896" y="494.8812667440002" text-anchor="start" dominant-baseline="alphabetic" xml:space="preserve">'Y'</text></g><g><path fill="none" stroke="black" paint-order="fill stroke markers" d=" M 218.43321061347655 500.91272642400014 L 85.44567880000001 500.91272642400014" stroke-miterlimit="10" stroke-width="1.2565541" stroke-dasharray="6.03145968"/><g transform="translate(82.9325706,500.91272642400014) translate(-82.9325706,-500.91272642400014)"><path fill="black" stroke="none" paint-order="stroke fill markers" d=" M 95.4981116 494.6299559240001 L 82.9325706 500.91272642400014 L 95.4981116 507.19549692400017 Z"/></g></g><g><g><rect fill="rgb(239,255,255)" stroke="none" x="140.80830465200685" y="535.5936195840001" width="115.39632120042968" height="19.602243960000003"/></g><text fill="black" stroke="none" font-family="sans-serif" font-size="11pt" font-style="normal" font-weight="normal" text-decoration="normal" x="143.07010203200684" y="549.1644038640001" text-anchor="start" dominant-baseline="alphabetic" xml:space="preserve">key_press('XY')</text></g><g><path fill="none" stroke="black" paint-order="fill stroke markers" d=" M 82.9325706 555.1958635440001 L 311.5672517044434 555.1958635440001" stroke-miterlimit="10" stroke-width="1.2565541" stroke-dasharray=""/><g transform="translate(314.08035990444336,555.1958635440001) translate(-314.08035990444336,-555.1958635440001)"><path fill="black" stroke="none" paint-order="stroke fill markers" d=" M 301.51481890444336 548.9130930440001 L 314.08035990444336 555.1958635440001 L 301.51481890444336 561.478634044 Z"/></g></g><g><g><rect fill="rgb(239,255,255)" stroke="none" x="352.02934859519524" y="557.457660924" width="115.39632120042968" height="19.602243960000003"/></g><text fill="black" stroke="none" font-family="sans-serif" font-size="11pt" font-style="normal" font-weight="normal" text-decoration="normal" x="354.29114597519526" y="571.028445204" text-anchor="start" dominant-baseline="alphabetic" xml:space="preserve">key_press('XY')</text></g><g><path fill="none" stroke="black" paint-order="fill stroke markers" d=" M 329.1590091044433 577.059904884 L 487.78290108637697 577.059904884" stroke-miterlimit="10" stroke-width="1.2565541" stroke-dasharray=""/><g transform="translate(490.29600928637694,577.059904884) translate(-490.29600928637694,-577.059904884)"><path fill="black" stroke="none" paint-order="stroke fill markers" d=" M 477.73046828637695 570.7771343840001 L 490.29600928637694 577.059904884 L 477.73046828637695 583.342675384 Z"/></g></g><g><g><rect fill="rgb(239,255,255)" stroke="none" x="523.217726706377" y="579.321702264" width="96.68723001390624" height="19.602243960000003"/></g><g><rect fill="rgb(239,255,255)" stroke="none" x="523.217726706377" y="594.400351464" width="70.34177865892578" height="19.602243960000003"/></g><text fill="black" stroke="none" font-family="sans-serif" font-size="11pt" font-style="normal" font-weight="normal" text-decoration="normal" x="525.479524086377" y="592.892486544" text-anchor="start" dominant-baseline="alphabetic" xml:space="preserve">lookup('XY'):</text><text fill="red" stroke="none" font-family="sans-serif" font-size="11pt" font-style="normal" font-weight="normal" text-decoration="normal" x="525.479524086377" y="607.971135744" text-anchor="start" dominant-baseline="alphabetic" xml:space="preserve">OP_NULL</text></g><g><path fill="none" stroke="black" paint-order="fill stroke markers" d=" M 505.3746584863769 614.002595424 L 565.6892552863769 614.002595424 L 565.6892552863769 633.604839384 L 507.8877666863769 633.604839384" stroke-miterlimit="10" stroke-width="1.2565541" stroke-dasharray=""/><g transform="translate(505.3746584863769,633.604839384) translate(-505.3746584863769,-633.604839384)"><path fill="black" stroke="none" paint-order="stroke fill markers" d=" M 517.940199486377 627.322068884 L 505.3746584863769 633.604839384 L 517.940199486377 639.887609884 Z"/></g></g><g><g><rect fill="rgb(239,255,255)" stroke="none" x="349.15662215476556" y="635.866636764" width="121.14177408128906" height="19.602243960000003"/></g><text fill="red" stroke="none" font-family="sans-serif" font-size="11pt" font-style="normal" font-weight="normal" text-decoration="normal" x="351.4184195347656" y="649.437421044" text-anchor="start" dominant-baseline="alphabetic" xml:space="preserve">LONGER MATCH</text></g><g><path fill="none" stroke="red" paint-order="fill stroke markers" d=" M 490.29600928637694 655.468880724 L 331.6721173044433 655.468880724" stroke-miterlimit="10" stroke-width="1.2565541" stroke-dasharray="6.03145968"/><g transform="translate(329.1590091044433,655.468880724) translate(-329.1590091044433,-655.468880724)"><path fill="red" stroke="none" paint-order="stroke fill markers" d=" M 341.7245501044433 649.186110224 L 329.1590091044433 655.468880724 L 341.7245501044433 661.7516512239999 Z"/></g></g><g><g><rect fill="rgb(239,255,255)" stroke="none" x="137.93557821157717" y="657.7306781039999" width="121.14177408128906" height="19.602243960000003"/></g><text fill="red" stroke="none" font-family="sans-serif" font-size="11pt" font-style="normal" font-weight="normal" text-decoration="normal" x="140.19737559157716" y="671.3014623839999" text-anchor="start" dominant-baseline="alphabetic" xml:space="preserve">LONGER MATCH</text></g><g><path fill="none" stroke="red" paint-order="fill stroke markers" d=" M 314.08035990444336 677.332922064 L 85.44567880000001 677.332922064" stroke-miterlimit="10" stroke-width="1.2565541" stroke-dasharray="6.03145968"/><g transform="translate(82.9325706,677.332922064) translate(-82.9325706,-677.332922064)"><path fill="red" stroke="none" paint-order="stroke fill markers" d=" M 95.4981116 671.050151564 L 82.9325706 677.332922064 L 95.4981116 683.6156925639999 Z"/></g></g><g><g><rect fill="rgb(239,255,255)" stroke="none" x="100.77563882" y="712.0138152239999" width="99.81450357347656" height="19.602243960000003"/></g><text fill="black" stroke="none" font-family="sans-serif" font-size="11pt" font-style="normal" font-weight="normal" text-decoration="normal" x="103.0374362" y="725.5845995039999" text-anchor="start" dominant-baseline="alphabetic" xml:space="preserve">mutt_getch()</text></g><g><path fill="none" stroke="black" paint-order="fill stroke markers" d=" M 82.9325706 731.6160591839999 L 215.92010241347654 731.6160591839999" stroke-miterlimit="10" stroke-width="1.2565541" stroke-dasharray=""/><g transform="translate(218.43321061347655,731.6160591839999) translate(-218.43321061347655,-731.6160591839999)"><path fill="black" stroke="none" paint-order="stroke fill markers" d=" M 205.86766961347655 725.333288684 L 218.43321061347655 731.6160591839999 L 205.86766961347655 737.8988296839999 Z"/></g></g><path fill="#ffffc0" stroke="black" paint-order="fill stroke markers" d=" M 162.53515201096678 751.2183031440001 L 275.83913413598634 751.2183031440001 L 289.40991841598634 764.7890874240001 L 289.40991841598634 785.899196304 L 162.53515201096678 785.899196304 L 162.53515201096678 751.2183031440001 M 275.83913413598634 751.2183031440001 L 275.83913413598634 764.7890874240001 L 289.40991841598634 764.7890874240001" stroke-miterlimit="10" stroke-width="1.2565541" stroke-dasharray=""/><g><text fill="black" stroke="none" font-family="sans-serif" font-size="11pt" font-style="normal" font-weight="normal" text-decoration="normal" x="183.6452608909668" y="772.328412024" text-anchor="start" dominant-baseline="alphabetic" xml:space="preserve">Pressed: 'Z'</text></g><g><g><rect fill="rgb(239,255,255)" stroke="none" x="139.35745644695314" y="788.160993684" width="22.650868319570314" height="19.602243960000003"/></g><text fill="black" stroke="none" font-family="sans-serif" font-size="11pt" font-style="normal" font-weight="normal" text-decoration="normal" x="141.61925382695313" y="801.731777964" text-anchor="start" dominant-baseline="alphabetic" xml:space="preserve">'Z'</text></g><g><path fill="none" stroke="black" paint-order="fill stroke markers" d=" M 218.43321061347655 807.763237644 L 85.44567880000001 807.763237644" stroke-miterlimit="10" stroke-width="1.2565541" stroke-dasharray="6.03145968"/><g transform="translate(82.9325706,807.763237644) translate(-82.9325706,-807.763237644)"><path fill="black" stroke="none" paint-order="stroke fill markers" d=" M 95.4981116 801.480467144 L 82.9325706 807.763237644 L 95.4981116 814.046008144 Z"/></g></g><g><g><rect fill="rgb(239,255,255)" stroke="none" x="135.7810333812549" y="842.444130804" width="125.45086374193359" height="19.602243960000003"/></g><text fill="black" stroke="none" font-family="sans-serif" font-size="11pt" font-style="normal" font-weight="normal" text-decoration="normal" x="138.0428307612549" y="856.014915084" text-anchor="start" dominant-baseline="alphabetic" xml:space="preserve">key_press('XYZ')</text></g><g><path fill="none" stroke="black" paint-order="fill stroke markers" d=" M 82.9325706 862.046374764 L 311.5672517044434 862.046374764" stroke-miterlimit="10" stroke-width="1.2565541" stroke-dasharray=""/><g transform="translate(314.08035990444336,862.046374764) translate(-314.08035990444336,-862.046374764)"><path fill="black" stroke="none" paint-order="stroke fill markers" d=" M 301.51481890444336 855.763604264 L 314.08035990444336 862.046374764 L 301.51481890444336 868.329145264 Z"/></g></g><g><g><rect fill="rgb(239,255,255)" stroke="none" x="347.0020773244433" y="864.308172144" width="125.45086374193359" height="19.602243960000003"/></g><text fill="black" stroke="none" font-family="sans-serif" font-size="11pt" font-style="normal" font-weight="normal" text-decoration="normal" x="349.2638747044433" y="877.878956424" text-anchor="start" dominant-baseline="alphabetic" xml:space="preserve">key_press('XYZ')</text></g><g><path fill="none" stroke="black" paint-order="fill stroke markers" d=" M 329.1590091044433 883.910416104 L 487.78290108637697 883.910416104" stroke-miterlimit="10" stroke-width="1.2565541" stroke-dasharray=""/><g transform="translate(490.29600928637694,883.910416104) translate(-490.29600928637694,-883.910416104)"><path fill="black" stroke="none" paint-order="stroke fill markers" d=" M 477.73046828637695 877.627645604 L 490.29600928637694 883.910416104 L 477.73046828637695 890.193186604 Z"/></g></g><g><g><rect fill="rgb(239,255,255)" stroke="none" x="523.217726706377" y="886.1722134839999" width="106.74178018480468" height="19.602243960000003"/></g><g><rect fill="rgb(239,255,255)" stroke="none" x="523.217726706377" y="901.2508626839999" width="61.32359399706055" height="19.602243960000003"/></g><text fill="black" stroke="none" font-family="sans-serif" font-size="11pt" font-style="normal" font-weight="normal" text-decoration="normal" x="525.479524086377" y="899.7429977639999" text-anchor="start" dominant-baseline="alphabetic" xml:space="preserve">lookup('XYZ'):</text><text fill="red" stroke="none" font-family="sans-serif" font-size="11pt" font-style="normal" font-weight="normal" text-decoration="normal" x="525.479524086377" y="914.8216469639999" text-anchor="start" dominant-baseline="alphabetic" xml:space="preserve">OP_XYZ</text></g><g><path fill="none" stroke="black" paint-order="fill stroke markers" d=" M 505.3746584863769 920.8531066439999 L 565.6892552863769 920.8531066439999 L 565.6892552863769 940.4553506039999 L 507.8877666863769 940.4553506039999" stroke-miterlimit="10" stroke-width="1.2565541" stroke-dasharray=""/><g transform="translate(505.3746584863769,940.4553506039999) translate(-505.3746584863769,-940.4553506039999)"><path fill="black" stroke="none" paint-order="stroke fill markers" d=" M 517.940199486377 934.172580104 L 505.3746584863769 940.4553506039999 L 517.940199486377 946.7381211039999 Z"/></g></g><g><g><rect fill="rgb(239,255,255)" stroke="none" x="523.217726706377" y="942.7171479839999" width="110.95995798021484" height="19.602243960000003"/></g><text fill="black" stroke="none" font-family="sans-serif" font-size="11pt" font-style="normal" font-weight="normal" text-decoration="normal" x="525.479524086377" y="956.2879322639999" text-anchor="start" dominant-baseline="alphabetic" xml:space="preserve">perform_XYZ()</text></g><g><path fill="none" stroke="black" paint-order="fill stroke markers" d=" M 505.3746584863769 962.3193919439999 L 565.6892552863769 962.3193919439999 L 565.6892552863769 981.9216359039999 L 507.8877666863769 981.9216359039999" stroke-miterlimit="10" stroke-width="1.2565541" stroke-dasharray=""/><g transform="translate(505.3746584863769,981.9216359039999) translate(-505.3746584863769,-981.9216359039999)"><path fill="black" stroke="none" paint-order="stroke fill markers" d=" M 517.940199486377 975.638865404 L 505.3746584863769 981.9216359039999 L 517.940199486377 988.2044064039999 Z"/></g></g><g><g><rect fill="rgb(239,255,255)" stroke="none" x="348.1838934255175" y="984.1834332839999" width="123.08723153978515" height="19.602243960000003"/></g><text fill="black" stroke="none" font-family="sans-serif" font-size="11pt" font-style="normal" font-weight="normal" text-decoration="normal" x="350.44569080551753" y="997.7542175639999" text-anchor="start" dominant-baseline="alphabetic" xml:space="preserve">KEY CONSUMED</text></g><g><path fill="none" stroke="black" paint-order="fill stroke markers" d=" M 490.29600928637694 1003.7856772439999 L 331.6721173044433 1003.7856772439999" stroke-miterlimit="10" stroke-width="1.2565541" stroke-dasharray="6.03145968"/><g transform="translate(329.1590091044433,1003.7856772439999) translate(-329.1590091044433,-1003.7856772439999)"><path fill="black" stroke="none" paint-order="stroke fill markers" d=" M 341.7245501044433 997.5029067439999 L 329.1590091044433 1003.7856772439999 L 341.7245501044433 1010.0684477439999 Z"/></g></g><g><g><rect fill="rgb(239,255,255)" stroke="none" x="136.96284948232912" y="1006.0474746239998" width="123.08723153978515" height="19.602243960000003"/></g><text fill="black" stroke="none" font-family="sans-serif" font-size="11pt" font-style="normal" font-weight="normal" text-decoration="normal" x="139.2246468623291" y="1019.6182589039998" text-anchor="start" dominant-baseline="alphabetic" xml:space="preserve">KEY CONSUMED</text></g><g><path fill="none" stroke="black" paint-order="fill stroke markers" d=" M 314.08035990444336 1025.6497185839999 L 85.44567880000001 1025.6497185839999" stroke-miterlimit="10" stroke-width="1.2565541" stroke-dasharray="6.03145968"/><g transform="translate(82.9325706,1025.6497185839999) translate(-82.9325706,-1025.6497185839999)"><path fill="black" stroke="none" paint-order="stroke fill markers" d=" M 95.4981116 1019.3669480839999 L 82.9325706 1025.6497185839999 L 95.4981116 1031.9324890839998 Z"/></g></g><g><g/><path fill="none" stroke="black" paint-order="fill stroke markers" d=" M 15.078649200000001 93.03526556399999 L 639.4552119065918 93.03526556399999 L 639.4552119065918 1060.3306117439997 L 15.078649200000001 1060.3306117439997 L 15.078649200000001 93.03526556399999 Z" stroke-miterlimit="10" stroke-width="2.154092742857143" stroke-dasharray=""/><path fill="#b0ffff" stroke="black" paint-order="fill stroke markers" d=" M 15.078649200000001 93.03526556399999 L 15.078649200000001 111.12964460399999 L 73.76322077810059 111.12964460399999 L 82.81041029810059 102.08245508399999 L 82.81041029810059 93.03526556399999 L 15.078649200000001 93.03526556399999" stroke-miterlimit="10" stroke-width="2.154092742857143" stroke-dasharray=""/><text fill="black" stroke="none" font-family="sans-serif" font-size="8.8pt" font-style="normal" font-weight="bold" text-decoration="normal" x="30.157298400000002" y="105.098184924" text-anchor="start" dominant-baseline="alphabetic" xml:space="preserve">loop</text><text fill="black" stroke="none" font-family="sans-serif" font-size="8.8pt" font-style="normal" font-weight="bold" text-decoration="normal" x="97.8890594981006" y="105.098184924" text-anchor="start" dominant-baseline="alphabetic" xml:space="preserve">[Event Loop]</text></g></g></g></svg>