<?xml version="1.0" encoding="UTF-8" standalone="no"?>
<!DOCTYPE svg PUBLIC "-//W3C//DTD SVG 1.1//EN"
 "http://www.w3.org/Graphics/SVG/1.1/DTD/svg11.dtd">
<!-- Generated by graphviz version 2.40.1 (0)
 -->
<!-- Title: neomutt Pages: 1 -->
<svg width="886pt" height="399pt"
 viewBox="0.00 0.00 885.50 399.00" xmlns="http://www.w3.org/2000/svg" xmlns:xlink="http://www.w3.org/1999/xlink">
<g id="graph0" class="graph" transform="scale(1 1) rotate(0) translate(4 395)">
<title>neomutt</title>
<polygon fill="#ffffff" stroke="transparent" points="-4,4 -4,-395 881.5,-395 881.5,4 -4,4"/>
<!-- obj_0x56af30 -->
<g id="node1" class="node">
<title>obj_0x56af30</title>
<polygon fill="#80ffff" stroke="transparent" points="177.5,-354.5 177.5,-380.5 316.5,-380.5 316.5,-354.5 177.5,-354.5"/>
<text text-anchor="start" x="179.5" y="-363.5" font-family="Times,serif" font-weight="bold" font-size="20.00" fill="#000000">AllAccounts</text>
<polygon fill="none" stroke="#d0d0d0" points="176,-353.5 176,-381.5 317,-381.5 317,-353.5 176,-353.5"/>
</g>
<!-- obj_0x14e52e0 -->
<g id="node2" class="node">
<title>obj_0x14e52e0</title>
<polygon fill="#80ffff" stroke="transparent" points="158.5,-280.5 158.5,-306.5 335.5,-306.5 335.5,-280.5 158.5,-280.5"/>
<text text-anchor="start" x="160.5" y="-289.5" font-family="Times,serif" font-weight="bold" font-size="20.00" fill="#000000">Account</text>
<text text-anchor="start" x="253.5" y="-289.5" font-family="Times,serif" font-size="14.00" fill="#000000"> </text>
<text text-anchor="start" x="258.5" y="-289.5" font-family="Times,serif" font-size="12.00" fill="#000000">(0x14e52e0)</text>
<text text-anchor="start" x="160.5" y="-267.3" font-family="Times,serif" font-size="14.00" fill="#000000">magic</text>
<text text-anchor="start" x="246" y="-267.3" font-family="Times,serif" font-size="14.00" fill="#000000">=</text>
<text text-anchor="start" x="270.5" y="-267.3" font-family="Times,serif" font-size="14.00" fill="#000000">MBOX</text>
<polygon fill="#d0d0d0" stroke="#d0d0d0" points="157.5,-280.5 157.5,-280.5 336.5,-280.5 336.5,-280.5 157.5,-280.5"/>
<polygon fill="none" stroke="#d0d0d0" points="157,-261 157,-308 336,-308 336,-261 157,-261"/>
</g>
<!-- obj_0x56af30&#45;&gt;obj_0x14e52e0 -->
<g id="edge1" class="edge">
<title>obj_0x56af30&#45;&gt;obj_0x14e52e0</title>
<g id="a_edge1"><a xlink:title="AllAccounts&#45;&gt;first">
<path fill="none" stroke="#c0c0c0" stroke-width="4.5" d="M246.5,-353.4202C246.5,-343.7365 246.5,-330.4474 246.5,-318.1211"/>
<polygon fill="#c0c0c0" stroke="#c0c0c0" stroke-width="4.5" points="250.4376,-318.0936 246.5,-308.0936 242.5626,-318.0937 250.4376,-318.0936"/>
</a>
</g>
</g>
<!-- obj_0x14f58f0 -->
<g id="node3" class="node">
<title>obj_0x14f58f0</title>
<polygon fill="#60c0c0" stroke="transparent" points="1.5,-198 1.5,-224 288.5,-224 288.5,-198 1.5,-198"/>
<text text-anchor="start" x="3.5" y="-207" font-family="Times,serif" font-weight="bold" font-size="20.00" fill="#000000">MboxAccountData</text>
<text text-anchor="start" x="211.5" y="-207" font-family="Times,serif" font-size="14.00" fill="#000000"> </text>
<text text-anchor="start" x="216.5" y="-207" font-family="Times,serif" font-size="12.00" fill="#000000">(0x14f58f0)</text>
<text text-anchor="start" x="3.5" y="-184.8" font-family="Times,serif" font-size="14.00" fill="#000000">fp</text>
<text text-anchor="start" x="103" y="-184.8" font-family="Times,serif" font-size="14.00" fill="#000000">=</text>
<text text-anchor="start" x="128.5" y="-184.8" font-family="Times,serif" font-size="14.00" fill="#000000">0x13ee280</text>
<text text-anchor="start" x="3.5" y="-165.8" font-family="Times,serif" font-size="14.00" fill="#000000">atime</text>
<text text-anchor="start" x="103" y="-165.8" font-family="Times,serif" font-size="14.00" fill="#000000">=</text>
<text text-anchor="start" x="128.5" y="-165.8" font-family="Times,serif" font-size="14.00" fill="#000000">&quot;2018&#45;10&#45;22 20:47&quot;</text>
<text text-anchor="start" x="3.5" y="-146.8" font-family="Times,serif" font-size="14.00" fill="#000000">locked</text>
<text text-anchor="start" x="103" y="-146.8" font-family="Times,serif" font-size="14.00" fill="#000000">=</text>
<text text-anchor="start" x="128.5" y="-146.8" font-family="Times,serif" font-size="14.00" fill="#000000">false</text>
<text text-anchor="start" x="3.5" y="-127.8" font-family="Times,serif" font-size="14.00" fill="#000000">append</text>
<text text-anchor="start" x="103" y="-127.8" font-family="Times,serif" font-size="14.00" fill="#000000">=</text>
<text text-anchor="start" x="128.5" y="-127.8" font-family="Times,serif" font-size="14.00" fill="#000000">false</text>
<polygon fill="#d0d0d0" stroke="#d0d0d0" points=".5,-198 .5,-198 289.5,-198 289.5,-198 .5,-198"/>
<polygon fill="#d0d0d0" stroke="#d0d0d0" points=".5,-179 .5,-179 92.5,-179 92.5,-179 .5,-179"/>
<polygon fill="#d0d0d0" stroke="#d0d0d0" points="92.5,-179 92.5,-179 126.5,-179 126.5,-179 92.5,-179"/>
<polygon fill="#d0d0d0" stroke="#d0d0d0" points="126.5,-179 126.5,-179 289.5,-179 289.5,-179 126.5,-179"/>
<polygon fill="#d0d0d0" stroke="#d0d0d0" points=".5,-160 .5,-160 92.5,-160 92.5,-160 .5,-160"/>
<polygon fill="#d0d0d0" stroke="#d0d0d0" points="92.5,-160 92.5,-160 126.5,-160 126.5,-160 92.5,-160"/>
<polygon fill="#d0d0d0" stroke="#d0d0d0" points="126.5,-160 126.5,-160 289.5,-160 289.5,-160 126.5,-160"/>
<polygon fill="#d0d0d0" stroke="#d0d0d0" points=".5,-141 .5,-141 92.5,-141 92.5,-141 .5,-141"/>
<polygon fill="#d0d0d0" stroke="#d0d0d0" points="92.5,-141 92.5,-141 126.5,-141 126.5,-141 92.5,-141"/>
<polygon fill="#d0d0d0" stroke="#d0d0d0" points="126.5,-141 126.5,-141 289.5,-141 289.5,-141 126.5,-141"/>
<polygon fill="none" stroke="#d0d0d0" points="0,-121 0,-225 289,-225 289,-121 0,-121"/>
</g>
<!-- obj_0x14e52e0&#45;&gt;obj_0x14f58f0 -->
<g id="edge2" class="edge">
<title>obj_0x14e52e0&#45;&gt;obj_0x14f58f0</title>
<g id="a_edge2"><a xlink:title="Account&#45;&gt;adata">
<path fill="none" stroke="#c0c0c0" stroke-width="4.5" d="M224.8684,-260.8537C217.226,-252.4995 208.2488,-242.6862 199.1162,-232.703"/>
<polygon fill="#c0c0c0" stroke="#c0c0c0" stroke-width="4.5" points="201.7767,-229.7778 192.1217,-225.0571 195.9662,-235.0932 201.7767,-229.7778"/>
</a>
</g>
</g>
<!-- obj_0x14e5320 -->
<g id="node4" class="node">
<title>obj_0x14e5320</title>
<polygon fill="#80ff80" stroke="transparent" points="326.5,-160 326.5,-186 372.5,-186 372.5,-160 326.5,-160"/>
<text text-anchor="start" x="328.5" y="-169" font-family="Times,serif" font-weight="bold" font-size="20.00" fill="#000000">MN</text>
<polygon fill="none" stroke="#d0d0d0" points="325.5,-159 325.5,-187 373.5,-187 373.5,-159 325.5,-159"/>
</g>
<!-- obj_0x14e52e0&#45;&gt;obj_0x14e5320 -->
<g id="edge3" class="edge">
<title>obj_0x14e52e0&#45;&gt;obj_0x14e5320</title>
<g id="a_edge3"><a xlink:title="Account&#45;&gt;mailboxes">
<path fill="none" stroke="#c0c0c0" stroke-width="4.5" d="M272.0998,-260.8299C283.2741,-250.1712 296.3444,-237.2511 307.5,-225 316.114,-215.5401 325.0983,-204.5837 332.5364,-195.1744"/>
<polygon fill="#c0c0c0" stroke="#c0c0c0" stroke-width="4.5" points="335.8253,-197.3603 338.8775,-187.0555 329.6189,-192.5129 335.8253,-197.3603"/>
</a>
</g>
</g>
<!-- obj_0x14e0660 -->
<g id="node5" class="node">
<title>obj_0x14e0660</title>
<polygon fill="#80ff80" stroke="transparent" points="410.5,-198 410.5,-224 876.5,-224 876.5,-198 410.5,-198"/>
<text text-anchor="start" x="412.5" y="-207" font-family="Times,serif" font-weight="bold" font-size="20.00" fill="#000000">Mailbox</text>
<text text-anchor="start" x="503.5" y="-207" font-family="Times,serif" font-size="14.00" fill="#000000"> </text>
<text text-anchor="start" x="508.5" y="-207" font-family="Times,serif" font-size="12.00" fill="#000000">(0x14e0660)</text>
<text text-anchor="start" x="412.5" y="-184.8" font-family="Times,serif" font-size="14.00" fill="#000000">type</text>
<text text-anchor="start" x="477.5" y="-184.8" font-family="Times,serif" font-size="14.00" fill="#000000">=</text>
<text text-anchor="start" x="494.5" y="-184.8" font-family="Times,serif" font-size="14.00" fill="#000000">MBOX</text>
<text text-anchor="start" x="412.5" y="-165.8" font-family="Times,serif" font-size="14.00" fill="#000000">path</text>
<text text-anchor="start" x="477.5" y="-165.8" font-family="Times,serif" font-size="14.00" fill="#000000">=</text>
<text text-anchor="start" x="494.5" y="-165.8" font-family="Times,serif" font-size="14.00" fill="#000000">&quot;neomutt&#45;laptop&#45;1001&#45;9369&#45;3964294743693028878&quot;</text>
<text text-anchor="start" x="412.5" y="-146.8" font-family="Times,serif" font-size="14.00" fill="#000000">realpath</text>
<text text-anchor="start" x="477.5" y="-146.8" font-family="Times,serif" font-size="14.00" fill="#000000">=</text>
<text text-anchor="start" x="494.5" y="-146.8" font-family="Times,serif" font-size="14.00" fill="#000000">&quot;comp2.gz&quot;</text>
<text text-anchor="start" x="412.5" y="-127.8" font-family="Times,serif" font-size="14.00" fill="#000000">account</text>
<text text-anchor="start" x="477.5" y="-127.8" font-family="Times,serif" font-size="14.00" fill="#000000">=</text>
<polygon fill="#80ffff" stroke="transparent" points="492.5,-122 492.5,-141 876.5,-141 876.5,-122 492.5,-122"/>
<text text-anchor="start" x="494.5" y="-127.8" font-family="Times,serif" font-size="14.00" fill="#000000">0x14e52e0</text>
<polygon fill="#d0d0d0" stroke="#d0d0d0" points="409.5,-198 409.5,-198 877.5,-198 877.5,-198 409.5,-198"/>
<polygon fill="#d0d0d0" stroke="#d0d0d0" points="409.5,-179 409.5,-179 475.5,-179 475.5,-179 409.5,-179"/>
<polygon fill="#d0d0d0" stroke="#d0d0d0" points="475.5,-179 475.5,-179 492.5,-179 492.5,-179 475.5,-179"/>
<polygon fill="#d0d0d0" stroke="#d0d0d0" points="492.5,-179 492.5,-179 877.5,-179 877.5,-179 492.5,-179"/>
<polygon fill="#d0d0d0" stroke="#d0d0d0" points="409.5,-160 409.5,-160 475.5,-160 475.5,-160 409.5,-160"/>
<polygon fill="#d0d0d0" stroke="#d0d0d0" points="475.5,-160 475.5,-160 492.5,-160 492.5,-160 475.5,-160"/>
<polygon fill="#d0d0d0" stroke="#d0d0d0" points="492.5,-160 492.5,-160 877.5,-160 877.5,-160 492.5,-160"/>
<polygon fill="#d0d0d0" stroke="#d0d0d0" points="409.5,-141 409.5,-141 475.5,-141 475.5,-141 409.5,-141"/>
<polygon fill="#d0d0d0" stroke="#d0d0d0" points="475.5,-141 475.5,-141 492.5,-141 492.5,-141 475.5,-141"/>
<polygon fill="#d0d0d0" stroke="#d0d0d0" points="492.5,-141 492.5,-141 877.5,-141 877.5,-141 492.5,-141"/>
<polygon fill="none" stroke="#d0d0d0" points="409.5,-121 409.5,-225 877.5,-225 877.5,-121 409.5,-121"/>
</g>
<!-- obj_0x14e5320&#45;&gt;obj_0x14e0660 -->
<g id="edge5" class="edge">
<title>obj_0x14e5320&#45;&gt;obj_0x14e0660</title>
<g id="a_edge5"><a xlink:title="MailboxNode&#45;&gt;m">
<path fill="none" stroke="#c0c0c0" stroke-width="4.5" d="M373.6172,-173C382.2048,-173 390.7923,-173 399.3799,-173"/>
<polygon fill="#c0c0c0" stroke="#c0c0c0" stroke-width="4.5" points="399.461,-176.9376 409.461,-173 399.461,-169.0626 399.461,-176.9376"/>
</a>
</g>
</g>
<!-- obj_0x13f0680 -->
<g id="node6" class="node">
<title>obj_0x13f0680</title>
<polygon fill="#c0c060" stroke="transparent" points="523.5,-57.5 523.5,-83.5 764.5,-83.5 764.5,-57.5 523.5,-57.5"/>
<text text-anchor="start" x="525.5" y="-66.5" font-family="Times,serif" font-weight="bold" font-size="20.00" fill="#000000">CompressInfo</text>
<text text-anchor="start" x="684.5" y="-66.5" font-family="Times,serif" font-size="14.00" fill="#000000"> </text>
<text text-anchor="start" x="689.5" y="-66.5" font-family="Times,serif" font-size="12.00" fill="#000000">(0x13f0680)</text>
<text text-anchor="start" x="525.5" y="-44.3" font-family="Times,serif" font-size="14.00" fill="#000000">append</text>
<text text-anchor="start" x="587.5" y="-44.3" font-family="Times,serif" font-size="14.00" fill="#000000">=</text>
<text text-anchor="start" x="605.5" y="-44.3" font-family="Times,serif" font-size="14.00" fill="#000000">[NULL]</text>
<text text-anchor="start" x="525.5" y="-25.3" font-family="Times,serif" font-size="14.00" fill="#000000">close</text>
<text text-anchor="start" x="587.5" y="-25.3" font-family="Times,serif" font-size="14.00" fill="#000000">=</text>
<text text-anchor="start" x="605.5" y="-25.3" font-family="Times,serif" font-size="14.00" fill="#000000">[NULL]</text>
<text text-anchor="start" x="525.5" y="-6.3" font-family="Times,serif" font-size="14.00" fill="#000000">open</text>
<text text-anchor="start" x="587.5" y="-6.3" font-family="Times,serif" font-size="14.00" fill="#000000">=</text>
<text text-anchor="start" x="605.5" y="-6.3" font-family="Times,serif" font-size="14.00" fill="#000000">&quot;gzip &#45;cd &#39;%f&#39; &gt; &#160;&#39;%t&#39;&quot;</text>
<polygon fill="#d0d0d0" stroke="#d0d0d0" points="522.5,-57.5 522.5,-57.5 765.5,-57.5 765.5,-57.5 522.5,-57.5"/>
<polygon fill="#d0d0d0" stroke="#d0d0d0" points="522.5,-38.5 522.5,-38.5 584.5,-38.5 584.5,-38.5 522.5,-38.5"/>
<polygon fill="#d0d0d0" stroke="#d0d0d0" points="584.5,-38.5 584.5,-38.5 603.5,-38.5 603.5,-38.5 584.5,-38.5"/>
<polygon fill="#d0d0d0" stroke="#d0d0d0" points="603.5,-38.5 603.5,-38.5 765.5,-38.5 765.5,-38.5 603.5,-38.5"/>
<polygon fill="#d0d0d0" stroke="#d0d0d0" points="522.5,-19.5 522.5,-19.5 584.5,-19.5 584.5,-19.5 522.5,-19.5"/>
<polygon fill="#d0d0d0" stroke="#d0d0d0" points="584.5,-19.5 584.5,-19.5 603.5,-19.5 603.5,-19.5 584.5,-19.5"/>
<polygon fill="#d0d0d0" stroke="#d0d0d0" points="603.5,-19.5 603.5,-19.5 765.5,-19.5 765.5,-19.5 603.5,-19.5"/>
<polygon fill="none" stroke="#d0d0d0" points="522,0 522,-85 765,-85 765,0 522,0"/>
</g>
<!-- obj_0x14e0660&#45;&gt;obj_0x13f0680 -->
<g id="edge4" class="edge">
<title>obj_0x14e0660&#45;&gt;obj_0x13f0680</title>
<g id="a_edge4"><a xlink:title="Mailbox&#45;&gt;compress_info">
<path fill="none" stroke="#c0c0c0" stroke-width="4.5" d="M643.5,-120.6726C643.5,-112.3041 643.5,-103.6401 643.5,-95.2615"/>
<polygon fill="#c0c0c0" stroke="#c0c0c0" stroke-width="4.5" points="647.4376,-95.2221 643.5,-85.2221 639.5626,-95.2222 647.4376,-95.2221"/>
</a>
</g>
</g>
<!-- obj_0x14ad0f0 -->
<g id="node7" class="node">
<title>obj_0x14ad0f0</title>
<polygon fill="#ff80ff" stroke="transparent" points="354.5,-363.5 354.5,-389.5 524.5,-389.5 524.5,-363.5 354.5,-363.5"/>
<text text-anchor="start" x="356.5" y="-372.5" font-family="Times,serif" font-weight="bold" font-size="20.00" fill="#000000">Context</text>
<text text-anchor="start" x="444.5" y="-372.5" font-family="Times,serif" font-size="14.00" fill="#000000"> </text>
<text text-anchor="start" x="449.5" y="-372.5" font-family="Times,serif" font-size="12.00" fill="#000000">(0x14ad0f0)</text>
<text text-anchor="start" x="356.5" y="-350.3" font-family="Times,serif" font-size="14.00" fill="#000000">mailbox</text>
<text text-anchor="start" x="422.5" y="-350.3" font-family="Times,serif" font-size="14.00" fill="#000000">=</text>
<polygon fill="#80ff80" stroke="transparent" points="438.5,-344.5 438.5,-363.5 524.5,-363.5 524.5,-344.5 438.5,-344.5"/>
<text text-anchor="start" x="440.5" y="-350.3" font-family="Times,serif" font-size="14.00" fill="#000000">0x14e0660</text>
<polygon fill="#d0d0d0" stroke="#d0d0d0" points="353.5,-363.5 353.5,-363.5 525.5,-363.5 525.5,-363.5 353.5,-363.5"/>
<polygon fill="none" stroke="#d0d0d0" points="353.5,-344 353.5,-391 525.5,-391 525.5,-344 353.5,-344"/>
</g>
</g>
</svg>
