<?xml version="1.0" encoding="UTF-8" standalone="no"?>
<!DOCTYPE svg PUBLIC "-//W3C//DTD SVG 1.1//EN"
 "http://www.w3.org/Graphics/SVG/1.1/DTD/svg11.dtd">
<!-- Generated by graphviz version 2.40.1 (0)
 -->
<!-- Title: neomutt Pages: 1 -->
<svg width="666pt" height="774pt"
 viewBox="0.00 0.00 666.00 774.00" xmlns="http://www.w3.org/2000/svg" xmlns:xlink="http://www.w3.org/1999/xlink">
<g id="graph0" class="graph" transform="scale(1 1) rotate(0) translate(4 770)">
<title>neomutt</title>
<polygon fill="#ffffff" stroke="transparent" points="-4,4 -4,-770 662,-770 662,4 -4,4"/>
<!-- obj_0x56af30 -->
<g id="node1" class="node">
<title>obj_0x56af30</title>
<polygon fill="#80ffff" stroke="transparent" points="19.5,-729.5 19.5,-755.5 158.5,-755.5 158.5,-729.5 19.5,-729.5"/>
<text text-anchor="start" x="21.5" y="-738.5" font-family="Times,serif" font-weight="bold" font-size="20.00" fill="#000000">AllAccounts</text>
<polygon fill="none" stroke="#d0d0d0" points="18,-728.5 18,-756.5 159,-756.5 159,-728.5 18,-728.5"/>
</g>
<!-- obj_0x156f730 -->
<g id="node2" class="node">
<title>obj_0x156f730</title>
<polygon fill="#80ffff" stroke="transparent" points="1.5,-655.5 1.5,-681.5 176.5,-681.5 176.5,-655.5 1.5,-655.5"/>
<text text-anchor="start" x="3.5" y="-664.5" font-family="Times,serif" font-weight="bold" font-size="20.00" fill="#000000">Account</text>
<text text-anchor="start" x="96.5" y="-664.5" font-family="Times,serif" font-size="14.00" fill="#000000"> </text>
<text text-anchor="start" x="101.5" y="-664.5" font-family="Times,serif" font-size="12.00" fill="#000000">(0x156f730)</text>
<text text-anchor="start" x="3.5" y="-642.3" font-family="Times,serif" font-size="14.00" fill="#000000">magic</text>
<text text-anchor="start" x="74" y="-642.3" font-family="Times,serif" font-size="14.00" fill="#000000">=</text>
<text text-anchor="start" x="95.5" y="-642.3" font-family="Times,serif" font-size="14.00" fill="#000000">MAILDIR</text>
<polygon fill="#d0d0d0" stroke="#d0d0d0" points=".5,-655.5 .5,-655.5 177.5,-655.5 177.5,-655.5 .5,-655.5"/>
<polygon fill="none" stroke="#d0d0d0" points="0,-636 0,-683 177,-683 177,-636 0,-636"/>
</g>
<!-- obj_0x56af30&#45;&gt;obj_0x156f730 -->
<g id="edge1" class="edge">
<title>obj_0x56af30&#45;&gt;obj_0x156f730</title>
<g id="a_edge1"><a xlink:title="AllAccounts&#45;&gt;first">
<path fill="none" stroke="#c0c0c0" stroke-width="4.5" d="M88.5,-728.4202C88.5,-718.7365 88.5,-705.4474 88.5,-693.1211"/>
<polygon fill="#c0c0c0" stroke="#c0c0c0" stroke-width="4.5" points="92.4376,-693.0936 88.5,-683.0936 84.5626,-693.0937 92.4376,-693.0936"/>
</a>
</g>
</g>
<!-- obj_0x156f770 -->
<g id="node3" class="node">
<title>obj_0x156f770</title>
<polygon fill="#80ff80" stroke="transparent" points="65.5,-525.5 65.5,-551.5 111.5,-551.5 111.5,-525.5 65.5,-525.5"/>
<text text-anchor="start" x="67.5" y="-534.5" font-family="Times,serif" font-weight="bold" font-size="20.00" fill="#000000">MN</text>
<polygon fill="none" stroke="#d0d0d0" points="64.5,-524.5 64.5,-552.5 112.5,-552.5 112.5,-524.5 64.5,-524.5"/>
</g>
<!-- obj_0x156f730&#45;&gt;obj_0x156f770 -->
<g id="edge2" class="edge">
<title>obj_0x156f730&#45;&gt;obj_0x156f770</title>
<g id="a_edge2"><a xlink:title="Account&#45;&gt;mailboxes">
<path fill="none" stroke="#c0c0c0" stroke-width="4.5" d="M88.5,-635.8827C88.5,-614.7987 88.5,-584.0505 88.5,-562.77"/>
<polygon fill="#c0c0c0" stroke="#c0c0c0" stroke-width="4.5" points="92.4376,-562.6059 88.5,-552.6059 84.5626,-562.606 92.4376,-562.6059"/>
</a>
</g>
</g>
<!-- obj_0x158e660 -->
<g id="node4" class="node">
<title>obj_0x158e660</title>
<polygon fill="#80ff80" stroke="transparent" points="149.5,-572.5 149.5,-598.5 325.5,-598.5 325.5,-572.5 149.5,-572.5"/>
<text text-anchor="start" x="151.5" y="-581.5" font-family="Times,serif" font-weight="bold" font-size="20.00" fill="#000000">Mailbox</text>
<text text-anchor="start" x="242.5" y="-581.5" font-family="Times,serif" font-size="14.00" fill="#000000"> </text>
<text text-anchor="start" x="247.5" y="-581.5" font-family="Times,serif" font-size="12.00" fill="#000000">(0x158e660)</text>
<text text-anchor="start" x="151.5" y="-559.3" font-family="Times,serif" font-size="14.00" fill="#000000">type</text>
<text text-anchor="start" x="224" y="-559.3" font-family="Times,serif" font-size="14.00" fill="#000000">=</text>
<text text-anchor="start" x="242.5" y="-559.3" font-family="Times,serif" font-size="14.00" fill="#000000">MAILDIR</text>
<text text-anchor="start" x="151.5" y="-540.3" font-family="Times,serif" font-size="14.00" fill="#000000">path</text>
<text text-anchor="start" x="224" y="-540.3" font-family="Times,serif" font-size="14.00" fill="#000000">=</text>
<text text-anchor="start" x="242.5" y="-540.3" font-family="Times,serif" font-size="14.00" fill="#000000">&quot;neo&quot;</text>
<text text-anchor="start" x="151.5" y="-521.3" font-family="Times,serif" font-size="14.00" fill="#000000">realpath</text>
<text text-anchor="start" x="224" y="-521.3" font-family="Times,serif" font-size="14.00" fill="#000000">=</text>
<text text-anchor="start" x="242.5" y="-521.3" font-family="Times,serif" font-size="14.00" fill="#000000">&quot;neo&quot;</text>
<text text-anchor="start" x="151.5" y="-502.3" font-family="Times,serif" font-size="14.00" fill="#000000">account</text>
<text text-anchor="start" x="224" y="-502.3" font-family="Times,serif" font-size="14.00" fill="#000000">=</text>
<polygon fill="#80ffff" stroke="transparent" points="240.5,-496.5 240.5,-515.5 325.5,-515.5 325.5,-496.5 240.5,-496.5"/>
<text text-anchor="start" x="242.5" y="-502.3" font-family="Times,serif" font-size="14.00" fill="#000000">0x156f730</text>
<text text-anchor="start" x="151.5" y="-483.3" font-family="Times,serif" font-size="14.00" fill="#000000">desc</text>
<text text-anchor="start" x="224" y="-483.3" font-family="Times,serif" font-size="14.00" fill="#000000">=</text>
<text text-anchor="start" x="242.5" y="-483.3" font-family="Times,serif" font-size="14.00" fill="#000000">&quot;Neo&quot;</text>
<polygon fill="#d0d0d0" stroke="#d0d0d0" points="148.5,-572.5 148.5,-572.5 326.5,-572.5 326.5,-572.5 148.5,-572.5"/>
<polygon fill="#d0d0d0" stroke="#d0d0d0" points="148.5,-553.5 148.5,-553.5 220.5,-553.5 220.5,-553.5 148.5,-553.5"/>
<polygon fill="#d0d0d0" stroke="#d0d0d0" points="220.5,-553.5 220.5,-553.5 240.5,-553.5 240.5,-553.5 220.5,-553.5"/>
<polygon fill="#d0d0d0" stroke="#d0d0d0" points="240.5,-553.5 240.5,-553.5 326.5,-553.5 326.5,-553.5 240.5,-553.5"/>
<polygon fill="#d0d0d0" stroke="#d0d0d0" points="148.5,-534.5 148.5,-534.5 220.5,-534.5 220.5,-534.5 148.5,-534.5"/>
<polygon fill="#d0d0d0" stroke="#d0d0d0" points="220.5,-534.5 220.5,-534.5 240.5,-534.5 240.5,-534.5 220.5,-534.5"/>
<polygon fill="#d0d0d0" stroke="#d0d0d0" points="240.5,-534.5 240.5,-534.5 326.5,-534.5 326.5,-534.5 240.5,-534.5"/>
<polygon fill="#d0d0d0" stroke="#d0d0d0" points="148.5,-515.5 148.5,-515.5 220.5,-515.5 220.5,-515.5 148.5,-515.5"/>
<polygon fill="#d0d0d0" stroke="#d0d0d0" points="220.5,-515.5 220.5,-515.5 240.5,-515.5 240.5,-515.5 220.5,-515.5"/>
<polygon fill="#d0d0d0" stroke="#d0d0d0" points="240.5,-515.5 240.5,-515.5 326.5,-515.5 326.5,-515.5 240.5,-515.5"/>
<polygon fill="#d0d0d0" stroke="#d0d0d0" points="148.5,-496.5 148.5,-496.5 220.5,-496.5 220.5,-496.5 148.5,-496.5"/>
<polygon fill="#d0d0d0" stroke="#d0d0d0" points="220.5,-496.5 220.5,-496.5 240.5,-496.5 240.5,-496.5 220.5,-496.5"/>
<polygon fill="#d0d0d0" stroke="#d0d0d0" points="240.5,-496.5 240.5,-496.5 326.5,-496.5 326.5,-496.5 240.5,-496.5"/>
<polygon fill="none" stroke="#d0d0d0" points="148.5,-477 148.5,-600 326.5,-600 326.5,-477 148.5,-477"/>
</g>
<!-- obj_0x156f770&#45;&gt;obj_0x158e660 -->
<g id="edge4" class="edge">
<title>obj_0x156f770&#45;&gt;obj_0x158e660</title>
<g id="a_edge4"><a xlink:title="MailboxNode&#45;&gt;m">
<path fill="none" stroke="#c0c0c0" stroke-width="4.5" d="M112.6543,-538.5C121.1836,-538.5 129.7129,-538.5 138.2422,-538.5"/>
<polygon fill="#c0c0c0" stroke="#c0c0c0" stroke-width="4.5" points="138.2549,-542.4376 148.2548,-538.5 138.2548,-534.5626 138.2549,-542.4376"/>
</a>
</g>
</g>
<!-- obj_0x156fa20 -->
<g id="node6" class="node">
<title>obj_0x156fa20</title>
<polygon fill="#80ff80" stroke="transparent" points="65.5,-366.5 65.5,-392.5 111.5,-392.5 111.5,-366.5 65.5,-366.5"/>
<text text-anchor="start" x="67.5" y="-375.5" font-family="Times,serif" font-weight="bold" font-size="20.00" fill="#000000">MN</text>
<polygon fill="none" stroke="#d0d0d0" points="64.5,-365.5 64.5,-393.5 112.5,-393.5 112.5,-365.5 64.5,-365.5"/>
</g>
<!-- obj_0x156f770&#45;&gt;obj_0x156fa20 -->
<g id="edge7" class="edge">
<title>obj_0x156f770&#45;&gt;obj_0x156fa20</title>
<g id="a_edge7"><a xlink:title="MailboxNode&#45;&gt;next">
<path fill="none" stroke="#c0c0c0" stroke-width="4.5" d="M88.5,-524.3898C88.5,-497.3496 88.5,-437.9268 88.5,-404.1825"/>
<polygon fill="#c0c0c0" stroke="#c0c0c0" stroke-width="4.5" points="92.4376,-403.8071 88.5,-393.8071 84.5626,-403.8072 92.4376,-403.8071"/>
</a>
</g>
</g>
<!-- obj_0x15591b0 -->
<g id="node5" class="node">
<title>obj_0x15591b0</title>
<polygon fill="#60c060" stroke="transparent" points="363.5,-544.5 363.5,-570.5 647.5,-570.5 647.5,-544.5 363.5,-544.5"/>
<text text-anchor="start" x="365.5" y="-553.5" font-family="Times,serif" font-weight="bold" font-size="20.00" fill="#000000">MaildirMboxData</text>
<text text-anchor="start" x="564.5" y="-553.5" font-family="Times,serif" font-size="14.00" fill="#000000"> </text>
<text text-anchor="start" x="569.5" y="-553.5" font-family="Times,serif" font-size="12.00" fill="#000000">(0x15591b0)</text>
<text text-anchor="start" x="365.5" y="-531.3" font-family="Times,serif" font-size="14.00" fill="#000000">mtime_cur</text>
<text text-anchor="start" x="472.5" y="-531.3" font-family="Times,serif" font-size="14.00" fill="#000000">=</text>
<text text-anchor="start" x="494.5" y="-531.3" font-family="Times,serif" font-size="14.00" fill="#000000">&quot;2018&#45;10&#45;06 13:07&quot;</text>
<text text-anchor="start" x="365.5" y="-512.3" font-family="Times,serif" font-size="14.00" fill="#000000">mh_umask</text>
<text text-anchor="start" x="472.5" y="-512.3" font-family="Times,serif" font-size="14.00" fill="#000000">=</text>
<text text-anchor="start" x="494.5" y="-512.3" font-family="Times,serif" font-size="14.00" fill="#000000">&quot;0022&quot;</text>
<polygon fill="#d0d0d0" stroke="#d0d0d0" points="362.5,-544.5 362.5,-544.5 648.5,-544.5 648.5,-544.5 362.5,-544.5"/>
<polygon fill="#d0d0d0" stroke="#d0d0d0" points="362.5,-525.5 362.5,-525.5 465.5,-525.5 465.5,-525.5 362.5,-525.5"/>
<polygon fill="#d0d0d0" stroke="#d0d0d0" points="465.5,-525.5 465.5,-525.5 492.5,-525.5 492.5,-525.5 465.5,-525.5"/>
<polygon fill="#d0d0d0" stroke="#d0d0d0" points="492.5,-525.5 492.5,-525.5 648.5,-525.5 648.5,-525.5 492.5,-525.5"/>
<polygon fill="none" stroke="#d0d0d0" points="362.5,-505.5 362.5,-571.5 648.5,-571.5 648.5,-505.5 362.5,-505.5"/>
</g>
<!-- obj_0x158e660&#45;&gt;obj_0x15591b0 -->
<g id="edge3" class="edge">
<title>obj_0x158e660&#45;&gt;obj_0x15591b0</title>
<g id="a_edge3"><a xlink:title="Mailbox&#45;&gt;mdata">
<path fill="none" stroke="#c0c0c0" stroke-width="4.5" d="M326.7461,-538.5C335.2779,-538.5 343.8098,-538.5 352.3416,-538.5"/>
<polygon fill="#c0c0c0" stroke="#c0c0c0" stroke-width="4.5" points="352.3573,-542.4376 362.3572,-538.5 352.3572,-534.5626 352.3573,-542.4376"/>
</a>
</g>
</g>
<!-- obj_0x1590740 -->
<g id="node7" class="node">
<title>obj_0x1590740</title>
<polygon fill="#80ff80" stroke="transparent" points="149.5,-413.5 149.5,-439.5 335.5,-439.5 335.5,-413.5 149.5,-413.5"/>
<text text-anchor="start" x="151.5" y="-422.5" font-family="Times,serif" font-weight="bold" font-size="20.00" fill="#000000">Mailbox</text>
<text text-anchor="start" x="242.5" y="-422.5" font-family="Times,serif" font-size="14.00" fill="#000000"> </text>
<text text-anchor="start" x="247.5" y="-422.5" font-family="Times,serif" font-size="12.00" fill="#000000">(0x1590740)</text>
<text text-anchor="start" x="151.5" y="-400.3" font-family="Times,serif" font-size="14.00" fill="#000000">type</text>
<text text-anchor="start" x="216.5" y="-400.3" font-family="Times,serif" font-size="14.00" fill="#000000">=</text>
<text text-anchor="start" x="233.5" y="-400.3" font-family="Times,serif" font-size="14.00" fill="#000000">MAILDIR</text>
<text text-anchor="start" x="151.5" y="-381.3" font-family="Times,serif" font-size="14.00" fill="#000000">path</text>
<text text-anchor="start" x="216.5" y="-381.3" font-family="Times,serif" font-size="14.00" fill="#000000">=</text>
<text text-anchor="start" x="233.5" y="-381.3" font-family="Times,serif" font-size="14.00" fill="#000000">&quot;neo.github&quot;</text>
<text text-anchor="start" x="151.5" y="-362.3" font-family="Times,serif" font-size="14.00" fill="#000000">realpath</text>
<text text-anchor="start" x="216.5" y="-362.3" font-family="Times,serif" font-size="14.00" fill="#000000">=</text>
<text text-anchor="start" x="233.5" y="-362.3" font-family="Times,serif" font-size="14.00" fill="#000000">&quot;neo.github&quot;</text>
<text text-anchor="start" x="151.5" y="-343.3" font-family="Times,serif" font-size="14.00" fill="#000000">account</text>
<text text-anchor="start" x="216.5" y="-343.3" font-family="Times,serif" font-size="14.00" fill="#000000">=</text>
<polygon fill="#80ffff" stroke="transparent" points="231.5,-337.5 231.5,-356.5 335.5,-356.5 335.5,-337.5 231.5,-337.5"/>
<text text-anchor="start" x="233.5" y="-343.3" font-family="Times,serif" font-size="14.00" fill="#000000">0x156f730</text>
<text text-anchor="start" x="151.5" y="-324.3" font-family="Times,serif" font-size="14.00" fill="#000000">desc</text>
<text text-anchor="start" x="216.5" y="-324.3" font-family="Times,serif" font-size="14.00" fill="#000000">=</text>
<text text-anchor="start" x="233.5" y="-324.3" font-family="Times,serif" font-size="14.00" fill="#000000">&quot;Neo GitHub&quot;</text>
<polygon fill="#d0d0d0" stroke="#d0d0d0" points="148.5,-413.5 148.5,-413.5 336.5,-413.5 336.5,-413.5 148.5,-413.5"/>
<polygon fill="#d0d0d0" stroke="#d0d0d0" points="148.5,-394.5 148.5,-394.5 214.5,-394.5 214.5,-394.5 148.5,-394.5"/>
<polygon fill="#d0d0d0" stroke="#d0d0d0" points="214.5,-394.5 214.5,-394.5 231.5,-394.5 231.5,-394.5 214.5,-394.5"/>
<polygon fill="#d0d0d0" stroke="#d0d0d0" points="231.5,-394.5 231.5,-394.5 336.5,-394.5 336.5,-394.5 231.5,-394.5"/>
<polygon fill="#d0d0d0" stroke="#d0d0d0" points="148.5,-375.5 148.5,-375.5 214.5,-375.5 214.5,-375.5 148.5,-375.5"/>
<polygon fill="#d0d0d0" stroke="#d0d0d0" points="214.5,-375.5 214.5,-375.5 231.5,-375.5 231.5,-375.5 214.5,-375.5"/>
<polygon fill="#d0d0d0" stroke="#d0d0d0" points="231.5,-375.5 231.5,-375.5 336.5,-375.5 336.5,-375.5 231.5,-375.5"/>
<polygon fill="#d0d0d0" stroke="#d0d0d0" points="148.5,-356.5 148.5,-356.5 214.5,-356.5 214.5,-356.5 148.5,-356.5"/>
<polygon fill="#d0d0d0" stroke="#d0d0d0" points="214.5,-356.5 214.5,-356.5 231.5,-356.5 231.5,-356.5 214.5,-356.5"/>
<polygon fill="#d0d0d0" stroke="#d0d0d0" points="231.5,-356.5 231.5,-356.5 336.5,-356.5 336.5,-356.5 231.5,-356.5"/>
<polygon fill="#d0d0d0" stroke="#d0d0d0" points="148.5,-337.5 148.5,-337.5 214.5,-337.5 214.5,-337.5 148.5,-337.5"/>
<polygon fill="#d0d0d0" stroke="#d0d0d0" points="214.5,-337.5 214.5,-337.5 231.5,-337.5 231.5,-337.5 214.5,-337.5"/>
<polygon fill="#d0d0d0" stroke="#d0d0d0" points="231.5,-337.5 231.5,-337.5 336.5,-337.5 336.5,-337.5 231.5,-337.5"/>
<polygon fill="none" stroke="#d0d0d0" points="148.5,-318 148.5,-441 336.5,-441 336.5,-318 148.5,-318"/>
</g>
<!-- obj_0x156fa20&#45;&gt;obj_0x1590740 -->
<g id="edge6" class="edge">
<title>obj_0x156fa20&#45;&gt;obj_0x1590740</title>
<g id="a_edge6"><a xlink:title="MailboxNode&#45;&gt;m">
<path fill="none" stroke="#c0c0c0" stroke-width="4.5" d="M112.5625,-379.5C121.1356,-379.5 129.7088,-379.5 138.2819,-379.5"/>
<polygon fill="#c0c0c0" stroke="#c0c0c0" stroke-width="4.5" points="138.3461,-383.4376 148.3461,-379.5 138.346,-375.5626 138.3461,-383.4376"/>
</a>
</g>
</g>
<!-- obj_0x15949b0 -->
<g id="node9" class="node">
<title>obj_0x15949b0</title>
<polygon fill="#80ff80" stroke="transparent" points="65.5,-207.5 65.5,-233.5 111.5,-233.5 111.5,-207.5 65.5,-207.5"/>
<text text-anchor="start" x="67.5" y="-216.5" font-family="Times,serif" font-weight="bold" font-size="20.00" fill="#000000">MN</text>
<polygon fill="none" stroke="#d0d0d0" points="64.5,-206.5 64.5,-234.5 112.5,-234.5 112.5,-206.5 64.5,-206.5"/>
</g>
<!-- obj_0x156fa20&#45;&gt;obj_0x15949b0 -->
<g id="edge10" class="edge">
<title>obj_0x156fa20&#45;&gt;obj_0x15949b0</title>
<g id="a_edge10"><a xlink:title="MailboxNode&#45;&gt;next">
<path fill="none" stroke="#c0c0c0" stroke-width="4.5" d="M88.5,-365.3898C88.5,-338.3496 88.5,-278.9268 88.5,-245.1825"/>
<polygon fill="#c0c0c0" stroke="#c0c0c0" stroke-width="4.5" points="92.4376,-244.8071 88.5,-234.8071 84.5626,-244.8072 92.4376,-244.8071"/>
</a>
</g>
</g>
<!-- obj_0x15c84c0 -->
<g id="node8" class="node">
<title>obj_0x15c84c0</title>
<polygon fill="#60c060" stroke="transparent" points="374.5,-385.5 374.5,-411.5 657.5,-411.5 657.5,-385.5 374.5,-385.5"/>
<text text-anchor="start" x="376.5" y="-394.5" font-family="Times,serif" font-weight="bold" font-size="20.00" fill="#000000">MaildirMboxData</text>
<text text-anchor="start" x="575.5" y="-394.5" font-family="Times,serif" font-size="14.00" fill="#000000"> </text>
<text text-anchor="start" x="580.5" y="-394.5" font-family="Times,serif" font-size="12.00" fill="#000000">(0x15c84c0)</text>
<text text-anchor="start" x="376.5" y="-372.3" font-family="Times,serif" font-size="14.00" fill="#000000">mtime_cur</text>
<text text-anchor="start" x="483.5" y="-372.3" font-family="Times,serif" font-size="14.00" fill="#000000">=</text>
<text text-anchor="start" x="505.5" y="-372.3" font-family="Times,serif" font-size="14.00" fill="#000000">&quot;2018&#45;10&#45;20 12:35&quot;</text>
<text text-anchor="start" x="376.5" y="-353.3" font-family="Times,serif" font-size="14.00" fill="#000000">mh_umask</text>
<text text-anchor="start" x="483.5" y="-353.3" font-family="Times,serif" font-size="14.00" fill="#000000">=</text>
<text text-anchor="start" x="505.5" y="-353.3" font-family="Times,serif" font-size="14.00" fill="#000000">&quot;0022&quot;</text>
<polygon fill="#d0d0d0" stroke="#d0d0d0" points="373.5,-385.5 373.5,-385.5 658.5,-385.5 658.5,-385.5 373.5,-385.5"/>
<polygon fill="#d0d0d0" stroke="#d0d0d0" points="373.5,-366.5 373.5,-366.5 476.5,-366.5 476.5,-366.5 373.5,-366.5"/>
<polygon fill="#d0d0d0" stroke="#d0d0d0" points="476.5,-366.5 476.5,-366.5 503.5,-366.5 503.5,-366.5 476.5,-366.5"/>
<polygon fill="#d0d0d0" stroke="#d0d0d0" points="503.5,-366.5 503.5,-366.5 658.5,-366.5 658.5,-366.5 503.5,-366.5"/>
<polygon fill="none" stroke="#d0d0d0" points="373,-346.5 373,-412.5 658,-412.5 658,-346.5 373,-346.5"/>
</g>
<!-- obj_0x1590740&#45;&gt;obj_0x15c84c0 -->
<g id="edge5" class="edge">
<title>obj_0x1590740&#45;&gt;obj_0x15c84c0</title>
<g id="a_edge5"><a xlink:title="Mailbox&#45;&gt;mdata">
<path fill="none" stroke="#c0c0c0" stroke-width="4.5" d="M336.6104,-379.5C345.3161,-379.5 354.0218,-379.5 362.7275,-379.5"/>
<polygon fill="#c0c0c0" stroke="#c0c0c0" stroke-width="4.5" points="362.9473,-383.4376 372.9473,-379.5 362.9473,-375.5626 362.9473,-383.4376"/>
</a>
</g>
</g>
<!-- obj_0x1592850 -->
<g id="node10" class="node">
<title>obj_0x1592850</title>
<polygon fill="#80ff80" stroke="transparent" points="149.5,-254.5 149.5,-280.5 325.5,-280.5 325.5,-254.5 149.5,-254.5"/>
<text text-anchor="start" x="151.5" y="-263.5" font-family="Times,serif" font-weight="bold" font-size="20.00" fill="#000000">Mailbox</text>
<text text-anchor="start" x="242.5" y="-263.5" font-family="Times,serif" font-size="14.00" fill="#000000"> </text>
<text text-anchor="start" x="247.5" y="-263.5" font-family="Times,serif" font-size="12.00" fill="#000000">(0x1592850)</text>
<text text-anchor="start" x="151.5" y="-241.3" font-family="Times,serif" font-size="14.00" fill="#000000">type</text>
<text text-anchor="start" x="217.5" y="-241.3" font-family="Times,serif" font-size="14.00" fill="#000000">=</text>
<text text-anchor="start" x="234.5" y="-241.3" font-family="Times,serif" font-size="14.00" fill="#000000">MAILDIR</text>
<text text-anchor="start" x="151.5" y="-222.3" font-family="Times,serif" font-size="14.00" fill="#000000">path</text>
<text text-anchor="start" x="217.5" y="-222.3" font-family="Times,serif" font-size="14.00" fill="#000000">=</text>
<text text-anchor="start" x="234.5" y="-222.3" font-family="Times,serif" font-size="14.00" fill="#000000">&quot;neo.devel&quot;</text>
<text text-anchor="start" x="151.5" y="-203.3" font-family="Times,serif" font-size="14.00" fill="#000000">realpath</text>
<text text-anchor="start" x="217.5" y="-203.3" font-family="Times,serif" font-size="14.00" fill="#000000">=</text>
<text text-anchor="start" x="234.5" y="-203.3" font-family="Times,serif" font-size="14.00" fill="#000000">&quot;neo.devel&quot;</text>
<text text-anchor="start" x="151.5" y="-184.3" font-family="Times,serif" font-size="14.00" fill="#000000">account</text>
<text text-anchor="start" x="217.5" y="-184.3" font-family="Times,serif" font-size="14.00" fill="#000000">=</text>
<polygon fill="#80ffff" stroke="transparent" points="232.5,-178.5 232.5,-197.5 325.5,-197.5 325.5,-178.5 232.5,-178.5"/>
<text text-anchor="start" x="234.5" y="-184.3" font-family="Times,serif" font-size="14.00" fill="#000000">0x156f730</text>
<text text-anchor="start" x="151.5" y="-165.3" font-family="Times,serif" font-size="14.00" fill="#000000">desc</text>
<text text-anchor="start" x="217.5" y="-165.3" font-family="Times,serif" font-size="14.00" fill="#000000">=</text>
<text text-anchor="start" x="234.5" y="-165.3" font-family="Times,serif" font-size="14.00" fill="#000000">&quot;Neo Devel&quot;</text>
<polygon fill="#d0d0d0" stroke="#d0d0d0" points="148.5,-254.5 148.5,-254.5 326.5,-254.5 326.5,-254.5 148.5,-254.5"/>
<polygon fill="#d0d0d0" stroke="#d0d0d0" points="148.5,-235.5 148.5,-235.5 215.5,-235.5 215.5,-235.5 148.5,-235.5"/>
<polygon fill="#d0d0d0" stroke="#d0d0d0" points="215.5,-235.5 215.5,-235.5 232.5,-235.5 232.5,-235.5 215.5,-235.5"/>
<polygon fill="#d0d0d0" stroke="#d0d0d0" points="232.5,-235.5 232.5,-235.5 326.5,-235.5 326.5,-235.5 232.5,-235.5"/>
<polygon fill="#d0d0d0" stroke="#d0d0d0" points="148.5,-216.5 148.5,-216.5 215.5,-216.5 215.5,-216.5 148.5,-216.5"/>
<polygon fill="#d0d0d0" stroke="#d0d0d0" points="215.5,-216.5 215.5,-216.5 232.5,-216.5 232.5,-216.5 215.5,-216.5"/>
<polygon fill="#d0d0d0" stroke="#d0d0d0" points="232.5,-216.5 232.5,-216.5 326.5,-216.5 326.5,-216.5 232.5,-216.5"/>
<polygon fill="#d0d0d0" stroke="#d0d0d0" points="148.5,-197.5 148.5,-197.5 215.5,-197.5 215.5,-197.5 148.5,-197.5"/>
<polygon fill="#d0d0d0" stroke="#d0d0d0" points="215.5,-197.5 215.5,-197.5 232.5,-197.5 232.5,-197.5 215.5,-197.5"/>
<polygon fill="#d0d0d0" stroke="#d0d0d0" points="232.5,-197.5 232.5,-197.5 326.5,-197.5 326.5,-197.5 232.5,-197.5"/>
<polygon fill="#d0d0d0" stroke="#d0d0d0" points="148.5,-178.5 148.5,-178.5 215.5,-178.5 215.5,-178.5 148.5,-178.5"/>
<polygon fill="#d0d0d0" stroke="#d0d0d0" points="215.5,-178.5 215.5,-178.5 232.5,-178.5 232.5,-178.5 215.5,-178.5"/>
<polygon fill="#d0d0d0" stroke="#d0d0d0" points="232.5,-178.5 232.5,-178.5 326.5,-178.5 326.5,-178.5 232.5,-178.5"/>
<polygon fill="none" stroke="#d0d0d0" points="148.5,-159 148.5,-282 326.5,-282 326.5,-159 148.5,-159"/>
</g>
<!-- obj_0x15949b0&#45;&gt;obj_0x1592850 -->
<g id="edge9" class="edge">
<title>obj_0x15949b0&#45;&gt;obj_0x1592850</title>
<g id="a_edge9"><a xlink:title="MailboxNode&#45;&gt;m">
<path fill="none" stroke="#c0c0c0" stroke-width="4.5" d="M112.6543,-220.5C121.1836,-220.5 129.7129,-220.5 138.2422,-220.5"/>
<polygon fill="#c0c0c0" stroke="#c0c0c0" stroke-width="4.5" points="138.2549,-224.4376 148.2548,-220.5 138.2548,-216.5626 138.2549,-224.4376"/>
</a>
</g>
</g>
<!-- obj_0x1596d40 -->
<g id="node12" class="node">
<title>obj_0x1596d40</title>
<polygon fill="#80ff80" stroke="transparent" points="65.5,-48.5 65.5,-74.5 111.5,-74.5 111.5,-48.5 65.5,-48.5"/>
<text text-anchor="start" x="67.5" y="-57.5" font-family="Times,serif" font-weight="bold" font-size="20.00" fill="#000000">MN</text>
<polygon fill="none" stroke="#d0d0d0" points="64.5,-47.5 64.5,-75.5 112.5,-75.5 112.5,-47.5 64.5,-47.5"/>
</g>
<!-- obj_0x15949b0&#45;&gt;obj_0x1596d40 -->
<g id="edge13" class="edge">
<title>obj_0x15949b0&#45;&gt;obj_0x1596d40</title>
<g id="a_edge13"><a xlink:title="MailboxNode&#45;&gt;next">
<path fill="none" stroke="#c0c0c0" stroke-width="4.5" d="M88.5,-206.3898C88.5,-179.3496 88.5,-119.9268 88.5,-86.1825"/>
<polygon fill="#c0c0c0" stroke="#c0c0c0" stroke-width="4.5" points="92.4376,-85.8071 88.5,-75.8071 84.5626,-85.8072 92.4376,-85.8071"/>
</a>
</g>
</g>
<!-- obj_0x1579e20 -->
<g id="node11" class="node">
<title>obj_0x1579e20</title>
<polygon fill="#60c060" stroke="transparent" points="363.5,-226.5 363.5,-252.5 647.5,-252.5 647.5,-226.5 363.5,-226.5"/>
<text text-anchor="start" x="365.5" y="-235.5" font-family="Times,serif" font-weight="bold" font-size="20.00" fill="#000000">MaildirMboxData</text>
<text text-anchor="start" x="564.5" y="-235.5" font-family="Times,serif" font-size="14.00" fill="#000000"> </text>
<text text-anchor="start" x="569.5" y="-235.5" font-family="Times,serif" font-size="12.00" fill="#000000">(0x1579e20)</text>
<text text-anchor="start" x="365.5" y="-213.3" font-family="Times,serif" font-size="14.00" fill="#000000">mtime_cur</text>
<text text-anchor="start" x="472.5" y="-213.3" font-family="Times,serif" font-size="14.00" fill="#000000">=</text>
<text text-anchor="start" x="494.5" y="-213.3" font-family="Times,serif" font-size="14.00" fill="#000000">&quot;2018&#45;10&#45;06 13:07&quot;</text>
<text text-anchor="start" x="365.5" y="-194.3" font-family="Times,serif" font-size="14.00" fill="#000000">mh_umask</text>
<text text-anchor="start" x="472.5" y="-194.3" font-family="Times,serif" font-size="14.00" fill="#000000">=</text>
<text text-anchor="start" x="494.5" y="-194.3" font-family="Times,serif" font-size="14.00" fill="#000000">&quot;0022&quot;</text>
<polygon fill="#d0d0d0" stroke="#d0d0d0" points="362.5,-226.5 362.5,-226.5 648.5,-226.5 648.5,-226.5 362.5,-226.5"/>
<polygon fill="#d0d0d0" stroke="#d0d0d0" points="362.5,-207.5 362.5,-207.5 465.5,-207.5 465.5,-207.5 362.5,-207.5"/>
<polygon fill="#d0d0d0" stroke="#d0d0d0" points="465.5,-207.5 465.5,-207.5 492.5,-207.5 492.5,-207.5 465.5,-207.5"/>
<polygon fill="#d0d0d0" stroke="#d0d0d0" points="492.5,-207.5 492.5,-207.5 648.5,-207.5 648.5,-207.5 492.5,-207.5"/>
<polygon fill="none" stroke="#d0d0d0" points="362.5,-187.5 362.5,-253.5 648.5,-253.5 648.5,-187.5 362.5,-187.5"/>
</g>
<!-- obj_0x1592850&#45;&gt;obj_0x1579e20 -->
<g id="edge8" class="edge">
<title>obj_0x1592850&#45;&gt;obj_0x1579e20</title>
<g id="a_edge8"><a xlink:title="Mailbox&#45;&gt;mdata">
<path fill="none" stroke="#c0c0c0" stroke-width="4.5" d="M326.7461,-220.5C335.2779,-220.5 343.8098,-220.5 352.3416,-220.5"/>
<polygon fill="#c0c0c0" stroke="#c0c0c0" stroke-width="4.5" points="352.3573,-224.4376 362.3572,-220.5 352.3572,-216.5626 352.3573,-224.4376"/>
</a>
</g>
</g>
<!-- obj_0x1594b80 -->
<g id="node13" class="node">
<title>obj_0x1594b80</title>
<polygon fill="#80ff80" stroke="transparent" points="149.5,-95.5 149.5,-121.5 325.5,-121.5 325.5,-95.5 149.5,-95.5"/>
<text text-anchor="start" x="151.5" y="-104.5" font-family="Times,serif" font-weight="bold" font-size="20.00" fill="#000000">Mailbox</text>
<text text-anchor="start" x="242.5" y="-104.5" font-family="Times,serif" font-size="14.00" fill="#000000"> </text>
<text text-anchor="start" x="247.5" y="-104.5" font-family="Times,serif" font-size="12.00" fill="#000000">(0x1594b80)</text>
<text text-anchor="start" x="151.5" y="-82.3" font-family="Times,serif" font-size="14.00" fill="#000000">type</text>
<text text-anchor="start" x="216.5" y="-82.3" font-family="Times,serif" font-size="14.00" fill="#000000">=</text>
<text text-anchor="start" x="233.5" y="-82.3" font-family="Times,serif" font-size="14.00" fill="#000000">MAILDIR</text>
<text text-anchor="start" x="151.5" y="-63.3" font-family="Times,serif" font-size="14.00" fill="#000000">path</text>
<text text-anchor="start" x="216.5" y="-63.3" font-family="Times,serif" font-size="14.00" fill="#000000">=</text>
<text text-anchor="start" x="233.5" y="-63.3" font-family="Times,serif" font-size="14.00" fill="#000000">&quot;neo.users&quot;</text>
<text text-anchor="start" x="151.5" y="-44.3" font-family="Times,serif" font-size="14.00" fill="#000000">realpath</text>
<text text-anchor="start" x="216.5" y="-44.3" font-family="Times,serif" font-size="14.00" fill="#000000">=</text>
<text text-anchor="start" x="233.5" y="-44.3" font-family="Times,serif" font-size="14.00" fill="#000000">&quot;neo.users&quot;</text>
<text text-anchor="start" x="151.5" y="-25.3" font-family="Times,serif" font-size="14.00" fill="#000000">account</text>
<text text-anchor="start" x="216.5" y="-25.3" font-family="Times,serif" font-size="14.00" fill="#000000">=</text>
<polygon fill="#80ffff" stroke="transparent" points="231.5,-19.5 231.5,-38.5 325.5,-38.5 325.5,-19.5 231.5,-19.5"/>
<text text-anchor="start" x="233.5" y="-25.3" font-family="Times,serif" font-size="14.00" fill="#000000">0x156f730</text>
<text text-anchor="start" x="151.5" y="-6.3" font-family="Times,serif" font-size="14.00" fill="#000000">desc</text>
<text text-anchor="start" x="216.5" y="-6.3" font-family="Times,serif" font-size="14.00" fill="#000000">=</text>
<text text-anchor="start" x="233.5" y="-6.3" font-family="Times,serif" font-size="14.00" fill="#000000">&quot;Neo Users&quot;</text>
<polygon fill="#d0d0d0" stroke="#d0d0d0" points="148.5,-95.5 148.5,-95.5 326.5,-95.5 326.5,-95.5 148.5,-95.5"/>
<polygon fill="#d0d0d0" stroke="#d0d0d0" points="148.5,-76.5 148.5,-76.5 214.5,-76.5 214.5,-76.5 148.5,-76.5"/>
<polygon fill="#d0d0d0" stroke="#d0d0d0" points="214.5,-76.5 214.5,-76.5 231.5,-76.5 231.5,-76.5 214.5,-76.5"/>
<polygon fill="#d0d0d0" stroke="#d0d0d0" points="231.5,-76.5 231.5,-76.5 326.5,-76.5 326.5,-76.5 231.5,-76.5"/>
<polygon fill="#d0d0d0" stroke="#d0d0d0" points="148.5,-57.5 148.5,-57.5 214.5,-57.5 214.5,-57.5 148.5,-57.5"/>
<polygon fill="#d0d0d0" stroke="#d0d0d0" points="214.5,-57.5 214.5,-57.5 231.5,-57.5 231.5,-57.5 214.5,-57.5"/>
<polygon fill="#d0d0d0" stroke="#d0d0d0" points="231.5,-57.5 231.5,-57.5 326.5,-57.5 326.5,-57.5 231.5,-57.5"/>
<polygon fill="#d0d0d0" stroke="#d0d0d0" points="148.5,-38.5 148.5,-38.5 214.5,-38.5 214.5,-38.5 148.5,-38.5"/>
<polygon fill="#d0d0d0" stroke="#d0d0d0" points="214.5,-38.5 214.5,-38.5 231.5,-38.5 231.5,-38.5 214.5,-38.5"/>
<polygon fill="#d0d0d0" stroke="#d0d0d0" points="231.5,-38.5 231.5,-38.5 326.5,-38.5 326.5,-38.5 231.5,-38.5"/>
<polygon fill="#d0d0d0" stroke="#d0d0d0" points="148.5,-19.5 148.5,-19.5 214.5,-19.5 214.5,-19.5 148.5,-19.5"/>
<polygon fill="#d0d0d0" stroke="#d0d0d0" points="214.5,-19.5 214.5,-19.5 231.5,-19.5 231.5,-19.5 214.5,-19.5"/>
<polygon fill="#d0d0d0" stroke="#d0d0d0" points="231.5,-19.5 231.5,-19.5 326.5,-19.5 326.5,-19.5 231.5,-19.5"/>
<polygon fill="none" stroke="#d0d0d0" points="148.5,0 148.5,-123 326.5,-123 326.5,0 148.5,0"/>
</g>
<!-- obj_0x1596d40&#45;&gt;obj_0x1594b80 -->
<g id="edge12" class="edge">
<title>obj_0x1596d40&#45;&gt;obj_0x1594b80</title>
<g id="a_edge12"><a xlink:title="MailboxNode&#45;&gt;m">
<path fill="none" stroke="#c0c0c0" stroke-width="4.5" d="M112.6543,-61.5C121.1836,-61.5 129.7129,-61.5 138.2422,-61.5"/>
<polygon fill="#c0c0c0" stroke="#c0c0c0" stroke-width="4.5" points="138.2549,-65.4376 148.2548,-61.5 138.2548,-57.5626 138.2549,-65.4376"/>
</a>
</g>
</g>
<!-- obj_0x15e6e60 -->
<g id="node14" class="node">
<title>obj_0x15e6e60</title>
<polygon fill="#60c060" stroke="transparent" points="364.5,-67.5 364.5,-93.5 647.5,-93.5 647.5,-67.5 364.5,-67.5"/>
<text text-anchor="start" x="366.5" y="-76.5" font-family="Times,serif" font-weight="bold" font-size="20.00" fill="#000000">MaildirMboxData</text>
<text text-anchor="start" x="565.5" y="-76.5" font-family="Times,serif" font-size="14.00" fill="#000000"> </text>
<text text-anchor="start" x="570.5" y="-76.5" font-family="Times,serif" font-size="12.00" fill="#000000">(0x15e6e60)</text>
<text text-anchor="start" x="366.5" y="-54.3" font-family="Times,serif" font-size="14.00" fill="#000000">mtime_cur</text>
<text text-anchor="start" x="473.5" y="-54.3" font-family="Times,serif" font-size="14.00" fill="#000000">=</text>
<text text-anchor="start" x="495.5" y="-54.3" font-family="Times,serif" font-size="14.00" fill="#000000">&quot;2018&#45;10&#45;06 13:07&quot;</text>
<text text-anchor="start" x="366.5" y="-35.3" font-family="Times,serif" font-size="14.00" fill="#000000">mh_umask</text>
<text text-anchor="start" x="473.5" y="-35.3" font-family="Times,serif" font-size="14.00" fill="#000000">=</text>
<text text-anchor="start" x="495.5" y="-35.3" font-family="Times,serif" font-size="14.00" fill="#000000">&quot;0022&quot;</text>
<polygon fill="#d0d0d0" stroke="#d0d0d0" points="363.5,-67.5 363.5,-67.5 648.5,-67.5 648.5,-67.5 363.5,-67.5"/>
<polygon fill="#d0d0d0" stroke="#d0d0d0" points="363.5,-48.5 363.5,-48.5 466.5,-48.5 466.5,-48.5 363.5,-48.5"/>
<polygon fill="#d0d0d0" stroke="#d0d0d0" points="466.5,-48.5 466.5,-48.5 493.5,-48.5 493.5,-48.5 466.5,-48.5"/>
<polygon fill="#d0d0d0" stroke="#d0d0d0" points="493.5,-48.5 493.5,-48.5 648.5,-48.5 648.5,-48.5 493.5,-48.5"/>
<polygon fill="none" stroke="#d0d0d0" points="363,-28.5 363,-94.5 648,-94.5 648,-28.5 363,-28.5"/>
</g>
<!-- obj_0x1594b80&#45;&gt;obj_0x15e6e60 -->
<g id="edge11" class="edge">
<title>obj_0x1594b80&#45;&gt;obj_0x15e6e60</title>
<g id="a_edge11"><a xlink:title="Mailbox&#45;&gt;mdata">
<path fill="none" stroke="#c0c0c0" stroke-width="4.5" d="M326.7461,-61.5C335.3616,-61.5 343.9771,-61.5 352.5925,-61.5"/>
<polygon fill="#c0c0c0" stroke="#c0c0c0" stroke-width="4.5" points="352.7064,-65.4376 362.7064,-61.5 352.7063,-57.5626 352.7064,-65.4376"/>
</a>
</g>
</g>
<!-- obj_0x155b0f0 -->
<g id="node15" class="node">
<title>obj_0x155b0f0</title>
<polygon fill="#ff80ff" stroke="transparent" points="196.5,-738.5 196.5,-764.5 366.5,-764.5 366.5,-738.5 196.5,-738.5"/>
<text text-anchor="start" x="198.5" y="-747.5" font-family="Times,serif" font-weight="bold" font-size="20.00" fill="#000000">Context</text>
<text text-anchor="start" x="286.5" y="-747.5" font-family="Times,serif" font-size="14.00" fill="#000000"> </text>
<text text-anchor="start" x="291.5" y="-747.5" font-family="Times,serif" font-size="12.00" fill="#000000">(0x155b0f0)</text>
<text text-anchor="start" x="198.5" y="-725.3" font-family="Times,serif" font-size="14.00" fill="#000000">mailbox</text>
<text text-anchor="start" x="263.5" y="-725.3" font-family="Times,serif" font-size="14.00" fill="#000000">=</text>
<polygon fill="#80ff80" stroke="transparent" points="279.5,-719.5 279.5,-738.5 366.5,-738.5 366.5,-719.5 279.5,-719.5"/>
<text text-anchor="start" x="281.5" y="-725.3" font-family="Times,serif" font-size="14.00" fill="#000000">0x1594b80</text>
<polygon fill="#d0d0d0" stroke="#d0d0d0" points="195.5,-738.5 195.5,-738.5 367.5,-738.5 367.5,-738.5 195.5,-738.5"/>
<polygon fill="none" stroke="#d0d0d0" points="195.5,-719 195.5,-766 367.5,-766 367.5,-719 195.5,-719"/>
</g>
</g>
</svg>
