<?xml version="1.0" encoding="UTF-8" standalone="no"?>
<!DOCTYPE svg PUBLIC "-//W3C//DTD SVG 1.1//EN"
 "http://www.w3.org/Graphics/SVG/1.1/DTD/svg11.dtd">
<!-- Generated by graphviz version 2.40.1 (0)
 -->
<!-- Title: neomutt Pages: 1 -->
<svg width="1238pt" height="297pt"
 viewBox="0.00 0.00 1237.50 297.00" xmlns="http://www.w3.org/2000/svg" xmlns:xlink="http://www.w3.org/1999/xlink">
<g id="graph0" class="graph" transform="scale(1 1) rotate(0) translate(4 293)">
<title>neomutt</title>
<polygon fill="#ffffff" stroke="transparent" points="-4,4 -4,-293 1233.5,-293 1233.5,4 -4,4"/>
<!-- obj_0x56af30 -->
<g id="node1" class="node">
<title>obj_0x56af30</title>
<polygon fill="#80ffff" stroke="transparent" points="275,-252.5 275,-278.5 414,-278.5 414,-252.5 275,-252.5"/>
<text text-anchor="start" x="277" y="-261.5" font-family="Times,serif" font-weight="bold" font-size="20.00" fill="#000000">AllAccounts</text>
<polygon fill="none" stroke="#d0d0d0" points="273.5,-251.5 273.5,-279.5 414.5,-279.5 414.5,-251.5 273.5,-251.5"/>
</g>
<!-- obj_0xc2d960 -->
<g id="node2" class="node">
<title>obj_0xc2d960</title>
<polygon fill="#80ffff" stroke="transparent" points="259,-178.5 259,-204.5 429,-204.5 429,-178.5 259,-178.5"/>
<text text-anchor="start" x="261" y="-187.5" font-family="Times,serif" font-weight="bold" font-size="20.00" fill="#000000">Account</text>
<text text-anchor="start" x="354" y="-187.5" font-family="Times,serif" font-size="14.00" fill="#000000"> </text>
<text text-anchor="start" x="359" y="-187.5" font-family="Times,serif" font-size="12.00" fill="#000000">(0xc2d960)</text>
<text text-anchor="start" x="261" y="-165.3" font-family="Times,serif" font-size="14.00" fill="#000000">magic</text>
<text text-anchor="start" x="341.5" y="-165.3" font-family="Times,serif" font-size="14.00" fill="#000000">=</text>
<text text-anchor="start" x="365" y="-165.3" font-family="Times,serif" font-size="14.00" fill="#000000">MBOX</text>
<polygon fill="#d0d0d0" stroke="#d0d0d0" points="258,-178.5 258,-178.5 430,-178.5 430,-178.5 258,-178.5"/>
<polygon fill="none" stroke="#d0d0d0" points="258,-159 258,-206 430,-206 430,-159 258,-159"/>
</g>
<!-- obj_0x56af30&#45;&gt;obj_0xc2d960 -->
<g id="edge1" class="edge">
<title>obj_0x56af30&#45;&gt;obj_0xc2d960</title>
<g id="a_edge1"><a xlink:title="AllAccounts&#45;&gt;first">
<path fill="none" stroke="#c0c0c0" stroke-width="4.5" d="M344,-251.4202C344,-241.7365 344,-228.4474 344,-216.1211"/>
<polygon fill="#c0c0c0" stroke="#c0c0c0" stroke-width="4.5" points="347.9376,-216.0936 344,-206.0936 340.0626,-216.0937 347.9376,-216.0936"/>
</a>
</g>
</g>
<!-- obj_0xc60f60 -->
<g id="node3" class="node">
<title>obj_0xc60f60</title>
<polygon fill="#60c0c0" stroke="transparent" points="1,-86.5 1,-112.5 283,-112.5 283,-86.5 1,-86.5"/>
<text text-anchor="start" x="3" y="-95.5" font-family="Times,serif" font-weight="bold" font-size="20.00" fill="#000000">MboxAccountData</text>
<text text-anchor="start" x="211" y="-95.5" font-family="Times,serif" font-size="14.00" fill="#000000"> </text>
<text text-anchor="start" x="216" y="-95.5" font-family="Times,serif" font-size="12.00" fill="#000000">(0xc60f60)</text>
<text text-anchor="start" x="3" y="-73.3" font-family="Times,serif" font-size="14.00" fill="#000000">fp</text>
<text text-anchor="start" x="100" y="-73.3" font-family="Times,serif" font-size="14.00" fill="#000000">=</text>
<text text-anchor="start" x="125" y="-73.3" font-family="Times,serif" font-size="14.00" fill="#000000">(nil)</text>
<text text-anchor="start" x="3" y="-54.3" font-family="Times,serif" font-size="14.00" fill="#000000">atime</text>
<text text-anchor="start" x="100" y="-54.3" font-family="Times,serif" font-size="14.00" fill="#000000">=</text>
<text text-anchor="start" x="125" y="-54.3" font-family="Times,serif" font-size="14.00" fill="#000000">&quot;2018&#45;10&#45;22 20:39&quot;</text>
<text text-anchor="start" x="3" y="-35.3" font-family="Times,serif" font-size="14.00" fill="#000000">locked</text>
<text text-anchor="start" x="100" y="-35.3" font-family="Times,serif" font-size="14.00" fill="#000000">=</text>
<text text-anchor="start" x="125" y="-35.3" font-family="Times,serif" font-size="14.00" fill="#000000">false</text>
<text text-anchor="start" x="3" y="-16.3" font-family="Times,serif" font-size="14.00" fill="#000000">append</text>
<text text-anchor="start" x="100" y="-16.3" font-family="Times,serif" font-size="14.00" fill="#000000">=</text>
<text text-anchor="start" x="125" y="-16.3" font-family="Times,serif" font-size="14.00" fill="#000000">false</text>
<polygon fill="#d0d0d0" stroke="#d0d0d0" points="0,-86.5 0,-86.5 284,-86.5 284,-86.5 0,-86.5"/>
<polygon fill="#d0d0d0" stroke="#d0d0d0" points="0,-67.5 0,-67.5 90,-67.5 90,-67.5 0,-67.5"/>
<polygon fill="#d0d0d0" stroke="#d0d0d0" points="90,-67.5 90,-67.5 123,-67.5 123,-67.5 90,-67.5"/>
<polygon fill="#d0d0d0" stroke="#d0d0d0" points="123,-67.5 123,-67.5 284,-67.5 284,-67.5 123,-67.5"/>
<polygon fill="#d0d0d0" stroke="#d0d0d0" points="0,-48.5 0,-48.5 90,-48.5 90,-48.5 0,-48.5"/>
<polygon fill="#d0d0d0" stroke="#d0d0d0" points="90,-48.5 90,-48.5 123,-48.5 123,-48.5 90,-48.5"/>
<polygon fill="#d0d0d0" stroke="#d0d0d0" points="123,-48.5 123,-48.5 284,-48.5 284,-48.5 123,-48.5"/>
<polygon fill="#d0d0d0" stroke="#d0d0d0" points="0,-29.5 0,-29.5 90,-29.5 90,-29.5 0,-29.5"/>
<polygon fill="#d0d0d0" stroke="#d0d0d0" points="90,-29.5 90,-29.5 123,-29.5 123,-29.5 90,-29.5"/>
<polygon fill="#d0d0d0" stroke="#d0d0d0" points="123,-29.5 123,-29.5 284,-29.5 284,-29.5 123,-29.5"/>
<polygon fill="none" stroke="#d0d0d0" points="0,-9.5 0,-113.5 284,-113.5 284,-9.5 0,-9.5"/>
</g>
<!-- obj_0xc2d960&#45;&gt;obj_0xc60f60 -->
<g id="edge2" class="edge">
<title>obj_0xc2d960&#45;&gt;obj_0xc60f60</title>
<g id="a_edge2"><a xlink:title="Account&#45;&gt;adata">
<path fill="none" stroke="#c0c0c0" stroke-width="4.5" d="M304.5728,-158.8827C285.3484,-147.3671 261.3112,-132.9686 237.665,-118.8043"/>
<polygon fill="#c0c0c0" stroke="#c0c0c0" stroke-width="4.5" points="239.5826,-115.3631 228.9806,-113.6022 235.5359,-122.1188 239.5826,-115.3631"/>
</a>
</g>
</g>
<!-- obj_0xc2d9a0 -->
<g id="node4" class="node">
<title>obj_0xc2d9a0</title>
<polygon fill="#80ff80" stroke="transparent" points="321,-48.5 321,-74.5 367,-74.5 367,-48.5 321,-48.5"/>
<text text-anchor="start" x="323" y="-57.5" font-family="Times,serif" font-weight="bold" font-size="20.00" fill="#000000">MN</text>
<polygon fill="none" stroke="#d0d0d0" points="320,-47.5 320,-75.5 368,-75.5 368,-47.5 320,-47.5"/>
</g>
<!-- obj_0xc2d960&#45;&gt;obj_0xc2d9a0 -->
<g id="edge3" class="edge">
<title>obj_0xc2d960&#45;&gt;obj_0xc2d9a0</title>
<g id="a_edge3"><a xlink:title="Account&#45;&gt;mailboxes">
<path fill="none" stroke="#c0c0c0" stroke-width="4.5" d="M344,-158.8827C344,-137.7987 344,-107.0505 344,-85.77"/>
<polygon fill="#c0c0c0" stroke="#c0c0c0" stroke-width="4.5" points="347.9376,-85.6059 344,-75.6059 340.0626,-85.606 347.9376,-85.6059"/>
</a>
</g>
</g>
<!-- obj_0xc508a0 -->
<g id="node6" class="node">
<title>obj_0xc508a0</title>
<polygon fill="#80ffff" stroke="transparent" points="684,-178.5 684,-204.5 854,-204.5 854,-178.5 684,-178.5"/>
<text text-anchor="start" x="686" y="-187.5" font-family="Times,serif" font-weight="bold" font-size="20.00" fill="#000000">Account</text>
<text text-anchor="start" x="779" y="-187.5" font-family="Times,serif" font-size="14.00" fill="#000000"> </text>
<text text-anchor="start" x="784" y="-187.5" font-family="Times,serif" font-size="12.00" fill="#000000">(0xc508a0)</text>
<text text-anchor="start" x="686" y="-165.3" font-family="Times,serif" font-size="14.00" fill="#000000">magic</text>
<text text-anchor="start" x="766.5" y="-165.3" font-family="Times,serif" font-size="14.00" fill="#000000">=</text>
<text text-anchor="start" x="790" y="-165.3" font-family="Times,serif" font-size="14.00" fill="#000000">MBOX</text>
<polygon fill="#d0d0d0" stroke="#d0d0d0" points="683,-178.5 683,-178.5 855,-178.5 855,-178.5 683,-178.5"/>
<polygon fill="none" stroke="#d0d0d0" points="683,-159 683,-206 855,-206 855,-159 683,-159"/>
</g>
<!-- obj_0xc2d960&#45;&gt;obj_0xc508a0 -->
<g id="edge8" class="edge">
<title>obj_0xc2d960&#45;&gt;obj_0xc508a0</title>
<g id="a_edge8"><a xlink:title="Account&#45;&gt;next">
<path fill="none" stroke="#c0c0c0" stroke-width="4.5" d="M430.3281,-182.5C510.9948,-182.5 591.6614,-182.5 672.3281,-182.5"/>
<polygon fill="#c0c0c0" stroke="#c0c0c0" stroke-width="4.5" points="672.6784,-186.4376 682.6784,-182.5 672.6783,-178.5626 672.6784,-186.4376"/>
</a>
</g>
</g>
<!-- obj_0xc4c660 -->
<g id="node5" class="node">
<title>obj_0xc4c660</title>
<polygon fill="#80ff80" stroke="transparent" points="406,-95.5 406,-121.5 589,-121.5 589,-95.5 406,-95.5"/>
<text text-anchor="start" x="408" y="-104.5" font-family="Times,serif" font-weight="bold" font-size="20.00" fill="#000000">Mailbox</text>
<text text-anchor="start" x="499" y="-104.5" font-family="Times,serif" font-size="14.00" fill="#000000"> </text>
<text text-anchor="start" x="504" y="-104.5" font-family="Times,serif" font-size="12.00" fill="#000000">(0xc4c660)</text>
<text text-anchor="start" x="408" y="-82.3" font-family="Times,serif" font-size="14.00" fill="#000000">type</text>
<text text-anchor="start" x="473" y="-82.3" font-family="Times,serif" font-size="14.00" fill="#000000">=</text>
<text text-anchor="start" x="490" y="-82.3" font-family="Times,serif" font-size="14.00" fill="#000000">MBOX</text>
<text text-anchor="start" x="408" y="-63.3" font-family="Times,serif" font-size="14.00" fill="#000000">path</text>
<text text-anchor="start" x="473" y="-63.3" font-family="Times,serif" font-size="14.00" fill="#000000">=</text>
<text text-anchor="start" x="490" y="-63.3" font-family="Times,serif" font-size="14.00" fill="#000000">&quot;apple.mbox&quot;</text>
<text text-anchor="start" x="408" y="-44.3" font-family="Times,serif" font-size="14.00" fill="#000000">realpath</text>
<text text-anchor="start" x="473" y="-44.3" font-family="Times,serif" font-size="14.00" fill="#000000">=</text>
<text text-anchor="start" x="490" y="-44.3" font-family="Times,serif" font-size="14.00" fill="#000000">&quot;apple.mbox&quot;</text>
<text text-anchor="start" x="408" y="-25.3" font-family="Times,serif" font-size="14.00" fill="#000000">account</text>
<text text-anchor="start" x="473" y="-25.3" font-family="Times,serif" font-size="14.00" fill="#000000">=</text>
<polygon fill="#80ffff" stroke="transparent" points="488,-19.5 488,-38.5 589,-38.5 589,-19.5 488,-19.5"/>
<text text-anchor="start" x="490" y="-25.3" font-family="Times,serif" font-size="14.00" fill="#000000">0xc2d960</text>
<text text-anchor="start" x="408" y="-6.3" font-family="Times,serif" font-size="14.00" fill="#000000">desc</text>
<text text-anchor="start" x="473" y="-6.3" font-family="Times,serif" font-size="14.00" fill="#000000">=</text>
<text text-anchor="start" x="490" y="-6.3" font-family="Times,serif" font-size="14.00" fill="#000000">&quot;Mapple&quot;</text>
<polygon fill="#d0d0d0" stroke="#d0d0d0" points="405,-95.5 405,-95.5 590,-95.5 590,-95.5 405,-95.5"/>
<polygon fill="#d0d0d0" stroke="#d0d0d0" points="405,-76.5 405,-76.5 471,-76.5 471,-76.5 405,-76.5"/>
<polygon fill="#d0d0d0" stroke="#d0d0d0" points="471,-76.5 471,-76.5 488,-76.5 488,-76.5 471,-76.5"/>
<polygon fill="#d0d0d0" stroke="#d0d0d0" points="488,-76.5 488,-76.5 590,-76.5 590,-76.5 488,-76.5"/>
<polygon fill="#d0d0d0" stroke="#d0d0d0" points="405,-57.5 405,-57.5 471,-57.5 471,-57.5 405,-57.5"/>
<polygon fill="#d0d0d0" stroke="#d0d0d0" points="471,-57.5 471,-57.5 488,-57.5 488,-57.5 471,-57.5"/>
<polygon fill="#d0d0d0" stroke="#d0d0d0" points="488,-57.5 488,-57.5 590,-57.5 590,-57.5 488,-57.5"/>
<polygon fill="#d0d0d0" stroke="#d0d0d0" points="405,-38.5 405,-38.5 471,-38.5 471,-38.5 405,-38.5"/>
<polygon fill="#d0d0d0" stroke="#d0d0d0" points="471,-38.5 471,-38.5 488,-38.5 488,-38.5 471,-38.5"/>
<polygon fill="#d0d0d0" stroke="#d0d0d0" points="488,-38.5 488,-38.5 590,-38.5 590,-38.5 488,-38.5"/>
<polygon fill="#d0d0d0" stroke="#d0d0d0" points="405,-19.5 405,-19.5 471,-19.5 471,-19.5 405,-19.5"/>
<polygon fill="#d0d0d0" stroke="#d0d0d0" points="471,-19.5 471,-19.5 488,-19.5 488,-19.5 471,-19.5"/>
<polygon fill="#d0d0d0" stroke="#d0d0d0" points="488,-19.5 488,-19.5 590,-19.5 590,-19.5 488,-19.5"/>
<polygon fill="none" stroke="#d0d0d0" points="404.5,0 404.5,-123 589.5,-123 589.5,0 404.5,0"/>
</g>
<!-- obj_0xc2d9a0&#45;&gt;obj_0xc4c660 -->
<g id="edge4" class="edge">
<title>obj_0xc2d9a0&#45;&gt;obj_0xc4c660</title>
<g id="a_edge4"><a xlink:title="MailboxNode&#45;&gt;m">
<path fill="none" stroke="#c0c0c0" stroke-width="4.5" d="M368.2051,-61.5C376.8836,-61.5 385.5622,-61.5 394.2408,-61.5"/>
<polygon fill="#c0c0c0" stroke="#c0c0c0" stroke-width="4.5" points="394.4287,-65.4376 404.4286,-61.5 394.4286,-57.5626 394.4287,-65.4376"/>
</a>
</g>
</g>
<!-- obj_0xc52ee0 -->
<g id="node7" class="node">
<title>obj_0xc52ee0</title>
<polygon fill="#60c0c0" stroke="transparent" points="627,-86.5 627,-112.5 911,-112.5 911,-86.5 627,-86.5"/>
<text text-anchor="start" x="629" y="-95.5" font-family="Times,serif" font-weight="bold" font-size="20.00" fill="#000000">MboxAccountData</text>
<text text-anchor="start" x="837" y="-95.5" font-family="Times,serif" font-size="14.00" fill="#000000"> </text>
<text text-anchor="start" x="842" y="-95.5" font-family="Times,serif" font-size="12.00" fill="#000000">(0xc52ee0)</text>
<text text-anchor="start" x="629" y="-73.3" font-family="Times,serif" font-size="14.00" fill="#000000">fp</text>
<text text-anchor="start" x="727" y="-73.3" font-family="Times,serif" font-size="14.00" fill="#000000">=</text>
<text text-anchor="start" x="752" y="-73.3" font-family="Times,serif" font-size="14.00" fill="#000000">0xb5a280</text>
<text text-anchor="start" x="629" y="-54.3" font-family="Times,serif" font-size="14.00" fill="#000000">atime</text>
<text text-anchor="start" x="727" y="-54.3" font-family="Times,serif" font-size="14.00" fill="#000000">=</text>
<text text-anchor="start" x="752" y="-54.3" font-family="Times,serif" font-size="14.00" fill="#000000">&quot;2018&#45;10&#45;22 20:39&quot;</text>
<text text-anchor="start" x="629" y="-35.3" font-family="Times,serif" font-size="14.00" fill="#000000">locked</text>
<text text-anchor="start" x="727" y="-35.3" font-family="Times,serif" font-size="14.00" fill="#000000">=</text>
<text text-anchor="start" x="752" y="-35.3" font-family="Times,serif" font-size="14.00" fill="#000000">false</text>
<text text-anchor="start" x="629" y="-16.3" font-family="Times,serif" font-size="14.00" fill="#000000">append</text>
<text text-anchor="start" x="727" y="-16.3" font-family="Times,serif" font-size="14.00" fill="#000000">=</text>
<text text-anchor="start" x="752" y="-16.3" font-family="Times,serif" font-size="14.00" fill="#000000">false</text>
<polygon fill="#d0d0d0" stroke="#d0d0d0" points="626,-86.5 626,-86.5 912,-86.5 912,-86.5 626,-86.5"/>
<polygon fill="#d0d0d0" stroke="#d0d0d0" points="626,-67.5 626,-67.5 717,-67.5 717,-67.5 626,-67.5"/>
<polygon fill="#d0d0d0" stroke="#d0d0d0" points="717,-67.5 717,-67.5 750,-67.5 750,-67.5 717,-67.5"/>
<polygon fill="#d0d0d0" stroke="#d0d0d0" points="750,-67.5 750,-67.5 912,-67.5 912,-67.5 750,-67.5"/>
<polygon fill="#d0d0d0" stroke="#d0d0d0" points="626,-48.5 626,-48.5 717,-48.5 717,-48.5 626,-48.5"/>
<polygon fill="#d0d0d0" stroke="#d0d0d0" points="717,-48.5 717,-48.5 750,-48.5 750,-48.5 717,-48.5"/>
<polygon fill="#d0d0d0" stroke="#d0d0d0" points="750,-48.5 750,-48.5 912,-48.5 912,-48.5 750,-48.5"/>
<polygon fill="#d0d0d0" stroke="#d0d0d0" points="626,-29.5 626,-29.5 717,-29.5 717,-29.5 626,-29.5"/>
<polygon fill="#d0d0d0" stroke="#d0d0d0" points="717,-29.5 717,-29.5 750,-29.5 750,-29.5 717,-29.5"/>
<polygon fill="#d0d0d0" stroke="#d0d0d0" points="750,-29.5 750,-29.5 912,-29.5 912,-29.5 750,-29.5"/>
<polygon fill="none" stroke="#d0d0d0" points="626,-9.5 626,-113.5 912,-113.5 912,-9.5 626,-9.5"/>
</g>
<!-- obj_0xc508a0&#45;&gt;obj_0xc52ee0 -->
<g id="edge5" class="edge">
<title>obj_0xc508a0&#45;&gt;obj_0xc52ee0</title>
<g id="a_edge5"><a xlink:title="Account&#45;&gt;adata">
<path fill="none" stroke="#c0c0c0" stroke-width="4.5" d="M769,-158.8827C769,-148.6803 769,-136.215 769,-123.6545"/>
<polygon fill="#c0c0c0" stroke="#c0c0c0" stroke-width="4.5" points="772.9376,-123.6022 769,-113.6022 765.0626,-123.6023 772.9376,-123.6022"/>
</a>
</g>
</g>
<!-- obj_0xc508e0 -->
<g id="node8" class="node">
<title>obj_0xc508e0</title>
<polygon fill="#80ff80" stroke="transparent" points="949,-48.5 949,-74.5 995,-74.5 995,-48.5 949,-48.5"/>
<text text-anchor="start" x="951" y="-57.5" font-family="Times,serif" font-weight="bold" font-size="20.00" fill="#000000">MN</text>
<polygon fill="none" stroke="#d0d0d0" points="948,-47.5 948,-75.5 996,-75.5 996,-47.5 948,-47.5"/>
</g>
<!-- obj_0xc508a0&#45;&gt;obj_0xc508e0 -->
<g id="edge6" class="edge">
<title>obj_0xc508a0&#45;&gt;obj_0xc508e0</title>
<g id="a_edge6"><a xlink:title="Account&#45;&gt;mailboxes">
<path fill="none" stroke="#c0c0c0" stroke-width="4.5" d="M855.1257,-161.5922C880.9336,-152.5681 908.1546,-140.0528 930,-123 942.9945,-112.8563 953.4634,-97.5615 960.6991,-84.7628"/>
<polygon fill="#c0c0c0" stroke="#c0c0c0" stroke-width="4.5" points="964.3602,-86.2654 965.5904,-75.5888 957.4111,-82.5604 964.3602,-86.2654"/>
</a>
</g>
</g>
<!-- obj_0xc4e740 -->
<g id="node9" class="node">
<title>obj_0xc4e740</title>
<polygon fill="#80ff80" stroke="transparent" points="1034,-95.5 1034,-121.5 1229,-121.5 1229,-95.5 1034,-95.5"/>
<text text-anchor="start" x="1036" y="-104.5" font-family="Times,serif" font-weight="bold" font-size="20.00" fill="#000000">Mailbox</text>
<text text-anchor="start" x="1127" y="-104.5" font-family="Times,serif" font-size="14.00" fill="#000000"> </text>
<text text-anchor="start" x="1132" y="-104.5" font-family="Times,serif" font-size="12.00" fill="#000000">(0xc4e740)</text>
<text text-anchor="start" x="1036" y="-82.3" font-family="Times,serif" font-size="14.00" fill="#000000">type</text>
<text text-anchor="start" x="1101" y="-82.3" font-family="Times,serif" font-size="14.00" fill="#000000">=</text>
<text text-anchor="start" x="1118" y="-82.3" font-family="Times,serif" font-size="14.00" fill="#000000">MBOX</text>
<text text-anchor="start" x="1036" y="-63.3" font-family="Times,serif" font-size="14.00" fill="#000000">path</text>
<text text-anchor="start" x="1101" y="-63.3" font-family="Times,serif" font-size="14.00" fill="#000000">=</text>
<text text-anchor="start" x="1118" y="-63.3" font-family="Times,serif" font-size="14.00" fill="#000000">&quot;banana.mbox&quot;</text>
<text text-anchor="start" x="1036" y="-44.3" font-family="Times,serif" font-size="14.00" fill="#000000">realpath</text>
<text text-anchor="start" x="1101" y="-44.3" font-family="Times,serif" font-size="14.00" fill="#000000">=</text>
<text text-anchor="start" x="1118" y="-44.3" font-family="Times,serif" font-size="14.00" fill="#000000">&quot;banana.mbox&quot;</text>
<text text-anchor="start" x="1036" y="-25.3" font-family="Times,serif" font-size="14.00" fill="#000000">account</text>
<text text-anchor="start" x="1101" y="-25.3" font-family="Times,serif" font-size="14.00" fill="#000000">=</text>
<polygon fill="#80ffff" stroke="transparent" points="1116,-19.5 1116,-38.5 1229,-38.5 1229,-19.5 1116,-19.5"/>
<text text-anchor="start" x="1118" y="-25.3" font-family="Times,serif" font-size="14.00" fill="#000000">0xc508a0</text>
<text text-anchor="start" x="1036" y="-6.3" font-family="Times,serif" font-size="14.00" fill="#000000">desc</text>
<text text-anchor="start" x="1101" y="-6.3" font-family="Times,serif" font-size="14.00" fill="#000000">=</text>
<text text-anchor="start" x="1118" y="-6.3" font-family="Times,serif" font-size="14.00" fill="#000000">&quot;Mbanana&quot;</text>
<polygon fill="#d0d0d0" stroke="#d0d0d0" points="1033,-95.5 1033,-95.5 1230,-95.5 1230,-95.5 1033,-95.5"/>
<polygon fill="#d0d0d0" stroke="#d0d0d0" points="1033,-76.5 1033,-76.5 1099,-76.5 1099,-76.5 1033,-76.5"/>
<polygon fill="#d0d0d0" stroke="#d0d0d0" points="1099,-76.5 1099,-76.5 1116,-76.5 1116,-76.5 1099,-76.5"/>
<polygon fill="#d0d0d0" stroke="#d0d0d0" points="1116,-76.5 1116,-76.5 1230,-76.5 1230,-76.5 1116,-76.5"/>
<polygon fill="#d0d0d0" stroke="#d0d0d0" points="1033,-57.5 1033,-57.5 1099,-57.5 1099,-57.5 1033,-57.5"/>
<polygon fill="#d0d0d0" stroke="#d0d0d0" points="1099,-57.5 1099,-57.5 1116,-57.5 1116,-57.5 1099,-57.5"/>
<polygon fill="#d0d0d0" stroke="#d0d0d0" points="1116,-57.5 1116,-57.5 1230,-57.5 1230,-57.5 1116,-57.5"/>
<polygon fill="#d0d0d0" stroke="#d0d0d0" points="1033,-38.5 1033,-38.5 1099,-38.5 1099,-38.5 1033,-38.5"/>
<polygon fill="#d0d0d0" stroke="#d0d0d0" points="1099,-38.5 1099,-38.5 1116,-38.5 1116,-38.5 1099,-38.5"/>
<polygon fill="#d0d0d0" stroke="#d0d0d0" points="1116,-38.5 1116,-38.5 1230,-38.5 1230,-38.5 1116,-38.5"/>
<polygon fill="#d0d0d0" stroke="#d0d0d0" points="1033,-19.5 1033,-19.5 1099,-19.5 1099,-19.5 1033,-19.5"/>
<polygon fill="#d0d0d0" stroke="#d0d0d0" points="1099,-19.5 1099,-19.5 1116,-19.5 1116,-19.5 1099,-19.5"/>
<polygon fill="#d0d0d0" stroke="#d0d0d0" points="1116,-19.5 1116,-19.5 1230,-19.5 1230,-19.5 1116,-19.5"/>
<polygon fill="none" stroke="#d0d0d0" points="1032.5,0 1032.5,-123 1229.5,-123 1229.5,0 1032.5,0"/>
</g>
<!-- obj_0xc508e0&#45;&gt;obj_0xc4e740 -->
<g id="edge7" class="edge">
<title>obj_0xc508e0&#45;&gt;obj_0xc4e740</title>
<g id="a_edge7"><a xlink:title="MailboxNode&#45;&gt;m">
<path fill="none" stroke="#c0c0c0" stroke-width="4.5" d="M996.2227,-61.5C1004.8629,-61.5 1013.5031,-61.5 1022.1433,-61.5"/>
<polygon fill="#c0c0c0" stroke="#c0c0c0" stroke-width="4.5" points="1022.2862,-65.4376 1032.2861,-61.5 1022.2861,-57.5626 1022.2862,-65.4376"/>
</a>
</g>
</g>
<!-- obj_0xc14360 -->
<g id="node10" class="node">
<title>obj_0xc14360</title>
<polygon fill="#ff80ff" stroke="transparent" points="452,-261.5 452,-287.5 617,-287.5 617,-261.5 452,-261.5"/>
<text text-anchor="start" x="454" y="-270.5" font-family="Times,serif" font-weight="bold" font-size="20.00" fill="#000000">Context</text>
<text text-anchor="start" x="542" y="-270.5" font-family="Times,serif" font-size="14.00" fill="#000000"> </text>
<text text-anchor="start" x="547" y="-270.5" font-family="Times,serif" font-size="12.00" fill="#000000">(0xc14360)</text>
<text text-anchor="start" x="454" y="-248.3" font-family="Times,serif" font-size="14.00" fill="#000000">mailbox</text>
<text text-anchor="start" x="522.5" y="-248.3" font-family="Times,serif" font-size="14.00" fill="#000000">=</text>
<polygon fill="#80ff80" stroke="transparent" points="539,-242.5 539,-261.5 617,-261.5 617,-242.5 539,-242.5"/>
<text text-anchor="start" x="541" y="-248.3" font-family="Times,serif" font-size="14.00" fill="#000000">0xc4e740</text>
<polygon fill="#d0d0d0" stroke="#d0d0d0" points="451,-261.5 451,-261.5 618,-261.5 618,-261.5 451,-261.5"/>
<polygon fill="none" stroke="#d0d0d0" points="450.5,-242 450.5,-289 617.5,-289 617.5,-242 450.5,-242"/>
</g>
</g>
</svg>
