<?xml version="1.0" encoding="UTF-8" standalone="no"?>
<!DOCTYPE svg PUBLIC "-//W3C//DTD SVG 1.1//EN"
 "http://www.w3.org/Graphics/SVG/1.1/DTD/svg11.dtd">
<!-- Generated by graphviz version 2.40.1 (0)
 -->
<!-- Title: neomutt Pages: 1 -->
<svg width="972pt" height="418pt"
 viewBox="0.00 0.00 971.50 418.00" xmlns="http://www.w3.org/2000/svg" xmlns:xlink="http://www.w3.org/1999/xlink">
<g id="graph0" class="graph" transform="scale(1 1) rotate(0) translate(4 414)">
<title>neomutt</title>
<polygon fill="#ffffff" stroke="transparent" points="-4,4 -4,-414 967.5,-414 967.5,4 -4,4"/>
<!-- obj_0x56af30 -->
<g id="node1" class="node">
<title>obj_0x56af30</title>
<polygon fill="#80ffff" stroke="transparent" points="170.5,-373.5 170.5,-399.5 309.5,-399.5 309.5,-373.5 170.5,-373.5"/>
<text text-anchor="start" x="172.5" y="-382.5" font-family="Times,serif" font-weight="bold" font-size="20.00" fill="#000000">AllAccounts</text>
<polygon fill="none" stroke="#d0d0d0" points="169,-372.5 169,-400.5 310,-400.5 310,-372.5 169,-372.5"/>
</g>
<!-- obj_0xfc56b0 -->
<g id="node2" class="node">
<title>obj_0xfc56b0</title>
<polygon fill="#80ffff" stroke="transparent" points="156.5,-299.5 156.5,-325.5 323.5,-325.5 323.5,-299.5 156.5,-299.5"/>
<text text-anchor="start" x="158.5" y="-308.5" font-family="Times,serif" font-weight="bold" font-size="20.00" fill="#000000">Account</text>
<text text-anchor="start" x="251.5" y="-308.5" font-family="Times,serif" font-size="14.00" fill="#000000"> </text>
<text text-anchor="start" x="256.5" y="-308.5" font-family="Times,serif" font-size="12.00" fill="#000000">(0xfc56b0)</text>
<text text-anchor="start" x="158.5" y="-286.3" font-family="Times,serif" font-size="14.00" fill="#000000">magic</text>
<text text-anchor="start" x="239" y="-286.3" font-family="Times,serif" font-size="14.00" fill="#000000">=</text>
<text text-anchor="start" x="262.5" y="-286.3" font-family="Times,serif" font-size="14.00" fill="#000000">NNTP</text>
<polygon fill="#d0d0d0" stroke="#d0d0d0" points="155.5,-299.5 155.5,-299.5 324.5,-299.5 324.5,-299.5 155.5,-299.5"/>
<polygon fill="none" stroke="#d0d0d0" points="155,-280 155,-327 324,-327 324,-280 155,-280"/>
</g>
<!-- obj_0x56af30&#45;&gt;obj_0xfc56b0 -->
<g id="edge1" class="edge">
<title>obj_0x56af30&#45;&gt;obj_0xfc56b0</title>
<g id="a_edge1"><a xlink:title="AllAccounts&#45;&gt;first">
<path fill="none" stroke="#c0c0c0" stroke-width="4.5" d="M239.5,-372.4202C239.5,-362.7365 239.5,-349.4474 239.5,-337.1211"/>
<polygon fill="#c0c0c0" stroke="#c0c0c0" stroke-width="4.5" points="243.4376,-337.0936 239.5,-327.0936 235.5626,-337.0937 243.4376,-337.0936"/>
</a>
</g>
</g>
<!-- obj_0xf9bde0 -->
<g id="node3" class="node">
<title>obj_0xf9bde0</title>
<polygon fill="#60c0c0" stroke="transparent" points="1.5,-188 1.5,-214 278.5,-214 278.5,-188 1.5,-188"/>
<text text-anchor="start" x="3.5" y="-197" font-family="Times,serif" font-weight="bold" font-size="20.00" fill="#000000">NntpAccountData</text>
<text text-anchor="start" x="206.5" y="-197" font-family="Times,serif" font-size="14.00" fill="#000000"> </text>
<text text-anchor="start" x="211.5" y="-197" font-family="Times,serif" font-size="12.00" fill="#000000">(0xf9bde0)</text>
<text text-anchor="start" x="3.5" y="-174.8" font-family="Times,serif" font-size="14.00" fill="#000000">groups_num</text>
<text text-anchor="start" x="169" y="-174.8" font-family="Times,serif" font-size="14.00" fill="#000000">=</text>
<text text-anchor="start" x="200.5" y="-174.8" font-family="Times,serif" font-size="14.00" fill="#000000">32765</text>
<polygon fill="#d0d0d0" stroke="#d0d0d0" points=".5,-188 .5,-188 279.5,-188 279.5,-188 .5,-188"/>
<polygon fill="none" stroke="#d0d0d0" points="0,-168.5 0,-215.5 279,-215.5 279,-168.5 0,-168.5"/>
</g>
<!-- obj_0xfc56b0&#45;&gt;obj_0xf9bde0 -->
<g id="edge3" class="edge">
<title>obj_0xfc56b0&#45;&gt;obj_0xf9bde0</title>
<g id="a_edge3"><a xlink:title="Account&#45;&gt;adata">
<path fill="none" stroke="#c0c0c0" stroke-width="4.5" d="M218.2926,-279.8537C203.5761,-263.4449 183.8115,-241.4074 167.7594,-223.5093"/>
<polygon fill="#c0c0c0" stroke="#c0c0c0" stroke-width="4.5" points="170.2849,-220.4278 160.6769,-215.6122 164.4223,-225.6857 170.2849,-220.4278"/>
</a>
</g>
</g>
<!-- obj_0xfc56f0 -->
<g id="node5" class="node">
<title>obj_0xfc56f0</title>
<polygon fill="#80ff80" stroke="transparent" points="316.5,-179 316.5,-205 362.5,-205 362.5,-179 316.5,-179"/>
<text text-anchor="start" x="318.5" y="-188" font-family="Times,serif" font-weight="bold" font-size="20.00" fill="#000000">MN</text>
<polygon fill="none" stroke="#d0d0d0" points="315.5,-178 315.5,-206 363.5,-206 363.5,-178 315.5,-178"/>
</g>
<!-- obj_0xfc56b0&#45;&gt;obj_0xfc56f0 -->
<g id="edge4" class="edge">
<title>obj_0xfc56b0&#45;&gt;obj_0xfc56f0</title>
<g id="a_edge4"><a xlink:title="Account&#45;&gt;mailboxes">
<path fill="none" stroke="#c0c0c0" stroke-width="4.5" d="M263.4438,-279.9555C274.1088,-269.2117 286.6777,-256.1902 297.5,-244 305.8761,-234.5651 314.7128,-223.7654 322.1081,-214.4618"/>
<polygon fill="#c0c0c0" stroke="#c0c0c0" stroke-width="4.5" points="325.3472,-216.7129 328.44,-206.4203 319.16,-211.8411 325.3472,-216.7129"/>
</a>
</g>
</g>
<!-- obj_0xff7400 -->
<g id="node4" class="node">
<title>obj_0xff7400</title>
<polygon fill="#ff8080" stroke="transparent" points="39.5,-77 39.5,-103 240.5,-103 240.5,-77 39.5,-77"/>
<text text-anchor="start" x="41.5" y="-86" font-family="Times,serif" font-weight="bold" font-size="20.00" fill="#000000">Connection</text>
<text text-anchor="start" x="171.5" y="-86" font-family="Times,serif" font-size="14.00" fill="#000000"> </text>
<text text-anchor="start" x="176.5" y="-86" font-family="Times,serif" font-size="12.00" fill="#000000">(0xff7400)</text>
<text text-anchor="start" x="41.5" y="-63.8" font-family="Times,serif" font-size="14.00" fill="#000000">user</text>
<text text-anchor="start" x="85" y="-63.8" font-family="Times,serif" font-size="14.00" fill="#000000">=</text>
<text text-anchor="start" x="103.5" y="-63.8" font-family="Times,serif" font-size="14.00" fill="#000000">&quot;&quot;</text>
<text text-anchor="start" x="41.5" y="-44.8" font-family="Times,serif" font-size="14.00" fill="#000000">host</text>
<text text-anchor="start" x="85" y="-44.8" font-family="Times,serif" font-size="14.00" fill="#000000">=</text>
<text text-anchor="start" x="103.5" y="-44.8" font-family="Times,serif" font-size="14.00" fill="#000000">&quot;news.gmane.org&quot;</text>
<text text-anchor="start" x="41.5" y="-25.8" font-family="Times,serif" font-size="14.00" fill="#000000">port</text>
<text text-anchor="start" x="85" y="-25.8" font-family="Times,serif" font-size="14.00" fill="#000000">=</text>
<text text-anchor="start" x="103.5" y="-25.8" font-family="Times,serif" font-size="14.00" fill="#000000">119</text>
<text text-anchor="start" x="41.5" y="-6.8" font-family="Times,serif" font-size="14.00" fill="#000000">fd</text>
<text text-anchor="start" x="85" y="-6.8" font-family="Times,serif" font-size="14.00" fill="#000000">=</text>
<text text-anchor="start" x="103.5" y="-6.8" font-family="Times,serif" font-size="14.00" fill="#000000">5</text>
<polygon fill="#d0d0d0" stroke="#d0d0d0" points="38.5,-77 38.5,-77 241.5,-77 241.5,-77 38.5,-77"/>
<polygon fill="#d0d0d0" stroke="#d0d0d0" points="38.5,-58 38.5,-58 81.5,-58 81.5,-58 38.5,-58"/>
<polygon fill="#d0d0d0" stroke="#d0d0d0" points="81.5,-58 81.5,-58 101.5,-58 101.5,-58 81.5,-58"/>
<polygon fill="#d0d0d0" stroke="#d0d0d0" points="101.5,-58 101.5,-58 241.5,-58 241.5,-58 101.5,-58"/>
<polygon fill="#d0d0d0" stroke="#d0d0d0" points="38.5,-39 38.5,-39 81.5,-39 81.5,-39 38.5,-39"/>
<polygon fill="#d0d0d0" stroke="#d0d0d0" points="81.5,-39 81.5,-39 101.5,-39 101.5,-39 81.5,-39"/>
<polygon fill="#d0d0d0" stroke="#d0d0d0" points="101.5,-39 101.5,-39 241.5,-39 241.5,-39 101.5,-39"/>
<polygon fill="#d0d0d0" stroke="#d0d0d0" points="38.5,-20 38.5,-20 81.5,-20 81.5,-20 38.5,-20"/>
<polygon fill="#d0d0d0" stroke="#d0d0d0" points="81.5,-20 81.5,-20 101.5,-20 101.5,-20 81.5,-20"/>
<polygon fill="#d0d0d0" stroke="#d0d0d0" points="101.5,-20 101.5,-20 241.5,-20 241.5,-20 101.5,-20"/>
<polygon fill="none" stroke="#d0d0d0" points="38,0 38,-104 241,-104 241,0 38,0"/>
</g>
<!-- obj_0xf9bde0&#45;&gt;obj_0xff7400 -->
<g id="edge2" class="edge">
<title>obj_0xf9bde0&#45;&gt;obj_0xff7400</title>
<g id="a_edge2"><a xlink:title="NntpAccountData&#45;&gt;conn">
<path fill="none" stroke="#c0c0c0" stroke-width="4.5" d="M139.5,-168.2509C139.5,-153.3721 139.5,-133.4471 139.5,-114.3001"/>
<polygon fill="#c0c0c0" stroke="#c0c0c0" stroke-width="4.5" points="143.4376,-114.0857 139.5,-104.0857 135.5626,-114.0858 143.4376,-114.0857"/>
</a>
</g>
</g>
<!-- obj_0xfe4660 -->
<g id="node6" class="node">
<title>obj_0xfe4660</title>
<polygon fill="#80ff80" stroke="transparent" points="400.5,-217 400.5,-243 658.5,-243 658.5,-217 400.5,-217"/>
<text text-anchor="start" x="402.5" y="-226" font-family="Times,serif" font-weight="bold" font-size="20.00" fill="#000000">Mailbox</text>
<text text-anchor="start" x="493.5" y="-226" font-family="Times,serif" font-size="14.00" fill="#000000"> </text>
<text text-anchor="start" x="498.5" y="-226" font-family="Times,serif" font-size="12.00" fill="#000000">(0xfe4660)</text>
<text text-anchor="start" x="402.5" y="-203.8" font-family="Times,serif" font-size="14.00" fill="#000000">type</text>
<text text-anchor="start" x="467.5" y="-203.8" font-family="Times,serif" font-size="14.00" fill="#000000">=</text>
<text text-anchor="start" x="484.5" y="-203.8" font-family="Times,serif" font-size="14.00" fill="#000000">NNTP</text>
<text text-anchor="start" x="402.5" y="-184.8" font-family="Times,serif" font-size="14.00" fill="#000000">path</text>
<text text-anchor="start" x="467.5" y="-184.8" font-family="Times,serif" font-size="14.00" fill="#000000">=</text>
<text text-anchor="start" x="484.5" y="-184.8" font-family="Times,serif" font-size="14.00" fill="#000000">&quot;gmane.mail.mutt.user&quot;</text>
<text text-anchor="start" x="402.5" y="-165.8" font-family="Times,serif" font-size="14.00" fill="#000000">realpath</text>
<text text-anchor="start" x="467.5" y="-165.8" font-family="Times,serif" font-size="14.00" fill="#000000">=</text>
<text text-anchor="start" x="484.5" y="-165.8" font-family="Times,serif" font-size="14.00" fill="#000000">&quot;gmane.mail.mutt.user&quot;</text>
<text text-anchor="start" x="402.5" y="-146.8" font-family="Times,serif" font-size="14.00" fill="#000000">account</text>
<text text-anchor="start" x="467.5" y="-146.8" font-family="Times,serif" font-size="14.00" fill="#000000">=</text>
<polygon fill="#80ffff" stroke="transparent" points="482.5,-141 482.5,-160 658.5,-160 658.5,-141 482.5,-141"/>
<text text-anchor="start" x="484.5" y="-146.8" font-family="Times,serif" font-size="14.00" fill="#000000">0xfc56b0</text>
<polygon fill="#d0d0d0" stroke="#d0d0d0" points="399.5,-217 399.5,-217 659.5,-217 659.5,-217 399.5,-217"/>
<polygon fill="#d0d0d0" stroke="#d0d0d0" points="399.5,-198 399.5,-198 465.5,-198 465.5,-198 399.5,-198"/>
<polygon fill="#d0d0d0" stroke="#d0d0d0" points="465.5,-198 465.5,-198 482.5,-198 482.5,-198 465.5,-198"/>
<polygon fill="#d0d0d0" stroke="#d0d0d0" points="482.5,-198 482.5,-198 659.5,-198 659.5,-198 482.5,-198"/>
<polygon fill="#d0d0d0" stroke="#d0d0d0" points="399.5,-179 399.5,-179 465.5,-179 465.5,-179 399.5,-179"/>
<polygon fill="#d0d0d0" stroke="#d0d0d0" points="465.5,-179 465.5,-179 482.5,-179 482.5,-179 465.5,-179"/>
<polygon fill="#d0d0d0" stroke="#d0d0d0" points="482.5,-179 482.5,-179 659.5,-179 659.5,-179 482.5,-179"/>
<polygon fill="#d0d0d0" stroke="#d0d0d0" points="399.5,-160 399.5,-160 465.5,-160 465.5,-160 399.5,-160"/>
<polygon fill="#d0d0d0" stroke="#d0d0d0" points="465.5,-160 465.5,-160 482.5,-160 482.5,-160 465.5,-160"/>
<polygon fill="#d0d0d0" stroke="#d0d0d0" points="482.5,-160 482.5,-160 659.5,-160 659.5,-160 482.5,-160"/>
<polygon fill="none" stroke="#d0d0d0" points="399.5,-140 399.5,-244 659.5,-244 659.5,-140 399.5,-140"/>
</g>
<!-- obj_0xfc56f0&#45;&gt;obj_0xfe4660 -->
<g id="edge6" class="edge">
<title>obj_0xfc56f0&#45;&gt;obj_0xfe4660</title>
<g id="a_edge6"><a xlink:title="MailboxNode&#45;&gt;m">
<path fill="none" stroke="#c0c0c0" stroke-width="4.5" d="M363.6211,-192C372.1594,-192 380.6977,-192 389.2359,-192"/>
<polygon fill="#c0c0c0" stroke="#c0c0c0" stroke-width="4.5" points="389.2592,-195.9376 399.2591,-192 389.2591,-188.0626 389.2592,-195.9376"/>
</a>
</g>
</g>
<!-- obj_0xefec80 -->
<g id="node8" class="node">
<title>obj_0xefec80</title>
<polygon fill="#80ff80" stroke="transparent" points="316.5,-39 316.5,-65 362.5,-65 362.5,-39 316.5,-39"/>
<text text-anchor="start" x="318.5" y="-48" font-family="Times,serif" font-weight="bold" font-size="20.00" fill="#000000">MN</text>
<polygon fill="none" stroke="#d0d0d0" points="315.5,-38 315.5,-66 363.5,-66 363.5,-38 315.5,-38"/>
</g>
<!-- obj_0xfc56f0&#45;&gt;obj_0xefec80 -->
<g id="edge9" class="edge">
<title>obj_0xfc56f0&#45;&gt;obj_0xefec80</title>
<g id="a_edge9"><a xlink:title="MailboxNode&#45;&gt;next">
<path fill="none" stroke="#c0c0c0" stroke-width="4.5" d="M339.5,-177.8056C339.5,-154.0122 339.5,-105.8087 339.5,-76.4647"/>
<polygon fill="#c0c0c0" stroke="#c0c0c0" stroke-width="4.5" points="343.4376,-76.2319 339.5,-66.232 335.5626,-76.232 343.4376,-76.2319"/>
</a>
</g>
</g>
<!-- obj_0x10134f0 -->
<g id="node7" class="node">
<title>obj_0x10134f0</title>
<polygon fill="#60c060" stroke="transparent" points="697.5,-188 697.5,-214 952.5,-214 952.5,-188 697.5,-188"/>
<text text-anchor="start" x="699.5" y="-197" font-family="Times,serif" font-weight="bold" font-size="20.00" fill="#000000">NntpMboxData</text>
<text text-anchor="start" x="872.5" y="-197" font-family="Times,serif" font-size="14.00" fill="#000000"> </text>
<text text-anchor="start" x="877.5" y="-197" font-family="Times,serif" font-size="12.00" fill="#000000">(0x10134f0)</text>
<text text-anchor="start" x="699.5" y="-174.8" font-family="Times,serif" font-size="14.00" fill="#000000">group</text>
<text text-anchor="start" x="755.5" y="-174.8" font-family="Times,serif" font-size="14.00" fill="#000000">=</text>
<text text-anchor="start" x="774.5" y="-174.8" font-family="Times,serif" font-size="14.00" fill="#000000">&quot;gmane.mail.mutt.user&quot;</text>
<polygon fill="#d0d0d0" stroke="#d0d0d0" points="696.5,-188 696.5,-188 953.5,-188 953.5,-188 696.5,-188"/>
<polygon fill="none" stroke="#d0d0d0" points="696,-168.5 696,-215.5 953,-215.5 953,-168.5 696,-168.5"/>
</g>
<!-- obj_0xfe4660&#45;&gt;obj_0x10134f0 -->
<g id="edge5" class="edge">
<title>obj_0xfe4660&#45;&gt;obj_0x10134f0</title>
<g id="a_edge5"><a xlink:title="Mailbox&#45;&gt;mdata">
<path fill="none" stroke="#c0c0c0" stroke-width="4.5" d="M659.7148,-192C668.351,-192 676.9872,-192 685.6234,-192"/>
<polygon fill="#c0c0c0" stroke="#c0c0c0" stroke-width="4.5" points="685.7616,-195.9376 695.7616,-192 685.7616,-188.0626 685.7616,-195.9376"/>
</a>
</g>
</g>
<!-- obj_0xfe6740 -->
<g id="node9" class="node">
<title>obj_0xfe6740</title>
<polygon fill="#80ff80" stroke="transparent" points="401.5,-77 401.5,-103 666.5,-103 666.5,-77 401.5,-77"/>
<text text-anchor="start" x="403.5" y="-86" font-family="Times,serif" font-weight="bold" font-size="20.00" fill="#000000">Mailbox</text>
<text text-anchor="start" x="494.5" y="-86" font-family="Times,serif" font-size="14.00" fill="#000000"> </text>
<text text-anchor="start" x="499.5" y="-86" font-family="Times,serif" font-size="12.00" fill="#000000">(0xfe6740)</text>
<text text-anchor="start" x="403.5" y="-63.8" font-family="Times,serif" font-size="14.00" fill="#000000">type</text>
<text text-anchor="start" x="468.5" y="-63.8" font-family="Times,serif" font-size="14.00" fill="#000000">=</text>
<text text-anchor="start" x="485.5" y="-63.8" font-family="Times,serif" font-size="14.00" fill="#000000">NNTP</text>
<text text-anchor="start" x="403.5" y="-44.8" font-family="Times,serif" font-size="14.00" fill="#000000">path</text>
<text text-anchor="start" x="468.5" y="-44.8" font-family="Times,serif" font-size="14.00" fill="#000000">=</text>
<text text-anchor="start" x="485.5" y="-44.8" font-family="Times,serif" font-size="14.00" fill="#000000">&quot;gmane.mail.mutt.devel&quot;</text>
<text text-anchor="start" x="403.5" y="-25.8" font-family="Times,serif" font-size="14.00" fill="#000000">realpath</text>
<text text-anchor="start" x="468.5" y="-25.8" font-family="Times,serif" font-size="14.00" fill="#000000">=</text>
<text text-anchor="start" x="485.5" y="-25.8" font-family="Times,serif" font-size="14.00" fill="#000000">&quot;gmane.mail.mutt.devel&quot;</text>
<text text-anchor="start" x="403.5" y="-6.8" font-family="Times,serif" font-size="14.00" fill="#000000">account</text>
<text text-anchor="start" x="468.5" y="-6.8" font-family="Times,serif" font-size="14.00" fill="#000000">=</text>
<polygon fill="#80ffff" stroke="transparent" points="483.5,-1 483.5,-20 666.5,-20 666.5,-1 483.5,-1"/>
<text text-anchor="start" x="485.5" y="-6.8" font-family="Times,serif" font-size="14.00" fill="#000000">0xfc56b0</text>
<polygon fill="#d0d0d0" stroke="#d0d0d0" points="400.5,-77 400.5,-77 667.5,-77 667.5,-77 400.5,-77"/>
<polygon fill="#d0d0d0" stroke="#d0d0d0" points="400.5,-58 400.5,-58 466.5,-58 466.5,-58 400.5,-58"/>
<polygon fill="#d0d0d0" stroke="#d0d0d0" points="466.5,-58 466.5,-58 483.5,-58 483.5,-58 466.5,-58"/>
<polygon fill="#d0d0d0" stroke="#d0d0d0" points="483.5,-58 483.5,-58 667.5,-58 667.5,-58 483.5,-58"/>
<polygon fill="#d0d0d0" stroke="#d0d0d0" points="400.5,-39 400.5,-39 466.5,-39 466.5,-39 400.5,-39"/>
<polygon fill="#d0d0d0" stroke="#d0d0d0" points="466.5,-39 466.5,-39 483.5,-39 483.5,-39 466.5,-39"/>
<polygon fill="#d0d0d0" stroke="#d0d0d0" points="483.5,-39 483.5,-39 667.5,-39 667.5,-39 483.5,-39"/>
<polygon fill="#d0d0d0" stroke="#d0d0d0" points="400.5,-20 400.5,-20 466.5,-20 466.5,-20 400.5,-20"/>
<polygon fill="#d0d0d0" stroke="#d0d0d0" points="466.5,-20 466.5,-20 483.5,-20 483.5,-20 466.5,-20"/>
<polygon fill="#d0d0d0" stroke="#d0d0d0" points="483.5,-20 483.5,-20 667.5,-20 667.5,-20 483.5,-20"/>
<polygon fill="none" stroke="#d0d0d0" points="400,0 400,-104 667,-104 667,0 400,0"/>
</g>
<!-- obj_0xefec80&#45;&gt;obj_0xfe6740 -->
<g id="edge8" class="edge">
<title>obj_0xefec80&#45;&gt;obj_0xfe6740</title>
<g id="a_edge8"><a xlink:title="MailboxNode&#45;&gt;m">
<path fill="none" stroke="#c0c0c0" stroke-width="4.5" d="M363.75,-52C372.4081,-52 381.0662,-52 389.7243,-52"/>
<polygon fill="#c0c0c0" stroke="#c0c0c0" stroke-width="4.5" points="389.8882,-55.9376 399.8882,-52 389.8881,-48.0626 389.8882,-55.9376"/>
</a>
</g>
</g>
<!-- obj_0x108e150 -->
<g id="node10" class="node">
<title>obj_0x108e150</title>
<polygon fill="#60c060" stroke="transparent" points="704.5,-48 704.5,-74 962.5,-74 962.5,-48 704.5,-48"/>
<text text-anchor="start" x="706.5" y="-57" font-family="Times,serif" font-weight="bold" font-size="20.00" fill="#000000">NntpMboxData</text>
<text text-anchor="start" x="879.5" y="-57" font-family="Times,serif" font-size="14.00" fill="#000000"> </text>
<text text-anchor="start" x="884.5" y="-57" font-family="Times,serif" font-size="12.00" fill="#000000">(0x108e150)</text>
<text text-anchor="start" x="706.5" y="-34.8" font-family="Times,serif" font-size="14.00" fill="#000000">group</text>
<text text-anchor="start" x="760" y="-34.8" font-family="Times,serif" font-size="14.00" fill="#000000">=</text>
<text text-anchor="start" x="778.5" y="-34.8" font-family="Times,serif" font-size="14.00" fill="#000000">&quot;gmane.mail.mutt.devel&quot;</text>
<polygon fill="#d0d0d0" stroke="#d0d0d0" points="703.5,-48 703.5,-48 963.5,-48 963.5,-48 703.5,-48"/>
<polygon fill="none" stroke="#d0d0d0" points="703.5,-28.5 703.5,-75.5 963.5,-75.5 963.5,-28.5 703.5,-28.5"/>
</g>
<!-- obj_0xfe6740&#45;&gt;obj_0x108e150 -->
<g id="edge7" class="edge">
<title>obj_0xfe6740&#45;&gt;obj_0x108e150</title>
<g id="a_edge7"><a xlink:title="Mailbox&#45;&gt;mdata">
<path fill="none" stroke="#c0c0c0" stroke-width="4.5" d="M667.0938,-52C675.8149,-52 684.5361,-52 693.2572,-52"/>
<polygon fill="#c0c0c0" stroke="#c0c0c0" stroke-width="4.5" points="693.4952,-55.9376 703.4951,-52 693.4951,-48.0626 693.4952,-55.9376"/>
</a>
</g>
</g>
<!-- obj_0x1cc4040 -->
<g id="node11" class="node">
<title>obj_0x1cc4040</title>
<polygon fill="#ff80ff" stroke="transparent" points="347.5,-382.5 347.5,-408.5 519.5,-408.5 519.5,-382.5 347.5,-382.5"/>
<text text-anchor="start" x="349.5" y="-391.5" font-family="Times,serif" font-weight="bold" font-size="20.00" fill="#000000">Context</text>
<text text-anchor="start" x="437.5" y="-391.5" font-family="Times,serif" font-size="14.00" fill="#000000"> </text>
<text text-anchor="start" x="442.5" y="-391.5" font-family="Times,serif" font-size="12.00" fill="#000000">(0x1cc4040)</text>
<text text-anchor="start" x="349.5" y="-369.3" font-family="Times,serif" font-size="14.00" fill="#000000">mailbox</text>
<text text-anchor="start" x="424.5" y="-369.3" font-family="Times,serif" font-size="14.00" fill="#000000">=</text>
<polygon fill="#80ff80" stroke="transparent" points="442.5,-363.5 442.5,-382.5 519.5,-382.5 519.5,-363.5 442.5,-363.5"/>
<text text-anchor="start" x="444.5" y="-369.3" font-family="Times,serif" font-size="14.00" fill="#000000">0xfe4660</text>
<polygon fill="#d0d0d0" stroke="#d0d0d0" points="346.5,-382.5 346.5,-382.5 520.5,-382.5 520.5,-382.5 346.5,-382.5"/>
<polygon fill="none" stroke="#d0d0d0" points="346.5,-363 346.5,-410 520.5,-410 520.5,-363 346.5,-363"/>
</g>
</g>
</svg>
