<?xml version="1.0" encoding="UTF-8" standalone="no"?>
<!DOCTYPE svg PUBLIC "-//W3C//DTD SVG 1.1//EN"
 "http://www.w3.org/Graphics/SVG/1.1/DTD/svg11.dtd">
<!-- Generated by graphviz version 2.40.1 (0)
 -->
<!-- Title: neomutt Pages: 1 -->
<svg width="908pt" height="615pt"
 viewBox="0.00 0.00 908.00 615.00" xmlns="http://www.w3.org/2000/svg" xmlns:xlink="http://www.w3.org/1999/xlink">
<g id="graph0" class="graph" transform="scale(1 1) rotate(0) translate(4 611)">
<title>neomutt</title>
<polygon fill="#ffffff" stroke="transparent" points="-4,4 -4,-611 904,-611 904,4 -4,4"/>
<!-- obj_0x56af30 -->
<g id="node1" class="node">
<title>obj_0x56af30</title>
<polygon fill="#80ffff" stroke="transparent" points="166,-570.5 166,-596.5 305,-596.5 305,-570.5 166,-570.5"/>
<text text-anchor="start" x="168" y="-579.5" font-family="Times,serif" font-weight="bold" font-size="20.00" fill="#000000">AllAccounts</text>
<polygon fill="none" stroke="#d0d0d0" points="164.5,-569.5 164.5,-597.5 305.5,-597.5 305.5,-569.5 164.5,-569.5"/>
</g>
<!-- obj_0x1de8740 -->
<g id="node2" class="node">
<title>obj_0x1de8740</title>
<polygon fill="#80ffff" stroke="transparent" points="146,-496.5 146,-522.5 324,-522.5 324,-496.5 146,-496.5"/>
<text text-anchor="start" x="148" y="-505.5" font-family="Times,serif" font-weight="bold" font-size="20.00" fill="#000000">Account</text>
<text text-anchor="start" x="241" y="-505.5" font-family="Times,serif" font-size="14.00" fill="#000000"> </text>
<text text-anchor="start" x="246" y="-505.5" font-family="Times,serif" font-size="12.00" fill="#000000">(0x1de8740)</text>
<text text-anchor="start" x="148" y="-483.3" font-family="Times,serif" font-size="14.00" fill="#000000">magic</text>
<text text-anchor="start" x="211" y="-483.3" font-family="Times,serif" font-size="14.00" fill="#000000">=</text>
<text text-anchor="start" x="231" y="-483.3" font-family="Times,serif" font-size="14.00" fill="#000000">NOTMUCH</text>
<polygon fill="#d0d0d0" stroke="#d0d0d0" points="145,-496.5 145,-496.5 325,-496.5 325,-496.5 145,-496.5"/>
<polygon fill="none" stroke="#d0d0d0" points="145,-477 145,-524 325,-524 325,-477 145,-477"/>
</g>
<!-- obj_0x56af30&#45;&gt;obj_0x1de8740 -->
<g id="edge1" class="edge">
<title>obj_0x56af30&#45;&gt;obj_0x1de8740</title>
<g id="a_edge1"><a xlink:title="AllAccounts&#45;&gt;first">
<path fill="none" stroke="#c0c0c0" stroke-width="4.5" d="M235,-569.4202C235,-559.7365 235,-546.4474 235,-534.1211"/>
<polygon fill="#c0c0c0" stroke="#c0c0c0" stroke-width="4.5" points="238.9376,-534.0936 235,-524.0936 231.0626,-534.0937 238.9376,-534.0936"/>
</a>
</g>
</g>
<!-- obj_0x1de8780 -->
<g id="node3" class="node">
<title>obj_0x1de8780</title>
<polygon fill="#60c0c0" stroke="transparent" points="1,-375.5 1,-401.5 273,-401.5 273,-375.5 1,-375.5"/>
<text text-anchor="start" x="3" y="-384.5" font-family="Times,serif" font-weight="bold" font-size="20.00" fill="#000000">NmAccountData</text>
<text text-anchor="start" x="190" y="-384.5" font-family="Times,serif" font-size="14.00" fill="#000000"> </text>
<text text-anchor="start" x="195" y="-384.5" font-family="Times,serif" font-size="12.00" fill="#000000">(0x1de8780)</text>
<text text-anchor="start" x="3" y="-362.3" font-family="Times,serif" font-size="14.00" fill="#000000">db</text>
<text text-anchor="start" x="150" y="-362.3" font-family="Times,serif" font-size="14.00" fill="#000000">=</text>
<text text-anchor="start" x="192" y="-362.3" font-family="Times,serif" font-size="14.00" fill="#000000">(nil)</text>
<polygon fill="#d0d0d0" stroke="#d0d0d0" points="0,-375.5 0,-375.5 274,-375.5 274,-375.5 0,-375.5"/>
<polygon fill="none" stroke="#d0d0d0" points="0,-356 0,-403 274,-403 274,-356 0,-356"/>
</g>
<!-- obj_0x1de8740&#45;&gt;obj_0x1de8780 -->
<g id="edge2" class="edge">
<title>obj_0x1de8740&#45;&gt;obj_0x1de8780</title>
<g id="a_edge2"><a xlink:title="Account&#45;&gt;adata">
<path fill="none" stroke="#c0c0c0" stroke-width="4.5" d="M215.872,-476.8827C200.6277,-458.0607 179.1458,-431.5371 162.4498,-410.9227"/>
<polygon fill="#c0c0c0" stroke="#c0c0c0" stroke-width="4.5" points="165.4335,-408.3505 156.0798,-403.0577 159.3138,-413.3069 165.4335,-408.3505"/>
</a>
</g>
</g>
<!-- obj_0x1de87a0 -->
<g id="node4" class="node">
<title>obj_0x1de87a0</title>
<polygon fill="#80ff80" stroke="transparent" points="311,-366.5 311,-392.5 357,-392.5 357,-366.5 311,-366.5"/>
<text text-anchor="start" x="313" y="-375.5" font-family="Times,serif" font-weight="bold" font-size="20.00" fill="#000000">MN</text>
<polygon fill="none" stroke="#d0d0d0" points="310,-365.5 310,-393.5 358,-393.5 358,-365.5 310,-365.5"/>
</g>
<!-- obj_0x1de8740&#45;&gt;obj_0x1de87a0 -->
<g id="edge3" class="edge">
<title>obj_0x1de8740&#45;&gt;obj_0x1de87a0</title>
<g id="a_edge3"><a xlink:title="Account&#45;&gt;mailboxes">
<path fill="none" stroke="#c0c0c0" stroke-width="4.5" d="M259.5164,-476.7262C269.9516,-466.1551 281.9964,-453.3312 292,-441 301.9961,-428.678 312.06,-414.0372 319.8296,-402.1322"/>
<polygon fill="#c0c0c0" stroke="#c0c0c0" stroke-width="4.5" points="323.1898,-404.1866 325.2847,-393.6454 316.5653,-399.9284 323.1898,-404.1866"/>
</a>
</g>
</g>
<!-- obj_0x1e07660 -->
<g id="node5" class="node">
<title>obj_0x1e07660</title>
<polygon fill="#80ff80" stroke="transparent" points="395,-413.5 395,-439.5 605,-439.5 605,-413.5 395,-413.5"/>
<text text-anchor="start" x="397" y="-422.5" font-family="Times,serif" font-weight="bold" font-size="20.00" fill="#000000">Mailbox</text>
<text text-anchor="start" x="488" y="-422.5" font-family="Times,serif" font-size="14.00" fill="#000000"> </text>
<text text-anchor="start" x="493" y="-422.5" font-family="Times,serif" font-size="12.00" fill="#000000">(0x1e07660)</text>
<text text-anchor="start" x="397" y="-400.3" font-family="Times,serif" font-size="14.00" fill="#000000">type</text>
<text text-anchor="start" x="462" y="-400.3" font-family="Times,serif" font-size="14.00" fill="#000000">=</text>
<text text-anchor="start" x="479" y="-400.3" font-family="Times,serif" font-size="14.00" fill="#000000">NOTMUCH</text>
<text text-anchor="start" x="397" y="-381.3" font-family="Times,serif" font-size="14.00" fill="#000000">path</text>
<text text-anchor="start" x="462" y="-381.3" font-family="Times,serif" font-size="14.00" fill="#000000">=</text>
<text text-anchor="start" x="479" y="-381.3" font-family="Times,serif" font-size="14.00" fill="#000000">&quot;?query=dnssec&quot;</text>
<text text-anchor="start" x="397" y="-362.3" font-family="Times,serif" font-size="14.00" fill="#000000">realpath</text>
<text text-anchor="start" x="462" y="-362.3" font-family="Times,serif" font-size="14.00" fill="#000000">=</text>
<text text-anchor="start" x="479" y="-362.3" font-family="Times,serif" font-size="14.00" fill="#000000">&quot;?query=dnssec&quot;</text>
<text text-anchor="start" x="397" y="-343.3" font-family="Times,serif" font-size="14.00" fill="#000000">account</text>
<text text-anchor="start" x="462" y="-343.3" font-family="Times,serif" font-size="14.00" fill="#000000">=</text>
<polygon fill="#80ffff" stroke="transparent" points="477,-337.5 477,-356.5 605,-356.5 605,-337.5 477,-337.5"/>
<text text-anchor="start" x="479" y="-343.3" font-family="Times,serif" font-size="14.00" fill="#000000">0x1de8740</text>
<text text-anchor="start" x="397" y="-324.3" font-family="Times,serif" font-size="14.00" fill="#000000">desc</text>
<text text-anchor="start" x="462" y="-324.3" font-family="Times,serif" font-size="14.00" fill="#000000">=</text>
<text text-anchor="start" x="479" y="-324.3" font-family="Times,serif" font-size="14.00" fill="#000000">&quot;dns&quot;</text>
<polygon fill="#d0d0d0" stroke="#d0d0d0" points="394,-413.5 394,-413.5 606,-413.5 606,-413.5 394,-413.5"/>
<polygon fill="#d0d0d0" stroke="#d0d0d0" points="394,-394.5 394,-394.5 460,-394.5 460,-394.5 394,-394.5"/>
<polygon fill="#d0d0d0" stroke="#d0d0d0" points="460,-394.5 460,-394.5 477,-394.5 477,-394.5 460,-394.5"/>
<polygon fill="#d0d0d0" stroke="#d0d0d0" points="477,-394.5 477,-394.5 606,-394.5 606,-394.5 477,-394.5"/>
<polygon fill="#d0d0d0" stroke="#d0d0d0" points="394,-375.5 394,-375.5 460,-375.5 460,-375.5 394,-375.5"/>
<polygon fill="#d0d0d0" stroke="#d0d0d0" points="460,-375.5 460,-375.5 477,-375.5 477,-375.5 460,-375.5"/>
<polygon fill="#d0d0d0" stroke="#d0d0d0" points="477,-375.5 477,-375.5 606,-375.5 606,-375.5 477,-375.5"/>
<polygon fill="#d0d0d0" stroke="#d0d0d0" points="394,-356.5 394,-356.5 460,-356.5 460,-356.5 394,-356.5"/>
<polygon fill="#d0d0d0" stroke="#d0d0d0" points="460,-356.5 460,-356.5 477,-356.5 477,-356.5 460,-356.5"/>
<polygon fill="#d0d0d0" stroke="#d0d0d0" points="477,-356.5 477,-356.5 606,-356.5 606,-356.5 477,-356.5"/>
<polygon fill="#d0d0d0" stroke="#d0d0d0" points="394,-337.5 394,-337.5 460,-337.5 460,-337.5 394,-337.5"/>
<polygon fill="#d0d0d0" stroke="#d0d0d0" points="460,-337.5 460,-337.5 477,-337.5 477,-337.5 460,-337.5"/>
<polygon fill="#d0d0d0" stroke="#d0d0d0" points="477,-337.5 477,-337.5 606,-337.5 606,-337.5 477,-337.5"/>
<polygon fill="none" stroke="#d0d0d0" points="394,-318 394,-441 606,-441 606,-318 394,-318"/>
</g>
<!-- obj_0x1de87a0&#45;&gt;obj_0x1e07660 -->
<g id="edge5" class="edge">
<title>obj_0x1de87a0&#45;&gt;obj_0x1e07660</title>
<g id="a_edge5"><a xlink:title="MailboxNode&#45;&gt;m">
<path fill="none" stroke="#c0c0c0" stroke-width="4.5" d="M358.3164,-379.5C366.7104,-379.5 375.1044,-379.5 383.4985,-379.5"/>
<polygon fill="#c0c0c0" stroke="#c0c0c0" stroke-width="4.5" points="383.7373,-383.4376 393.7373,-379.5 383.7373,-375.5626 383.7373,-383.4376"/>
</a>
</g>
</g>
<!-- obj_0x1de8920 -->
<g id="node7" class="node">
<title>obj_0x1de8920</title>
<polygon fill="#80ff80" stroke="transparent" points="311,-207.5 311,-233.5 357,-233.5 357,-207.5 311,-207.5"/>
<text text-anchor="start" x="313" y="-216.5" font-family="Times,serif" font-weight="bold" font-size="20.00" fill="#000000">MN</text>
<polygon fill="none" stroke="#d0d0d0" points="310,-206.5 310,-234.5 358,-234.5 358,-206.5 310,-206.5"/>
</g>
<!-- obj_0x1de87a0&#45;&gt;obj_0x1de8920 -->
<g id="edge8" class="edge">
<title>obj_0x1de87a0&#45;&gt;obj_0x1de8920</title>
<g id="a_edge8"><a xlink:title="MailboxNode&#45;&gt;next">
<path fill="none" stroke="#c0c0c0" stroke-width="4.5" d="M334,-365.3898C334,-338.3496 334,-278.9268 334,-245.1825"/>
<polygon fill="#c0c0c0" stroke="#c0c0c0" stroke-width="4.5" points="337.9376,-244.8071 334,-234.8071 330.0626,-244.8072 337.9376,-244.8071"/>
</a>
</g>
</g>
<!-- obj_0x1e5e530 -->
<g id="node6" class="node">
<title>obj_0x1e5e530</title>
<polygon fill="#60c060" stroke="transparent" points="644,-375.5 644,-401.5 885,-401.5 885,-375.5 644,-375.5"/>
<text text-anchor="start" x="646" y="-384.5" font-family="Times,serif" font-weight="bold" font-size="20.00" fill="#000000">NmMboxData</text>
<text text-anchor="start" x="803" y="-384.5" font-family="Times,serif" font-size="14.00" fill="#000000"> </text>
<text text-anchor="start" x="808" y="-384.5" font-family="Times,serif" font-size="12.00" fill="#000000">(0x1e5e530)</text>
<text text-anchor="start" x="646" y="-362.3" font-family="Times,serif" font-size="14.00" fill="#000000">db_limit</text>
<text text-anchor="start" x="800.5" y="-362.3" font-family="Times,serif" font-size="14.00" fill="#000000">=</text>
<text text-anchor="start" x="836" y="-362.3" font-family="Times,serif" font-size="14.00" fill="#000000">0</text>
<polygon fill="#d0d0d0" stroke="#d0d0d0" points="643,-375.5 643,-375.5 886,-375.5 886,-375.5 643,-375.5"/>
<polygon fill="none" stroke="#d0d0d0" points="642.5,-356 642.5,-403 885.5,-403 885.5,-356 642.5,-356"/>
</g>
<!-- obj_0x1e07660&#45;&gt;obj_0x1e5e530 -->
<g id="edge4" class="edge">
<title>obj_0x1e07660&#45;&gt;obj_0x1e5e530</title>
<g id="a_edge4"><a xlink:title="Mailbox&#45;&gt;mdata">
<path fill="none" stroke="#c0c0c0" stroke-width="4.5" d="M606.2188,-379.5C614.857,-379.5 623.4953,-379.5 632.1336,-379.5"/>
<polygon fill="#c0c0c0" stroke="#c0c0c0" stroke-width="4.5" points="632.2743,-383.4376 642.2742,-379.5 632.2742,-375.5626 632.2743,-383.4376"/>
</a>
</g>
</g>
<!-- obj_0x1e09740 -->
<g id="node8" class="node">
<title>obj_0x1e09740</title>
<polygon fill="#80ff80" stroke="transparent" points="396,-254.5 396,-280.5 619,-280.5 619,-254.5 396,-254.5"/>
<text text-anchor="start" x="398" y="-263.5" font-family="Times,serif" font-weight="bold" font-size="20.00" fill="#000000">Mailbox</text>
<text text-anchor="start" x="489" y="-263.5" font-family="Times,serif" font-size="14.00" fill="#000000"> </text>
<text text-anchor="start" x="494" y="-263.5" font-family="Times,serif" font-size="12.00" fill="#000000">(0x1e09740)</text>
<text text-anchor="start" x="398" y="-241.3" font-family="Times,serif" font-size="14.00" fill="#000000">type</text>
<text text-anchor="start" x="463" y="-241.3" font-family="Times,serif" font-size="14.00" fill="#000000">=</text>
<text text-anchor="start" x="480" y="-241.3" font-family="Times,serif" font-size="14.00" fill="#000000">NOTMUCH</text>
<text text-anchor="start" x="398" y="-222.3" font-family="Times,serif" font-size="14.00" fill="#000000">path</text>
<text text-anchor="start" x="463" y="-222.3" font-family="Times,serif" font-size="14.00" fill="#000000">=</text>
<text text-anchor="start" x="480" y="-222.3" font-family="Times,serif" font-size="14.00" fill="#000000">&quot;?query=climbing&quot;</text>
<text text-anchor="start" x="398" y="-203.3" font-family="Times,serif" font-size="14.00" fill="#000000">realpath</text>
<text text-anchor="start" x="463" y="-203.3" font-family="Times,serif" font-size="14.00" fill="#000000">=</text>
<text text-anchor="start" x="480" y="-203.3" font-family="Times,serif" font-size="14.00" fill="#000000">&quot;?query=climbing&quot;</text>
<text text-anchor="start" x="398" y="-184.3" font-family="Times,serif" font-size="14.00" fill="#000000">account</text>
<text text-anchor="start" x="463" y="-184.3" font-family="Times,serif" font-size="14.00" fill="#000000">=</text>
<polygon fill="#80ffff" stroke="transparent" points="478,-178.5 478,-197.5 619,-197.5 619,-178.5 478,-178.5"/>
<text text-anchor="start" x="480" y="-184.3" font-family="Times,serif" font-size="14.00" fill="#000000">0x1de8740</text>
<text text-anchor="start" x="398" y="-165.3" font-family="Times,serif" font-size="14.00" fill="#000000">desc</text>
<text text-anchor="start" x="463" y="-165.3" font-family="Times,serif" font-size="14.00" fill="#000000">=</text>
<text text-anchor="start" x="480" y="-165.3" font-family="Times,serif" font-size="14.00" fill="#000000">&quot;climb&quot;</text>
<polygon fill="#d0d0d0" stroke="#d0d0d0" points="395,-254.5 395,-254.5 620,-254.5 620,-254.5 395,-254.5"/>
<polygon fill="#d0d0d0" stroke="#d0d0d0" points="395,-235.5 395,-235.5 461,-235.5 461,-235.5 395,-235.5"/>
<polygon fill="#d0d0d0" stroke="#d0d0d0" points="461,-235.5 461,-235.5 478,-235.5 478,-235.5 461,-235.5"/>
<polygon fill="#d0d0d0" stroke="#d0d0d0" points="478,-235.5 478,-235.5 620,-235.5 620,-235.5 478,-235.5"/>
<polygon fill="#d0d0d0" stroke="#d0d0d0" points="395,-216.5 395,-216.5 461,-216.5 461,-216.5 395,-216.5"/>
<polygon fill="#d0d0d0" stroke="#d0d0d0" points="461,-216.5 461,-216.5 478,-216.5 478,-216.5 461,-216.5"/>
<polygon fill="#d0d0d0" stroke="#d0d0d0" points="478,-216.5 478,-216.5 620,-216.5 620,-216.5 478,-216.5"/>
<polygon fill="#d0d0d0" stroke="#d0d0d0" points="395,-197.5 395,-197.5 461,-197.5 461,-197.5 395,-197.5"/>
<polygon fill="#d0d0d0" stroke="#d0d0d0" points="461,-197.5 461,-197.5 478,-197.5 478,-197.5 461,-197.5"/>
<polygon fill="#d0d0d0" stroke="#d0d0d0" points="478,-197.5 478,-197.5 620,-197.5 620,-197.5 478,-197.5"/>
<polygon fill="#d0d0d0" stroke="#d0d0d0" points="395,-178.5 395,-178.5 461,-178.5 461,-178.5 395,-178.5"/>
<polygon fill="#d0d0d0" stroke="#d0d0d0" points="461,-178.5 461,-178.5 478,-178.5 478,-178.5 461,-178.5"/>
<polygon fill="#d0d0d0" stroke="#d0d0d0" points="478,-178.5 478,-178.5 620,-178.5 620,-178.5 478,-178.5"/>
<polygon fill="none" stroke="#d0d0d0" points="394.5,-159 394.5,-282 619.5,-282 619.5,-159 394.5,-159"/>
</g>
<!-- obj_0x1de8920&#45;&gt;obj_0x1e09740 -->
<g id="edge7" class="edge">
<title>obj_0x1de8920&#45;&gt;obj_0x1e09740</title>
<g id="a_edge7"><a xlink:title="MailboxNode&#45;&gt;m">
<path fill="none" stroke="#c0c0c0" stroke-width="4.5" d="M358.3281,-220.5C366.9547,-220.5 375.5812,-220.5 384.2078,-220.5"/>
<polygon fill="#c0c0c0" stroke="#c0c0c0" stroke-width="4.5" points="384.3346,-224.4376 394.3346,-220.5 384.3346,-216.5626 384.3346,-224.4376"/>
</a>
</g>
</g>
<!-- obj_0x1de8aa0 -->
<g id="node10" class="node">
<title>obj_0x1de8aa0</title>
<polygon fill="#80ff80" stroke="transparent" points="311,-48.5 311,-74.5 357,-74.5 357,-48.5 311,-48.5"/>
<text text-anchor="start" x="313" y="-57.5" font-family="Times,serif" font-weight="bold" font-size="20.00" fill="#000000">MN</text>
<polygon fill="none" stroke="#d0d0d0" points="310,-47.5 310,-75.5 358,-75.5 358,-47.5 310,-47.5"/>
</g>
<!-- obj_0x1de8920&#45;&gt;obj_0x1de8aa0 -->
<g id="edge11" class="edge">
<title>obj_0x1de8920&#45;&gt;obj_0x1de8aa0</title>
<g id="a_edge11"><a xlink:title="MailboxNode&#45;&gt;next">
<path fill="none" stroke="#c0c0c0" stroke-width="4.5" d="M334,-206.3898C334,-179.3496 334,-119.9268 334,-86.1825"/>
<polygon fill="#c0c0c0" stroke="#c0c0c0" stroke-width="4.5" points="337.9376,-85.8071 334,-75.8071 330.0626,-85.8072 337.9376,-85.8071"/>
</a>
</g>
</g>
<!-- obj_0x1de8b00 -->
<g id="node9" class="node">
<title>obj_0x1de8b00</title>
<polygon fill="#60c060" stroke="transparent" points="657,-216.5 657,-242.5 899,-242.5 899,-216.5 657,-216.5"/>
<text text-anchor="start" x="659" y="-225.5" font-family="Times,serif" font-weight="bold" font-size="20.00" fill="#000000">NmMboxData</text>
<text text-anchor="start" x="816" y="-225.5" font-family="Times,serif" font-size="14.00" fill="#000000"> </text>
<text text-anchor="start" x="821" y="-225.5" font-family="Times,serif" font-size="12.00" fill="#000000">(0x1de8b00)</text>
<text text-anchor="start" x="659" y="-203.3" font-family="Times,serif" font-size="14.00" fill="#000000">db_limit</text>
<text text-anchor="start" x="814.5" y="-203.3" font-family="Times,serif" font-size="14.00" fill="#000000">=</text>
<text text-anchor="start" x="850" y="-203.3" font-family="Times,serif" font-size="14.00" fill="#000000">0</text>
<polygon fill="#d0d0d0" stroke="#d0d0d0" points="656,-216.5 656,-216.5 900,-216.5 900,-216.5 656,-216.5"/>
<polygon fill="none" stroke="#d0d0d0" points="656,-197 656,-244 900,-244 900,-197 656,-197"/>
</g>
<!-- obj_0x1e09740&#45;&gt;obj_0x1de8b00 -->
<g id="edge6" class="edge">
<title>obj_0x1e09740&#45;&gt;obj_0x1de8b00</title>
<g id="a_edge6"><a xlink:title="Mailbox&#45;&gt;mdata">
<path fill="none" stroke="#c0c0c0" stroke-width="4.5" d="M619.7402,-220.5C628.4047,-220.5 637.0692,-220.5 645.7337,-220.5"/>
<polygon fill="#c0c0c0" stroke="#c0c0c0" stroke-width="4.5" points="645.9051,-224.4376 655.9051,-220.5 645.905,-216.5626 645.9051,-224.4376"/>
</a>
</g>
</g>
<!-- obj_0x1e0b820 -->
<g id="node11" class="node">
<title>obj_0x1e0b820</title>
<polygon fill="#80ff80" stroke="transparent" points="396,-95.5 396,-121.5 617,-121.5 617,-95.5 396,-95.5"/>
<text text-anchor="start" x="398" y="-104.5" font-family="Times,serif" font-weight="bold" font-size="20.00" fill="#000000">Mailbox</text>
<text text-anchor="start" x="489" y="-104.5" font-family="Times,serif" font-size="14.00" fill="#000000"> </text>
<text text-anchor="start" x="494" y="-104.5" font-family="Times,serif" font-size="12.00" fill="#000000">(0x1e0b820)</text>
<text text-anchor="start" x="398" y="-82.3" font-family="Times,serif" font-size="14.00" fill="#000000">type</text>
<text text-anchor="start" x="463" y="-82.3" font-family="Times,serif" font-size="14.00" fill="#000000">=</text>
<text text-anchor="start" x="480" y="-82.3" font-family="Times,serif" font-size="14.00" fill="#000000">NOTMUCH</text>
<text text-anchor="start" x="398" y="-63.3" font-family="Times,serif" font-size="14.00" fill="#000000">path</text>
<text text-anchor="start" x="463" y="-63.3" font-family="Times,serif" font-size="14.00" fill="#000000">=</text>
<text text-anchor="start" x="480" y="-63.3" font-family="Times,serif" font-size="14.00" fill="#000000">&quot;?query=neomutt&quot;</text>
<text text-anchor="start" x="398" y="-44.3" font-family="Times,serif" font-size="14.00" fill="#000000">realpath</text>
<text text-anchor="start" x="463" y="-44.3" font-family="Times,serif" font-size="14.00" fill="#000000">=</text>
<text text-anchor="start" x="480" y="-44.3" font-family="Times,serif" font-size="14.00" fill="#000000">&quot;?query=neomutt&quot;</text>
<text text-anchor="start" x="398" y="-25.3" font-family="Times,serif" font-size="14.00" fill="#000000">account</text>
<text text-anchor="start" x="463" y="-25.3" font-family="Times,serif" font-size="14.00" fill="#000000">=</text>
<polygon fill="#80ffff" stroke="transparent" points="478,-19.5 478,-38.5 617,-38.5 617,-19.5 478,-19.5"/>
<text text-anchor="start" x="480" y="-25.3" font-family="Times,serif" font-size="14.00" fill="#000000">0x1de8740</text>
<text text-anchor="start" x="398" y="-6.3" font-family="Times,serif" font-size="14.00" fill="#000000">desc</text>
<text text-anchor="start" x="463" y="-6.3" font-family="Times,serif" font-size="14.00" fill="#000000">=</text>
<text text-anchor="start" x="480" y="-6.3" font-family="Times,serif" font-size="14.00" fill="#000000">&quot;neomutt&quot;</text>
<polygon fill="#d0d0d0" stroke="#d0d0d0" points="395,-95.5 395,-95.5 618,-95.5 618,-95.5 395,-95.5"/>
<polygon fill="#d0d0d0" stroke="#d0d0d0" points="395,-76.5 395,-76.5 461,-76.5 461,-76.5 395,-76.5"/>
<polygon fill="#d0d0d0" stroke="#d0d0d0" points="461,-76.5 461,-76.5 478,-76.5 478,-76.5 461,-76.5"/>
<polygon fill="#d0d0d0" stroke="#d0d0d0" points="478,-76.5 478,-76.5 618,-76.5 618,-76.5 478,-76.5"/>
<polygon fill="#d0d0d0" stroke="#d0d0d0" points="395,-57.5 395,-57.5 461,-57.5 461,-57.5 395,-57.5"/>
<polygon fill="#d0d0d0" stroke="#d0d0d0" points="461,-57.5 461,-57.5 478,-57.5 478,-57.5 461,-57.5"/>
<polygon fill="#d0d0d0" stroke="#d0d0d0" points="478,-57.5 478,-57.5 618,-57.5 618,-57.5 478,-57.5"/>
<polygon fill="#d0d0d0" stroke="#d0d0d0" points="395,-38.5 395,-38.5 461,-38.5 461,-38.5 395,-38.5"/>
<polygon fill="#d0d0d0" stroke="#d0d0d0" points="461,-38.5 461,-38.5 478,-38.5 478,-38.5 461,-38.5"/>
<polygon fill="#d0d0d0" stroke="#d0d0d0" points="478,-38.5 478,-38.5 618,-38.5 618,-38.5 478,-38.5"/>
<polygon fill="#d0d0d0" stroke="#d0d0d0" points="395,-19.5 395,-19.5 461,-19.5 461,-19.5 395,-19.5"/>
<polygon fill="#d0d0d0" stroke="#d0d0d0" points="461,-19.5 461,-19.5 478,-19.5 478,-19.5 461,-19.5"/>
<polygon fill="#d0d0d0" stroke="#d0d0d0" points="478,-19.5 478,-19.5 618,-19.5 618,-19.5 478,-19.5"/>
<polygon fill="none" stroke="#d0d0d0" points="394.5,0 394.5,-123 617.5,-123 617.5,0 394.5,0"/>
</g>
<!-- obj_0x1de8aa0&#45;&gt;obj_0x1e0b820 -->
<g id="edge10" class="edge">
<title>obj_0x1de8aa0&#45;&gt;obj_0x1e0b820</title>
<g id="a_edge10"><a xlink:title="MailboxNode&#45;&gt;m">
<path fill="none" stroke="#c0c0c0" stroke-width="4.5" d="M358.1875,-61.5C366.8334,-61.5 375.4792,-61.5 384.1251,-61.5"/>
<polygon fill="#c0c0c0" stroke="#c0c0c0" stroke-width="4.5" points="384.2746,-65.4376 394.2745,-61.5 384.2745,-57.5626 384.2746,-65.4376"/>
</a>
</g>
</g>
<!-- obj_0x1e64c40 -->
<g id="node12" class="node">
<title>obj_0x1e64c40</title>
<polygon fill="#60c060" stroke="transparent" points="655,-57.5 655,-83.5 896,-83.5 896,-57.5 655,-57.5"/>
<text text-anchor="start" x="657" y="-66.5" font-family="Times,serif" font-weight="bold" font-size="20.00" fill="#000000">NmMboxData</text>
<text text-anchor="start" x="814" y="-66.5" font-family="Times,serif" font-size="14.00" fill="#000000"> </text>
<text text-anchor="start" x="819" y="-66.5" font-family="Times,serif" font-size="12.00" fill="#000000">(0x1e64c40)</text>
<text text-anchor="start" x="657" y="-44.3" font-family="Times,serif" font-size="14.00" fill="#000000">db_limit</text>
<text text-anchor="start" x="811.5" y="-44.3" font-family="Times,serif" font-size="14.00" fill="#000000">=</text>
<text text-anchor="start" x="847" y="-44.3" font-family="Times,serif" font-size="14.00" fill="#000000">0</text>
<polygon fill="#d0d0d0" stroke="#d0d0d0" points="654,-57.5 654,-57.5 897,-57.5 897,-57.5 654,-57.5"/>
<polygon fill="none" stroke="#d0d0d0" points="653.5,-38 653.5,-85 896.5,-85 896.5,-38 653.5,-38"/>
</g>
<!-- obj_0x1e0b820&#45;&gt;obj_0x1e64c40 -->
<g id="edge9" class="edge">
<title>obj_0x1e0b820&#45;&gt;obj_0x1e64c40</title>
<g id="a_edge9"><a xlink:title="Mailbox&#45;&gt;mdata">
<path fill="none" stroke="#c0c0c0" stroke-width="4.5" d="M617.6455,-61.5C626.1868,-61.5 634.7281,-61.5 643.2694,-61.5"/>
<polygon fill="#c0c0c0" stroke="#c0c0c0" stroke-width="4.5" points="643.2962,-65.4376 653.2961,-61.5 643.2961,-57.5626 643.2962,-65.4376"/>
</a>
</g>
</g>
<!-- obj_0x1dc9a40 -->
<g id="node13" class="node">
<title>obj_0x1dc9a40</title>
<polygon fill="#ff80ff" stroke="transparent" points="343,-579.5 343,-605.5 516,-605.5 516,-579.5 343,-579.5"/>
<text text-anchor="start" x="345" y="-588.5" font-family="Times,serif" font-weight="bold" font-size="20.00" fill="#000000">Context</text>
<text text-anchor="start" x="433" y="-588.5" font-family="Times,serif" font-size="14.00" fill="#000000"> </text>
<text text-anchor="start" x="438" y="-588.5" font-family="Times,serif" font-size="12.00" fill="#000000">(0x1dc9a40)</text>
<text text-anchor="start" x="345" y="-566.3" font-family="Times,serif" font-size="14.00" fill="#000000">mailbox</text>
<text text-anchor="start" x="412.5" y="-566.3" font-family="Times,serif" font-size="14.00" fill="#000000">=</text>
<polygon fill="#80ff80" stroke="transparent" points="429,-560.5 429,-579.5 516,-579.5 516,-560.5 429,-560.5"/>
<text text-anchor="start" x="431" y="-566.3" font-family="Times,serif" font-size="14.00" fill="#000000">0x1e0b820</text>
<polygon fill="#d0d0d0" stroke="#d0d0d0" points="342,-579.5 342,-579.5 517,-579.5 517,-579.5 342,-579.5"/>
<polygon fill="none" stroke="#d0d0d0" points="341.5,-560 341.5,-607 516.5,-607 516.5,-560 341.5,-560"/>
</g>
</g>
</svg>
