<?xml version="1.0" encoding="UTF-8" standalone="no"?>
<!DOCTYPE svg PUBLIC "-//W3C//DTD SVG 1.1//EN"
 "http://www.w3.org/Graphics/SVG/1.1/DTD/svg11.dtd">
<!-- Generated by graphviz version 2.40.1 (0)
 -->
<!-- Title: neomutt Pages: 1 -->
<svg width="1257pt" height="437pt"
 viewBox="0.00 0.00 1257.00 437.00" xmlns="http://www.w3.org/2000/svg" xmlns:xlink="http://www.w3.org/1999/xlink">
<g id="graph0" class="graph" transform="scale(1 1) rotate(0) translate(4 433)">
<title>neomutt</title>
<polygon fill="#ffffff" stroke="transparent" points="-4,4 -4,-433 1253,-433 1253,4 -4,4"/>
<!-- obj_0x56af30 -->
<g id="node1" class="node">
<title>obj_0x56af30</title>
<polygon fill="#80ffff" stroke="transparent" points="266.5,-392.5 266.5,-418.5 405.5,-418.5 405.5,-392.5 266.5,-392.5"/>
<text text-anchor="start" x="268.5" y="-401.5" font-family="Times,serif" font-weight="bold" font-size="20.00" fill="#000000">AllAccounts</text>
<polygon fill="none" stroke="#d0d0d0" points="265,-391.5 265,-419.5 406,-419.5 406,-391.5 265,-391.5"/>
</g>
<!-- obj_0x19186b0 -->
<g id="node2" class="node">
<title>obj_0x19186b0</title>
<polygon fill="#80ffff" stroke="transparent" points="246.5,-318.5 246.5,-344.5 424.5,-344.5 424.5,-318.5 246.5,-318.5"/>
<text text-anchor="start" x="248.5" y="-327.5" font-family="Times,serif" font-weight="bold" font-size="20.00" fill="#000000">Account</text>
<text text-anchor="start" x="341.5" y="-327.5" font-family="Times,serif" font-size="14.00" fill="#000000"> </text>
<text text-anchor="start" x="346.5" y="-327.5" font-family="Times,serif" font-size="12.00" fill="#000000">(0x19186b0)</text>
<text text-anchor="start" x="248.5" y="-305.3" font-family="Times,serif" font-size="14.00" fill="#000000">magic</text>
<text text-anchor="start" x="344" y="-305.3" font-family="Times,serif" font-size="14.00" fill="#000000">=</text>
<text text-anchor="start" x="370.5" y="-305.3" font-family="Times,serif" font-size="14.00" fill="#000000">POP</text>
<polygon fill="#d0d0d0" stroke="#d0d0d0" points="245.5,-318.5 245.5,-318.5 425.5,-318.5 425.5,-318.5 245.5,-318.5"/>
<polygon fill="none" stroke="#d0d0d0" points="245.5,-299 245.5,-346 425.5,-346 425.5,-299 245.5,-299"/>
</g>
<!-- obj_0x56af30&#45;&gt;obj_0x19186b0 -->
<g id="edge1" class="edge">
<title>obj_0x56af30&#45;&gt;obj_0x19186b0</title>
<g id="a_edge1"><a xlink:title="AllAccounts&#45;&gt;first">
<path fill="none" stroke="#c0c0c0" stroke-width="4.5" d="M335.5,-391.4202C335.5,-381.7365 335.5,-368.4474 335.5,-356.1211"/>
<polygon fill="#c0c0c0" stroke="#c0c0c0" stroke-width="4.5" points="339.4376,-356.0936 335.5,-346.0936 331.5626,-356.0937 339.4376,-356.0936"/>
</a>
</g>
</g>
<!-- obj_0x1939740 -->
<g id="node3" class="node">
<title>obj_0x1939740</title>
<polygon fill="#60c0c0" stroke="transparent" points="1.5,-235.5 1.5,-261.5 274.5,-261.5 274.5,-235.5 1.5,-235.5"/>
<text text-anchor="start" x="3.5" y="-244.5" font-family="Times,serif" font-weight="bold" font-size="20.00" fill="#000000">PopAccountData</text>
<text text-anchor="start" x="191.5" y="-244.5" font-family="Times,serif" font-size="14.00" fill="#000000"> </text>
<text text-anchor="start" x="196.5" y="-244.5" font-family="Times,serif" font-size="12.00" fill="#000000">(0x1939740)</text>
<text text-anchor="start" x="3.5" y="-222.3" font-family="Times,serif" font-size="14.00" fill="#000000">check_time</text>
<text text-anchor="start" x="105.5" y="-222.3" font-family="Times,serif" font-size="14.00" fill="#000000">=</text>
<text text-anchor="start" x="125.5" y="-222.3" font-family="Times,serif" font-size="14.00" fill="#000000">&quot;2018&#45;10&#45;22 20:32&quot;</text>
<text text-anchor="start" x="3.5" y="-203.3" font-family="Times,serif" font-size="14.00" fill="#000000">login</text>
<text text-anchor="start" x="105.5" y="-203.3" font-family="Times,serif" font-size="14.00" fill="#000000">=</text>
<text text-anchor="start" x="125.5" y="-203.3" font-family="Times,serif" font-size="14.00" fill="#000000">&quot;&quot;</text>
<text text-anchor="start" x="3.5" y="-184.3" font-family="Times,serif" font-size="14.00" fill="#000000">user</text>
<text text-anchor="start" x="105.5" y="-184.3" font-family="Times,serif" font-size="14.00" fill="#000000">=</text>
<text text-anchor="start" x="125.5" y="-184.3" font-family="Times,serif" font-size="14.00" fill="#000000">&quot;apple&quot;</text>
<text text-anchor="start" x="3.5" y="-165.3" font-family="Times,serif" font-size="14.00" fill="#000000">pass</text>
<text text-anchor="start" x="105.5" y="-165.3" font-family="Times,serif" font-size="14.00" fill="#000000">=</text>
<text text-anchor="start" x="125.5" y="-165.3" font-family="Times,serif" font-size="14.00" fill="#000000">&quot;&quot;</text>
<text text-anchor="start" x="3.5" y="-146.3" font-family="Times,serif" font-size="14.00" fill="#000000">port</text>
<text text-anchor="start" x="105.5" y="-146.3" font-family="Times,serif" font-size="14.00" fill="#000000">=</text>
<text text-anchor="start" x="125.5" y="-146.3" font-family="Times,serif" font-size="14.00" fill="#000000">0</text>
<polygon fill="#d0d0d0" stroke="#d0d0d0" points=".5,-235.5 .5,-235.5 275.5,-235.5 275.5,-235.5 .5,-235.5"/>
<polygon fill="#d0d0d0" stroke="#d0d0d0" points=".5,-216.5 .5,-216.5 100.5,-216.5 100.5,-216.5 .5,-216.5"/>
<polygon fill="#d0d0d0" stroke="#d0d0d0" points="100.5,-216.5 100.5,-216.5 123.5,-216.5 123.5,-216.5 100.5,-216.5"/>
<polygon fill="#d0d0d0" stroke="#d0d0d0" points="123.5,-216.5 123.5,-216.5 275.5,-216.5 275.5,-216.5 123.5,-216.5"/>
<polygon fill="#d0d0d0" stroke="#d0d0d0" points=".5,-197.5 .5,-197.5 100.5,-197.5 100.5,-197.5 .5,-197.5"/>
<polygon fill="#d0d0d0" stroke="#d0d0d0" points="100.5,-197.5 100.5,-197.5 123.5,-197.5 123.5,-197.5 100.5,-197.5"/>
<polygon fill="#d0d0d0" stroke="#d0d0d0" points="123.5,-197.5 123.5,-197.5 275.5,-197.5 275.5,-197.5 123.5,-197.5"/>
<polygon fill="#d0d0d0" stroke="#d0d0d0" points=".5,-178.5 .5,-178.5 100.5,-178.5 100.5,-178.5 .5,-178.5"/>
<polygon fill="#d0d0d0" stroke="#d0d0d0" points="100.5,-178.5 100.5,-178.5 123.5,-178.5 123.5,-178.5 100.5,-178.5"/>
<polygon fill="#d0d0d0" stroke="#d0d0d0" points="123.5,-178.5 123.5,-178.5 275.5,-178.5 275.5,-178.5 123.5,-178.5"/>
<polygon fill="#d0d0d0" stroke="#d0d0d0" points=".5,-159.5 .5,-159.5 100.5,-159.5 100.5,-159.5 .5,-159.5"/>
<polygon fill="#d0d0d0" stroke="#d0d0d0" points="100.5,-159.5 100.5,-159.5 123.5,-159.5 123.5,-159.5 100.5,-159.5"/>
<polygon fill="#d0d0d0" stroke="#d0d0d0" points="123.5,-159.5 123.5,-159.5 275.5,-159.5 275.5,-159.5 123.5,-159.5"/>
<polygon fill="none" stroke="#d0d0d0" points="0,-140 0,-263 275,-263 275,-140 0,-140"/>
</g>
<!-- obj_0x19186b0&#45;&gt;obj_0x1939740 -->
<g id="edge3" class="edge">
<title>obj_0x19186b0&#45;&gt;obj_0x1939740</title>
<g id="a_edge3"><a xlink:title="Account&#45;&gt;adata">
<path fill="none" stroke="#c0c0c0" stroke-width="4.5" d="M296.8536,-298.8827C282.3462,-290.0171 265.0427,-279.4428 247.2707,-268.5821"/>
<polygon fill="#c0c0c0" stroke="#c0c0c0" stroke-width="4.5" points="249.1049,-265.0885 238.5188,-263.2337 244.9984,-271.8081 249.1049,-265.0885"/>
</a>
</g>
</g>
<!-- obj_0x1918760 -->
<g id="node5" class="node">
<title>obj_0x1918760</title>
<polygon fill="#80ff80" stroke="transparent" points="312.5,-188.5 312.5,-214.5 358.5,-214.5 358.5,-188.5 312.5,-188.5"/>
<text text-anchor="start" x="314.5" y="-197.5" font-family="Times,serif" font-weight="bold" font-size="20.00" fill="#000000">MN</text>
<polygon fill="none" stroke="#d0d0d0" points="311.5,-187.5 311.5,-215.5 359.5,-215.5 359.5,-187.5 311.5,-187.5"/>
</g>
<!-- obj_0x19186b0&#45;&gt;obj_0x1918760 -->
<g id="edge4" class="edge">
<title>obj_0x19186b0&#45;&gt;obj_0x1918760</title>
<g id="a_edge4"><a xlink:title="Account&#45;&gt;mailboxes">
<path fill="none" stroke="#c0c0c0" stroke-width="4.5" d="M335.5,-298.8827C335.5,-277.7987 335.5,-247.0505 335.5,-225.77"/>
<polygon fill="#c0c0c0" stroke="#c0c0c0" stroke-width="4.5" points="339.4376,-225.6059 335.5,-215.6059 331.5626,-225.606 339.4376,-225.6059"/>
</a>
</g>
</g>
<!-- obj_0x1918930 -->
<g id="node7" class="node">
<title>obj_0x1918930</title>
<polygon fill="#80ffff" stroke="transparent" points="684.5,-318.5 684.5,-344.5 862.5,-344.5 862.5,-318.5 684.5,-318.5"/>
<text text-anchor="start" x="686.5" y="-327.5" font-family="Times,serif" font-weight="bold" font-size="20.00" fill="#000000">Account</text>
<text text-anchor="start" x="779.5" y="-327.5" font-family="Times,serif" font-size="14.00" fill="#000000"> </text>
<text text-anchor="start" x="784.5" y="-327.5" font-family="Times,serif" font-size="12.00" fill="#000000">(0x1918930)</text>
<text text-anchor="start" x="686.5" y="-305.3" font-family="Times,serif" font-size="14.00" fill="#000000">magic</text>
<text text-anchor="start" x="782" y="-305.3" font-family="Times,serif" font-size="14.00" fill="#000000">=</text>
<text text-anchor="start" x="808.5" y="-305.3" font-family="Times,serif" font-size="14.00" fill="#000000">POP</text>
<polygon fill="#d0d0d0" stroke="#d0d0d0" points="683.5,-318.5 683.5,-318.5 863.5,-318.5 863.5,-318.5 683.5,-318.5"/>
<polygon fill="none" stroke="#d0d0d0" points="683.5,-299 683.5,-346 863.5,-346 863.5,-299 683.5,-299"/>
</g>
<!-- obj_0x19186b0&#45;&gt;obj_0x1918930 -->
<g id="edge10" class="edge">
<title>obj_0x19186b0&#45;&gt;obj_0x1918930</title>
<g id="a_edge10"><a xlink:title="Account&#45;&gt;next">
<path fill="none" stroke="#c0c0c0" stroke-width="4.5" d="M425.752,-322.5C508.2052,-322.5 590.6585,-322.5 673.1117,-322.5"/>
<polygon fill="#c0c0c0" stroke="#c0c0c0" stroke-width="4.5" points="673.1671,-326.4376 683.167,-322.5 673.167,-318.5626 673.1671,-326.4376"/>
</a>
</g>
</g>
<!-- obj_0x195f580 -->
<g id="node4" class="node">
<title>obj_0x195f580</title>
<polygon fill="#ff8080" stroke="transparent" points="31.5,-77 31.5,-103 243.5,-103 243.5,-77 31.5,-77"/>
<text text-anchor="start" x="33.5" y="-86" font-family="Times,serif" font-weight="bold" font-size="20.00" fill="#000000">Connection</text>
<text text-anchor="start" x="163.5" y="-86" font-family="Times,serif" font-size="14.00" fill="#000000"> </text>
<text text-anchor="start" x="168.5" y="-86" font-family="Times,serif" font-size="12.00" fill="#000000">(0x195f580)</text>
<text text-anchor="start" x="33.5" y="-63.8" font-family="Times,serif" font-size="14.00" fill="#000000">user</text>
<text text-anchor="start" x="120.5" y="-63.8" font-family="Times,serif" font-size="14.00" fill="#000000">=</text>
<text text-anchor="start" x="147.5" y="-63.8" font-family="Times,serif" font-size="14.00" fill="#000000">&quot;apple&quot;</text>
<text text-anchor="start" x="33.5" y="-44.8" font-family="Times,serif" font-size="14.00" fill="#000000">host</text>
<text text-anchor="start" x="120.5" y="-44.8" font-family="Times,serif" font-size="14.00" fill="#000000">=</text>
<text text-anchor="start" x="147.5" y="-44.8" font-family="Times,serif" font-size="14.00" fill="#000000">&quot;10.8.0.1&quot;</text>
<text text-anchor="start" x="33.5" y="-25.8" font-family="Times,serif" font-size="14.00" fill="#000000">port</text>
<text text-anchor="start" x="120.5" y="-25.8" font-family="Times,serif" font-size="14.00" fill="#000000">=</text>
<text text-anchor="start" x="147.5" y="-25.8" font-family="Times,serif" font-size="14.00" fill="#000000">110</text>
<text text-anchor="start" x="33.5" y="-6.8" font-family="Times,serif" font-size="14.00" fill="#000000">fd</text>
<text text-anchor="start" x="120.5" y="-6.8" font-family="Times,serif" font-size="14.00" fill="#000000">=</text>
<text text-anchor="start" x="147.5" y="-6.8" font-family="Times,serif" font-size="14.00" fill="#000000">&#45;1</text>
<polygon fill="#d0d0d0" stroke="#d0d0d0" points="30.5,-77 30.5,-77 244.5,-77 244.5,-77 30.5,-77"/>
<polygon fill="#d0d0d0" stroke="#d0d0d0" points="30.5,-58 30.5,-58 108.5,-58 108.5,-58 30.5,-58"/>
<polygon fill="#d0d0d0" stroke="#d0d0d0" points="108.5,-58 108.5,-58 145.5,-58 145.5,-58 108.5,-58"/>
<polygon fill="#d0d0d0" stroke="#d0d0d0" points="145.5,-58 145.5,-58 244.5,-58 244.5,-58 145.5,-58"/>
<polygon fill="#d0d0d0" stroke="#d0d0d0" points="30.5,-39 30.5,-39 108.5,-39 108.5,-39 30.5,-39"/>
<polygon fill="#d0d0d0" stroke="#d0d0d0" points="108.5,-39 108.5,-39 145.5,-39 145.5,-39 108.5,-39"/>
<polygon fill="#d0d0d0" stroke="#d0d0d0" points="145.5,-39 145.5,-39 244.5,-39 244.5,-39 145.5,-39"/>
<polygon fill="#d0d0d0" stroke="#d0d0d0" points="30.5,-20 30.5,-20 108.5,-20 108.5,-20 30.5,-20"/>
<polygon fill="#d0d0d0" stroke="#d0d0d0" points="108.5,-20 108.5,-20 145.5,-20 145.5,-20 108.5,-20"/>
<polygon fill="#d0d0d0" stroke="#d0d0d0" points="145.5,-20 145.5,-20 244.5,-20 244.5,-20 145.5,-20"/>
<polygon fill="none" stroke="#d0d0d0" points="30.5,0 30.5,-104 244.5,-104 244.5,0 30.5,0"/>
</g>
<!-- obj_0x1939740&#45;&gt;obj_0x195f580 -->
<g id="edge2" class="edge">
<title>obj_0x1939740&#45;&gt;obj_0x195f580</title>
<g id="a_edge2"><a xlink:title="PopAccountData&#45;&gt;conn">
<path fill="none" stroke="#c0c0c0" stroke-width="4.5" d="M137.5,-139.8295C137.5,-131.3665 137.5,-122.6726 137.5,-114.2002"/>
<polygon fill="#c0c0c0" stroke="#c0c0c0" stroke-width="4.5" points="141.4376,-114.0058 137.5,-104.0059 133.5626,-114.0059 141.4376,-114.0058"/>
</a>
</g>
</g>
<!-- obj_0x1937660 -->
<g id="node6" class="node">
<title>obj_0x1937660</title>
<polygon fill="#80ff80" stroke="transparent" points="396.5,-235.5 396.5,-261.5 598.5,-261.5 598.5,-235.5 396.5,-235.5"/>
<text text-anchor="start" x="398.5" y="-244.5" font-family="Times,serif" font-weight="bold" font-size="20.00" fill="#000000">Mailbox</text>
<text text-anchor="start" x="489.5" y="-244.5" font-family="Times,serif" font-size="14.00" fill="#000000"> </text>
<text text-anchor="start" x="494.5" y="-244.5" font-family="Times,serif" font-size="12.00" fill="#000000">(0x1937660)</text>
<text text-anchor="start" x="398.5" y="-222.3" font-family="Times,serif" font-size="14.00" fill="#000000">type</text>
<text text-anchor="start" x="463.5" y="-222.3" font-family="Times,serif" font-size="14.00" fill="#000000">=</text>
<text text-anchor="start" x="480.5" y="-222.3" font-family="Times,serif" font-size="14.00" fill="#000000">POP</text>
<text text-anchor="start" x="398.5" y="-203.3" font-family="Times,serif" font-size="14.00" fill="#000000">path</text>
<text text-anchor="start" x="463.5" y="-203.3" font-family="Times,serif" font-size="14.00" fill="#000000">=</text>
<text text-anchor="start" x="480.5" y="-203.3" font-family="Times,serif" font-size="14.00" fill="#000000">&quot;10.8.0.1:apple&quot;</text>
<text text-anchor="start" x="398.5" y="-184.3" font-family="Times,serif" font-size="14.00" fill="#000000">realpath</text>
<text text-anchor="start" x="463.5" y="-184.3" font-family="Times,serif" font-size="14.00" fill="#000000">=</text>
<text text-anchor="start" x="480.5" y="-184.3" font-family="Times,serif" font-size="14.00" fill="#000000">&quot;10.8.0.1:apple&quot;</text>
<text text-anchor="start" x="398.5" y="-165.3" font-family="Times,serif" font-size="14.00" fill="#000000">account</text>
<text text-anchor="start" x="463.5" y="-165.3" font-family="Times,serif" font-size="14.00" fill="#000000">=</text>
<polygon fill="#80ffff" stroke="transparent" points="478.5,-159.5 478.5,-178.5 598.5,-178.5 598.5,-159.5 478.5,-159.5"/>
<text text-anchor="start" x="480.5" y="-165.3" font-family="Times,serif" font-size="14.00" fill="#000000">0x19186b0</text>
<text text-anchor="start" x="398.5" y="-146.3" font-family="Times,serif" font-size="14.00" fill="#000000">desc</text>
<text text-anchor="start" x="463.5" y="-146.3" font-family="Times,serif" font-size="14.00" fill="#000000">=</text>
<text text-anchor="start" x="480.5" y="-146.3" font-family="Times,serif" font-size="14.00" fill="#000000">&quot;p&#45;apple&quot;</text>
<polygon fill="#d0d0d0" stroke="#d0d0d0" points="395.5,-235.5 395.5,-235.5 599.5,-235.5 599.5,-235.5 395.5,-235.5"/>
<polygon fill="#d0d0d0" stroke="#d0d0d0" points="395.5,-216.5 395.5,-216.5 461.5,-216.5 461.5,-216.5 395.5,-216.5"/>
<polygon fill="#d0d0d0" stroke="#d0d0d0" points="461.5,-216.5 461.5,-216.5 478.5,-216.5 478.5,-216.5 461.5,-216.5"/>
<polygon fill="#d0d0d0" stroke="#d0d0d0" points="478.5,-216.5 478.5,-216.5 599.5,-216.5 599.5,-216.5 478.5,-216.5"/>
<polygon fill="#d0d0d0" stroke="#d0d0d0" points="395.5,-197.5 395.5,-197.5 461.5,-197.5 461.5,-197.5 395.5,-197.5"/>
<polygon fill="#d0d0d0" stroke="#d0d0d0" points="461.5,-197.5 461.5,-197.5 478.5,-197.5 478.5,-197.5 461.5,-197.5"/>
<polygon fill="#d0d0d0" stroke="#d0d0d0" points="478.5,-197.5 478.5,-197.5 599.5,-197.5 599.5,-197.5 478.5,-197.5"/>
<polygon fill="#d0d0d0" stroke="#d0d0d0" points="395.5,-178.5 395.5,-178.5 461.5,-178.5 461.5,-178.5 395.5,-178.5"/>
<polygon fill="#d0d0d0" stroke="#d0d0d0" points="461.5,-178.5 461.5,-178.5 478.5,-178.5 478.5,-178.5 461.5,-178.5"/>
<polygon fill="#d0d0d0" stroke="#d0d0d0" points="478.5,-178.5 478.5,-178.5 599.5,-178.5 599.5,-178.5 478.5,-178.5"/>
<polygon fill="#d0d0d0" stroke="#d0d0d0" points="395.5,-159.5 395.5,-159.5 461.5,-159.5 461.5,-159.5 395.5,-159.5"/>
<polygon fill="#d0d0d0" stroke="#d0d0d0" points="461.5,-159.5 461.5,-159.5 478.5,-159.5 478.5,-159.5 461.5,-159.5"/>
<polygon fill="#d0d0d0" stroke="#d0d0d0" points="478.5,-159.5 478.5,-159.5 599.5,-159.5 599.5,-159.5 478.5,-159.5"/>
<polygon fill="none" stroke="#d0d0d0" points="395.5,-140 395.5,-263 599.5,-263 599.5,-140 395.5,-140"/>
</g>
<!-- obj_0x1918760&#45;&gt;obj_0x1937660 -->
<g id="edge5" class="edge">
<title>obj_0x1918760&#45;&gt;obj_0x1937660</title>
<g id="a_edge5"><a xlink:title="MailboxNode&#45;&gt;m">
<path fill="none" stroke="#c0c0c0" stroke-width="4.5" d="M359.5469,-201.5C368.1325,-201.5 376.718,-201.5 385.3036,-201.5"/>
<polygon fill="#c0c0c0" stroke="#c0c0c0" stroke-width="4.5" points="385.3824,-205.4376 395.3824,-201.5 385.3823,-197.5626 385.3824,-205.4376"/>
</a>
</g>
</g>
<!-- obj_0x193bd90 -->
<g id="node8" class="node">
<title>obj_0x193bd90</title>
<polygon fill="#60c0c0" stroke="transparent" points="637.5,-235.5 637.5,-261.5 910.5,-261.5 910.5,-235.5 637.5,-235.5"/>
<text text-anchor="start" x="639.5" y="-244.5" font-family="Times,serif" font-weight="bold" font-size="20.00" fill="#000000">PopAccountData</text>
<text text-anchor="start" x="827.5" y="-244.5" font-family="Times,serif" font-size="14.00" fill="#000000"> </text>
<text text-anchor="start" x="832.5" y="-244.5" font-family="Times,serif" font-size="12.00" fill="#000000">(0x193bd90)</text>
<text text-anchor="start" x="639.5" y="-222.3" font-family="Times,serif" font-size="14.00" fill="#000000">check_time</text>
<text text-anchor="start" x="741.5" y="-222.3" font-family="Times,serif" font-size="14.00" fill="#000000">=</text>
<text text-anchor="start" x="761.5" y="-222.3" font-family="Times,serif" font-size="14.00" fill="#000000">&quot;2018&#45;10&#45;22 20:32&quot;</text>
<text text-anchor="start" x="639.5" y="-203.3" font-family="Times,serif" font-size="14.00" fill="#000000">login</text>
<text text-anchor="start" x="741.5" y="-203.3" font-family="Times,serif" font-size="14.00" fill="#000000">=</text>
<text text-anchor="start" x="761.5" y="-203.3" font-family="Times,serif" font-size="14.00" fill="#000000">&quot;&quot;</text>
<text text-anchor="start" x="639.5" y="-184.3" font-family="Times,serif" font-size="14.00" fill="#000000">user</text>
<text text-anchor="start" x="741.5" y="-184.3" font-family="Times,serif" font-size="14.00" fill="#000000">=</text>
<text text-anchor="start" x="761.5" y="-184.3" font-family="Times,serif" font-size="14.00" fill="#000000">&quot;banana&quot;</text>
<text text-anchor="start" x="639.5" y="-165.3" font-family="Times,serif" font-size="14.00" fill="#000000">pass</text>
<text text-anchor="start" x="741.5" y="-165.3" font-family="Times,serif" font-size="14.00" fill="#000000">=</text>
<text text-anchor="start" x="761.5" y="-165.3" font-family="Times,serif" font-size="14.00" fill="#000000">&quot;&quot;</text>
<text text-anchor="start" x="639.5" y="-146.3" font-family="Times,serif" font-size="14.00" fill="#000000">port</text>
<text text-anchor="start" x="741.5" y="-146.3" font-family="Times,serif" font-size="14.00" fill="#000000">=</text>
<text text-anchor="start" x="761.5" y="-146.3" font-family="Times,serif" font-size="14.00" fill="#000000">0</text>
<polygon fill="#d0d0d0" stroke="#d0d0d0" points="636.5,-235.5 636.5,-235.5 911.5,-235.5 911.5,-235.5 636.5,-235.5"/>
<polygon fill="#d0d0d0" stroke="#d0d0d0" points="636.5,-216.5 636.5,-216.5 736.5,-216.5 736.5,-216.5 636.5,-216.5"/>
<polygon fill="#d0d0d0" stroke="#d0d0d0" points="736.5,-216.5 736.5,-216.5 759.5,-216.5 759.5,-216.5 736.5,-216.5"/>
<polygon fill="#d0d0d0" stroke="#d0d0d0" points="759.5,-216.5 759.5,-216.5 911.5,-216.5 911.5,-216.5 759.5,-216.5"/>
<polygon fill="#d0d0d0" stroke="#d0d0d0" points="636.5,-197.5 636.5,-197.5 736.5,-197.5 736.5,-197.5 636.5,-197.5"/>
<polygon fill="#d0d0d0" stroke="#d0d0d0" points="736.5,-197.5 736.5,-197.5 759.5,-197.5 759.5,-197.5 736.5,-197.5"/>
<polygon fill="#d0d0d0" stroke="#d0d0d0" points="759.5,-197.5 759.5,-197.5 911.5,-197.5 911.5,-197.5 759.5,-197.5"/>
<polygon fill="#d0d0d0" stroke="#d0d0d0" points="636.5,-178.5 636.5,-178.5 736.5,-178.5 736.5,-178.5 636.5,-178.5"/>
<polygon fill="#d0d0d0" stroke="#d0d0d0" points="736.5,-178.5 736.5,-178.5 759.5,-178.5 759.5,-178.5 736.5,-178.5"/>
<polygon fill="#d0d0d0" stroke="#d0d0d0" points="759.5,-178.5 759.5,-178.5 911.5,-178.5 911.5,-178.5 759.5,-178.5"/>
<polygon fill="#d0d0d0" stroke="#d0d0d0" points="636.5,-159.5 636.5,-159.5 736.5,-159.5 736.5,-159.5 636.5,-159.5"/>
<polygon fill="#d0d0d0" stroke="#d0d0d0" points="736.5,-159.5 736.5,-159.5 759.5,-159.5 759.5,-159.5 736.5,-159.5"/>
<polygon fill="#d0d0d0" stroke="#d0d0d0" points="759.5,-159.5 759.5,-159.5 911.5,-159.5 911.5,-159.5 759.5,-159.5"/>
<polygon fill="none" stroke="#d0d0d0" points="636,-140 636,-263 911,-263 911,-140 636,-140"/>
</g>
<!-- obj_0x1918930&#45;&gt;obj_0x193bd90 -->
<g id="edge7" class="edge">
<title>obj_0x1918930&#45;&gt;obj_0x193bd90</title>
<g id="a_edge7"><a xlink:title="Account&#45;&gt;adata">
<path fill="none" stroke="#c0c0c0" stroke-width="4.5" d="M773.5,-298.8827C773.5,-291.3067 773.5,-282.4828 773.5,-273.2987"/>
<polygon fill="#c0c0c0" stroke="#c0c0c0" stroke-width="4.5" points="777.4376,-273.2337 773.5,-263.2337 769.5626,-273.2338 777.4376,-273.2337"/>
</a>
</g>
</g>
<!-- obj_0x19189e0 -->
<g id="node10" class="node">
<title>obj_0x19189e0</title>
<polygon fill="#80ff80" stroke="transparent" points="948.5,-188.5 948.5,-214.5 994.5,-214.5 994.5,-188.5 948.5,-188.5"/>
<text text-anchor="start" x="950.5" y="-197.5" font-family="Times,serif" font-weight="bold" font-size="20.00" fill="#000000">MN</text>
<polygon fill="none" stroke="#d0d0d0" points="947.5,-187.5 947.5,-215.5 995.5,-215.5 995.5,-187.5 947.5,-187.5"/>
</g>
<!-- obj_0x1918930&#45;&gt;obj_0x19189e0 -->
<g id="edge8" class="edge">
<title>obj_0x1918930&#45;&gt;obj_0x19189e0</title>
<g id="a_edge8"><a xlink:title="Account&#45;&gt;mailboxes">
<path fill="none" stroke="#c0c0c0" stroke-width="4.5" d="M863.0287,-298.906C886.1822,-290.0853 910.0435,-278.3513 929.5,-263 942.4417,-252.7889 952.9104,-237.4939 960.1592,-224.7119"/>
<polygon fill="#c0c0c0" stroke="#c0c0c0" stroke-width="4.5" points="963.814,-226.2277 965.0624,-215.5531 956.8713,-222.5108 963.814,-226.2277"/>
</a>
</g>
</g>
<!-- obj_0x1979c50 -->
<g id="node9" class="node">
<title>obj_0x1979c50</title>
<polygon fill="#ff8080" stroke="transparent" points="666.5,-77 666.5,-103 881.5,-103 881.5,-77 666.5,-77"/>
<text text-anchor="start" x="668.5" y="-86" font-family="Times,serif" font-weight="bold" font-size="20.00" fill="#000000">Connection</text>
<text text-anchor="start" x="798.5" y="-86" font-family="Times,serif" font-size="14.00" fill="#000000"> </text>
<text text-anchor="start" x="803.5" y="-86" font-family="Times,serif" font-size="12.00" fill="#000000">(0x1979c50)</text>
<text text-anchor="start" x="668.5" y="-63.8" font-family="Times,serif" font-size="14.00" fill="#000000">user</text>
<text text-anchor="start" x="757" y="-63.8" font-family="Times,serif" font-size="14.00" fill="#000000">=</text>
<text text-anchor="start" x="784.5" y="-63.8" font-family="Times,serif" font-size="14.00" fill="#000000">&quot;banana&quot;</text>
<text text-anchor="start" x="668.5" y="-44.8" font-family="Times,serif" font-size="14.00" fill="#000000">host</text>
<text text-anchor="start" x="757" y="-44.8" font-family="Times,serif" font-size="14.00" fill="#000000">=</text>
<text text-anchor="start" x="784.5" y="-44.8" font-family="Times,serif" font-size="14.00" fill="#000000">&quot;10.8.0.1&quot;</text>
<text text-anchor="start" x="668.5" y="-25.8" font-family="Times,serif" font-size="14.00" fill="#000000">port</text>
<text text-anchor="start" x="757" y="-25.8" font-family="Times,serif" font-size="14.00" fill="#000000">=</text>
<text text-anchor="start" x="784.5" y="-25.8" font-family="Times,serif" font-size="14.00" fill="#000000">110</text>
<text text-anchor="start" x="668.5" y="-6.8" font-family="Times,serif" font-size="14.00" fill="#000000">fd</text>
<text text-anchor="start" x="757" y="-6.8" font-family="Times,serif" font-size="14.00" fill="#000000">=</text>
<text text-anchor="start" x="784.5" y="-6.8" font-family="Times,serif" font-size="14.00" fill="#000000">6</text>
<polygon fill="#d0d0d0" stroke="#d0d0d0" points="665.5,-77 665.5,-77 882.5,-77 882.5,-77 665.5,-77"/>
<polygon fill="#d0d0d0" stroke="#d0d0d0" points="665.5,-58 665.5,-58 744.5,-58 744.5,-58 665.5,-58"/>
<polygon fill="#d0d0d0" stroke="#d0d0d0" points="744.5,-58 744.5,-58 782.5,-58 782.5,-58 744.5,-58"/>
<polygon fill="#d0d0d0" stroke="#d0d0d0" points="782.5,-58 782.5,-58 882.5,-58 882.5,-58 782.5,-58"/>
<polygon fill="#d0d0d0" stroke="#d0d0d0" points="665.5,-39 665.5,-39 744.5,-39 744.5,-39 665.5,-39"/>
<polygon fill="#d0d0d0" stroke="#d0d0d0" points="744.5,-39 744.5,-39 782.5,-39 782.5,-39 744.5,-39"/>
<polygon fill="#d0d0d0" stroke="#d0d0d0" points="782.5,-39 782.5,-39 882.5,-39 882.5,-39 782.5,-39"/>
<polygon fill="#d0d0d0" stroke="#d0d0d0" points="665.5,-20 665.5,-20 744.5,-20 744.5,-20 665.5,-20"/>
<polygon fill="#d0d0d0" stroke="#d0d0d0" points="744.5,-20 744.5,-20 782.5,-20 782.5,-20 744.5,-20"/>
<polygon fill="#d0d0d0" stroke="#d0d0d0" points="782.5,-20 782.5,-20 882.5,-20 882.5,-20 782.5,-20"/>
<polygon fill="none" stroke="#d0d0d0" points="665,0 665,-104 882,-104 882,0 665,0"/>
</g>
<!-- obj_0x193bd90&#45;&gt;obj_0x1979c50 -->
<g id="edge6" class="edge">
<title>obj_0x193bd90&#45;&gt;obj_0x1979c50</title>
<g id="a_edge6"><a xlink:title="PopAccountData&#45;&gt;conn">
<path fill="none" stroke="#c0c0c0" stroke-width="4.5" d="M773.5,-139.8295C773.5,-131.3665 773.5,-122.6726 773.5,-114.2002"/>
<polygon fill="#c0c0c0" stroke="#c0c0c0" stroke-width="4.5" points="777.4376,-114.0058 773.5,-104.0059 769.5626,-114.0059 777.4376,-114.0058"/>
</a>
</g>
</g>
<!-- obj_0x1939cb0 -->
<g id="node11" class="node">
<title>obj_0x1939cb0</title>
<polygon fill="#80ff80" stroke="transparent" points="1033.5,-235.5 1033.5,-261.5 1248.5,-261.5 1248.5,-235.5 1033.5,-235.5"/>
<text text-anchor="start" x="1035.5" y="-244.5" font-family="Times,serif" font-weight="bold" font-size="20.00" fill="#000000">Mailbox</text>
<text text-anchor="start" x="1126.5" y="-244.5" font-family="Times,serif" font-size="14.00" fill="#000000"> </text>
<text text-anchor="start" x="1131.5" y="-244.5" font-family="Times,serif" font-size="12.00" fill="#000000">(0x1939cb0)</text>
<text text-anchor="start" x="1035.5" y="-222.3" font-family="Times,serif" font-size="14.00" fill="#000000">type</text>
<text text-anchor="start" x="1100.5" y="-222.3" font-family="Times,serif" font-size="14.00" fill="#000000">=</text>
<text text-anchor="start" x="1117.5" y="-222.3" font-family="Times,serif" font-size="14.00" fill="#000000">POP</text>
<text text-anchor="start" x="1035.5" y="-203.3" font-family="Times,serif" font-size="14.00" fill="#000000">path</text>
<text text-anchor="start" x="1100.5" y="-203.3" font-family="Times,serif" font-size="14.00" fill="#000000">=</text>
<text text-anchor="start" x="1117.5" y="-203.3" font-family="Times,serif" font-size="14.00" fill="#000000">&quot;10.8.0.1:banana&quot;</text>
<text text-anchor="start" x="1035.5" y="-184.3" font-family="Times,serif" font-size="14.00" fill="#000000">realpath</text>
<text text-anchor="start" x="1100.5" y="-184.3" font-family="Times,serif" font-size="14.00" fill="#000000">=</text>
<text text-anchor="start" x="1117.5" y="-184.3" font-family="Times,serif" font-size="14.00" fill="#000000">&quot;10.8.0.1:banana&quot;</text>
<text text-anchor="start" x="1035.5" y="-165.3" font-family="Times,serif" font-size="14.00" fill="#000000">account</text>
<text text-anchor="start" x="1100.5" y="-165.3" font-family="Times,serif" font-size="14.00" fill="#000000">=</text>
<polygon fill="#80ffff" stroke="transparent" points="1115.5,-159.5 1115.5,-178.5 1248.5,-178.5 1248.5,-159.5 1115.5,-159.5"/>
<text text-anchor="start" x="1117.5" y="-165.3" font-family="Times,serif" font-size="14.00" fill="#000000">0x1918930</text>
<text text-anchor="start" x="1035.5" y="-146.3" font-family="Times,serif" font-size="14.00" fill="#000000">desc</text>
<text text-anchor="start" x="1100.5" y="-146.3" font-family="Times,serif" font-size="14.00" fill="#000000">=</text>
<text text-anchor="start" x="1117.5" y="-146.3" font-family="Times,serif" font-size="14.00" fill="#000000">&quot;p&#45;banana&quot;</text>
<polygon fill="#d0d0d0" stroke="#d0d0d0" points="1032.5,-235.5 1032.5,-235.5 1249.5,-235.5 1249.5,-235.5 1032.5,-235.5"/>
<polygon fill="#d0d0d0" stroke="#d0d0d0" points="1032.5,-216.5 1032.5,-216.5 1098.5,-216.5 1098.5,-216.5 1032.5,-216.5"/>
<polygon fill="#d0d0d0" stroke="#d0d0d0" points="1098.5,-216.5 1098.5,-216.5 1115.5,-216.5 1115.5,-216.5 1098.5,-216.5"/>
<polygon fill="#d0d0d0" stroke="#d0d0d0" points="1115.5,-216.5 1115.5,-216.5 1249.5,-216.5 1249.5,-216.5 1115.5,-216.5"/>
<polygon fill="#d0d0d0" stroke="#d0d0d0" points="1032.5,-197.5 1032.5,-197.5 1098.5,-197.5 1098.5,-197.5 1032.5,-197.5"/>
<polygon fill="#d0d0d0" stroke="#d0d0d0" points="1098.5,-197.5 1098.5,-197.5 1115.5,-197.5 1115.5,-197.5 1098.5,-197.5"/>
<polygon fill="#d0d0d0" stroke="#d0d0d0" points="1115.5,-197.5 1115.5,-197.5 1249.5,-197.5 1249.5,-197.5 1115.5,-197.5"/>
<polygon fill="#d0d0d0" stroke="#d0d0d0" points="1032.5,-178.5 1032.5,-178.5 1098.5,-178.5 1098.5,-178.5 1032.5,-178.5"/>
<polygon fill="#d0d0d0" stroke="#d0d0d0" points="1098.5,-178.5 1098.5,-178.5 1115.5,-178.5 1115.5,-178.5 1098.5,-178.5"/>
<polygon fill="#d0d0d0" stroke="#d0d0d0" points="1115.5,-178.5 1115.5,-178.5 1249.5,-178.5 1249.5,-178.5 1115.5,-178.5"/>
<polygon fill="#d0d0d0" stroke="#d0d0d0" points="1032.5,-159.5 1032.5,-159.5 1098.5,-159.5 1098.5,-159.5 1032.5,-159.5"/>
<polygon fill="#d0d0d0" stroke="#d0d0d0" points="1098.5,-159.5 1098.5,-159.5 1115.5,-159.5 1115.5,-159.5 1098.5,-159.5"/>
<polygon fill="#d0d0d0" stroke="#d0d0d0" points="1115.5,-159.5 1115.5,-159.5 1249.5,-159.5 1249.5,-159.5 1115.5,-159.5"/>
<polygon fill="none" stroke="#d0d0d0" points="1032,-140 1032,-263 1249,-263 1249,-140 1032,-140"/>
</g>
<!-- obj_0x19189e0&#45;&gt;obj_0x1939cb0 -->
<g id="edge9" class="edge">
<title>obj_0x19189e0&#45;&gt;obj_0x1939cb0</title>
<g id="a_edge9"><a xlink:title="MailboxNode&#45;&gt;m">
<path fill="none" stroke="#c0c0c0" stroke-width="4.5" d="M995.5957,-201.5C1004.2749,-201.5 1012.954,-201.5 1021.6332,-201.5"/>
<polygon fill="#c0c0c0" stroke="#c0c0c0" stroke-width="4.5" points="1021.8218,-205.4376 1031.8218,-201.5 1021.8217,-197.5626 1021.8218,-205.4376"/>
</a>
</g>
</g>
<!-- obj_0x1901b20 -->
<g id="node12" class="node">
<title>obj_0x1901b20</title>
<polygon fill="#ff80ff" stroke="transparent" points="443.5,-401.5 443.5,-427.5 616.5,-427.5 616.5,-401.5 443.5,-401.5"/>
<text text-anchor="start" x="445.5" y="-410.5" font-family="Times,serif" font-weight="bold" font-size="20.00" fill="#000000">Context</text>
<text text-anchor="start" x="533.5" y="-410.5" font-family="Times,serif" font-size="14.00" fill="#000000"> </text>
<text text-anchor="start" x="538.5" y="-410.5" font-family="Times,serif" font-size="12.00" fill="#000000">(0x1901b20)</text>
<text text-anchor="start" x="445.5" y="-388.3" font-family="Times,serif" font-size="14.00" fill="#000000">mailbox</text>
<text text-anchor="start" x="513" y="-388.3" font-family="Times,serif" font-size="14.00" fill="#000000">=</text>
<polygon fill="#80ff80" stroke="transparent" points="529.5,-382.5 529.5,-401.5 616.5,-401.5 616.5,-382.5 529.5,-382.5"/>
<text text-anchor="start" x="531.5" y="-388.3" font-family="Times,serif" font-size="14.00" fill="#000000">0x1939cb0</text>
<polygon fill="#d0d0d0" stroke="#d0d0d0" points="442.5,-401.5 442.5,-401.5 617.5,-401.5 617.5,-401.5 442.5,-401.5"/>
<polygon fill="none" stroke="#d0d0d0" points="442,-382 442,-429 617,-429 617,-382 442,-382"/>
</g>
</g>
</svg>
