<?xml version="1.0" encoding="UTF-8" standalone="no"?>
<!DOCTYPE svg PUBLIC "-//W3C//DTD SVG 1.1//EN"
 "http://www.w3.org/Graphics/SVG/1.1/DTD/svg11.dtd">
<!-- Generated by graphviz version 13.1.2 (20250808.2320)
 -->
<!-- Title: keybindings Pages: 1 -->
<svg width="193pt" height="81pt"
 viewBox="0.00 0.00 193.00 81.00" xmlns="http://www.w3.org/2000/svg" xmlns:xlink="http://www.w3.org/1999/xlink">
<g id="graph0" class="graph" transform="scale(1 1) rotate(0) translate(4 77.25)">
<title>keybindings</title>
<polygon fill="white" stroke="none" points="-4,4 -4,-77.25 188.5,-77.25 188.5,4 -4,4"/>
<!-- menu_dialog -->
<g id="node1" class="node">
<title>menu_dialog</title>
<polygon fill="#80ff80" stroke="none" points="1,-43.5 1,-72.25 183.5,-72.25 183.5,-43.5 1,-43.5"/>
<text xml:space="preserve" text-anchor="start" x="3" y="-52.25" font-family="Times,serif" font-weight="bold" font-size="20.00" fill="#000000">MenuDefinition</text>
<text xml:space="preserve" text-anchor="start" x="177" y="-52.25" font-family="Times,serif" font-size="14.00"> </text>
<text xml:space="preserve" text-anchor="start" x="3" y="-28.2" font-family="Times,serif" font-size="14.00">id</text>
<text xml:space="preserve" text-anchor="start" x="49.12" y="-28.2" font-family="Times,serif" font-size="14.00">=</text>
<text xml:space="preserve" text-anchor="start" x="66.17" y="-28.2" font-family="Times,serif" font-size="14.00">MENU_DIALOG</text>
<text xml:space="preserve" text-anchor="start" x="3" y="-6.95" font-family="Times,serif" font-size="14.00">name</text>
<text xml:space="preserve" text-anchor="start" x="49.12" y="-6.95" font-family="Times,serif" font-size="14.00">=</text>
<text xml:space="preserve" text-anchor="start" x="66.17" y="-6.95" font-family="Times,serif" font-size="14.00">&quot;dialog&quot;</text>
<polygon fill="#d0d0d0" stroke="#d0d0d0" points="0,-43.5 0,-43.5 184.5,-43.5 184.5,-43.5 0,-43.5"/>
<polygon fill="#d0d0d0" stroke="#d0d0d0" points="0,-22.25 0,-22.25 46.08,-22.25 46.08,-22.25 0,-22.25"/>
<polygon fill="#d0d0d0" stroke="#d0d0d0" points="46.08,-22.25 46.08,-22.25 64.17,-22.25 64.17,-22.25 46.08,-22.25"/>
<polygon fill="#d0d0d0" stroke="#d0d0d0" points="64.17,-22.25 64.17,-22.25 184.5,-22.25 184.5,-22.25 64.17,-22.25"/>
<polygon fill="none" stroke="#d0d0d0" points="0,0 0,-73.25 184.5,-73.25 184.5,0 0,0"/>
</g>
</g>
</svg>
