<?xml version="1.0" encoding="UTF-8" standalone="no"?>
<!DOCTYPE svg PUBLIC "-//W3C//DTD SVG 1.1//EN"
 "http://www.w3.org/Graphics/SVG/1.1/DTD/svg11.dtd">
<!-- Generated by graphviz version 13.1.2 (20250808.2320)
 -->
<!-- Title: keybindings Pages: 1 -->
<svg width="184pt" height="147pt"
 viewBox="0.00 0.00 184.00 147.00" xmlns="http://www.w3.org/2000/svg" xmlns:xlink="http://www.w3.org/1999/xlink">
<g id="graph0" class="graph" transform="scale(1 1) rotate(0) translate(4 143)">
<title>keybindings</title>
<polygon fill="white" stroke="none" points="-4,4 -4,-143 180.25,-143 180.25,4 -4,4"/>
<!-- sub_dialog -->
<g id="node1" class="node">
<title>sub_dialog</title>
<polygon fill="#ffff80" stroke="none" points="1,-109.25 1,-138 175.25,-138 175.25,-109.25 1,-109.25"/>
<text xml:space="preserve" text-anchor="start" x="3" y="-118" font-family="Times,serif" font-weight="bold" font-size="20.00" fill="#000000">SubMenu</text>
<text xml:space="preserve" text-anchor="start" x="109.5" y="-118" font-family="Times,serif" font-size="14.00"> </text>
<polygon fill="#ffff80" stroke="none" points="1,-88 1,-109.25 175.25,-109.25 175.25,-88 1,-88"/>
<text xml:space="preserve" text-anchor="start" x="3" y="-94.95" font-family="Times,serif" font-weight="bold" font-size="12.00" fill="#000000">OpDialog[]</text>
<text xml:space="preserve" text-anchor="start" x="77.25" y="-94.95" font-family="Times,serif" font-size="14.00"> </text>
<text xml:space="preserve" text-anchor="start" x="3" y="-72.7" font-family="Times,serif" font-size="14.00">quit</text>
<text xml:space="preserve" text-anchor="start" x="83.33" y="-72.7" font-family="Times,serif" font-size="14.00">OP_QUIT</text>
<text xml:space="preserve" text-anchor="start" x="3" y="-51.45" font-family="Times,serif" font-size="14.00">exit</text>
<text xml:space="preserve" text-anchor="start" x="83.33" y="-51.45" font-family="Times,serif" font-size="14.00">OP_EXIT</text>
<polygon fill="#ffff80" stroke="none" points="1,-24.25 1,-45.5 175.25,-45.5 175.25,-24.25 1,-24.25"/>
<text xml:space="preserve" text-anchor="start" x="3" y="-31.2" font-family="Times,serif" font-weight="bold" font-size="12.00" fill="#000000">DialogDefaultBindings[]</text>
<text xml:space="preserve" text-anchor="start" x="168.75" y="-31.2" font-family="Times,serif" font-size="14.00"> </text>
<text xml:space="preserve" text-anchor="start" x="27.67" y="-7.95" font-family="Times,serif" font-size="14.00">q</text>
<polygon fill="none" stroke="#d0d0d0" points="38.67,-1 38.67,-24.25 81.33,-24.25 81.33,-1 38.67,-1"/>
<text xml:space="preserve" text-anchor="start" x="54" y="-7.95" font-family="Times,serif" font-size="14.00">→</text>
<text xml:space="preserve" text-anchor="start" x="83.33" y="-7.95" font-family="Times,serif" font-size="14.00">quit</text>
<polygon fill="#d0d0d0" stroke="#d0d0d0" points="0,-109.25 0,-109.25 176.25,-109.25 176.25,-109.25 0,-109.25"/>
<polygon fill="#d0d0d0" stroke="#d0d0d0" points="0,-88 0,-88 176.25,-88 176.25,-88 0,-88"/>
<polygon fill="#d0d0d0" stroke="#d0d0d0" points="0,-66.75 0,-66.75 81.33,-66.75 81.33,-66.75 0,-66.75"/>
<polygon fill="#d0d0d0" stroke="#d0d0d0" points="81.33,-66.75 81.33,-66.75 176.25,-66.75 176.25,-66.75 81.33,-66.75"/>
<polygon fill="#d0d0d0" stroke="#d0d0d0" points="0,-45.5 0,-45.5 81.33,-45.5 81.33,-45.5 0,-45.5"/>
<polygon fill="#d0d0d0" stroke="#d0d0d0" points="81.33,-45.5 81.33,-45.5 176.25,-45.5 176.25,-45.5 81.33,-45.5"/>
<polygon fill="#d0d0d0" stroke="#d0d0d0" points="0,-24.25 0,-24.25 176.25,-24.25 176.25,-24.25 0,-24.25"/>
<polygon fill="none" stroke="#d0d0d0" points="0,0 0,-139 176.25,-139 176.25,0 0,0"/>
</g>
</g>
</svg>
