<?xml version="1.0" encoding="UTF-8" standalone="no"?>
<!DOCTYPE svg PUBLIC "-//W3C//DTD SVG 1.1//EN"
 "http://www.w3.org/Graphics/SVG/1.1/DTD/svg11.dtd">
<!-- Generated by graphviz version 13.1.2 (20250808.2320)
 -->
<!-- Title: keybindings Pages: 1 -->
<svg width="239pt" height="337pt"
 viewBox="0.00 0.00 239.00 337.00" xmlns="http://www.w3.org/2000/svg" xmlns:xlink="http://www.w3.org/1999/xlink">
<g id="graph0" class="graph" transform="scale(1 1) rotate(0) translate(4 333.25)">
<title>keybindings</title>
<polygon fill="white" stroke="none" points="-4,4 -4,-333.25 234.5,-333.25 234.5,4 -4,4"/>
<!-- sub_query -->
<g id="node1" class="node">
<title>sub_query</title>
<polygon fill="#ffff80" stroke="none" points="1,-299.5 1,-328.25 229.5,-328.25 229.5,-299.5 1,-299.5"/>
<text xml:space="preserve" text-anchor="start" x="3" y="-308.25" font-family="Times,serif" font-weight="bold" font-size="20.00" fill="#000000">SubMenu</text>
<text xml:space="preserve" text-anchor="start" x="109.5" y="-308.25" font-family="Times,serif" font-size="14.00"> </text>
<polygon fill="#ffff80" stroke="none" points="1,-278.25 1,-299.5 229.5,-299.5 229.5,-278.25 1,-278.25"/>
<text xml:space="preserve" text-anchor="start" x="3" y="-285.2" font-family="Times,serif" font-weight="bold" font-size="12.00" fill="#000000">OpQuery[]</text>
<text xml:space="preserve" text-anchor="start" x="73.5" y="-285.2" font-family="Times,serif" font-size="14.00"> </text>
<text xml:space="preserve" text-anchor="start" x="3" y="-262.95" font-family="Times,serif" font-size="14.00">create&#45;alias</text>
<text xml:space="preserve" text-anchor="start" x="89.5" y="-262.95" font-family="Times,serif" font-size="14.00">OP_CREATE_ALIAS</text>
<text xml:space="preserve" text-anchor="start" x="3" y="-241.7" font-family="Times,serif" font-size="14.00">exit</text>
<text xml:space="preserve" text-anchor="start" x="89.5" y="-241.7" font-family="Times,serif" font-size="14.00">OP_EXIT</text>
<text xml:space="preserve" text-anchor="start" x="3" y="-220.45" font-family="Times,serif" font-size="14.00">limit</text>
<text xml:space="preserve" text-anchor="start" x="89.5" y="-220.45" font-family="Times,serif" font-size="14.00">OP_MAIN_LIMIT</text>
<text xml:space="preserve" text-anchor="start" x="3" y="-199.2" font-family="Times,serif" font-size="14.00">mail</text>
<text xml:space="preserve" text-anchor="start" x="89.5" y="-199.2" font-family="Times,serif" font-size="14.00">OP_MAIL</text>
<text xml:space="preserve" text-anchor="start" x="3" y="-177.95" font-family="Times,serif" font-size="14.00">query</text>
<text xml:space="preserve" text-anchor="start" x="89.5" y="-177.95" font-family="Times,serif" font-size="14.00">OP_QUERY</text>
<text xml:space="preserve" text-anchor="start" x="3" y="-160.5" font-family="Times,serif" font-size="10.00" fill="#303030">+5 more</text>
<polygon fill="#ffff80" stroke="none" points="1,-134 1,-155.25 229.5,-155.25 229.5,-134 1,-134"/>
<text xml:space="preserve" text-anchor="start" x="3" y="-140.95" font-family="Times,serif" font-weight="bold" font-size="12.00" fill="#000000">QueryDefaultBindings[]</text>
<text xml:space="preserve" text-anchor="start" x="165" y="-140.95" font-family="Times,serif" font-size="14.00"> </text>
<text xml:space="preserve" text-anchor="start" x="33.75" y="-117.7" font-family="Times,serif" font-size="14.00">a</text>
<polygon fill="none" stroke="#d0d0d0" points="44,-110.75 44,-134 87.5,-134 87.5,-110.75 44,-110.75"/>
<text xml:space="preserve" text-anchor="start" x="59.75" y="-117.7" font-family="Times,serif" font-size="14.00">→</text>
<text xml:space="preserve" text-anchor="start" x="89.5" y="-117.7" font-family="Times,serif" font-size="14.00">create&#45;alias</text>
<text xml:space="preserve" text-anchor="start" x="33" y="-94.45" font-family="Times,serif" font-size="14.00">q</text>
<polygon fill="none" stroke="#d0d0d0" points="44,-87.5 44,-110.75 87.5,-110.75 87.5,-87.5 44,-87.5"/>
<text xml:space="preserve" text-anchor="start" x="59.75" y="-94.45" font-family="Times,serif" font-size="14.00">→</text>
<text xml:space="preserve" text-anchor="start" x="89.5" y="-94.45" font-family="Times,serif" font-size="14.00">exit</text>
<text xml:space="preserve" text-anchor="start" x="37.5" y="-71.2" font-family="Times,serif" font-size="14.00">l</text>
<polygon fill="none" stroke="#d0d0d0" points="44,-64.25 44,-87.5 87.5,-87.5 87.5,-64.25 44,-64.25"/>
<text xml:space="preserve" text-anchor="start" x="59.75" y="-71.2" font-family="Times,serif" font-size="14.00">→</text>
<text xml:space="preserve" text-anchor="start" x="89.5" y="-71.2" font-family="Times,serif" font-size="14.00">limit</text>
<text xml:space="preserve" text-anchor="start" x="28.5" y="-47.95" font-family="Times,serif" font-size="14.00">m</text>
<polygon fill="none" stroke="#d0d0d0" points="44,-41 44,-64.25 87.5,-64.25 87.5,-41 44,-41"/>
<text xml:space="preserve" text-anchor="start" x="59.75" y="-47.95" font-family="Times,serif" font-size="14.00">→</text>
<text xml:space="preserve" text-anchor="start" x="89.5" y="-47.95" font-family="Times,serif" font-size="14.00">mail</text>
<text xml:space="preserve" text-anchor="start" x="30.75" y="-24.7" font-family="Times,serif" font-size="14.00">Q</text>
<polygon fill="none" stroke="#d0d0d0" points="44,-17.75 44,-41 87.5,-41 87.5,-17.75 44,-17.75"/>
<text xml:space="preserve" text-anchor="start" x="59.75" y="-24.7" font-family="Times,serif" font-size="14.00">→</text>
<text xml:space="preserve" text-anchor="start" x="89.5" y="-24.7" font-family="Times,serif" font-size="14.00">query</text>
<text xml:space="preserve" text-anchor="start" x="3" y="-6.25" font-family="Times,serif" font-size="10.00" fill="#303030">+6 more</text>
<polygon fill="#d0d0d0" stroke="#d0d0d0" points="0,-299.5 0,-299.5 230.5,-299.5 230.5,-299.5 0,-299.5"/>
<polygon fill="#d0d0d0" stroke="#d0d0d0" points="0,-278.25 0,-278.25 230.5,-278.25 230.5,-278.25 0,-278.25"/>
<polygon fill="#d0d0d0" stroke="#d0d0d0" points="0,-257 0,-257 87.5,-257 87.5,-257 0,-257"/>
<polygon fill="#d0d0d0" stroke="#d0d0d0" points="87.5,-257 87.5,-257 230.5,-257 230.5,-257 87.5,-257"/>
<polygon fill="#d0d0d0" stroke="#d0d0d0" points="0,-235.75 0,-235.75 87.5,-235.75 87.5,-235.75 0,-235.75"/>
<polygon fill="#d0d0d0" stroke="#d0d0d0" points="87.5,-235.75 87.5,-235.75 230.5,-235.75 230.5,-235.75 87.5,-235.75"/>
<polygon fill="#d0d0d0" stroke="#d0d0d0" points="0,-214.5 0,-214.5 87.5,-214.5 87.5,-214.5 0,-214.5"/>
<polygon fill="#d0d0d0" stroke="#d0d0d0" points="87.5,-214.5 87.5,-214.5 230.5,-214.5 230.5,-214.5 87.5,-214.5"/>
<polygon fill="#d0d0d0" stroke="#d0d0d0" points="0,-193.25 0,-193.25 87.5,-193.25 87.5,-193.25 0,-193.25"/>
<polygon fill="#d0d0d0" stroke="#d0d0d0" points="87.5,-193.25 87.5,-193.25 230.5,-193.25 230.5,-193.25 87.5,-193.25"/>
<polygon fill="#d0d0d0" stroke="#d0d0d0" points="0,-172 0,-172 87.5,-172 87.5,-172 0,-172"/>
<polygon fill="#d0d0d0" stroke="#d0d0d0" points="87.5,-172 87.5,-172 230.5,-172 230.5,-172 87.5,-172"/>
<polygon fill="#d0d0d0" stroke="#d0d0d0" points="0,-155.25 0,-155.25 230.5,-155.25 230.5,-155.25 0,-155.25"/>
<polygon fill="#d0d0d0" stroke="#d0d0d0" points="0,-134 0,-134 230.5,-134 230.5,-134 0,-134"/>
<polygon fill="#d0d0d0" stroke="#d0d0d0" points="0,-110.75 0,-110.75 44,-110.75 44,-110.75 0,-110.75"/>
<polygon fill="#d0d0d0" stroke="#d0d0d0" points="44,-110.75 44,-110.75 87.5,-110.75 87.5,-110.75 44,-110.75"/>
<polygon fill="#d0d0d0" stroke="#d0d0d0" points="87.5,-110.75 87.5,-110.75 230.5,-110.75 230.5,-110.75 87.5,-110.75"/>
<polygon fill="#d0d0d0" stroke="#d0d0d0" points="0,-87.5 0,-87.5 44,-87.5 44,-87.5 0,-87.5"/>
<polygon fill="#d0d0d0" stroke="#d0d0d0" points="44,-87.5 44,-87.5 87.5,-87.5 87.5,-87.5 44,-87.5"/>
<polygon fill="#d0d0d0" stroke="#d0d0d0" points="87.5,-87.5 87.5,-87.5 230.5,-87.5 230.5,-87.5 87.5,-87.5"/>
<polygon fill="#d0d0d0" stroke="#d0d0d0" points="0,-64.25 0,-64.25 44,-64.25 44,-64.25 0,-64.25"/>
<polygon fill="#d0d0d0" stroke="#d0d0d0" points="44,-64.25 44,-64.25 87.5,-64.25 87.5,-64.25 44,-64.25"/>
<polygon fill="#d0d0d0" stroke="#d0d0d0" points="87.5,-64.25 87.5,-64.25 230.5,-64.25 230.5,-64.25 87.5,-64.25"/>
<polygon fill="#d0d0d0" stroke="#d0d0d0" points="0,-41 0,-41 44,-41 44,-41 0,-41"/>
<polygon fill="#d0d0d0" stroke="#d0d0d0" points="44,-41 44,-41 87.5,-41 87.5,-41 44,-41"/>
<polygon fill="#d0d0d0" stroke="#d0d0d0" points="87.5,-41 87.5,-41 230.5,-41 230.5,-41 87.5,-41"/>
<polygon fill="#d0d0d0" stroke="#d0d0d0" points="0,-17.75 0,-17.75 44,-17.75 44,-17.75 0,-17.75"/>
<polygon fill="#d0d0d0" stroke="#d0d0d0" points="44,-17.75 44,-17.75 87.5,-17.75 87.5,-17.75 44,-17.75"/>
<polygon fill="#d0d0d0" stroke="#d0d0d0" points="87.5,-17.75 87.5,-17.75 230.5,-17.75 230.5,-17.75 87.5,-17.75"/>
<polygon fill="none" stroke="#d0d0d0" points="0,0 0,-329.25 230.5,-329.25 230.5,0 0,0"/>
</g>
</g>
</svg>
