<?xml version="1.0" encoding="UTF-8" standalone="no"?>
<!DOCTYPE svg PUBLIC "-//W3C//DTD SVG 1.1//EN"
 "http://www.w3.org/Graphics/SVG/1.1/DTD/svg11.dtd">
<!-- Generated by graphviz version 13.1.2 (20250808.2320)
 -->
<!-- Title: keybindings Pages: 1 -->
<svg width="236pt" height="215pt"
 viewBox="0.00 0.00 236.00 215.00" xmlns="http://www.w3.org/2000/svg" xmlns:xlink="http://www.w3.org/1999/xlink">
<g id="graph0" class="graph" transform="scale(1 1) rotate(0) translate(4 210.75)">
<title>keybindings</title>
<polygon fill="white" stroke="none" points="-4,4 -4,-210.75 231.5,-210.75 231.5,4 -4,4"/>
<!-- sub_postpone -->
<g id="node1" class="node">
<title>sub_postpone</title>
<polygon fill="#ffff80" stroke="none" points="1,-177 1,-205.75 226.5,-205.75 226.5,-177 1,-177"/>
<text xml:space="preserve" text-anchor="start" x="3" y="-185.75" font-family="Times,serif" font-weight="bold" font-size="20.00" fill="#000000">SubMenu</text>
<text xml:space="preserve" text-anchor="start" x="109.5" y="-185.75" font-family="Times,serif" font-size="14.00"> </text>
<polygon fill="#ffff80" stroke="none" points="1,-155.75 1,-177 226.5,-177 226.5,-155.75 1,-155.75"/>
<text xml:space="preserve" text-anchor="start" x="3" y="-162.7" font-family="Times,serif" font-weight="bold" font-size="12.00" fill="#000000">OpPostponed[]</text>
<text xml:space="preserve" text-anchor="start" x="104.25" y="-162.7" font-family="Times,serif" font-size="14.00"> </text>
<text xml:space="preserve" text-anchor="start" x="3" y="-140.45" font-family="Times,serif" font-size="14.00">exit</text>
<text xml:space="preserve" text-anchor="start" x="112" y="-140.45" font-family="Times,serif" font-size="14.00">OP_EXIT</text>
<text xml:space="preserve" text-anchor="start" x="3" y="-119.2" font-family="Times,serif" font-size="14.00">delete&#45;entry</text>
<text xml:space="preserve" text-anchor="start" x="112" y="-119.2" font-family="Times,serif" font-size="14.00">OP_DELETE</text>
<text xml:space="preserve" text-anchor="start" x="3" y="-97.95" font-family="Times,serif" font-size="14.00">undelete&#45;entry</text>
<text xml:space="preserve" text-anchor="start" x="112" y="-97.95" font-family="Times,serif" font-size="14.00">OP_UNDELETE</text>
<polygon fill="#ffff80" stroke="none" points="1,-70.75 1,-92 226.5,-92 226.5,-70.75 1,-70.75"/>
<text xml:space="preserve" text-anchor="start" x="3" y="-77.7" font-family="Times,serif" font-weight="bold" font-size="12.00" fill="#000000">PostponedDefaultBindings[]</text>
<text xml:space="preserve" text-anchor="start" x="195.75" y="-77.7" font-family="Times,serif" font-size="14.00"> </text>
<text xml:space="preserve" text-anchor="start" x="42" y="-54.45" font-family="Times,serif" font-size="14.00">d</text>
<polygon fill="none" stroke="#d0d0d0" points="53,-47.5 53,-70.75 110,-70.75 110,-47.5 53,-47.5"/>
<text xml:space="preserve" text-anchor="start" x="75.5" y="-54.45" font-family="Times,serif" font-size="14.00">→</text>
<text xml:space="preserve" text-anchor="start" x="112" y="-54.45" font-family="Times,serif" font-size="14.00">delete&#45;entry</text>
<text xml:space="preserve" text-anchor="start" x="42" y="-31.2" font-family="Times,serif" font-size="14.00">q</text>
<polygon fill="none" stroke="#d0d0d0" points="53,-24.25 53,-47.5 110,-47.5 110,-24.25 53,-24.25"/>
<text xml:space="preserve" text-anchor="start" x="75.5" y="-31.2" font-family="Times,serif" font-size="14.00">→</text>
<text xml:space="preserve" text-anchor="start" x="112" y="-31.2" font-family="Times,serif" font-size="14.00">exit</text>
<text xml:space="preserve" text-anchor="start" x="42" y="-7.95" font-family="Times,serif" font-size="14.00">u</text>
<polygon fill="none" stroke="#d0d0d0" points="53,-1 53,-24.25 110,-24.25 110,-1 53,-1"/>
<text xml:space="preserve" text-anchor="start" x="75.5" y="-7.95" font-family="Times,serif" font-size="14.00">→</text>
<text xml:space="preserve" text-anchor="start" x="112" y="-7.95" font-family="Times,serif" font-size="14.00">undelete&#45;entry</text>
<polygon fill="#d0d0d0" stroke="#d0d0d0" points="0,-177 0,-177 227.5,-177 227.5,-177 0,-177"/>
<polygon fill="#d0d0d0" stroke="#d0d0d0" points="0,-155.75 0,-155.75 227.5,-155.75 227.5,-155.75 0,-155.75"/>
<polygon fill="#d0d0d0" stroke="#d0d0d0" points="0,-134.5 0,-134.5 110,-134.5 110,-134.5 0,-134.5"/>
<polygon fill="#d0d0d0" stroke="#d0d0d0" points="110,-134.5 110,-134.5 227.5,-134.5 227.5,-134.5 110,-134.5"/>
<polygon fill="#d0d0d0" stroke="#d0d0d0" points="0,-113.25 0,-113.25 110,-113.25 110,-113.25 0,-113.25"/>
<polygon fill="#d0d0d0" stroke="#d0d0d0" points="110,-113.25 110,-113.25 227.5,-113.25 227.5,-113.25 110,-113.25"/>
<polygon fill="#d0d0d0" stroke="#d0d0d0" points="0,-92 0,-92 110,-92 110,-92 0,-92"/>
<polygon fill="#d0d0d0" stroke="#d0d0d0" points="110,-92 110,-92 227.5,-92 227.5,-92 110,-92"/>
<polygon fill="#d0d0d0" stroke="#d0d0d0" points="0,-70.75 0,-70.75 227.5,-70.75 227.5,-70.75 0,-70.75"/>
<polygon fill="#d0d0d0" stroke="#d0d0d0" points="0,-47.5 0,-47.5 53,-47.5 53,-47.5 0,-47.5"/>
<polygon fill="#d0d0d0" stroke="#d0d0d0" points="53,-47.5 53,-47.5 110,-47.5 110,-47.5 53,-47.5"/>
<polygon fill="#d0d0d0" stroke="#d0d0d0" points="110,-47.5 110,-47.5 227.5,-47.5 227.5,-47.5 110,-47.5"/>
<polygon fill="#d0d0d0" stroke="#d0d0d0" points="0,-24.25 0,-24.25 53,-24.25 53,-24.25 0,-24.25"/>
<polygon fill="#d0d0d0" stroke="#d0d0d0" points="53,-24.25 53,-24.25 110,-24.25 110,-24.25 53,-24.25"/>
<polygon fill="#d0d0d0" stroke="#d0d0d0" points="110,-24.25 110,-24.25 227.5,-24.25 227.5,-24.25 110,-24.25"/>
<polygon fill="none" stroke="#d0d0d0" points="0,0 0,-206.75 227.5,-206.75 227.5,0 0,0"/>
</g>
</g>
</svg>
