<?xml version="1.0" encoding="UTF-8" standalone="no"?>
<!DOCTYPE svg PUBLIC "-//W3C//DTD SVG 1.1//EN"
 "http://www.w3.org/Graphics/SVG/1.1/DTD/svg11.dtd">
<!-- Generated by graphviz version 13.1.2 (20250808.2320)
 -->
<!-- Title: keybindings Pages: 1 -->
<svg width="311pt" height="337pt"
 viewBox="0.00 0.00 311.00 337.00" xmlns="http://www.w3.org/2000/svg" xmlns:xlink="http://www.w3.org/1999/xlink">
<g id="graph0" class="graph" transform="scale(1 1) rotate(0) translate(4 333.25)">
<title>keybindings</title>
<polygon fill="white" stroke="none" points="-4,4 -4,-333.25 307.25,-333.25 307.25,4 -4,4"/>
<!-- sub_browser -->
<g id="node1" class="node">
<title>sub_browser</title>
<polygon fill="#ffff80" stroke="none" points="1,-299.5 1,-328.25 302.25,-328.25 302.25,-299.5 1,-299.5"/>
<text xml:space="preserve" text-anchor="start" x="3" y="-308.25" font-family="Times,serif" font-weight="bold" font-size="20.00" fill="#000000">SubMenu</text>
<text xml:space="preserve" text-anchor="start" x="109.5" y="-308.25" font-family="Times,serif" font-size="14.00"> </text>
<polygon fill="#ffff80" stroke="none" points="1,-278.25 1,-299.5 302.25,-299.5 302.25,-278.25 1,-278.25"/>
<text xml:space="preserve" text-anchor="start" x="3" y="-285.2" font-family="Times,serif" font-weight="bold" font-size="12.00" fill="#000000">OpBrowser[]</text>
<text xml:space="preserve" text-anchor="start" x="89.25" y="-285.2" font-family="Times,serif" font-size="14.00"> </text>
<text xml:space="preserve" text-anchor="start" x="3" y="-262.95" font-family="Times,serif" font-size="14.00">catchup</text>
<text xml:space="preserve" text-anchor="start" x="112.75" y="-262.95" font-family="Times,serif" font-size="14.00">OP_CATCHUP</text>
<text xml:space="preserve" text-anchor="start" x="3" y="-241.7" font-family="Times,serif" font-size="14.00">change&#45;dir</text>
<text xml:space="preserve" text-anchor="start" x="112.75" y="-241.7" font-family="Times,serif" font-size="14.00">OP_CHANGE_DIRECTORY</text>
<text xml:space="preserve" text-anchor="start" x="3" y="-220.45" font-family="Times,serif" font-size="14.00">check&#45;new</text>
<text xml:space="preserve" text-anchor="start" x="112.75" y="-220.45" font-family="Times,serif" font-size="14.00">OP_CHECK_NEW</text>
<text xml:space="preserve" text-anchor="start" x="3" y="-199.2" font-family="Times,serif" font-size="14.00">create&#45;mailbox</text>
<text xml:space="preserve" text-anchor="start" x="112.75" y="-199.2" font-family="Times,serif" font-size="14.00">OP_CREATE_MAILBOX</text>
<text xml:space="preserve" text-anchor="start" x="3" y="-177.95" font-family="Times,serif" font-size="14.00">delete&#45;mailbox</text>
<text xml:space="preserve" text-anchor="start" x="112.75" y="-177.95" font-family="Times,serif" font-size="14.00">OP_DELETE_MAILBOX</text>
<text xml:space="preserve" text-anchor="start" x="3" y="-160.5" font-family="Times,serif" font-size="10.00" fill="#303030">+20 more</text>
<polygon fill="#ffff80" stroke="none" points="1,-134 1,-155.25 302.25,-155.25 302.25,-134 1,-134"/>
<text xml:space="preserve" text-anchor="start" x="3" y="-140.95" font-family="Times,serif" font-weight="bold" font-size="12.00" fill="#000000">BrowserDefaultBindings[]</text>
<text xml:space="preserve" text-anchor="start" x="180.75" y="-140.95" font-family="Times,serif" font-size="14.00"> </text>
<text xml:space="preserve" text-anchor="start" x="46.5" y="-117.7" font-family="Times,serif" font-size="14.00">c</text>
<polygon fill="none" stroke="#d0d0d0" points="56,-110.75 56,-134 110.75,-134 110.75,-110.75 56,-110.75"/>
<text xml:space="preserve" text-anchor="start" x="77.38" y="-117.7" font-family="Times,serif" font-size="14.00">→</text>
<text xml:space="preserve" text-anchor="start" x="112.75" y="-117.7" font-family="Times,serif" font-size="14.00">change&#45;dir</text>
<text xml:space="preserve" text-anchor="start" x="43.5" y="-94.45" font-family="Times,serif" font-size="14.00">C</text>
<polygon fill="none" stroke="#d0d0d0" points="56,-87.5 56,-110.75 110.75,-110.75 110.75,-87.5 56,-87.5"/>
<text xml:space="preserve" text-anchor="start" x="77.38" y="-94.45" font-family="Times,serif" font-size="14.00">→</text>
<text xml:space="preserve" text-anchor="start" x="112.75" y="-94.45" font-family="Times,serif" font-size="14.00">create&#45;mailbox</text>
<text xml:space="preserve" text-anchor="start" x="45" y="-71.2" font-family="Times,serif" font-size="14.00">d</text>
<polygon fill="none" stroke="#d0d0d0" points="56,-64.25 56,-87.5 110.75,-87.5 110.75,-64.25 56,-64.25"/>
<text xml:space="preserve" text-anchor="start" x="77.38" y="-71.2" font-family="Times,serif" font-size="14.00">→</text>
<text xml:space="preserve" text-anchor="start" x="112.75" y="-71.2" font-family="Times,serif" font-size="14.00">delete&#45;mailbox</text>
<text xml:space="preserve" text-anchor="start" x="39.75" y="-47.95" font-family="Times,serif" font-size="14.00">@</text>
<polygon fill="none" stroke="#d0d0d0" points="56,-41 56,-64.25 110.75,-64.25 110.75,-41 56,-41"/>
<text xml:space="preserve" text-anchor="start" x="77.38" y="-47.95" font-family="Times,serif" font-size="14.00">→</text>
<text xml:space="preserve" text-anchor="start" x="112.75" y="-47.95" font-family="Times,serif" font-size="14.00">display&#45;filename</text>
<text xml:space="preserve" text-anchor="start" x="40.5" y="-24.7" font-family="Times,serif" font-size="14.00">m</text>
<polygon fill="none" stroke="#d0d0d0" points="56,-17.75 56,-41 110.75,-41 110.75,-17.75 56,-17.75"/>
<text xml:space="preserve" text-anchor="start" x="77.38" y="-24.7" font-family="Times,serif" font-size="14.00">→</text>
<text xml:space="preserve" text-anchor="start" x="112.75" y="-24.7" font-family="Times,serif" font-size="14.00">enter&#45;mask</text>
<text xml:space="preserve" text-anchor="start" x="3" y="-6.25" font-family="Times,serif" font-size="10.00" fill="#303030">+13 more</text>
<polygon fill="#d0d0d0" stroke="#d0d0d0" points="0,-299.5 0,-299.5 303.25,-299.5 303.25,-299.5 0,-299.5"/>
<polygon fill="#d0d0d0" stroke="#d0d0d0" points="0,-278.25 0,-278.25 303.25,-278.25 303.25,-278.25 0,-278.25"/>
<polygon fill="#d0d0d0" stroke="#d0d0d0" points="0,-257 0,-257 110.75,-257 110.75,-257 0,-257"/>
<polygon fill="#d0d0d0" stroke="#d0d0d0" points="110.75,-257 110.75,-257 303.25,-257 303.25,-257 110.75,-257"/>
<polygon fill="#d0d0d0" stroke="#d0d0d0" points="0,-235.75 0,-235.75 110.75,-235.75 110.75,-235.75 0,-235.75"/>
<polygon fill="#d0d0d0" stroke="#d0d0d0" points="110.75,-235.75 110.75,-235.75 303.25,-235.75 303.25,-235.75 110.75,-235.75"/>
<polygon fill="#d0d0d0" stroke="#d0d0d0" points="0,-214.5 0,-214.5 110.75,-214.5 110.75,-214.5 0,-214.5"/>
<polygon fill="#d0d0d0" stroke="#d0d0d0" points="110.75,-214.5 110.75,-214.5 303.25,-214.5 303.25,-214.5 110.75,-214.5"/>
<polygon fill="#d0d0d0" stroke="#d0d0d0" points="0,-193.25 0,-193.25 110.75,-193.25 110.75,-193.25 0,-193.25"/>
<polygon fill="#d0d0d0" stroke="#d0d0d0" points="110.75,-193.25 110.75,-193.25 303.25,-193.25 303.25,-193.25 110.75,-193.25"/>
<polygon fill="#d0d0d0" stroke="#d0d0d0" points="0,-172 0,-172 110.75,-172 110.75,-172 0,-172"/>
<polygon fill="#d0d0d0" stroke="#d0d0d0" points="110.75,-172 110.75,-172 303.25,-172 303.25,-172 110.75,-172"/>
<polygon fill="#d0d0d0" stroke="#d0d0d0" points="0,-155.25 0,-155.25 303.25,-155.25 303.25,-155.25 0,-155.25"/>
<polygon fill="#d0d0d0" stroke="#d0d0d0" points="0,-134 0,-134 303.25,-134 303.25,-134 0,-134"/>
<polygon fill="#d0d0d0" stroke="#d0d0d0" points="0,-110.75 0,-110.75 56,-110.75 56,-110.75 0,-110.75"/>
<polygon fill="#d0d0d0" stroke="#d0d0d0" points="56,-110.75 56,-110.75 110.75,-110.75 110.75,-110.75 56,-110.75"/>
<polygon fill="#d0d0d0" stroke="#d0d0d0" points="110.75,-110.75 110.75,-110.75 303.25,-110.75 303.25,-110.75 110.75,-110.75"/>
<polygon fill="#d0d0d0" stroke="#d0d0d0" points="0,-87.5 0,-87.5 56,-87.5 56,-87.5 0,-87.5"/>
<polygon fill="#d0d0d0" stroke="#d0d0d0" points="56,-87.5 56,-87.5 110.75,-87.5 110.75,-87.5 56,-87.5"/>
<polygon fill="#d0d0d0" stroke="#d0d0d0" points="110.75,-87.5 110.75,-87.5 303.25,-87.5 303.25,-87.5 110.75,-87.5"/>
<polygon fill="#d0d0d0" stroke="#d0d0d0" points="0,-64.25 0,-64.25 56,-64.25 56,-64.25 0,-64.25"/>
<polygon fill="#d0d0d0" stroke="#d0d0d0" points="56,-64.25 56,-64.25 110.75,-64.25 110.75,-64.25 56,-64.25"/>
<polygon fill="#d0d0d0" stroke="#d0d0d0" points="110.75,-64.25 110.75,-64.25 303.25,-64.25 303.25,-64.25 110.75,-64.25"/>
<polygon fill="#d0d0d0" stroke="#d0d0d0" points="0,-41 0,-41 56,-41 56,-41 0,-41"/>
<polygon fill="#d0d0d0" stroke="#d0d0d0" points="56,-41 56,-41 110.75,-41 110.75,-41 56,-41"/>
<polygon fill="#d0d0d0" stroke="#d0d0d0" points="110.75,-41 110.75,-41 303.25,-41 303.25,-41 110.75,-41"/>
<polygon fill="#d0d0d0" stroke="#d0d0d0" points="0,-17.75 0,-17.75 56,-17.75 56,-17.75 0,-17.75"/>
<polygon fill="#d0d0d0" stroke="#d0d0d0" points="56,-17.75 56,-17.75 110.75,-17.75 110.75,-17.75 56,-17.75"/>
<polygon fill="#d0d0d0" stroke="#d0d0d0" points="110.75,-17.75 110.75,-17.75 303.25,-17.75 303.25,-17.75 110.75,-17.75"/>
<polygon fill="none" stroke="#d0d0d0" points="0,0 0,-329.25 303.25,-329.25 303.25,0 0,0"/>
</g>
</g>
</svg>
