<?xml version="1.0" encoding="UTF-8" standalone="no"?>
<!DOCTYPE svg PUBLIC "-//W3C//DTD SVG 1.1//EN"
 "http://www.w3.org/Graphics/SVG/1.1/DTD/svg11.dtd">
<!-- Generated by graphviz version 13.1.2 (20250808.2320)
 -->
<!-- Title: keybindings Pages: 1 -->
<svg width="426pt" height="327pt"
 viewBox="0.00 0.00 426.00 327.00" xmlns="http://www.w3.org/2000/svg" xmlns:xlink="http://www.w3.org/1999/xlink">
<g id="graph0" class="graph" transform="scale(1 1) rotate(0) translate(4 323)">
<title>keybindings</title>
<polygon fill="white" stroke="none" points="-4,4 -4,-323 422,-323 422,4 -4,4"/>
<!-- sub_autocrypt -->
<g id="node1" class="node">
<title>sub_autocrypt</title>
<polygon fill="#ffff80" stroke="none" points="1,-289.25 1,-318 417,-318 417,-289.25 1,-289.25"/>
<text xml:space="preserve" text-anchor="start" x="3" y="-298" font-family="Times,serif" font-weight="bold" font-size="20.00" fill="#000000">SubMenu</text>
<text xml:space="preserve" text-anchor="start" x="109.5" y="-298" font-family="Times,serif" font-size="14.00"> </text>
<polygon fill="#ffff80" stroke="none" points="1,-268 1,-289.25 417,-289.25 417,-268 1,-268"/>
<text xml:space="preserve" text-anchor="start" x="3" y="-274.95" font-family="Times,serif" font-weight="bold" font-size="12.00" fill="#000000">OpAutocrypt[]</text>
<text xml:space="preserve" text-anchor="start" x="99" y="-274.95" font-family="Times,serif" font-size="14.00"> </text>
<text xml:space="preserve" text-anchor="start" x="3" y="-252.7" font-family="Times,serif" font-size="14.00">create&#45;account</text>
<text xml:space="preserve" text-anchor="start" x="160" y="-252.7" font-family="Times,serif" font-size="14.00">OP_AUTOCRYPT_CREATE_ACCT</text>
<text xml:space="preserve" text-anchor="start" x="3" y="-231.45" font-family="Times,serif" font-size="14.00">delete&#45;account</text>
<text xml:space="preserve" text-anchor="start" x="160" y="-231.45" font-family="Times,serif" font-size="14.00">OP_AUTOCRYPT_DELETE_ACCT</text>
<text xml:space="preserve" text-anchor="start" x="3" y="-210.2" font-family="Times,serif" font-size="14.00">exit</text>
<text xml:space="preserve" text-anchor="start" x="160" y="-210.2" font-family="Times,serif" font-size="14.00">OP_EXIT</text>
<text xml:space="preserve" text-anchor="start" x="3" y="-188.95" font-family="Times,serif" font-size="14.00">toggle&#45;active</text>
<text xml:space="preserve" text-anchor="start" x="160" y="-188.95" font-family="Times,serif" font-size="14.00">OP_AUTOCRYPT_TOGGLE_ACTIVE</text>
<text xml:space="preserve" text-anchor="start" x="3" y="-167.7" font-family="Times,serif" font-size="14.00">toggle&#45;prefer&#45;encrypt</text>
<text xml:space="preserve" text-anchor="start" x="160" y="-167.7" font-family="Times,serif" font-size="14.00">OP_AUTOCRYPT_TOGGLE_PREFER</text>
<polygon fill="#ffff80" stroke="none" points="1,-140.5 1,-161.75 417,-161.75 417,-140.5 1,-140.5"/>
<text xml:space="preserve" text-anchor="start" x="3" y="-147.45" font-family="Times,serif" font-weight="bold" font-size="12.00" fill="#000000">AutocryptDefaultBindings[]</text>
<text xml:space="preserve" text-anchor="start" x="190.5" y="-147.45" font-family="Times,serif" font-size="14.00"> </text>
<text xml:space="preserve" text-anchor="start" x="68.62" y="-124.2" font-family="Times,serif" font-size="14.00">c</text>
<polygon fill="none" stroke="#d0d0d0" points="78.12,-117.25 78.12,-140.5 158,-140.5 158,-117.25 78.12,-117.25"/>
<text xml:space="preserve" text-anchor="start" x="112.06" y="-124.2" font-family="Times,serif" font-size="14.00">→</text>
<text xml:space="preserve" text-anchor="start" x="160" y="-124.2" font-family="Times,serif" font-size="14.00">create&#45;account</text>
<text xml:space="preserve" text-anchor="start" x="64.88" y="-100.95" font-family="Times,serif" font-size="14.00">D</text>
<polygon fill="none" stroke="#d0d0d0" points="78.12,-94 78.12,-117.25 158,-117.25 158,-94 78.12,-94"/>
<text xml:space="preserve" text-anchor="start" x="112.06" y="-100.95" font-family="Times,serif" font-size="14.00">→</text>
<text xml:space="preserve" text-anchor="start" x="160" y="-100.95" font-family="Times,serif" font-size="14.00">delete&#45;account</text>
<text xml:space="preserve" text-anchor="start" x="67.12" y="-77.7" font-family="Times,serif" font-size="14.00">d</text>
<polygon fill="none" stroke="#d0d0d0" points="78.12,-70.75 78.12,-94 158,-94 158,-70.75 78.12,-70.75"/>
<text xml:space="preserve" text-anchor="start" x="112.06" y="-77.7" font-family="Times,serif" font-size="14.00">→</text>
<text xml:space="preserve" text-anchor="start" x="160" y="-77.7" font-family="Times,serif" font-size="14.00">delete&#45;mailbox</text>
<text xml:space="preserve" text-anchor="start" x="67.12" y="-54.45" font-family="Times,serif" font-size="14.00">q</text>
<polygon fill="none" stroke="#d0d0d0" points="78.12,-47.5 78.12,-70.75 158,-70.75 158,-47.5 78.12,-47.5"/>
<text xml:space="preserve" text-anchor="start" x="112.06" y="-54.45" font-family="Times,serif" font-size="14.00">→</text>
<text xml:space="preserve" text-anchor="start" x="160" y="-54.45" font-family="Times,serif" font-size="14.00">exit</text>
<text xml:space="preserve" text-anchor="start" x="67.88" y="-31.2" font-family="Times,serif" font-size="14.00">a</text>
<polygon fill="none" stroke="#d0d0d0" points="78.12,-24.25 78.12,-47.5 158,-47.5 158,-24.25 78.12,-24.25"/>
<text xml:space="preserve" text-anchor="start" x="112.06" y="-31.2" font-family="Times,serif" font-size="14.00">→</text>
<text xml:space="preserve" text-anchor="start" x="160" y="-31.2" font-family="Times,serif" font-size="14.00">toggle&#45;active</text>
<text xml:space="preserve" text-anchor="start" x="67.12" y="-7.95" font-family="Times,serif" font-size="14.00">p</text>
<polygon fill="none" stroke="#d0d0d0" points="78.12,-1 78.12,-24.25 158,-24.25 158,-1 78.12,-1"/>
<text xml:space="preserve" text-anchor="start" x="112.06" y="-7.95" font-family="Times,serif" font-size="14.00">→</text>
<text xml:space="preserve" text-anchor="start" x="160" y="-7.95" font-family="Times,serif" font-size="14.00">toggle&#45;prefer&#45;encrypt</text>
<polygon fill="#d0d0d0" stroke="#d0d0d0" points="0,-289.25 0,-289.25 418,-289.25 418,-289.25 0,-289.25"/>
<polygon fill="#d0d0d0" stroke="#d0d0d0" points="0,-268 0,-268 418,-268 418,-268 0,-268"/>
<polygon fill="#d0d0d0" stroke="#d0d0d0" points="0,-246.75 0,-246.75 158,-246.75 158,-246.75 0,-246.75"/>
<polygon fill="#d0d0d0" stroke="#d0d0d0" points="158,-246.75 158,-246.75 418,-246.75 418,-246.75 158,-246.75"/>
<polygon fill="#d0d0d0" stroke="#d0d0d0" points="0,-225.5 0,-225.5 158,-225.5 158,-225.5 0,-225.5"/>
<polygon fill="#d0d0d0" stroke="#d0d0d0" points="158,-225.5 158,-225.5 418,-225.5 418,-225.5 158,-225.5"/>
<polygon fill="#d0d0d0" stroke="#d0d0d0" points="0,-204.25 0,-204.25 158,-204.25 158,-204.25 0,-204.25"/>
<polygon fill="#d0d0d0" stroke="#d0d0d0" points="158,-204.25 158,-204.25 418,-204.25 418,-204.25 158,-204.25"/>
<polygon fill="#d0d0d0" stroke="#d0d0d0" points="0,-183 0,-183 158,-183 158,-183 0,-183"/>
<polygon fill="#d0d0d0" stroke="#d0d0d0" points="158,-183 158,-183 418,-183 418,-183 158,-183"/>
<polygon fill="#d0d0d0" stroke="#d0d0d0" points="0,-161.75 0,-161.75 158,-161.75 158,-161.75 0,-161.75"/>
<polygon fill="#d0d0d0" stroke="#d0d0d0" points="158,-161.75 158,-161.75 418,-161.75 418,-161.75 158,-161.75"/>
<polygon fill="#d0d0d0" stroke="#d0d0d0" points="0,-140.5 0,-140.5 418,-140.5 418,-140.5 0,-140.5"/>
<polygon fill="#d0d0d0" stroke="#d0d0d0" points="0,-117.25 0,-117.25 78.12,-117.25 78.12,-117.25 0,-117.25"/>
<polygon fill="#d0d0d0" stroke="#d0d0d0" points="78.12,-117.25 78.12,-117.25 158,-117.25 158,-117.25 78.12,-117.25"/>
<polygon fill="#d0d0d0" stroke="#d0d0d0" points="158,-117.25 158,-117.25 418,-117.25 418,-117.25 158,-117.25"/>
<polygon fill="#d0d0d0" stroke="#d0d0d0" points="0,-94 0,-94 78.12,-94 78.12,-94 0,-94"/>
<polygon fill="#d0d0d0" stroke="#d0d0d0" points="78.12,-94 78.12,-94 158,-94 158,-94 78.12,-94"/>
<polygon fill="#d0d0d0" stroke="#d0d0d0" points="158,-94 158,-94 418,-94 418,-94 158,-94"/>
<polygon fill="#d0d0d0" stroke="#d0d0d0" points="0,-70.75 0,-70.75 78.12,-70.75 78.12,-70.75 0,-70.75"/>
<polygon fill="#d0d0d0" stroke="#d0d0d0" points="78.12,-70.75 78.12,-70.75 158,-70.75 158,-70.75 78.12,-70.75"/>
<polygon fill="#d0d0d0" stroke="#d0d0d0" points="158,-70.75 158,-70.75 418,-70.75 418,-70.75 158,-70.75"/>
<polygon fill="#d0d0d0" stroke="#d0d0d0" points="0,-47.5 0,-47.5 78.12,-47.5 78.12,-47.5 0,-47.5"/>
<polygon fill="#d0d0d0" stroke="#d0d0d0" points="78.12,-47.5 78.12,-47.5 158,-47.5 158,-47.5 78.12,-47.5"/>
<polygon fill="#d0d0d0" stroke="#d0d0d0" points="158,-47.5 158,-47.5 418,-47.5 418,-47.5 158,-47.5"/>
<polygon fill="#d0d0d0" stroke="#d0d0d0" points="0,-24.25 0,-24.25 78.12,-24.25 78.12,-24.25 0,-24.25"/>
<polygon fill="#d0d0d0" stroke="#d0d0d0" points="78.12,-24.25 78.12,-24.25 158,-24.25 158,-24.25 78.12,-24.25"/>
<polygon fill="#d0d0d0" stroke="#d0d0d0" points="158,-24.25 158,-24.25 418,-24.25 418,-24.25 158,-24.25"/>
<polygon fill="none" stroke="#d0d0d0" points="0,0 0,-319 418,-319 418,0 0,0"/>
</g>
</g>
</svg>
