<?xml version="1.0" encoding="UTF-8" standalone="no"?>
<!DOCTYPE svg PUBLIC "-//W3C//DTD SVG 1.1//EN"
 "http://www.w3.org/Graphics/SVG/1.1/DTD/svg11.dtd">
<!-- Generated by graphviz version 13.1.2 (20250808.2320)
 -->
<!-- Title: keybindings Pages: 1 -->
<svg width="371pt" height="337pt"
 viewBox="0.00 0.00 371.00 337.00" xmlns="http://www.w3.org/2000/svg" xmlns:xlink="http://www.w3.org/1999/xlink">
<g id="graph0" class="graph" transform="scale(1 1) rotate(0) translate(4 333.25)">
<title>keybindings</title>
<polygon fill="white" stroke="none" points="-4,4 -4,-333.25 367.25,-333.25 367.25,4 -4,4"/>
<!-- sub_editor -->
<g id="node1" class="node">
<title>sub_editor</title>
<polygon fill="#ffff80" stroke="none" points="1,-299.5 1,-328.25 362.25,-328.25 362.25,-299.5 1,-299.5"/>
<text xml:space="preserve" text-anchor="start" x="3" y="-308.25" font-family="Times,serif" font-weight="bold" font-size="20.00" fill="#000000">SubMenu</text>
<text xml:space="preserve" text-anchor="start" x="109.5" y="-308.25" font-family="Times,serif" font-size="14.00"> </text>
<polygon fill="#ffff80" stroke="none" points="1,-278.25 1,-299.5 362.25,-299.5 362.25,-278.25 1,-278.25"/>
<text xml:space="preserve" text-anchor="start" x="3" y="-285.2" font-family="Times,serif" font-weight="bold" font-size="12.00" fill="#000000">OpEditor[]</text>
<text xml:space="preserve" text-anchor="start" x="75" y="-285.2" font-family="Times,serif" font-size="14.00"> </text>
<text xml:space="preserve" text-anchor="start" x="3" y="-262.95" font-family="Times,serif" font-size="14.00">backspace</text>
<text xml:space="preserve" text-anchor="start" x="126.25" y="-262.95" font-family="Times,serif" font-size="14.00">OP_EDITOR_BACKSPACE</text>
<text xml:space="preserve" text-anchor="start" x="3" y="-241.7" font-family="Times,serif" font-size="14.00">backward&#45;char</text>
<text xml:space="preserve" text-anchor="start" x="126.25" y="-241.7" font-family="Times,serif" font-size="14.00">OP_EDITOR_BACKWARD_CHAR</text>
<text xml:space="preserve" text-anchor="start" x="3" y="-220.45" font-family="Times,serif" font-size="14.00">backward&#45;word</text>
<text xml:space="preserve" text-anchor="start" x="126.25" y="-220.45" font-family="Times,serif" font-size="14.00">OP_EDITOR_BACKWARD_WORD</text>
<text xml:space="preserve" text-anchor="start" x="3" y="-199.2" font-family="Times,serif" font-size="14.00">bol</text>
<text xml:space="preserve" text-anchor="start" x="126.25" y="-199.2" font-family="Times,serif" font-size="14.00">OP_EDITOR_BOL</text>
<text xml:space="preserve" text-anchor="start" x="3" y="-177.95" font-family="Times,serif" font-size="14.00">capitalize&#45;word</text>
<text xml:space="preserve" text-anchor="start" x="126.25" y="-177.95" font-family="Times,serif" font-size="14.00">OP_EDITOR_CAPITALIZE_WORD</text>
<text xml:space="preserve" text-anchor="start" x="3" y="-160.5" font-family="Times,serif" font-size="10.00" fill="#303030">+21 more</text>
<polygon fill="#ffff80" stroke="none" points="1,-134 1,-155.25 362.25,-155.25 362.25,-134 1,-134"/>
<text xml:space="preserve" text-anchor="start" x="3" y="-140.95" font-family="Times,serif" font-weight="bold" font-size="12.00" fill="#000000">EditorDefaultBindings[]</text>
<text xml:space="preserve" text-anchor="start" x="166.5" y="-140.95" font-family="Times,serif" font-size="14.00"> </text>
<text xml:space="preserve" text-anchor="start" x="3" y="-117.7" font-family="Times,serif" font-size="14.00">&lt;BackSpace&gt;</text>
<polygon fill="none" stroke="#d0d0d0" points="106.25,-110.75 106.25,-134 124.25,-134 124.25,-110.75 106.25,-110.75"/>
<text xml:space="preserve" text-anchor="start" x="109.25" y="-117.7" font-family="Times,serif" font-size="14.00">→</text>
<text xml:space="preserve" text-anchor="start" x="126.25" y="-117.7" font-family="Times,serif" font-size="14.00">backspace</text>
<text xml:space="preserve" text-anchor="start" x="36" y="-94.45" font-family="Times,serif" font-size="14.00">&lt;Ctrl&#45;H&gt;</text>
<polygon fill="none" stroke="#d0d0d0" points="106.25,-87.5 106.25,-110.75 124.25,-110.75 124.25,-87.5 106.25,-87.5"/>
<text xml:space="preserve" text-anchor="start" x="109.25" y="-94.45" font-family="Times,serif" font-size="14.00">→</text>
<text xml:space="preserve" text-anchor="start" x="126.25" y="-94.45" font-family="Times,serif" font-size="14.00">backspace</text>
<text xml:space="preserve" text-anchor="start" x="37.5" y="-71.2" font-family="Times,serif" font-size="14.00">&lt;Ctrl&#45;B&gt;</text>
<polygon fill="none" stroke="#d0d0d0" points="106.25,-64.25 106.25,-87.5 124.25,-87.5 124.25,-64.25 106.25,-64.25"/>
<text xml:space="preserve" text-anchor="start" x="109.25" y="-71.2" font-family="Times,serif" font-size="14.00">→</text>
<text xml:space="preserve" text-anchor="start" x="126.25" y="-71.2" font-family="Times,serif" font-size="14.00">backward&#45;char</text>
<text xml:space="preserve" text-anchor="start" x="51.75" y="-47.95" font-family="Times,serif" font-size="14.00">&lt;Left&gt;</text>
<polygon fill="none" stroke="#d0d0d0" points="106.25,-41 106.25,-64.25 124.25,-64.25 124.25,-41 106.25,-41"/>
<text xml:space="preserve" text-anchor="start" x="109.25" y="-47.95" font-family="Times,serif" font-size="14.00">→</text>
<text xml:space="preserve" text-anchor="start" x="126.25" y="-47.95" font-family="Times,serif" font-size="14.00">backward&#45;char</text>
<text xml:space="preserve" text-anchor="start" x="46.5" y="-24.7" font-family="Times,serif" font-size="14.00">&lt;Alt&#45;b&gt;</text>
<polygon fill="none" stroke="#d0d0d0" points="106.25,-17.75 106.25,-41 124.25,-41 124.25,-17.75 106.25,-17.75"/>
<text xml:space="preserve" text-anchor="start" x="109.25" y="-24.7" font-family="Times,serif" font-size="14.00">→</text>
<text xml:space="preserve" text-anchor="start" x="126.25" y="-24.7" font-family="Times,serif" font-size="14.00">backward&#45;word</text>
<text xml:space="preserve" text-anchor="start" x="3" y="-6.25" font-family="Times,serif" font-size="10.00" fill="#303030">+27 more</text>
<polygon fill="#d0d0d0" stroke="#d0d0d0" points="0,-299.5 0,-299.5 363.25,-299.5 363.25,-299.5 0,-299.5"/>
<polygon fill="#d0d0d0" stroke="#d0d0d0" points="0,-278.25 0,-278.25 363.25,-278.25 363.25,-278.25 0,-278.25"/>
<polygon fill="#d0d0d0" stroke="#d0d0d0" points="0,-257 0,-257 124.25,-257 124.25,-257 0,-257"/>
<polygon fill="#d0d0d0" stroke="#d0d0d0" points="124.25,-257 124.25,-257 363.25,-257 363.25,-257 124.25,-257"/>
<polygon fill="#d0d0d0" stroke="#d0d0d0" points="0,-235.75 0,-235.75 124.25,-235.75 124.25,-235.75 0,-235.75"/>
<polygon fill="#d0d0d0" stroke="#d0d0d0" points="124.25,-235.75 124.25,-235.75 363.25,-235.75 363.25,-235.75 124.25,-235.75"/>
<polygon fill="#d0d0d0" stroke="#d0d0d0" points="0,-214.5 0,-214.5 124.25,-214.5 124.25,-214.5 0,-214.5"/>
<polygon fill="#d0d0d0" stroke="#d0d0d0" points="124.25,-214.5 124.25,-214.5 363.25,-214.5 363.25,-214.5 124.25,-214.5"/>
<polygon fill="#d0d0d0" stroke="#d0d0d0" points="0,-193.25 0,-193.25 124.25,-193.25 124.25,-193.25 0,-193.25"/>
<polygon fill="#d0d0d0" stroke="#d0d0d0" points="124.25,-193.25 124.25,-193.25 363.25,-193.25 363.25,-193.25 124.25,-193.25"/>
<polygon fill="#d0d0d0" stroke="#d0d0d0" points="0,-172 0,-172 124.25,-172 124.25,-172 0,-172"/>
<polygon fill="#d0d0d0" stroke="#d0d0d0" points="124.25,-172 124.25,-172 363.25,-172 363.25,-172 124.25,-172"/>
<polygon fill="#d0d0d0" stroke="#d0d0d0" points="0,-155.25 0,-155.25 363.25,-155.25 363.25,-155.25 0,-155.25"/>
<polygon fill="#d0d0d0" stroke="#d0d0d0" points="0,-134 0,-134 363.25,-134 363.25,-134 0,-134"/>
<polygon fill="#d0d0d0" stroke="#d0d0d0" points="0,-110.75 0,-110.75 106.25,-110.75 106.25,-110.75 0,-110.75"/>
<polygon fill="#d0d0d0" stroke="#d0d0d0" points="106.25,-110.75 106.25,-110.75 124.25,-110.75 124.25,-110.75 106.25,-110.75"/>
<polygon fill="#d0d0d0" stroke="#d0d0d0" points="124.25,-110.75 124.25,-110.75 363.25,-110.75 363.25,-110.75 124.25,-110.75"/>
<polygon fill="#d0d0d0" stroke="#d0d0d0" points="0,-87.5 0,-87.5 106.25,-87.5 106.25,-87.5 0,-87.5"/>
<polygon fill="#d0d0d0" stroke="#d0d0d0" points="106.25,-87.5 106.25,-87.5 124.25,-87.5 124.25,-87.5 106.25,-87.5"/>
<polygon fill="#d0d0d0" stroke="#d0d0d0" points="124.25,-87.5 124.25,-87.5 363.25,-87.5 363.25,-87.5 124.25,-87.5"/>
<polygon fill="#d0d0d0" stroke="#d0d0d0" points="0,-64.25 0,-64.25 106.25,-64.25 106.25,-64.25 0,-64.25"/>
<polygon fill="#d0d0d0" stroke="#d0d0d0" points="106.25,-64.25 106.25,-64.25 124.25,-64.25 124.25,-64.25 106.25,-64.25"/>
<polygon fill="#d0d0d0" stroke="#d0d0d0" points="124.25,-64.25 124.25,-64.25 363.25,-64.25 363.25,-64.25 124.25,-64.25"/>
<polygon fill="#d0d0d0" stroke="#d0d0d0" points="0,-41 0,-41 106.25,-41 106.25,-41 0,-41"/>
<polygon fill="#d0d0d0" stroke="#d0d0d0" points="106.25,-41 106.25,-41 124.25,-41 124.25,-41 106.25,-41"/>
<polygon fill="#d0d0d0" stroke="#d0d0d0" points="124.25,-41 124.25,-41 363.25,-41 363.25,-41 124.25,-41"/>
<polygon fill="#d0d0d0" stroke="#d0d0d0" points="0,-17.75 0,-17.75 106.25,-17.75 106.25,-17.75 0,-17.75"/>
<polygon fill="#d0d0d0" stroke="#d0d0d0" points="106.25,-17.75 106.25,-17.75 124.25,-17.75 124.25,-17.75 106.25,-17.75"/>
<polygon fill="#d0d0d0" stroke="#d0d0d0" points="124.25,-17.75 124.25,-17.75 363.25,-17.75 363.25,-17.75 124.25,-17.75"/>
<polygon fill="none" stroke="#d0d0d0" points="0,0 0,-329.25 363.25,-329.25 363.25,0 0,0"/>
</g>
</g>
</svg>
