<?xml version="1.0" encoding="UTF-8" standalone="no"?>
<!DOCTYPE svg PUBLIC "-//W3C//DTD SVG 1.1//EN"
 "http://www.w3.org/Graphics/SVG/1.1/DTD/svg11.dtd">
<!-- Generated by graphviz version 13.1.2 (20250808.2320)
 -->
<!-- Title: keybindings Pages: 1 -->
<svg width="505pt" height="337pt"
 viewBox="0.00 0.00 505.00 337.00" xmlns="http://www.w3.org/2000/svg" xmlns:xlink="http://www.w3.org/1999/xlink">
<g id="graph0" class="graph" transform="scale(1 1) rotate(0) translate(4 333.25)">
<title>keybindings</title>
<polygon fill="white" stroke="none" points="-4,4 -4,-333.25 500.75,-333.25 500.75,4 -4,4"/>
<!-- sub_compose -->
<g id="node1" class="node">
<title>sub_compose</title>
<polygon fill="#ffff80" stroke="none" points="1,-299.5 1,-328.25 495.75,-328.25 495.75,-299.5 1,-299.5"/>
<text xml:space="preserve" text-anchor="start" x="3" y="-308.25" font-family="Times,serif" font-weight="bold" font-size="20.00" fill="#000000">SubMenu</text>
<text xml:space="preserve" text-anchor="start" x="109.5" y="-308.25" font-family="Times,serif" font-size="14.00"> </text>
<polygon fill="#ffff80" stroke="none" points="1,-278.25 1,-299.5 495.75,-299.5 495.75,-278.25 1,-278.25"/>
<text xml:space="preserve" text-anchor="start" x="3" y="-285.2" font-family="Times,serif" font-weight="bold" font-size="12.00" fill="#000000">OpCompose[]</text>
<text xml:space="preserve" text-anchor="start" x="95.25" y="-285.2" font-family="Times,serif" font-size="14.00"> </text>
<text xml:space="preserve" text-anchor="start" x="3" y="-262.95" font-family="Times,serif" font-size="14.00">attach&#45;file</text>
<text xml:space="preserve" text-anchor="start" x="160" y="-262.95" font-family="Times,serif" font-size="14.00">OP_ATTACHMENT_ATTACH_FILE</text>
<text xml:space="preserve" text-anchor="start" x="3" y="-241.7" font-family="Times,serif" font-size="14.00">attach&#45;key</text>
<text xml:space="preserve" text-anchor="start" x="160" y="-241.7" font-family="Times,serif" font-size="14.00">OP_ATTACHMENT_ATTACH_KEY</text>
<text xml:space="preserve" text-anchor="start" x="3" y="-220.45" font-family="Times,serif" font-size="14.00">attach&#45;message</text>
<text xml:space="preserve" text-anchor="start" x="160" y="-220.45" font-family="Times,serif" font-size="14.00">OP_ATTACHMENT_ATTACH_MESSAGE</text>
<text xml:space="preserve" text-anchor="start" x="3" y="-199.2" font-family="Times,serif" font-size="14.00">attach&#45;news&#45;message</text>
<text xml:space="preserve" text-anchor="start" x="160" y="-199.2" font-family="Times,serif" font-size="14.00">OP_ATTACHMENT_ATTACH_NEWS_MESSAGE</text>
<text xml:space="preserve" text-anchor="start" x="3" y="-177.95" font-family="Times,serif" font-size="14.00">autocrypt&#45;menu</text>
<text xml:space="preserve" text-anchor="start" x="160" y="-177.95" font-family="Times,serif" font-size="14.00">OP_COMPOSE_AUTOCRYPT_MENU</text>
<text xml:space="preserve" text-anchor="start" x="3" y="-160.5" font-family="Times,serif" font-size="10.00" fill="#303030">+54 more</text>
<polygon fill="#ffff80" stroke="none" points="1,-134 1,-155.25 495.75,-155.25 495.75,-134 1,-134"/>
<text xml:space="preserve" text-anchor="start" x="3" y="-140.95" font-family="Times,serif" font-weight="bold" font-size="12.00" fill="#000000">ComposeDefaultBindings[]</text>
<text xml:space="preserve" text-anchor="start" x="186.75" y="-140.95" font-family="Times,serif" font-size="14.00"> </text>
<text xml:space="preserve" text-anchor="start" x="90.75" y="-117.7" font-family="Times,serif" font-size="14.00">a</text>
<polygon fill="none" stroke="#d0d0d0" points="101,-110.75 101,-134 158,-134 158,-110.75 101,-110.75"/>
<text xml:space="preserve" text-anchor="start" x="123.5" y="-117.7" font-family="Times,serif" font-size="14.00">→</text>
<text xml:space="preserve" text-anchor="start" x="160" y="-117.7" font-family="Times,serif" font-size="14.00">attach&#45;file</text>
<text xml:space="preserve" text-anchor="start" x="42" y="-94.45" font-family="Times,serif" font-size="14.00">&lt;Alt&#45;k&gt;</text>
<polygon fill="none" stroke="#d0d0d0" points="101,-87.5 101,-110.75 158,-110.75 158,-87.5 101,-87.5"/>
<text xml:space="preserve" text-anchor="start" x="123.5" y="-94.45" font-family="Times,serif" font-size="14.00">→</text>
<text xml:space="preserve" text-anchor="start" x="160" y="-94.45" font-family="Times,serif" font-size="14.00">attach&#45;key</text>
<text xml:space="preserve" text-anchor="start" x="89.25" y="-71.2" font-family="Times,serif" font-size="14.00">A</text>
<polygon fill="none" stroke="#d0d0d0" points="101,-64.25 101,-87.5 158,-87.5 158,-64.25 101,-64.25"/>
<text xml:space="preserve" text-anchor="start" x="123.5" y="-71.2" font-family="Times,serif" font-size="14.00">→</text>
<text xml:space="preserve" text-anchor="start" x="160" y="-71.2" font-family="Times,serif" font-size="14.00">attach&#45;message</text>
<text xml:space="preserve" text-anchor="start" x="90.75" y="-47.95" font-family="Times,serif" font-size="14.00">o</text>
<polygon fill="none" stroke="#d0d0d0" points="101,-41 101,-64.25 158,-64.25 158,-41 101,-41"/>
<text xml:space="preserve" text-anchor="start" x="123.5" y="-47.95" font-family="Times,serif" font-size="14.00">→</text>
<text xml:space="preserve" text-anchor="start" x="160" y="-47.95" font-family="Times,serif" font-size="14.00">autocrypt&#45;menu</text>
<text xml:space="preserve" text-anchor="start" x="88.5" y="-24.7" font-family="Times,serif" font-size="14.00">C</text>
<polygon fill="none" stroke="#d0d0d0" points="101,-17.75 101,-41 158,-41 158,-17.75 101,-17.75"/>
<text xml:space="preserve" text-anchor="start" x="123.5" y="-24.7" font-family="Times,serif" font-size="14.00">→</text>
<text xml:space="preserve" text-anchor="start" x="160" y="-24.7" font-family="Times,serif" font-size="14.00">copy&#45;file</text>
<text xml:space="preserve" text-anchor="start" x="3" y="-6.25" font-family="Times,serif" font-size="10.00" fill="#303030">+48 more</text>
<polygon fill="#d0d0d0" stroke="#d0d0d0" points="0,-299.5 0,-299.5 496.75,-299.5 496.75,-299.5 0,-299.5"/>
<polygon fill="#d0d0d0" stroke="#d0d0d0" points="0,-278.25 0,-278.25 496.75,-278.25 496.75,-278.25 0,-278.25"/>
<polygon fill="#d0d0d0" stroke="#d0d0d0" points="0,-257 0,-257 158,-257 158,-257 0,-257"/>
<polygon fill="#d0d0d0" stroke="#d0d0d0" points="158,-257 158,-257 496.75,-257 496.75,-257 158,-257"/>
<polygon fill="#d0d0d0" stroke="#d0d0d0" points="0,-235.75 0,-235.75 158,-235.75 158,-235.75 0,-235.75"/>
<polygon fill="#d0d0d0" stroke="#d0d0d0" points="158,-235.75 158,-235.75 496.75,-235.75 496.75,-235.75 158,-235.75"/>
<polygon fill="#d0d0d0" stroke="#d0d0d0" points="0,-214.5 0,-214.5 158,-214.5 158,-214.5 0,-214.5"/>
<polygon fill="#d0d0d0" stroke="#d0d0d0" points="158,-214.5 158,-214.5 496.75,-214.5 496.75,-214.5 158,-214.5"/>
<polygon fill="#d0d0d0" stroke="#d0d0d0" points="0,-193.25 0,-193.25 158,-193.25 158,-193.25 0,-193.25"/>
<polygon fill="#d0d0d0" stroke="#d0d0d0" points="158,-193.25 158,-193.25 496.75,-193.25 496.75,-193.25 158,-193.25"/>
<polygon fill="#d0d0d0" stroke="#d0d0d0" points="0,-172 0,-172 158,-172 158,-172 0,-172"/>
<polygon fill="#d0d0d0" stroke="#d0d0d0" points="158,-172 158,-172 496.75,-172 496.75,-172 158,-172"/>
<polygon fill="#d0d0d0" stroke="#d0d0d0" points="0,-155.25 0,-155.25 496.75,-155.25 496.75,-155.25 0,-155.25"/>
<polygon fill="#d0d0d0" stroke="#d0d0d0" points="0,-134 0,-134 496.75,-134 496.75,-134 0,-134"/>
<polygon fill="#d0d0d0" stroke="#d0d0d0" points="0,-110.75 0,-110.75 101,-110.75 101,-110.75 0,-110.75"/>
<polygon fill="#d0d0d0" stroke="#d0d0d0" points="101,-110.75 101,-110.75 158,-110.75 158,-110.75 101,-110.75"/>
<polygon fill="#d0d0d0" stroke="#d0d0d0" points="158,-110.75 158,-110.75 496.75,-110.75 496.75,-110.75 158,-110.75"/>
<polygon fill="#d0d0d0" stroke="#d0d0d0" points="0,-87.5 0,-87.5 101,-87.5 101,-87.5 0,-87.5"/>
<polygon fill="#d0d0d0" stroke="#d0d0d0" points="101,-87.5 101,-87.5 158,-87.5 158,-87.5 101,-87.5"/>
<polygon fill="#d0d0d0" stroke="#d0d0d0" points="158,-87.5 158,-87.5 496.75,-87.5 496.75,-87.5 158,-87.5"/>
<polygon fill="#d0d0d0" stroke="#d0d0d0" points="0,-64.25 0,-64.25 101,-64.25 101,-64.25 0,-64.25"/>
<polygon fill="#d0d0d0" stroke="#d0d0d0" points="101,-64.25 101,-64.25 158,-64.25 158,-64.25 101,-64.25"/>
<polygon fill="#d0d0d0" stroke="#d0d0d0" points="158,-64.25 158,-64.25 496.75,-64.25 496.75,-64.25 158,-64.25"/>
<polygon fill="#d0d0d0" stroke="#d0d0d0" points="0,-41 0,-41 101,-41 101,-41 0,-41"/>
<polygon fill="#d0d0d0" stroke="#d0d0d0" points="101,-41 101,-41 158,-41 158,-41 101,-41"/>
<polygon fill="#d0d0d0" stroke="#d0d0d0" points="158,-41 158,-41 496.75,-41 496.75,-41 158,-41"/>
<polygon fill="#d0d0d0" stroke="#d0d0d0" points="0,-17.75 0,-17.75 101,-17.75 101,-17.75 0,-17.75"/>
<polygon fill="#d0d0d0" stroke="#d0d0d0" points="101,-17.75 101,-17.75 158,-17.75 158,-17.75 101,-17.75"/>
<polygon fill="#d0d0d0" stroke="#d0d0d0" points="158,-17.75 158,-17.75 496.75,-17.75 496.75,-17.75 158,-17.75"/>
<polygon fill="none" stroke="#d0d0d0" points="0,0 0,-329.25 496.75,-329.25 496.75,0 0,0"/>
</g>
</g>
</svg>
