<?xml version="1.0" encoding="UTF-8" standalone="no"?>
<!DOCTYPE svg PUBLIC "-//W3C//DTD SVG 1.1//EN"
 "http://www.w3.org/Graphics/SVG/1.1/DTD/svg11.dtd">
<!-- Generated by graphviz version 13.1.2 (20250808.2320)
 -->
<!-- Title: keybindings Pages: 1 -->
<svg width="385pt" height="337pt"
 viewBox="0.00 0.00 385.00 337.00" xmlns="http://www.w3.org/2000/svg" xmlns:xlink="http://www.w3.org/1999/xlink">
<g id="graph0" class="graph" transform="scale(1 1) rotate(0) translate(4 333.25)">
<title>keybindings</title>
<polygon fill="white" stroke="none" points="-4,4 -4,-333.25 380.75,-333.25 380.75,4 -4,4"/>
<!-- sub_index -->
<g id="node1" class="node">
<title>sub_index</title>
<polygon fill="#ffff80" stroke="none" points="1,-299.5 1,-328.25 375.75,-328.25 375.75,-299.5 1,-299.5"/>
<text xml:space="preserve" text-anchor="start" x="3" y="-308.25" font-family="Times,serif" font-weight="bold" font-size="20.00" fill="#000000">SubMenu</text>
<text xml:space="preserve" text-anchor="start" x="109.5" y="-308.25" font-family="Times,serif" font-size="14.00"> </text>
<polygon fill="#ffff80" stroke="none" points="1,-278.25 1,-299.5 375.75,-299.5 375.75,-278.25 1,-278.25"/>
<text xml:space="preserve" text-anchor="start" x="3" y="-285.2" font-family="Times,serif" font-weight="bold" font-size="12.00" fill="#000000">OpIndex[]</text>
<text xml:space="preserve" text-anchor="start" x="71.25" y="-285.2" font-family="Times,serif" font-size="14.00"> </text>
<text xml:space="preserve" text-anchor="start" x="3" y="-262.95" font-family="Times,serif" font-size="14.00">alias&#45;dialog</text>
<text xml:space="preserve" text-anchor="start" x="154" y="-262.95" font-family="Times,serif" font-size="14.00">OP_ALIAS_DIALOG</text>
<text xml:space="preserve" text-anchor="start" x="3" y="-241.7" font-family="Times,serif" font-size="14.00">autocrypt&#45;acct&#45;menu</text>
<text xml:space="preserve" text-anchor="start" x="154" y="-241.7" font-family="Times,serif" font-size="14.00">OP_AUTOCRYPT_ACCT_MENU</text>
<text xml:space="preserve" text-anchor="start" x="3" y="-220.45" font-family="Times,serif" font-size="14.00">bounce&#45;message</text>
<text xml:space="preserve" text-anchor="start" x="154" y="-220.45" font-family="Times,serif" font-size="14.00">OP_BOUNCE_MESSAGE</text>
<text xml:space="preserve" text-anchor="start" x="3" y="-199.2" font-family="Times,serif" font-size="14.00">break&#45;thread</text>
<text xml:space="preserve" text-anchor="start" x="154" y="-199.2" font-family="Times,serif" font-size="14.00">OP_MAIN_BREAK_THREAD</text>
<text xml:space="preserve" text-anchor="start" x="3" y="-177.95" font-family="Times,serif" font-size="14.00">catchup</text>
<text xml:space="preserve" text-anchor="start" x="154" y="-177.95" font-family="Times,serif" font-size="14.00">OP_CATCHUP</text>
<text xml:space="preserve" text-anchor="start" x="3" y="-160.5" font-family="Times,serif" font-size="10.00" fill="#303030">+112 more</text>
<polygon fill="#ffff80" stroke="none" points="1,-134 1,-155.25 375.75,-155.25 375.75,-134 1,-134"/>
<text xml:space="preserve" text-anchor="start" x="3" y="-140.95" font-family="Times,serif" font-weight="bold" font-size="12.00" fill="#000000">IndexDefaultBindings[]</text>
<text xml:space="preserve" text-anchor="start" x="162.75" y="-140.95" font-family="Times,serif" font-size="14.00"> </text>
<text xml:space="preserve" text-anchor="start" x="85.88" y="-117.7" font-family="Times,serif" font-size="14.00">A</text>
<polygon fill="none" stroke="#d0d0d0" points="97.62,-110.75 97.62,-134 152,-134 152,-110.75 97.62,-110.75"/>
<text xml:space="preserve" text-anchor="start" x="118.81" y="-117.7" font-family="Times,serif" font-size="14.00">→</text>
<text xml:space="preserve" text-anchor="start" x="154" y="-117.7" font-family="Times,serif" font-size="14.00">autocrypt&#45;acct&#45;menu</text>
<text xml:space="preserve" text-anchor="start" x="86.62" y="-94.45" font-family="Times,serif" font-size="14.00">b</text>
<polygon fill="none" stroke="#d0d0d0" points="97.62,-87.5 97.62,-110.75 152,-110.75 152,-87.5 97.62,-87.5"/>
<text xml:space="preserve" text-anchor="start" x="118.81" y="-94.45" font-family="Times,serif" font-size="14.00">→</text>
<text xml:space="preserve" text-anchor="start" x="154" y="-94.45" font-family="Times,serif" font-size="14.00">bounce&#45;message</text>
<text xml:space="preserve" text-anchor="start" x="83.62" y="-71.2" font-family="Times,serif" font-size="14.00">#</text>
<polygon fill="none" stroke="#d0d0d0" points="97.62,-64.25 97.62,-87.5 152,-87.5 152,-64.25 97.62,-64.25"/>
<text xml:space="preserve" text-anchor="start" x="118.81" y="-71.2" font-family="Times,serif" font-size="14.00">→</text>
<text xml:space="preserve" text-anchor="start" x="154" y="-71.2" font-family="Times,serif" font-size="14.00">break&#45;thread</text>
<text xml:space="preserve" text-anchor="start" x="88.12" y="-47.95" font-family="Times,serif" font-size="14.00">c</text>
<polygon fill="none" stroke="#d0d0d0" points="97.62,-41 97.62,-64.25 152,-64.25 152,-41 97.62,-41"/>
<text xml:space="preserve" text-anchor="start" x="118.81" y="-47.95" font-family="Times,serif" font-size="14.00">→</text>
<text xml:space="preserve" text-anchor="start" x="154" y="-47.95" font-family="Times,serif" font-size="14.00">change&#45;folder</text>
<text xml:space="preserve" text-anchor="start" x="39.38" y="-24.7" font-family="Times,serif" font-size="14.00">&lt;Alt&#45;c&gt;</text>
<polygon fill="none" stroke="#d0d0d0" points="97.62,-17.75 97.62,-41 152,-41 152,-17.75 97.62,-17.75"/>
<text xml:space="preserve" text-anchor="start" x="118.81" y="-24.7" font-family="Times,serif" font-size="14.00">→</text>
<text xml:space="preserve" text-anchor="start" x="154" y="-24.7" font-family="Times,serif" font-size="14.00">change&#45;folder&#45;readonly</text>
<text xml:space="preserve" text-anchor="start" x="3" y="-6.25" font-family="Times,serif" font-size="10.00" fill="#303030">+76 more</text>
<polygon fill="#d0d0d0" stroke="#d0d0d0" points="0,-299.5 0,-299.5 376.75,-299.5 376.75,-299.5 0,-299.5"/>
<polygon fill="#d0d0d0" stroke="#d0d0d0" points="0,-278.25 0,-278.25 376.75,-278.25 376.75,-278.25 0,-278.25"/>
<polygon fill="#d0d0d0" stroke="#d0d0d0" points="0,-257 0,-257 152,-257 152,-257 0,-257"/>
<polygon fill="#d0d0d0" stroke="#d0d0d0" points="152,-257 152,-257 376.75,-257 376.75,-257 152,-257"/>
<polygon fill="#d0d0d0" stroke="#d0d0d0" points="0,-235.75 0,-235.75 152,-235.75 152,-235.75 0,-235.75"/>
<polygon fill="#d0d0d0" stroke="#d0d0d0" points="152,-235.75 152,-235.75 376.75,-235.75 376.75,-235.75 152,-235.75"/>
<polygon fill="#d0d0d0" stroke="#d0d0d0" points="0,-214.5 0,-214.5 152,-214.5 152,-214.5 0,-214.5"/>
<polygon fill="#d0d0d0" stroke="#d0d0d0" points="152,-214.5 152,-214.5 376.75,-214.5 376.75,-214.5 152,-214.5"/>
<polygon fill="#d0d0d0" stroke="#d0d0d0" points="0,-193.25 0,-193.25 152,-193.25 152,-193.25 0,-193.25"/>
<polygon fill="#d0d0d0" stroke="#d0d0d0" points="152,-193.25 152,-193.25 376.75,-193.25 376.75,-193.25 152,-193.25"/>
<polygon fill="#d0d0d0" stroke="#d0d0d0" points="0,-172 0,-172 152,-172 152,-172 0,-172"/>
<polygon fill="#d0d0d0" stroke="#d0d0d0" points="152,-172 152,-172 376.75,-172 376.75,-172 152,-172"/>
<polygon fill="#d0d0d0" stroke="#d0d0d0" points="0,-155.25 0,-155.25 376.75,-155.25 376.75,-155.25 0,-155.25"/>
<polygon fill="#d0d0d0" stroke="#d0d0d0" points="0,-134 0,-134 376.75,-134 376.75,-134 0,-134"/>
<polygon fill="#d0d0d0" stroke="#d0d0d0" points="0,-110.75 0,-110.75 97.62,-110.75 97.62,-110.75 0,-110.75"/>
<polygon fill="#d0d0d0" stroke="#d0d0d0" points="97.62,-110.75 97.62,-110.75 152,-110.75 152,-110.75 97.62,-110.75"/>
<polygon fill="#d0d0d0" stroke="#d0d0d0" points="152,-110.75 152,-110.75 376.75,-110.75 376.75,-110.75 152,-110.75"/>
<polygon fill="#d0d0d0" stroke="#d0d0d0" points="0,-87.5 0,-87.5 97.62,-87.5 97.62,-87.5 0,-87.5"/>
<polygon fill="#d0d0d0" stroke="#d0d0d0" points="97.62,-87.5 97.62,-87.5 152,-87.5 152,-87.5 97.62,-87.5"/>
<polygon fill="#d0d0d0" stroke="#d0d0d0" points="152,-87.5 152,-87.5 376.75,-87.5 376.75,-87.5 152,-87.5"/>
<polygon fill="#d0d0d0" stroke="#d0d0d0" points="0,-64.25 0,-64.25 97.62,-64.25 97.62,-64.25 0,-64.25"/>
<polygon fill="#d0d0d0" stroke="#d0d0d0" points="97.62,-64.25 97.62,-64.25 152,-64.25 152,-64.25 97.62,-64.25"/>
<polygon fill="#d0d0d0" stroke="#d0d0d0" points="152,-64.25 152,-64.25 376.75,-64.25 376.75,-64.25 152,-64.25"/>
<polygon fill="#d0d0d0" stroke="#d0d0d0" points="0,-41 0,-41 97.62,-41 97.62,-41 0,-41"/>
<polygon fill="#d0d0d0" stroke="#d0d0d0" points="97.62,-41 97.62,-41 152,-41 152,-41 97.62,-41"/>
<polygon fill="#d0d0d0" stroke="#d0d0d0" points="152,-41 152,-41 376.75,-41 376.75,-41 152,-41"/>
<polygon fill="#d0d0d0" stroke="#d0d0d0" points="0,-17.75 0,-17.75 97.62,-17.75 97.62,-17.75 0,-17.75"/>
<polygon fill="#d0d0d0" stroke="#d0d0d0" points="97.62,-17.75 97.62,-17.75 152,-17.75 152,-17.75 97.62,-17.75"/>
<polygon fill="#d0d0d0" stroke="#d0d0d0" points="152,-17.75 152,-17.75 376.75,-17.75 376.75,-17.75 152,-17.75"/>
<polygon fill="none" stroke="#d0d0d0" points="0,0 0,-329.25 376.75,-329.25 376.75,0 0,0"/>
</g>
</g>
</svg>
