<?xml version="1.0" encoding="UTF-8" standalone="no"?>
<!DOCTYPE svg PUBLIC "-//W3C//DTD SVG 1.1//EN"
 "http://www.w3.org/Graphics/SVG/1.1/DTD/svg11.dtd">
<!-- Generated by graphviz version 13.1.2 (20250808.2320)
 -->
<!-- Title: keybindings Pages: 1 -->
<svg width="214pt" height="215pt"
 viewBox="0.00 0.00 214.00 215.00" xmlns="http://www.w3.org/2000/svg" xmlns:xlink="http://www.w3.org/1999/xlink">
<g id="graph0" class="graph" transform="scale(1 1) rotate(0) translate(4 210.75)">
<title>keybindings</title>
<polygon fill="white" stroke="none" points="-4,4 -4,-210.75 209.75,-210.75 209.75,4 -4,4"/>
<!-- sub_smime -->
<g id="node1" class="node">
<title>sub_smime</title>
<polygon fill="#ffff80" stroke="none" points="1,-177 1,-205.75 204.75,-205.75 204.75,-177 1,-177"/>
<text xml:space="preserve" text-anchor="start" x="3" y="-185.75" font-family="Times,serif" font-weight="bold" font-size="20.00" fill="#000000">SubMenu</text>
<text xml:space="preserve" text-anchor="start" x="109.5" y="-185.75" font-family="Times,serif" font-size="14.00"> </text>
<polygon fill="#ffff80" stroke="none" points="1,-155.75 1,-177 204.75,-177 204.75,-155.75 1,-155.75"/>
<text xml:space="preserve" text-anchor="start" x="3" y="-162.7" font-family="Times,serif" font-weight="bold" font-size="12.00" fill="#000000">OpSmime[]</text>
<text xml:space="preserve" text-anchor="start" x="80.25" y="-162.7" font-family="Times,serif" font-size="14.00"> </text>
<text xml:space="preserve" text-anchor="start" x="3" y="-140.45" font-family="Times,serif" font-size="14.00">exit</text>
<text xml:space="preserve" text-anchor="start" x="83.5" y="-140.45" font-family="Times,serif" font-size="14.00">OP_EXIT</text>
<text xml:space="preserve" text-anchor="start" x="3" y="-119.2" font-family="Times,serif" font-size="14.00">verify&#45;key</text>
<text xml:space="preserve" text-anchor="start" x="83.5" y="-119.2" font-family="Times,serif" font-size="14.00">OP_VERIFY_KEY</text>
<text xml:space="preserve" text-anchor="start" x="3" y="-97.95" font-family="Times,serif" font-size="14.00">view&#45;name</text>
<text xml:space="preserve" text-anchor="start" x="83.5" y="-97.95" font-family="Times,serif" font-size="14.00">OP_VIEW_ID</text>
<polygon fill="#ffff80" stroke="none" points="1,-70.75 1,-92 204.75,-92 204.75,-70.75 1,-70.75"/>
<text xml:space="preserve" text-anchor="start" x="3" y="-77.7" font-family="Times,serif" font-weight="bold" font-size="12.00" fill="#000000">SmimeDefaultBindings[]</text>
<text xml:space="preserve" text-anchor="start" x="171.75" y="-77.7" font-family="Times,serif" font-size="14.00"> </text>
<text xml:space="preserve" text-anchor="start" x="30" y="-54.45" font-family="Times,serif" font-size="14.00">q</text>
<polygon fill="none" stroke="#d0d0d0" points="41,-47.5 41,-70.75 81.5,-70.75 81.5,-47.5 41,-47.5"/>
<text xml:space="preserve" text-anchor="start" x="55.25" y="-54.45" font-family="Times,serif" font-size="14.00">→</text>
<text xml:space="preserve" text-anchor="start" x="83.5" y="-54.45" font-family="Times,serif" font-size="14.00">exit</text>
<text xml:space="preserve" text-anchor="start" x="31.5" y="-31.2" font-family="Times,serif" font-size="14.00">c</text>
<polygon fill="none" stroke="#d0d0d0" points="41,-24.25 41,-47.5 81.5,-47.5 81.5,-24.25 41,-24.25"/>
<text xml:space="preserve" text-anchor="start" x="55.25" y="-31.2" font-family="Times,serif" font-size="14.00">→</text>
<text xml:space="preserve" text-anchor="start" x="83.5" y="-31.2" font-family="Times,serif" font-size="14.00">verify&#45;key</text>
<text xml:space="preserve" text-anchor="start" x="25.5" y="-7.95" font-family="Times,serif" font-size="14.00">%</text>
<polygon fill="none" stroke="#d0d0d0" points="41,-1 41,-24.25 81.5,-24.25 81.5,-1 41,-1"/>
<text xml:space="preserve" text-anchor="start" x="55.25" y="-7.95" font-family="Times,serif" font-size="14.00">→</text>
<text xml:space="preserve" text-anchor="start" x="83.5" y="-7.95" font-family="Times,serif" font-size="14.00">view&#45;name</text>
<polygon fill="#d0d0d0" stroke="#d0d0d0" points="0,-177 0,-177 205.75,-177 205.75,-177 0,-177"/>
<polygon fill="#d0d0d0" stroke="#d0d0d0" points="0,-155.75 0,-155.75 205.75,-155.75 205.75,-155.75 0,-155.75"/>
<polygon fill="#d0d0d0" stroke="#d0d0d0" points="0,-134.5 0,-134.5 81.5,-134.5 81.5,-134.5 0,-134.5"/>
<polygon fill="#d0d0d0" stroke="#d0d0d0" points="81.5,-134.5 81.5,-134.5 205.75,-134.5 205.75,-134.5 81.5,-134.5"/>
<polygon fill="#d0d0d0" stroke="#d0d0d0" points="0,-113.25 0,-113.25 81.5,-113.25 81.5,-113.25 0,-113.25"/>
<polygon fill="#d0d0d0" stroke="#d0d0d0" points="81.5,-113.25 81.5,-113.25 205.75,-113.25 205.75,-113.25 81.5,-113.25"/>
<polygon fill="#d0d0d0" stroke="#d0d0d0" points="0,-92 0,-92 81.5,-92 81.5,-92 0,-92"/>
<polygon fill="#d0d0d0" stroke="#d0d0d0" points="81.5,-92 81.5,-92 205.75,-92 205.75,-92 81.5,-92"/>
<polygon fill="#d0d0d0" stroke="#d0d0d0" points="0,-70.75 0,-70.75 205.75,-70.75 205.75,-70.75 0,-70.75"/>
<polygon fill="#d0d0d0" stroke="#d0d0d0" points="0,-47.5 0,-47.5 41,-47.5 41,-47.5 0,-47.5"/>
<polygon fill="#d0d0d0" stroke="#d0d0d0" points="41,-47.5 41,-47.5 81.5,-47.5 81.5,-47.5 41,-47.5"/>
<polygon fill="#d0d0d0" stroke="#d0d0d0" points="81.5,-47.5 81.5,-47.5 205.75,-47.5 205.75,-47.5 81.5,-47.5"/>
<polygon fill="#d0d0d0" stroke="#d0d0d0" points="0,-24.25 0,-24.25 41,-24.25 41,-24.25 0,-24.25"/>
<polygon fill="#d0d0d0" stroke="#d0d0d0" points="41,-24.25 41,-24.25 81.5,-24.25 81.5,-24.25 41,-24.25"/>
<polygon fill="#d0d0d0" stroke="#d0d0d0" points="81.5,-24.25 81.5,-24.25 205.75,-24.25 205.75,-24.25 81.5,-24.25"/>
<polygon fill="none" stroke="#d0d0d0" points="0,0 0,-206.75 205.75,-206.75 205.75,0 0,0"/>
</g>
</g>
</svg>
