<?xml version="1.0" encoding="UTF-8" standalone="no"?>
<!DOCTYPE svg PUBLIC "-//W3C//DTD SVG 1.1//EN"
 "http://www.w3.org/Graphics/SVG/1.1/DTD/svg11.dtd">
<!-- Generated by graphviz version 13.1.2 (20250808.2320)
 -->
<!-- Title: keybindings Pages: 1 -->
<svg width="389pt" height="382pt"
 viewBox="0.00 0.00 389.00 382.00" xmlns="http://www.w3.org/2000/svg" xmlns:xlink="http://www.w3.org/1999/xlink">
<g id="graph0" class="graph" transform="scale(1 1) rotate(0) translate(4 377.75)">
<title>keybindings</title>
<polygon fill="white" stroke="none" points="-4,4 -4,-377.75 384.5,-377.75 384.5,4 -4,4"/>
<!-- sub_attach -->
<g id="node1" class="node">
<title>sub_attach</title>
<polygon fill="#ffff80" stroke="none" points="1,-344 1,-372.75 379.5,-372.75 379.5,-344 1,-344"/>
<text xml:space="preserve" text-anchor="start" x="3" y="-352.75" font-family="Times,serif" font-weight="bold" font-size="20.00" fill="#000000">SubMenu</text>
<text xml:space="preserve" text-anchor="start" x="109.5" y="-352.75" font-family="Times,serif" font-size="14.00"> </text>
<polygon fill="#ffff80" stroke="none" points="1,-322.75 1,-344 379.5,-344 379.5,-322.75 1,-322.75"/>
<text xml:space="preserve" text-anchor="start" x="3" y="-329.7" font-family="Times,serif" font-weight="bold" font-size="12.00" fill="#000000">OpAttachment[]</text>
<text xml:space="preserve" text-anchor="start" x="111.75" y="-329.7" font-family="Times,serif" font-size="14.00"> </text>
<text xml:space="preserve" text-anchor="start" x="3" y="-307.45" font-family="Times,serif" font-size="14.00">bounce&#45;message</text>
<text xml:space="preserve" text-anchor="start" x="158.5" y="-307.45" font-family="Times,serif" font-size="14.00">OP_BOUNCE_MESSAGE</text>
<text xml:space="preserve" text-anchor="start" x="3" y="-286.2" font-family="Times,serif" font-size="14.00">check&#45;traditional&#45;pgp</text>
<text xml:space="preserve" text-anchor="start" x="158.5" y="-286.2" font-family="Times,serif" font-size="14.00">OP_CHECK_TRADITIONAL</text>
<text xml:space="preserve" text-anchor="start" x="3" y="-264.95" font-family="Times,serif" font-size="14.00">collapse&#45;parts</text>
<text xml:space="preserve" text-anchor="start" x="158.5" y="-264.95" font-family="Times,serif" font-size="14.00">OP_ATTACHMENT_COLLAPSE</text>
<text xml:space="preserve" text-anchor="start" x="3" y="-243.7" font-family="Times,serif" font-size="14.00">compose&#45;to&#45;sender</text>
<text xml:space="preserve" text-anchor="start" x="158.5" y="-243.7" font-family="Times,serif" font-size="14.00">OP_COMPOSE_TO_SENDER</text>
<text xml:space="preserve" text-anchor="start" x="3" y="-222.45" font-family="Times,serif" font-size="14.00">delete&#45;entry</text>
<text xml:space="preserve" text-anchor="start" x="158.5" y="-222.45" font-family="Times,serif" font-size="14.00">OP_ATTACHMENT_DELETE</text>
<text xml:space="preserve" text-anchor="start" x="3" y="-201.2" font-family="Times,serif" font-size="14.00">display&#45;toggle&#45;weed</text>
<text xml:space="preserve" text-anchor="start" x="158.5" y="-201.2" font-family="Times,serif" font-size="14.00">OP_DISPLAY_HEADERS</text>
<text xml:space="preserve" text-anchor="start" x="3" y="-183.75" font-family="Times,serif" font-size="10.00" fill="#303030">+23 more</text>
<polygon fill="#ffff80" stroke="none" points="1,-157.25 1,-178.5 379.5,-178.5 379.5,-157.25 1,-157.25"/>
<text xml:space="preserve" text-anchor="start" x="3" y="-164.2" font-family="Times,serif" font-weight="bold" font-size="12.00" fill="#000000">AttachmentDefaultBindings[]</text>
<text xml:space="preserve" text-anchor="start" x="203.25" y="-164.2" font-family="Times,serif" font-size="14.00"> </text>
<text xml:space="preserve" text-anchor="start" x="94.12" y="-140.95" font-family="Times,serif" font-size="14.00">b</text>
<polygon fill="none" stroke="#d0d0d0" points="105.12,-134 105.12,-157.25 156.5,-157.25 156.5,-134 105.12,-134"/>
<text xml:space="preserve" text-anchor="start" x="124.81" y="-140.95" font-family="Times,serif" font-size="14.00">→</text>
<text xml:space="preserve" text-anchor="start" x="158.5" y="-140.95" font-family="Times,serif" font-size="14.00">bounce&#45;message</text>
<text xml:space="preserve" text-anchor="start" x="44.62" y="-117.7" font-family="Times,serif" font-size="14.00">&lt;Alt&#45;P&gt;</text>
<polygon fill="none" stroke="#d0d0d0" points="105.12,-110.75 105.12,-134 156.5,-134 156.5,-110.75 105.12,-110.75"/>
<text xml:space="preserve" text-anchor="start" x="124.81" y="-117.7" font-family="Times,serif" font-size="14.00">→</text>
<text xml:space="preserve" text-anchor="start" x="158.5" y="-117.7" font-family="Times,serif" font-size="14.00">check&#45;traditional&#45;pgp</text>
<text xml:space="preserve" text-anchor="start" x="94.88" y="-94.45" font-family="Times,serif" font-size="14.00">v</text>
<polygon fill="none" stroke="#d0d0d0" points="105.12,-87.5 105.12,-110.75 156.5,-110.75 156.5,-87.5 105.12,-87.5"/>
<text xml:space="preserve" text-anchor="start" x="124.81" y="-94.45" font-family="Times,serif" font-size="14.00">→</text>
<text xml:space="preserve" text-anchor="start" x="158.5" y="-94.45" font-family="Times,serif" font-size="14.00">collapse&#45;parts</text>
<text xml:space="preserve" text-anchor="start" x="94.12" y="-71.2" font-family="Times,serif" font-size="14.00">d</text>
<polygon fill="none" stroke="#d0d0d0" points="105.12,-64.25 105.12,-87.5 156.5,-87.5 156.5,-64.25 105.12,-64.25"/>
<text xml:space="preserve" text-anchor="start" x="124.81" y="-71.2" font-family="Times,serif" font-size="14.00">→</text>
<text xml:space="preserve" text-anchor="start" x="158.5" y="-71.2" font-family="Times,serif" font-size="14.00">delete&#45;entry</text>
<text xml:space="preserve" text-anchor="start" x="94.12" y="-47.95" font-family="Times,serif" font-size="14.00">h</text>
<polygon fill="none" stroke="#d0d0d0" points="105.12,-41 105.12,-64.25 156.5,-64.25 156.5,-41 105.12,-41"/>
<text xml:space="preserve" text-anchor="start" x="124.81" y="-47.95" font-family="Times,serif" font-size="14.00">→</text>
<text xml:space="preserve" text-anchor="start" x="158.5" y="-47.95" font-family="Times,serif" font-size="14.00">display&#45;toggle&#45;weed</text>
<text xml:space="preserve" text-anchor="start" x="36.38" y="-24.7" font-family="Times,serif" font-size="14.00">&lt;Ctrl&#45;E&gt;</text>
<polygon fill="none" stroke="#d0d0d0" points="105.12,-17.75 105.12,-41 156.5,-41 156.5,-17.75 105.12,-17.75"/>
<text xml:space="preserve" text-anchor="start" x="124.81" y="-24.7" font-family="Times,serif" font-size="14.00">→</text>
<text xml:space="preserve" text-anchor="start" x="158.5" y="-24.7" font-family="Times,serif" font-size="14.00">edit&#45;type</text>
<text xml:space="preserve" text-anchor="start" x="3" y="-6.25" font-family="Times,serif" font-size="10.00" fill="#303030">+17 more</text>
<polygon fill="#d0d0d0" stroke="#d0d0d0" points="0,-344 0,-344 380.5,-344 380.5,-344 0,-344"/>
<polygon fill="#d0d0d0" stroke="#d0d0d0" points="0,-322.75 0,-322.75 380.5,-322.75 380.5,-322.75 0,-322.75"/>
<polygon fill="#d0d0d0" stroke="#d0d0d0" points="0,-301.5 0,-301.5 156.5,-301.5 156.5,-301.5 0,-301.5"/>
<polygon fill="#d0d0d0" stroke="#d0d0d0" points="156.5,-301.5 156.5,-301.5 380.5,-301.5 380.5,-301.5 156.5,-301.5"/>
<polygon fill="#d0d0d0" stroke="#d0d0d0" points="0,-280.25 0,-280.25 156.5,-280.25 156.5,-280.25 0,-280.25"/>
<polygon fill="#d0d0d0" stroke="#d0d0d0" points="156.5,-280.25 156.5,-280.25 380.5,-280.25 380.5,-280.25 156.5,-280.25"/>
<polygon fill="#d0d0d0" stroke="#d0d0d0" points="0,-259 0,-259 156.5,-259 156.5,-259 0,-259"/>
<polygon fill="#d0d0d0" stroke="#d0d0d0" points="156.5,-259 156.5,-259 380.5,-259 380.5,-259 156.5,-259"/>
<polygon fill="#d0d0d0" stroke="#d0d0d0" points="0,-237.75 0,-237.75 156.5,-237.75 156.5,-237.75 0,-237.75"/>
<polygon fill="#d0d0d0" stroke="#d0d0d0" points="156.5,-237.75 156.5,-237.75 380.5,-237.75 380.5,-237.75 156.5,-237.75"/>
<polygon fill="#d0d0d0" stroke="#d0d0d0" points="0,-216.5 0,-216.5 156.5,-216.5 156.5,-216.5 0,-216.5"/>
<polygon fill="#d0d0d0" stroke="#d0d0d0" points="156.5,-216.5 156.5,-216.5 380.5,-216.5 380.5,-216.5 156.5,-216.5"/>
<polygon fill="#d0d0d0" stroke="#d0d0d0" points="0,-195.25 0,-195.25 156.5,-195.25 156.5,-195.25 0,-195.25"/>
<polygon fill="#d0d0d0" stroke="#d0d0d0" points="156.5,-195.25 156.5,-195.25 380.5,-195.25 380.5,-195.25 156.5,-195.25"/>
<polygon fill="#d0d0d0" stroke="#d0d0d0" points="0,-178.5 0,-178.5 380.5,-178.5 380.5,-178.5 0,-178.5"/>
<polygon fill="#d0d0d0" stroke="#d0d0d0" points="0,-157.25 0,-157.25 380.5,-157.25 380.5,-157.25 0,-157.25"/>
<polygon fill="#d0d0d0" stroke="#d0d0d0" points="0,-134 0,-134 105.12,-134 105.12,-134 0,-134"/>
<polygon fill="#d0d0d0" stroke="#d0d0d0" points="105.12,-134 105.12,-134 156.5,-134 156.5,-134 105.12,-134"/>
<polygon fill="#d0d0d0" stroke="#d0d0d0" points="156.5,-134 156.5,-134 380.5,-134 380.5,-134 156.5,-134"/>
<polygon fill="#d0d0d0" stroke="#d0d0d0" points="0,-110.75 0,-110.75 105.12,-110.75 105.12,-110.75 0,-110.75"/>
<polygon fill="#d0d0d0" stroke="#d0d0d0" points="105.12,-110.75 105.12,-110.75 156.5,-110.75 156.5,-110.75 105.12,-110.75"/>
<polygon fill="#d0d0d0" stroke="#d0d0d0" points="156.5,-110.75 156.5,-110.75 380.5,-110.75 380.5,-110.75 156.5,-110.75"/>
<polygon fill="#d0d0d0" stroke="#d0d0d0" points="0,-87.5 0,-87.5 105.12,-87.5 105.12,-87.5 0,-87.5"/>
<polygon fill="#d0d0d0" stroke="#d0d0d0" points="105.12,-87.5 105.12,-87.5 156.5,-87.5 156.5,-87.5 105.12,-87.5"/>
<polygon fill="#d0d0d0" stroke="#d0d0d0" points="156.5,-87.5 156.5,-87.5 380.5,-87.5 380.5,-87.5 156.5,-87.5"/>
<polygon fill="#d0d0d0" stroke="#d0d0d0" points="0,-64.25 0,-64.25 105.12,-64.25 105.12,-64.25 0,-64.25"/>
<polygon fill="#d0d0d0" stroke="#d0d0d0" points="105.12,-64.25 105.12,-64.25 156.5,-64.25 156.5,-64.25 105.12,-64.25"/>
<polygon fill="#d0d0d0" stroke="#d0d0d0" points="156.5,-64.25 156.5,-64.25 380.5,-64.25 380.5,-64.25 156.5,-64.25"/>
<polygon fill="#d0d0d0" stroke="#d0d0d0" points="0,-41 0,-41 105.12,-41 105.12,-41 0,-41"/>
<polygon fill="#d0d0d0" stroke="#d0d0d0" points="105.12,-41 105.12,-41 156.5,-41 156.5,-41 105.12,-41"/>
<polygon fill="#d0d0d0" stroke="#d0d0d0" points="156.5,-41 156.5,-41 380.5,-41 380.5,-41 156.5,-41"/>
<polygon fill="#d0d0d0" stroke="#d0d0d0" points="0,-17.75 0,-17.75 105.12,-17.75 105.12,-17.75 0,-17.75"/>
<polygon fill="#d0d0d0" stroke="#d0d0d0" points="105.12,-17.75 105.12,-17.75 156.5,-17.75 156.5,-17.75 105.12,-17.75"/>
<polygon fill="#d0d0d0" stroke="#d0d0d0" points="156.5,-17.75 156.5,-17.75 380.5,-17.75 380.5,-17.75 156.5,-17.75"/>
<polygon fill="none" stroke="#d0d0d0" points="0,0 0,-373.75 380.5,-373.75 380.5,0 0,0"/>
</g>
</g>
</svg>
