<?xml version="1.0" encoding="UTF-8" standalone="no"?>
<!DOCTYPE svg PUBLIC "-//W3C//DTD SVG 1.1//EN"
 "http://www.w3.org/Graphics/SVG/1.1/DTD/svg11.dtd">
<!-- Generated by graphviz version 13.1.2 (20250808.2320)
 -->
<!-- Title: keybindings Pages: 1 -->
<svg width="328pt" height="221pt"
 viewBox="0.00 0.00 328.00 221.00" xmlns="http://www.w3.org/2000/svg" xmlns:xlink="http://www.w3.org/1999/xlink">
<g id="graph0" class="graph" transform="scale(1 1) rotate(0) translate(4 217)">
<title>keybindings</title>
<polygon fill="white" stroke="none" points="-4,4 -4,-217 323.75,-217 323.75,4 -4,4"/>
<!-- sub_sidebar -->
<g id="node1" class="node">
<title>sub_sidebar</title>
<polygon fill="#ffff80" stroke="none" points="1,-183.25 1,-212 318.75,-212 318.75,-183.25 1,-183.25"/>
<text xml:space="preserve" text-anchor="start" x="3" y="-192" font-family="Times,serif" font-weight="bold" font-size="20.00" fill="#000000">SubMenu</text>
<text xml:space="preserve" text-anchor="start" x="109.5" y="-192" font-family="Times,serif" font-size="14.00"> </text>
<polygon fill="#ffff80" stroke="none" points="1,-162 1,-183.25 318.75,-183.25 318.75,-162 1,-162"/>
<text xml:space="preserve" text-anchor="start" x="3" y="-168.95" font-family="Times,serif" font-weight="bold" font-size="12.00" fill="#000000">OpSidebar[]</text>
<text xml:space="preserve" text-anchor="start" x="84.75" y="-168.95" font-family="Times,serif" font-size="14.00"> </text>
<text xml:space="preserve" text-anchor="start" x="3" y="-146.7" font-family="Times,serif" font-size="14.00">sidebar&#45;first</text>
<text xml:space="preserve" text-anchor="start" x="130" y="-146.7" font-family="Times,serif" font-size="14.00">OP_SIDEBAR_FIRST</text>
<text xml:space="preserve" text-anchor="start" x="3" y="-125.45" font-family="Times,serif" font-size="14.00">sidebar&#45;last</text>
<text xml:space="preserve" text-anchor="start" x="130" y="-125.45" font-family="Times,serif" font-size="14.00">OP_SIDEBAR_LAST</text>
<text xml:space="preserve" text-anchor="start" x="3" y="-104.2" font-family="Times,serif" font-size="14.00">sidebar&#45;next</text>
<text xml:space="preserve" text-anchor="start" x="130" y="-104.2" font-family="Times,serif" font-size="14.00">OP_SIDEBAR_NEXT</text>
<text xml:space="preserve" text-anchor="start" x="3" y="-82.95" font-family="Times,serif" font-size="14.00">sidebar&#45;next&#45;new</text>
<text xml:space="preserve" text-anchor="start" x="130" y="-82.95" font-family="Times,serif" font-size="14.00">OP_SIDEBAR_NEXT_NEW</text>
<text xml:space="preserve" text-anchor="start" x="3" y="-61.7" font-family="Times,serif" font-size="14.00">sidebar&#45;open</text>
<text xml:space="preserve" text-anchor="start" x="130" y="-61.7" font-family="Times,serif" font-size="14.00">OP_SIDEBAR_OPEN</text>
<text xml:space="preserve" text-anchor="start" x="3" y="-44.25" font-family="Times,serif" font-size="10.00" fill="#303030">+6 more</text>
<polygon fill="#ffff80" stroke="none" points="1,-17.75 1,-39 318.75,-39 318.75,-17.75 1,-17.75"/>
<text xml:space="preserve" text-anchor="start" x="3" y="-24.7" font-family="Times,serif" font-weight="bold" font-size="12.00" fill="#000000">SidebarDefaultBindings[]</text>
<text xml:space="preserve" text-anchor="start" x="176.25" y="-24.7" font-family="Times,serif" font-size="14.00"> </text>
<text xml:space="preserve" text-anchor="start" x="3" y="-6.25" font-family="Times,serif" font-size="10.00" fill="#303030">none</text>
<polygon fill="#d0d0d0" stroke="#d0d0d0" points="0,-183.25 0,-183.25 319.75,-183.25 319.75,-183.25 0,-183.25"/>
<polygon fill="#d0d0d0" stroke="#d0d0d0" points="0,-162 0,-162 319.75,-162 319.75,-162 0,-162"/>
<polygon fill="#d0d0d0" stroke="#d0d0d0" points="0,-140.75 0,-140.75 128,-140.75 128,-140.75 0,-140.75"/>
<polygon fill="#d0d0d0" stroke="#d0d0d0" points="128,-140.75 128,-140.75 319.75,-140.75 319.75,-140.75 128,-140.75"/>
<polygon fill="#d0d0d0" stroke="#d0d0d0" points="0,-119.5 0,-119.5 128,-119.5 128,-119.5 0,-119.5"/>
<polygon fill="#d0d0d0" stroke="#d0d0d0" points="128,-119.5 128,-119.5 319.75,-119.5 319.75,-119.5 128,-119.5"/>
<polygon fill="#d0d0d0" stroke="#d0d0d0" points="0,-98.25 0,-98.25 128,-98.25 128,-98.25 0,-98.25"/>
<polygon fill="#d0d0d0" stroke="#d0d0d0" points="128,-98.25 128,-98.25 319.75,-98.25 319.75,-98.25 128,-98.25"/>
<polygon fill="#d0d0d0" stroke="#d0d0d0" points="0,-77 0,-77 128,-77 128,-77 0,-77"/>
<polygon fill="#d0d0d0" stroke="#d0d0d0" points="128,-77 128,-77 319.75,-77 319.75,-77 128,-77"/>
<polygon fill="#d0d0d0" stroke="#d0d0d0" points="0,-55.75 0,-55.75 128,-55.75 128,-55.75 0,-55.75"/>
<polygon fill="#d0d0d0" stroke="#d0d0d0" points="128,-55.75 128,-55.75 319.75,-55.75 319.75,-55.75 128,-55.75"/>
<polygon fill="#d0d0d0" stroke="#d0d0d0" points="0,-39 0,-39 319.75,-39 319.75,-39 0,-39"/>
<polygon fill="#d0d0d0" stroke="#d0d0d0" points="0,-17.75 0,-17.75 319.75,-17.75 319.75,-17.75 0,-17.75"/>
<polygon fill="none" stroke="#d0d0d0" points="0,0 0,-213 319.75,-213 319.75,0 0,0"/>
</g>
</g>
</svg>
