<?xml version="1.0" encoding="UTF-8" standalone="no"?>
<!DOCTYPE svg PUBLIC "-//W3C//DTD SVG 1.1//EN"
 "http://www.w3.org/Graphics/SVG/1.1/DTD/svg11.dtd">
<!-- Generated by graphviz version 13.1.2 (20250808.2320)
 -->
<!-- Title: keybindings Pages: 1 -->
<svg width="482pt" height="337pt"
 viewBox="0.00 0.00 482.00 337.00" xmlns="http://www.w3.org/2000/svg" xmlns:xlink="http://www.w3.org/1999/xlink">
<g id="graph0" class="graph" transform="scale(1 1) rotate(0) translate(4 333.25)">
<title>keybindings</title>
<polygon fill="white" stroke="none" points="-4,4 -4,-333.25 478.25,-333.25 478.25,4 -4,4"/>
<!-- sub_pager -->
<g id="node1" class="node">
<title>sub_pager</title>
<polygon fill="#ffff80" stroke="none" points="1,-299.5 1,-328.25 473.25,-328.25 473.25,-299.5 1,-299.5"/>
<text xml:space="preserve" text-anchor="start" x="3" y="-308.25" font-family="Times,serif" font-weight="bold" font-size="20.00" fill="#000000">SubMenu</text>
<text xml:space="preserve" text-anchor="start" x="109.5" y="-308.25" font-family="Times,serif" font-size="14.00"> </text>
<polygon fill="#ffff80" stroke="none" points="1,-278.25 1,-299.5 473.25,-299.5 473.25,-278.25 1,-278.25"/>
<text xml:space="preserve" text-anchor="start" x="3" y="-285.2" font-family="Times,serif" font-weight="bold" font-size="12.00" fill="#000000">OpPager[]</text>
<text xml:space="preserve" text-anchor="start" x="72" y="-285.2" font-family="Times,serif" font-size="14.00"> </text>
<text xml:space="preserve" text-anchor="start" x="3" y="-262.95" font-family="Times,serif" font-size="14.00">bottom</text>
<text xml:space="preserve" text-anchor="start" x="171.25" y="-262.95" font-family="Times,serif" font-size="14.00">OP_PAGER_BOTTOM</text>
<text xml:space="preserve" text-anchor="start" x="3" y="-241.7" font-family="Times,serif" font-size="14.00">bounce&#45;message</text>
<text xml:space="preserve" text-anchor="start" x="171.25" y="-241.7" font-family="Times,serif" font-size="14.00">OP_BOUNCE_MESSAGE</text>
<text xml:space="preserve" text-anchor="start" x="3" y="-220.45" font-family="Times,serif" font-size="14.00">break&#45;thread</text>
<text xml:space="preserve" text-anchor="start" x="171.25" y="-220.45" font-family="Times,serif" font-size="14.00">OP_MAIN_BREAK_THREAD</text>
<text xml:space="preserve" text-anchor="start" x="3" y="-199.2" font-family="Times,serif" font-size="14.00">change&#45;folder</text>
<text xml:space="preserve" text-anchor="start" x="171.25" y="-199.2" font-family="Times,serif" font-size="14.00">OP_MAIN_CHANGE_FOLDER</text>
<text xml:space="preserve" text-anchor="start" x="3" y="-177.95" font-family="Times,serif" font-size="14.00">change&#45;folder&#45;readonly</text>
<text xml:space="preserve" text-anchor="start" x="171.25" y="-177.95" font-family="Times,serif" font-size="14.00">OP_MAIN_CHANGE_FOLDER_READONLY</text>
<text xml:space="preserve" text-anchor="start" x="3" y="-160.5" font-family="Times,serif" font-size="10.00" fill="#303030">+117 more</text>
<polygon fill="#ffff80" stroke="none" points="1,-134 1,-155.25 473.25,-155.25 473.25,-134 1,-134"/>
<text xml:space="preserve" text-anchor="start" x="3" y="-140.95" font-family="Times,serif" font-weight="bold" font-size="12.00" fill="#000000">PagerDefaultBindings[]</text>
<text xml:space="preserve" text-anchor="start" x="163.5" y="-140.95" font-family="Times,serif" font-size="14.00"> </text>
<text xml:space="preserve" text-anchor="start" x="51.75" y="-117.7" font-family="Times,serif" font-size="14.00">&lt;End&gt;</text>
<polygon fill="none" stroke="#d0d0d0" points="106.25,-110.75 106.25,-134 169.25,-134 169.25,-110.75 106.25,-110.75"/>
<text xml:space="preserve" text-anchor="start" x="131.75" y="-117.7" font-family="Times,serif" font-size="14.00">→</text>
<text xml:space="preserve" text-anchor="start" x="171.25" y="-117.7" font-family="Times,serif" font-size="14.00">bottom</text>
<text xml:space="preserve" text-anchor="start" x="95.25" y="-94.45" font-family="Times,serif" font-size="14.00">b</text>
<polygon fill="none" stroke="#d0d0d0" points="106.25,-87.5 106.25,-110.75 169.25,-110.75 169.25,-87.5 106.25,-87.5"/>
<text xml:space="preserve" text-anchor="start" x="131.75" y="-94.45" font-family="Times,serif" font-size="14.00">→</text>
<text xml:space="preserve" text-anchor="start" x="171.25" y="-94.45" font-family="Times,serif" font-size="14.00">bounce&#45;message</text>
<text xml:space="preserve" text-anchor="start" x="92.25" y="-71.2" font-family="Times,serif" font-size="14.00">#</text>
<polygon fill="none" stroke="#d0d0d0" points="106.25,-64.25 106.25,-87.5 169.25,-87.5 169.25,-64.25 106.25,-64.25"/>
<text xml:space="preserve" text-anchor="start" x="131.75" y="-71.2" font-family="Times,serif" font-size="14.00">→</text>
<text xml:space="preserve" text-anchor="start" x="171.25" y="-71.2" font-family="Times,serif" font-size="14.00">break&#45;thread</text>
<text xml:space="preserve" text-anchor="start" x="96.75" y="-47.95" font-family="Times,serif" font-size="14.00">c</text>
<polygon fill="none" stroke="#d0d0d0" points="106.25,-41 106.25,-64.25 169.25,-64.25 169.25,-41 106.25,-41"/>
<text xml:space="preserve" text-anchor="start" x="131.75" y="-47.95" font-family="Times,serif" font-size="14.00">→</text>
<text xml:space="preserve" text-anchor="start" x="171.25" y="-47.95" font-family="Times,serif" font-size="14.00">change&#45;folder</text>
<text xml:space="preserve" text-anchor="start" x="48" y="-24.7" font-family="Times,serif" font-size="14.00">&lt;Alt&#45;c&gt;</text>
<polygon fill="none" stroke="#d0d0d0" points="106.25,-17.75 106.25,-41 169.25,-41 169.25,-17.75 106.25,-17.75"/>
<text xml:space="preserve" text-anchor="start" x="131.75" y="-24.7" font-family="Times,serif" font-size="14.00">→</text>
<text xml:space="preserve" text-anchor="start" x="171.25" y="-24.7" font-family="Times,serif" font-size="14.00">change&#45;folder&#45;readonly</text>
<text xml:space="preserve" text-anchor="start" x="3" y="-6.25" font-family="Times,serif" font-size="10.00" fill="#303030">+82 more</text>
<polygon fill="#d0d0d0" stroke="#d0d0d0" points="0,-299.5 0,-299.5 474.25,-299.5 474.25,-299.5 0,-299.5"/>
<polygon fill="#d0d0d0" stroke="#d0d0d0" points="0,-278.25 0,-278.25 474.25,-278.25 474.25,-278.25 0,-278.25"/>
<polygon fill="#d0d0d0" stroke="#d0d0d0" points="0,-257 0,-257 169.25,-257 169.25,-257 0,-257"/>
<polygon fill="#d0d0d0" stroke="#d0d0d0" points="169.25,-257 169.25,-257 474.25,-257 474.25,-257 169.25,-257"/>
<polygon fill="#d0d0d0" stroke="#d0d0d0" points="0,-235.75 0,-235.75 169.25,-235.75 169.25,-235.75 0,-235.75"/>
<polygon fill="#d0d0d0" stroke="#d0d0d0" points="169.25,-235.75 169.25,-235.75 474.25,-235.75 474.25,-235.75 169.25,-235.75"/>
<polygon fill="#d0d0d0" stroke="#d0d0d0" points="0,-214.5 0,-214.5 169.25,-214.5 169.25,-214.5 0,-214.5"/>
<polygon fill="#d0d0d0" stroke="#d0d0d0" points="169.25,-214.5 169.25,-214.5 474.25,-214.5 474.25,-214.5 169.25,-214.5"/>
<polygon fill="#d0d0d0" stroke="#d0d0d0" points="0,-193.25 0,-193.25 169.25,-193.25 169.25,-193.25 0,-193.25"/>
<polygon fill="#d0d0d0" stroke="#d0d0d0" points="169.25,-193.25 169.25,-193.25 474.25,-193.25 474.25,-193.25 169.25,-193.25"/>
<polygon fill="#d0d0d0" stroke="#d0d0d0" points="0,-172 0,-172 169.25,-172 169.25,-172 0,-172"/>
<polygon fill="#d0d0d0" stroke="#d0d0d0" points="169.25,-172 169.25,-172 474.25,-172 474.25,-172 169.25,-172"/>
<polygon fill="#d0d0d0" stroke="#d0d0d0" points="0,-155.25 0,-155.25 474.25,-155.25 474.25,-155.25 0,-155.25"/>
<polygon fill="#d0d0d0" stroke="#d0d0d0" points="0,-134 0,-134 474.25,-134 474.25,-134 0,-134"/>
<polygon fill="#d0d0d0" stroke="#d0d0d0" points="0,-110.75 0,-110.75 106.25,-110.75 106.25,-110.75 0,-110.75"/>
<polygon fill="#d0d0d0" stroke="#d0d0d0" points="106.25,-110.75 106.25,-110.75 169.25,-110.75 169.25,-110.75 106.25,-110.75"/>
<polygon fill="#d0d0d0" stroke="#d0d0d0" points="169.25,-110.75 169.25,-110.75 474.25,-110.75 474.25,-110.75 169.25,-110.75"/>
<polygon fill="#d0d0d0" stroke="#d0d0d0" points="0,-87.5 0,-87.5 106.25,-87.5 106.25,-87.5 0,-87.5"/>
<polygon fill="#d0d0d0" stroke="#d0d0d0" points="106.25,-87.5 106.25,-87.5 169.25,-87.5 169.25,-87.5 106.25,-87.5"/>
<polygon fill="#d0d0d0" stroke="#d0d0d0" points="169.25,-87.5 169.25,-87.5 474.25,-87.5 474.25,-87.5 169.25,-87.5"/>
<polygon fill="#d0d0d0" stroke="#d0d0d0" points="0,-64.25 0,-64.25 106.25,-64.25 106.25,-64.25 0,-64.25"/>
<polygon fill="#d0d0d0" stroke="#d0d0d0" points="106.25,-64.25 106.25,-64.25 169.25,-64.25 169.25,-64.25 106.25,-64.25"/>
<polygon fill="#d0d0d0" stroke="#d0d0d0" points="169.25,-64.25 169.25,-64.25 474.25,-64.25 474.25,-64.25 169.25,-64.25"/>
<polygon fill="#d0d0d0" stroke="#d0d0d0" points="0,-41 0,-41 106.25,-41 106.25,-41 0,-41"/>
<polygon fill="#d0d0d0" stroke="#d0d0d0" points="106.25,-41 106.25,-41 169.25,-41 169.25,-41 106.25,-41"/>
<polygon fill="#d0d0d0" stroke="#d0d0d0" points="169.25,-41 169.25,-41 474.25,-41 474.25,-41 169.25,-41"/>
<polygon fill="#d0d0d0" stroke="#d0d0d0" points="0,-17.75 0,-17.75 106.25,-17.75 106.25,-17.75 0,-17.75"/>
<polygon fill="#d0d0d0" stroke="#d0d0d0" points="106.25,-17.75 106.25,-17.75 169.25,-17.75 169.25,-17.75 106.25,-17.75"/>
<polygon fill="#d0d0d0" stroke="#d0d0d0" points="169.25,-17.75 169.25,-17.75 474.25,-17.75 474.25,-17.75 169.25,-17.75"/>
<polygon fill="none" stroke="#d0d0d0" points="0,0 0,-329.25 474.25,-329.25 474.25,0 0,0"/>
</g>
</g>
</svg>
