<?xml version="1.0" encoding="UTF-8" standalone="no"?>
<!DOCTYPE svg PUBLIC "-//W3C//DTD SVG 1.1//EN"
 "http://www.w3.org/Graphics/SVG/1.1/DTD/svg11.dtd">
<!-- Generated by graphviz version 2.48.0 (0)
 -->
<!-- Title: workflow Pages: 1 -->
<svg width="1112pt" height="223pt"
 viewBox="0.00 0.00 1112.00 223.10" xmlns="http://www.w3.org/2000/svg" xmlns:xlink="http://www.w3.org/1999/xlink">
<g id="graph0" class="graph" transform="scale(1 1) rotate(0) translate(4 219.1)">
<title>workflow</title>
<polygon fill="white" stroke="transparent" points="-4,4 -4,-219.1 1108,-219.1 1108,4 -4,4"/>
<!-- index -->
<g id="node1" class="node">
<title>index</title>
<path fill="#d0ffff" stroke="black" d="M7,-89.6C7,-89.6 86,-89.6 86,-89.6 89.5,-89.6 93,-93.1 93,-96.6 93,-96.6 93,-103.6 93,-103.6 93,-107.1 89.5,-110.6 86,-110.6 86,-110.6 7,-110.6 7,-110.6 3.5,-110.6 0,-107.1 0,-103.6 0,-103.6 0,-96.6 0,-96.6 0,-93.1 3.5,-89.6 7,-89.6"/>
<text text-anchor="middle" x="46.5" y="-97" font-family="Times,serif" font-size="12.00">Index Dialog</text>
</g>
<!-- alias_d -->
<g id="node3" class="node">
<title>alias_d</title>
<path fill="#d0ffff" stroke="black" d="M222,-172.6C222,-172.6 298,-172.6 298,-172.6 301.5,-172.6 305,-176.1 305,-179.6 305,-179.6 305,-186.6 305,-186.6 305,-190.1 301.5,-193.6 298,-193.6 298,-193.6 222,-193.6 222,-193.6 218.5,-193.6 215,-190.1 215,-186.6 215,-186.6 215,-179.6 215,-179.6 215,-176.1 218.5,-172.6 222,-172.6"/>
<text text-anchor="middle" x="260" y="-180" font-family="Times,serif" font-size="12.00">Alias Dialog</text>
</g>
<!-- index&#45;&gt;alias_d -->
<g id="edge5" class="edge">
<title>index&#45;&gt;alias_d</title>
<path fill="none" stroke="black" stroke-width="2" d="M55.27,-110.76C64.68,-122.81 81.69,-142.07 101,-152.1 140.89,-172.81 157.83,-164 204.92,-171.86"/>
<polygon fill="black" stroke="black" stroke-width="2" points="204.29,-175.31 214.76,-173.67 205.56,-168.42 204.29,-175.31"/>
<text text-anchor="middle" x="154" y="-175.9" font-family="Times,serif" font-size="14.00">&lt;alias&#45;dialog&gt;</text>
</g>
<!-- to -->
<g id="node7" class="node">
<title>to</title>
<path fill="#d0ffff" stroke="black" d="M437,-132.6C437,-132.6 515,-132.6 515,-132.6 518.5,-132.6 522,-136.1 522,-139.6 522,-139.6 522,-146.6 522,-146.6 522,-150.1 518.5,-153.6 515,-153.6 515,-153.6 437,-153.6 437,-153.6 433.5,-153.6 430,-150.1 430,-146.6 430,-146.6 430,-139.6 430,-139.6 430,-136.1 433.5,-132.6 437,-132.6"/>
<text text-anchor="middle" x="476" y="-140" font-family="Times,serif" font-size="12.00">To: (prompt)</text>
</g>
<!-- index&#45;&gt;to -->
<g id="edge6" class="edge">
<title>index&#45;&gt;to</title>
<path fill="none" stroke="black" stroke-width="2" d="M93.26,-109.88C95.87,-110.32 98.47,-110.73 101,-111.1 213.49,-127.42 346.31,-136.36 419.54,-140.39"/>
<polygon fill="black" stroke="black" stroke-width="2" points="419.73,-143.91 429.9,-140.95 420.1,-136.92 419.73,-143.91"/>
<text text-anchor="middle" x="260" y="-135.9" font-family="Times,serif" font-size="14.00">&lt;mail&gt;</text>
</g>
<!-- alias_c -->
<g id="node2" class="node">
<title>alias_c</title>
<path fill="#d0ffff" stroke="black" d="M655.5,-148.6C655.5,-148.6 760.5,-148.6 760.5,-148.6 764,-148.6 767.5,-152.1 767.5,-155.6 767.5,-155.6 767.5,-162.6 767.5,-162.6 767.5,-166.1 764,-169.6 760.5,-169.6 760.5,-169.6 655.5,-169.6 655.5,-169.6 652,-169.6 648.5,-166.1 648.5,-162.6 648.5,-162.6 648.5,-155.6 648.5,-155.6 648.5,-152.1 652,-148.6 655.5,-148.6"/>
<text text-anchor="middle" x="708" y="-156" font-family="Times,serif" font-size="12.00">Alias Completion</text>
</g>
<!-- alias_c&#45;&gt;to -->
<g id="edge1" class="edge">
<title>alias_c&#45;&gt;to</title>
<path fill="none" stroke="black" stroke-width="2" d="M648.41,-155.02C612.69,-152.54 567.32,-149.38 532.24,-146.94"/>
<polygon fill="black" stroke="black" stroke-width="2" points="532.38,-143.44 522.17,-146.24 531.9,-150.43 532.38,-143.44"/>
<text text-anchor="middle" x="584.5" y="-156.9" font-family="Times,serif" font-size="14.00">&lt;select&#45;entry&gt;</text>
</g>
<!-- alias_c&#45;&gt;to -->
<g id="edge10" class="edge">
<title>alias_c&#45;&gt;to</title>
<path fill="none" stroke="#ff8080" stroke-dasharray="5,2" d="M689.27,-148.46C675.96,-141.12 657,-132.01 639,-128.1 591.66,-117.82 577.98,-121.44 530,-128.1 526.33,-128.61 522.55,-129.31 518.79,-130.13"/>
<polygon fill="#ff8080" stroke="#ff8080" points="517.81,-126.76 508.93,-132.53 519.47,-133.56 517.81,-126.76"/>
<text text-anchor="middle" x="584.5" y="-131.9" font-family="Times,serif" font-size="14.00" fill="#c00000">&lt;exit&gt;</text>
</g>
<!-- alias_d&#45;&gt;index -->
<g id="edge11" class="edge">
<title>alias_d&#45;&gt;index</title>
<path fill="none" stroke="#ff8080" stroke-dasharray="5,2" d="M222.63,-193.63C188.9,-201.23 138.41,-206.89 101,-186.1 76,-172.21 61.17,-141.25 53.68,-120.53"/>
<polygon fill="#ff8080" stroke="#ff8080" points="56.91,-119.14 50.42,-110.76 50.27,-121.36 56.91,-119.14"/>
<text text-anchor="middle" x="154" y="-203.9" font-family="Times,serif" font-size="14.00" fill="#c00000">&lt;exit&gt;</text>
</g>
<!-- alias_d&#45;&gt;to -->
<g id="edge2" class="edge">
<title>alias_d&#45;&gt;to</title>
<path fill="none" stroke="black" stroke-width="2" d="M305.13,-175.47C335.24,-170.2 376.28,-162.87 419.96,-154.47"/>
<polygon fill="black" stroke="black" stroke-width="2" points="420.76,-157.88 429.91,-152.54 419.43,-151 420.76,-157.88"/>
<text text-anchor="middle" x="367.5" y="-176.9" font-family="Times,serif" font-size="14.00">&lt;select&#45;entry&gt;</text>
</g>
<!-- compose -->
<g id="node4" class="node">
<title>compose</title>
<path fill="#d0ffff" stroke="black" d="M995,-23.6C995,-23.6 1097,-23.6 1097,-23.6 1100.5,-23.6 1104,-27.1 1104,-30.6 1104,-30.6 1104,-37.6 1104,-37.6 1104,-41.1 1100.5,-44.6 1097,-44.6 1097,-44.6 995,-44.6 995,-44.6 991.5,-44.6 988,-41.1 988,-37.6 988,-37.6 988,-30.6 988,-30.6 988,-27.1 991.5,-23.6 995,-23.6"/>
<text text-anchor="middle" x="1046" y="-31" font-family="Times,serif" font-size="12.00">Compose Dialog</text>
</g>
<!-- compose&#45;&gt;index -->
<g id="edge3" class="edge">
<title>compose&#45;&gt;index</title>
<path fill="none" stroke="black" stroke-width="2" d="M987.68,-34.1C955.08,-34.1 913.51,-34.1 876.5,-34.1 259,-34.1 259,-34.1 259,-34.1 191.13,-34.1 116.34,-65.46 76.41,-84.94"/>
<polygon fill="black" stroke="black" stroke-width="2" points="74.66,-81.9 67.27,-89.5 77.78,-88.17 74.66,-81.9"/>
<text text-anchor="middle" x="584.5" y="-37.9" font-family="Times,serif" font-size="14.00">&lt;send&gt;</text>
</g>
<!-- compose&#45;&gt;index -->
<g id="edge12" class="edge">
<title>compose&#45;&gt;index</title>
<path fill="none" stroke="#ff8080" stroke-dasharray="5,2" d="M1012.46,-23.53C978.81,-13.55 924.55,-0.1 876.5,-0.1 259,-0.1 259,-0.1 259,-0.1 186.98,-0.1 162.43,1.5 101,-36.1 83.17,-47.02 68.43,-65.97 58.97,-80.43"/>
<polygon fill="#ff8080" stroke="#ff8080" points="55.86,-78.82 53.54,-89.15 61.8,-82.52 55.86,-78.82"/>
<text text-anchor="middle" x="584.5" y="-3.9" font-family="Times,serif" font-size="14.00" fill="#c00000">&lt;exit&gt;</text>
</g>
<!-- editor -->
<g id="node5" class="node">
<title>editor</title>
<path fill="#d0ffff" stroke="black" d="M855,-56.6C855,-56.6 896,-56.6 896,-56.6 899.5,-56.6 903,-60.1 903,-63.6 903,-63.6 903,-70.6 903,-70.6 903,-74.1 899.5,-77.6 896,-77.6 896,-77.6 855,-77.6 855,-77.6 851.5,-77.6 848,-74.1 848,-70.6 848,-70.6 848,-63.6 848,-63.6 848,-60.1 851.5,-56.6 855,-56.6"/>
<text text-anchor="middle" x="875.5" y="-64" font-family="Times,serif" font-size="12.00">Editor</text>
</g>
<!-- editor&#45;&gt;compose -->
<g id="edge4" class="edge">
<title>editor&#45;&gt;compose</title>
<path fill="none" stroke="black" stroke-width="2" d="M903.2,-61.87C924.19,-57.76 954.32,-51.86 981.4,-46.56"/>
<polygon fill="black" stroke="black" stroke-width="2" points="982.08,-49.99 991.22,-44.63 980.74,-43.12 982.08,-49.99"/>
<text text-anchor="middle" x="945.5" y="-62.9" font-family="Times,serif" font-size="14.00">save, exit</text>
</g>
<!-- subject -->
<g id="node6" class="node">
<title>subject</title>
<path fill="#d0ffff" stroke="black" d="M654,-56.6C654,-56.6 762,-56.6 762,-56.6 765.5,-56.6 769,-60.1 769,-63.6 769,-63.6 769,-70.6 769,-70.6 769,-74.1 765.5,-77.6 762,-77.6 762,-77.6 654,-77.6 654,-77.6 650.5,-77.6 647,-74.1 647,-70.6 647,-70.6 647,-63.6 647,-63.6 647,-60.1 650.5,-56.6 654,-56.6"/>
<text text-anchor="middle" x="708" y="-64" font-family="Times,serif" font-size="12.00">Subject: (prompt)</text>
</g>
<!-- subject&#45;&gt;index -->
<g id="edge13" class="edge">
<title>subject&#45;&gt;index</title>
<path fill="none" stroke="#ff8080" stroke-dasharray="5,2" d="M646.74,-68.95C539.5,-72.44 308.23,-80.89 103.08,-95"/>
<polygon fill="#ff8080" stroke="#ff8080" points="102.75,-91.52 93.02,-95.7 103.24,-98.5 102.75,-91.52"/>
<text text-anchor="middle" x="367.5" y="-85.9" font-family="Times,serif" font-size="14.00" fill="#c00000">empty/abort</text>
</g>
<!-- subject&#45;&gt;editor -->
<g id="edge7" class="edge">
<title>subject&#45;&gt;editor</title>
<path fill="none" stroke="black" stroke-width="2" d="M769.22,-67.1C792.2,-67.1 817.69,-67.1 837.83,-67.1"/>
<polygon fill="black" stroke="black" stroke-width="2" points="837.84,-70.6 847.84,-67.1 837.84,-63.6 837.84,-70.6"/>
<text text-anchor="middle" x="808.5" y="-70.9" font-family="Times,serif" font-size="14.00">&lt;enter&gt;</text>
</g>
<!-- to&#45;&gt;index -->
<g id="edge14" class="edge">
<title>to&#45;&gt;index</title>
<path fill="none" stroke="#ff8080" stroke-dasharray="5,2" d="M432.8,-132.56C429.16,-131.71 425.52,-130.88 422,-130.1 370.25,-118.67 357.67,-112.95 305,-107.1 235.83,-99.42 155.6,-98.49 103.31,-98.94"/>
<polygon fill="#ff8080" stroke="#ff8080" points="103.2,-95.44 93.24,-99.05 103.28,-102.44 103.2,-95.44"/>
<text text-anchor="middle" x="260" y="-110.9" font-family="Times,serif" font-size="14.00" fill="#c00000">empty/abort</text>
</g>
<!-- to&#45;&gt;alias_c -->
<g id="edge8" class="edge">
<title>to&#45;&gt;alias_c</title>
<path fill="none" stroke="black" stroke-width="2" d="M492.42,-153.83C502.58,-160.23 516.46,-167.74 530,-171.1 570.13,-181.05 616.85,-177.26 652.21,-171.41"/>
<polygon fill="black" stroke="black" stroke-width="2" points="653.09,-174.81 662.33,-169.63 651.87,-167.92 653.09,-174.81"/>
<text text-anchor="middle" x="584.5" y="-180.9" font-family="Times,serif" font-size="14.00">&lt;complete&gt;</text>
</g>
<!-- to&#45;&gt;subject -->
<g id="edge9" class="edge">
<title>to&#45;&gt;subject</title>
<path fill="none" stroke="black" stroke-width="2" d="M487.83,-132.59C497.92,-123.39 513.82,-110.4 530,-103.1 563.42,-88.03 603.23,-79.22 636.62,-74.09"/>
<polygon fill="black" stroke="black" stroke-width="2" points="637.37,-77.52 646.76,-72.61 636.36,-70.59 637.37,-77.52"/>
<text text-anchor="middle" x="584.5" y="-106.9" font-family="Times,serif" font-size="14.00">&lt;enter&gt;</text>
</g>
</g>
</svg>
