<?xml version="1.0" encoding="UTF-8" standalone="no"?>
<!DOCTYPE svg PUBLIC "-//W3C//DTD SVG 1.1//EN"
 "http://www.w3.org/Graphics/SVG/1.1/DTD/svg11.dtd">
<!-- Generated by graphviz version 2.48.0 (0)
 -->
<!-- Title: callgraph Pages: 1 -->
<svg width="875pt" height="197pt"
 viewBox="0.00 0.00 875.00 197.00" xmlns="http://www.w3.org/2000/svg" xmlns:xlink="http://www.w3.org/1999/xlink">
<g id="graph0" class="graph" transform="scale(1 1) rotate(0) translate(4 193)">
<title>callgraph</title>
<polygon fill="white" stroke="transparent" points="-4,4 -4,-193 871,-193 871,4 -4,4"/>
<!-- index -->
<g id="node1" class="node">
<title>index</title>
<path fill="#d0ffff" stroke="black" d="M7,-32.5C7,-32.5 86,-32.5 86,-32.5 89.5,-32.5 93,-36 93,-39.5 93,-39.5 93,-46.5 93,-46.5 93,-50 89.5,-53.5 86,-53.5 86,-53.5 7,-53.5 7,-53.5 3.5,-53.5 0,-50 0,-46.5 0,-46.5 0,-39.5 0,-39.5 0,-36 3.5,-32.5 7,-32.5"/>
<text text-anchor="middle" x="46.5" y="-39.9" font-family="Times,serif" font-size="12.00">Index Dialog</text>
</g>
<!-- to -->
<g id="node3" class="node">
<title>to</title>
<path fill="#d0ffff" stroke="black" d="M171,-99.5C171,-99.5 249,-99.5 249,-99.5 252.5,-99.5 256,-103 256,-106.5 256,-106.5 256,-113.5 256,-113.5 256,-117 252.5,-120.5 249,-120.5 249,-120.5 171,-120.5 171,-120.5 167.5,-120.5 164,-117 164,-113.5 164,-113.5 164,-106.5 164,-106.5 164,-103 167.5,-99.5 171,-99.5"/>
<text text-anchor="middle" x="210" y="-106.9" font-family="Times,serif" font-size="12.00">To: (prompt)</text>
</g>
<!-- index&#45;&gt;to -->
<g id="edge1" class="edge">
<title>index&#45;&gt;to</title>
<path fill="none" stroke="black" stroke-width="2" d="M73.09,-53.62C100.38,-64.94 143.76,-82.94 174.16,-95.54"/>
<polygon fill="black" stroke="black" stroke-width="2" points="172.95,-98.83 183.53,-99.43 175.63,-92.37 172.95,-98.83"/>
<text text-anchor="middle" x="128.5" y="-89.8" font-family="Times,serif" font-size="14.00">&lt;mail&gt;</text>
</g>
<!-- alias -->
<g id="node2" class="node">
<title>alias</title>
<path fill="#d0ffff" stroke="black" d="M473,-133.5C473,-133.5 549,-133.5 549,-133.5 552.5,-133.5 556,-137 556,-140.5 556,-140.5 556,-147.5 556,-147.5 556,-151 552.5,-154.5 549,-154.5 549,-154.5 473,-154.5 473,-154.5 469.5,-154.5 466,-151 466,-147.5 466,-147.5 466,-140.5 466,-140.5 466,-137 469.5,-133.5 473,-133.5"/>
<text text-anchor="middle" x="511" y="-140.9" font-family="Times,serif" font-size="12.00">Alias Dialog</text>
</g>
<!-- alias&#45;&gt;to -->
<g id="edge3" class="edge">
<title>alias&#45;&gt;to</title>
<path fill="none" stroke="black" stroke-width="2" d="M465.84,-141.94C405.77,-138.93 301.47,-132.94 264,-126 259.91,-125.24 255.68,-124.28 251.49,-123.21"/>
<polygon fill="black" stroke="black" stroke-width="2" points="252.4,-119.83 241.83,-120.55 250.54,-126.58 252.4,-119.83"/>
<text text-anchor="middle" x="353" y="-143.8" font-family="Times,serif" font-size="14.00">&lt;select&#45;entry&gt; / &lt;mail&gt;</text>
</g>
<!-- alias&#45;&gt;to -->
<g id="edge4" class="edge">
<title>alias&#45;&gt;to</title>
<path fill="none" stroke="#ff0000" stroke-width="2" d="M495.21,-133.43C481.98,-124.67 461.71,-112.89 442,-108 383.26,-93.41 313.49,-96.72 266.11,-101.89"/>
<polygon fill="#ff0000" stroke="#ff0000" stroke-width="2" points="265.59,-98.43 256.06,-103.05 266.39,-105.38 265.59,-98.43"/>
<text text-anchor="middle" x="353" y="-111.8" font-family="Times,serif" font-size="14.00" fill="#c00000">&lt;exit&gt;</text>
</g>
<!-- to&#45;&gt;alias -->
<g id="edge2" class="edge">
<title>to&#45;&gt;alias</title>
<path fill="none" stroke="black" stroke-width="2" d="M218.48,-120.88C227.6,-133.07 244.25,-152.15 264,-160 331.54,-186.83 417.71,-171.03 468.08,-157.35"/>
<polygon fill="black" stroke="black" stroke-width="2" points="469.29,-160.64 477.97,-154.56 467.39,-153.9 469.29,-160.64"/>
<text text-anchor="middle" x="353" y="-177.8" font-family="Times,serif" font-size="14.00">&lt;complete&gt;</text>
</g>
<!-- subject -->
<g id="node4" class="node">
<title>subject</title>
<path fill="#d0ffff" stroke="black" d="M457,-72.5C457,-72.5 565,-72.5 565,-72.5 568.5,-72.5 572,-76 572,-79.5 572,-79.5 572,-86.5 572,-86.5 572,-90 568.5,-93.5 565,-93.5 565,-93.5 457,-93.5 457,-93.5 453.5,-93.5 450,-90 450,-86.5 450,-86.5 450,-79.5 450,-79.5 450,-76 453.5,-72.5 457,-72.5"/>
<text text-anchor="middle" x="511" y="-79.9" font-family="Times,serif" font-size="12.00">Subject: (prompt)</text>
</g>
<!-- to&#45;&gt;subject -->
<g id="edge5" class="edge">
<title>to&#45;&gt;subject</title>
<path fill="none" stroke="black" stroke-width="2" d="M224,-99.37C234.18,-91.76 249.09,-82.15 264,-78 322.23,-61.78 391.25,-65.02 441.33,-71.16"/>
<polygon fill="black" stroke="black" stroke-width="2" points="441.04,-74.65 451.41,-72.47 441.94,-67.71 441.04,-74.65"/>
<text text-anchor="middle" x="353" y="-81.8" font-family="Times,serif" font-size="14.00">empty/abort</text>
</g>
<!-- editor -->
<g id="node5" class="node">
<title>editor</title>
<path fill="#d0ffff" stroke="black" d="M658,-68.5C658,-68.5 699,-68.5 699,-68.5 702.5,-68.5 706,-72 706,-75.5 706,-75.5 706,-82.5 706,-82.5 706,-86 702.5,-89.5 699,-89.5 699,-89.5 658,-89.5 658,-89.5 654.5,-89.5 651,-86 651,-82.5 651,-82.5 651,-75.5 651,-75.5 651,-72 654.5,-68.5 658,-68.5"/>
<text text-anchor="middle" x="678.5" y="-75.9" font-family="Times,serif" font-size="12.00">Editor</text>
</g>
<!-- subject&#45;&gt;editor -->
<g id="edge6" class="edge">
<title>subject&#45;&gt;editor</title>
<path fill="none" stroke="black" stroke-width="2" d="M572.22,-81.54C595.2,-80.99 620.69,-80.37 640.83,-79.89"/>
<polygon fill="black" stroke="black" stroke-width="2" points="640.93,-83.39 650.84,-79.64 640.76,-76.39 640.93,-83.39"/>
<text text-anchor="middle" x="611.5" y="-84.8" font-family="Times,serif" font-size="14.00">&lt;enter&gt;</text>
</g>
<!-- compose -->
<g id="node6" class="node">
<title>compose</title>
<path fill="#d0ffff" stroke="black" d="M758,-32.5C758,-32.5 860,-32.5 860,-32.5 863.5,-32.5 867,-36 867,-39.5 867,-39.5 867,-46.5 867,-46.5 867,-50 863.5,-53.5 860,-53.5 860,-53.5 758,-53.5 758,-53.5 754.5,-53.5 751,-50 751,-46.5 751,-46.5 751,-39.5 751,-39.5 751,-36 754.5,-32.5 758,-32.5"/>
<text text-anchor="middle" x="809" y="-39.9" font-family="Times,serif" font-size="12.00">Compose Dialog</text>
</g>
<!-- editor&#45;&gt;compose -->
<g id="edge7" class="edge">
<title>editor&#45;&gt;compose</title>
<path fill="none" stroke="black" stroke-width="2" d="M706.13,-71.54C721.83,-67.14 742.16,-61.45 760.53,-56.3"/>
<polygon fill="black" stroke="black" stroke-width="2" points="761.52,-59.66 770.2,-53.59 759.63,-52.92 761.52,-59.66"/>
<text text-anchor="middle" x="728.5" y="-71.8" font-family="Times,serif" font-size="14.00">quit</text>
</g>
<!-- compose&#45;&gt;index -->
<g id="edge8" class="edge">
<title>compose&#45;&gt;index</title>
<path fill="none" stroke="black" stroke-width="2" d="M750.75,-43C728.5,-43 702.81,-43 679.5,-43 209,-43 209,-43 209,-43 173.86,-43 134.42,-43 103.31,-43"/>
<polygon fill="black" stroke="black" stroke-width="2" points="103.1,-39.5 93.1,-43 103.1,-46.5 103.1,-39.5"/>
<text text-anchor="middle" x="511" y="-46.8" font-family="Times,serif" font-size="14.00">&lt;send&gt;</text>
</g>
<!-- compose&#45;&gt;index -->
<g id="edge9" class="edge">
<title>compose&#45;&gt;index</title>
<path fill="none" stroke="#ff0000" stroke-width="2" d="M789.07,-32.37C764.57,-19.64 720.2,0 679.5,0 209,0 209,0 209,0 163.38,0 112.87,-16.22 80.7,-28.74"/>
<polygon fill="#ff0000" stroke="#ff0000" stroke-width="2" points="79.31,-25.52 71.32,-32.48 81.91,-32.02 79.31,-25.52"/>
<text text-anchor="middle" x="511" y="-3.8" font-family="Times,serif" font-size="14.00" fill="#c00000">&lt;exit&gt;</text>
</g>
</g>
</svg>
