<?xml version="1.0" encoding="UTF-8" standalone="no"?>
<!DOCTYPE svg PUBLIC "-//W3C//DTD SVG 1.1//EN"
 "http://www.w3.org/Graphics/SVG/1.1/DTD/svg11.dtd">
<!-- Generated by graphviz version 2.48.0 (0)
 -->
<!-- Title: callgraph Pages: 1 -->
<svg width="924pt" height="154pt"
 viewBox="0.00 0.00 924.00 154.00" xmlns="http://www.w3.org/2000/svg" xmlns:xlink="http://www.w3.org/1999/xlink">
<g id="graph0" class="graph" transform="scale(1 1) rotate(0) translate(4 150)">
<title>callgraph</title>
<polygon fill="white" stroke="transparent" points="-4,4 -4,-150 920,-150 920,4 -4,4"/>
<!-- index -->
<g id="node1" class="node">
<title>index</title>
<path fill="#d0ffff" stroke="black" d="M7,-68.5C7,-68.5 86,-68.5 86,-68.5 89.5,-68.5 93,-72 93,-75.5 93,-75.5 93,-82.5 93,-82.5 93,-86 89.5,-89.5 86,-89.5 86,-89.5 7,-89.5 7,-89.5 3.5,-89.5 0,-86 0,-82.5 0,-82.5 0,-75.5 0,-75.5 0,-72 3.5,-68.5 7,-68.5"/>
<text text-anchor="middle" x="46.5" y="-75.9" font-family="Times,serif" font-size="12.00">Index Dialog</text>
</g>
<!-- alias -->
<g id="node2" class="node">
<title>alias</title>
<path fill="#d0ffff" stroke="black" d="M222,-108.5C222,-108.5 298,-108.5 298,-108.5 301.5,-108.5 305,-112 305,-115.5 305,-115.5 305,-122.5 305,-122.5 305,-126 301.5,-129.5 298,-129.5 298,-129.5 222,-129.5 222,-129.5 218.5,-129.5 215,-126 215,-122.5 215,-122.5 215,-115.5 215,-115.5 215,-112 218.5,-108.5 222,-108.5"/>
<text text-anchor="middle" x="260" y="-115.9" font-family="Times,serif" font-size="12.00">Alias Dialog</text>
</g>
<!-- index&#45;&gt;alias -->
<g id="edge3" class="edge">
<title>index&#45;&gt;alias</title>
<path fill="none" stroke="black" stroke-width="2" d="M56.48,-89.54C66.2,-100.07 82.79,-115.59 101,-122 134.02,-133.62 173.36,-132.92 204.53,-129.28"/>
<polygon fill="black" stroke="black" stroke-width="2" points="205.31,-132.71 214.77,-127.95 204.4,-125.77 205.31,-132.71"/>
<text text-anchor="middle" x="154" y="-134.8" font-family="Times,serif" font-size="14.00">&lt;alias&#45;dialog&gt;</text>
</g>
<!-- alias&#45;&gt;index -->
<g id="edge8" class="edge">
<title>alias&#45;&gt;index</title>
<path fill="none" stroke="#ff0000" stroke-width="2" d="M224.76,-108.43C218.87,-106.82 212.78,-105.26 207,-104 163.46,-94.48 149.79,-95.34 103.15,-88.29"/>
<polygon fill="#ff0000" stroke="#ff0000" stroke-width="2" points="103.44,-84.79 93.02,-86.71 102.37,-91.71 103.44,-84.79"/>
<text text-anchor="middle" x="154" y="-107.8" font-family="Times,serif" font-size="14.00" fill="#c00000">&lt;exit&gt;</text>
</g>
<!-- subject -->
<g id="node3" class="node">
<title>subject</title>
<path fill="#d0ffff" stroke="black" d="M506,-72.5C506,-72.5 614,-72.5 614,-72.5 617.5,-72.5 621,-76 621,-79.5 621,-79.5 621,-86.5 621,-86.5 621,-90 617.5,-93.5 614,-93.5 614,-93.5 506,-93.5 506,-93.5 502.5,-93.5 499,-90 499,-86.5 499,-86.5 499,-79.5 499,-79.5 499,-76 502.5,-72.5 506,-72.5"/>
<text text-anchor="middle" x="560" y="-79.9" font-family="Times,serif" font-size="12.00">Subject: (prompt)</text>
</g>
<!-- alias&#45;&gt;subject -->
<g id="edge4" class="edge">
<title>alias&#45;&gt;subject</title>
<path fill="none" stroke="black" stroke-width="2" d="M305.29,-113.65C353.78,-107.79 432.18,-98.32 489,-91.46"/>
<polygon fill="black" stroke="black" stroke-width="2" points="489.49,-94.92 498.99,-90.25 488.65,-87.97 489.49,-94.92"/>
<text text-anchor="middle" x="402" y="-115.8" font-family="Times,serif" font-size="14.00">&lt;select&#45;entry&gt; / &lt;mail&gt;</text>
</g>
<!-- subject&#45;&gt;index -->
<g id="edge7" class="edge">
<title>subject&#45;&gt;index</title>
<path fill="none" stroke="#ff0000" stroke-width="2" d="M498.64,-82.53C398.76,-81.75 200.49,-80.2 103.53,-79.44"/>
<polygon fill="#ff0000" stroke="#ff0000" stroke-width="2" points="103.37,-75.94 93.34,-79.36 103.31,-82.94 103.37,-75.94"/>
<text text-anchor="middle" x="260" y="-84.8" font-family="Times,serif" font-size="14.00" fill="#c00000">empty/abort</text>
</g>
<!-- editor -->
<g id="node4" class="node">
<title>editor</title>
<path fill="#d0ffff" stroke="black" d="M707,-68.5C707,-68.5 748,-68.5 748,-68.5 751.5,-68.5 755,-72 755,-75.5 755,-75.5 755,-82.5 755,-82.5 755,-86 751.5,-89.5 748,-89.5 748,-89.5 707,-89.5 707,-89.5 703.5,-89.5 700,-86 700,-82.5 700,-82.5 700,-75.5 700,-75.5 700,-72 703.5,-68.5 707,-68.5"/>
<text text-anchor="middle" x="727.5" y="-75.9" font-family="Times,serif" font-size="12.00">Editor</text>
</g>
<!-- subject&#45;&gt;editor -->
<g id="edge5" class="edge">
<title>subject&#45;&gt;editor</title>
<path fill="none" stroke="black" stroke-width="2" d="M621.22,-81.54C644.2,-80.99 669.69,-80.37 689.83,-79.89"/>
<polygon fill="black" stroke="black" stroke-width="2" points="689.93,-83.39 699.84,-79.64 689.76,-76.39 689.93,-83.39"/>
<text text-anchor="middle" x="660.5" y="-84.8" font-family="Times,serif" font-size="14.00">&lt;enter&gt;</text>
</g>
<!-- compose -->
<g id="node5" class="node">
<title>compose</title>
<path fill="#d0ffff" stroke="black" d="M807,-32.5C807,-32.5 909,-32.5 909,-32.5 912.5,-32.5 916,-36 916,-39.5 916,-39.5 916,-46.5 916,-46.5 916,-50 912.5,-53.5 909,-53.5 909,-53.5 807,-53.5 807,-53.5 803.5,-53.5 800,-50 800,-46.5 800,-46.5 800,-39.5 800,-39.5 800,-36 803.5,-32.5 807,-32.5"/>
<text text-anchor="middle" x="858" y="-39.9" font-family="Times,serif" font-size="12.00">Compose Dialog</text>
</g>
<!-- editor&#45;&gt;compose -->
<g id="edge6" class="edge">
<title>editor&#45;&gt;compose</title>
<path fill="none" stroke="black" stroke-width="2" d="M755.13,-71.54C770.83,-67.14 791.16,-61.45 809.53,-56.3"/>
<polygon fill="black" stroke="black" stroke-width="2" points="810.52,-59.66 819.2,-53.59 808.63,-52.92 810.52,-59.66"/>
<text text-anchor="middle" x="777.5" y="-71.8" font-family="Times,serif" font-size="14.00">quit</text>
</g>
<!-- compose&#45;&gt;index -->
<g id="edge1" class="edge">
<title>compose&#45;&gt;index</title>
<path fill="none" stroke="black" stroke-width="2" d="M799.75,-43C777.5,-43 751.81,-43 728.5,-43 259,-43 259,-43 259,-43 202.28,-43 138.19,-55.74 95.58,-66.06"/>
<polygon fill="black" stroke="black" stroke-width="2" points="94.63,-62.69 85.76,-68.49 96.31,-69.49 94.63,-62.69"/>
<text text-anchor="middle" x="560" y="-46.8" font-family="Times,serif" font-size="14.00">&lt;send&gt;</text>
</g>
<!-- compose&#45;&gt;index -->
<g id="edge2" class="edge">
<title>compose&#45;&gt;index</title>
<path fill="none" stroke="#ff0000" stroke-width="2" d="M838.07,-32.37C813.57,-19.64 769.2,0 728.5,0 259,0 259,0 259,0 186.22,0 167.18,-12.73 101,-43 89.89,-48.08 78.53,-55.37 69.15,-62.07"/>
<polygon fill="#ff0000" stroke="#ff0000" stroke-width="2" points="66.8,-59.45 60.84,-68.21 70.96,-65.08 66.8,-59.45"/>
<text text-anchor="middle" x="560" y="-3.8" font-family="Times,serif" font-size="14.00" fill="#c00000">&lt;exit&gt;</text>
</g>
</g>
</svg>
