<?xml version="1.0" encoding="UTF-8" standalone="no"?>
<!DOCTYPE svg PUBLIC "-//W3C//DTD SVG 1.1//EN"
 "http://www.w3.org/Graphics/SVG/1.1/DTD/svg11.dtd">
<!-- Generated by graphviz version 2.48.0 (0)
 -->
<!-- Title: enter_field Pages: 1 -->
<svg width="465pt" height="62pt"
 viewBox="0.00 0.00 465.00 62.00" xmlns="http://www.w3.org/2000/svg" xmlns:xlink="http://www.w3.org/1999/xlink">
<g id="graph0" class="graph" transform="scale(1 1) rotate(0) translate(4 58)">
<title>enter_field</title>
<polygon fill="white" stroke="transparent" points="-4,4 -4,-58 461,-58 461,4 -4,4"/>
<g id="clust1" class="cluster">
<title>cluster_key</title>
<polygon fill="#ccccff" stroke="#8080ff" points="8,-8 8,-46 449,-46 449,-8 8,-8"/>
</g>
<!-- ArrayOfFiles -->
<g id="node1" class="node">
<title>ArrayOfFiles</title>
<path fill="none" stroke="transparent" stroke-width="1.5" d="M164,-16.5C164,-16.5 259,-16.5 259,-16.5 262.5,-16.5 266,-20 266,-23.5 266,-23.5 266,-30.5 266,-30.5 266,-34 262.5,-37.5 259,-37.5 259,-37.5 164,-37.5 164,-37.5 160.5,-37.5 157,-34 157,-30.5 157,-30.5 157,-23.5 157,-23.5 157,-20 160.5,-16.5 164,-16.5"/>
<text text-anchor="start" x="165" y="-24.9" font-family="Times,serif" font-size="12.00" fill="red">●</text>
<text text-anchor="start" x="176" y="-24.9" font-family="Times,serif" font-size="12.00"> ArrayOfFiles</text>
</g>
<!-- Mailbox -->
<g id="node3" class="node">
<title>Mailbox</title>
<path fill="none" stroke="transparent" stroke-width="1.5" d="M281,-16.5C281,-16.5 346,-16.5 346,-16.5 349.5,-16.5 353,-20 353,-23.5 353,-23.5 353,-30.5 353,-30.5 353,-34 349.5,-37.5 346,-37.5 346,-37.5 281,-37.5 281,-37.5 277.5,-37.5 274,-34 274,-30.5 274,-30.5 274,-23.5 274,-23.5 274,-20 277.5,-16.5 281,-16.5"/>
<text text-anchor="start" x="282" y="-24.9" font-family="Times,serif" font-size="12.00" fill="magenta">▼</text>
<text text-anchor="start" x="292" y="-24.9" font-family="Times,serif" font-size="12.00"> Mailbox</text>
</g>
<!-- ArrayOfFiles&#45;&gt;Mailbox -->
<!-- CompletionFlags -->
<g id="node2" class="node">
<title>CompletionFlags</title>
<path fill="none" stroke="transparent" stroke-width="1.5" d="M23,-16.5C23,-16.5 142,-16.5 142,-16.5 145.5,-16.5 149,-20 149,-23.5 149,-23.5 149,-30.5 149,-30.5 149,-34 145.5,-37.5 142,-37.5 142,-37.5 23,-37.5 23,-37.5 19.5,-37.5 16,-34 16,-30.5 16,-30.5 16,-23.5 16,-23.5 16,-20 19.5,-16.5 23,-16.5"/>
<text text-anchor="start" x="24" y="-24.9" font-family="Times,serif" font-size="12.00" fill="blue">♣</text>
<text text-anchor="start" x="35" y="-24.9" font-family="Times,serif" font-size="12.00"> CompletionFlags</text>
</g>
<!-- CompletionFlags&#45;&gt;ArrayOfFiles -->
<!-- Multiple -->
<g id="node4" class="node">
<title>Multiple</title>
<path fill="none" stroke="transparent" stroke-width="1.5" d="M368,-16.5C368,-16.5 434,-16.5 434,-16.5 437.5,-16.5 441,-20 441,-23.5 441,-23.5 441,-30.5 441,-30.5 441,-34 437.5,-37.5 434,-37.5 434,-37.5 368,-37.5 368,-37.5 364.5,-37.5 361,-34 361,-30.5 361,-30.5 361,-23.5 361,-23.5 361,-20 364.5,-16.5 368,-16.5"/>
<text text-anchor="start" x="369" y="-24.9" font-family="Times,serif" font-size="12.00" fill="#00c000">★</text>
<text text-anchor="start" x="379" y="-24.9" font-family="Times,serif" font-size="12.00"> Multiple</text>
</g>
<!-- Mailbox&#45;&gt;Multiple -->
</g>
</svg>
