<?xml version="1.0" encoding="UTF-8" standalone="no"?>
<!DOCTYPE svg PUBLIC "-//W3C//DTD SVG 1.1//EN"
 "http://www.w3.org/Graphics/SVG/1.1/DTD/svg11.dtd">
<!-- Generated by graphviz version 2.48.0 (0)
 -->
<!-- Title: enter_field Pages: 1 -->
<svg width="1230pt" height="444pt"
 viewBox="0.00 0.00 1230.00 444.00" xmlns="http://www.w3.org/2000/svg" xmlns:xlink="http://www.w3.org/1999/xlink">
<g id="graph0" class="graph" transform="scale(1 1) rotate(0) translate(4 440)">
<title>enter_field</title>
<polygon fill="white" stroke="transparent" points="-4,4 -4,-440 1226,-440 1226,4 -4,4"/>
<!-- mutt_enter_fname -->
<g id="node1" class="node">
<title>mutt_enter_fname</title>
<path fill="none" stroke="black" stroke-width="1.5" d="M252,-108.5C252,-108.5 416,-108.5 416,-108.5 419.5,-108.5 423,-112 423,-115.5 423,-115.5 423,-122.5 423,-122.5 423,-126 419.5,-129.5 416,-129.5 416,-129.5 252,-129.5 252,-129.5 248.5,-129.5 245,-126 245,-122.5 245,-122.5 245,-115.5 245,-115.5 245,-112 248.5,-108.5 252,-108.5"/>
<text text-anchor="start" x="253" y="-116.9" font-family="Times,serif" font-size="12.00">enter_fname (8) </text>
<text text-anchor="start" x="353" y="-116.9" font-family="Times,serif" font-size="12.00" fill="red">1●</text>
<text text-anchor="start" x="372" y="-116.9" font-family="Times,serif" font-size="12.00"> </text>
<text text-anchor="start" x="376" y="-116.9" font-family="Times,serif" font-size="12.00" fill="#00c000">1★</text>
<text text-anchor="start" x="394" y="-116.9" font-family="Times,serif" font-size="12.00"> </text>
<text text-anchor="start" x="398" y="-116.9" font-family="Times,serif" font-size="12.00" fill="magenta">6▼</text>
</g>
<!-- mutt_get_field -->
<g id="node3" class="node">
<title>mutt_get_field</title>
<path fill="none" stroke="black" stroke-width="3" d="M466,-162.5C466,-162.5 643,-162.5 643,-162.5 646.5,-162.5 650,-166 650,-169.5 650,-169.5 650,-176.5 650,-176.5 650,-180 646.5,-183.5 643,-183.5 643,-183.5 466,-183.5 466,-183.5 462.5,-183.5 459,-180 459,-176.5 459,-176.5 459,-169.5 459,-169.5 459,-166 462.5,-162.5 466,-162.5"/>
<text text-anchor="start" x="467" y="-170.9" font-family="Times,serif" font-size="12.00">get_field (63) </text>
<text text-anchor="start" x="550" y="-170.9" font-family="Times,serif" font-size="12.00" fill="blue">30♣</text>
<text text-anchor="start" x="576" y="-170.9" font-family="Times,serif" font-size="12.00"> </text>
<text text-anchor="start" x="580" y="-170.9" font-family="Times,serif" font-size="12.00" fill="red">1●</text>
<text text-anchor="start" x="599" y="-170.9" font-family="Times,serif" font-size="12.00"> </text>
<text text-anchor="start" x="603" y="-170.9" font-family="Times,serif" font-size="12.00" fill="#00c000">1★</text>
<text text-anchor="start" x="621" y="-170.9" font-family="Times,serif" font-size="12.00"> </text>
<text text-anchor="start" x="625" y="-170.9" font-family="Times,serif" font-size="12.00" fill="magenta">1▼</text>
</g>
<!-- mutt_enter_fname&#45;&gt;mutt_get_field -->
<g id="edge4" class="edge">
<title>mutt_enter_fname&#45;&gt;mutt_get_field</title>
<path fill="none" stroke="black" d="M377.65,-129.54C414.49,-138.65 467.68,-151.79 505.91,-161.24"/>
<polygon fill="black" stroke="black" points="505.69,-162.99 510.96,-162.49 506.53,-159.59 505.69,-162.99"/>
</g>
<!-- mutt_select_file -->
<g id="node22" class="node">
<title>mutt_select_file</title>
<path fill="none" stroke="black" stroke-width="1.5" d="M903,-18.5C903,-18.5 1051,-18.5 1051,-18.5 1054.5,-18.5 1058,-22 1058,-25.5 1058,-25.5 1058,-32.5 1058,-32.5 1058,-36 1054.5,-39.5 1051,-39.5 1051,-39.5 903,-39.5 903,-39.5 899.5,-39.5 896,-36 896,-32.5 896,-32.5 896,-25.5 896,-25.5 896,-22 899.5,-18.5 903,-18.5"/>
<text text-anchor="start" x="904" y="-26.9" font-family="Times,serif" font-size="12.00">select_file (4) </text>
<text text-anchor="start" x="988" y="-26.9" font-family="Times,serif" font-size="12.00" fill="red">2●</text>
<text text-anchor="start" x="1007" y="-26.9" font-family="Times,serif" font-size="12.00"> </text>
<text text-anchor="start" x="1011" y="-26.9" font-family="Times,serif" font-size="12.00" fill="#00c000">2★</text>
<text text-anchor="start" x="1029" y="-26.9" font-family="Times,serif" font-size="12.00"> </text>
<text text-anchor="start" x="1033" y="-26.9" font-family="Times,serif" font-size="12.00" fill="magenta">4▼</text>
</g>
<!-- mutt_enter_fname&#45;&gt;mutt_select_file -->
<g id="edge5" class="edge">
<title>mutt_enter_fname&#45;&gt;mutt_select_file</title>
<path fill="none" stroke="black" d="M409.79,-108.5C531.45,-91.42 771.17,-57.76 896.07,-40.22"/>
<polygon fill="black" stroke="black" points="896.49,-41.93 901.2,-39.5 896,-38.47 896.49,-41.93"/>
</g>
<!-- mutt_enter_string -->
<g id="node2" class="node">
<title>mutt_enter_string</title>
<path fill="none" stroke="black" stroke-width="3" d="M693,-198.5C693,-198.5 853,-198.5 853,-198.5 856.5,-198.5 860,-202 860,-205.5 860,-205.5 860,-212.5 860,-212.5 860,-216 856.5,-219.5 853,-219.5 853,-219.5 693,-219.5 693,-219.5 689.5,-219.5 686,-216 686,-212.5 686,-212.5 686,-205.5 686,-205.5 686,-202 689.5,-198.5 693,-198.5"/>
<text text-anchor="start" x="694" y="-206.9" font-family="Times,serif" font-size="12.00">enter_string (1) </text>
<text text-anchor="start" x="791" y="-206.9" font-family="Times,serif" font-size="12.00" fill="blue">♣</text>
<text text-anchor="start" x="802" y="-206.9" font-family="Times,serif" font-size="12.00"> </text>
<text text-anchor="start" x="806" y="-206.9" font-family="Times,serif" font-size="12.00" fill="red">●</text>
<text text-anchor="start" x="817" y="-206.9" font-family="Times,serif" font-size="12.00"> </text>
<text text-anchor="start" x="821" y="-206.9" font-family="Times,serif" font-size="12.00" fill="#00c000">★</text>
<text text-anchor="start" x="831" y="-206.9" font-family="Times,serif" font-size="12.00"> </text>
<text text-anchor="start" x="835" y="-206.9" font-family="Times,serif" font-size="12.00" fill="magenta">1▼</text>
</g>
<!-- alias_complete -->
<g id="node12" class="node">
<title>alias_complete</title>
<path fill="none" stroke="black" stroke-width="1.5" d="M921,-414.5C921,-414.5 1033,-414.5 1033,-414.5 1036.5,-414.5 1040,-418 1040,-421.5 1040,-421.5 1040,-428.5 1040,-428.5 1040,-432 1036.5,-435.5 1033,-435.5 1033,-435.5 921,-435.5 921,-435.5 917.5,-435.5 914,-432 914,-428.5 914,-428.5 914,-421.5 914,-421.5 914,-418 917.5,-414.5 921,-414.5"/>
<text text-anchor="start" x="922" y="-421.9" font-family="Times,serif" font-size="12.00">alias_complete (1)</text>
</g>
<!-- mutt_enter_string&#45;&gt;alias_complete -->
<g id="edge6" class="edge">
<title>mutt_enter_string&#45;&gt;alias_complete</title>
<path fill="none" stroke="black" d="M777.25,-219.65C788.03,-253.14 826,-357.03 896,-407 900.08,-409.92 904.56,-412.37 909.24,-414.43"/>
<polygon fill="black" stroke="black" points="908.7,-416.1 913.99,-416.37 910.02,-412.86 908.7,-416.1"/>
</g>
<!-- dlg_select_pattern -->
<g id="node13" class="node">
<title>dlg_select_pattern</title>
<path fill="none" stroke="black" stroke-width="1.5" d="M911,-378.5C911,-378.5 1043,-378.5 1043,-378.5 1046.5,-378.5 1050,-382 1050,-385.5 1050,-385.5 1050,-392.5 1050,-392.5 1050,-396 1046.5,-399.5 1043,-399.5 1043,-399.5 911,-399.5 911,-399.5 907.5,-399.5 904,-396 904,-392.5 904,-392.5 904,-385.5 904,-385.5 904,-382 907.5,-378.5 911,-378.5"/>
<text text-anchor="start" x="912" y="-385.9" font-family="Times,serif" font-size="12.00">dlg_select_pattern (1)</text>
</g>
<!-- mutt_enter_string&#45;&gt;dlg_select_pattern -->
<g id="edge7" class="edge">
<title>mutt_enter_string&#45;&gt;dlg_select_pattern</title>
<path fill="none" stroke="black" d="M778.77,-219.76C792.39,-249.16 834.48,-331.28 896,-371 899.12,-373.02 902.44,-374.81 905.89,-376.4"/>
<polygon fill="black" stroke="black" points="905.37,-378.09 910.65,-378.46 906.75,-374.87 905.37,-378.09"/>
</g>
<!-- mutt_command_complete -->
<g id="node15" class="node">
<title>mutt_command_complete</title>
<path fill="none" stroke="black" stroke-width="1.5" d="M905.5,-342.5C905.5,-342.5 1048.5,-342.5 1048.5,-342.5 1052,-342.5 1055.5,-346 1055.5,-349.5 1055.5,-349.5 1055.5,-356.5 1055.5,-356.5 1055.5,-360 1052,-363.5 1048.5,-363.5 1048.5,-363.5 905.5,-363.5 905.5,-363.5 902,-363.5 898.5,-360 898.5,-356.5 898.5,-356.5 898.5,-349.5 898.5,-349.5 898.5,-346 902,-342.5 905.5,-342.5"/>
<text text-anchor="start" x="906.5" y="-349.9" font-family="Times,serif" font-size="12.00">command_complete (1)</text>
</g>
<!-- mutt_enter_string&#45;&gt;mutt_command_complete -->
<g id="edge8" class="edge">
<title>mutt_enter_string&#45;&gt;mutt_command_complete</title>
<path fill="none" stroke="black" d="M781.08,-219.8C797.86,-244.45 842.63,-305.05 896,-335 899.75,-337.1 903.72,-338.96 907.82,-340.6"/>
<polygon fill="black" stroke="black" points="907.39,-342.31 912.68,-342.43 908.62,-339.03 907.39,-342.31"/>
</g>
<!-- mutt_complete -->
<g id="node16" class="node">
<title>mutt_complete</title>
<path fill="none" stroke="black" stroke-width="1.5" d="M938,-306.5C938,-306.5 1016,-306.5 1016,-306.5 1019.5,-306.5 1023,-310 1023,-313.5 1023,-313.5 1023,-320.5 1023,-320.5 1023,-324 1019.5,-327.5 1016,-327.5 1016,-327.5 938,-327.5 938,-327.5 934.5,-327.5 931,-324 931,-320.5 931,-320.5 931,-313.5 931,-313.5 931,-310 934.5,-306.5 938,-306.5"/>
<text text-anchor="start" x="939" y="-313.9" font-family="Times,serif" font-size="12.00">complete (2)</text>
</g>
<!-- mutt_enter_string&#45;&gt;mutt_complete -->
<g id="edge9" class="edge">
<title>mutt_enter_string&#45;&gt;mutt_complete</title>
<path fill="none" stroke="black" d="M785.08,-219.72C805.34,-238.71 850.51,-278.22 896,-299 905.35,-303.27 915.78,-306.56 925.95,-309.09"/>
<polygon fill="black" stroke="black" points="925.65,-310.82 930.92,-310.27 926.46,-307.41 925.65,-310.82"/>
</g>
<!-- mutt_hist_complete -->
<g id="node17" class="node">
<title>mutt_hist_complete</title>
<path fill="none" stroke="black" stroke-width="1.5" d="M924.5,-270.5C924.5,-270.5 1029.5,-270.5 1029.5,-270.5 1033,-270.5 1036.5,-274 1036.5,-277.5 1036.5,-277.5 1036.5,-284.5 1036.5,-284.5 1036.5,-288 1033,-291.5 1029.5,-291.5 1029.5,-291.5 924.5,-291.5 924.5,-291.5 921,-291.5 917.5,-288 917.5,-284.5 917.5,-284.5 917.5,-277.5 917.5,-277.5 917.5,-274 921,-270.5 924.5,-270.5"/>
<text text-anchor="start" x="925.5" y="-277.9" font-family="Times,serif" font-size="12.00">hist_complete (1)</text>
</g>
<!-- mutt_enter_string&#45;&gt;mutt_hist_complete -->
<g id="edge10" class="edge">
<title>mutt_enter_string&#45;&gt;mutt_hist_complete</title>
<path fill="none" stroke="black" d="M794.67,-219.64C818.54,-231.58 859.27,-250.87 896,-263 902.81,-265.25 910.04,-267.31 917.25,-269.17"/>
<polygon fill="black" stroke="black" points="916.97,-270.9 922.24,-270.43 917.82,-267.51 916.97,-270.9"/>
</g>
<!-- mutt_label_complete -->
<g id="node18" class="node">
<title>mutt_label_complete</title>
<path fill="none" stroke="black" stroke-width="1.5" d="M920.5,-234.5C920.5,-234.5 1033.5,-234.5 1033.5,-234.5 1037,-234.5 1040.5,-238 1040.5,-241.5 1040.5,-241.5 1040.5,-248.5 1040.5,-248.5 1040.5,-252 1037,-255.5 1033.5,-255.5 1033.5,-255.5 920.5,-255.5 920.5,-255.5 917,-255.5 913.5,-252 913.5,-248.5 913.5,-248.5 913.5,-241.5 913.5,-241.5 913.5,-238 917,-234.5 920.5,-234.5"/>
<text text-anchor="start" x="921.5" y="-241.9" font-family="Times,serif" font-size="12.00">label_complete (2)</text>
</g>
<!-- mutt_enter_string&#45;&gt;mutt_label_complete -->
<g id="edge11" class="edge">
<title>mutt_enter_string&#45;&gt;mutt_label_complete</title>
<path fill="none" stroke="black" d="M832.97,-219.51C857.75,-223.93 886.64,-229.08 911.95,-233.58"/>
<polygon fill="black" stroke="black" points="911.73,-235.32 916.96,-234.48 912.34,-231.88 911.73,-235.32"/>
</g>
<!-- mutt_mailbox_next -->
<g id="node19" class="node">
<title>mutt_mailbox_next</title>
<path fill="none" stroke="black" stroke-width="1.5" d="M926,-198.5C926,-198.5 1028,-198.5 1028,-198.5 1031.5,-198.5 1035,-202 1035,-205.5 1035,-205.5 1035,-212.5 1035,-212.5 1035,-216 1031.5,-219.5 1028,-219.5 1028,-219.5 926,-219.5 926,-219.5 922.5,-219.5 919,-216 919,-212.5 919,-212.5 919,-205.5 919,-205.5 919,-202 922.5,-198.5 926,-198.5"/>
<text text-anchor="start" x="927" y="-205.9" font-family="Times,serif" font-size="12.00">mailbox_next (3)</text>
</g>
<!-- mutt_enter_string&#45;&gt;mutt_mailbox_next -->
<g id="edge12" class="edge">
<title>mutt_enter_string&#45;&gt;mutt_mailbox_next</title>
<path fill="none" stroke="black" d="M860.25,-209C878.23,-209 896.85,-209 913.75,-209"/>
<polygon fill="black" stroke="black" points="913.94,-210.75 918.94,-209 913.94,-207.25 913.94,-210.75"/>
</g>
<!-- mutt_nm_query_complete -->
<g id="node20" class="node">
<title>mutt_nm_query_complete</title>
<path fill="none" stroke="black" stroke-width="1.5" d="M905.5,-162.5C905.5,-162.5 1048.5,-162.5 1048.5,-162.5 1052,-162.5 1055.5,-166 1055.5,-169.5 1055.5,-169.5 1055.5,-176.5 1055.5,-176.5 1055.5,-180 1052,-183.5 1048.5,-183.5 1048.5,-183.5 905.5,-183.5 905.5,-183.5 902,-183.5 898.5,-180 898.5,-176.5 898.5,-176.5 898.5,-169.5 898.5,-169.5 898.5,-166 902,-162.5 905.5,-162.5"/>
<text text-anchor="start" x="906.5" y="-169.9" font-family="Times,serif" font-size="12.00">nm_query_complete (1)</text>
</g>
<!-- mutt_enter_string&#45;&gt;mutt_nm_query_complete -->
<g id="edge13" class="edge">
<title>mutt_enter_string&#45;&gt;mutt_nm_query_complete</title>
<path fill="none" stroke="black" d="M832.97,-198.49C857.75,-194.07 886.64,-188.92 911.95,-184.42"/>
<polygon fill="black" stroke="black" points="912.34,-186.12 916.96,-183.52 911.73,-182.68 912.34,-186.12"/>
</g>
<!-- mutt_nm_tag_complete -->
<g id="node21" class="node">
<title>mutt_nm_tag_complete</title>
<path fill="none" stroke="black" stroke-width="1.5" d="M913,-126.5C913,-126.5 1041,-126.5 1041,-126.5 1044.5,-126.5 1048,-130 1048,-133.5 1048,-133.5 1048,-140.5 1048,-140.5 1048,-144 1044.5,-147.5 1041,-147.5 1041,-147.5 913,-147.5 913,-147.5 909.5,-147.5 906,-144 906,-140.5 906,-140.5 906,-133.5 906,-133.5 906,-130 909.5,-126.5 913,-126.5"/>
<text text-anchor="start" x="914" y="-133.9" font-family="Times,serif" font-size="12.00">nm_tag_complete (1)</text>
</g>
<!-- mutt_enter_string&#45;&gt;mutt_nm_tag_complete -->
<g id="edge14" class="edge">
<title>mutt_enter_string&#45;&gt;mutt_nm_tag_complete</title>
<path fill="none" stroke="black" d="M794.67,-198.36C818.54,-186.42 859.27,-167.13 896,-155 902.81,-152.75 910.04,-150.69 917.25,-148.83"/>
<polygon fill="black" stroke="black" points="917.82,-150.49 922.24,-147.57 916.97,-147.1 917.82,-150.49"/>
</g>
<!-- mutt_enter_string&#45;&gt;mutt_select_file -->
<g id="edge15" class="edge">
<title>mutt_enter_string&#45;&gt;mutt_select_file</title>
<path fill="none" stroke="black" d="M784.91,-198.32C802.12,-181.13 836.09,-145.81 860,-112 879.07,-85.04 869.57,-66.81 896,-47 898.54,-45.1 901.25,-43.39 904.07,-41.85"/>
<polygon fill="black" stroke="black" points="904.91,-43.39 908.6,-39.58 903.34,-40.26 904.91,-43.39"/>
</g>
<!-- mutt_var_value_complete -->
<g id="node23" class="node">
<title>mutt_var_value_complete</title>
<path fill="none" stroke="black" stroke-width="1.5" d="M906,-90.5C906,-90.5 1048,-90.5 1048,-90.5 1051.5,-90.5 1055,-94 1055,-97.5 1055,-97.5 1055,-104.5 1055,-104.5 1055,-108 1051.5,-111.5 1048,-111.5 1048,-111.5 906,-111.5 906,-111.5 902.5,-111.5 899,-108 899,-104.5 899,-104.5 899,-97.5 899,-97.5 899,-94 902.5,-90.5 906,-90.5"/>
<text text-anchor="start" x="907" y="-97.9" font-family="Times,serif" font-size="12.00">var_value_complete (1)</text>
</g>
<!-- mutt_enter_string&#45;&gt;mutt_var_value_complete -->
<g id="edge16" class="edge">
<title>mutt_enter_string&#45;&gt;mutt_var_value_complete</title>
<path fill="none" stroke="black" d="M785.08,-198.28C805.34,-179.29 850.51,-139.78 896,-119 900.86,-116.78 906.01,-114.83 911.27,-113.11"/>
<polygon fill="black" stroke="black" points="911.87,-114.75 916.12,-111.59 910.82,-111.41 911.87,-114.75"/>
</g>
<!-- query_complete -->
<g id="node25" class="node">
<title>query_complete</title>
<path fill="none" stroke="black" stroke-width="1.5" d="M918,-54.5C918,-54.5 1036,-54.5 1036,-54.5 1039.5,-54.5 1043,-58 1043,-61.5 1043,-61.5 1043,-68.5 1043,-68.5 1043,-72 1039.5,-75.5 1036,-75.5 1036,-75.5 918,-75.5 918,-75.5 914.5,-75.5 911,-72 911,-68.5 911,-68.5 911,-61.5 911,-61.5 911,-58 914.5,-54.5 918,-54.5"/>
<text text-anchor="start" x="919" y="-61.9" font-family="Times,serif" font-size="12.00">query_complete (1)</text>
</g>
<!-- mutt_enter_string&#45;&gt;query_complete -->
<g id="edge17" class="edge">
<title>mutt_enter_string&#45;&gt;query_complete</title>
<path fill="none" stroke="black" d="M783.01,-198.21C806.32,-170.58 868.65,-98.35 896,-83 899.75,-80.9 903.72,-79.04 907.82,-77.4"/>
<polygon fill="black" stroke="black" points="908.62,-78.97 912.68,-75.57 907.39,-75.69 908.62,-78.97"/>
</g>
<!-- mutt_get_field&#45;&gt;mutt_enter_string -->
<g id="edge18" class="edge">
<title>mutt_get_field&#45;&gt;mutt_enter_string</title>
<path fill="none" stroke="black" d="M618.7,-183.51C645.37,-187.94 676.49,-193.12 703.69,-197.64"/>
<polygon fill="black" stroke="black" points="703.5,-199.38 708.72,-198.48 704.07,-195.93 703.5,-199.38"/>
</g>
<!-- mutt_get_field_unbuffered -->
<g id="node4" class="node">
<title>mutt_get_field_unbuffered</title>
<path fill="none" stroke="black" stroke-width="1.5" d="M261.5,-162.5C261.5,-162.5 406.5,-162.5 406.5,-162.5 410,-162.5 413.5,-166 413.5,-169.5 413.5,-169.5 413.5,-176.5 413.5,-176.5 413.5,-180 410,-183.5 406.5,-183.5 406.5,-183.5 261.5,-183.5 261.5,-183.5 258,-183.5 254.5,-180 254.5,-176.5 254.5,-176.5 254.5,-169.5 254.5,-169.5 254.5,-166 258,-162.5 261.5,-162.5"/>
<text text-anchor="start" x="262.5" y="-169.9" font-family="Times,serif" font-size="12.00">get_field_unbuffered (4)</text>
</g>
<!-- mutt_get_field_unbuffered&#45;&gt;mutt_get_field -->
<g id="edge19" class="edge">
<title>mutt_get_field_unbuffered&#45;&gt;mutt_get_field</title>
<path fill="none" stroke="black" d="M413.57,-173C426.54,-173 440.12,-173 453.52,-173"/>
<polygon fill="black" stroke="black" points="453.85,-174.75 458.85,-173 453.85,-171.25 453.85,-174.75"/>
</g>
<!-- op_compose_attach_file -->
<g id="node5" class="node">
<title>op_compose_attach_file</title>
<path fill="none" stroke="black" stroke-width="1.5" d="M7,-216.5C7,-216.5 202,-216.5 202,-216.5 205.5,-216.5 209,-220 209,-223.5 209,-223.5 209,-230.5 209,-230.5 209,-234 205.5,-237.5 202,-237.5 202,-237.5 7,-237.5 7,-237.5 3.5,-237.5 0,-234 0,-230.5 0,-230.5 0,-223.5 0,-223.5 0,-220 3.5,-216.5 7,-216.5"/>
<text text-anchor="start" x="8" y="-224.9" font-family="Times,serif" font-size="12.00">op_compose_attach_file (1) </text>
<text text-anchor="start" x="176" y="-224.9" font-family="Times,serif" font-size="12.00" fill="red">●</text>
<text text-anchor="start" x="187" y="-224.9" font-family="Times,serif" font-size="12.00"> </text>
<text text-anchor="start" x="191" y="-224.9" font-family="Times,serif" font-size="12.00" fill="#00c000">★</text>
</g>
<!-- op_compose_attach_file&#45;&gt;mutt_enter_fname -->
<g id="edge20" class="edge">
<title>op_compose_attach_file&#45;&gt;mutt_enter_fname</title>
<path fill="none" stroke="black" d="M194.86,-216.45C199.81,-214.35 204.57,-211.89 209,-209 233.17,-193.25 222.67,-173.26 245,-155 257.63,-144.67 273.62,-136.95 288.5,-131.37"/>
<polygon fill="black" stroke="black" points="289.39,-132.91 293.49,-129.55 288.2,-129.62 289.39,-132.91"/>
</g>
<!-- mutt_autocrypt_scan_mailboxes -->
<g id="node6" class="node">
<title>mutt_autocrypt_scan_mailboxes</title>
<path fill="none" stroke="black" stroke-width="1.5" d="M17,-180.5C17,-180.5 192,-180.5 192,-180.5 195.5,-180.5 199,-184 199,-187.5 199,-187.5 199,-194.5 199,-194.5 199,-198 195.5,-201.5 192,-201.5 192,-201.5 17,-201.5 17,-201.5 13.5,-201.5 10,-198 10,-194.5 10,-194.5 10,-187.5 10,-187.5 10,-184 13.5,-180.5 17,-180.5"/>
<text text-anchor="start" x="18" y="-188.9" font-family="Times,serif" font-size="12.00">autocrypt_scan_mailboxes </text>
<text text-anchor="start" x="181" y="-188.9" font-family="Times,serif" font-size="12.00" fill="magenta">▼</text>
</g>
<!-- mutt_autocrypt_scan_mailboxes&#45;&gt;mutt_enter_fname -->
<g id="edge1" class="edge">
<title>mutt_autocrypt_scan_mailboxes&#45;&gt;mutt_enter_fname</title>
<path fill="none" stroke="black" d="M181.32,-180.45C190.74,-178.37 200.16,-175.91 209,-173 225.99,-167.41 228.71,-162.39 245,-155 263.25,-146.72 283.99,-138.19 300.75,-131.52"/>
<polygon fill="black" stroke="black" points="301.81,-132.98 305.82,-129.51 300.52,-129.72 301.81,-132.98"/>
</g>
<!-- op_compose_attach_message -->
<g id="node7" class="node">
<title>op_compose_attach_message</title>
<path fill="none" stroke="black" stroke-width="1.5" d="M8,-144.5C8,-144.5 201,-144.5 201,-144.5 204.5,-144.5 208,-148 208,-151.5 208,-151.5 208,-158.5 208,-158.5 208,-162 204.5,-165.5 201,-165.5 201,-165.5 8,-165.5 8,-165.5 4.5,-165.5 1,-162 1,-158.5 1,-158.5 1,-151.5 1,-151.5 1,-148 4.5,-144.5 8,-144.5"/>
<text text-anchor="start" x="9" y="-152.9" font-family="Times,serif" font-size="12.00">op_compose_attach_message </text>
<text text-anchor="start" x="190" y="-152.9" font-family="Times,serif" font-size="12.00" fill="magenta">▼</text>
</g>
<!-- op_compose_attach_message&#45;&gt;mutt_enter_fname -->
<g id="edge21" class="edge">
<title>op_compose_attach_message&#45;&gt;mutt_enter_fname</title>
<path fill="none" stroke="black" d="M171.91,-144.49C199.94,-140.06 232.63,-134.88 261.22,-130.36"/>
<polygon fill="black" stroke="black" points="261.84,-132.03 266.5,-129.52 261.29,-128.58 261.84,-132.03"/>
</g>
<!-- op_compose_write_message -->
<g id="node8" class="node">
<title>op_compose_write_message</title>
<path fill="none" stroke="black" stroke-width="1.5" d="M11.5,-108.5C11.5,-108.5 197.5,-108.5 197.5,-108.5 201,-108.5 204.5,-112 204.5,-115.5 204.5,-115.5 204.5,-122.5 204.5,-122.5 204.5,-126 201,-129.5 197.5,-129.5 197.5,-129.5 11.5,-129.5 11.5,-129.5 8,-129.5 4.5,-126 4.5,-122.5 4.5,-122.5 4.5,-115.5 4.5,-115.5 4.5,-112 8,-108.5 11.5,-108.5"/>
<text text-anchor="start" x="12.5" y="-116.9" font-family="Times,serif" font-size="12.00">op_compose_write_message </text>
<text text-anchor="start" x="186.5" y="-116.9" font-family="Times,serif" font-size="12.00" fill="magenta">▼</text>
</g>
<!-- op_compose_write_message&#45;&gt;mutt_enter_fname -->
<g id="edge22" class="edge">
<title>op_compose_write_message&#45;&gt;mutt_enter_fname</title>
<path fill="none" stroke="black" d="M204.62,-119C216.25,-119 228.09,-119 239.64,-119"/>
<polygon fill="black" stroke="black" points="239.92,-120.75 244.92,-119 239.92,-117.25 239.92,-120.75"/>
</g>
<!-- op_main_change_folder -->
<g id="node9" class="node">
<title>op_main_change_folder</title>
<path fill="none" stroke="black" stroke-width="1.5" d="M25,-72.5C25,-72.5 184,-72.5 184,-72.5 187.5,-72.5 191,-76 191,-79.5 191,-79.5 191,-86.5 191,-86.5 191,-90 187.5,-93.5 184,-93.5 184,-93.5 25,-93.5 25,-93.5 21.5,-93.5 18,-90 18,-86.5 18,-86.5 18,-79.5 18,-79.5 18,-76 21.5,-72.5 25,-72.5"/>
<text text-anchor="start" x="26" y="-80.9" font-family="Times,serif" font-size="12.00">op_main_change_folder </text>
<text text-anchor="start" x="173" y="-80.9" font-family="Times,serif" font-size="12.00" fill="magenta">▼</text>
</g>
<!-- op_main_change_folder&#45;&gt;mutt_enter_fname -->
<g id="edge23" class="edge">
<title>op_main_change_folder&#45;&gt;mutt_enter_fname</title>
<path fill="none" stroke="black" d="M171.91,-93.51C199.94,-97.94 232.63,-103.12 261.22,-107.64"/>
<polygon fill="black" stroke="black" points="261.29,-109.42 266.5,-108.48 261.84,-105.97 261.29,-109.42"/>
</g>
<!-- op_main_change_group -->
<g id="node10" class="node">
<title>op_main_change_group</title>
<path fill="none" stroke="black" stroke-width="1.5" d="M25,-36.5C25,-36.5 184,-36.5 184,-36.5 187.5,-36.5 191,-40 191,-43.5 191,-43.5 191,-50.5 191,-50.5 191,-54 187.5,-57.5 184,-57.5 184,-57.5 25,-57.5 25,-57.5 21.5,-57.5 18,-54 18,-50.5 18,-50.5 18,-43.5 18,-43.5 18,-40 21.5,-36.5 25,-36.5"/>
<text text-anchor="start" x="26" y="-44.9" font-family="Times,serif" font-size="12.00">op_main_change_group </text>
<text text-anchor="start" x="173" y="-44.9" font-family="Times,serif" font-size="12.00" fill="magenta">▼</text>
</g>
<!-- op_main_change_group&#45;&gt;mutt_enter_fname -->
<g id="edge24" class="edge">
<title>op_main_change_group&#45;&gt;mutt_enter_fname</title>
<path fill="none" stroke="black" d="M178.95,-57.53C189.13,-59.64 199.39,-62.12 209,-65 244.63,-75.69 283.66,-93.83 308.22,-106.11"/>
<polygon fill="black" stroke="black" points="307.69,-107.8 312.94,-108.48 309.26,-104.67 307.69,-107.8"/>
</g>
<!-- save_fcc -->
<g id="node11" class="node">
<title>save_fcc</title>
<path fill="none" stroke="black" stroke-width="1.5" d="M71,-0.5C71,-0.5 138,-0.5 138,-0.5 141.5,-0.5 145,-4 145,-7.5 145,-7.5 145,-14.5 145,-14.5 145,-18 141.5,-21.5 138,-21.5 138,-21.5 71,-21.5 71,-21.5 67.5,-21.5 64,-18 64,-14.5 64,-14.5 64,-7.5 64,-7.5 64,-4 67.5,-0.5 71,-0.5"/>
<text text-anchor="start" x="72" y="-8.9" font-family="Times,serif" font-size="12.00">save_fcc </text>
<text text-anchor="start" x="127" y="-8.9" font-family="Times,serif" font-size="12.00" fill="magenta">▼</text>
</g>
<!-- save_fcc&#45;&gt;mutt_enter_fname -->
<g id="edge25" class="edge">
<title>save_fcc&#45;&gt;mutt_enter_fname</title>
<path fill="none" stroke="black" d="M145.03,-13.63C164.84,-15.99 188.84,-20.48 209,-29 253.05,-47.63 296.4,-84.49 318.29,-104.78"/>
<polygon fill="black" stroke="black" points="317.28,-106.23 322.13,-108.37 319.67,-103.67 317.28,-106.23"/>
</g>
<!-- imap_complete -->
<g id="node14" class="node">
<title>imap_complete</title>
<path fill="none" stroke="black" stroke-width="1.5" d="M1101,-324.5C1101,-324.5 1215,-324.5 1215,-324.5 1218.5,-324.5 1222,-328 1222,-331.5 1222,-331.5 1222,-338.5 1222,-338.5 1222,-342 1218.5,-345.5 1215,-345.5 1215,-345.5 1101,-345.5 1101,-345.5 1097.5,-345.5 1094,-342 1094,-338.5 1094,-338.5 1094,-331.5 1094,-331.5 1094,-328 1097.5,-324.5 1101,-324.5"/>
<text text-anchor="start" x="1102" y="-331.9" font-family="Times,serif" font-size="12.00">imap_complete (1)</text>
</g>
<!-- mutt_complete&#45;&gt;imap_complete -->
<g id="edge2" class="edge">
<title>mutt_complete&#45;&gt;imap_complete</title>
<path fill="none" stroke="black" d="M1023.17,-321.54C1043.02,-323.54 1066.76,-325.93 1088.69,-328.13"/>
<polygon fill="black" stroke="black" points="1088.78,-329.9 1093.93,-328.66 1089.13,-326.42 1088.78,-329.9"/>
</g>
<!-- nntp_complete -->
<g id="node24" class="node">
<title>nntp_complete</title>
<path fill="none" stroke="black" stroke-width="1.5" d="M1102.5,-288.5C1102.5,-288.5 1213.5,-288.5 1213.5,-288.5 1217,-288.5 1220.5,-292 1220.5,-295.5 1220.5,-295.5 1220.5,-302.5 1220.5,-302.5 1220.5,-306 1217,-309.5 1213.5,-309.5 1213.5,-309.5 1102.5,-309.5 1102.5,-309.5 1099,-309.5 1095.5,-306 1095.5,-302.5 1095.5,-302.5 1095.5,-295.5 1095.5,-295.5 1095.5,-292 1099,-288.5 1102.5,-288.5"/>
<text text-anchor="start" x="1103.5" y="-295.9" font-family="Times,serif" font-size="12.00">nntp_complete (1)</text>
</g>
<!-- mutt_complete&#45;&gt;nntp_complete -->
<g id="edge3" class="edge">
<title>mutt_complete&#45;&gt;nntp_complete</title>
<path fill="none" stroke="black" d="M1023.17,-312.46C1043.49,-310.41 1067.88,-307.96 1090.24,-305.71"/>
<polygon fill="black" stroke="black" points="1090.48,-307.45 1095.28,-305.21 1090.13,-303.97 1090.48,-307.45"/>
</g>
</g>
</svg>
