<?xml version="1.0" encoding="UTF-8" standalone="no"?>
<!DOCTYPE svg PUBLIC "-//W3C//DTD SVG 1.1//EN"
 "http://www.w3.org/Graphics/SVG/1.1/DTD/svg11.dtd">
<!-- Generated by graphviz version 2.48.0 (0)
 -->
<!-- Title: enter_field Pages: 1 -->
<svg width="433pt" height="30pt"
 viewBox="0.00 0.00 433.00 30.00" xmlns="http://www.w3.org/2000/svg" xmlns:xlink="http://www.w3.org/1999/xlink">
<g id="graph0" class="graph" transform="scale(1 1) rotate(0) translate(4 26)">
<title>enter_field</title>
<polygon fill="white" stroke="transparent" points="-4,4 -4,-26 429,-26 429,4 -4,4"/>
<!-- ArrayOfFiles -->
<g id="node1" class="node">
<title>ArrayOfFiles</title>
<path fill="none" stroke="transparent" stroke-width="1.5" d="M148,-0.5C148,-0.5 243,-0.5 243,-0.5 246.5,-0.5 250,-4 250,-7.5 250,-7.5 250,-14.5 250,-14.5 250,-18 246.5,-21.5 243,-21.5 243,-21.5 148,-21.5 148,-21.5 144.5,-21.5 141,-18 141,-14.5 141,-14.5 141,-7.5 141,-7.5 141,-4 144.5,-0.5 148,-0.5"/>
<text text-anchor="start" x="149" y="-8.9" font-family="Times,serif" font-size="12.00" fill="red">●</text>
<text text-anchor="start" x="160" y="-8.9" font-family="Times,serif" font-size="12.00"> ArrayOfFiles</text>
</g>
<!-- Mailbox -->
<g id="node3" class="node">
<title>Mailbox</title>
<path fill="none" stroke="transparent" stroke-width="1.5" d="M265,-0.5C265,-0.5 330,-0.5 330,-0.5 333.5,-0.5 337,-4 337,-7.5 337,-7.5 337,-14.5 337,-14.5 337,-18 333.5,-21.5 330,-21.5 330,-21.5 265,-21.5 265,-21.5 261.5,-21.5 258,-18 258,-14.5 258,-14.5 258,-7.5 258,-7.5 258,-4 261.5,-0.5 265,-0.5"/>
<text text-anchor="start" x="266" y="-8.9" font-family="Times,serif" font-size="12.00" fill="magenta">▼</text>
<text text-anchor="start" x="276" y="-8.9" font-family="Times,serif" font-size="12.00"> Mailbox</text>
</g>
<!-- ArrayOfFiles&#45;&gt;Mailbox -->
<!-- CompletionFlags -->
<g id="node2" class="node">
<title>CompletionFlags</title>
<path fill="none" stroke="transparent" stroke-width="1.5" d="M7,-0.5C7,-0.5 126,-0.5 126,-0.5 129.5,-0.5 133,-4 133,-7.5 133,-7.5 133,-14.5 133,-14.5 133,-18 129.5,-21.5 126,-21.5 126,-21.5 7,-21.5 7,-21.5 3.5,-21.5 0,-18 0,-14.5 0,-14.5 0,-7.5 0,-7.5 0,-4 3.5,-0.5 7,-0.5"/>
<text text-anchor="start" x="8" y="-8.9" font-family="Times,serif" font-size="12.00" fill="blue">♣</text>
<text text-anchor="start" x="19" y="-8.9" font-family="Times,serif" font-size="12.00"> CompletionFlags</text>
</g>
<!-- CompletionFlags&#45;&gt;ArrayOfFiles -->
<!-- Multiple -->
<g id="node4" class="node">
<title>Multiple</title>
<path fill="none" stroke="transparent" stroke-width="1.5" d="M352,-0.5C352,-0.5 418,-0.5 418,-0.5 421.5,-0.5 425,-4 425,-7.5 425,-7.5 425,-14.5 425,-14.5 425,-18 421.5,-21.5 418,-21.5 418,-21.5 352,-21.5 352,-21.5 348.5,-21.5 345,-18 345,-14.5 345,-14.5 345,-7.5 345,-7.5 345,-4 348.5,-0.5 352,-0.5"/>
<text text-anchor="start" x="353" y="-8.9" font-family="Times,serif" font-size="12.00" fill="#00c000">★</text>
<text text-anchor="start" x="363" y="-8.9" font-family="Times,serif" font-size="12.00"> Multiple</text>
</g>
<!-- Mailbox&#45;&gt;Multiple -->
</g>
</svg>
