<?xml version="1.0" encoding="UTF-8" standalone="no"?>
<!DOCTYPE svg PUBLIC "-//W3C//DTD SVG 1.1//EN"
 "http://www.w3.org/Graphics/SVG/1.1/DTD/svg11.dtd">
<!-- Generated by graphviz version 13.1.2 (20250808.2320)
 -->
<!-- Title: key_state_machine Pages: 1 -->
<svg width="529pt" height="350pt"
 viewBox="0.00 0.00 529.00 350.00" xmlns="http://www.w3.org/2000/svg" xmlns:xlink="http://www.w3.org/1999/xlink">
<g id="graph0" class="graph" transform="scale(1 1) rotate(0) translate(4 345.65)">
<title>key_state_machine</title>
<polygon fill="white" stroke="none" points="-4,4 -4,-345.65 524.5,-345.65 524.5,4 -4,4"/>
<!-- start -->
<g id="node1" class="node">
<title>start</title>
<path fill="#ffffff" stroke="black" stroke-width="1.5" d="M7.42,-158.65C7.42,-158.65 46.58,-158.65 46.58,-158.65 50.29,-158.65 54,-162.36 54,-166.07 54,-166.07 54,-173.49 54,-173.49 54,-177.2 50.29,-180.9 46.58,-180.9 46.58,-180.9 7.42,-180.9 7.42,-180.9 3.71,-180.9 0,-177.2 0,-173.49 0,-173.49 0,-166.07 0,-166.07 0,-162.36 3.71,-158.65 7.42,-158.65"/>
<text xml:space="preserve" text-anchor="middle" x="27" y="-165.5" font-family="Times,serif" font-size="12.00">start</text>
</g>
<!-- counter -->
<g id="node2" class="node">
<title>counter</title>
<path fill="#ffffff" stroke="black" stroke-width="1.5" d="M130.42,-83.65C130.42,-83.65 178.08,-83.65 178.08,-83.65 181.79,-83.65 185.5,-87.36 185.5,-91.07 185.5,-91.07 185.5,-98.49 185.5,-98.49 185.5,-102.2 181.79,-105.9 178.08,-105.9 178.08,-105.9 130.42,-105.9 130.42,-105.9 126.71,-105.9 123,-102.2 123,-98.49 123,-98.49 123,-91.07 123,-91.07 123,-87.36 126.71,-83.65 130.42,-83.65"/>
<text xml:space="preserve" text-anchor="middle" x="154.25" y="-90.5" font-family="Times,serif" font-size="12.00">counter</text>
</g>
<!-- start&#45;&gt;counter -->
<g id="edge4" class="edge">
<title>start&#45;&gt;counter</title>
<path fill="none" stroke="#00c000" d="M45.86,-158.03C53.81,-152.88 63.31,-146.81 72,-141.53 89.96,-130.61 110.47,-118.81 126.4,-109.8"/>
<polygon fill="#00c000" stroke="#00c000" points="127.23,-111.33 130.72,-107.35 125.51,-108.29 127.23,-111.33"/>
<text xml:space="preserve" text-anchor="middle" x="88.5" y="-145.48" font-family="Times,serif" font-size="14.00" fill="#00c000">digit</text>
</g>
<!-- need_more -->
<g id="node3" class="node">
<title>need_more</title>
<path fill="#ffffff" stroke="black" stroke-width="1.5" d="M284.42,-129.65C284.42,-129.65 349.33,-129.65 349.33,-129.65 353.04,-129.65 356.75,-133.36 356.75,-137.07 356.75,-137.07 356.75,-144.49 356.75,-144.49 356.75,-148.2 353.04,-151.9 349.33,-151.9 349.33,-151.9 284.42,-151.9 284.42,-151.9 280.71,-151.9 277,-148.2 277,-144.49 277,-144.49 277,-137.07 277,-137.07 277,-133.36 280.71,-129.65 284.42,-129.65"/>
<text xml:space="preserve" text-anchor="middle" x="316.88" y="-136.5" font-family="Times,serif" font-size="12.00">need more</text>
</g>
<!-- start&#45;&gt;need_more -->
<g id="edge14" class="edge">
<title>start&#45;&gt;need_more</title>
<path fill="none" stroke="#00c000" d="M54.57,-167.1C103.72,-162.15 209.38,-151.51 270.21,-145.38"/>
<polygon fill="#00c000" stroke="#00c000" points="270.37,-147.12 275.17,-144.88 270.02,-143.64 270.37,-147.12"/>
<text xml:space="preserve" text-anchor="middle" x="154.25" y="-163.98" font-family="Times,serif" font-size="14.00" fill="#00c000">key</text>
</g>
<!-- match -->
<g id="node4" class="node">
<title>match</title>
<path fill="#ffffff" stroke="black" stroke-width="1.5" d="M464.79,-209.65C464.79,-209.65 503.96,-209.65 503.96,-209.65 507.67,-209.65 511.38,-213.36 511.38,-217.07 511.38,-217.07 511.38,-224.49 511.38,-224.49 511.38,-228.2 507.67,-231.9 503.96,-231.9 503.96,-231.9 464.79,-231.9 464.79,-231.9 461.08,-231.9 457.38,-228.2 457.38,-224.49 457.38,-224.49 457.38,-217.07 457.38,-217.07 457.38,-213.36 461.08,-209.65 464.79,-209.65"/>
<text xml:space="preserve" text-anchor="middle" x="484.38" y="-216.5" font-family="Times,serif" font-size="12.00">match</text>
</g>
<!-- start&#45;&gt;match -->
<g id="edge2" class="edge">
<title>start&#45;&gt;match</title>
<path fill="none" stroke="#00c000" d="M29.39,-181.63C32.59,-203 42.62,-247.64 72,-267.78 203.32,-357.81 282.54,-327.22 430.25,-267.78 446.1,-261.4 460.38,-248.13 470.13,-237.31"/>
<polygon fill="#00c000" stroke="#00c000" points="471.32,-238.61 473.28,-233.69 468.68,-236.31 471.32,-238.61"/>
<text xml:space="preserve" text-anchor="middle" x="231.25" y="-328.35" font-family="Times,serif" font-size="14.00" fill="#00c000">key</text>
</g>
<!-- no_match -->
<g id="node5" class="node">
<title>no_match</title>
<path fill="#ffffff" stroke="black" stroke-width="1.5" d="M455.67,-59.65C455.67,-59.65 513.08,-59.65 513.08,-59.65 516.79,-59.65 520.5,-63.36 520.5,-67.07 520.5,-67.07 520.5,-74.49 520.5,-74.49 520.5,-78.2 516.79,-81.9 513.08,-81.9 513.08,-81.9 455.67,-81.9 455.67,-81.9 451.96,-81.9 448.25,-78.2 448.25,-74.49 448.25,-74.49 448.25,-67.07 448.25,-67.07 448.25,-63.36 451.96,-59.65 455.67,-59.65"/>
<text xml:space="preserve" text-anchor="middle" x="484.38" y="-66.5" font-family="Times,serif" font-size="12.00">no match</text>
</g>
<!-- start&#45;&gt;no_match -->
<g id="edge3" class="edge">
<title>start&#45;&gt;no_match</title>
<path fill="none" stroke="#c00000" d="M36.1,-158.01C58.35,-126.92 124.07,-43.25 203.5,-17.53 299.65,13.61 335.38,0.07 430.25,-34.78 442.78,-39.38 455.22,-47.56 464.91,-54.96"/>
<polygon fill="#c00000" stroke="#c00000" points="463.79,-56.31 468.8,-58.03 465.95,-53.56 463.79,-56.31"/>
<text xml:space="preserve" text-anchor="middle" x="231.25" y="-21.48" font-family="Times,serif" font-size="14.00" fill="#c00000">key</text>
</g>
<!-- start&#45;&gt;no_match -->
<g id="edge7" class="edge">
<title>start&#45;&gt;no_match</title>
<path fill="none" stroke="#c000c0" d="M46.89,-181.41C110.07,-218.67 316.44,-326.99 430.25,-226.78 451.37,-208.18 471.41,-126.02 479.55,-88.99"/>
<polygon fill="#c000c0" stroke="#c000c0" points="481.26,-89.36 480.61,-84.1 477.84,-88.62 481.26,-89.36"/>
<text xml:space="preserve" text-anchor="middle" x="231.25" y="-267.94" font-family="Times,serif" font-size="14.00" fill="#c000c0">timeout</text>
</g>
<!-- counter&#45;&gt;counter -->
<g id="edge6" class="edge">
<title>counter&#45;&gt;counter</title>
<path fill="none" stroke="#00c000" d="M142.69,-106.64C140.12,-113.73 143.98,-120.4 154.25,-120.4 161.31,-120.4 165.34,-117.25 166.33,-112.97"/>
<polygon fill="#00c000" stroke="#00c000" points="168.09,-112.99 165.93,-108.15 164.6,-113.28 168.09,-112.99"/>
<text xml:space="preserve" text-anchor="middle" x="154.25" y="-124.35" font-family="Times,serif" font-size="14.00" fill="#00c000">digit</text>
</g>
<!-- counter&#45;&gt;need_more -->
<g id="edge10" class="edge">
<title>counter&#45;&gt;need_more</title>
<path fill="none" stroke="#00c000" d="M186.22,-103.65C210.12,-110.49 243.54,-120.06 270.46,-127.77"/>
<polygon fill="#00c000" stroke="#00c000" points="269.71,-129.38 275,-129.07 270.67,-126.01 269.71,-129.38"/>
<text xml:space="preserve" text-anchor="middle" x="231.25" y="-127.2" font-family="Times,serif" font-size="14.00" fill="#00c000">key</text>
</g>
<!-- counter&#45;&gt;match -->
<g id="edge16" class="edge">
<title>counter&#45;&gt;match</title>
<path fill="none" stroke="#00c000" d="M165.43,-106.28C174.83,-116.61 189.44,-131.94 203.5,-143.78 233.91,-169.39 241.15,-177.57 277,-194.78 339.49,-224.77 360.96,-225.73 430.25,-223.78 436.69,-223.6 443.57,-223.29 450.16,-222.94"/>
<polygon fill="#00c000" stroke="#00c000" points="450.23,-224.69 455.12,-222.67 450.03,-221.2 450.23,-224.69"/>
<text xml:space="preserve" text-anchor="middle" x="316.88" y="-225.91" font-family="Times,serif" font-size="14.00" fill="#00c000">key</text>
</g>
<!-- counter&#45;&gt;no_match -->
<g id="edge5" class="edge">
<title>counter&#45;&gt;no_match</title>
<path fill="none" stroke="#c00000" d="M186.03,-83.58C210.35,-75.36 245.35,-64.9 277,-60.53 344.47,-51.22 362.43,-55.49 430.25,-61.78 433.89,-62.12 437.66,-62.56 441.43,-63.07"/>
<polygon fill="#c00000" stroke="#c00000" points="441.05,-64.78 446.25,-63.77 441.56,-61.32 441.05,-64.78"/>
<text xml:space="preserve" text-anchor="middle" x="316.88" y="-64.48" font-family="Times,serif" font-size="14.00" fill="#c00000">key</text>
</g>
<!-- counter&#45;&gt;no_match -->
<g id="edge8" class="edge">
<title>counter&#45;&gt;no_match</title>
<path fill="none" stroke="#c000c0" d="M169.79,-82.96C179.04,-75.85 191.49,-67.01 203.5,-60.78 234.29,-44.81 242.82,-40.45 277,-34.53 344.64,-22.81 364.33,-34.61 430.25,-53.78 433.97,-54.86 437.83,-56.02 441.69,-57.21"/>
<polygon fill="#c000c0" stroke="#c000c0" points="441,-58.82 446.29,-58.64 442.03,-55.48 441,-58.82"/>
<text xml:space="preserve" text-anchor="middle" x="316.88" y="-38.48" font-family="Times,serif" font-size="14.00" fill="#c000c0">timeout</text>
</g>
<!-- counter&#45;&gt;no_match -->
<g id="edge9" class="edge">
<title>counter&#45;&gt;no_match</title>
<path fill="none" stroke="#c00000" d="M186.12,-92.52C245.23,-88.2 374.48,-78.74 441.38,-73.85"/>
<polygon fill="#c00000" stroke="#c00000" points="441.29,-75.61 446.15,-73.5 441.03,-72.12 441.29,-75.61"/>
<text xml:space="preserve" text-anchor="middle" x="316.88" y="-89.51" font-family="Times,serif" font-size="14.00" fill="#c00000">digit</text>
</g>
<!-- need_more&#45;&gt;need_more -->
<g id="edge15" class="edge">
<title>need_more&#45;&gt;need_more</title>
<path fill="none" stroke="#00c000" d="M301.82,-152.64C298.48,-159.73 303.5,-166.4 316.88,-166.4 326.07,-166.4 331.32,-163.25 332.61,-158.97"/>
<polygon fill="#00c000" stroke="#00c000" points="334.37,-158.93 332.09,-154.14 330.89,-159.3 334.37,-158.93"/>
<text xml:space="preserve" text-anchor="middle" x="316.88" y="-170.35" font-family="Times,serif" font-size="14.00" fill="#00c000">key</text>
</g>
<!-- need_more&#45;&gt;match -->
<g id="edge1" class="edge">
<title>need_more&#45;&gt;match</title>
<path fill="none" stroke="#00c000" d="M357.41,-149.49C384.5,-155.85 417.7,-164.55 430.25,-171.53 445.5,-180.01 459.83,-193.76 469.75,-204.58"/>
<polygon fill="#00c000" stroke="#00c000" points="468.34,-205.63 472.98,-208.19 470.95,-203.3 468.34,-205.63"/>
<text xml:space="preserve" text-anchor="middle" x="402.5" y="-175.48" font-family="Times,serif" font-size="14.00" fill="#00c000">key</text>
</g>
<!-- need_more&#45;&gt;match -->
<g id="edge13" class="edge">
<title>need_more&#45;&gt;match</title>
<path fill="none" stroke="#c000c0" d="M329.07,-152.36C339.88,-162.94 357.14,-178.33 374.75,-187.78 387.89,-194.84 423.47,-205.08 450.36,-212.28"/>
<polygon fill="#c000c0" stroke="#c000c0" points="449.89,-213.97 455.18,-213.56 450.79,-210.59 449.89,-213.97"/>
<text xml:space="preserve" text-anchor="middle" x="402.5" y="-210.21" font-family="Times,serif" font-size="14.00" fill="#c000c0">timeout</text>
</g>
<!-- need_more&#45;&gt;no_match -->
<g id="edge11" class="edge">
<title>need_more&#45;&gt;no_match</title>
<path fill="none" stroke="#c00000" d="M357.4,-136.73C379.68,-133.31 407.52,-127.07 430.25,-115.78 444.58,-108.66 458.29,-96.88 468.19,-87.15"/>
<polygon fill="#c00000" stroke="#c00000" points="469.39,-88.43 471.67,-83.65 466.91,-85.97 469.39,-88.43"/>
<text xml:space="preserve" text-anchor="middle" x="402.5" y="-137.18" font-family="Times,serif" font-size="14.00" fill="#c00000">key</text>
</g>
<!-- need_more&#45;&gt;no_match -->
<g id="edge12" class="edge">
<title>need_more&#45;&gt;no_match</title>
<path fill="none" stroke="#c000c0" d="M337.49,-128.92C343.86,-124.74 350.81,-119.82 356.75,-114.78 365.68,-107.19 364.59,-101.36 374.75,-95.53 386.11,-89 415.89,-82.45 441.39,-77.73"/>
<polygon fill="#c000c0" stroke="#c000c0" points="441.68,-79.45 446.28,-76.84 441.05,-76.01 441.68,-79.45"/>
<text xml:space="preserve" text-anchor="middle" x="402.5" y="-99.48" font-family="Times,serif" font-size="14.00" fill="#c000c0">timeout</text>
</g>
</g>
</svg>
