<?xml version="1.0" encoding="UTF-8" standalone="no"?>
<!DOCTYPE svg PUBLIC "-//W3C//DTD SVG 1.1//EN"
 "http://www.w3.org/Graphics/SVG/1.1/DTD/svg11.dtd">
<!-- Generated by graphviz version 2.40.1 (0)
 -->
<!-- Title: libemail Pages: 1 -->
<svg width="289pt" height="204pt"
 viewBox="0.00 0.00 289.00 204.00" xmlns="http://www.w3.org/2000/svg" xmlns:xlink="http://www.w3.org/1999/xlink">
<g id="graph0" class="graph" transform="scale(1 1) rotate(0) translate(4 200)">
<title>libemail</title>
<polygon fill="#ffffff" stroke="transparent" points="-4,4 -4,-200 285,-200 285,4 -4,4"/>
<!-- thread -->
<g id="node1" class="node">
<title>thread</title>
<path fill="none" stroke="#000000" stroke-width="1.5" d="M75.5,-174.5C75.5,-174.5 150.5,-174.5 150.5,-174.5 154,-174.5 157.5,-178 157.5,-181.5 157.5,-181.5 157.5,-188.5 157.5,-188.5 157.5,-192 154,-195.5 150.5,-195.5 150.5,-195.5 75.5,-195.5 75.5,-195.5 72,-195.5 68.5,-192 68.5,-188.5 68.5,-188.5 68.5,-181.5 68.5,-181.5 68.5,-178 72,-174.5 75.5,-174.5"/>
<text text-anchor="middle" x="113" y="-181.9" font-family="Times,serif" font-size="12.00" fill="#000000">MuttThread</text>
</g>
<!-- email -->
<g id="node6" class="node">
<title>email</title>
<path fill="none" stroke="#000000" stroke-width="1.5" d="M93,-116.5C93,-116.5 133,-116.5 133,-116.5 136.5,-116.5 140,-120 140,-123.5 140,-123.5 140,-130.5 140,-130.5 140,-134 136.5,-137.5 133,-137.5 133,-137.5 93,-137.5 93,-137.5 89.5,-137.5 86,-134 86,-130.5 86,-130.5 86,-123.5 86,-123.5 86,-120 89.5,-116.5 93,-116.5"/>
<text text-anchor="middle" x="113" y="-123.9" font-family="Times,serif" font-size="12.00" fill="#000000">Email</text>
</g>
<!-- thread&#45;&gt;email -->
<g id="edge9" class="edge">
<title>thread&#45;&gt;email</title>
<path fill="none" stroke="#000000" d="M108.8279,-174.3619C107.6014,-165.4502 107.4216,-152.6087 108.2885,-142.5447"/>
<polygon fill="#000000" stroke="#000000" points="110.0283,-142.7324 108.8373,-137.5707 106.5494,-142.3486 110.0283,-142.7324"/>
</g>
<!-- envelope -->
<g id="node2" class="node">
<title>envelope</title>
<path fill="none" stroke="#000000" stroke-width="1.5" d="M7,-58.5C7,-58.5 65,-58.5 65,-58.5 68.5,-58.5 72,-62 72,-65.5 72,-65.5 72,-72.5 72,-72.5 72,-76 68.5,-79.5 65,-79.5 65,-79.5 7,-79.5 7,-79.5 3.5,-79.5 0,-76 0,-72.5 0,-72.5 0,-65.5 0,-65.5 0,-62 3.5,-58.5 7,-58.5"/>
<text text-anchor="middle" x="36" y="-65.9" font-family="Times,serif" font-size="12.00" fill="#000000">Envelope</text>
</g>
<!-- content -->
<g id="node3" class="node">
<title>content</title>
<path fill="none" stroke="#000000" stroke-width="1.5" d="M130,-.5C130,-.5 180,-.5 180,-.5 183.5,-.5 187,-4 187,-7.5 187,-7.5 187,-14.5 187,-14.5 187,-18 183.5,-21.5 180,-21.5 180,-21.5 130,-21.5 130,-21.5 126.5,-21.5 123,-18 123,-14.5 123,-14.5 123,-7.5 123,-7.5 123,-4 126.5,-.5 130,-.5"/>
<text text-anchor="middle" x="155" y="-7.9" font-family="Times,serif" font-size="12.00" fill="#000000">Content</text>
</g>
<!-- attachptr -->
<g id="node4" class="node">
<title>attachptr</title>
<path fill="none" stroke="#000000" stroke-width="1.5" d="M40.5,-.5C40.5,-.5 101.5,-.5 101.5,-.5 105,-.5 108.5,-4 108.5,-7.5 108.5,-7.5 108.5,-14.5 108.5,-14.5 108.5,-18 105,-21.5 101.5,-21.5 101.5,-21.5 40.5,-21.5 40.5,-21.5 37,-21.5 33.5,-18 33.5,-14.5 33.5,-14.5 33.5,-7.5 33.5,-7.5 33.5,-4 37,-.5 40.5,-.5"/>
<text text-anchor="middle" x="71" y="-7.9" font-family="Times,serif" font-size="12.00" fill="#000000">AttachPtr</text>
</g>
<!-- body -->
<g id="node5" class="node">
<title>body</title>
<path fill="none" stroke="#000000" stroke-width="1.5" d="M93,-58.5C93,-58.5 133,-58.5 133,-58.5 136.5,-58.5 140,-62 140,-65.5 140,-65.5 140,-72.5 140,-72.5 140,-76 136.5,-79.5 133,-79.5 133,-79.5 93,-79.5 93,-79.5 89.5,-79.5 86,-76 86,-72.5 86,-72.5 86,-65.5 86,-65.5 86,-62 89.5,-58.5 93,-58.5"/>
<text text-anchor="middle" x="113" y="-65.9" font-family="Times,serif" font-size="12.00" fill="#000000">Body</text>
</g>
<!-- attachptr&#45;&gt;body -->
<g id="edge1" class="edge">
<title>attachptr&#45;&gt;body</title>
<path fill="none" stroke="#000000" d="M82.8174,-21.5707C90.6288,-30.6256 100.3187,-43.7735 106.7575,-53.9309"/>
<polygon fill="#000000" stroke="#000000" points="105.3662,-55.0103 109.4686,-58.3619 108.3517,-53.1835 105.3662,-55.0103"/>
</g>
<!-- body&#45;&gt;content -->
<g id="edge3" class="edge">
<title>body&#45;&gt;content</title>
<path fill="none" stroke="#000000" d="M120.7034,-58.3619C127.3343,-49.205 136.9698,-35.8988 144.3405,-25.7202"/>
<polygon fill="#000000" stroke="#000000" points="145.8302,-26.6468 147.3454,-21.5707 142.9954,-24.594 145.8302,-26.6468"/>
</g>
<!-- body&#45;&gt;attachptr -->
<g id="edge2" class="edge">
<title>body&#45;&gt;attachptr</title>
<path fill="none" stroke="#000000" d="M101.1245,-58.3619C93.3038,-49.2867 83.6173,-36.1361 77.1947,-25.9936"/>
<polygon fill="#000000" stroke="#000000" points="78.5924,-24.9246 74.4919,-21.5707 75.6059,-26.7496 78.5924,-24.9246"/>
</g>
<!-- parameter -->
<g id="node7" class="node">
<title>parameter</title>
<path fill="none" stroke="#000000" stroke-width="1.5" d="M208,-.5C208,-.5 274,-.5 274,-.5 277.5,-.5 281,-4 281,-7.5 281,-7.5 281,-14.5 281,-14.5 281,-18 277.5,-21.5 274,-21.5 274,-21.5 208,-21.5 208,-21.5 204.5,-21.5 201,-18 201,-14.5 201,-14.5 201,-7.5 201,-7.5 201,-4 204.5,-.5 208,-.5"/>
<text text-anchor="middle" x="241" y="-7.9" font-family="Times,serif" font-size="12.00" fill="#000000">Parameter</text>
</g>
<!-- body&#45;&gt;parameter -->
<g id="edge4" class="edge">
<title>body&#45;&gt;parameter</title>
<path fill="none" stroke="#000000" d="M136.1798,-58.4966C157.7027,-48.7441 189.7964,-34.2016 212.7971,-23.7794"/>
<polygon fill="#000000" stroke="#000000" points="213.7281,-25.2789 217.5601,-21.6212 212.2835,-22.0909 213.7281,-25.2789"/>
</g>
<!-- email&#45;&gt;thread -->
<g id="edge8" class="edge">
<title>email&#45;&gt;thread</title>
<path fill="none" stroke="#000000" d="M117.1627,-137.5707C118.3946,-146.4624 118.5797,-159.3011 117.7181,-169.379"/>
<polygon fill="#000000" stroke="#000000" points="115.9772,-169.201 117.1721,-174.3619 119.4563,-169.5823 115.9772,-169.201"/>
</g>
<!-- email&#45;&gt;envelope -->
<g id="edge6" class="edge">
<title>email&#45;&gt;envelope</title>
<path fill="none" stroke="#000000" d="M98.877,-116.3619C86.2862,-106.8779 67.7865,-92.9431 54.1109,-82.6419"/>
<polygon fill="#000000" stroke="#000000" points="55.0802,-81.1812 50.0335,-79.5707 52.9743,-83.9768 55.0802,-81.1812"/>
</g>
<!-- email&#45;&gt;body -->
<g id="edge5" class="edge">
<title>email&#45;&gt;body</title>
<path fill="none" stroke="#000000" d="M113,-116.3619C113,-107.532 113,-94.844 113,-84.8224"/>
<polygon fill="#000000" stroke="#000000" points="114.7501,-84.5706 113,-79.5707 111.2501,-84.5707 114.7501,-84.5706"/>
</g>
<!-- tags -->
<g id="node8" class="node">
<title>tags</title>
<path fill="none" stroke="#000000" stroke-width="1.5" d="M161,-58.5C161,-58.5 201,-58.5 201,-58.5 204.5,-58.5 208,-62 208,-65.5 208,-65.5 208,-72.5 208,-72.5 208,-76 204.5,-79.5 201,-79.5 201,-79.5 161,-79.5 161,-79.5 157.5,-79.5 154,-76 154,-72.5 154,-72.5 154,-65.5 154,-65.5 154,-62 157.5,-58.5 161,-58.5"/>
<text text-anchor="middle" x="181" y="-65.9" font-family="Times,serif" font-size="12.00" fill="#000000">Tags</text>
</g>
<!-- email&#45;&gt;tags -->
<g id="edge7" class="edge">
<title>email&#45;&gt;tags</title>
<path fill="none" stroke="#000000" d="M125.4722,-116.3619C136.4955,-106.9597 152.6475,-93.183 164.6927,-82.9092"/>
<polygon fill="#000000" stroke="#000000" points="165.9383,-84.1469 168.6068,-79.5707 163.667,-81.484 165.9383,-84.1469"/>
</g>
</g>
</svg>
