<?xml version="1.0" encoding="UTF-8" standalone="no"?>
<!DOCTYPE svg PUBLIC "-//W3C//DTD SVG 1.1//EN"
 "http://www.w3.org/Graphics/SVG/1.1/DTD/svg11.dtd">
<!-- Generated by graphviz version 2.40.1 (0)
 -->
<!-- Title: libemail Pages: 1 -->
<svg width="367pt" height="204pt"
 viewBox="0.00 0.00 367.00 204.00" xmlns="http://www.w3.org/2000/svg" xmlns:xlink="http://www.w3.org/1999/xlink">
<g id="graph0" class="graph" transform="scale(1 1) rotate(0) translate(4 200)">
<title>libemail</title>
<polygon fill="#ffffff" stroke="transparent" points="-4,4 -4,-200 363,-200 363,4 -4,4"/>
<!-- thread -->
<g id="node1" class="node">
<title>thread</title>
<path fill="none" stroke="#000000" stroke-width="1.5" d="M139,-174.5C139,-174.5 214,-174.5 214,-174.5 217.5,-174.5 221,-178 221,-181.5 221,-181.5 221,-188.5 221,-188.5 221,-192 217.5,-195.5 214,-195.5 214,-195.5 139,-195.5 139,-195.5 135.5,-195.5 132,-192 132,-188.5 132,-188.5 132,-181.5 132,-181.5 132,-178 135.5,-174.5 139,-174.5"/>
<text text-anchor="middle" x="176.5" y="-181.9" font-family="Times,serif" font-size="12.00" fill="#000000">MuttThread</text>
</g>
<!-- email -->
<g id="node7" class="node">
<title>email</title>
<path fill="none" stroke="#000000" stroke-width="1.5" d="M156.5,-116.5C156.5,-116.5 196.5,-116.5 196.5,-116.5 200,-116.5 203.5,-120 203.5,-123.5 203.5,-123.5 203.5,-130.5 203.5,-130.5 203.5,-134 200,-137.5 196.5,-137.5 196.5,-137.5 156.5,-137.5 156.5,-137.5 153,-137.5 149.5,-134 149.5,-130.5 149.5,-130.5 149.5,-123.5 149.5,-123.5 149.5,-120 153,-116.5 156.5,-116.5"/>
<text text-anchor="middle" x="176.5" y="-123.9" font-family="Times,serif" font-size="12.00" fill="#000000">Email</text>
</g>
<!-- thread&#45;&gt;email -->
<g id="edge11" class="edge">
<title>thread&#45;&gt;email</title>
<path fill="none" stroke="#000000" d="M172.3279,-174.3619C171.1014,-165.4502 170.9216,-152.6087 171.7885,-142.5447"/>
<polygon fill="#000000" stroke="#000000" points="173.5283,-142.7324 172.3373,-137.5707 170.0494,-142.3486 173.5283,-142.7324"/>
</g>
<!-- envelope -->
<g id="node2" class="node">
<title>envelope</title>
<path fill="none" stroke="#000000" stroke-width="1.5" d="M224.5,-58.5C224.5,-58.5 282.5,-58.5 282.5,-58.5 286,-58.5 289.5,-62 289.5,-65.5 289.5,-65.5 289.5,-72.5 289.5,-72.5 289.5,-76 286,-79.5 282.5,-79.5 282.5,-79.5 224.5,-79.5 224.5,-79.5 221,-79.5 217.5,-76 217.5,-72.5 217.5,-72.5 217.5,-65.5 217.5,-65.5 217.5,-62 221,-58.5 224.5,-58.5"/>
<text text-anchor="middle" x="253.5" y="-65.9" font-family="Times,serif" font-size="12.00" fill="#000000">Envelope</text>
</g>
<!-- address -->
<g id="node3" class="node">
<title>address</title>
<path fill="none" stroke="#000000" stroke-width="1.5" d="M294,-.5C294,-.5 345,-.5 345,-.5 348.5,-.5 352,-4 352,-7.5 352,-7.5 352,-14.5 352,-14.5 352,-18 348.5,-21.5 345,-21.5 345,-21.5 294,-21.5 294,-21.5 290.5,-21.5 287,-18 287,-14.5 287,-14.5 287,-7.5 287,-7.5 287,-4 290.5,-.5 294,-.5"/>
<text text-anchor="middle" x="319.5" y="-7.9" font-family="Times,serif" font-size="12.00" fill="#000000">Address</text>
</g>
<!-- envelope&#45;&gt;address -->
<g id="edge6" class="edge">
<title>envelope&#45;&gt;address</title>
<path fill="none" stroke="#000000" d="M265.6054,-58.3619C276.3045,-48.9597 291.9814,-35.183 303.6723,-24.9092"/>
<polygon fill="#000000" stroke="#000000" points="304.8707,-26.1858 307.4713,-21.5707 302.5603,-23.5567 304.8707,-26.1858"/>
</g>
<!-- content -->
<g id="node4" class="node">
<title>content</title>
<path fill="none" stroke="#000000" stroke-width="1.5" d="M96.5,-.5C96.5,-.5 146.5,-.5 146.5,-.5 150,-.5 153.5,-4 153.5,-7.5 153.5,-7.5 153.5,-14.5 153.5,-14.5 153.5,-18 150,-21.5 146.5,-21.5 146.5,-21.5 96.5,-21.5 96.5,-21.5 93,-21.5 89.5,-18 89.5,-14.5 89.5,-14.5 89.5,-7.5 89.5,-7.5 89.5,-4 93,-.5 96.5,-.5"/>
<text text-anchor="middle" x="121.5" y="-7.9" font-family="Times,serif" font-size="12.00" fill="#000000">Content</text>
</g>
<!-- attachptr -->
<g id="node5" class="node">
<title>attachptr</title>
<path fill="none" stroke="#000000" stroke-width="1.5" d="M7,-.5C7,-.5 68,-.5 68,-.5 71.5,-.5 75,-4 75,-7.5 75,-7.5 75,-14.5 75,-14.5 75,-18 71.5,-21.5 68,-21.5 68,-21.5 7,-21.5 7,-21.5 3.5,-21.5 0,-18 0,-14.5 0,-14.5 0,-7.5 0,-7.5 0,-4 3.5,-.5 7,-.5"/>
<text text-anchor="middle" x="37.5" y="-7.9" font-family="Times,serif" font-size="12.00" fill="#000000">AttachPtr</text>
</g>
<!-- body -->
<g id="node6" class="node">
<title>body</title>
<path fill="none" stroke="#000000" stroke-width="1.5" d="M88.5,-58.5C88.5,-58.5 128.5,-58.5 128.5,-58.5 132,-58.5 135.5,-62 135.5,-65.5 135.5,-65.5 135.5,-72.5 135.5,-72.5 135.5,-76 132,-79.5 128.5,-79.5 128.5,-79.5 88.5,-79.5 88.5,-79.5 85,-79.5 81.5,-76 81.5,-72.5 81.5,-72.5 81.5,-65.5 81.5,-65.5 81.5,-62 85,-58.5 88.5,-58.5"/>
<text text-anchor="middle" x="108.5" y="-65.9" font-family="Times,serif" font-size="12.00" fill="#000000">Body</text>
</g>
<!-- attachptr&#45;&gt;body -->
<g id="edge1" class="edge">
<title>attachptr&#45;&gt;body</title>
<path fill="none" stroke="#000000" d="M54.6027,-21.5707C67.2751,-30.8703 84.0874,-44.4872 95.6462,-54.7478"/>
<polygon fill="#000000" stroke="#000000" points="94.7655,-56.3104 99.6496,-58.3619 97.1109,-53.7124 94.7655,-56.3104"/>
</g>
<!-- body&#45;&gt;content -->
<g id="edge3" class="edge">
<title>body&#45;&gt;content</title>
<path fill="none" stroke="#000000" d="M110.8844,-58.3619C112.8818,-49.4502 115.7601,-36.6087 118.0158,-26.5447"/>
<polygon fill="#000000" stroke="#000000" points="119.7447,-26.8324 119.1307,-21.5707 116.3294,-26.0668 119.7447,-26.8324"/>
</g>
<!-- body&#45;&gt;attachptr -->
<g id="edge2" class="edge">
<title>body&#45;&gt;attachptr</title>
<path fill="none" stroke="#000000" d="M91.3054,-58.3619C78.6131,-49.0415 61.8035,-35.4223 50.2702,-25.178"/>
<polygon fill="#000000" stroke="#000000" points="51.1605,-23.6239 46.2772,-21.5707 48.8142,-26.2211 51.1605,-23.6239"/>
</g>
<!-- parameter -->
<g id="node8" class="node">
<title>parameter</title>
<path fill="none" stroke="#000000" stroke-width="1.5" d="M174.5,-.5C174.5,-.5 240.5,-.5 240.5,-.5 244,-.5 247.5,-4 247.5,-7.5 247.5,-7.5 247.5,-14.5 247.5,-14.5 247.5,-18 244,-21.5 240.5,-21.5 240.5,-21.5 174.5,-21.5 174.5,-21.5 171,-21.5 167.5,-18 167.5,-14.5 167.5,-14.5 167.5,-7.5 167.5,-7.5 167.5,-4 171,-.5 174.5,-.5"/>
<text text-anchor="middle" x="207.5" y="-7.9" font-family="Times,serif" font-size="12.00" fill="#000000">Parameter</text>
</g>
<!-- body&#45;&gt;parameter -->
<g id="edge4" class="edge">
<title>body&#45;&gt;parameter</title>
<path fill="none" stroke="#000000" d="M126.6581,-58.3619C143.1254,-48.7144 167.4541,-34.4612 185.1185,-24.1124"/>
<polygon fill="#000000" stroke="#000000" points="186.0275,-25.6081 189.457,-21.5707 184.2582,-22.5882 186.0275,-25.6081"/>
</g>
<!-- email&#45;&gt;thread -->
<g id="edge10" class="edge">
<title>email&#45;&gt;thread</title>
<path fill="none" stroke="#000000" d="M180.6627,-137.5707C181.8946,-146.4624 182.0797,-159.3011 181.2181,-169.379"/>
<polygon fill="#000000" stroke="#000000" points="179.4772,-169.201 180.6721,-174.3619 182.9563,-169.5823 179.4772,-169.201"/>
</g>
<!-- email&#45;&gt;envelope -->
<g id="edge8" class="edge">
<title>email&#45;&gt;envelope</title>
<path fill="none" stroke="#000000" d="M190.623,-116.3619C203.2138,-106.8779 221.7135,-92.9431 235.3891,-82.6419"/>
<polygon fill="#000000" stroke="#000000" points="236.5257,-83.9768 239.4665,-79.5707 234.4198,-81.1812 236.5257,-83.9768"/>
</g>
<!-- email&#45;&gt;body -->
<g id="edge7" class="edge">
<title>email&#45;&gt;body</title>
<path fill="none" stroke="#000000" d="M164.0278,-116.3619C153.0045,-106.9597 136.8525,-93.183 124.8073,-82.9092"/>
<polygon fill="#000000" stroke="#000000" points="125.833,-81.484 120.8932,-79.5707 123.5617,-84.1469 125.833,-81.484"/>
</g>
<!-- tags -->
<g id="node9" class="node">
<title>tags</title>
<path fill="none" stroke="#000000" stroke-width="1.5" d="M156.5,-58.5C156.5,-58.5 196.5,-58.5 196.5,-58.5 200,-58.5 203.5,-62 203.5,-65.5 203.5,-65.5 203.5,-72.5 203.5,-72.5 203.5,-76 200,-79.5 196.5,-79.5 196.5,-79.5 156.5,-79.5 156.5,-79.5 153,-79.5 149.5,-76 149.5,-72.5 149.5,-72.5 149.5,-65.5 149.5,-65.5 149.5,-62 153,-58.5 156.5,-58.5"/>
<text text-anchor="middle" x="176.5" y="-65.9" font-family="Times,serif" font-size="12.00" fill="#000000">Tags</text>
</g>
<!-- email&#45;&gt;tags -->
<g id="edge9" class="edge">
<title>email&#45;&gt;tags</title>
<path fill="none" stroke="#000000" d="M176.5,-116.3619C176.5,-107.532 176.5,-94.844 176.5,-84.8224"/>
<polygon fill="#000000" stroke="#000000" points="178.2501,-84.5706 176.5,-79.5707 174.7501,-84.5707 178.2501,-84.5706"/>
</g>
<!-- group -->
<g id="node10" class="node">
<title>group</title>
<path fill="none" stroke="#000000" stroke-width="1.5" d="M311,-58.5C311,-58.5 352,-58.5 352,-58.5 355.5,-58.5 359,-62 359,-65.5 359,-65.5 359,-72.5 359,-72.5 359,-76 355.5,-79.5 352,-79.5 352,-79.5 311,-79.5 311,-79.5 307.5,-79.5 304,-76 304,-72.5 304,-72.5 304,-65.5 304,-65.5 304,-62 307.5,-58.5 311,-58.5"/>
<text text-anchor="middle" x="331.5" y="-65.9" font-family="Times,serif" font-size="12.00" fill="#000000">Group</text>
</g>
<!-- group&#45;&gt;address -->
<g id="edge5" class="edge">
<title>group&#45;&gt;address</title>
<path fill="none" stroke="#000000" d="M329.299,-58.3619C327.4552,-49.4502 324.7983,-36.6087 322.7161,-26.5447"/>
<polygon fill="#000000" stroke="#000000" points="324.4138,-26.1124 321.687,-21.5707 320.9864,-26.8215 324.4138,-26.1124"/>
</g>
</g>
</svg>
