<?xml version="1.0" encoding="UTF-8" standalone="no"?>
<!DOCTYPE svg PUBLIC "-//W3C//DTD SVG 1.1//EN"
 "http://www.w3.org/Graphics/SVG/1.1/DTD/svg11.dtd">
<!-- Generated by graphviz version 2.40.1 (20161225.0304)
 -->
<!-- Title: m2 Pages: 1 -->
<svg width="524pt" height="320pt"
 viewBox="0.00 0.00 524.00 320.00" xmlns="http://www.w3.org/2000/svg" xmlns:xlink="http://www.w3.org/1999/xlink">
<g id="graph0" class="graph" transform="scale(1 1) rotate(0) translate(4 316)">
<title>m2</title>
<polygon fill="#ffffff" stroke="transparent" points="-4,4 -4,-316 520,-316 520,4 -4,4"/>
<!-- buffer -->
<g id="node1" class="node">
<title>buffer</title>
<path fill="none" stroke="#000000" stroke-width="1.5" d="M363,-232.5C363,-232.5 403,-232.5 403,-232.5 406.5,-232.5 410,-236 410,-239.5 410,-239.5 410,-246.5 410,-246.5 410,-250 406.5,-253.5 403,-253.5 403,-253.5 363,-253.5 363,-253.5 359.5,-253.5 356,-250 356,-246.5 356,-246.5 356,-239.5 356,-239.5 356,-236 359.5,-232.5 363,-232.5"/>
<text text-anchor="middle" x="383" y="-239.9" font-family="Times,serif" font-size="12.00" fill="#000000">buffer</text>
</g>
<!-- string -->
<g id="node2" class="node">
<title>string</title>
<path fill="none" stroke="#000000" stroke-width="1.5" d="M177,-174.5C177,-174.5 217,-174.5 217,-174.5 220.5,-174.5 224,-178 224,-181.5 224,-181.5 224,-188.5 224,-188.5 224,-192 220.5,-195.5 217,-195.5 217,-195.5 177,-195.5 177,-195.5 173.5,-195.5 170,-192 170,-188.5 170,-188.5 170,-181.5 170,-181.5 170,-178 173.5,-174.5 177,-174.5"/>
<text text-anchor="middle" x="197" y="-181.9" font-family="Times,serif" font-size="12.00" fill="#000000">string</text>
</g>
<!-- buffer&#45;&gt;string -->
<g id="edge1" class="edge">
<title>buffer&#45;&gt;string</title>
<path fill="none" stroke="#000000" d="M355.8695,-234.4652C353.2107,-233.6312 350.5532,-232.7986 348,-232 307.004,-219.1776 259.7204,-204.474 229.1454,-194.9774"/>
<polygon fill="#000000" stroke="#000000" points="229.3052,-193.1946 224.0112,-193.3828 228.2671,-196.5371 229.3052,-193.1946"/>
</g>
<!-- memory -->
<g id="node16" class="node">
<title>memory</title>
<path fill="none" stroke="#000000" stroke-width="1.5" d="M116,-116.5C116,-116.5 168,-116.5 168,-116.5 171.5,-116.5 175,-120 175,-123.5 175,-123.5 175,-130.5 175,-130.5 175,-134 171.5,-137.5 168,-137.5 168,-137.5 116,-137.5 116,-137.5 112.5,-137.5 109,-134 109,-130.5 109,-130.5 109,-123.5 109,-123.5 109,-120 112.5,-116.5 116,-116.5"/>
<text text-anchor="middle" x="142" y="-123.9" font-family="Times,serif" font-size="12.00" fill="#000000">memory</text>
</g>
<!-- string&#45;&gt;memory -->
<g id="edge19" class="edge">
<title>string&#45;&gt;memory</title>
<path fill="none" stroke="#000000" d="M186.9122,-174.3619C178.1513,-165.1232 165.3853,-151.6609 155.701,-141.4483"/>
<polygon fill="#000000" stroke="#000000" points="156.7342,-139.9946 152.0239,-137.5707 154.1945,-142.403 156.7342,-139.9946"/>
</g>
<!-- charset -->
<g id="node3" class="node">
<title>charset</title>
<path fill="none" stroke="#000000" stroke-width="1.5" d="M461,-232.5C461,-232.5 509,-232.5 509,-232.5 512.5,-232.5 516,-236 516,-239.5 516,-239.5 516,-246.5 516,-246.5 516,-250 512.5,-253.5 509,-253.5 509,-253.5 461,-253.5 461,-253.5 457.5,-253.5 454,-250 454,-246.5 454,-246.5 454,-239.5 454,-239.5 454,-236 457.5,-232.5 461,-232.5"/>
<text text-anchor="middle" x="485" y="-239.9" font-family="Times,serif" font-size="12.00" fill="#000000">charset</text>
</g>
<!-- regex -->
<g id="node4" class="node">
<title>regex</title>
<path fill="none" stroke="#000000" stroke-width="1.5" d="M438,-174.5C438,-174.5 478,-174.5 478,-174.5 481.5,-174.5 485,-178 485,-181.5 485,-181.5 485,-188.5 485,-188.5 485,-192 481.5,-195.5 478,-195.5 478,-195.5 438,-195.5 438,-195.5 434.5,-195.5 431,-192 431,-188.5 431,-188.5 431,-181.5 431,-181.5 431,-178 434.5,-174.5 438,-174.5"/>
<text text-anchor="middle" x="458" y="-181.9" font-family="Times,serif" font-size="12.00" fill="#000000">regex</text>
</g>
<!-- charset&#45;&gt;regex -->
<g id="edge2" class="edge">
<title>charset&#45;&gt;regex</title>
<path fill="none" stroke="#000000" d="M480.0478,-232.3619C475.8612,-223.3685 469.8114,-210.3727 465.1077,-200.2684"/>
<polygon fill="#000000" stroke="#000000" points="466.6175,-199.365 462.9208,-195.5707 463.4445,-200.8421 466.6175,-199.365"/>
</g>
<!-- mbyte -->
<g id="node14" class="node">
<title>mbyte</title>
<path fill="none" stroke="#000000" stroke-width="1.5" d="M412,-290.5C412,-290.5 452,-290.5 452,-290.5 455.5,-290.5 459,-294 459,-297.5 459,-297.5 459,-304.5 459,-304.5 459,-308 455.5,-311.5 452,-311.5 452,-311.5 412,-311.5 412,-311.5 408.5,-311.5 405,-308 405,-304.5 405,-304.5 405,-297.5 405,-297.5 405,-294 408.5,-290.5 412,-290.5"/>
<text text-anchor="middle" x="432" y="-297.9" font-family="Times,serif" font-size="12.00" fill="#000000">mbyte</text>
</g>
<!-- regex&#45;&gt;mbyte -->
<g id="edge17" class="edge">
<title>regex&#45;&gt;mbyte</title>
<path fill="none" stroke="#000000" d="M455.4173,-195.8161C453.1565,-205.335 449.8044,-219.5746 447,-232 442.9018,-250.1577 438.388,-271.0505 435.3934,-285.0457"/>
<polygon fill="#000000" stroke="#000000" points="433.6188,-284.9766 434.2857,-290.2318 437.0416,-285.7077 433.6188,-284.9766"/>
</g>
<!-- date -->
<g id="node5" class="node">
<title>date</title>
<path fill="none" stroke="#000000" stroke-width="1.5" d="M7,-232.5C7,-232.5 47,-232.5 47,-232.5 50.5,-232.5 54,-236 54,-239.5 54,-239.5 54,-246.5 54,-246.5 54,-250 50.5,-253.5 47,-253.5 47,-253.5 7,-253.5 7,-253.5 3.5,-253.5 0,-250 0,-246.5 0,-246.5 0,-239.5 0,-239.5 0,-236 3.5,-232.5 7,-232.5"/>
<text text-anchor="middle" x="27" y="-239.9" font-family="Times,serif" font-size="12.00" fill="#000000">date</text>
</g>
<!-- date&#45;&gt;string -->
<g id="edge3" class="edge">
<title>date&#45;&gt;string</title>
<path fill="none" stroke="#000000" d="M54.3134,-233.6813C84.4263,-223.4075 132.8283,-206.8939 164.7739,-195.9948"/>
<polygon fill="#000000" stroke="#000000" points="165.5873,-197.5664 169.7543,-194.2956 164.4571,-194.2539 165.5873,-197.5664"/>
</g>
<!-- path -->
<g id="node6" class="node">
<title>path</title>
<path fill="none" stroke="#000000" stroke-width="1.5" d="M75,-232.5C75,-232.5 115,-232.5 115,-232.5 118.5,-232.5 122,-236 122,-239.5 122,-239.5 122,-246.5 122,-246.5 122,-250 118.5,-253.5 115,-253.5 115,-253.5 75,-253.5 75,-253.5 71.5,-253.5 68,-250 68,-246.5 68,-246.5 68,-239.5 68,-239.5 68,-236 71.5,-232.5 75,-232.5"/>
<text text-anchor="middle" x="95" y="-239.9" font-family="Times,serif" font-size="12.00" fill="#000000">path</text>
</g>
<!-- path&#45;&gt;string -->
<g id="edge4" class="edge">
<title>path&#45;&gt;string</title>
<path fill="none" stroke="#000000" d="M113.7084,-232.3619C130.6746,-222.7144 155.7406,-208.4612 173.9402,-198.1124"/>
<polygon fill="#000000" stroke="#000000" points="174.9288,-199.5635 178.4102,-195.5707 173.1987,-196.521 174.9288,-199.5635"/>
</g>
<!-- file -->
<g id="node7" class="node">
<title>file</title>
<path fill="none" stroke="#000000" stroke-width="1.5" d="M219,-.5C219,-.5 259,-.5 259,-.5 262.5,-.5 266,-4 266,-7.5 266,-7.5 266,-14.5 266,-14.5 266,-18 262.5,-21.5 259,-21.5 259,-21.5 219,-21.5 219,-21.5 215.5,-21.5 212,-18 212,-14.5 212,-14.5 212,-7.5 212,-7.5 212,-4 215.5,-.5 219,-.5"/>
<text text-anchor="middle" x="239" y="-7.9" font-family="Times,serif" font-size="12.00" fill="#000000">file</text>
</g>
<!-- file&#45;&gt;string -->
<g id="edge5" class="edge">
<title>file&#45;&gt;string</title>
<path fill="none" stroke="#000000" d="M236.7866,-21.7849C233.9646,-35.3885 228.866,-59.4837 224,-80 216.4638,-111.7743 206.7413,-148.7073 201.2572,-169.2127"/>
<polygon fill="#000000" stroke="#000000" points="199.4976,-169.0183 199.8932,-174.301 202.8783,-169.9246 199.4976,-169.0183"/>
</g>
<!-- hash -->
<g id="node8" class="node">
<title>hash</title>
<path fill="none" stroke="#000000" stroke-width="1.5" d="M143,-232.5C143,-232.5 183,-232.5 183,-232.5 186.5,-232.5 190,-236 190,-239.5 190,-239.5 190,-246.5 190,-246.5 190,-250 186.5,-253.5 183,-253.5 183,-253.5 143,-253.5 143,-253.5 139.5,-253.5 136,-250 136,-246.5 136,-246.5 136,-239.5 136,-239.5 136,-236 139.5,-232.5 143,-232.5"/>
<text text-anchor="middle" x="163" y="-239.9" font-family="Times,serif" font-size="12.00" fill="#000000">hash</text>
</g>
<!-- hash&#45;&gt;string -->
<g id="edge6" class="edge">
<title>hash&#45;&gt;string</title>
<path fill="none" stroke="#000000" d="M169.2361,-232.3619C174.5561,-223.2867 182.2651,-210.1361 188.2107,-199.9936"/>
<polygon fill="#000000" stroke="#000000" points="189.7845,-200.7692 190.8034,-195.5707 186.765,-198.9991 189.7845,-200.7692"/>
</g>
<!-- list -->
<g id="node9" class="node">
<title>list</title>
<path fill="none" stroke="#000000" stroke-width="1.5" d="M211,-232.5C211,-232.5 251,-232.5 251,-232.5 254.5,-232.5 258,-236 258,-239.5 258,-239.5 258,-246.5 258,-246.5 258,-250 254.5,-253.5 251,-253.5 251,-253.5 211,-253.5 211,-253.5 207.5,-253.5 204,-250 204,-246.5 204,-246.5 204,-239.5 204,-239.5 204,-236 207.5,-232.5 211,-232.5"/>
<text text-anchor="middle" x="231" y="-239.9" font-family="Times,serif" font-size="12.00" fill="#000000">list</text>
</g>
<!-- list&#45;&gt;string -->
<g id="edge7" class="edge">
<title>list&#45;&gt;string</title>
<path fill="none" stroke="#000000" d="M224.7639,-232.3619C219.4439,-223.2867 211.7349,-210.1361 205.7893,-199.9936"/>
<polygon fill="#000000" stroke="#000000" points="207.235,-198.9991 203.1966,-195.5707 204.2155,-200.7692 207.235,-198.9991"/>
</g>
<!-- logging -->
<g id="node10" class="node">
<title>logging</title>
<path fill="none" stroke="#000000" stroke-width="1.5" d="M162,-58.5C162,-58.5 210,-58.5 210,-58.5 213.5,-58.5 217,-62 217,-65.5 217,-65.5 217,-72.5 217,-72.5 217,-76 213.5,-79.5 210,-79.5 210,-79.5 162,-79.5 162,-79.5 158.5,-79.5 155,-76 155,-72.5 155,-72.5 155,-65.5 155,-65.5 155,-62 158.5,-58.5 162,-58.5"/>
<text text-anchor="middle" x="186" y="-65.9" font-family="Times,serif" font-size="12.00" fill="#000000">logging</text>
</g>
<!-- logging&#45;&gt;string -->
<g id="edge11" class="edge">
<title>logging&#45;&gt;string</title>
<path fill="none" stroke="#000000" d="M187.0127,-79.6792C188.9589,-100.2033 193.23,-145.2434 195.5048,-169.2329"/>
<polygon fill="#000000" stroke="#000000" points="193.7706,-169.4825 195.9849,-174.2949 197.2549,-169.152 193.7706,-169.4825"/>
</g>
<!-- logging&#45;&gt;file -->
<g id="edge8" class="edge">
<title>logging&#45;&gt;file</title>
<path fill="none" stroke="#000000" d="M195.721,-58.3619C204.1633,-49.1232 216.4651,-35.6609 225.7972,-25.4483"/>
<polygon fill="#000000" stroke="#000000" points="227.2596,-26.4422 229.3406,-21.5707 224.6758,-24.0812 227.2596,-26.4422"/>
</g>
<!-- message -->
<g id="node11" class="node">
<title>message</title>
<path fill="none" stroke="#000000" stroke-width="1.5" d="M44,-.5C44,-.5 98,-.5 98,-.5 101.5,-.5 105,-4 105,-7.5 105,-7.5 105,-14.5 105,-14.5 105,-18 101.5,-21.5 98,-21.5 98,-21.5 44,-21.5 44,-21.5 40.5,-21.5 37,-18 37,-14.5 37,-14.5 37,-7.5 37,-7.5 37,-4 40.5,-.5 44,-.5"/>
<text text-anchor="middle" x="71" y="-7.9" font-family="Times,serif" font-size="12.00" fill="#000000">message</text>
</g>
<!-- logging&#45;&gt;message -->
<g id="edge9" class="edge">
<title>logging&#45;&gt;message</title>
<path fill="none" stroke="#000000" d="M165.1744,-58.4966C145.9183,-48.7849 117.2443,-34.3232 96.5984,-23.9105"/>
<polygon fill="#000000" stroke="#000000" points="97.3117,-22.3103 92.0593,-21.6212 95.7356,-25.4354 97.3117,-22.3103"/>
</g>
<!-- queue -->
<g id="node12" class="node">
<title>queue</title>
<path fill="none" stroke="#000000" stroke-width="1.5" d="M151,-.5C151,-.5 191,-.5 191,-.5 194.5,-.5 198,-4 198,-7.5 198,-7.5 198,-14.5 198,-14.5 198,-18 194.5,-21.5 191,-21.5 191,-21.5 151,-21.5 151,-21.5 147.5,-21.5 144,-18 144,-14.5 144,-14.5 144,-7.5 144,-7.5 144,-4 147.5,-.5 151,-.5"/>
<text text-anchor="middle" x="171" y="-7.9" font-family="Times,serif" font-size="12.00" fill="#000000">queue</text>
</g>
<!-- logging&#45;&gt;queue -->
<g id="edge10" class="edge">
<title>logging&#45;&gt;queue</title>
<path fill="none" stroke="#000000" d="M183.2488,-58.3619C180.944,-49.4502 177.6229,-36.6087 175.0202,-26.5447"/>
<polygon fill="#000000" stroke="#000000" points="176.68,-25.9732 173.7338,-21.5707 173.2915,-26.8496 176.68,-25.9732"/>
</g>
<!-- mapping -->
<g id="node13" class="node">
<title>mapping</title>
<path fill="none" stroke="#000000" stroke-width="1.5" d="M279.5,-232.5C279.5,-232.5 334.5,-232.5 334.5,-232.5 338,-232.5 341.5,-236 341.5,-239.5 341.5,-239.5 341.5,-246.5 341.5,-246.5 341.5,-250 338,-253.5 334.5,-253.5 334.5,-253.5 279.5,-253.5 279.5,-253.5 276,-253.5 272.5,-250 272.5,-246.5 272.5,-246.5 272.5,-239.5 272.5,-239.5 272.5,-236 276,-232.5 279.5,-232.5"/>
<text text-anchor="middle" x="307" y="-239.9" font-family="Times,serif" font-size="12.00" fill="#000000">mapping</text>
</g>
<!-- mapping&#45;&gt;string -->
<g id="edge12" class="edge">
<title>mapping&#45;&gt;string</title>
<path fill="none" stroke="#000000" d="M287.0798,-232.4966C268.8158,-222.8665 241.694,-208.5659 221.9849,-198.1738"/>
<polygon fill="#000000" stroke="#000000" points="222.3828,-196.4053 217.1437,-195.6212 220.7503,-199.5013 222.3828,-196.4053"/>
</g>
<!-- mbyte&#45;&gt;buffer -->
<g id="edge13" class="edge">
<title>mbyte&#45;&gt;buffer</title>
<path fill="none" stroke="#000000" d="M423.0126,-290.3619C415.2075,-281.1232 403.8342,-267.6609 395.2063,-257.4483"/>
<polygon fill="#000000" stroke="#000000" points="396.494,-256.2607 391.9304,-253.5707 393.8204,-258.5195 396.494,-256.2607"/>
</g>
<!-- mbyte&#45;&gt;charset -->
<g id="edge14" class="edge">
<title>mbyte&#45;&gt;charset</title>
<path fill="none" stroke="#000000" d="M441.721,-290.3619C450.1633,-281.1232 462.4651,-267.6609 471.7972,-257.4483"/>
<polygon fill="#000000" stroke="#000000" points="473.2596,-258.4422 475.3406,-253.5707 470.6758,-256.0812 473.2596,-258.4422"/>
</g>
<!-- md5 -->
<g id="node15" class="node">
<title>md5</title>
<path fill="none" stroke="#000000" stroke-width="1.5" d="M287,-.5C287,-.5 327,-.5 327,-.5 330.5,-.5 334,-4 334,-7.5 334,-7.5 334,-14.5 334,-14.5 334,-18 330.5,-21.5 327,-21.5 327,-21.5 287,-21.5 287,-21.5 283.5,-21.5 280,-18 280,-14.5 280,-14.5 280,-7.5 280,-7.5 280,-4 283.5,-.5 287,-.5"/>
<text text-anchor="middle" x="307" y="-7.9" font-family="Times,serif" font-size="12.00" fill="#000000">md5</text>
</g>
<!-- memory&#45;&gt;logging -->
<g id="edge16" class="edge">
<title>memory&#45;&gt;logging</title>
<path fill="none" stroke="#000000" d="M150.0703,-116.3619C157.0169,-107.205 167.1113,-93.8988 174.8329,-83.7202"/>
<polygon fill="#000000" stroke="#000000" points="176.3531,-84.6118 177.9809,-79.5707 173.5647,-82.4964 176.3531,-84.6118"/>
</g>
<!-- exit -->
<g id="node17" class="node">
<title>exit</title>
<path fill="none" stroke="#000000" stroke-width="1.5" d="M94,-58.5C94,-58.5 134,-58.5 134,-58.5 137.5,-58.5 141,-62 141,-65.5 141,-65.5 141,-72.5 141,-72.5 141,-76 137.5,-79.5 134,-79.5 134,-79.5 94,-79.5 94,-79.5 90.5,-79.5 87,-76 87,-72.5 87,-72.5 87,-65.5 87,-65.5 87,-62 90.5,-58.5 94,-58.5"/>
<text text-anchor="middle" x="114" y="-65.9" font-family="Times,serif" font-size="12.00" fill="#000000">exit</text>
</g>
<!-- memory&#45;&gt;exit -->
<g id="edge15" class="edge">
<title>memory&#45;&gt;exit</title>
<path fill="none" stroke="#000000" d="M136.8644,-116.3619C132.5227,-107.3685 126.2489,-94.3727 121.371,-84.2684"/>
<polygon fill="#000000" stroke="#000000" points="122.8528,-83.3126 119.1031,-79.5707 119.7009,-84.8343 122.8528,-83.3126"/>
</g>
<!-- sha1 -->
<g id="node18" class="node">
<title>sha1</title>
<path fill="none" stroke="#000000" stroke-width="1.5" d="M355,-.5C355,-.5 395,-.5 395,-.5 398.5,-.5 402,-4 402,-7.5 402,-7.5 402,-14.5 402,-14.5 402,-18 398.5,-21.5 395,-21.5 395,-21.5 355,-21.5 355,-21.5 351.5,-21.5 348,-18 348,-14.5 348,-14.5 348,-7.5 348,-7.5 348,-4 351.5,-.5 355,-.5"/>
<text text-anchor="middle" x="375" y="-7.9" font-family="Times,serif" font-size="12.00" fill="#000000">sha1</text>
</g>
<!-- signal -->
<g id="node19" class="node">
<title>signal</title>
<path fill="none" stroke="#000000" stroke-width="1.5" d="M26,-58.5C26,-58.5 66,-58.5 66,-58.5 69.5,-58.5 73,-62 73,-65.5 73,-65.5 73,-72.5 73,-72.5 73,-76 69.5,-79.5 66,-79.5 66,-79.5 26,-79.5 26,-79.5 22.5,-79.5 19,-76 19,-72.5 19,-72.5 19,-65.5 19,-65.5 19,-62 22.5,-58.5 26,-58.5"/>
<text text-anchor="middle" x="46" y="-65.9" font-family="Times,serif" font-size="12.00" fill="#000000">signal</text>
</g>
<!-- signal&#45;&gt;message -->
<g id="edge18" class="edge">
<title>signal&#45;&gt;message</title>
<path fill="none" stroke="#000000" d="M50.5854,-58.3619C54.4619,-49.3685 60.0635,-36.3727 64.4188,-26.2684"/>
<polygon fill="#000000" stroke="#000000" points="66.0715,-26.855 66.4437,-21.5707 62.8574,-25.4696 66.0715,-26.855"/>
</g>
</g>
</svg>
