<?xml version="1.0" encoding="UTF-8" standalone="no"?>
<!DOCTYPE svg PUBLIC "-//W3C//DTD SVG 1.1//EN"
 "http://www.w3.org/Graphics/SVG/1.1/DTD/svg11.dtd">
<!-- Generated by graphviz version 2.40.1 (0)
 -->
<!-- Title: libmutt Pages: 1 -->
<svg width="485pt" height="494pt"
 viewBox="0.00 0.00 484.50 494.00" xmlns="http://www.w3.org/2000/svg" xmlns:xlink="http://www.w3.org/1999/xlink">
<g id="graph0" class="graph" transform="scale(1 1) rotate(0) translate(4 490)">
<title>libmutt</title>
<polygon fill="#ffffff" stroke="transparent" points="-4,4 -4,-490 480.5,-490 480.5,4 -4,4"/>
<!-- base64 -->
<g id="node1" class="node">
<title>base64</title>
<path fill="none" stroke="#000000" stroke-width="1.5" d="M7,-290.5C7,-290.5 52,-290.5 52,-290.5 55.5,-290.5 59,-294 59,-297.5 59,-297.5 59,-304.5 59,-304.5 59,-308 55.5,-311.5 52,-311.5 52,-311.5 7,-311.5 7,-311.5 3.5,-311.5 0,-308 0,-304.5 0,-304.5 0,-297.5 0,-297.5 0,-294 3.5,-290.5 7,-290.5"/>
<text text-anchor="middle" x="29.5" y="-297.9" font-family="Times,serif" font-size="12.00" fill="#000000">base64</text>
</g>
<!-- buffer -->
<g id="node2" class="node">
<title>buffer</title>
<path fill="none" stroke="#000000" stroke-width="1.5" d="M9.5,-232.5C9.5,-232.5 49.5,-232.5 49.5,-232.5 53,-232.5 56.5,-236 56.5,-239.5 56.5,-239.5 56.5,-246.5 56.5,-246.5 56.5,-250 53,-253.5 49.5,-253.5 49.5,-253.5 9.5,-253.5 9.5,-253.5 6,-253.5 2.5,-250 2.5,-246.5 2.5,-246.5 2.5,-239.5 2.5,-239.5 2.5,-236 6,-232.5 9.5,-232.5"/>
<text text-anchor="middle" x="29.5" y="-239.9" font-family="Times,serif" font-size="12.00" fill="#000000">buffer</text>
</g>
<!-- base64&#45;&gt;buffer -->
<g id="edge1" class="edge">
<title>base64&#45;&gt;buffer</title>
<path fill="none" stroke="#000000" d="M29.5,-290.3619C29.5,-281.532 29.5,-268.844 29.5,-258.8224"/>
<polygon fill="#000000" stroke="#000000" points="31.2501,-258.5706 29.5,-253.5707 27.7501,-258.5707 31.2501,-258.5706"/>
</g>
<!-- string -->
<g id="node3" class="node">
<title>string</title>
<path fill="none" stroke="#000000" stroke-width="1.5" d="M196.5,-174.5C196.5,-174.5 236.5,-174.5 236.5,-174.5 240,-174.5 243.5,-178 243.5,-181.5 243.5,-181.5 243.5,-188.5 243.5,-188.5 243.5,-192 240,-195.5 236.5,-195.5 236.5,-195.5 196.5,-195.5 196.5,-195.5 193,-195.5 189.5,-192 189.5,-188.5 189.5,-188.5 189.5,-181.5 189.5,-181.5 189.5,-178 193,-174.5 196.5,-174.5"/>
<text text-anchor="middle" x="216.5" y="-181.9" font-family="Times,serif" font-size="12.00" fill="#000000">string</text>
</g>
<!-- buffer&#45;&gt;string -->
<g id="edge2" class="edge">
<title>buffer&#45;&gt;string</title>
<path fill="none" stroke="#000000" d="M56.5837,-234.1976C58.9216,-233.4499 61.2516,-232.709 63.5,-232 105.2579,-218.832 153.5753,-204.0681 184.5574,-194.6615"/>
<polygon fill="#000000" stroke="#000000" points="185.1009,-196.3254 189.3773,-193.1989 184.0845,-192.9762 185.1009,-196.3254"/>
</g>
<!-- memory -->
<g id="node17" class="node">
<title>memory</title>
<path fill="none" stroke="#000000" stroke-width="1.5" d="M245.5,-116.5C245.5,-116.5 297.5,-116.5 297.5,-116.5 301,-116.5 304.5,-120 304.5,-123.5 304.5,-123.5 304.5,-130.5 304.5,-130.5 304.5,-134 301,-137.5 297.5,-137.5 297.5,-137.5 245.5,-137.5 245.5,-137.5 242,-137.5 238.5,-134 238.5,-130.5 238.5,-130.5 238.5,-123.5 238.5,-123.5 238.5,-120 242,-116.5 245.5,-116.5"/>
<text text-anchor="middle" x="271.5" y="-123.9" font-family="Times,serif" font-size="12.00" fill="#000000">memory</text>
</g>
<!-- string&#45;&gt;memory -->
<g id="edge23" class="edge">
<title>string&#45;&gt;memory</title>
<path fill="none" stroke="#000000" d="M226.5878,-174.3619C235.3487,-165.1232 248.1147,-151.6609 257.799,-141.4483"/>
<polygon fill="#000000" stroke="#000000" points="259.3055,-142.403 261.4761,-137.5707 256.7658,-139.9946 259.3055,-142.403"/>
</g>
<!-- charset -->
<g id="node4" class="node">
<title>charset</title>
<path fill="none" stroke="#000000" stroke-width="1.5" d="M127.5,-406.5C127.5,-406.5 175.5,-406.5 175.5,-406.5 179,-406.5 182.5,-410 182.5,-413.5 182.5,-413.5 182.5,-420.5 182.5,-420.5 182.5,-424 179,-427.5 175.5,-427.5 175.5,-427.5 127.5,-427.5 127.5,-427.5 124,-427.5 120.5,-424 120.5,-420.5 120.5,-420.5 120.5,-413.5 120.5,-413.5 120.5,-410 124,-406.5 127.5,-406.5"/>
<text text-anchor="middle" x="151.5" y="-413.9" font-family="Times,serif" font-size="12.00" fill="#000000">charset</text>
</g>
<!-- regex -->
<g id="node5" class="node">
<title>regex</title>
<path fill="none" stroke="#000000" stroke-width="1.5" d="M82.5,-348.5C82.5,-348.5 122.5,-348.5 122.5,-348.5 126,-348.5 129.5,-352 129.5,-355.5 129.5,-355.5 129.5,-362.5 129.5,-362.5 129.5,-366 126,-369.5 122.5,-369.5 122.5,-369.5 82.5,-369.5 82.5,-369.5 79,-369.5 75.5,-366 75.5,-362.5 75.5,-362.5 75.5,-355.5 75.5,-355.5 75.5,-352 79,-348.5 82.5,-348.5"/>
<text text-anchor="middle" x="102.5" y="-355.9" font-family="Times,serif" font-size="12.00" fill="#000000">regex</text>
</g>
<!-- charset&#45;&gt;regex -->
<g id="edge3" class="edge">
<title>charset&#45;&gt;regex</title>
<path fill="none" stroke="#000000" d="M142.5126,-406.3619C134.7075,-397.1232 123.3342,-383.6609 114.7063,-373.4483"/>
<polygon fill="#000000" stroke="#000000" points="115.994,-372.2607 111.4304,-369.5707 113.3204,-374.5195 115.994,-372.2607"/>
</g>
<!-- mbyte -->
<g id="node16" class="node">
<title>mbyte</title>
<path fill="none" stroke="#000000" stroke-width="1.5" d="M82.5,-290.5C82.5,-290.5 122.5,-290.5 122.5,-290.5 126,-290.5 129.5,-294 129.5,-297.5 129.5,-297.5 129.5,-304.5 129.5,-304.5 129.5,-308 126,-311.5 122.5,-311.5 122.5,-311.5 82.5,-311.5 82.5,-311.5 79,-311.5 75.5,-308 75.5,-304.5 75.5,-304.5 75.5,-297.5 75.5,-297.5 75.5,-294 79,-290.5 82.5,-290.5"/>
<text text-anchor="middle" x="102.5" y="-297.9" font-family="Times,serif" font-size="12.00" fill="#000000">mbyte</text>
</g>
<!-- regex&#45;&gt;mbyte -->
<g id="edge21" class="edge">
<title>regex&#45;&gt;mbyte</title>
<path fill="none" stroke="#000000" d="M102.5,-348.3619C102.5,-339.532 102.5,-326.844 102.5,-316.8224"/>
<polygon fill="#000000" stroke="#000000" points="104.2501,-316.5706 102.5,-311.5707 100.7501,-316.5707 104.2501,-316.5706"/>
</g>
<!-- date -->
<g id="node6" class="node">
<title>date</title>
<path fill="none" stroke="#000000" stroke-width="1.5" d="M77.5,-232.5C77.5,-232.5 117.5,-232.5 117.5,-232.5 121,-232.5 124.5,-236 124.5,-239.5 124.5,-239.5 124.5,-246.5 124.5,-246.5 124.5,-250 121,-253.5 117.5,-253.5 117.5,-253.5 77.5,-253.5 77.5,-253.5 74,-253.5 70.5,-250 70.5,-246.5 70.5,-246.5 70.5,-239.5 70.5,-239.5 70.5,-236 74,-232.5 77.5,-232.5"/>
<text text-anchor="middle" x="97.5" y="-239.9" font-family="Times,serif" font-size="12.00" fill="#000000">date</text>
</g>
<!-- date&#45;&gt;string -->
<g id="edge4" class="edge">
<title>date&#45;&gt;string</title>
<path fill="none" stroke="#000000" d="M119.05,-232.4966C138.9758,-222.7849 168.6472,-208.3232 190.0112,-197.9105"/>
<polygon fill="#000000" stroke="#000000" points="190.9803,-199.385 194.7082,-195.6212 189.4469,-196.2388 190.9803,-199.385"/>
</g>
<!-- envlist -->
<g id="node7" class="node">
<title>envlist</title>
<path fill="none" stroke="#000000" stroke-width="1.5" d="M145.5,-232.5C145.5,-232.5 187.5,-232.5 187.5,-232.5 191,-232.5 194.5,-236 194.5,-239.5 194.5,-239.5 194.5,-246.5 194.5,-246.5 194.5,-250 191,-253.5 187.5,-253.5 187.5,-253.5 145.5,-253.5 145.5,-253.5 142,-253.5 138.5,-250 138.5,-246.5 138.5,-246.5 138.5,-239.5 138.5,-239.5 138.5,-236 142,-232.5 145.5,-232.5"/>
<text text-anchor="middle" x="166.5" y="-239.9" font-family="Times,serif" font-size="12.00" fill="#000000">envlist</text>
</g>
<!-- envlist&#45;&gt;string -->
<g id="edge5" class="edge">
<title>envlist&#45;&gt;string</title>
<path fill="none" stroke="#000000" d="M175.6708,-232.3619C183.6352,-223.1232 195.2406,-209.6609 204.0446,-199.4483"/>
<polygon fill="#000000" stroke="#000000" points="205.4481,-200.5004 207.3874,-195.5707 202.7972,-198.2151 205.4481,-200.5004"/>
</g>
<!-- file -->
<g id="node8" class="node">
<title>file</title>
<path fill="none" stroke="#000000" stroke-width="1.5" d="M143.5,-.5C143.5,-.5 183.5,-.5 183.5,-.5 187,-.5 190.5,-4 190.5,-7.5 190.5,-7.5 190.5,-14.5 190.5,-14.5 190.5,-18 187,-21.5 183.5,-21.5 183.5,-21.5 143.5,-21.5 143.5,-21.5 140,-21.5 136.5,-18 136.5,-14.5 136.5,-14.5 136.5,-7.5 136.5,-7.5 136.5,-4 140,-.5 143.5,-.5"/>
<text text-anchor="middle" x="163.5" y="-7.9" font-family="Times,serif" font-size="12.00" fill="#000000">file</text>
</g>
<!-- file&#45;&gt;string -->
<g id="edge6" class="edge">
<title>file&#45;&gt;string</title>
<path fill="none" stroke="#000000" d="M166.8286,-21.9277C175.8997,-51.7086 201.0842,-134.3898 211.6918,-169.2146"/>
<polygon fill="#000000" stroke="#000000" points="210.1334,-170.1043 213.2644,-174.3774 213.4815,-169.0845 210.1334,-170.1043"/>
</g>
<!-- hash -->
<g id="node9" class="node">
<title>hash</title>
<path fill="none" stroke="#000000" stroke-width="1.5" d="M194.5,-348.5C194.5,-348.5 234.5,-348.5 234.5,-348.5 238,-348.5 241.5,-352 241.5,-355.5 241.5,-355.5 241.5,-362.5 241.5,-362.5 241.5,-366 238,-369.5 234.5,-369.5 234.5,-369.5 194.5,-369.5 194.5,-369.5 191,-369.5 187.5,-366 187.5,-362.5 187.5,-362.5 187.5,-355.5 187.5,-355.5 187.5,-352 191,-348.5 194.5,-348.5"/>
<text text-anchor="middle" x="214.5" y="-355.9" font-family="Times,serif" font-size="12.00" fill="#000000">hash</text>
</g>
<!-- hash&#45;&gt;string -->
<g id="edge7" class="edge">
<title>hash&#45;&gt;string</title>
<path fill="none" stroke="#000000" d="M214.6221,-348.3774C214.9602,-318.9614 215.9104,-236.2987 216.3144,-201.1461"/>
<polygon fill="#000000" stroke="#000000" points="218.0667,-200.9475 216.3744,-195.9277 214.5669,-200.9072 218.0667,-200.9475"/>
</g>
<!-- history -->
<g id="node10" class="node">
<title>history</title>
<path fill="none" stroke="#000000" stroke-width="1.5" d="M155,-464.5C155,-464.5 200,-464.5 200,-464.5 203.5,-464.5 207,-468 207,-471.5 207,-471.5 207,-478.5 207,-478.5 207,-482 203.5,-485.5 200,-485.5 200,-485.5 155,-485.5 155,-485.5 151.5,-485.5 148,-482 148,-478.5 148,-478.5 148,-471.5 148,-471.5 148,-468 151.5,-464.5 155,-464.5"/>
<text text-anchor="middle" x="177.5" y="-471.9" font-family="Times,serif" font-size="12.00" fill="#000000">history</text>
</g>
<!-- history&#45;&gt;charset -->
<g id="edge8" class="edge">
<title>history&#45;&gt;charset</title>
<path fill="none" stroke="#000000" d="M172.7312,-464.3619C168.6997,-455.3685 162.874,-442.3727 158.3445,-432.2684"/>
<polygon fill="#000000" stroke="#000000" points="159.8808,-431.4173 156.2386,-427.5707 156.687,-432.8491 159.8808,-431.4173"/>
</g>
<!-- history&#45;&gt;hash -->
<g id="edge9" class="edge">
<title>history&#45;&gt;hash</title>
<path fill="none" stroke="#000000" d="M180.9146,-464.2949C187.4676,-443.7502 201.8343,-398.7087 209.4805,-374.7369"/>
<polygon fill="#000000" stroke="#000000" points="211.2415,-374.9746 211.0937,-369.6792 207.907,-373.9109 211.2415,-374.9746"/>
</g>
<!-- list -->
<g id="node11" class="node">
<title>list</title>
<path fill="none" stroke="#000000" stroke-width="1.5" d="M245.5,-232.5C245.5,-232.5 285.5,-232.5 285.5,-232.5 289,-232.5 292.5,-236 292.5,-239.5 292.5,-239.5 292.5,-246.5 292.5,-246.5 292.5,-250 289,-253.5 285.5,-253.5 285.5,-253.5 245.5,-253.5 245.5,-253.5 242,-253.5 238.5,-250 238.5,-246.5 238.5,-246.5 238.5,-239.5 238.5,-239.5 238.5,-236 242,-232.5 245.5,-232.5"/>
<text text-anchor="middle" x="265.5" y="-239.9" font-family="Times,serif" font-size="12.00" fill="#000000">list</text>
</g>
<!-- list&#45;&gt;string -->
<g id="edge10" class="edge">
<title>list&#45;&gt;string</title>
<path fill="none" stroke="#000000" d="M256.5126,-232.3619C248.7075,-223.1232 237.3342,-209.6609 228.7063,-199.4483"/>
<polygon fill="#000000" stroke="#000000" points="229.994,-198.2607 225.4304,-195.5707 227.3204,-200.5195 229.994,-198.2607"/>
</g>
<!-- logging -->
<g id="node12" class="node">
<title>logging</title>
<path fill="none" stroke="#000000" stroke-width="1.5" d="M207.5,-58.5C207.5,-58.5 255.5,-58.5 255.5,-58.5 259,-58.5 262.5,-62 262.5,-65.5 262.5,-65.5 262.5,-72.5 262.5,-72.5 262.5,-76 259,-79.5 255.5,-79.5 255.5,-79.5 207.5,-79.5 207.5,-79.5 204,-79.5 200.5,-76 200.5,-72.5 200.5,-72.5 200.5,-65.5 200.5,-65.5 200.5,-62 204,-58.5 207.5,-58.5"/>
<text text-anchor="middle" x="231.5" y="-65.9" font-family="Times,serif" font-size="12.00" fill="#000000">logging</text>
</g>
<!-- logging&#45;&gt;string -->
<g id="edge14" class="edge">
<title>logging&#45;&gt;string</title>
<path fill="none" stroke="#000000" d="M230.1191,-79.6792C227.4651,-100.2033 221.6409,-145.2434 218.5389,-169.2329"/>
<polygon fill="#000000" stroke="#000000" points="216.79,-169.1118 217.8843,-174.2949 220.2611,-169.5607 216.79,-169.1118"/>
</g>
<!-- logging&#45;&gt;file -->
<g id="edge11" class="edge">
<title>logging&#45;&gt;file</title>
<path fill="none" stroke="#000000" d="M219.0278,-58.3619C208.0045,-48.9597 191.8525,-35.183 179.8073,-24.9092"/>
<polygon fill="#000000" stroke="#000000" points="180.833,-23.484 175.8932,-21.5707 178.5617,-26.1469 180.833,-23.484"/>
</g>
<!-- message -->
<g id="node13" class="node">
<title>message</title>
<path fill="none" stroke="#000000" stroke-width="1.5" d="M279.5,-.5C279.5,-.5 333.5,-.5 333.5,-.5 337,-.5 340.5,-4 340.5,-7.5 340.5,-7.5 340.5,-14.5 340.5,-14.5 340.5,-18 337,-21.5 333.5,-21.5 333.5,-21.5 279.5,-21.5 279.5,-21.5 276,-21.5 272.5,-18 272.5,-14.5 272.5,-14.5 272.5,-7.5 272.5,-7.5 272.5,-4 276,-.5 279.5,-.5"/>
<text text-anchor="middle" x="306.5" y="-7.9" font-family="Times,serif" font-size="12.00" fill="#000000">message</text>
</g>
<!-- logging&#45;&gt;message -->
<g id="edge12" class="edge">
<title>logging&#45;&gt;message</title>
<path fill="none" stroke="#000000" d="M245.2562,-58.3619C257.5199,-48.8779 275.5391,-34.9431 288.8596,-24.6419"/>
<polygon fill="#000000" stroke="#000000" points="289.9463,-26.0138 292.8311,-21.5707 287.8052,-23.2451 289.9463,-26.0138"/>
</g>
<!-- queue -->
<g id="node14" class="node">
<title>queue</title>
<path fill="none" stroke="#000000" stroke-width="1.5" d="M211.5,-.5C211.5,-.5 251.5,-.5 251.5,-.5 255,-.5 258.5,-4 258.5,-7.5 258.5,-7.5 258.5,-14.5 258.5,-14.5 258.5,-18 255,-21.5 251.5,-21.5 251.5,-21.5 211.5,-21.5 211.5,-21.5 208,-21.5 204.5,-18 204.5,-14.5 204.5,-14.5 204.5,-7.5 204.5,-7.5 204.5,-4 208,-.5 211.5,-.5"/>
<text text-anchor="middle" x="231.5" y="-7.9" font-family="Times,serif" font-size="12.00" fill="#000000">queue</text>
</g>
<!-- logging&#45;&gt;queue -->
<g id="edge13" class="edge">
<title>logging&#45;&gt;queue</title>
<path fill="none" stroke="#000000" d="M231.5,-58.3619C231.5,-49.532 231.5,-36.844 231.5,-26.8224"/>
<polygon fill="#000000" stroke="#000000" points="233.2501,-26.5706 231.5,-21.5707 229.7501,-26.5707 233.2501,-26.5706"/>
</g>
<!-- mapping -->
<g id="node15" class="node">
<title>mapping</title>
<path fill="none" stroke="#000000" stroke-width="1.5" d="M314,-232.5C314,-232.5 369,-232.5 369,-232.5 372.5,-232.5 376,-236 376,-239.5 376,-239.5 376,-246.5 376,-246.5 376,-250 372.5,-253.5 369,-253.5 369,-253.5 314,-253.5 314,-253.5 310.5,-253.5 307,-250 307,-246.5 307,-246.5 307,-239.5 307,-239.5 307,-236 310.5,-232.5 314,-232.5"/>
<text text-anchor="middle" x="341.5" y="-239.9" font-family="Times,serif" font-size="12.00" fill="#000000">mapping</text>
</g>
<!-- mapping&#45;&gt;string -->
<g id="edge15" class="edge">
<title>mapping&#45;&gt;string</title>
<path fill="none" stroke="#000000" d="M318.8634,-232.4966C297.845,-222.7441 266.5035,-208.2016 244.0419,-197.7794"/>
<polygon fill="#000000" stroke="#000000" points="244.6627,-196.1383 239.3906,-195.6212 243.1895,-199.3132 244.6627,-196.1383"/>
</g>
<!-- mbyte&#45;&gt;buffer -->
<g id="edge16" class="edge">
<title>mbyte&#45;&gt;buffer</title>
<path fill="none" stroke="#000000" d="M89.1107,-290.3619C77.2769,-280.9597 59.9372,-267.183 47.0064,-256.9092"/>
<polygon fill="#000000" stroke="#000000" points="47.8079,-255.3109 42.8044,-253.5707 45.6306,-258.0512 47.8079,-255.3109"/>
</g>
<!-- mbyte&#45;&gt;charset -->
<g id="edge17" class="edge">
<title>mbyte&#45;&gt;charset</title>
<path fill="none" stroke="#000000" d="M112.3018,-311.7709C120.0063,-320.809 130.4201,-334.3914 136.5,-348 144.1813,-365.1931 148.0451,-386.5962 149.9071,-400.9668"/>
<polygon fill="#000000" stroke="#000000" points="148.2129,-401.5361 150.5471,-406.2915 151.6879,-401.1184 148.2129,-401.5361"/>
</g>
<!-- memory&#45;&gt;logging -->
<g id="edge19" class="edge">
<title>memory&#45;&gt;logging</title>
<path fill="none" stroke="#000000" d="M264.1634,-116.3619C257.8483,-107.205 248.6716,-93.8988 241.6519,-83.7202"/>
<polygon fill="#000000" stroke="#000000" points="243.0694,-82.6932 238.7901,-79.5707 240.1882,-84.6803 243.0694,-82.6932"/>
</g>
<!-- exit -->
<g id="node18" class="node">
<title>exit</title>
<path fill="none" stroke="#000000" stroke-width="1.5" d="M352.5,-58.5C352.5,-58.5 392.5,-58.5 392.5,-58.5 396,-58.5 399.5,-62 399.5,-65.5 399.5,-65.5 399.5,-72.5 399.5,-72.5 399.5,-76 396,-79.5 392.5,-79.5 392.5,-79.5 352.5,-79.5 352.5,-79.5 349,-79.5 345.5,-76 345.5,-72.5 345.5,-72.5 345.5,-65.5 345.5,-65.5 345.5,-62 349,-58.5 352.5,-58.5"/>
<text text-anchor="middle" x="372.5" y="-65.9" font-family="Times,serif" font-size="12.00" fill="#000000">exit</text>
</g>
<!-- memory&#45;&gt;exit -->
<g id="edge18" class="edge">
<title>memory&#45;&gt;exit</title>
<path fill="none" stroke="#000000" d="M290.025,-116.3619C306.8249,-106.7144 331.6451,-92.4612 349.6663,-82.1124"/>
<polygon fill="#000000" stroke="#000000" points="350.628,-83.5782 354.0925,-79.5707 348.8851,-80.5431 350.628,-83.5782"/>
</g>
<!-- path -->
<g id="node19" class="node">
<title>path</title>
<path fill="none" stroke="#000000" stroke-width="1.5" d="M397.5,-232.5C397.5,-232.5 437.5,-232.5 437.5,-232.5 441,-232.5 444.5,-236 444.5,-239.5 444.5,-239.5 444.5,-246.5 444.5,-246.5 444.5,-250 441,-253.5 437.5,-253.5 437.5,-253.5 397.5,-253.5 397.5,-253.5 394,-253.5 390.5,-250 390.5,-246.5 390.5,-246.5 390.5,-239.5 390.5,-239.5 390.5,-236 394,-232.5 397.5,-232.5"/>
<text text-anchor="middle" x="417.5" y="-239.9" font-family="Times,serif" font-size="12.00" fill="#000000">path</text>
</g>
<!-- path&#45;&gt;string -->
<g id="edge20" class="edge">
<title>path&#45;&gt;string</title>
<path fill="none" stroke="#000000" d="M390.4343,-234.1395C388.0925,-233.4044 385.7566,-232.6823 383.5,-232 336.9773,-217.9334 282.7509,-202.9258 249.0175,-193.7526"/>
<polygon fill="#000000" stroke="#000000" points="249.0677,-191.9529 243.7838,-192.3315 248.1505,-195.3306 249.0677,-191.9529"/>
</g>
<!-- signal -->
<g id="node20" class="node">
<title>signal</title>
<path fill="none" stroke="#000000" stroke-width="1.5" d="M284.5,-58.5C284.5,-58.5 324.5,-58.5 324.5,-58.5 328,-58.5 331.5,-62 331.5,-65.5 331.5,-65.5 331.5,-72.5 331.5,-72.5 331.5,-76 328,-79.5 324.5,-79.5 324.5,-79.5 284.5,-79.5 284.5,-79.5 281,-79.5 277.5,-76 277.5,-72.5 277.5,-72.5 277.5,-65.5 277.5,-65.5 277.5,-62 281,-58.5 284.5,-58.5"/>
<text text-anchor="middle" x="304.5" y="-65.9" font-family="Times,serif" font-size="12.00" fill="#000000">signal</text>
</g>
<!-- signal&#45;&gt;message -->
<g id="edge22" class="edge">
<title>signal&#45;&gt;message</title>
<path fill="none" stroke="#000000" d="M304.8668,-58.3619C305.1713,-49.532 305.6088,-36.844 305.9544,-26.8224"/>
<polygon fill="#000000" stroke="#000000" points="307.7121,-26.628 306.1355,-21.5707 304.2141,-26.5073 307.7121,-26.628"/>
</g>
<!-- sha1 -->
<g id="node21" class="node">
<title>sha1</title>
<path fill="none" stroke="#000000" stroke-width="1.5" d="M361.5,-.5C361.5,-.5 401.5,-.5 401.5,-.5 405,-.5 408.5,-4 408.5,-7.5 408.5,-7.5 408.5,-14.5 408.5,-14.5 408.5,-18 405,-21.5 401.5,-21.5 401.5,-21.5 361.5,-21.5 361.5,-21.5 358,-21.5 354.5,-18 354.5,-14.5 354.5,-14.5 354.5,-7.5 354.5,-7.5 354.5,-4 358,-.5 361.5,-.5"/>
<text text-anchor="middle" x="381.5" y="-7.9" font-family="Times,serif" font-size="12.00" fill="#000000">sha1</text>
</g>
<!-- md5 -->
<g id="node22" class="node">
<title>md5</title>
<path fill="none" stroke="#000000" stroke-width="1.5" d="M429.5,-.5C429.5,-.5 469.5,-.5 469.5,-.5 473,-.5 476.5,-4 476.5,-7.5 476.5,-7.5 476.5,-14.5 476.5,-14.5 476.5,-18 473,-21.5 469.5,-21.5 469.5,-21.5 429.5,-21.5 429.5,-21.5 426,-21.5 422.5,-18 422.5,-14.5 422.5,-14.5 422.5,-7.5 422.5,-7.5 422.5,-4 426,-.5 429.5,-.5"/>
<text text-anchor="middle" x="449.5" y="-7.9" font-family="Times,serif" font-size="12.00" fill="#000000">md5</text>
</g>
</g>
</svg>
