<?xml version="1.0" encoding="UTF-8" standalone="no"?>
<!DOCTYPE svg PUBLIC "-//W3C//DTD SVG 1.1//EN"
 "http://www.w3.org/Graphics/SVG/1.1/DTD/svg11.dtd">
<!-- Generated by graphviz version 2.44.0 (0)
 -->
<!-- Title: libmutt Pages: 1 -->
<svg width="644pt" height="320pt"
 viewBox="0.00 0.00 643.50 320.00" xmlns="http://www.w3.org/2000/svg" xmlns:xlink="http://www.w3.org/1999/xlink">
<g id="graph0" class="graph" transform="scale(1 1) rotate(0) translate(4 316)">
<title>libmutt</title>
<polygon fill="white" stroke="transparent" points="-4,4 -4,-316 639.5,-316 639.5,4 -4,4"/>
<!-- base64 -->
<g id="node1" class="node">
<title>base64</title>
<path fill="none" stroke="black" stroke-width="1.5" d="M294.5,-290.5C294.5,-290.5 340.5,-290.5 340.5,-290.5 344,-290.5 347.5,-294 347.5,-297.5 347.5,-297.5 347.5,-304.5 347.5,-304.5 347.5,-308 344,-311.5 340.5,-311.5 340.5,-311.5 294.5,-311.5 294.5,-311.5 291,-311.5 287.5,-308 287.5,-304.5 287.5,-304.5 287.5,-297.5 287.5,-297.5 287.5,-294 291,-290.5 294.5,-290.5"/>
<text text-anchor="middle" x="317.5" y="-297.9" font-family="Times-Roman" font-size="12.00">base64</text>
</g>
<!-- buffer -->
<g id="node2" class="node">
<title>buffer</title>
<path fill="none" stroke="black" stroke-width="1.5" d="M226.5,-232.5C226.5,-232.5 266.5,-232.5 266.5,-232.5 270,-232.5 273.5,-236 273.5,-239.5 273.5,-239.5 273.5,-246.5 273.5,-246.5 273.5,-250 270,-253.5 266.5,-253.5 266.5,-253.5 226.5,-253.5 226.5,-253.5 223,-253.5 219.5,-250 219.5,-246.5 219.5,-246.5 219.5,-239.5 219.5,-239.5 219.5,-236 223,-232.5 226.5,-232.5"/>
<text text-anchor="middle" x="246.5" y="-239.9" font-family="Times-Roman" font-size="12.00">buffer</text>
</g>
<!-- base64&#45;&gt;buffer -->
<g id="edge1" class="edge">
<title>base64&#45;&gt;buffer</title>
<path fill="none" stroke="black" d="M305.13,-290.25C293.42,-281.01 275.77,-267.09 262.89,-256.93"/>
<polygon fill="black" stroke="black" points="263.74,-255.37 258.73,-253.64 261.57,-258.11 263.74,-255.37"/>
</g>
<!-- string -->
<g id="node3" class="node">
<title>string</title>
<path fill="none" stroke="black" stroke-width="1.5" d="M251.5,-174.5C251.5,-174.5 291.5,-174.5 291.5,-174.5 295,-174.5 298.5,-178 298.5,-181.5 298.5,-181.5 298.5,-188.5 298.5,-188.5 298.5,-192 295,-195.5 291.5,-195.5 291.5,-195.5 251.5,-195.5 251.5,-195.5 248,-195.5 244.5,-192 244.5,-188.5 244.5,-188.5 244.5,-181.5 244.5,-181.5 244.5,-178 248,-174.5 251.5,-174.5"/>
<text text-anchor="middle" x="271.5" y="-181.9" font-family="Times-Roman" font-size="12.00">string</text>
</g>
<!-- buffer&#45;&gt;string -->
<g id="edge2" class="edge">
<title>buffer&#45;&gt;string</title>
<path fill="none" stroke="black" d="M250.85,-232.25C254.8,-223.41 260.66,-210.29 265.13,-200.28"/>
<polygon fill="black" stroke="black" points="266.75,-200.92 267.2,-195.64 263.56,-199.49 266.75,-200.92"/>
</g>
<!-- memory -->
<g id="node19" class="node">
<title>memory</title>
<path fill="none" stroke="black" stroke-width="1.5" d="M321.5,-116.5C321.5,-116.5 375.5,-116.5 375.5,-116.5 379,-116.5 382.5,-120 382.5,-123.5 382.5,-123.5 382.5,-130.5 382.5,-130.5 382.5,-134 379,-137.5 375.5,-137.5 375.5,-137.5 321.5,-137.5 321.5,-137.5 318,-137.5 314.5,-134 314.5,-130.5 314.5,-130.5 314.5,-123.5 314.5,-123.5 314.5,-120 318,-116.5 321.5,-116.5"/>
<text text-anchor="middle" x="348.5" y="-123.9" font-family="Times-Roman" font-size="12.00">memory</text>
</g>
<!-- string&#45;&gt;memory -->
<g id="edge32" class="edge">
<title>string&#45;&gt;memory</title>
<path fill="none" stroke="black" d="M284.91,-174.25C297.72,-164.93 317.09,-150.84 331.08,-140.67"/>
<polygon fill="black" stroke="black" points="332.23,-142 335.24,-137.64 330.17,-139.17 332.23,-142"/>
</g>
<!-- charset -->
<g id="node4" class="node">
<title>charset</title>
<path fill="none" stroke="black" stroke-width="1.5" d="M530.5,-232.5C530.5,-232.5 578.5,-232.5 578.5,-232.5 582,-232.5 585.5,-236 585.5,-239.5 585.5,-239.5 585.5,-246.5 585.5,-246.5 585.5,-250 582,-253.5 578.5,-253.5 578.5,-253.5 530.5,-253.5 530.5,-253.5 527,-253.5 523.5,-250 523.5,-246.5 523.5,-246.5 523.5,-239.5 523.5,-239.5 523.5,-236 527,-232.5 530.5,-232.5"/>
<text text-anchor="middle" x="554.5" y="-239.9" font-family="Times-Roman" font-size="12.00">charset</text>
</g>
<!-- regex -->
<g id="node5" class="node">
<title>regex</title>
<path fill="none" stroke="black" stroke-width="1.5" d="M560.5,-174.5C560.5,-174.5 600.5,-174.5 600.5,-174.5 604,-174.5 607.5,-178 607.5,-181.5 607.5,-181.5 607.5,-188.5 607.5,-188.5 607.5,-192 604,-195.5 600.5,-195.5 600.5,-195.5 560.5,-195.5 560.5,-195.5 557,-195.5 553.5,-192 553.5,-188.5 553.5,-188.5 553.5,-181.5 553.5,-181.5 553.5,-178 557,-174.5 560.5,-174.5"/>
<text text-anchor="middle" x="580.5" y="-181.9" font-family="Times-Roman" font-size="12.00">regex</text>
</g>
<!-- charset&#45;&gt;regex -->
<g id="edge3" class="edge">
<title>charset&#45;&gt;regex</title>
<path fill="none" stroke="black" d="M559.03,-232.25C563.13,-223.41 569.22,-210.29 573.87,-200.28"/>
<polygon fill="black" stroke="black" points="575.5,-200.91 576.02,-195.64 572.33,-199.44 575.5,-200.91"/>
</g>
<!-- mbyte -->
<g id="node18" class="node">
<title>mbyte</title>
<path fill="none" stroke="black" stroke-width="1.5" d="M534,-290.5C534,-290.5 575,-290.5 575,-290.5 578.5,-290.5 582,-294 582,-297.5 582,-297.5 582,-304.5 582,-304.5 582,-308 578.5,-311.5 575,-311.5 575,-311.5 534,-311.5 534,-311.5 530.5,-311.5 527,-308 527,-304.5 527,-304.5 527,-297.5 527,-297.5 527,-294 530.5,-290.5 534,-290.5"/>
<text text-anchor="middle" x="554.5" y="-297.9" font-family="Times-Roman" font-size="12.00">mbyte</text>
</g>
<!-- regex&#45;&gt;mbyte -->
<g id="edge28" class="edge">
<title>regex&#45;&gt;mbyte</title>
<path fill="none" stroke="black" d="M585.37,-195.95C591.29,-209.45 599.64,-234.15 592.5,-254 587.98,-266.57 578.38,-278.14 569.96,-286.54"/>
<polygon fill="black" stroke="black" points="568.34,-285.66 565.95,-290.39 570.76,-288.19 568.34,-285.66"/>
</g>
<!-- date -->
<g id="node6" class="node">
<title>date</title>
<path fill="none" stroke="black" stroke-width="1.5" d="M432.5,-232.5C432.5,-232.5 472.5,-232.5 472.5,-232.5 476,-232.5 479.5,-236 479.5,-239.5 479.5,-239.5 479.5,-246.5 479.5,-246.5 479.5,-250 476,-253.5 472.5,-253.5 472.5,-253.5 432.5,-253.5 432.5,-253.5 429,-253.5 425.5,-250 425.5,-246.5 425.5,-246.5 425.5,-239.5 425.5,-239.5 425.5,-236 429,-232.5 432.5,-232.5"/>
<text text-anchor="middle" x="452.5" y="-239.9" font-family="Times-Roman" font-size="12.00">date</text>
</g>
<!-- date&#45;&gt;string -->
<g id="edge5" class="edge">
<title>date&#45;&gt;string</title>
<path fill="none" stroke="black" d="M425.4,-233.62C392.88,-223.55 338.4,-206.7 303.75,-195.98"/>
<polygon fill="black" stroke="black" points="304.08,-194.25 298.78,-194.44 303.04,-197.59 304.08,-194.25"/>
</g>
<!-- prex -->
<g id="node7" class="node">
<title>prex</title>
<path fill="none" stroke="black" stroke-width="1.5" d="M328.5,-174.5C328.5,-174.5 368.5,-174.5 368.5,-174.5 372,-174.5 375.5,-178 375.5,-181.5 375.5,-181.5 375.5,-188.5 375.5,-188.5 375.5,-192 372,-195.5 368.5,-195.5 368.5,-195.5 328.5,-195.5 328.5,-195.5 325,-195.5 321.5,-192 321.5,-188.5 321.5,-188.5 321.5,-181.5 321.5,-181.5 321.5,-178 325,-174.5 328.5,-174.5"/>
<text text-anchor="middle" x="348.5" y="-181.9" font-family="Times-Roman" font-size="12.00">prex</text>
</g>
<!-- date&#45;&gt;prex -->
<g id="edge4" class="edge">
<title>date&#45;&gt;prex</title>
<path fill="none" stroke="black" d="M434.38,-232.25C416.79,-222.77 390.02,-208.36 371.05,-198.14"/>
<polygon fill="black" stroke="black" points="371.64,-196.47 366.41,-195.64 369.98,-199.55 371.64,-196.47"/>
</g>
<!-- prex&#45;&gt;memory -->
<g id="edge24" class="edge">
<title>prex&#45;&gt;memory</title>
<path fill="none" stroke="black" d="M348.5,-174.25C348.5,-165.57 348.5,-152.76 348.5,-142.82"/>
<polygon fill="black" stroke="black" points="350.25,-142.64 348.5,-137.64 346.75,-142.64 350.25,-142.64"/>
</g>
<!-- envlist -->
<g id="node8" class="node">
<title>envlist</title>
<path fill="none" stroke="black" stroke-width="1.5" d="M363,-232.5C363,-232.5 404,-232.5 404,-232.5 407.5,-232.5 411,-236 411,-239.5 411,-239.5 411,-246.5 411,-246.5 411,-250 407.5,-253.5 404,-253.5 404,-253.5 363,-253.5 363,-253.5 359.5,-253.5 356,-250 356,-246.5 356,-246.5 356,-239.5 356,-239.5 356,-236 359.5,-232.5 363,-232.5"/>
<text text-anchor="middle" x="383.5" y="-239.9" font-family="Times-Roman" font-size="12.00">envlist</text>
</g>
<!-- envlist&#45;&gt;string -->
<g id="edge6" class="edge">
<title>envlist&#45;&gt;string</title>
<path fill="none" stroke="black" d="M364.25,-232.37C345.06,-222.78 315.56,-208.03 295.01,-197.75"/>
<polygon fill="black" stroke="black" points="295.76,-196.17 290.5,-195.5 294.19,-199.3 295.76,-196.17"/>
</g>
<!-- file -->
<g id="node9" class="node">
<title>file</title>
<path fill="none" stroke="black" stroke-width="1.5" d="M251.5,-0.5C251.5,-0.5 291.5,-0.5 291.5,-0.5 295,-0.5 298.5,-4 298.5,-7.5 298.5,-7.5 298.5,-14.5 298.5,-14.5 298.5,-18 295,-21.5 291.5,-21.5 291.5,-21.5 251.5,-21.5 251.5,-21.5 248,-21.5 244.5,-18 244.5,-14.5 244.5,-14.5 244.5,-7.5 244.5,-7.5 244.5,-4 248,-0.5 251.5,-0.5"/>
<text text-anchor="middle" x="271.5" y="-7.9" font-family="Times-Roman" font-size="12.00">file</text>
</g>
<!-- file&#45;&gt;string -->
<g id="edge7" class="edge">
<title>file&#45;&gt;string</title>
<path fill="none" stroke="black" d="M271.5,-21.63C271.5,-50.23 271.5,-134.78 271.5,-169.18"/>
<polygon fill="black" stroke="black" points="269.75,-169.26 271.5,-174.26 273.25,-169.26 269.75,-169.26"/>
</g>
<!-- filter -->
<g id="node10" class="node">
<title>filter</title>
<path fill="none" stroke="black" stroke-width="1.5" d="M417.5,-290.5C417.5,-290.5 457.5,-290.5 457.5,-290.5 461,-290.5 464.5,-294 464.5,-297.5 464.5,-297.5 464.5,-304.5 464.5,-304.5 464.5,-308 461,-311.5 457.5,-311.5 457.5,-311.5 417.5,-311.5 417.5,-311.5 414,-311.5 410.5,-308 410.5,-304.5 410.5,-304.5 410.5,-297.5 410.5,-297.5 410.5,-294 414,-290.5 417.5,-290.5"/>
<text text-anchor="middle" x="437.5" y="-297.9" font-family="Times-Roman" font-size="12.00">filter</text>
</g>
<!-- filter&#45;&gt;envlist -->
<g id="edge8" class="edge">
<title>filter&#45;&gt;envlist</title>
<path fill="none" stroke="black" d="M428.09,-290.25C419.34,-281.17 406.23,-267.57 396.48,-257.46"/>
<polygon fill="black" stroke="black" points="397.53,-256.03 392.8,-253.64 395.01,-258.46 397.53,-256.03"/>
</g>
<!-- signal -->
<g id="node11" class="node">
<title>signal</title>
<path fill="none" stroke="black" stroke-width="1.5" d="M481.5,-116.5C481.5,-116.5 521.5,-116.5 521.5,-116.5 525,-116.5 528.5,-120 528.5,-123.5 528.5,-123.5 528.5,-130.5 528.5,-130.5 528.5,-134 525,-137.5 521.5,-137.5 521.5,-137.5 481.5,-137.5 481.5,-137.5 478,-137.5 474.5,-134 474.5,-130.5 474.5,-130.5 474.5,-123.5 474.5,-123.5 474.5,-120 478,-116.5 481.5,-116.5"/>
<text text-anchor="middle" x="501.5" y="-123.9" font-family="Times-Roman" font-size="12.00">signal</text>
</g>
<!-- filter&#45;&gt;signal -->
<g id="edge9" class="edge">
<title>filter&#45;&gt;signal</title>
<path fill="none" stroke="black" d="M452.61,-290.24C463.96,-282.03 478.82,-269.21 486.5,-254 504.97,-217.44 504.52,-167.52 502.89,-142.93"/>
<polygon fill="black" stroke="black" points="504.63,-142.66 502.51,-137.8 501.14,-142.92 504.63,-142.66"/>
</g>
<!-- message -->
<g id="node15" class="node">
<title>message</title>
<path fill="none" stroke="black" stroke-width="1.5" d="M435,-0.5C435,-0.5 492,-0.5 492,-0.5 495.5,-0.5 499,-4 499,-7.5 499,-7.5 499,-14.5 499,-14.5 499,-18 495.5,-21.5 492,-21.5 492,-21.5 435,-21.5 435,-21.5 431.5,-21.5 428,-18 428,-14.5 428,-14.5 428,-7.5 428,-7.5 428,-4 431.5,-0.5 435,-0.5"/>
<text text-anchor="middle" x="463.5" y="-7.9" font-family="Times-Roman" font-size="12.00">message</text>
</g>
<!-- signal&#45;&gt;message -->
<g id="edge29" class="edge">
<title>signal&#45;&gt;message</title>
<path fill="none" stroke="black" d="M498.26,-116.28C491.59,-96.26 476.27,-50.31 468.39,-26.66"/>
<polygon fill="black" stroke="black" points="469.97,-25.88 466.73,-21.69 466.65,-26.99 469.97,-25.88"/>
</g>
<!-- hash -->
<g id="node12" class="node">
<title>hash</title>
<path fill="none" stroke="black" stroke-width="1.5" d="M294.5,-232.5C294.5,-232.5 334.5,-232.5 334.5,-232.5 338,-232.5 341.5,-236 341.5,-239.5 341.5,-239.5 341.5,-246.5 341.5,-246.5 341.5,-250 338,-253.5 334.5,-253.5 334.5,-253.5 294.5,-253.5 294.5,-253.5 291,-253.5 287.5,-250 287.5,-246.5 287.5,-246.5 287.5,-239.5 287.5,-239.5 287.5,-236 291,-232.5 294.5,-232.5"/>
<text text-anchor="middle" x="314.5" y="-239.9" font-family="Times-Roman" font-size="12.00">hash</text>
</g>
<!-- hash&#45;&gt;string -->
<g id="edge10" class="edge">
<title>hash&#45;&gt;string</title>
<path fill="none" stroke="black" d="M307.01,-232.25C300.1,-223.25 289.78,-209.81 282.04,-199.73"/>
<polygon fill="black" stroke="black" points="283.34,-198.54 278.9,-195.64 280.56,-200.67 283.34,-198.54"/>
</g>
<!-- list -->
<g id="node13" class="node">
<title>list</title>
<path fill="none" stroke="black" stroke-width="1.5" d="M158.5,-232.5C158.5,-232.5 198.5,-232.5 198.5,-232.5 202,-232.5 205.5,-236 205.5,-239.5 205.5,-239.5 205.5,-246.5 205.5,-246.5 205.5,-250 202,-253.5 198.5,-253.5 198.5,-253.5 158.5,-253.5 158.5,-253.5 155,-253.5 151.5,-250 151.5,-246.5 151.5,-246.5 151.5,-239.5 151.5,-239.5 151.5,-236 155,-232.5 158.5,-232.5"/>
<text text-anchor="middle" x="178.5" y="-239.9" font-family="Times-Roman" font-size="12.00">list</text>
</g>
<!-- list&#45;&gt;string -->
<g id="edge11" class="edge">
<title>list&#45;&gt;string</title>
<path fill="none" stroke="black" d="M194.7,-232.25C210.3,-222.85 233.97,-208.6 250.9,-198.4"/>
<polygon fill="black" stroke="black" points="252.11,-199.72 255.49,-195.64 250.3,-196.72 252.11,-199.72"/>
</g>
<!-- logging -->
<g id="node14" class="node">
<title>logging</title>
<path fill="none" stroke="black" stroke-width="1.5" d="M320.5,-58.5C320.5,-58.5 366.5,-58.5 366.5,-58.5 370,-58.5 373.5,-62 373.5,-65.5 373.5,-65.5 373.5,-72.5 373.5,-72.5 373.5,-76 370,-79.5 366.5,-79.5 366.5,-79.5 320.5,-79.5 320.5,-79.5 317,-79.5 313.5,-76 313.5,-72.5 313.5,-72.5 313.5,-65.5 313.5,-65.5 313.5,-62 317,-58.5 320.5,-58.5"/>
<text text-anchor="middle" x="343.5" y="-65.9" font-family="Times-Roman" font-size="12.00">logging</text>
</g>
<!-- logging&#45;&gt;string -->
<g id="edge15" class="edge">
<title>logging&#45;&gt;string</title>
<path fill="none" stroke="black" d="M334.96,-79.85C327.3,-88.91 316,-102.9 307.5,-116 295.98,-133.77 284.92,-155.61 278.17,-169.66"/>
<polygon fill="black" stroke="black" points="276.45,-169.2 275.89,-174.46 279.61,-170.7 276.45,-169.2"/>
</g>
<!-- logging&#45;&gt;file -->
<g id="edge12" class="edge">
<title>logging&#45;&gt;file</title>
<path fill="none" stroke="black" d="M330.96,-58.25C319.09,-49.01 301.18,-35.09 288.12,-24.93"/>
<polygon fill="black" stroke="black" points="288.92,-23.33 283.9,-21.64 286.77,-26.09 288.92,-23.33"/>
</g>
<!-- logging&#45;&gt;message -->
<g id="edge13" class="edge">
<title>logging&#45;&gt;message</title>
<path fill="none" stroke="black" d="M364.13,-58.37C384.77,-48.74 416.55,-33.91 438.59,-23.62"/>
<polygon fill="black" stroke="black" points="439.35,-25.2 443.14,-21.5 437.87,-22.03 439.35,-25.2"/>
</g>
<!-- queue -->
<g id="node16" class="node">
<title>queue</title>
<path fill="none" stroke="black" stroke-width="1.5" d="M323.5,-0.5C323.5,-0.5 363.5,-0.5 363.5,-0.5 367,-0.5 370.5,-4 370.5,-7.5 370.5,-7.5 370.5,-14.5 370.5,-14.5 370.5,-18 367,-21.5 363.5,-21.5 363.5,-21.5 323.5,-21.5 323.5,-21.5 320,-21.5 316.5,-18 316.5,-14.5 316.5,-14.5 316.5,-7.5 316.5,-7.5 316.5,-4 320,-0.5 323.5,-0.5"/>
<text text-anchor="middle" x="343.5" y="-7.9" font-family="Times-Roman" font-size="12.00">queue</text>
</g>
<!-- logging&#45;&gt;queue -->
<g id="edge14" class="edge">
<title>logging&#45;&gt;queue</title>
<path fill="none" stroke="black" d="M343.5,-58.25C343.5,-49.57 343.5,-36.76 343.5,-26.82"/>
<polygon fill="black" stroke="black" points="345.25,-26.64 343.5,-21.64 341.75,-26.64 345.25,-26.64"/>
</g>
<!-- mapping -->
<g id="node17" class="node">
<title>mapping</title>
<path fill="none" stroke="black" stroke-width="1.5" d="M7,-232.5C7,-232.5 62,-232.5 62,-232.5 65.5,-232.5 69,-236 69,-239.5 69,-239.5 69,-246.5 69,-246.5 69,-250 65.5,-253.5 62,-253.5 62,-253.5 7,-253.5 7,-253.5 3.5,-253.5 0,-250 0,-246.5 0,-246.5 0,-239.5 0,-239.5 0,-236 3.5,-232.5 7,-232.5"/>
<text text-anchor="middle" x="34.5" y="-239.9" font-family="Times-Roman" font-size="12.00">mapping</text>
</g>
<!-- mapping&#45;&gt;string -->
<g id="edge16" class="edge">
<title>mapping&#45;&gt;string</title>
<path fill="none" stroke="black" d="M69.33,-233.7C71.76,-233.12 74.17,-232.55 76.5,-232 133.83,-218.41 200.67,-202.67 239.33,-193.57"/>
<polygon fill="black" stroke="black" points="239.9,-195.23 244.37,-192.38 239.1,-191.82 239.9,-195.23"/>
</g>
<!-- mbyte&#45;&gt;buffer -->
<g id="edge17" class="edge">
<title>mbyte&#45;&gt;buffer</title>
<path fill="none" stroke="black" d="M526.67,-296.45C476.92,-289.86 369.58,-274.5 280.5,-254 279.93,-253.87 279.36,-253.73 278.78,-253.6"/>
<polygon fill="black" stroke="black" points="278.79,-251.79 273.52,-252.26 277.94,-255.19 278.79,-251.79"/>
</g>
<!-- mbyte&#45;&gt;charset -->
<g id="edge18" class="edge">
<title>mbyte&#45;&gt;charset</title>
<path fill="none" stroke="black" d="M554.5,-290.25C554.5,-281.57 554.5,-268.76 554.5,-258.82"/>
<polygon fill="black" stroke="black" points="556.25,-258.64 554.5,-253.64 552.75,-258.64 556.25,-258.64"/>
</g>
<!-- memory&#45;&gt;logging -->
<g id="edge20" class="edge">
<title>memory&#45;&gt;logging</title>
<path fill="none" stroke="black" d="M347.63,-116.25C346.85,-107.57 345.71,-94.76 344.82,-84.82"/>
<polygon fill="black" stroke="black" points="346.55,-84.47 344.36,-79.64 343.06,-84.78 346.55,-84.47"/>
</g>
<!-- exit -->
<g id="node20" class="node">
<title>exit</title>
<path fill="none" stroke="black" stroke-width="1.5" d="M394.5,-58.5C394.5,-58.5 434.5,-58.5 434.5,-58.5 438,-58.5 441.5,-62 441.5,-65.5 441.5,-65.5 441.5,-72.5 441.5,-72.5 441.5,-76 438,-79.5 434.5,-79.5 434.5,-79.5 394.5,-79.5 394.5,-79.5 391,-79.5 387.5,-76 387.5,-72.5 387.5,-72.5 387.5,-65.5 387.5,-65.5 387.5,-62 391,-58.5 394.5,-58.5"/>
<text text-anchor="middle" x="414.5" y="-65.9" font-family="Times-Roman" font-size="12.00">exit</text>
</g>
<!-- memory&#45;&gt;exit -->
<g id="edge19" class="edge">
<title>memory&#45;&gt;exit</title>
<path fill="none" stroke="black" d="M360,-116.25C370.88,-107.01 387.29,-93.09 399.26,-82.93"/>
<polygon fill="black" stroke="black" points="400.46,-84.21 403.14,-79.64 398.19,-81.54 400.46,-84.21"/>
</g>
<!-- notify -->
<g id="node21" class="node">
<title>notify</title>
<path fill="none" stroke="black" stroke-width="1.5" d="M396.5,-174.5C396.5,-174.5 436.5,-174.5 436.5,-174.5 440,-174.5 443.5,-178 443.5,-181.5 443.5,-181.5 443.5,-188.5 443.5,-188.5 443.5,-192 440,-195.5 436.5,-195.5 436.5,-195.5 396.5,-195.5 396.5,-195.5 393,-195.5 389.5,-192 389.5,-188.5 389.5,-188.5 389.5,-181.5 389.5,-181.5 389.5,-178 393,-174.5 396.5,-174.5"/>
<text text-anchor="middle" x="416.5" y="-181.9" font-family="Times-Roman" font-size="12.00">notify</text>
</g>
<!-- notify&#45;&gt;memory -->
<g id="edge21" class="edge">
<title>notify&#45;&gt;memory</title>
<path fill="none" stroke="black" d="M404.66,-174.25C393.44,-165.01 376.53,-151.09 364.2,-140.93"/>
<polygon fill="black" stroke="black" points="365.18,-139.47 360.21,-137.64 362.96,-142.17 365.18,-139.47"/>
</g>
<!-- path -->
<g id="node22" class="node">
<title>path</title>
<path fill="none" stroke="black" stroke-width="1.5" d="M90.5,-232.5C90.5,-232.5 130.5,-232.5 130.5,-232.5 134,-232.5 137.5,-236 137.5,-239.5 137.5,-239.5 137.5,-246.5 137.5,-246.5 137.5,-250 134,-253.5 130.5,-253.5 130.5,-253.5 90.5,-253.5 90.5,-253.5 87,-253.5 83.5,-250 83.5,-246.5 83.5,-246.5 83.5,-239.5 83.5,-239.5 83.5,-236 87,-232.5 90.5,-232.5"/>
<text text-anchor="middle" x="110.5" y="-239.9" font-family="Times-Roman" font-size="12.00">path</text>
</g>
<!-- path&#45;&gt;string -->
<g id="edge22" class="edge">
<title>path&#45;&gt;string</title>
<path fill="none" stroke="black" d="M137.81,-232.5C165.88,-222.74 209.57,-207.54 239.31,-197.2"/>
<polygon fill="black" stroke="black" points="240.18,-198.75 244.32,-195.45 239.03,-195.44 240.18,-198.75"/>
</g>
<!-- pool -->
<g id="node23" class="node">
<title>pool</title>
<path fill="none" stroke="black" stroke-width="1.5" d="M226.5,-290.5C226.5,-290.5 266.5,-290.5 266.5,-290.5 270,-290.5 273.5,-294 273.5,-297.5 273.5,-297.5 273.5,-304.5 273.5,-304.5 273.5,-308 270,-311.5 266.5,-311.5 266.5,-311.5 226.5,-311.5 226.5,-311.5 223,-311.5 219.5,-308 219.5,-304.5 219.5,-304.5 219.5,-297.5 219.5,-297.5 219.5,-294 223,-290.5 226.5,-290.5"/>
<text text-anchor="middle" x="246.5" y="-297.9" font-family="Times-Roman" font-size="12.00">pool</text>
</g>
<!-- pool&#45;&gt;buffer -->
<g id="edge23" class="edge">
<title>pool&#45;&gt;buffer</title>
<path fill="none" stroke="black" d="M246.5,-290.25C246.5,-281.57 246.5,-268.76 246.5,-258.82"/>
<polygon fill="black" stroke="black" points="248.25,-258.64 246.5,-253.64 244.75,-258.64 248.25,-258.64"/>
</g>
<!-- random -->
<g id="node24" class="node">
<title>random</title>
<path fill="none" stroke="black" stroke-width="1.5" d="M403.5,-116.5C403.5,-116.5 453.5,-116.5 453.5,-116.5 457,-116.5 460.5,-120 460.5,-123.5 460.5,-123.5 460.5,-130.5 460.5,-130.5 460.5,-134 457,-137.5 453.5,-137.5 453.5,-137.5 403.5,-137.5 403.5,-137.5 400,-137.5 396.5,-134 396.5,-130.5 396.5,-130.5 396.5,-123.5 396.5,-123.5 396.5,-120 400,-116.5 403.5,-116.5"/>
<text text-anchor="middle" x="428.5" y="-123.9" font-family="Times-Roman" font-size="12.00">random</text>
</g>
<!-- random&#45;&gt;logging -->
<g id="edge26" class="edge">
<title>random&#45;&gt;logging</title>
<path fill="none" stroke="black" d="M413.69,-116.25C399.43,-106.85 377.81,-92.6 362.33,-82.4"/>
<polygon fill="black" stroke="black" points="363.27,-80.93 358.14,-79.64 361.35,-83.85 363.27,-80.93"/>
</g>
<!-- random&#45;&gt;message -->
<g id="edge27" class="edge">
<title>random&#45;&gt;message</title>
<path fill="none" stroke="black" d="M433.35,-116.34C437.8,-107.18 444.31,-92.92 448.5,-80 454.29,-62.13 458.58,-40.9 461.06,-26.98"/>
<polygon fill="black" stroke="black" points="462.82,-27.07 461.94,-21.84 459.37,-26.47 462.82,-27.07"/>
</g>
<!-- random&#45;&gt;exit -->
<g id="edge25" class="edge">
<title>random&#45;&gt;exit</title>
<path fill="none" stroke="black" d="M426.06,-116.25C423.87,-107.49 420.63,-94.53 418.14,-84.55"/>
<polygon fill="black" stroke="black" points="419.82,-84.07 416.91,-79.64 416.43,-84.92 419.82,-84.07"/>
</g>
<!-- slist -->
<g id="node25" class="node">
<title>slist</title>
<path fill="none" stroke="black" stroke-width="1.5" d="M158.5,-290.5C158.5,-290.5 198.5,-290.5 198.5,-290.5 202,-290.5 205.5,-294 205.5,-297.5 205.5,-297.5 205.5,-304.5 205.5,-304.5 205.5,-308 202,-311.5 198.5,-311.5 198.5,-311.5 158.5,-311.5 158.5,-311.5 155,-311.5 151.5,-308 151.5,-304.5 151.5,-304.5 151.5,-297.5 151.5,-297.5 151.5,-294 155,-290.5 158.5,-290.5"/>
<text text-anchor="middle" x="178.5" y="-297.9" font-family="Times-Roman" font-size="12.00">slist</text>
</g>
<!-- slist&#45;&gt;buffer -->
<g id="edge30" class="edge">
<title>slist&#45;&gt;buffer</title>
<path fill="none" stroke="black" d="M190.34,-290.25C201.56,-281.01 218.47,-267.09 230.8,-256.93"/>
<polygon fill="black" stroke="black" points="232.04,-258.17 234.79,-253.64 229.82,-255.47 232.04,-258.17"/>
</g>
<!-- slist&#45;&gt;list -->
<g id="edge31" class="edge">
<title>slist&#45;&gt;list</title>
<path fill="none" stroke="black" d="M178.5,-290.25C178.5,-281.57 178.5,-268.76 178.5,-258.82"/>
<polygon fill="black" stroke="black" points="180.25,-258.64 178.5,-253.64 176.75,-258.64 180.25,-258.64"/>
</g>
<!-- array -->
<g id="node26" class="node">
<title>array</title>
<path fill="none" stroke="black" stroke-width="1.5" d="M520.5,-0.5C520.5,-0.5 560.5,-0.5 560.5,-0.5 564,-0.5 567.5,-4 567.5,-7.5 567.5,-7.5 567.5,-14.5 567.5,-14.5 567.5,-18 564,-21.5 560.5,-21.5 560.5,-21.5 520.5,-21.5 520.5,-21.5 517,-21.5 513.5,-18 513.5,-14.5 513.5,-14.5 513.5,-7.5 513.5,-7.5 513.5,-4 517,-0.5 520.5,-0.5"/>
<text text-anchor="middle" x="540.5" y="-7.9" font-family="Times-Roman" font-size="12.00">array</text>
</g>
<!-- md5 -->
<g id="node27" class="node">
<title>md5</title>
<path fill="none" stroke="black" stroke-width="1.5" d="M588.5,-0.5C588.5,-0.5 628.5,-0.5 628.5,-0.5 632,-0.5 635.5,-4 635.5,-7.5 635.5,-7.5 635.5,-14.5 635.5,-14.5 635.5,-18 632,-21.5 628.5,-21.5 628.5,-21.5 588.5,-21.5 588.5,-21.5 585,-21.5 581.5,-18 581.5,-14.5 581.5,-14.5 581.5,-7.5 581.5,-7.5 581.5,-4 585,-0.5 588.5,-0.5"/>
<text text-anchor="middle" x="608.5" y="-7.9" font-family="Times-Roman" font-size="12.00">md5</text>
</g>
</g>
</svg>
