<?xml version="1.0" encoding="UTF-8" standalone="no"?>
<!DOCTYPE svg PUBLIC "-//W3C//DTD SVG 1.1//EN"
 "http://www.w3.org/Graphics/SVG/1.1/DTD/svg11.dtd">
<!-- Generated by graphviz version 2.42.4 (0)
 -->
<!-- Title: libmutt Pages: 1 -->
<svg width="586pt" height="320pt"
 viewBox="0.00 0.00 586.00 320.00" xmlns="http://www.w3.org/2000/svg" xmlns:xlink="http://www.w3.org/1999/xlink">
<g id="graph0" class="graph" transform="scale(1 1) rotate(0) translate(4 316)">
<title>libmutt</title>
<polygon fill="white" stroke="transparent" points="-4,4 -4,-316 582,-316 582,4 -4,4"/>
<!-- base64 -->
<g id="node1" class="node">
<title>base64</title>
<path fill="none" stroke="black" stroke-width="1.5" d="M362.5,-290.5C362.5,-290.5 407.5,-290.5 407.5,-290.5 411,-290.5 414.5,-294 414.5,-297.5 414.5,-297.5 414.5,-304.5 414.5,-304.5 414.5,-308 411,-311.5 407.5,-311.5 407.5,-311.5 362.5,-311.5 362.5,-311.5 359,-311.5 355.5,-308 355.5,-304.5 355.5,-304.5 355.5,-297.5 355.5,-297.5 355.5,-294 359,-290.5 362.5,-290.5"/>
<text text-anchor="middle" x="385" y="-297.9" font-family="Times,serif" font-size="12.00">base64</text>
</g>
<!-- buffer -->
<g id="node2" class="node">
<title>buffer</title>
<path fill="none" stroke="black" stroke-width="1.5" d="M365,-232.5C365,-232.5 405,-232.5 405,-232.5 408.5,-232.5 412,-236 412,-239.5 412,-239.5 412,-246.5 412,-246.5 412,-250 408.5,-253.5 405,-253.5 405,-253.5 365,-253.5 365,-253.5 361.5,-253.5 358,-250 358,-246.5 358,-246.5 358,-239.5 358,-239.5 358,-236 361.5,-232.5 365,-232.5"/>
<text text-anchor="middle" x="385" y="-239.9" font-family="Times,serif" font-size="12.00">buffer</text>
</g>
<!-- base64&#45;&gt;buffer -->
<g id="edge1" class="edge">
<title>base64&#45;&gt;buffer</title>
<path fill="none" stroke="black" d="M385,-290.25C385,-281.57 385,-268.76 385,-258.82"/>
<polygon fill="black" stroke="black" points="386.75,-258.64 385,-253.64 383.25,-258.64 386.75,-258.64"/>
</g>
<!-- string -->
<g id="node3" class="node">
<title>string</title>
<path fill="none" stroke="black" stroke-width="1.5" d="M221,-174.5C221,-174.5 261,-174.5 261,-174.5 264.5,-174.5 268,-178 268,-181.5 268,-181.5 268,-188.5 268,-188.5 268,-192 264.5,-195.5 261,-195.5 261,-195.5 221,-195.5 221,-195.5 217.5,-195.5 214,-192 214,-188.5 214,-188.5 214,-181.5 214,-181.5 214,-178 217.5,-174.5 221,-174.5"/>
<text text-anchor="middle" x="241" y="-181.9" font-family="Times,serif" font-size="12.00">string</text>
</g>
<!-- buffer&#45;&gt;string -->
<g id="edge2" class="edge">
<title>buffer&#45;&gt;string</title>
<path fill="none" stroke="black" d="M360.25,-232.37C335.26,-222.66 296.7,-207.66 270.23,-197.37"/>
<polygon fill="black" stroke="black" points="270.73,-195.68 265.43,-195.5 269.46,-198.94 270.73,-195.68"/>
</g>
<!-- memory -->
<g id="node16" class="node">
<title>memory</title>
<path fill="none" stroke="black" stroke-width="1.5" d="M270,-116.5C270,-116.5 322,-116.5 322,-116.5 325.5,-116.5 329,-120 329,-123.5 329,-123.5 329,-130.5 329,-130.5 329,-134 325.5,-137.5 322,-137.5 322,-137.5 270,-137.5 270,-137.5 266.5,-137.5 263,-134 263,-130.5 263,-130.5 263,-123.5 263,-123.5 263,-120 266.5,-116.5 270,-116.5"/>
<text text-anchor="middle" x="296" y="-123.9" font-family="Times,serif" font-size="12.00">memory</text>
</g>
<!-- string&#45;&gt;memory -->
<g id="edge24" class="edge">
<title>string&#45;&gt;memory</title>
<path fill="none" stroke="black" d="M250.58,-174.25C259.49,-165.17 272.85,-151.57 282.78,-141.46"/>
<polygon fill="black" stroke="black" points="284.27,-142.44 286.53,-137.64 281.78,-139.98 284.27,-142.44"/>
</g>
<!-- charset -->
<g id="node4" class="node">
<title>charset</title>
<path fill="none" stroke="black" stroke-width="1.5" d="M501,-232.5C501,-232.5 549,-232.5 549,-232.5 552.5,-232.5 556,-236 556,-239.5 556,-239.5 556,-246.5 556,-246.5 556,-250 552.5,-253.5 549,-253.5 549,-253.5 501,-253.5 501,-253.5 497.5,-253.5 494,-250 494,-246.5 494,-246.5 494,-239.5 494,-239.5 494,-236 497.5,-232.5 501,-232.5"/>
<text text-anchor="middle" x="525" y="-239.9" font-family="Times,serif" font-size="12.00">charset</text>
</g>
<!-- regex -->
<g id="node5" class="node">
<title>regex</title>
<path fill="none" stroke="black" stroke-width="1.5" d="M531,-174.5C531,-174.5 571,-174.5 571,-174.5 574.5,-174.5 578,-178 578,-181.5 578,-181.5 578,-188.5 578,-188.5 578,-192 574.5,-195.5 571,-195.5 571,-195.5 531,-195.5 531,-195.5 527.5,-195.5 524,-192 524,-188.5 524,-188.5 524,-181.5 524,-181.5 524,-178 527.5,-174.5 531,-174.5"/>
<text text-anchor="middle" x="551" y="-181.9" font-family="Times,serif" font-size="12.00">regex</text>
</g>
<!-- charset&#45;&gt;regex -->
<g id="edge3" class="edge">
<title>charset&#45;&gt;regex</title>
<path fill="none" stroke="black" d="M529.53,-232.25C533.63,-223.41 539.72,-210.29 544.37,-200.28"/>
<polygon fill="black" stroke="black" points="546,-200.91 546.52,-195.64 542.83,-199.44 546,-200.91"/>
</g>
<!-- mbyte -->
<g id="node15" class="node">
<title>mbyte</title>
<path fill="none" stroke="black" stroke-width="1.5" d="M505,-290.5C505,-290.5 545,-290.5 545,-290.5 548.5,-290.5 552,-294 552,-297.5 552,-297.5 552,-304.5 552,-304.5 552,-308 548.5,-311.5 545,-311.5 545,-311.5 505,-311.5 505,-311.5 501.5,-311.5 498,-308 498,-304.5 498,-304.5 498,-297.5 498,-297.5 498,-294 501.5,-290.5 505,-290.5"/>
<text text-anchor="middle" x="525" y="-297.9" font-family="Times,serif" font-size="12.00">mbyte</text>
</g>
<!-- regex&#45;&gt;mbyte -->
<g id="edge22" class="edge">
<title>regex&#45;&gt;mbyte</title>
<path fill="none" stroke="black" d="M555.87,-195.95C561.79,-209.45 570.14,-234.15 563,-254 558.48,-266.57 548.88,-278.14 540.46,-286.54"/>
<polygon fill="black" stroke="black" points="538.84,-285.66 536.45,-290.39 541.26,-288.19 538.84,-285.66"/>
</g>
<!-- date -->
<g id="node6" class="node">
<title>date</title>
<path fill="none" stroke="black" stroke-width="1.5" d="M433,-232.5C433,-232.5 473,-232.5 473,-232.5 476.5,-232.5 480,-236 480,-239.5 480,-239.5 480,-246.5 480,-246.5 480,-250 476.5,-253.5 473,-253.5 473,-253.5 433,-253.5 433,-253.5 429.5,-253.5 426,-250 426,-246.5 426,-246.5 426,-239.5 426,-239.5 426,-236 429.5,-232.5 433,-232.5"/>
<text text-anchor="middle" x="453" y="-239.9" font-family="Times,serif" font-size="12.00">date</text>
</g>
<!-- date&#45;&gt;string -->
<g id="edge4" class="edge">
<title>date&#45;&gt;string</title>
<path fill="none" stroke="black" d="M425.93,-233.95C423.59,-233.28 421.25,-232.62 419,-232 368.27,-217.99 309.04,-202.94 273.31,-194.01"/>
<polygon fill="black" stroke="black" points="273.49,-192.25 268.22,-192.73 272.64,-195.64 273.49,-192.25"/>
</g>
<!-- envlist -->
<g id="node7" class="node">
<title>envlist</title>
<path fill="none" stroke="black" stroke-width="1.5" d="M7,-232.5C7,-232.5 49,-232.5 49,-232.5 52.5,-232.5 56,-236 56,-239.5 56,-239.5 56,-246.5 56,-246.5 56,-250 52.5,-253.5 49,-253.5 49,-253.5 7,-253.5 7,-253.5 3.5,-253.5 0,-250 0,-246.5 0,-246.5 0,-239.5 0,-239.5 0,-236 3.5,-232.5 7,-232.5"/>
<text text-anchor="middle" x="28" y="-239.9" font-family="Times,serif" font-size="12.00">envlist</text>
</g>
<!-- envlist&#45;&gt;string -->
<g id="edge5" class="edge">
<title>envlist&#45;&gt;string</title>
<path fill="none" stroke="black" d="M56.25,-233.86C58.53,-233.22 60.8,-232.6 63,-232 113.78,-218.19 172.99,-203.08 208.71,-194.08"/>
<polygon fill="black" stroke="black" points="209.38,-195.72 213.8,-192.8 208.53,-192.32 209.38,-195.72"/>
</g>
<!-- file -->
<g id="node8" class="node">
<title>file</title>
<path fill="none" stroke="black" stroke-width="1.5" d="M191,-0.5C191,-0.5 231,-0.5 231,-0.5 234.5,-0.5 238,-4 238,-7.5 238,-7.5 238,-14.5 238,-14.5 238,-18 234.5,-21.5 231,-21.5 231,-21.5 191,-21.5 191,-21.5 187.5,-21.5 184,-18 184,-14.5 184,-14.5 184,-7.5 184,-7.5 184,-4 187.5,-0.5 191,-0.5"/>
<text text-anchor="middle" x="211" y="-7.9" font-family="Times,serif" font-size="12.00">file</text>
</g>
<!-- file&#45;&gt;string -->
<g id="edge6" class="edge">
<title>file&#45;&gt;string</title>
<path fill="none" stroke="black" d="M212.68,-21.63C217.67,-50.23 232.42,-134.78 238.42,-169.18"/>
<polygon fill="black" stroke="black" points="236.72,-169.63 239.3,-174.26 240.17,-169.03 236.72,-169.63"/>
</g>
<!-- hash -->
<g id="node9" class="node">
<title>hash</title>
<path fill="none" stroke="black" stroke-width="1.5" d="M77,-232.5C77,-232.5 117,-232.5 117,-232.5 120.5,-232.5 124,-236 124,-239.5 124,-239.5 124,-246.5 124,-246.5 124,-250 120.5,-253.5 117,-253.5 117,-253.5 77,-253.5 77,-253.5 73.5,-253.5 70,-250 70,-246.5 70,-246.5 70,-239.5 70,-239.5 70,-236 73.5,-232.5 77,-232.5"/>
<text text-anchor="middle" x="97" y="-239.9" font-family="Times,serif" font-size="12.00">hash</text>
</g>
<!-- hash&#45;&gt;string -->
<g id="edge7" class="edge">
<title>hash&#45;&gt;string</title>
<path fill="none" stroke="black" d="M121.75,-232.37C146.74,-222.66 185.3,-207.66 211.77,-197.37"/>
<polygon fill="black" stroke="black" points="212.54,-198.94 216.57,-195.5 211.27,-195.68 212.54,-198.94"/>
</g>
<!-- list -->
<g id="node10" class="node">
<title>list</title>
<path fill="none" stroke="black" stroke-width="1.5" d="M145,-232.5C145,-232.5 185,-232.5 185,-232.5 188.5,-232.5 192,-236 192,-239.5 192,-239.5 192,-246.5 192,-246.5 192,-250 188.5,-253.5 185,-253.5 185,-253.5 145,-253.5 145,-253.5 141.5,-253.5 138,-250 138,-246.5 138,-246.5 138,-239.5 138,-239.5 138,-236 141.5,-232.5 145,-232.5"/>
<text text-anchor="middle" x="165" y="-239.9" font-family="Times,serif" font-size="12.00">list</text>
</g>
<!-- list&#45;&gt;string -->
<g id="edge8" class="edge">
<title>list&#45;&gt;string</title>
<path fill="none" stroke="black" d="M178.24,-232.25C190.88,-222.93 210,-208.84 223.81,-198.67"/>
<polygon fill="black" stroke="black" points="224.93,-200.02 227.91,-195.64 222.85,-197.2 224.93,-200.02"/>
</g>
<!-- logging -->
<g id="node11" class="node">
<title>logging</title>
<path fill="none" stroke="black" stroke-width="1.5" d="M247,-58.5C247,-58.5 295,-58.5 295,-58.5 298.5,-58.5 302,-62 302,-65.5 302,-65.5 302,-72.5 302,-72.5 302,-76 298.5,-79.5 295,-79.5 295,-79.5 247,-79.5 247,-79.5 243.5,-79.5 240,-76 240,-72.5 240,-72.5 240,-65.5 240,-65.5 240,-62 243.5,-58.5 247,-58.5"/>
<text text-anchor="middle" x="271" y="-65.9" font-family="Times,serif" font-size="12.00">logging</text>
</g>
<!-- logging&#45;&gt;string -->
<g id="edge12" class="edge">
<title>logging&#45;&gt;string</title>
<path fill="none" stroke="black" d="M267.5,-79.79C264.26,-89.04 259.45,-103.36 256,-116 251.06,-134.12 246.59,-155.3 243.84,-169.14"/>
<polygon fill="black" stroke="black" points="242.09,-169 242.84,-174.24 245.52,-169.67 242.09,-169"/>
</g>
<!-- logging&#45;&gt;file -->
<g id="edge9" class="edge">
<title>logging&#45;&gt;file</title>
<path fill="none" stroke="black" d="M260.55,-58.25C250.74,-49.09 235.99,-35.33 225.14,-25.2"/>
<polygon fill="black" stroke="black" points="226.18,-23.77 221.33,-21.64 223.79,-26.33 226.18,-23.77"/>
</g>
<!-- message -->
<g id="node12" class="node">
<title>message</title>
<path fill="none" stroke="black" stroke-width="1.5" d="M365,-0.5C365,-0.5 419,-0.5 419,-0.5 422.5,-0.5 426,-4 426,-7.5 426,-7.5 426,-14.5 426,-14.5 426,-18 422.5,-21.5 419,-21.5 419,-21.5 365,-21.5 365,-21.5 361.5,-21.5 358,-18 358,-14.5 358,-14.5 358,-7.5 358,-7.5 358,-4 361.5,-0.5 365,-0.5"/>
<text text-anchor="middle" x="392" y="-7.9" font-family="Times,serif" font-size="12.00">message</text>
</g>
<!-- logging&#45;&gt;message -->
<g id="edge10" class="edge">
<title>logging&#45;&gt;message</title>
<path fill="none" stroke="black" d="M291.8,-58.37C312.62,-48.74 344.66,-33.91 366.89,-23.62"/>
<polygon fill="black" stroke="black" points="367.67,-25.19 371.47,-21.5 366.2,-22.01 367.67,-25.19"/>
</g>
<!-- queue -->
<g id="node13" class="node">
<title>queue</title>
<path fill="none" stroke="black" stroke-width="1.5" d="M259,-0.5C259,-0.5 299,-0.5 299,-0.5 302.5,-0.5 306,-4 306,-7.5 306,-7.5 306,-14.5 306,-14.5 306,-18 302.5,-21.5 299,-21.5 299,-21.5 259,-21.5 259,-21.5 255.5,-21.5 252,-18 252,-14.5 252,-14.5 252,-7.5 252,-7.5 252,-4 255.5,-0.5 259,-0.5"/>
<text text-anchor="middle" x="279" y="-7.9" font-family="Times,serif" font-size="12.00">queue</text>
</g>
<!-- logging&#45;&gt;queue -->
<g id="edge11" class="edge">
<title>logging&#45;&gt;queue</title>
<path fill="none" stroke="black" d="M272.39,-58.25C273.63,-49.57 275.46,-36.76 276.88,-26.82"/>
<polygon fill="black" stroke="black" points="278.65,-26.84 277.62,-21.64 275.18,-26.34 278.65,-26.84"/>
</g>
<!-- mapping -->
<g id="node14" class="node">
<title>mapping</title>
<path fill="none" stroke="black" stroke-width="1.5" d="M213.5,-232.5C213.5,-232.5 268.5,-232.5 268.5,-232.5 272,-232.5 275.5,-236 275.5,-239.5 275.5,-239.5 275.5,-246.5 275.5,-246.5 275.5,-250 272,-253.5 268.5,-253.5 268.5,-253.5 213.5,-253.5 213.5,-253.5 210,-253.5 206.5,-250 206.5,-246.5 206.5,-246.5 206.5,-239.5 206.5,-239.5 206.5,-236 210,-232.5 213.5,-232.5"/>
<text text-anchor="middle" x="241" y="-239.9" font-family="Times,serif" font-size="12.00">mapping</text>
</g>
<!-- mapping&#45;&gt;string -->
<g id="edge13" class="edge">
<title>mapping&#45;&gt;string</title>
<path fill="none" stroke="black" d="M241,-232.25C241,-223.57 241,-210.76 241,-200.82"/>
<polygon fill="black" stroke="black" points="242.75,-200.64 241,-195.64 239.25,-200.64 242.75,-200.64"/>
</g>
<!-- mbyte&#45;&gt;buffer -->
<g id="edge14" class="edge">
<title>mbyte&#45;&gt;buffer</title>
<path fill="none" stroke="black" d="M500.93,-290.37C476.65,-280.66 439.15,-265.66 413.42,-255.37"/>
<polygon fill="black" stroke="black" points="414.05,-253.73 408.75,-253.5 412.75,-256.98 414.05,-253.73"/>
</g>
<!-- mbyte&#45;&gt;charset -->
<g id="edge15" class="edge">
<title>mbyte&#45;&gt;charset</title>
<path fill="none" stroke="black" d="M525,-290.25C525,-281.57 525,-268.76 525,-258.82"/>
<polygon fill="black" stroke="black" points="526.75,-258.64 525,-253.64 523.25,-258.64 526.75,-258.64"/>
</g>
<!-- memory&#45;&gt;logging -->
<g id="edge17" class="edge">
<title>memory&#45;&gt;logging</title>
<path fill="none" stroke="black" d="M291.65,-116.25C287.7,-107.41 281.84,-94.29 277.37,-84.28"/>
<polygon fill="black" stroke="black" points="278.94,-83.49 275.3,-79.64 275.75,-84.92 278.94,-83.49"/>
</g>
<!-- exit -->
<g id="node17" class="node">
<title>exit</title>
<path fill="none" stroke="black" stroke-width="1.5" d="M323,-58.5C323,-58.5 363,-58.5 363,-58.5 366.5,-58.5 370,-62 370,-65.5 370,-65.5 370,-72.5 370,-72.5 370,-76 366.5,-79.5 363,-79.5 363,-79.5 323,-79.5 323,-79.5 319.5,-79.5 316,-76 316,-72.5 316,-72.5 316,-65.5 316,-65.5 316,-62 319.5,-58.5 323,-58.5"/>
<text text-anchor="middle" x="343" y="-65.9" font-family="Times,serif" font-size="12.00">exit</text>
</g>
<!-- memory&#45;&gt;exit -->
<g id="edge16" class="edge">
<title>memory&#45;&gt;exit</title>
<path fill="none" stroke="black" d="M304.19,-116.25C311.73,-107.25 323.02,-93.81 331.47,-83.73"/>
<polygon fill="black" stroke="black" points="333.03,-84.6 334.91,-79.64 330.35,-82.35 333.03,-84.6"/>
</g>
<!-- path -->
<g id="node18" class="node">
<title>path</title>
<path fill="none" stroke="black" stroke-width="1.5" d="M297,-232.5C297,-232.5 337,-232.5 337,-232.5 340.5,-232.5 344,-236 344,-239.5 344,-239.5 344,-246.5 344,-246.5 344,-250 340.5,-253.5 337,-253.5 337,-253.5 297,-253.5 297,-253.5 293.5,-253.5 290,-250 290,-246.5 290,-246.5 290,-239.5 290,-239.5 290,-236 293.5,-232.5 297,-232.5"/>
<text text-anchor="middle" x="317" y="-239.9" font-family="Times,serif" font-size="12.00">path</text>
</g>
<!-- path&#45;&gt;string -->
<g id="edge18" class="edge">
<title>path&#45;&gt;string</title>
<path fill="none" stroke="black" d="M303.76,-232.25C291.12,-222.93 272,-208.84 258.19,-198.67"/>
<polygon fill="black" stroke="black" points="259.15,-197.2 254.09,-195.64 257.07,-200.02 259.15,-197.2"/>
</g>
<!-- random -->
<g id="node19" class="node">
<title>random</title>
<path fill="none" stroke="black" stroke-width="1.5" d="M350,-116.5C350,-116.5 400,-116.5 400,-116.5 403.5,-116.5 407,-120 407,-123.5 407,-123.5 407,-130.5 407,-130.5 407,-134 403.5,-137.5 400,-137.5 400,-137.5 350,-137.5 350,-137.5 346.5,-137.5 343,-134 343,-130.5 343,-130.5 343,-123.5 343,-123.5 343,-120 346.5,-116.5 350,-116.5"/>
<text text-anchor="middle" x="375" y="-123.9" font-family="Times,serif" font-size="12.00">random</text>
</g>
<!-- random&#45;&gt;logging -->
<g id="edge20" class="edge">
<title>random&#45;&gt;logging</title>
<path fill="none" stroke="black" d="M356.88,-116.25C339.29,-106.77 312.52,-92.36 293.55,-82.14"/>
<polygon fill="black" stroke="black" points="294.14,-80.47 288.91,-79.64 292.48,-83.55 294.14,-80.47"/>
</g>
<!-- random&#45;&gt;message -->
<g id="edge21" class="edge">
<title>random&#45;&gt;message</title>
<path fill="none" stroke="black" d="M376.45,-116.28C379.44,-96.26 386.29,-50.31 389.81,-26.66"/>
<polygon fill="black" stroke="black" points="391.55,-26.9 390.55,-21.69 388.09,-26.38 391.55,-26.9"/>
</g>
<!-- random&#45;&gt;exit -->
<g id="edge19" class="edge">
<title>random&#45;&gt;exit</title>
<path fill="none" stroke="black" d="M369.43,-116.25C364.33,-107.33 356.74,-94.05 351,-84"/>
<polygon fill="black" stroke="black" points="352.51,-83.12 348.51,-79.64 349.47,-84.85 352.51,-83.12"/>
</g>
<!-- signal -->
<g id="node20" class="node">
<title>signal</title>
<path fill="none" stroke="black" stroke-width="1.5" d="M421,-58.5C421,-58.5 461,-58.5 461,-58.5 464.5,-58.5 468,-62 468,-65.5 468,-65.5 468,-72.5 468,-72.5 468,-76 464.5,-79.5 461,-79.5 461,-79.5 421,-79.5 421,-79.5 417.5,-79.5 414,-76 414,-72.5 414,-72.5 414,-65.5 414,-65.5 414,-62 417.5,-58.5 421,-58.5"/>
<text text-anchor="middle" x="441" y="-65.9" font-family="Times,serif" font-size="12.00">signal</text>
</g>
<!-- signal&#45;&gt;message -->
<g id="edge23" class="edge">
<title>signal&#45;&gt;message</title>
<path fill="none" stroke="black" d="M432.46,-58.25C424.53,-49.17 412.62,-35.57 403.78,-25.46"/>
<polygon fill="black" stroke="black" points="405.05,-24.25 400.44,-21.64 402.41,-26.56 405.05,-24.25"/>
</g>
<!-- md5 -->
<g id="node21" class="node">
<title>md5</title>
<path fill="none" stroke="black" stroke-width="1.5" d="M447,-0.5C447,-0.5 487,-0.5 487,-0.5 490.5,-0.5 494,-4 494,-7.5 494,-7.5 494,-14.5 494,-14.5 494,-18 490.5,-21.5 487,-21.5 487,-21.5 447,-21.5 447,-21.5 443.5,-21.5 440,-18 440,-14.5 440,-14.5 440,-7.5 440,-7.5 440,-4 443.5,-0.5 447,-0.5"/>
<text text-anchor="middle" x="467" y="-7.9" font-family="Times,serif" font-size="12.00">md5</text>
</g>
</g>
</svg>
