<?xml version="1.0" encoding="UTF-8" standalone="no"?>
<!DOCTYPE svg PUBLIC "-//W3C//DTD SVG 1.1//EN"
 "http://www.w3.org/Graphics/SVG/1.1/DTD/svg11.dtd">
<!-- Generated by graphviz version 2.42.4 (0)
 -->
<!-- Title: notify Pages: 1 -->
<svg width="911pt" height="273pt"
 viewBox="0.00 0.00 911.00 273.00" xmlns="http://www.w3.org/2000/svg" xmlns:xlink="http://www.w3.org/1999/xlink">
<g id="graph0" class="graph" transform="scale(1 1) rotate(0) translate(4 269)">
<title>notify</title>
<polygon fill="white" stroke="transparent" points="-4,4 -4,-269 907,-269 907,4 -4,4"/>
<g id="clust1" class="cluster">
<title>cluster_window</title>
<polygon fill="none" stroke="#e0e0e0" stroke-dasharray="5,2" points="8,-8 8,-216 187,-216 187,-8 8,-8"/>
</g>
<g id="clust2" class="cluster">
<title>cluster_data</title>
<polygon fill="none" stroke="#e0e0e0" stroke-dasharray="5,2" points="569,-65 569,-216 895,-216 895,-65 569,-65"/>
</g>
<!-- NeoMutt -->
<g id="node1" class="node">
<title>NeoMutt</title>
<path fill="#404040" stroke="#000000" d="M440,-265C440,-265 384,-265 384,-265 380.5,-265 377,-261.5 377,-258 377,-258 377,-251 377,-251 377,-247.5 380.5,-244 384,-244 384,-244 440,-244 440,-244 443.5,-244 447,-247.5 447,-251 447,-251 447,-258 447,-258 447,-261.5 443.5,-265 440,-265"/>
<text text-anchor="middle" x="412" y="-251.4" font-family="Times,serif" font-size="12.00" fill="#ffffff">NeoMutt</text>
</g>
<!-- NConfig -->
<g id="node17" class="node">
<title>NConfig</title>
<path fill="#ffc0c0" stroke="#000000" d="M718.5,-265C718.5,-265 623.5,-265 623.5,-265 620,-265 616.5,-261.5 616.5,-258 616.5,-258 616.5,-251 616.5,-251 616.5,-247.5 620,-244 623.5,-244 623.5,-244 718.5,-244 718.5,-244 722,-244 725.5,-247.5 725.5,-251 725.5,-251 725.5,-258 725.5,-258 725.5,-261.5 722,-265 718.5,-265"/>
<text text-anchor="middle" x="671" y="-251.4" font-family="Times,serif" font-size="12.00">Config (Global)</text>
</g>
<!-- NeoMutt&#45;&gt;NConfig -->
<g id="edge18" class="edge">
<title>NeoMutt&#45;&gt;NConfig</title>
<path fill="none" stroke="#000000" d="M452.44,-254.5C507.08,-254.5 561.72,-254.5 616.35,-254.5"/>
<polygon fill="#000000" stroke="#000000" points="452.16,-252.75 447.16,-254.5 452.16,-256.25 452.16,-252.75"/>
</g>
<!-- root_win -->
<g id="node2" class="node">
<title>root_win</title>
<path fill="#ffffc0" stroke="#000000" d="M172,-208C172,-208 88,-208 88,-208 84.5,-208 81,-204.5 81,-201 81,-201 81,-194 81,-194 81,-190.5 84.5,-187 88,-187 88,-187 172,-187 172,-187 175.5,-187 179,-190.5 179,-194 179,-194 179,-201 179,-201 179,-204.5 175.5,-208 172,-208"/>
<text text-anchor="middle" x="130" y="-194.4" font-family="Times,serif" font-size="12.00">Root Window</text>
</g>
<!-- root_win&#45;&gt;NeoMutt -->
<g id="edge1" class="edge">
<title>root_win&#45;&gt;NeoMutt</title>
<path fill="none" stroke="#000000" d="M159.01,-208.04C168.22,-210.86 178.47,-213.78 188,-216 251.59,-230.85 326.65,-242.18 371.73,-248.33"/>
<polygon fill="#000000" stroke="#000000" points="371.62,-250.08 376.81,-249.02 372.09,-246.61 371.62,-250.08"/>
</g>
<!-- win1 -->
<g id="node3" class="node">
<title>win1</title>
<path fill="#ffffc0" stroke="#000000" d="M171.5,-151C171.5,-151 120.5,-151 120.5,-151 117,-151 113.5,-147.5 113.5,-144 113.5,-144 113.5,-137 113.5,-137 113.5,-133.5 117,-130 120.5,-130 120.5,-130 171.5,-130 171.5,-130 175,-130 178.5,-133.5 178.5,-137 178.5,-137 178.5,-144 178.5,-144 178.5,-147.5 175,-151 171.5,-151"/>
<text text-anchor="middle" x="146" y="-137.4" font-family="Times,serif" font-size="12.00">Window</text>
</g>
<!-- win1&#45;&gt;root_win -->
<g id="edge2" class="edge">
<title>win1&#45;&gt;root_win</title>
<path fill="none" stroke="#000000" d="M143.21,-151.08C140.74,-159.57 137.1,-172.1 134.26,-181.85"/>
<polygon fill="#000000" stroke="#000000" points="132.58,-181.37 132.86,-186.66 135.94,-182.35 132.58,-181.37"/>
</g>
<!-- win2 -->
<g id="node4" class="node">
<title>win2</title>
<path fill="#ffffc0" stroke="#000000" d="M171.5,-94C171.5,-94 120.5,-94 120.5,-94 117,-94 113.5,-90.5 113.5,-87 113.5,-87 113.5,-80 113.5,-80 113.5,-76.5 117,-73 120.5,-73 120.5,-73 171.5,-73 171.5,-73 175,-73 178.5,-76.5 178.5,-80 178.5,-80 178.5,-87 178.5,-87 178.5,-90.5 175,-94 171.5,-94"/>
<text text-anchor="middle" x="146" y="-80.4" font-family="Times,serif" font-size="12.00">Window</text>
</g>
<!-- win2&#45;&gt;win1 -->
<g id="edge3" class="edge">
<title>win2&#45;&gt;win1</title>
<path fill="none" stroke="#000000" d="M146,-94.08C146,-102.49 146,-114.87 146,-124.58"/>
<polygon fill="#000000" stroke="#000000" points="144.25,-124.66 146,-129.66 147.75,-124.66 144.25,-124.66"/>
</g>
<!-- win_dlg -->
<g id="node5" class="node">
<title>win_dlg</title>
<path fill="#ffffc0" stroke="#000000" d="M92.5,-151C92.5,-151 23.5,-151 23.5,-151 20,-151 16.5,-147.5 16.5,-144 16.5,-144 16.5,-137 16.5,-137 16.5,-133.5 20,-130 23.5,-130 23.5,-130 92.5,-130 92.5,-130 96,-130 99.5,-133.5 99.5,-137 99.5,-137 99.5,-144 99.5,-144 99.5,-147.5 96,-151 92.5,-151"/>
<text text-anchor="middle" x="58" y="-137.4" font-family="Times,serif" font-size="12.00">All Dialogs</text>
</g>
<!-- win_dlg&#45;&gt;root_win -->
<g id="edge4" class="edge">
<title>win_dlg&#45;&gt;root_win</title>
<path fill="none" stroke="#000000" d="M70.54,-151.08C82.27,-160.04 99.88,-173.49 112.9,-183.43"/>
<polygon fill="#000000" stroke="#000000" points="112.08,-185.01 117.12,-186.66 114.21,-182.23 112.08,-185.01"/>
</g>
<!-- dlg1 -->
<g id="node6" class="node">
<title>dlg1</title>
<path fill="#ffffc0" stroke="#000000" d="M79,-94C79,-94 37,-94 37,-94 33.5,-94 30,-90.5 30,-87 30,-87 30,-80 30,-80 30,-76.5 33.5,-73 37,-73 37,-73 79,-73 79,-73 82.5,-73 86,-76.5 86,-80 86,-80 86,-87 86,-87 86,-90.5 82.5,-94 79,-94"/>
<text text-anchor="middle" x="58" y="-80.4" font-family="Times,serif" font-size="12.00">Dialog</text>
</g>
<!-- dlg1&#45;&gt;win_dlg -->
<g id="edge5" class="edge">
<title>dlg1&#45;&gt;win_dlg</title>
<path fill="none" stroke="#000000" d="M58,-94.08C58,-102.49 58,-114.87 58,-124.58"/>
<polygon fill="#000000" stroke="#000000" points="56.25,-124.66 58,-129.66 59.75,-124.66 56.25,-124.66"/>
</g>
<!-- dlg1_win1 -->
<g id="node7" class="node">
<title>dlg1_win1</title>
<path fill="#ffffc0" stroke="#000000" d="M158.5,-37C158.5,-37 107.5,-37 107.5,-37 104,-37 100.5,-33.5 100.5,-30 100.5,-30 100.5,-23 100.5,-23 100.5,-19.5 104,-16 107.5,-16 107.5,-16 158.5,-16 158.5,-16 162,-16 165.5,-19.5 165.5,-23 165.5,-23 165.5,-30 165.5,-30 165.5,-33.5 162,-37 158.5,-37"/>
<text text-anchor="middle" x="133" y="-23.4" font-family="Times,serif" font-size="12.00">Window</text>
</g>
<!-- dlg1_win1&#45;&gt;dlg1 -->
<g id="edge6" class="edge">
<title>dlg1_win1&#45;&gt;dlg1</title>
<path fill="none" stroke="#000000" d="M119.94,-37.08C107.54,-46.17 88.82,-59.9 75.21,-69.88"/>
<polygon fill="#000000" stroke="#000000" points="74.16,-68.48 71.17,-72.84 76.23,-71.3 74.16,-68.48"/>
</g>
<!-- dlg1_win2 -->
<g id="node8" class="node">
<title>dlg1_win2</title>
<path fill="#ffffc0" stroke="#000000" d="M79.5,-37C79.5,-37 28.5,-37 28.5,-37 25,-37 21.5,-33.5 21.5,-30 21.5,-30 21.5,-23 21.5,-23 21.5,-19.5 25,-16 28.5,-16 28.5,-16 79.5,-16 79.5,-16 83,-16 86.5,-19.5 86.5,-23 86.5,-23 86.5,-30 86.5,-30 86.5,-33.5 83,-37 79.5,-37"/>
<text text-anchor="middle" x="54" y="-23.4" font-family="Times,serif" font-size="12.00">Window</text>
</g>
<!-- dlg1_win2&#45;&gt;dlg1 -->
<g id="edge7" class="edge">
<title>dlg1_win2&#45;&gt;dlg1</title>
<path fill="none" stroke="#000000" d="M54.7,-37.08C55.31,-45.49 56.21,-57.87 56.92,-67.58"/>
<polygon fill="#000000" stroke="#000000" points="55.18,-67.8 57.28,-72.66 58.67,-67.55 55.18,-67.8"/>
</g>
<!-- AConfig -->
<g id="node9" class="node">
<title>AConfig</title>
<path fill="#ffc0c0" stroke="#000000" d="M879.5,-208C879.5,-208 774.5,-208 774.5,-208 771,-208 767.5,-204.5 767.5,-201 767.5,-201 767.5,-194 767.5,-194 767.5,-190.5 771,-187 774.5,-187 774.5,-187 879.5,-187 879.5,-187 883,-187 886.5,-190.5 886.5,-194 886.5,-194 886.5,-201 886.5,-201 886.5,-204.5 883,-208 879.5,-208"/>
<text text-anchor="middle" x="827" y="-194.4" font-family="Times,serif" font-size="12.00">Config (Account)</text>
</g>
<!-- AConfig&#45;&gt;NConfig -->
<g id="edge19" class="edge">
<title>AConfig&#45;&gt;NConfig</title>
<path fill="none" stroke="#d0d0d0" stroke-dasharray="5,2" d="M799.83,-208.08C772.84,-217.59 731.48,-232.18 702.94,-242.24"/>
<polygon fill="#d0d0d0" stroke="#d0d0d0" points="702.26,-240.62 698.12,-243.94 703.42,-243.93 702.26,-240.62"/>
</g>
<!-- MConfig -->
<g id="node10" class="node">
<title>MConfig</title>
<path fill="#ffc0c0" stroke="#000000" d="M878,-151C878,-151 774,-151 774,-151 770.5,-151 767,-147.5 767,-144 767,-144 767,-137 767,-137 767,-133.5 770.5,-130 774,-130 774,-130 878,-130 878,-130 881.5,-130 885,-133.5 885,-137 885,-137 885,-144 885,-144 885,-147.5 881.5,-151 878,-151"/>
<text text-anchor="middle" x="826" y="-137.4" font-family="Times,serif" font-size="12.00">Config (Mailbox)</text>
</g>
<!-- MConfig&#45;&gt;AConfig -->
<g id="edge20" class="edge">
<title>MConfig&#45;&gt;AConfig</title>
<path fill="none" stroke="#d0d0d0" stroke-dasharray="5,2" d="M826.17,-151.08C826.33,-159.49 826.55,-171.87 826.73,-181.58"/>
<polygon fill="#d0d0d0" stroke="#d0d0d0" points="824.98,-181.69 826.82,-186.66 828.48,-181.63 824.98,-181.69"/>
</g>
<!-- AccountView -->
<g id="node11" class="node">
<title>AccountView</title>
<path fill="#c0c0ff" stroke="#000000" d="M665.5,-208C665.5,-208 584.5,-208 584.5,-208 581,-208 577.5,-204.5 577.5,-201 577.5,-201 577.5,-194 577.5,-194 577.5,-190.5 581,-187 584.5,-187 584.5,-187 665.5,-187 665.5,-187 669,-187 672.5,-190.5 672.5,-194 672.5,-194 672.5,-201 672.5,-201 672.5,-204.5 669,-208 665.5,-208"/>
<text text-anchor="middle" x="625" y="-194.4" font-family="Times,serif" font-size="12.00">AccountView</text>
</g>
<!-- Account -->
<g id="node14" class="node">
<title>Account</title>
<path fill="#c0ffc0" stroke="#000000" d="M746,-208C746,-208 694,-208 694,-208 690.5,-208 687,-204.5 687,-201 687,-201 687,-194 687,-194 687,-190.5 690.5,-187 694,-187 694,-187 746,-187 746,-187 749.5,-187 753,-190.5 753,-194 753,-194 753,-201 753,-201 753,-204.5 749.5,-208 746,-208"/>
<text text-anchor="middle" x="720" y="-194.4" font-family="Times,serif" font-size="12.00">Account</text>
</g>
<!-- AccountView&#45;&gt;Account -->
<g id="edge9" class="edge">
<title>AccountView&#45;&gt;Account</title>
<path fill="none" stroke="#000000" d="M672.87,-197.5C675.79,-197.5 678.7,-197.5 681.62,-197.5"/>
<polygon fill="#000000" stroke="#000000" points="681.86,-199.25 686.86,-197.5 681.86,-195.75 681.86,-199.25"/>
</g>
<!-- EmailView -->
<g id="node12" class="node">
<title>EmailView</title>
<path fill="#c0c0ff" stroke="#000000" d="M671.5,-94C671.5,-94 604.5,-94 604.5,-94 601,-94 597.5,-90.5 597.5,-87 597.5,-87 597.5,-80 597.5,-80 597.5,-76.5 601,-73 604.5,-73 604.5,-73 671.5,-73 671.5,-73 675,-73 678.5,-76.5 678.5,-80 678.5,-80 678.5,-87 678.5,-87 678.5,-90.5 675,-94 671.5,-94"/>
<text text-anchor="middle" x="638" y="-80.4" font-family="Times,serif" font-size="12.00">EmailView</text>
</g>
<!-- Email -->
<g id="node16" class="node">
<title>Email</title>
<path fill="#c0ffc0" stroke="#000000" d="M740,-94C740,-94 700,-94 700,-94 696.5,-94 693,-90.5 693,-87 693,-87 693,-80 693,-80 693,-76.5 696.5,-73 700,-73 700,-73 740,-73 740,-73 743.5,-73 747,-76.5 747,-80 747,-80 747,-87 747,-87 747,-90.5 743.5,-94 740,-94"/>
<text text-anchor="middle" x="720" y="-80.4" font-family="Times,serif" font-size="12.00">Email</text>
</g>
<!-- EmailView&#45;&gt;Email -->
<g id="edge13" class="edge">
<title>EmailView&#45;&gt;Email</title>
<path fill="none" stroke="#000000" d="M678.68,-83.5C681.64,-83.5 684.6,-83.5 687.56,-83.5"/>
<polygon fill="#000000" stroke="#000000" points="687.88,-85.25 692.88,-83.5 687.88,-81.75 687.88,-85.25"/>
</g>
<!-- MailboxView -->
<g id="node13" class="node">
<title>MailboxView</title>
<path fill="#c0c0ff" stroke="#000000" d="M666.5,-151C666.5,-151 585.5,-151 585.5,-151 582,-151 578.5,-147.5 578.5,-144 578.5,-144 578.5,-137 578.5,-137 578.5,-133.5 582,-130 585.5,-130 585.5,-130 666.5,-130 666.5,-130 670,-130 673.5,-133.5 673.5,-137 673.5,-137 673.5,-144 673.5,-144 673.5,-147.5 670,-151 666.5,-151"/>
<text text-anchor="middle" x="626" y="-137.4" font-family="Times,serif" font-size="12.00">MailboxView</text>
</g>
<!-- Mailbox -->
<g id="node15" class="node">
<title>Mailbox</title>
<path fill="#c0ffc0" stroke="#000000" d="M745.5,-151C745.5,-151 694.5,-151 694.5,-151 691,-151 687.5,-147.5 687.5,-144 687.5,-144 687.5,-137 687.5,-137 687.5,-133.5 691,-130 694.5,-130 694.5,-130 745.5,-130 745.5,-130 749,-130 752.5,-133.5 752.5,-137 752.5,-137 752.5,-144 752.5,-144 752.5,-147.5 749,-151 745.5,-151"/>
<text text-anchor="middle" x="720" y="-137.4" font-family="Times,serif" font-size="12.00">Mailbox</text>
</g>
<!-- MailboxView&#45;&gt;Mailbox -->
<g id="edge11" class="edge">
<title>MailboxView&#45;&gt;Mailbox</title>
<path fill="none" stroke="#000000" d="M673.73,-140.5C676.6,-140.5 679.46,-140.5 682.32,-140.5"/>
<polygon fill="#000000" stroke="#000000" points="682.47,-142.25 687.47,-140.5 682.47,-138.75 682.47,-142.25"/>
</g>
<!-- Account&#45;&gt;NeoMutt -->
<g id="edge8" class="edge">
<title>Account&#45;&gt;NeoMutt</title>
<path fill="none" stroke="#000000" d="M700.86,-208.14C694.38,-211.06 687,-214.02 680,-216 601.17,-238.3 505.39,-247.62 452.32,-251.3"/>
<polygon fill="#000000" stroke="#000000" points="452.19,-249.55 447.32,-251.63 452.43,-253.04 452.19,-249.55"/>
</g>
<!-- Account&#45;&gt;AConfig -->
<g id="edge14" class="edge">
<title>Account&#45;&gt;AConfig</title>
<path fill="none" stroke="#000000" d="M758.44,-197.5C761.45,-197.5 764.46,-197.5 767.47,-197.5"/>
<polygon fill="#000000" stroke="#000000" points="758.02,-195.75 753.02,-197.5 758.02,-199.25 758.02,-195.75"/>
</g>
<!-- Mailbox&#45;&gt;MConfig -->
<g id="edge15" class="edge">
<title>Mailbox&#45;&gt;MConfig</title>
<path fill="none" stroke="#000000" d="M757.97,-140.5C760.89,-140.5 763.82,-140.5 766.74,-140.5"/>
<polygon fill="#000000" stroke="#000000" points="757.71,-138.75 752.71,-140.5 757.71,-142.25 757.71,-138.75"/>
</g>
<!-- Mailbox&#45;&gt;Account -->
<g id="edge10" class="edge">
<title>Mailbox&#45;&gt;Account</title>
<path fill="none" stroke="#000000" d="M720,-151.08C720,-159.49 720,-171.87 720,-181.58"/>
<polygon fill="#000000" stroke="#000000" points="718.25,-181.66 720,-186.66 721.75,-181.66 718.25,-181.66"/>
</g>
<!-- Email&#45;&gt;Mailbox -->
<g id="edge12" class="edge">
<title>Email&#45;&gt;Mailbox</title>
<path fill="none" stroke="#000000" d="M720,-94.08C720,-102.49 720,-114.87 720,-124.58"/>
<polygon fill="#000000" stroke="#000000" points="718.25,-124.66 720,-129.66 721.75,-124.66 718.25,-124.66"/>
</g>
<!-- Colour -->
<g id="node18" class="node">
<title>Colour</title>
<path fill="#c0ffff" stroke="#000000" d="M246,-208C246,-208 202,-208 202,-208 198.5,-208 195,-204.5 195,-201 195,-201 195,-194 195,-194 195,-190.5 198.5,-187 202,-187 202,-187 246,-187 246,-187 249.5,-187 253,-190.5 253,-194 253,-194 253,-201 253,-201 253,-204.5 249.5,-208 246,-208"/>
<text text-anchor="middle" x="224" y="-194.4" font-family="Times,serif" font-size="12.00">Colour</text>
</g>
<!-- Colour&#45;&gt;NeoMutt -->
<g id="edge16" class="edge">
<title>Colour&#45;&gt;NeoMutt</title>
<path fill="none" stroke="#000000" d="M242.52,-208.14C248.33,-210.93 254.84,-213.8 261,-216 297.68,-229.08 340.93,-239.32 371.72,-245.77"/>
<polygon fill="#000000" stroke="#000000" points="371.69,-247.55 376.94,-246.85 372.4,-244.12 371.69,-247.55"/>
</g>
<!-- Context -->
<g id="node19" class="node">
<title>Context</title>
<path fill="#c0ffff" stroke="#000000" d="M323.5,-208C323.5,-208 274.5,-208 274.5,-208 271,-208 267.5,-204.5 267.5,-201 267.5,-201 267.5,-194 267.5,-194 267.5,-190.5 271,-187 274.5,-187 274.5,-187 323.5,-187 323.5,-187 327,-187 330.5,-190.5 330.5,-194 330.5,-194 330.5,-201 330.5,-201 330.5,-204.5 327,-208 323.5,-208"/>
<text text-anchor="middle" x="299" y="-194.4" font-family="Times,serif" font-size="12.00">Context</text>
</g>
<!-- Context&#45;&gt;NeoMutt -->
<g id="edge17" class="edge">
<title>Context&#45;&gt;NeoMutt</title>
<path fill="none" stroke="#000000" d="M318.68,-208.08C337.85,-217.41 367.02,-231.61 387.64,-241.64"/>
<polygon fill="#000000" stroke="#000000" points="386.9,-243.23 392.16,-243.84 388.43,-240.08 386.9,-243.23"/>
</g>
<!-- Alias -->
<g id="node20" class="node">
<title>Alias</title>
<path fill="#ffffff" stroke="#e0e0e0" d="M392,-208C392,-208 352,-208 352,-208 348.5,-208 345,-204.5 345,-201 345,-201 345,-194 345,-194 345,-190.5 348.5,-187 352,-187 352,-187 392,-187 392,-187 395.5,-187 399,-190.5 399,-194 399,-194 399,-201 399,-201 399,-204.5 395.5,-208 392,-208"/>
<text text-anchor="middle" x="372" y="-194.4" font-family="Times,serif" font-size="12.00">Alias</text>
</g>
<!-- Alias&#45;&gt;NeoMutt -->
<g id="edge21" class="edge">
<title>Alias&#45;&gt;NeoMutt</title>
<path fill="none" stroke="#000000" d="M378.97,-208.08C385.26,-216.73 394.59,-229.56 401.73,-239.38"/>
<polygon fill="#000000" stroke="#000000" points="400.49,-240.64 404.84,-243.66 403.32,-238.59 400.49,-240.64"/>
</g>
<!-- Command -->
<g id="node21" class="node">
<title>Command</title>
<path fill="#ffffff" stroke="#e0e0e0" d="M484,-208C484,-208 420,-208 420,-208 416.5,-208 413,-204.5 413,-201 413,-201 413,-194 413,-194 413,-190.5 416.5,-187 420,-187 420,-187 484,-187 484,-187 487.5,-187 491,-190.5 491,-194 491,-194 491,-201 491,-201 491,-204.5 487.5,-208 484,-208"/>
<text text-anchor="middle" x="452" y="-194.4" font-family="Times,serif" font-size="12.00">Command</text>
</g>
<!-- Command&#45;&gt;NeoMutt -->
<g id="edge22" class="edge">
<title>Command&#45;&gt;NeoMutt</title>
<path fill="none" stroke="#000000" d="M445.03,-208.08C438.74,-216.73 429.41,-229.56 422.27,-239.38"/>
<polygon fill="#000000" stroke="#000000" points="420.68,-238.59 419.16,-243.66 423.51,-240.64 420.68,-238.59"/>
</g>
<!-- Global -->
<g id="node22" class="node">
<title>Global</title>
<path fill="#ffffff" stroke="#e0e0e0" d="M554,-208C554,-208 512,-208 512,-208 508.5,-208 505,-204.5 505,-201 505,-201 505,-194 505,-194 505,-190.5 508.5,-187 512,-187 512,-187 554,-187 554,-187 557.5,-187 561,-190.5 561,-194 561,-194 561,-201 561,-201 561,-204.5 557.5,-208 554,-208"/>
<text text-anchor="middle" x="533" y="-194.4" font-family="Times,serif" font-size="12.00">Global</text>
</g>
<!-- Global&#45;&gt;NeoMutt -->
<g id="edge23" class="edge">
<title>Global&#45;&gt;NeoMutt</title>
<path fill="none" stroke="#000000" d="M514.2,-208.13C508.98,-210.74 503.29,-213.53 498,-216 478.58,-225.08 456.39,-234.74 439.42,-241.98"/>
<polygon fill="#000000" stroke="#000000" points="438.69,-240.38 434.78,-243.95 440.07,-243.61 438.69,-240.38"/>
</g>
</g>
</svg>
