<?xml version="1.0" encoding="UTF-8" standalone="no"?>
<!DOCTYPE svg PUBLIC "-//W3C//DTD SVG 1.1//EN"
 "http://www.w3.org/Graphics/SVG/1.1/DTD/svg11.dtd">
<!-- Generated by graphviz version 12.1.0 (20240811.2233)
 -->
<!-- Title: notify Pages: 1 -->
<svg width="825pt" height="279pt"
 viewBox="0.00 0.00 825.00 279.25" xmlns="http://www.w3.org/2000/svg" xmlns:xlink="http://www.w3.org/1999/xlink">
<g id="graph0" class="graph" transform="scale(1 1) rotate(0) translate(4 275.25)">
<title>notify</title>
<polygon fill="white" stroke="none" points="-4,4 -4,-275.25 821,-275.25 821,4 -4,4"/>
<g id="clust2" class="cluster">
<title>cluster_window</title>
<polygon fill="none" stroke="#e0e0e0" stroke-dasharray="5,2" points="8,-8 8,-221 184,-221 184,-8 8,-8"/>
</g>
<g id="clust3" class="cluster">
<title>cluster_data</title>
<polygon fill="none" stroke="#e0e0e0" stroke-dasharray="5,2" points="595,-66.25 595,-221 809,-221 809,-66.25 595,-66.25"/>
</g>
<!-- NeoMutt -->
<g id="node1" class="node">
<title>NeoMutt</title>
<path fill="#404040" stroke="#000000" d="M552.21,-271.25C552.21,-271.25 497.79,-271.25 497.79,-271.25 494.08,-271.25 490.38,-267.54 490.38,-263.83 490.38,-263.83 490.38,-256.42 490.38,-256.42 490.38,-252.71 494.08,-249 497.79,-249 497.79,-249 552.21,-249 552.21,-249 555.92,-249 559.62,-252.71 559.62,-256.42 559.62,-256.42 559.62,-263.83 559.62,-263.83 559.62,-267.54 555.92,-271.25 552.21,-271.25"/>
<text text-anchor="middle" x="525" y="-255.85" font-family="Times,serif" font-size="12.00" fill="#ffffff">NeoMutt</text>
</g>
<!-- NConfig -->
<g id="node18" class="node">
<title>NConfig</title>
<path fill="#ffc0c0" stroke="#000000" d="M748.71,-271.25C748.71,-271.25 655.29,-271.25 655.29,-271.25 651.58,-271.25 647.88,-267.54 647.88,-263.83 647.88,-263.83 647.88,-256.42 647.88,-256.42 647.88,-252.71 651.58,-249 655.29,-249 655.29,-249 748.71,-249 748.71,-249 752.42,-249 756.12,-252.71 756.12,-256.42 756.12,-256.42 756.12,-263.83 756.12,-263.83 756.12,-267.54 752.42,-271.25 748.71,-271.25"/>
<text text-anchor="middle" x="702" y="-255.85" font-family="Times,serif" font-size="12.00">Config (Global)</text>
</g>
<!-- NeoMutt&#45;&gt;NConfig -->
<g id="edge18" class="edge">
<title>NeoMutt&#45;&gt;NConfig</title>
<path fill="none" stroke="#000000" d="M566.42,-260.12C593.49,-260.12 620.55,-260.12 647.61,-260.12"/>
<polygon fill="#000000" stroke="#000000" points="566.43,-258.38 561.43,-260.13 566.43,-261.88 566.43,-258.38"/>
</g>
<!-- NeoMuttView -->
<g id="node2" class="node">
<title>NeoMuttView</title>
<path fill="#404040" stroke="#000000" d="M325.83,-271.25C325.83,-271.25 242.17,-271.25 242.17,-271.25 238.46,-271.25 234.75,-267.54 234.75,-263.83 234.75,-263.83 234.75,-256.42 234.75,-256.42 234.75,-252.71 238.46,-249 242.17,-249 242.17,-249 325.83,-249 325.83,-249 329.54,-249 333.25,-252.71 333.25,-256.42 333.25,-256.42 333.25,-263.83 333.25,-263.83 333.25,-267.54 329.54,-271.25 325.83,-271.25"/>
<text text-anchor="middle" x="284" y="-255.85" font-family="Times,serif" font-size="12.00" fill="#ffffff">NeoMuttView</text>
</g>
<!-- NeoMuttView&#45;&gt;NeoMutt -->
<g id="edge1" class="edge">
<title>NeoMuttView&#45;&gt;NeoMutt</title>
<path fill="none" stroke="#000000" d="M333.42,-260.12C383.54,-260.12 433.66,-260.12 483.77,-260.12"/>
<polygon fill="#000000" stroke="#000000" points="483.69,-261.88 488.69,-260.13 483.69,-258.38 483.69,-261.88"/>
</g>
<!-- root_win -->
<g id="node3" class="node">
<title>root_win</title>
<path fill="#ffffc0" stroke="#000000" d="M168.08,-213C168.08,-213 85.92,-213 85.92,-213 82.21,-213 78.5,-209.29 78.5,-205.58 78.5,-205.58 78.5,-198.17 78.5,-198.17 78.5,-194.46 82.21,-190.75 85.92,-190.75 85.92,-190.75 168.08,-190.75 168.08,-190.75 171.79,-190.75 175.5,-194.46 175.5,-198.17 175.5,-198.17 175.5,-205.58 175.5,-205.58 175.5,-209.29 171.79,-213 168.08,-213"/>
<text text-anchor="middle" x="127" y="-197.6" font-family="Times,serif" font-size="12.00">Root Window</text>
</g>
<!-- root_win&#45;&gt;NeoMuttView -->
<g id="edge2" class="edge">
<title>root_win&#45;&gt;NeoMuttView</title>
<path fill="none" stroke="#000000" d="M156.53,-213.46C182.63,-222.8 220.74,-236.46 248.49,-246.4"/>
<polygon fill="#000000" stroke="#000000" points="247.88,-248.04 253.18,-248.08 249.06,-244.75 247.88,-248.04"/>
</g>
<!-- win1 -->
<g id="node4" class="node">
<title>win1</title>
<path fill="#ffffc0" stroke="#000000" d="M72.96,-154.75C72.96,-154.75 23.04,-154.75 23.04,-154.75 19.33,-154.75 15.62,-151.04 15.62,-147.33 15.62,-147.33 15.62,-139.92 15.62,-139.92 15.62,-136.21 19.33,-132.5 23.04,-132.5 23.04,-132.5 72.96,-132.5 72.96,-132.5 76.67,-132.5 80.38,-136.21 80.38,-139.92 80.38,-139.92 80.38,-147.33 80.38,-147.33 80.38,-151.04 76.67,-154.75 72.96,-154.75"/>
<text text-anchor="middle" x="48" y="-139.35" font-family="Times,serif" font-size="12.00">Window</text>
</g>
<!-- win1&#45;&gt;root_win -->
<g id="edge3" class="edge">
<title>win1&#45;&gt;root_win</title>
<path fill="none" stroke="#000000" d="M62.86,-155.21C75.33,-164.08 93.25,-176.84 106.98,-186.62"/>
<polygon fill="#000000" stroke="#000000" points="105.89,-187.99 110.97,-189.46 107.92,-185.14 105.89,-187.99"/>
</g>
<!-- win2 -->
<g id="node5" class="node">
<title>win2</title>
<path fill="#ffffc0" stroke="#000000" d="M72.96,-96.5C72.96,-96.5 23.04,-96.5 23.04,-96.5 19.33,-96.5 15.62,-92.79 15.62,-89.08 15.62,-89.08 15.62,-81.67 15.62,-81.67 15.62,-77.96 19.33,-74.25 23.04,-74.25 23.04,-74.25 72.96,-74.25 72.96,-74.25 76.67,-74.25 80.38,-77.96 80.38,-81.67 80.38,-81.67 80.38,-89.08 80.38,-89.08 80.38,-92.79 76.67,-96.5 72.96,-96.5"/>
<text text-anchor="middle" x="48" y="-81.1" font-family="Times,serif" font-size="12.00">Window</text>
</g>
<!-- win2&#45;&gt;win1 -->
<g id="edge4" class="edge">
<title>win2&#45;&gt;win1</title>
<path fill="none" stroke="#000000" d="M48,-96.96C48,-105.05 48,-116.37 48,-125.71"/>
<polygon fill="#000000" stroke="#000000" points="46.25,-125.58 48,-130.58 49.75,-125.58 46.25,-125.58"/>
</g>
<!-- win_dlg -->
<g id="node6" class="node">
<title>win_dlg</title>
<path fill="#ffffc0" stroke="#000000" d="M168.58,-154.75C168.58,-154.75 101.42,-154.75 101.42,-154.75 97.71,-154.75 94,-151.04 94,-147.33 94,-147.33 94,-139.92 94,-139.92 94,-136.21 97.71,-132.5 101.42,-132.5 101.42,-132.5 168.58,-132.5 168.58,-132.5 172.29,-132.5 176,-136.21 176,-139.92 176,-139.92 176,-147.33 176,-147.33 176,-151.04 172.29,-154.75 168.58,-154.75"/>
<text text-anchor="middle" x="135" y="-139.35" font-family="Times,serif" font-size="12.00">All Dialogs</text>
</g>
<!-- win_dlg&#45;&gt;root_win -->
<g id="edge5" class="edge">
<title>win_dlg&#45;&gt;root_win</title>
<path fill="none" stroke="#000000" d="M133.5,-155.21C132.34,-163.3 130.73,-174.62 129.41,-183.96"/>
<polygon fill="#000000" stroke="#000000" points="127.68,-183.65 128.71,-188.84 131.15,-184.14 127.68,-183.65"/>
</g>
<!-- dlg1 -->
<g id="node7" class="node">
<title>dlg1</title>
<path fill="#ffffc0" stroke="#000000" d="M155.46,-96.5C155.46,-96.5 114.54,-96.5 114.54,-96.5 110.83,-96.5 107.12,-92.79 107.12,-89.08 107.12,-89.08 107.12,-81.67 107.12,-81.67 107.12,-77.96 110.83,-74.25 114.54,-74.25 114.54,-74.25 155.46,-74.25 155.46,-74.25 159.17,-74.25 162.88,-77.96 162.88,-81.67 162.88,-81.67 162.88,-89.08 162.88,-89.08 162.88,-92.79 159.17,-96.5 155.46,-96.5"/>
<text text-anchor="middle" x="135" y="-81.1" font-family="Times,serif" font-size="12.00">Dialog</text>
</g>
<!-- dlg1&#45;&gt;win_dlg -->
<g id="edge6" class="edge">
<title>dlg1&#45;&gt;win_dlg</title>
<path fill="none" stroke="#000000" d="M135,-96.96C135,-105.05 135,-116.37 135,-125.71"/>
<polygon fill="#000000" stroke="#000000" points="133.25,-125.58 135,-130.58 136.75,-125.58 133.25,-125.58"/>
</g>
<!-- dlg1_win1 -->
<g id="node8" class="node">
<title>dlg1_win1</title>
<path fill="#ffffc0" stroke="#000000" d="M84.96,-38.25C84.96,-38.25 35.04,-38.25 35.04,-38.25 31.33,-38.25 27.62,-34.54 27.62,-30.83 27.62,-30.83 27.62,-23.42 27.62,-23.42 27.62,-19.71 31.33,-16 35.04,-16 35.04,-16 84.96,-16 84.96,-16 88.67,-16 92.38,-19.71 92.38,-23.42 92.38,-23.42 92.38,-30.83 92.38,-30.83 92.38,-34.54 88.67,-38.25 84.96,-38.25"/>
<text text-anchor="middle" x="60" y="-22.85" font-family="Times,serif" font-size="12.00">Window</text>
</g>
<!-- dlg1_win1&#45;&gt;dlg1 -->
<g id="edge7" class="edge">
<title>dlg1_win1&#45;&gt;dlg1</title>
<path fill="none" stroke="#000000" d="M74.11,-38.71C85.94,-47.58 102.96,-60.34 116,-70.12"/>
<polygon fill="#000000" stroke="#000000" points="114.7,-71.33 119.75,-72.93 116.8,-68.53 114.7,-71.33"/>
</g>
<!-- dlg1_win2 -->
<g id="node9" class="node">
<title>dlg1_win2</title>
<path fill="#ffffc0" stroke="#000000" d="M163.96,-38.25C163.96,-38.25 114.04,-38.25 114.04,-38.25 110.33,-38.25 106.62,-34.54 106.62,-30.83 106.62,-30.83 106.62,-23.42 106.62,-23.42 106.62,-19.71 110.33,-16 114.04,-16 114.04,-16 163.96,-16 163.96,-16 167.67,-16 171.38,-19.71 171.38,-23.42 171.38,-23.42 171.38,-30.83 171.38,-30.83 171.38,-34.54 167.67,-38.25 163.96,-38.25"/>
<text text-anchor="middle" x="139" y="-22.85" font-family="Times,serif" font-size="12.00">Window</text>
</g>
<!-- dlg1_win2&#45;&gt;dlg1 -->
<g id="edge8" class="edge">
<title>dlg1_win2&#45;&gt;dlg1</title>
<path fill="none" stroke="#000000" d="M138.25,-38.71C137.67,-46.8 136.87,-58.12 136.2,-67.46"/>
<polygon fill="#000000" stroke="#000000" points="134.47,-67.22 135.86,-72.33 137.96,-67.47 134.47,-67.22"/>
</g>
<!-- AConfig -->
<g id="node10" class="node">
<title>AConfig</title>
<path fill="#ffc0c0" stroke="#000000" d="M793.58,-213C793.58,-213 690.42,-213 690.42,-213 686.71,-213 683,-209.29 683,-205.58 683,-205.58 683,-198.17 683,-198.17 683,-194.46 686.71,-190.75 690.42,-190.75 690.42,-190.75 793.58,-190.75 793.58,-190.75 797.29,-190.75 801,-194.46 801,-198.17 801,-198.17 801,-205.58 801,-205.58 801,-209.29 797.29,-213 793.58,-213"/>
<text text-anchor="middle" x="742" y="-197.6" font-family="Times,serif" font-size="12.00">Config (Account)</text>
</g>
<!-- AConfig&#45;&gt;NConfig -->
<g id="edge19" class="edge">
<title>AConfig&#45;&gt;NConfig</title>
<path fill="none" stroke="#d0d0d0" stroke-dasharray="5,2" d="M734.48,-213.46C728.5,-221.86 720.04,-233.75 713.26,-243.29"/>
<polygon fill="#d0d0d0" stroke="#d0d0d0" points="711.84,-242.27 710.37,-247.36 714.69,-244.3 711.84,-242.27"/>
</g>
<!-- MConfig -->
<g id="node11" class="node">
<title>MConfig</title>
<path fill="#ffc0c0" stroke="#000000" d="M792.21,-154.75C792.21,-154.75 689.79,-154.75 689.79,-154.75 686.08,-154.75 682.38,-151.04 682.38,-147.33 682.38,-147.33 682.38,-139.92 682.38,-139.92 682.38,-136.21 686.08,-132.5 689.79,-132.5 689.79,-132.5 792.21,-132.5 792.21,-132.5 795.92,-132.5 799.62,-136.21 799.62,-139.92 799.62,-139.92 799.62,-147.33 799.62,-147.33 799.62,-151.04 795.92,-154.75 792.21,-154.75"/>
<text text-anchor="middle" x="741" y="-139.35" font-family="Times,serif" font-size="12.00">Config (Mailbox)</text>
</g>
<!-- MConfig&#45;&gt;AConfig -->
<g id="edge20" class="edge">
<title>MConfig&#45;&gt;AConfig</title>
<path fill="none" stroke="#d0d0d0" stroke-dasharray="5,2" d="M741.19,-155.21C741.33,-163.3 741.53,-174.62 741.7,-183.96"/>
<polygon fill="#d0d0d0" stroke="#d0d0d0" points="739.95,-183.86 741.79,-188.83 743.45,-183.8 739.95,-183.86"/>
</g>
<!-- Account -->
<g id="node12" class="node">
<title>Account</title>
<path fill="#c0ffc0" stroke="#000000" d="M661.33,-213C661.33,-213 610.67,-213 610.67,-213 606.96,-213 603.25,-209.29 603.25,-205.58 603.25,-205.58 603.25,-198.17 603.25,-198.17 603.25,-194.46 606.96,-190.75 610.67,-190.75 610.67,-190.75 661.33,-190.75 661.33,-190.75 665.04,-190.75 668.75,-194.46 668.75,-198.17 668.75,-198.17 668.75,-205.58 668.75,-205.58 668.75,-209.29 665.04,-213 661.33,-213"/>
<text text-anchor="middle" x="636" y="-197.6" font-family="Times,serif" font-size="12.00">Account</text>
</g>
<!-- Account&#45;&gt;NeoMutt -->
<g id="edge9" class="edge">
<title>Account&#45;&gt;NeoMutt</title>
<path fill="none" stroke="#000000" d="M615.12,-213.46C596.98,-222.65 570.63,-236 551.1,-245.9"/>
<polygon fill="#000000" stroke="#000000" points="550.8,-244.09 547.13,-247.91 552.39,-247.21 550.8,-244.09"/>
</g>
<!-- Account&#45;&gt;AConfig -->
<g id="edge12" class="edge">
<title>Account&#45;&gt;AConfig</title>
<path fill="none" stroke="#000000" d="M675.4,-201.88C677.77,-201.88 680.14,-201.88 682.5,-201.88"/>
<polygon fill="#000000" stroke="#000000" points="675.64,-200.13 670.64,-201.88 675.64,-203.63 675.64,-200.13"/>
</g>
<!-- Mailbox -->
<g id="node13" class="node">
<title>Mailbox</title>
<path fill="#c0ffc0" stroke="#000000" d="M660.96,-154.75C660.96,-154.75 611.04,-154.75 611.04,-154.75 607.33,-154.75 603.62,-151.04 603.62,-147.33 603.62,-147.33 603.62,-139.92 603.62,-139.92 603.62,-136.21 607.33,-132.5 611.04,-132.5 611.04,-132.5 660.96,-132.5 660.96,-132.5 664.67,-132.5 668.38,-136.21 668.38,-139.92 668.38,-139.92 668.38,-147.33 668.38,-147.33 668.38,-151.04 664.67,-154.75 660.96,-154.75"/>
<text text-anchor="middle" x="636" y="-139.35" font-family="Times,serif" font-size="12.00">Mailbox</text>
</g>
<!-- Mailbox&#45;&gt;MConfig -->
<g id="edge13" class="edge">
<title>Mailbox&#45;&gt;MConfig</title>
<path fill="none" stroke="#000000" d="M675.02,-143.62C677.37,-143.62 679.72,-143.62 682.07,-143.62"/>
<polygon fill="#000000" stroke="#000000" points="675.33,-141.88 670.33,-143.63 675.33,-145.38 675.33,-141.88"/>
</g>
<!-- Mailbox&#45;&gt;Account -->
<g id="edge10" class="edge">
<title>Mailbox&#45;&gt;Account</title>
<path fill="none" stroke="#000000" d="M636,-155.21C636,-163.3 636,-174.62 636,-183.96"/>
<polygon fill="#000000" stroke="#000000" points="634.25,-183.83 636,-188.83 637.75,-183.83 634.25,-183.83"/>
</g>
<!-- Email -->
<g id="node14" class="node">
<title>Email</title>
<path fill="#c0ffc0" stroke="#000000" d="M655.58,-96.5C655.58,-96.5 616.42,-96.5 616.42,-96.5 612.71,-96.5 609,-92.79 609,-89.08 609,-89.08 609,-81.67 609,-81.67 609,-77.96 612.71,-74.25 616.42,-74.25 616.42,-74.25 655.58,-74.25 655.58,-74.25 659.29,-74.25 663,-77.96 663,-81.67 663,-81.67 663,-89.08 663,-89.08 663,-92.79 659.29,-96.5 655.58,-96.5"/>
<text text-anchor="middle" x="636" y="-81.1" font-family="Times,serif" font-size="12.00">Email</text>
</g>
<!-- Email&#45;&gt;Mailbox -->
<g id="edge11" class="edge">
<title>Email&#45;&gt;Mailbox</title>
<path fill="none" stroke="#000000" d="M636,-96.96C636,-105.05 636,-116.37 636,-125.71"/>
<polygon fill="#000000" stroke="#000000" points="634.25,-125.58 636,-130.58 637.75,-125.58 634.25,-125.58"/>
</g>
<!-- AccountView -->
<g id="node15" class="node">
<title>AccountView</title>
<path fill="#c0c0ff" stroke="#000000" d="M278.96,-213C278.96,-213 199.04,-213 199.04,-213 195.33,-213 191.62,-209.29 191.62,-205.58 191.62,-205.58 191.62,-198.17 191.62,-198.17 191.62,-194.46 195.33,-190.75 199.04,-190.75 199.04,-190.75 278.96,-190.75 278.96,-190.75 282.67,-190.75 286.38,-194.46 286.38,-198.17 286.38,-198.17 286.38,-205.58 286.38,-205.58 286.38,-209.29 282.67,-213 278.96,-213"/>
<text text-anchor="middle" x="239" y="-197.6" font-family="Times,serif" font-size="12.00">AccountView</text>
</g>
<!-- AccountView&#45;&gt;NeoMuttView -->
<g id="edge14" class="edge">
<title>AccountView&#45;&gt;NeoMuttView</title>
<path fill="none" stroke="#000000" d="M247.46,-213.46C254.25,-221.94 263.88,-233.97 271.55,-243.56"/>
<polygon fill="#000000" stroke="#000000" points="270.14,-244.6 274.63,-247.41 272.87,-242.41 270.14,-244.6"/>
</g>
<!-- MailboxView -->
<g id="node16" class="node">
<title>MailboxView</title>
<path fill="#c0c0ff" stroke="#000000" d="M278.58,-154.75C278.58,-154.75 199.42,-154.75 199.42,-154.75 195.71,-154.75 192,-151.04 192,-147.33 192,-147.33 192,-139.92 192,-139.92 192,-136.21 195.71,-132.5 199.42,-132.5 199.42,-132.5 278.58,-132.5 278.58,-132.5 282.29,-132.5 286,-136.21 286,-139.92 286,-139.92 286,-147.33 286,-147.33 286,-151.04 282.29,-154.75 278.58,-154.75"/>
<text text-anchor="middle" x="239" y="-139.35" font-family="Times,serif" font-size="12.00">MailboxView</text>
</g>
<!-- MailboxView&#45;&gt;AccountView -->
<g id="edge15" class="edge">
<title>MailboxView&#45;&gt;AccountView</title>
<path fill="none" stroke="#000000" d="M239,-155.21C239,-163.3 239,-174.62 239,-183.96"/>
<polygon fill="#000000" stroke="#000000" points="237.25,-183.83 239,-188.83 240.75,-183.83 237.25,-183.83"/>
</g>
<!-- EmailView -->
<g id="node17" class="node">
<title>EmailView</title>
<path fill="#c0c0ff" stroke="#000000" d="M271.83,-96.5C271.83,-96.5 206.17,-96.5 206.17,-96.5 202.46,-96.5 198.75,-92.79 198.75,-89.08 198.75,-89.08 198.75,-81.67 198.75,-81.67 198.75,-77.96 202.46,-74.25 206.17,-74.25 206.17,-74.25 271.83,-74.25 271.83,-74.25 275.54,-74.25 279.25,-77.96 279.25,-81.67 279.25,-81.67 279.25,-89.08 279.25,-89.08 279.25,-92.79 275.54,-96.5 271.83,-96.5"/>
<text text-anchor="middle" x="239" y="-81.1" font-family="Times,serif" font-size="12.00">EmailView</text>
</g>
<!-- EmailView&#45;&gt;MailboxView -->
<g id="edge16" class="edge">
<title>EmailView&#45;&gt;MailboxView</title>
<path fill="none" stroke="#000000" d="M239,-96.96C239,-105.05 239,-116.37 239,-125.71"/>
<polygon fill="#000000" stroke="#000000" points="237.25,-125.58 239,-130.58 240.75,-125.58 237.25,-125.58"/>
</g>
<!-- Colour -->
<g id="node19" class="node">
<title>Colour</title>
<path fill="#c0ffff" stroke="#000000" d="M350.21,-213C350.21,-213 307.79,-213 307.79,-213 304.08,-213 300.38,-209.29 300.38,-205.58 300.38,-205.58 300.38,-198.17 300.38,-198.17 300.38,-194.46 304.08,-190.75 307.79,-190.75 307.79,-190.75 350.21,-190.75 350.21,-190.75 353.92,-190.75 357.62,-194.46 357.62,-198.17 357.62,-198.17 357.62,-205.58 357.62,-205.58 357.62,-209.29 353.92,-213 350.21,-213"/>
<text text-anchor="middle" x="329" y="-197.6" font-family="Times,serif" font-size="12.00">Colour</text>
</g>
<!-- Colour&#45;&gt;NeoMuttView -->
<g id="edge17" class="edge">
<title>Colour&#45;&gt;NeoMuttView</title>
<path fill="none" stroke="#000000" d="M320.54,-213.46C313.75,-221.94 304.12,-233.97 296.45,-243.56"/>
<polygon fill="#000000" stroke="#000000" points="295.13,-242.41 293.37,-247.41 297.86,-244.6 295.13,-242.41"/>
</g>
<!-- Alias -->
<g id="node20" class="node">
<title>Alias</title>
<path fill="#ffffff" stroke="#e0e0e0" d="M579.58,-213C579.58,-213 540.42,-213 540.42,-213 536.71,-213 533,-209.29 533,-205.58 533,-205.58 533,-198.17 533,-198.17 533,-194.46 536.71,-190.75 540.42,-190.75 540.42,-190.75 579.58,-190.75 579.58,-190.75 583.29,-190.75 587,-194.46 587,-198.17 587,-198.17 587,-205.58 587,-205.58 587,-209.29 583.29,-213 579.58,-213"/>
<text text-anchor="middle" x="560" y="-197.6" font-family="Times,serif" font-size="12.00">Alias</text>
</g>
<!-- Alias&#45;&gt;NeoMutt -->
<g id="edge21" class="edge">
<title>Alias&#45;&gt;NeoMutt</title>
<path fill="none" stroke="#000000" d="M553.42,-213.46C548.19,-221.86 540.79,-233.75 534.85,-243.29"/>
<polygon fill="#000000" stroke="#000000" points="533.51,-242.14 532.35,-247.31 536.48,-243.99 533.51,-242.14"/>
</g>
<!-- Command -->
<g id="node21" class="node">
<title>Command</title>
<path fill="#ffffff" stroke="#e0e0e0" d="M441.33,-213C441.33,-213 378.67,-213 378.67,-213 374.96,-213 371.25,-209.29 371.25,-205.58 371.25,-205.58 371.25,-198.17 371.25,-198.17 371.25,-194.46 374.96,-190.75 378.67,-190.75 378.67,-190.75 441.33,-190.75 441.33,-190.75 445.04,-190.75 448.75,-194.46 448.75,-198.17 448.75,-198.17 448.75,-205.58 448.75,-205.58 448.75,-209.29 445.04,-213 441.33,-213"/>
<text text-anchor="middle" x="410" y="-197.6" font-family="Times,serif" font-size="12.00">Command</text>
</g>
<!-- Command&#45;&gt;NeoMutt -->
<g id="edge22" class="edge">
<title>Command&#45;&gt;NeoMutt</title>
<path fill="none" stroke="#000000" d="M431.63,-213.46C450.34,-222.61 477.5,-235.89 497.7,-245.77"/>
<polygon fill="#000000" stroke="#000000" points="496.85,-247.3 502.11,-247.93 498.38,-244.16 496.85,-247.3"/>
</g>
<!-- Global -->
<g id="node22" class="node">
<title>Global</title>
<path fill="#ffffff" stroke="#e0e0e0" d="M511.46,-213C511.46,-213 470.54,-213 470.54,-213 466.83,-213 463.12,-209.29 463.12,-205.58 463.12,-205.58 463.12,-198.17 463.12,-198.17 463.12,-194.46 466.83,-190.75 470.54,-190.75 470.54,-190.75 511.46,-190.75 511.46,-190.75 515.17,-190.75 518.88,-194.46 518.88,-198.17 518.88,-198.17 518.88,-205.58 518.88,-205.58 518.88,-209.29 515.17,-213 511.46,-213"/>
<text text-anchor="middle" x="491" y="-197.6" font-family="Times,serif" font-size="12.00">Global</text>
</g>
<!-- Global&#45;&gt;NeoMutt -->
<g id="edge23" class="edge">
<title>Global&#45;&gt;NeoMutt</title>
<path fill="none" stroke="#000000" d="M497.4,-213.46C502.43,-221.78 509.53,-233.53 515.27,-243.02"/>
<polygon fill="#000000" stroke="#000000" points="513.77,-243.92 517.85,-247.3 516.76,-242.11 513.77,-243.92"/>
</g>
</g>
</svg>
