<?xml version="1.0" encoding="UTF-8" standalone="no"?>
<!DOCTYPE svg PUBLIC "-//W3C//DTD SVG 1.1//EN"
 "http://www.w3.org/Graphics/SVG/1.1/DTD/svg11.dtd">
<!-- Generated by graphviz version 2.48.0 (0)
 -->
<!-- Title: workflow Pages: 1 -->
<svg width="1110pt" height="219pt"
 viewBox="0.00 0.00 1110.00 219.00" xmlns="http://www.w3.org/2000/svg" xmlns:xlink="http://www.w3.org/1999/xlink">
<g id="graph0" class="graph" transform="scale(1 1) rotate(0) translate(4 215)">
<title>workflow</title>
<polygon fill="white" stroke="transparent" points="-4,4 -4,-215 1106,-215 1106,4 -4,4"/>
<!-- index -->
<g id="node1" class="node">
<title>index</title>
<path fill="#d0ffff" stroke="black" d="M7,-89.5C7,-89.5 86,-89.5 86,-89.5 89.5,-89.5 93,-93 93,-96.5 93,-96.5 93,-103.5 93,-103.5 93,-107 89.5,-110.5 86,-110.5 86,-110.5 7,-110.5 7,-110.5 3.5,-110.5 0,-107 0,-103.5 0,-103.5 0,-96.5 0,-96.5 0,-93 3.5,-89.5 7,-89.5"/>
<text text-anchor="middle" x="46.5" y="-96.9" font-family="Times,serif" font-size="12.00">Index Dialog</text>
</g>
<!-- query_d -->
<g id="node3" class="node">
<title>query_d</title>
<path fill="#d0ffff" stroke="black" d="M182,-172.5C182,-172.5 265,-172.5 265,-172.5 268.5,-172.5 272,-176 272,-179.5 272,-179.5 272,-186.5 272,-186.5 272,-190 268.5,-193.5 265,-193.5 265,-193.5 182,-193.5 182,-193.5 178.5,-193.5 175,-190 175,-186.5 175,-186.5 175,-179.5 175,-179.5 175,-176 178.5,-172.5 182,-172.5"/>
<text text-anchor="middle" x="223.5" y="-179.9" font-family="Times,serif" font-size="12.00">Query Dialog</text>
</g>
<!-- index&#45;&gt;query_d -->
<g id="edge5" class="edge">
<title>index&#45;&gt;query_d</title>
<path fill="none" stroke="black" stroke-width="2" d="M55.73,-110.87C65.31,-122.75 82.24,-141.49 101,-152 112.23,-158.29 139.03,-165.39 164.61,-171.2"/>
<polygon fill="black" stroke="black" stroke-width="2" points="164.17,-174.69 174.69,-173.44 165.69,-167.86 164.17,-174.69"/>
<text text-anchor="middle" x="134" y="-174.8" font-family="Times,serif" font-size="14.00">&lt;query&gt;</text>
</g>
<!-- to -->
<g id="node7" class="node">
<title>to</title>
<path fill="#d0ffff" stroke="black" d="M404,-132.5C404,-132.5 482,-132.5 482,-132.5 485.5,-132.5 489,-136 489,-139.5 489,-139.5 489,-146.5 489,-146.5 489,-150 485.5,-153.5 482,-153.5 482,-153.5 404,-153.5 404,-153.5 400.5,-153.5 397,-150 397,-146.5 397,-146.5 397,-139.5 397,-139.5 397,-136 400.5,-132.5 404,-132.5"/>
<text text-anchor="middle" x="443" y="-139.9" font-family="Times,serif" font-size="12.00">To: (prompt)</text>
</g>
<!-- index&#45;&gt;to -->
<g id="edge6" class="edge">
<title>index&#45;&gt;to</title>
<path fill="none" stroke="black" stroke-width="2" d="M93.26,-109.75C95.87,-110.2 98.47,-110.62 101,-111 201.26,-126 319.23,-135.22 386.85,-139.7"/>
<polygon fill="black" stroke="black" stroke-width="2" points="386.65,-143.19 396.85,-140.35 387.1,-136.21 386.65,-143.19"/>
<text text-anchor="middle" x="223.5" y="-133.8" font-family="Times,serif" font-size="14.00">&lt;mail&gt;</text>
</g>
<!-- query_c -->
<g id="node2" class="node">
<title>query_c</title>
<path fill="#d0ffff" stroke="black" d="M648,-148.5C648,-148.5 760,-148.5 760,-148.5 763.5,-148.5 767,-152 767,-155.5 767,-155.5 767,-162.5 767,-162.5 767,-166 763.5,-169.5 760,-169.5 760,-169.5 648,-169.5 648,-169.5 644.5,-169.5 641,-166 641,-162.5 641,-162.5 641,-155.5 641,-155.5 641,-152 644.5,-148.5 648,-148.5"/>
<text text-anchor="middle" x="704" y="-155.9" font-family="Times,serif" font-size="12.00">Query Completion</text>
</g>
<!-- query_c&#45;&gt;to -->
<g id="edge1" class="edge">
<title>query_c&#45;&gt;to</title>
<path fill="none" stroke="black" stroke-width="2" d="M640.94,-155.17C597.83,-152.5 540.89,-148.99 499.33,-146.42"/>
<polygon fill="black" stroke="black" stroke-width="2" points="499.31,-142.91 489.11,-145.79 498.88,-149.9 499.31,-142.91"/>
<text text-anchor="middle" x="565" y="-157.8" font-family="Times,serif" font-size="14.00">&lt;select&#45;entry&gt;</text>
</g>
<!-- query_c&#45;&gt;to -->
<g id="edge10" class="edge">
<title>query_c&#45;&gt;to</title>
<path fill="none" stroke="#ff8080" stroke-dasharray="5,2" d="M684.7,-148.36C670.98,-141.02 651.46,-131.91 633,-128 573.86,-115.49 556.87,-119.69 497,-128 493.33,-128.51 489.55,-129.21 485.79,-130.03"/>
<polygon fill="#ff8080" stroke="#ff8080" points="484.81,-126.66 475.93,-132.43 486.47,-133.46 484.81,-126.66"/>
<text text-anchor="middle" x="565" y="-131.8" font-family="Times,serif" font-size="14.00" fill="#c00000">&lt;exit&gt;</text>
</g>
<!-- query_d&#45;&gt;index -->
<g id="edge11" class="edge">
<title>query_d&#45;&gt;index</title>
<path fill="none" stroke="#ff8080" stroke-dasharray="5,2" d="M183.97,-193.55C158.81,-198.22 126.08,-199.94 101,-186 76,-172.11 61.17,-141.15 53.68,-120.43"/>
<polygon fill="#ff8080" stroke="#ff8080" points="56.91,-119.04 50.42,-110.66 50.27,-121.26 56.91,-119.04"/>
<text text-anchor="middle" x="134" y="-199.8" font-family="Times,serif" font-size="14.00" fill="#c00000">&lt;exit&gt;</text>
</g>
<!-- query_d&#45;&gt;to -->
<g id="edge2" class="edge">
<title>query_d&#45;&gt;to</title>
<path fill="none" stroke="black" stroke-width="2" d="M272.08,-175C302.65,-169.77 343.47,-162.63 386.99,-154.35"/>
<polygon fill="black" stroke="black" stroke-width="2" points="387.75,-157.77 396.91,-152.45 386.43,-150.9 387.75,-157.77"/>
<text text-anchor="middle" x="334.5" y="-176.8" font-family="Times,serif" font-size="14.00">&lt;select&#45;entry&gt;</text>
</g>
<!-- compose -->
<g id="node4" class="node">
<title>compose</title>
<path fill="#d0ffff" stroke="black" d="M993,-23.5C993,-23.5 1095,-23.5 1095,-23.5 1098.5,-23.5 1102,-27 1102,-30.5 1102,-30.5 1102,-37.5 1102,-37.5 1102,-41 1098.5,-44.5 1095,-44.5 1095,-44.5 993,-44.5 993,-44.5 989.5,-44.5 986,-41 986,-37.5 986,-37.5 986,-30.5 986,-30.5 986,-27 989.5,-23.5 993,-23.5"/>
<text text-anchor="middle" x="1044" y="-30.9" font-family="Times,serif" font-size="12.00">Compose Dialog</text>
</g>
<!-- compose&#45;&gt;index -->
<g id="edge3" class="edge">
<title>compose&#45;&gt;index</title>
<path fill="none" stroke="black" stroke-width="2" d="M985.68,-34C953.08,-34 911.51,-34 874.5,-34 222.5,-34 222.5,-34 222.5,-34 166.05,-34 105.57,-64.43 72.56,-83.97"/>
<polygon fill="black" stroke="black" stroke-width="2" points="70.35,-81.22 63.62,-89.4 73.99,-87.2 70.35,-81.22"/>
<text text-anchor="middle" x="565" y="-37.8" font-family="Times,serif" font-size="14.00">&lt;send&gt;</text>
</g>
<!-- compose&#45;&gt;index -->
<g id="edge12" class="edge">
<title>compose&#45;&gt;index</title>
<path fill="none" stroke="#ff8080" stroke-dasharray="5,2" d="M1010.46,-23.43C976.81,-13.45 922.55,0 874.5,0 222.5,0 222.5,0 222.5,0 165.65,0 148.54,-8.83 101,-40 84.69,-50.69 70.24,-67.59 60.49,-80.73"/>
<polygon fill="#ff8080" stroke="#ff8080" points="57.47,-78.94 54.52,-89.11 63.17,-83 57.47,-78.94"/>
<text text-anchor="middle" x="565" y="-3.8" font-family="Times,serif" font-size="14.00" fill="#c00000">&lt;exit&gt;</text>
</g>
<!-- editor -->
<g id="node5" class="node">
<title>editor</title>
<path fill="#d0ffff" stroke="black" d="M853,-56.5C853,-56.5 894,-56.5 894,-56.5 897.5,-56.5 901,-60 901,-63.5 901,-63.5 901,-70.5 901,-70.5 901,-74 897.5,-77.5 894,-77.5 894,-77.5 853,-77.5 853,-77.5 849.5,-77.5 846,-74 846,-70.5 846,-70.5 846,-63.5 846,-63.5 846,-60 849.5,-56.5 853,-56.5"/>
<text text-anchor="middle" x="873.5" y="-63.9" font-family="Times,serif" font-size="12.00">Editor</text>
</g>
<!-- editor&#45;&gt;compose -->
<g id="edge4" class="edge">
<title>editor&#45;&gt;compose</title>
<path fill="none" stroke="black" stroke-width="2" d="M901.2,-61.77C922.19,-57.66 952.32,-51.76 979.4,-46.45"/>
<polygon fill="black" stroke="black" stroke-width="2" points="980.08,-49.89 989.22,-44.53 978.74,-43.02 980.08,-49.89"/>
<text text-anchor="middle" x="943.5" y="-62.8" font-family="Times,serif" font-size="14.00">save, exit</text>
</g>
<!-- subject -->
<g id="node6" class="node">
<title>subject</title>
<path fill="#d0ffff" stroke="black" d="M650,-56.5C650,-56.5 758,-56.5 758,-56.5 761.5,-56.5 765,-60 765,-63.5 765,-63.5 765,-70.5 765,-70.5 765,-74 761.5,-77.5 758,-77.5 758,-77.5 650,-77.5 650,-77.5 646.5,-77.5 643,-74 643,-70.5 643,-70.5 643,-63.5 643,-63.5 643,-60 646.5,-56.5 650,-56.5"/>
<text text-anchor="middle" x="704" y="-63.9" font-family="Times,serif" font-size="12.00">Subject: (prompt)</text>
</g>
<!-- subject&#45;&gt;index -->
<g id="edge13" class="edge">
<title>subject&#45;&gt;index</title>
<path fill="none" stroke="#ff8080" stroke-dasharray="5,2" d="M642.75,-69.42C560.7,-72.74 409.23,-79 280,-85 203.69,-88.54 182.14,-87.64 103.43,-93.86"/>
<polygon fill="#ff8080" stroke="#ff8080" points="102.7,-90.41 93.01,-94.7 103.26,-97.39 102.7,-90.41"/>
<text text-anchor="middle" x="334.5" y="-88.8" font-family="Times,serif" font-size="14.00" fill="#c00000">empty/abort</text>
</g>
<!-- subject&#45;&gt;editor -->
<g id="edge7" class="edge">
<title>subject&#45;&gt;editor</title>
<path fill="none" stroke="black" stroke-width="2" d="M765.47,-67C788.93,-67 815.04,-67 835.6,-67"/>
<polygon fill="black" stroke="black" stroke-width="2" points="835.8,-70.5 845.8,-67 835.8,-63.5 835.8,-70.5"/>
<text text-anchor="middle" x="806.5" y="-70.8" font-family="Times,serif" font-size="14.00">&lt;enter&gt;</text>
</g>
<!-- to&#45;&gt;index -->
<g id="edge14" class="edge">
<title>to&#45;&gt;index</title>
<path fill="none" stroke="#ff8080" stroke-dasharray="5,2" d="M405.88,-132.44C400.24,-130.89 394.48,-129.36 389,-128 337.39,-115.2 324.84,-108.94 272,-103 214.86,-96.58 149.03,-96.56 103.5,-97.7"/>
<polygon fill="#ff8080" stroke="#ff8080" points="103.14,-94.21 93.24,-97.98 103.34,-101.21 103.14,-94.21"/>
<text text-anchor="middle" x="223.5" y="-106.8" font-family="Times,serif" font-size="14.00" fill="#c00000">empty/abort</text>
</g>
<!-- to&#45;&gt;query_c -->
<g id="edge8" class="edge">
<title>to&#45;&gt;query_c</title>
<path fill="none" stroke="black" stroke-width="2" d="M458.46,-153.52C468.67,-160.27 482.98,-168.41 497,-172 547.52,-184.92 607.16,-178.95 649.23,-171.39"/>
<polygon fill="black" stroke="black" stroke-width="2" points="650.08,-174.79 659.26,-169.5 648.79,-167.92 650.08,-174.79"/>
<text text-anchor="middle" x="565" y="-182.8" font-family="Times,serif" font-size="14.00">&lt;complete&#45;query&gt;</text>
</g>
<!-- to&#45;&gt;subject -->
<g id="edge9" class="edge">
<title>to&#45;&gt;subject</title>
<path fill="none" stroke="black" stroke-width="2" d="M454.34,-132.46C464.34,-122.92 480.38,-109.29 497,-102 520.89,-91.52 582.97,-81.77 632.78,-75.23"/>
<polygon fill="black" stroke="black" stroke-width="2" points="633.41,-78.68 642.88,-73.93 632.52,-71.74 633.41,-78.68"/>
<text text-anchor="middle" x="565" y="-105.8" font-family="Times,serif" font-size="14.00">&lt;enter&gt;</text>
</g>
</g>
</svg>
