<?xml version="1.0" encoding="UTF-8" standalone="no"?>
<!DOCTYPE svg PUBLIC "-//W3C//DTD SVG 1.1//EN"
 "http://www.w3.org/Graphics/SVG/1.1/DTD/svg11.dtd">
<!-- Generated by graphviz version 2.40.1 (0)
 -->
<!-- Title: build Pages: 1 -->
<svg width="2306pt" height="1715pt"
 viewBox="0.00 0.00 2306.00 1715.00" xmlns="http://www.w3.org/2000/svg" xmlns:xlink="http://www.w3.org/1999/xlink">
<g id="graph0" class="graph" transform="scale(1 1) rotate(0) translate(4 1711)">
<title>build</title>
<polygon fill="#ffffff" stroke="transparent" points="-4,4 -4,-1711 2302,-1711 2302,4 -4,4"/>
<g id="clust1" class="cluster">
<title>cluster_imap</title>
<polygon fill="none" stroke="#ff0000" points="518.5,-8 518.5,-98 1634.5,-98 1634.5,-8 518.5,-8"/>
<text text-anchor="middle" x="1076.5" y="-82.8" font-family="Times,serif" font-size="14.00" fill="#ff0000">IMAP</text>
</g>
<g id="clust2" class="cluster">
<title>cluster_source</title>
<polygon fill="none" stroke="#ff0000" points="1223,-506 1223,-900 1414,-900 1414,-506 1223,-506"/>
<text text-anchor="middle" x="1318.5" y="-884.8" font-family="Times,serif" font-size="14.00" fill="#ff0000">Source</text>
</g>
<!-- comp_ops -->
<g id="node1" class="node">
<title>comp_ops</title>
<path fill="none" stroke="#0000ff" stroke-width="3" d="M270.3333,-1270C270.3333,-1270 439.6667,-1270 439.6667,-1270 444.3333,-1270 449,-1274.6667 449,-1279.3333 449,-1279.3333 449,-1288.6667 449,-1288.6667 449,-1293.3333 444.3333,-1298 439.6667,-1298 439.6667,-1298 270.3333,-1298 270.3333,-1298 265.6667,-1298 261,-1293.3333 261,-1288.6667 261,-1288.6667 261,-1279.3333 261,-1279.3333 261,-1274.6667 265.6667,-1270 270.3333,-1270"/>
<text text-anchor="middle" x="355" y="-1279.6" font-family="Times,serif" font-size="18.00" fill="#000000">{OPS.compulsory}</text>
</g>
<!-- ops -->
<g id="node37" class="node">
<title>ops</title>
<path fill="none" stroke="#0000ff" stroke-width="3" d="M542.3333,-1332C542.3333,-1332 610.6667,-1332 610.6667,-1332 615.3333,-1332 620,-1336.6667 620,-1341.3333 620,-1341.3333 620,-1350.6667 620,-1350.6667 620,-1355.3333 615.3333,-1360 610.6667,-1360 610.6667,-1360 542.3333,-1360 542.3333,-1360 537.6667,-1360 533,-1355.3333 533,-1350.6667 533,-1350.6667 533,-1341.3333 533,-1341.3333 533,-1336.6667 537.6667,-1332 542.3333,-1332"/>
<text text-anchor="middle" x="576.5" y="-1341.6" font-family="Times,serif" font-size="18.00" fill="#000000">{OPS*}</text>
</g>
<!-- comp_ops&#45;&gt;ops -->
<g id="edge24" class="edge">
<title>comp_ops&#45;&gt;ops</title>
<path fill="none" stroke="#000000" stroke-width="2" stroke-dasharray="5,2" d="M405.2618,-1298.0688C440.3798,-1307.8986 487.2028,-1321.0048 523.0101,-1331.0277"/>
<polygon fill="#000000" stroke="#000000" stroke-width="2" points="522.2253,-1334.4425 532.7987,-1333.7676 524.1122,-1327.7015 522.2253,-1334.4425"/>
</g>
<!-- cond_ops -->
<g id="node2" class="node">
<title>cond_ops</title>
<path fill="none" stroke="#0000ff" stroke-width="3" d="M272.3333,-1335C272.3333,-1335 437.6667,-1335 437.6667,-1335 442.3333,-1335 447,-1339.6667 447,-1344.3333 447,-1344.3333 447,-1353.6667 447,-1353.6667 447,-1358.3333 442.3333,-1363 437.6667,-1363 437.6667,-1363 272.3333,-1363 272.3333,-1363 267.6667,-1363 263,-1358.3333 263,-1353.6667 263,-1353.6667 263,-1344.3333 263,-1344.3333 263,-1339.6667 267.6667,-1335 272.3333,-1335"/>
<text text-anchor="middle" x="355" y="-1344.6" font-family="Times,serif" font-size="18.00" fill="#000000">{OPS.conditional}</text>
</g>
<!-- cond_ops&#45;&gt;ops -->
<g id="edge23" class="edge">
<title>cond_ops&#45;&gt;ops</title>
<path fill="none" stroke="#000000" stroke-width="2" stroke-dasharray="5,2" d="M447.0117,-1347.7538C472.7803,-1347.4048 499.943,-1347.0369 522.6989,-1346.7287"/>
<polygon fill="#000000" stroke="#000000" stroke-width="2" points="522.8718,-1350.2268 532.8234,-1346.5916 522.7769,-1343.2274 522.8718,-1350.2268"/>
</g>
<!-- configure_ac -->
<g id="node3" class="node">
<title>configure_ac</title>
<path fill="none" stroke="#0000ff" stroke-width="3" d="M25.8333,-1041C25.8333,-1041 135.1667,-1041 135.1667,-1041 139.8333,-1041 144.5,-1045.6667 144.5,-1050.3333 144.5,-1050.3333 144.5,-1059.6667 144.5,-1059.6667 144.5,-1064.3333 139.8333,-1069 135.1667,-1069 135.1667,-1069 25.8333,-1069 25.8333,-1069 21.1667,-1069 16.5,-1064.3333 16.5,-1059.6667 16.5,-1059.6667 16.5,-1050.3333 16.5,-1050.3333 16.5,-1045.6667 21.1667,-1041 25.8333,-1041"/>
<text text-anchor="middle" x="80.5" y="-1050.6" font-family="Times,serif" font-size="18.00" fill="#000000">configure.ac</text>
</g>
<!-- dot_configure -->
<g id="node39" class="node">
<title>dot_configure</title>
<polygon fill="none" stroke="#0000ff" stroke-width="3" points="430.5,-1069 279.5,-1069 279.5,-1041 430.5,-1041 430.5,-1069"/>
<text text-anchor="start" x="287.5" y="-1051.6" font-family="Times,serif" font-size="18.00" fill="#000000">./configure </text>
<text text-anchor="start" x="390.5" y="-1051.6" font-family="Times,serif" font-size="18.00" fill="#ff0000">●</text>
<text text-anchor="start" x="406.5" y="-1051.6" font-family="Times,serif" font-size="18.00" fill="#00ff00">★</text>
</g>
<!-- configure_ac&#45;&gt;dot_configure -->
<g id="edge33" class="edge">
<title>configure_ac&#45;&gt;dot_configure</title>
<path fill="none" stroke="#000000" stroke-width="2" d="M144.5116,-1055C181.6074,-1055 228.7977,-1055 269.0905,-1055"/>
<polygon fill="#000000" stroke="#000000" stroke-width="2" points="269.1755,-1058.5001 279.1755,-1055 269.1754,-1051.5001 269.1755,-1058.5001"/>
<text text-anchor="middle" x="211" y="-1058.8" font-family="Times,serif" font-size="14.00" fill="#000000">autoreconf</text>
</g>
<!-- config_h -->
<g id="node4" class="node">
<title>config_h</title>
<path fill="none" stroke="#0000ff" stroke-width="3" d="M541.3333,-1041C541.3333,-1041 611.6667,-1041 611.6667,-1041 616.3333,-1041 621,-1045.6667 621,-1050.3333 621,-1050.3333 621,-1059.6667 621,-1059.6667 621,-1064.3333 616.3333,-1069 611.6667,-1069 611.6667,-1069 541.3333,-1069 541.3333,-1069 536.6667,-1069 532,-1064.3333 532,-1059.6667 532,-1059.6667 532,-1050.3333 532,-1050.3333 532,-1045.6667 536.6667,-1041 541.3333,-1041"/>
<text text-anchor="middle" x="576.5" y="-1050.6" font-family="Times,serif" font-size="18.00" fill="#000000">config.h</text>
</g>
<!-- hcachever_sh -->
<g id="node9" class="node">
<title>hcachever_sh</title>
<polygon fill="none" stroke="#00ff00" stroke-width="3" points="934,-1000 763,-1000 763,-972 934,-972 934,-1000"/>
<text text-anchor="start" x="771" y="-982.6" font-family="Times,serif" font-size="18.00" fill="#000000">hcachever.sh </text>
<text text-anchor="start" x="894" y="-982.6" font-family="Times,serif" font-size="18.00" fill="#ff0000">●</text>
<text text-anchor="start" x="910" y="-982.6" font-family="Times,serif" font-size="18.00" fill="#00ff00">★</text>
</g>
<!-- config_h&#45;&gt;hcachever_sh -->
<g id="edge10" class="edge">
<title>config_h&#45;&gt;hcachever_sh</title>
<path fill="none" stroke="#000000" stroke-width="2" d="M621.1107,-1043.6833C665.1946,-1032.5003 733.1225,-1015.2686 783.2631,-1002.5491"/>
<polygon fill="#000000" stroke="#000000" stroke-width="2" points="784.2093,-1005.92 793.0417,-1000.0685 782.4881,-999.1349 784.2093,-1005.92"/>
</g>
<!-- manual_xml -->
<g id="node27" class="node">
<title>manual_xml</title>
<path fill="none" stroke="#0000ff" stroke-width="3" d="M1010.8333,-1231C1010.8333,-1231 1115.1667,-1231 1115.1667,-1231 1119.8333,-1231 1124.5,-1235.6667 1124.5,-1240.3333 1124.5,-1240.3333 1124.5,-1249.6667 1124.5,-1249.6667 1124.5,-1254.3333 1119.8333,-1259 1115.1667,-1259 1115.1667,-1259 1010.8333,-1259 1010.8333,-1259 1006.1667,-1259 1001.5,-1254.3333 1001.5,-1249.6667 1001.5,-1249.6667 1001.5,-1240.3333 1001.5,-1240.3333 1001.5,-1235.6667 1006.1667,-1231 1010.8333,-1231"/>
<text text-anchor="middle" x="1063" y="-1240.6" font-family="Times,serif" font-size="18.00" fill="#000000">manual.xml</text>
</g>
<!-- config_h&#45;&gt;manual_xml -->
<g id="edge57" class="edge">
<title>config_h&#45;&gt;manual_xml</title>
<path fill="none" stroke="#000000" stroke-width="2" d="M621.1188,-1068.9175C635.7294,-1073.4446 652.0472,-1078.4688 667,-1083 788.1221,-1119.7044 825.2462,-1110.6208 940,-1164 975.7202,-1180.6157 1012.9989,-1206.5723 1037.0205,-1224.6069"/>
<polygon fill="#000000" stroke="#000000" stroke-width="2" points="1035.1651,-1227.593 1045.2434,-1230.8608 1039.4026,-1222.0213 1035.1651,-1227.593"/>
<text text-anchor="middle" x="848.5" y="-1167.8" font-family="Times,serif" font-size="14.00" fill="#000000">sed</text>
</g>
<!-- generated -->
<g id="node54" class="node">
<title>generated</title>
<path fill="none" stroke="#0000ff" stroke-width="3" d="M1254.8333,-840C1254.8333,-840 1382.1667,-840 1382.1667,-840 1386.8333,-840 1391.5,-844.6667 1391.5,-849.3333 1391.5,-849.3333 1391.5,-858.6667 1391.5,-858.6667 1391.5,-863.3333 1386.8333,-868 1382.1667,-868 1382.1667,-868 1254.8333,-868 1254.8333,-868 1250.1667,-868 1245.5,-863.3333 1245.5,-858.6667 1245.5,-858.6667 1245.5,-849.3333 1245.5,-849.3333 1245.5,-844.6667 1250.1667,-840 1254.8333,-840"/>
<text text-anchor="middle" x="1318.5" y="-849.6" font-family="Times,serif" font-size="18.00" fill="#000000">{generated.c}</text>
</g>
<!-- config_h&#45;&gt;generated -->
<g id="edge5" class="edge">
<title>config_h&#45;&gt;generated</title>
<path fill="none" stroke="#000000" stroke-width="2" stroke-dasharray="5,2" d="M621.0381,-1058.5722C718.6488,-1064.7322 957.2141,-1070.6094 1139,-1000 1207.6931,-973.3182 1270.113,-909.9013 1299.9742,-876.1012"/>
<polygon fill="#000000" stroke="#000000" stroke-width="2" points="1302.9336,-878.0314 1306.8486,-868.1864 1297.6487,-873.4412 1302.9336,-878.0314"/>
</g>
<!-- conststrings_c -->
<g id="node5" class="node">
<title>conststrings_c</title>
<path fill="none" stroke="#0000ff" stroke-width="3" d="M1000.8333,-853C1000.8333,-853 1125.1667,-853 1125.1667,-853 1129.8333,-853 1134.5,-857.6667 1134.5,-862.3333 1134.5,-862.3333 1134.5,-871.6667 1134.5,-871.6667 1134.5,-876.3333 1129.8333,-881 1125.1667,-881 1125.1667,-881 1000.8333,-881 1000.8333,-881 996.1667,-881 991.5,-876.3333 991.5,-871.6667 991.5,-871.6667 991.5,-862.3333 991.5,-862.3333 991.5,-857.6667 996.1667,-853 1000.8333,-853"/>
<text text-anchor="middle" x="1063" y="-862.6" font-family="Times,serif" font-size="18.00" fill="#000000">conststrings.c</text>
</g>
<!-- conststrings_c&#45;&gt;generated -->
<g id="edge9" class="edge">
<title>conststrings_c&#45;&gt;generated</title>
<path fill="none" stroke="#000000" stroke-width="2" stroke-dasharray="5,2" d="M1134.5107,-863.3615C1165.6823,-861.7755 1202.4353,-859.9054 1234.8646,-858.2554"/>
<polygon fill="#000000" stroke="#000000" stroke-width="2" points="1235.42,-861.7318 1245.2292,-857.7281 1235.0642,-854.7408 1235.42,-861.7318"/>
</g>
<!-- functions_h -->
<g id="node6" class="node">
<title>functions_h</title>
<path fill="none" stroke="#0000ff" stroke-width="3" d="M527.3333,-1483C527.3333,-1483 625.6667,-1483 625.6667,-1483 630.3333,-1483 635,-1487.6667 635,-1492.3333 635,-1492.3333 635,-1501.6667 635,-1501.6667 635,-1506.3333 630.3333,-1511 625.6667,-1511 625.6667,-1511 527.3333,-1511 527.3333,-1511 522.6667,-1511 518,-1506.3333 518,-1501.6667 518,-1501.6667 518,-1492.3333 518,-1492.3333 518,-1487.6667 522.6667,-1483 527.3333,-1483"/>
<text text-anchor="middle" x="576.5" y="-1492.6" font-family="Times,serif" font-size="18.00" fill="#000000">functions.h</text>
</g>
<!-- gen_map_doc -->
<g id="node42" class="node">
<title>gen_map_doc</title>
<polygon fill="none" stroke="#00ff00" stroke-width="3" points="914.5,-1438 782.5,-1438 782.5,-1410 914.5,-1410 914.5,-1438"/>
<text text-anchor="middle" x="848.5" y="-1419.6" font-family="Times,serif" font-size="18.00" fill="#000000">gen&#45;map&#45;doc</text>
</g>
<!-- functions_h&#45;&gt;gen_map_doc -->
<g id="edge64" class="edge">
<title>functions_h&#45;&gt;gen_map_doc</title>
<path fill="none" stroke="#000000" stroke-width="2" d="M635.1844,-1483.7995C667.9291,-1476.185 709.3802,-1466.1336 746,-1456 762.3668,-1451.4709 780.0642,-1446.1133 796.073,-1441.0902"/>
<polygon fill="#000000" stroke="#000000" stroke-width="2" points="797.3158,-1444.3681 805.7955,-1438.0162 795.2055,-1437.6937 797.3158,-1444.3681"/>
</g>
<!-- gitver_h -->
<g id="node7" class="node">
<title>gitver_h</title>
<path fill="none" stroke="#0000ff" stroke-width="3" d="M1029.3333,-705C1029.3333,-705 1096.6667,-705 1096.6667,-705 1101.3333,-705 1106,-709.6667 1106,-714.3333 1106,-714.3333 1106,-723.6667 1106,-723.6667 1106,-728.3333 1101.3333,-733 1096.6667,-733 1096.6667,-733 1029.3333,-733 1029.3333,-733 1024.6667,-733 1020,-728.3333 1020,-723.6667 1020,-723.6667 1020,-714.3333 1020,-714.3333 1020,-709.6667 1024.6667,-705 1029.3333,-705"/>
<text text-anchor="middle" x="1063" y="-714.6" font-family="Times,serif" font-size="18.00" fill="#000000">gitver.h</text>
</g>
<!-- gitver_h&#45;&gt;generated -->
<g id="edge7" class="edge">
<title>gitver_h&#45;&gt;generated</title>
<path fill="none" stroke="#000000" stroke-width="2" stroke-dasharray="5,2" d="M1081.8464,-733.1025C1110.9219,-754.3656 1169.017,-794.9152 1223,-821 1234.957,-826.7777 1248.1935,-832.024 1260.9071,-836.548"/>
<polygon fill="#000000" stroke="#000000" stroke-width="2" points="1259.9028,-839.904 1270.4976,-839.8636 1262.19,-833.2882 1259.9028,-839.904"/>
</g>
<!-- hcachever_h -->
<g id="node8" class="node">
<title>hcachever_h</title>
<path fill="none" stroke="#0000ff" stroke-width="3" d="M1010.3333,-954C1010.3333,-954 1115.6667,-954 1115.6667,-954 1120.3333,-954 1125,-958.6667 1125,-963.3333 1125,-963.3333 1125,-972.6667 1125,-972.6667 1125,-977.3333 1120.3333,-982 1115.6667,-982 1115.6667,-982 1010.3333,-982 1010.3333,-982 1005.6667,-982 1001,-977.3333 1001,-972.6667 1001,-972.6667 1001,-963.3333 1001,-963.3333 1001,-958.6667 1005.6667,-954 1010.3333,-954"/>
<text text-anchor="middle" x="1063" y="-963.6" font-family="Times,serif" font-size="18.00" fill="#000000">hcachever.h</text>
</g>
<!-- hcachever_h&#45;&gt;generated -->
<g id="edge14" class="edge">
<title>hcachever_h&#45;&gt;generated</title>
<path fill="none" stroke="#000000" stroke-width="2" stroke-dasharray="5,2" d="M1094.5856,-953.907C1140.7439,-933.3119 1226.6582,-894.9783 1277.5941,-872.2515"/>
<polygon fill="#000000" stroke="#000000" stroke-width="2" points="1279.2805,-875.3318 1286.9866,-868.0608 1276.4282,-868.9392 1279.2805,-875.3318"/>
</g>
<!-- hcachever_sh&#45;&gt;hcachever_h -->
<g id="edge13" class="edge">
<title>hcachever_sh&#45;&gt;hcachever_h</title>
<path fill="none" stroke="#000000" stroke-width="2" d="M934.2008,-978.8083C952.9195,-977.2375 972.5516,-975.5901 990.6875,-974.0682"/>
<polygon fill="#000000" stroke="#000000" stroke-width="2" points="991.2106,-977.5367 1000.8829,-973.2126 990.6252,-970.5612 991.2106,-977.5367"/>
</g>
<!-- hcachever_sh_in -->
<g id="node10" class="node">
<title>hcachever_sh_in</title>
<path fill="none" stroke="#0000ff" stroke-width="3" d="M507.8333,-959C507.8333,-959 645.1667,-959 645.1667,-959 649.8333,-959 654.5,-963.6667 654.5,-968.3333 654.5,-968.3333 654.5,-977.6667 654.5,-977.6667 654.5,-982.3333 649.8333,-987 645.1667,-987 645.1667,-987 507.8333,-987 507.8333,-987 503.1667,-987 498.5,-982.3333 498.5,-977.6667 498.5,-977.6667 498.5,-968.3333 498.5,-968.3333 498.5,-963.6667 503.1667,-959 507.8333,-959"/>
<text text-anchor="middle" x="576.5" y="-968.6" font-family="Times,serif" font-size="18.00" fill="#000000">hcachever.sh.in</text>
</g>
<!-- hcachever_sh_in&#45;&gt;hcachever_sh -->
<g id="edge51" class="edge">
<title>hcachever_sh_in&#45;&gt;hcachever_sh</title>
<path fill="none" stroke="#000000" stroke-width="2" d="M654.9776,-969.3191C659.043,-969.1948 663.0692,-969.0868 667,-969 702.1025,-968.2246 711.0074,-966.1179 746,-969 751.3932,-969.4442 756.93,-970.0178 762.5027,-970.6843"/>
<polygon fill="#000000" stroke="#000000" stroke-width="2" points="762.1841,-974.172 772.5489,-971.9764 763.0772,-967.2292 762.1841,-974.172"/>
<text text-anchor="middle" x="706.5" y="-972.8" font-family="Times,serif" font-size="14.00" fill="#000000">cp</text>
</g>
<!-- init_h -->
<g id="node11" class="node">
<title>init_h</title>
<path fill="none" stroke="#0000ff" stroke-width="3" d="M553.3333,-420C553.3333,-420 599.6667,-420 599.6667,-420 604.3333,-420 609,-424.6667 609,-429.3333 609,-429.3333 609,-438.6667 609,-438.6667 609,-443.3333 604.3333,-448 599.6667,-448 599.6667,-448 553.3333,-448 553.3333,-448 548.6667,-448 544,-443.3333 544,-438.6667 544,-438.6667 544,-429.3333 544,-429.3333 544,-424.6667 548.6667,-420 553.3333,-420"/>
<text text-anchor="middle" x="576.5" y="-429.6" font-family="Times,serif" font-size="18.00" fill="#000000">init.h</text>
</g>
<!-- lots_muttrc -->
<g id="node17" class="node">
<title>lots_muttrc</title>
<path fill="none" stroke="#0000ff" stroke-width="3" d="M766.3333,-176C766.3333,-176 930.6667,-176 930.6667,-176 935.3333,-176 940,-180.6667 940,-185.3333 940,-185.3333 940,-194.6667 940,-194.6667 940,-199.3333 935.3333,-204 930.6667,-204 930.6667,-204 766.3333,-204 766.3333,-204 761.6667,-204 757,-199.3333 757,-194.6667 757,-194.6667 757,-185.3333 757,-185.3333 757,-180.6667 761.6667,-176 766.3333,-176"/>
<text text-anchor="middle" x="848.5" y="-185.6" font-family="Times,serif" font-size="18.00" fill="#000000">{muttrc.example}</text>
</g>
<!-- init_h&#45;&gt;lots_muttrc -->
<g id="edge48" class="edge">
<title>init_h&#45;&gt;lots_muttrc</title>
<path fill="none" stroke="#000000" stroke-width="2" d="M581.4009,-419.8479C592.4696,-389.6023 621.9952,-317.7805 667,-273 699.0164,-241.1431 745.4858,-220.209 783.3887,-207.3337"/>
<polygon fill="#000000" stroke="#000000" stroke-width="2" points="784.9174,-210.5158 793.3282,-204.073 782.7355,-203.8645 784.9174,-210.5158"/>
<text text-anchor="middle" x="706.5" y="-276.8" font-family="Times,serif" font-size="14.00" fill="#000000">cut&#39;n&#39;paste</text>
</g>
<!-- lots_vimrc -->
<g id="node20" class="node">
<title>lots_vimrc</title>
<path fill="none" stroke="#0000ff" stroke-width="3" d="M771.3333,-641C771.3333,-641 925.6667,-641 925.6667,-641 930.3333,-641 935,-645.6667 935,-650.3333 935,-650.3333 935,-659.6667 935,-659.6667 935,-664.3333 930.3333,-669 925.6667,-669 925.6667,-669 771.3333,-669 771.3333,-669 766.6667,-669 762,-664.3333 762,-659.6667 762,-659.6667 762,-650.3333 762,-650.3333 762,-645.6667 766.6667,-641 771.3333,-641"/>
<text text-anchor="middle" x="848.5" y="-650.6" font-family="Times,serif" font-size="18.00" fill="#000000">{vimrc.example}</text>
</g>
<!-- init_h&#45;&gt;lots_vimrc -->
<g id="edge49" class="edge">
<title>init_h&#45;&gt;lots_vimrc</title>
<path fill="none" stroke="#000000" stroke-width="2" d="M586.4169,-448.15C611.2681,-482.6342 679.7763,-571.8522 757,-622 766.2169,-627.9853 776.6607,-633.0601 787.1121,-637.3005"/>
<polygon fill="#000000" stroke="#000000" stroke-width="2" points="786.087,-640.6558 796.6774,-640.9624 788.5897,-634.1184 786.087,-640.6558"/>
<text text-anchor="middle" x="706.5" y="-618.8" font-family="Times,serif" font-size="14.00" fill="#000000">cut&#39;n&#39;paste</text>
</g>
<!-- makedoc_c -->
<g id="node45" class="node">
<title>makedoc_c</title>
<polygon fill="none" stroke="#00ff00" stroke-width="3" points="908,-269 789,-269 789,-241 908,-241 908,-269"/>
<text text-anchor="middle" x="848.5" y="-250.6" font-family="Times,serif" font-size="18.00" fill="#000000">makedoc &#45;c</text>
</g>
<!-- init_h&#45;&gt;makedoc_c -->
<g id="edge46" class="edge">
<title>init_h&#45;&gt;makedoc_c</title>
<path fill="none" stroke="#000000" stroke-width="2" d="M590.2049,-419.9322C618.7878,-391.2933 687.8662,-325.6658 757,-287 766.8832,-281.4724 777.8925,-276.6398 788.7531,-272.5187"/>
<polygon fill="#000000" stroke="#000000" stroke-width="2" points="790.0207,-275.7821 798.2269,-269.0808 787.6328,-269.202 790.0207,-275.7821"/>
</g>
<!-- makedoc_m -->
<g id="node46" class="node">
<title>makedoc_m</title>
<polygon fill="none" stroke="#00ff00" stroke-width="3" points="912,-539 785,-539 785,-511 912,-511 912,-539"/>
<text text-anchor="middle" x="848.5" y="-520.6" font-family="Times,serif" font-size="18.00" fill="#000000">makedoc &#45;m</text>
</g>
<!-- init_h&#45;&gt;makedoc_m -->
<g id="edge41" class="edge">
<title>init_h&#45;&gt;makedoc_m</title>
<path fill="none" stroke="#000000" stroke-width="2" d="M609.0394,-444.8863C655.5977,-460.4628 741.6904,-489.2659 796.966,-507.7589"/>
<polygon fill="#000000" stroke="#000000" stroke-width="2" points="795.9802,-511.1197 806.574,-510.9733 798.2012,-504.4813 795.9802,-511.1197"/>
</g>
<!-- makedoc_s -->
<g id="node47" class="node">
<title>makedoc_s</title>
<polygon fill="none" stroke="#00ff00" stroke-width="3" points="908,-936 789,-936 789,-908 908,-908 908,-936"/>
<text text-anchor="middle" x="848.5" y="-917.6" font-family="Times,serif" font-size="18.00" fill="#000000">makedoc &#45;s</text>
</g>
<!-- init_h&#45;&gt;makedoc_s -->
<g id="edge62" class="edge">
<title>init_h&#45;&gt;makedoc_s</title>
<path fill="none" stroke="#000000" stroke-width="2" d="M577.8979,-448.2223C584.7291,-510.0795 620.0526,-758.4867 757,-890 763.438,-896.1825 771.1359,-901.1768 779.2954,-905.2098"/>
<polygon fill="#000000" stroke="#000000" stroke-width="2" points="778.1012,-908.509 788.6612,-909.3669 780.941,-902.1109 778.1012,-908.509"/>
</g>
<!-- compulsory -->
<g id="node52" class="node">
<title>compulsory</title>
<path fill="none" stroke="#0000ff" stroke-width="3" d="M1249.3333,-775C1249.3333,-775 1387.6667,-775 1387.6667,-775 1392.3333,-775 1397,-779.6667 1397,-784.3333 1397,-784.3333 1397,-793.6667 1397,-793.6667 1397,-798.3333 1392.3333,-803 1387.6667,-803 1387.6667,-803 1249.3333,-803 1249.3333,-803 1244.6667,-803 1240,-798.3333 1240,-793.6667 1240,-793.6667 1240,-784.3333 1240,-784.3333 1240,-779.6667 1244.6667,-775 1249.3333,-775"/>
<text text-anchor="middle" x="1318.5" y="-784.6" font-family="Times,serif" font-size="18.00" fill="#000000">{compulsory.c}</text>
</g>
<!-- init_h&#45;&gt;compulsory -->
<g id="edge50" class="edge">
<title>init_h&#45;&gt;compulsory</title>
<path fill="none" stroke="#000000" stroke-width="2" stroke-dasharray="5,2" d="M609.006,-425.1167C705.5755,-400.9066 993.0866,-344.9652 1139,-492 1225.7318,-579.3984 1137.014,-667.8677 1223,-756 1228.5987,-761.7384 1235.2421,-766.4797 1242.3788,-770.397"/>
<polygon fill="#000000" stroke="#000000" stroke-width="2" points="1241.1205,-773.6778 1251.641,-774.9312 1244.1983,-767.3907 1241.1205,-773.6778"/>
</g>
<!-- keymap_alldefs_h -->
<g id="node12" class="node">
<title>keymap_alldefs_h</title>
<path fill="none" stroke="#0000ff" stroke-width="3" d="M1240.8333,-1290C1240.8333,-1290 1396.1667,-1290 1396.1667,-1290 1400.8333,-1290 1405.5,-1294.6667 1405.5,-1299.3333 1405.5,-1299.3333 1405.5,-1308.6667 1405.5,-1308.6667 1405.5,-1313.3333 1400.8333,-1318 1396.1667,-1318 1396.1667,-1318 1240.8333,-1318 1240.8333,-1318 1236.1667,-1318 1231.5,-1313.3333 1231.5,-1308.6667 1231.5,-1308.6667 1231.5,-1299.3333 1231.5,-1299.3333 1231.5,-1294.6667 1236.1667,-1290 1240.8333,-1290"/>
<text text-anchor="middle" x="1318.5" y="-1299.6" font-family="Times,serif" font-size="18.00" fill="#000000">keymap_alldefs.h</text>
</g>
<!-- xgettext -->
<g id="node50" class="node">
<title>xgettext</title>
<polygon fill="none" stroke="#0000ff" stroke-width="3" points="1632,-1090 1540,-1090 1540,-1062 1632,-1062 1632,-1090"/>
<text text-anchor="middle" x="1586" y="-1071.6" font-family="Times,serif" font-size="18.00" fill="#000000">xgettext</text>
</g>
<!-- keymap_alldefs_h&#45;&gt;xgettext -->
<g id="edge29" class="edge">
<title>keymap_alldefs_h&#45;&gt;xgettext</title>
<path fill="none" stroke="#000000" stroke-width="2" d="M1405.9385,-1303.4527C1438.9224,-1298.7434 1474.1874,-1287.5526 1498,-1263 1515.6589,-1244.7923 1500.0013,-1230.7146 1509,-1207 1524.4209,-1166.3608 1551.8881,-1123.7681 1569.5073,-1098.5709"/>
<polygon fill="#000000" stroke="#000000" stroke-width="2" points="1572.5783,-1100.2911 1575.5124,-1090.1106 1566.8701,-1096.2393 1572.5783,-1100.2911"/>
</g>
<!-- keymap_defs_h -->
<g id="node13" class="node">
<title>keymap_defs_h</title>
<path fill="none" stroke="#0000ff" stroke-width="3" d="M996.3333,-1129C996.3333,-1129 1129.6667,-1129 1129.6667,-1129 1134.3333,-1129 1139,-1133.6667 1139,-1138.3333 1139,-1138.3333 1139,-1147.6667 1139,-1147.6667 1139,-1152.3333 1134.3333,-1157 1129.6667,-1157 1129.6667,-1157 996.3333,-1157 996.3333,-1157 991.6667,-1157 987,-1152.3333 987,-1147.6667 987,-1147.6667 987,-1138.3333 987,-1138.3333 987,-1133.6667 991.6667,-1129 996.3333,-1129"/>
<text text-anchor="middle" x="1063" y="-1138.6" font-family="Times,serif" font-size="18.00" fill="#000000">keymap_defs.h</text>
</g>
<!-- keymap_defs_h&#45;&gt;generated -->
<g id="edge22" class="edge">
<title>keymap_defs_h&#45;&gt;generated</title>
<path fill="none" stroke="#000000" stroke-width="2" stroke-dasharray="5,2" d="M1138.874,-1128.9355C1166.5521,-1120.1386 1195.7506,-1105.9197 1215,-1083 1226.3797,-1069.4505 1217.1988,-1060.7162 1223,-1044 1244.9064,-980.8765 1283.57,-912.0425 1304.3482,-877.122"/>
<polygon fill="#000000" stroke="#000000" stroke-width="2" points="1307.5557,-878.5792 1309.7056,-868.2048 1301.5554,-874.9742 1307.5557,-878.5792"/>
</g>
<!-- lots_1 -->
<g id="node14" class="node">
<title>lots_1</title>
<path fill="none" stroke="#0000ff" stroke-width="3" d="M297.8333,-1410C297.8333,-1410 412.1667,-1410 412.1667,-1410 416.8333,-1410 421.5,-1414.6667 421.5,-1419.3333 421.5,-1419.3333 421.5,-1428.6667 421.5,-1428.6667 421.5,-1433.3333 416.8333,-1438 412.1667,-1438 412.1667,-1438 297.8333,-1438 297.8333,-1438 293.1667,-1438 288.5,-1433.3333 288.5,-1428.6667 288.5,-1428.6667 288.5,-1419.3333 288.5,-1419.3333 288.5,-1414.6667 293.1667,-1410 297.8333,-1410"/>
<text text-anchor="middle" x="355" y="-1419.6" font-family="Times,serif" font-size="18.00" fill="#000000">{example.1}</text>
</g>
<!-- lots_man -->
<g id="node15" class="node">
<title>lots_man</title>
<path fill="none" stroke="#0000ff" stroke-width="3" d="M9.3333,-1410C9.3333,-1410 151.6667,-1410 151.6667,-1410 156.3333,-1410 161,-1414.6667 161,-1419.3333 161,-1419.3333 161,-1428.6667 161,-1428.6667 161,-1433.3333 156.3333,-1438 151.6667,-1438 151.6667,-1438 9.3333,-1438 9.3333,-1438 4.6667,-1438 0,-1433.3333 0,-1428.6667 0,-1428.6667 0,-1419.3333 0,-1419.3333 0,-1414.6667 4.6667,-1410 9.3333,-1410"/>
<text text-anchor="middle" x="80.5" y="-1419.6" font-family="Times,serif" font-size="18.00" fill="#000000">{example.man}</text>
</g>
<!-- lots_man&#45;&gt;lots_1 -->
<g id="edge32" class="edge">
<title>lots_man&#45;&gt;lots_1</title>
<path fill="none" stroke="#000000" stroke-width="2" d="M161.0043,-1424C198.0225,-1424 241.7251,-1424 278.2699,-1424"/>
<polygon fill="#000000" stroke="#000000" stroke-width="2" points="278.3761,-1427.5001 288.3761,-1424 278.376,-1420.5001 278.3761,-1427.5001"/>
<text text-anchor="middle" x="211" y="-1427.8" font-family="Times,serif" font-size="14.00" fill="#000000">sed</text>
</g>
<!-- lots_mo -->
<g id="node16" class="node">
<title>lots_mo</title>
<path fill="none" stroke="#0000ff" stroke-width="3" d="M2158.3333,-1062C2158.3333,-1062 2288.6667,-1062 2288.6667,-1062 2293.3333,-1062 2298,-1066.6667 2298,-1071.3333 2298,-1071.3333 2298,-1080.6667 2298,-1080.6667 2298,-1085.3333 2293.3333,-1090 2288.6667,-1090 2288.6667,-1090 2158.3333,-1090 2158.3333,-1090 2153.6667,-1090 2149,-1085.3333 2149,-1080.6667 2149,-1080.6667 2149,-1071.3333 2149,-1071.3333 2149,-1066.6667 2153.6667,-1062 2158.3333,-1062"/>
<text text-anchor="middle" x="2223.5" y="-1071.6" font-family="Times,serif" font-size="18.00" fill="#000000">{example.mo}</text>
</g>
<!-- lots_obj -->
<g id="node18" class="node">
<title>lots_obj</title>
<path fill="none" stroke="#0000ff" stroke-width="3" d="M1537.8333,-480C1537.8333,-480 1634.1667,-480 1634.1667,-480 1638.8333,-480 1643.5,-484.6667 1643.5,-489.3333 1643.5,-489.3333 1643.5,-498.6667 1643.5,-498.6667 1643.5,-503.3333 1638.8333,-508 1634.1667,-508 1634.1667,-508 1537.8333,-508 1537.8333,-508 1533.1667,-508 1528.5,-503.3333 1528.5,-498.6667 1528.5,-498.6667 1528.5,-489.3333 1528.5,-489.3333 1528.5,-484.6667 1533.1667,-480 1537.8333,-480"/>
<text text-anchor="middle" x="1586" y="-489.6" font-family="Times,serif" font-size="18.00" fill="#000000">{source.o}</text>
</g>
<!-- ld -->
<g id="node44" class="node">
<title>ld</title>
<polygon fill="none" stroke="#0000ff" stroke-width="3" points="1804.5,-236 1750.5,-236 1750.5,-208 1804.5,-208 1804.5,-236"/>
<text text-anchor="middle" x="1777.5" y="-217.6" font-family="Times,serif" font-size="18.00" fill="#000000">ld</text>
</g>
<!-- lots_obj&#45;&gt;ld -->
<g id="edge2" class="edge">
<title>lots_obj&#45;&gt;ld</title>
<path fill="none" stroke="#000000" stroke-width="2" d="M1596.0262,-479.7591C1627.3732,-435.235 1723.6999,-298.4159 1761.7766,-244.3329"/>
<polygon fill="#000000" stroke="#000000" stroke-width="2" points="1764.678,-246.2916 1767.573,-236.1 1758.9543,-242.2618 1764.678,-246.2916"/>
</g>
<!-- lots_po -->
<g id="node19" class="node">
<title>lots_po</title>
<path fill="none" stroke="#0000ff" stroke-width="3" d="M1938.3333,-1062C1938.3333,-1062 2062.6667,-1062 2062.6667,-1062 2067.3333,-1062 2072,-1066.6667 2072,-1071.3333 2072,-1071.3333 2072,-1080.6667 2072,-1080.6667 2072,-1085.3333 2067.3333,-1090 2062.6667,-1090 2062.6667,-1090 1938.3333,-1090 1938.3333,-1090 1933.6667,-1090 1929,-1085.3333 1929,-1080.6667 1929,-1080.6667 1929,-1071.3333 1929,-1071.3333 1929,-1066.6667 1933.6667,-1062 1938.3333,-1062"/>
<text text-anchor="middle" x="2000.5" y="-1071.6" font-family="Times,serif" font-size="18.00" fill="#000000">{example.po}</text>
</g>
<!-- lots_po&#45;&gt;lots_mo -->
<g id="edge40" class="edge">
<title>lots_po&#45;&gt;lots_mo</title>
<path fill="none" stroke="#000000" stroke-width="2" d="M2072.2861,-1076C2093.3901,-1076 2116.6775,-1076 2138.5229,-1076"/>
<polygon fill="#000000" stroke="#000000" stroke-width="2" points="2138.7791,-1079.5001 2148.7791,-1076 2138.779,-1072.5001 2138.7791,-1079.5001"/>
<text text-anchor="middle" x="2110.5" y="-1079.8" font-family="Times,serif" font-size="14.00" fill="#000000">msgfmt</text>
</g>
<!-- lots_xsl -->
<g id="node21" class="node">
<title>lots_xsl</title>
<path fill="none" stroke="#0000ff" stroke-width="3" d="M1015.3333,-1441C1015.3333,-1441 1110.6667,-1441 1110.6667,-1441 1115.3333,-1441 1120,-1445.6667 1120,-1450.3333 1120,-1450.3333 1120,-1459.6667 1120,-1459.6667 1120,-1464.3333 1115.3333,-1469 1110.6667,-1469 1110.6667,-1469 1015.3333,-1469 1015.3333,-1469 1010.6667,-1469 1006,-1464.3333 1006,-1459.6667 1006,-1459.6667 1006,-1450.3333 1006,-1450.3333 1006,-1445.6667 1010.6667,-1441 1015.3333,-1441"/>
<text text-anchor="middle" x="1063" y="-1450.6" font-family="Times,serif" font-size="18.00" fill="#000000">{mutt.xsl}</text>
</g>
<!-- xsltproc -->
<g id="node51" class="node">
<title>xsltproc</title>
<polygon fill="none" stroke="#0000ff" stroke-width="3" points="1363,-1404 1274,-1404 1274,-1376 1363,-1376 1363,-1404"/>
<text text-anchor="middle" x="1318.5" y="-1385.6" font-family="Times,serif" font-size="18.00" fill="#000000">xsltproc</text>
</g>
<!-- lots_xsl&#45;&gt;xsltproc -->
<g id="edge35" class="edge">
<title>lots_xsl&#45;&gt;xsltproc</title>
<path fill="none" stroke="#000000" stroke-width="2" d="M1120.1076,-1441.4622C1148.6518,-1434.6032 1183.697,-1426.0428 1215,-1418 1231.0501,-1413.8762 1248.4536,-1409.2345 1264.3282,-1404.9338"/>
<polygon fill="#000000" stroke="#000000" stroke-width="2" points="1265.2573,-1408.3083 1273.989,-1402.3077 1263.4211,-1401.5534 1265.2573,-1408.3083"/>
</g>
<!-- makedoc_src -->
<g id="node22" class="node">
<title>makedoc_src</title>
<path fill="none" stroke="#0000ff" stroke-width="3" d="M33.3333,-1480C33.3333,-1480 127.6667,-1480 127.6667,-1480 132.3333,-1480 137,-1484.6667 137,-1489.3333 137,-1489.3333 137,-1498.6667 137,-1498.6667 137,-1503.3333 132.3333,-1508 127.6667,-1508 127.6667,-1508 33.3333,-1508 33.3333,-1508 28.6667,-1508 24,-1503.3333 24,-1498.6667 24,-1498.6667 24,-1489.3333 24,-1489.3333 24,-1484.6667 28.6667,-1480 33.3333,-1480"/>
<text text-anchor="middle" x="80.5" y="-1489.6" font-family="Times,serif" font-size="18.00" fill="#000000">makedoc.c</text>
</g>
<!-- makedoc -->
<g id="node72" class="node">
<title>makedoc</title>
<path fill="none" stroke="#0000ff" stroke-width="3" d="M315.3333,-1480C315.3333,-1480 394.6667,-1480 394.6667,-1480 399.3333,-1480 404,-1484.6667 404,-1489.3333 404,-1489.3333 404,-1498.6667 404,-1498.6667 404,-1503.3333 399.3333,-1508 394.6667,-1508 394.6667,-1508 315.3333,-1508 315.3333,-1508 310.6667,-1508 306,-1503.3333 306,-1498.6667 306,-1498.6667 306,-1489.3333 306,-1489.3333 306,-1484.6667 310.6667,-1480 315.3333,-1480"/>
<text text-anchor="middle" x="355" y="-1489.6" font-family="Times,serif" font-size="18.00" fill="#000000">makedoc</text>
</g>
<!-- makedoc_src&#45;&gt;makedoc -->
<g id="edge56" class="edge">
<title>makedoc_src&#45;&gt;makedoc</title>
<path fill="none" stroke="#000000" stroke-width="2" d="M137.0437,-1494C183.3946,-1494 248.7914,-1494 295.8404,-1494"/>
<polygon fill="#000000" stroke="#000000" stroke-width="2" points="295.886,-1497.5001 305.8859,-1494 295.8859,-1490.5001 295.886,-1497.5001"/>
<text text-anchor="middle" x="211" y="-1497.8" font-family="Times,serif" font-size="14.00" fill="#000000">gcc</text>
</g>
<!-- manual_html -->
<g id="node23" class="node">
<title>manual_html</title>
<path fill="none" stroke="#0000ff" stroke-width="3" d="M1518.3333,-1376C1518.3333,-1376 1653.6667,-1376 1653.6667,-1376 1658.3333,-1376 1663,-1380.6667 1663,-1385.3333 1663,-1385.3333 1663,-1394.6667 1663,-1394.6667 1663,-1399.3333 1658.3333,-1404 1653.6667,-1404 1653.6667,-1404 1518.3333,-1404 1518.3333,-1404 1513.6667,-1404 1509,-1399.3333 1509,-1394.6667 1509,-1394.6667 1509,-1385.3333 1509,-1385.3333 1509,-1380.6667 1513.6667,-1376 1518.3333,-1376"/>
<text text-anchor="middle" x="1586" y="-1385.6" font-family="Times,serif" font-size="18.00" fill="#000000">{manual.html}</text>
</g>
<!-- manual_txt -->
<g id="node26" class="node">
<title>manual_txt</title>
<path fill="none" stroke="#0000ff" stroke-width="3" d="M1729.3333,-1376C1729.3333,-1376 1825.6667,-1376 1825.6667,-1376 1830.3333,-1376 1835,-1380.6667 1835,-1385.3333 1835,-1385.3333 1835,-1394.6667 1835,-1394.6667 1835,-1399.3333 1830.3333,-1404 1825.6667,-1404 1825.6667,-1404 1729.3333,-1404 1729.3333,-1404 1724.6667,-1404 1720,-1399.3333 1720,-1394.6667 1720,-1394.6667 1720,-1385.3333 1720,-1385.3333 1720,-1380.6667 1724.6667,-1376 1729.3333,-1376"/>
<text text-anchor="middle" x="1777.5" y="-1385.6" font-family="Times,serif" font-size="18.00" fill="#000000">manual.txt</text>
</g>
<!-- manual_html&#45;&gt;manual_txt -->
<g id="edge38" class="edge">
<title>manual_html&#45;&gt;manual_txt</title>
<path fill="none" stroke="#000000" stroke-width="2" d="M1663.0626,-1390C1678.4314,-1390 1694.4686,-1390 1709.506,-1390"/>
<polygon fill="#000000" stroke="#000000" stroke-width="2" points="1709.7363,-1393.5001 1719.7363,-1390 1709.7362,-1386.5001 1709.7363,-1393.5001"/>
<text text-anchor="middle" x="1691.5" y="-1393.8" font-family="Times,serif" font-size="14.00" fill="#000000">links</text>
</g>
<!-- manual_pdf -->
<g id="node24" class="node">
<title>manual_pdf</title>
<path fill="none" stroke="#0000ff" stroke-width="3" d="M1535.8333,-1225C1535.8333,-1225 1636.1667,-1225 1636.1667,-1225 1640.8333,-1225 1645.5,-1229.6667 1645.5,-1234.3333 1645.5,-1234.3333 1645.5,-1243.6667 1645.5,-1243.6667 1645.5,-1248.3333 1640.8333,-1253 1636.1667,-1253 1636.1667,-1253 1535.8333,-1253 1535.8333,-1253 1531.1667,-1253 1526.5,-1248.3333 1526.5,-1243.6667 1526.5,-1243.6667 1526.5,-1234.3333 1526.5,-1234.3333 1526.5,-1229.6667 1531.1667,-1225 1535.8333,-1225"/>
<text text-anchor="middle" x="1586" y="-1234.6" font-family="Times,serif" font-size="18.00" fill="#000000">manual.pdf</text>
</g>
<!-- manual_tex -->
<g id="node25" class="node">
<title>manual_tex</title>
<path fill="none" stroke="#0000ff" stroke-width="3" d="M1268.8333,-1225C1268.8333,-1225 1368.1667,-1225 1368.1667,-1225 1372.8333,-1225 1377.5,-1229.6667 1377.5,-1234.3333 1377.5,-1234.3333 1377.5,-1243.6667 1377.5,-1243.6667 1377.5,-1248.3333 1372.8333,-1253 1368.1667,-1253 1368.1667,-1253 1268.8333,-1253 1268.8333,-1253 1264.1667,-1253 1259.5,-1248.3333 1259.5,-1243.6667 1259.5,-1243.6667 1259.5,-1234.3333 1259.5,-1234.3333 1259.5,-1229.6667 1264.1667,-1225 1268.8333,-1225"/>
<text text-anchor="middle" x="1318.5" y="-1234.6" font-family="Times,serif" font-size="18.00" fill="#000000">manual.tex</text>
</g>
<!-- manual_tex&#45;&gt;manual_pdf -->
<g id="edge66" class="edge">
<title>manual_tex&#45;&gt;manual_pdf</title>
<path fill="none" stroke="#000000" stroke-width="2" d="M1377.5352,-1239C1418.4154,-1239 1473.0067,-1239 1516.0693,-1239"/>
<polygon fill="#000000" stroke="#000000" stroke-width="2" points="1516.1909,-1242.5001 1526.1909,-1239 1516.1909,-1235.5001 1516.1909,-1242.5001"/>
<text text-anchor="middle" x="1460" y="-1242.8" font-family="Times,serif" font-size="14.00" fill="#000000">pdfjadetex</text>
</g>
<!-- manual_xml&#45;&gt;manual_tex -->
<g id="edge65" class="edge">
<title>manual_xml&#45;&gt;manual_tex</title>
<path fill="none" stroke="#000000" stroke-width="2" d="M1124.5238,-1243.5552C1162.0705,-1242.6735 1210.1667,-1241.544 1249.0732,-1240.6304"/>
<polygon fill="#000000" stroke="#000000" stroke-width="2" points="1249.3542,-1244.1248 1259.2692,-1240.3909 1249.1898,-1237.1268 1249.3542,-1244.1248"/>
<text text-anchor="middle" x="1182.5" y="-1245.8" font-family="Times,serif" font-size="14.00" fill="#000000">openjade</text>
</g>
<!-- manual_xml&#45;&gt;xsltproc -->
<g id="edge34" class="edge">
<title>manual_xml&#45;&gt;xsltproc</title>
<path fill="none" stroke="#000000" stroke-width="2" d="M1088.0349,-1259.0551C1102.8775,-1267.4152 1122.043,-1278.2578 1139,-1288 1176.4761,-1309.5311 1185.4356,-1315.6233 1223,-1337 1243.0687,-1348.4204 1265.6536,-1360.9682 1283.8201,-1370.9868"/>
<polygon fill="#000000" stroke="#000000" stroke-width="2" points="1282.4324,-1374.2182 1292.8804,-1375.9759 1285.809,-1368.0864 1282.4324,-1374.2182"/>
</g>
<!-- manual_xml_head -->
<g id="node28" class="node">
<title>manual_xml_head</title>
<path fill="none" stroke="#0000ff" stroke-width="3" d="M771.3333,-1262C771.3333,-1262 925.6667,-1262 925.6667,-1262 930.3333,-1262 935,-1266.6667 935,-1271.3333 935,-1271.3333 935,-1280.6667 935,-1280.6667 935,-1285.3333 930.3333,-1290 925.6667,-1290 925.6667,-1290 771.3333,-1290 771.3333,-1290 766.6667,-1290 762,-1285.3333 762,-1280.6667 762,-1280.6667 762,-1271.3333 762,-1271.3333 762,-1266.6667 766.6667,-1262 771.3333,-1262"/>
<text text-anchor="middle" x="848.5" y="-1271.6" font-family="Times,serif" font-size="18.00" fill="#000000">manual.xml.head</text>
</g>
<!-- manual_xml_head&#45;&gt;manual_xml -->
<g id="edge58" class="edge">
<title>manual_xml_head&#45;&gt;manual_xml</title>
<path fill="none" stroke="#000000" stroke-width="2" d="M935.1592,-1262.3373C940.5177,-1261.5345 945.831,-1260.7495 951,-1260 963.9959,-1258.1156 977.853,-1256.1912 991.2323,-1254.3764"/>
<polygon fill="#000000" stroke="#000000" stroke-width="2" points="991.9056,-1257.8174 1001.3483,-1253.0125 990.9702,-1250.8802 991.9056,-1257.8174"/>
<text text-anchor="middle" x="963.5" y="-1263.8" font-family="Times,serif" font-size="14.00" fill="#000000">sed</text>
</g>
<!-- manual_xml_tail -->
<g id="node29" class="node">
<title>manual_xml_tail</title>
<path fill="none" stroke="#0000ff" stroke-width="3" d="M506.3333,-1418C506.3333,-1418 646.6667,-1418 646.6667,-1418 651.3333,-1418 656,-1422.6667 656,-1427.3333 656,-1427.3333 656,-1436.6667 656,-1436.6667 656,-1441.3333 651.3333,-1446 646.6667,-1446 646.6667,-1446 506.3333,-1446 506.3333,-1446 501.6667,-1446 497,-1441.3333 497,-1436.6667 497,-1436.6667 497,-1427.3333 497,-1427.3333 497,-1422.6667 501.6667,-1418 506.3333,-1418"/>
<text text-anchor="middle" x="576.5" y="-1427.6" font-family="Times,serif" font-size="18.00" fill="#000000">manual.xml.tail</text>
</g>
<!-- manual_xml_tail&#45;&gt;gen_map_doc -->
<g id="edge59" class="edge">
<title>manual_xml_tail&#45;&gt;gen_map_doc</title>
<path fill="none" stroke="#000000" stroke-width="2" d="M656.2711,-1429.6538C692.9522,-1428.5749 736.2567,-1427.3013 772.4687,-1426.2362"/>
<polygon fill="#000000" stroke="#000000" stroke-width="2" points="772.5901,-1429.7343 782.4828,-1425.9417 772.3842,-1422.7373 772.5901,-1429.7343"/>
</g>
<!-- muttrc -->
<g id="node30" class="node">
<title>muttrc</title>
<path fill="none" stroke="#0000ff" stroke-width="3" d="M1033.3333,-306C1033.3333,-306 1092.6667,-306 1092.6667,-306 1097.3333,-306 1102,-310.6667 1102,-315.3333 1102,-315.3333 1102,-324.6667 1102,-324.6667 1102,-329.3333 1097.3333,-334 1092.6667,-334 1092.6667,-334 1033.3333,-334 1033.3333,-334 1028.6667,-334 1024,-329.3333 1024,-324.6667 1024,-324.6667 1024,-315.3333 1024,-315.3333 1024,-310.6667 1028.6667,-306 1033.3333,-306"/>
<text text-anchor="middle" x="1063" y="-315.6" font-family="Times,serif" font-size="18.00" fill="#000000">muttrc</text>
</g>
<!-- muttrc_man -->
<g id="node31" class="node">
<title>muttrc_man</title>
<path fill="none" stroke="#0000ff" stroke-width="3" d="M1010.8333,-511C1010.8333,-511 1115.1667,-511 1115.1667,-511 1119.8333,-511 1124.5,-515.6667 1124.5,-520.3333 1124.5,-520.3333 1124.5,-529.6667 1124.5,-529.6667 1124.5,-534.3333 1119.8333,-539 1115.1667,-539 1115.1667,-539 1010.8333,-539 1010.8333,-539 1006.1667,-539 1001.5,-534.3333 1001.5,-529.6667 1001.5,-529.6667 1001.5,-520.3333 1001.5,-520.3333 1001.5,-515.6667 1006.1667,-511 1010.8333,-511"/>
<text text-anchor="middle" x="1063" y="-520.6" font-family="Times,serif" font-size="18.00" fill="#000000">muttrc.man</text>
</g>
<!-- muttrc_man_head -->
<g id="node32" class="node">
<title>muttrc_man_head</title>
<path fill="none" stroke="#0000ff" stroke-width="3" d="M771.3333,-446C771.3333,-446 925.6667,-446 925.6667,-446 930.3333,-446 935,-450.6667 935,-455.3333 935,-455.3333 935,-464.6667 935,-464.6667 935,-469.3333 930.3333,-474 925.6667,-474 925.6667,-474 771.3333,-474 771.3333,-474 766.6667,-474 762,-469.3333 762,-464.6667 762,-464.6667 762,-455.3333 762,-455.3333 762,-450.6667 766.6667,-446 771.3333,-446"/>
<text text-anchor="middle" x="848.5" y="-455.6" font-family="Times,serif" font-size="18.00" fill="#000000">muttrc.man.head</text>
</g>
<!-- muttrc_man_head&#45;&gt;muttrc_man -->
<g id="edge42" class="edge">
<title>muttrc_man_head&#45;&gt;muttrc_man</title>
<path fill="none" stroke="#000000" stroke-width="2" d="M894.7792,-474.024C927.651,-483.9851 971.9654,-497.4138 1006.8593,-507.9877"/>
<polygon fill="#000000" stroke="#000000" stroke-width="2" points="1005.8487,-511.3385 1016.434,-510.8891 1007.8788,-504.6394 1005.8487,-511.3385"/>
</g>
<!-- muttrc_man_tail -->
<g id="node33" class="node">
<title>muttrc_man_tail</title>
<path fill="none" stroke="#0000ff" stroke-width="3" d="M778.3333,-576C778.3333,-576 918.6667,-576 918.6667,-576 923.3333,-576 928,-580.6667 928,-585.3333 928,-585.3333 928,-594.6667 928,-594.6667 928,-599.3333 923.3333,-604 918.6667,-604 918.6667,-604 778.3333,-604 778.3333,-604 773.6667,-604 769,-599.3333 769,-594.6667 769,-594.6667 769,-585.3333 769,-585.3333 769,-580.6667 773.6667,-576 778.3333,-576"/>
<text text-anchor="middle" x="848.5" y="-585.6" font-family="Times,serif" font-size="18.00" fill="#000000">muttrc.man.tail</text>
</g>
<!-- muttrc_man_tail&#45;&gt;muttrc_man -->
<g id="edge44" class="edge">
<title>muttrc_man_tail&#45;&gt;muttrc_man</title>
<path fill="none" stroke="#000000" stroke-width="2" d="M898.2498,-575.9241C921.8579,-569.1523 950.4334,-560.822 976,-553 987.1485,-549.5891 999.0644,-545.8296 1010.3887,-542.2026"/>
<polygon fill="#000000" stroke="#000000" stroke-width="2" points="1011.7061,-545.4555 1020.154,-539.0613 1009.5626,-538.7917 1011.7061,-545.4555"/>
</g>
<!-- mutt_css -->
<g id="node34" class="node">
<title>mutt_css</title>
<path fill="none" stroke="#0000ff" stroke-width="3" d="M1025.3333,-1376C1025.3333,-1376 1100.6667,-1376 1100.6667,-1376 1105.3333,-1376 1110,-1380.6667 1110,-1385.3333 1110,-1385.3333 1110,-1394.6667 1110,-1394.6667 1110,-1399.3333 1105.3333,-1404 1100.6667,-1404 1100.6667,-1404 1025.3333,-1404 1025.3333,-1404 1020.6667,-1404 1016,-1399.3333 1016,-1394.6667 1016,-1394.6667 1016,-1385.3333 1016,-1385.3333 1016,-1380.6667 1020.6667,-1376 1025.3333,-1376"/>
<text text-anchor="middle" x="1063" y="-1385.6" font-family="Times,serif" font-size="18.00" fill="#000000">mutt.css</text>
</g>
<!-- mutt_css&#45;&gt;xsltproc -->
<g id="edge36" class="edge">
<title>mutt_css&#45;&gt;xsltproc</title>
<path fill="none" stroke="#000000" stroke-width="2" d="M1110.1604,-1390C1153.5931,-1390 1218.0314,-1390 1263.7265,-1390"/>
<polygon fill="#000000" stroke="#000000" stroke-width="2" points="1263.7555,-1393.5001 1273.7555,-1390 1263.7555,-1386.5001 1263.7555,-1393.5001"/>
</g>
<!-- mutt_h -->
<g id="node35" class="node">
<title>mutt_h</title>
<path fill="none" stroke="#0000ff" stroke-width="3" d="M547.3333,-817C547.3333,-817 605.6667,-817 605.6667,-817 610.3333,-817 615,-821.6667 615,-826.3333 615,-826.3333 615,-835.6667 615,-835.6667 615,-840.3333 610.3333,-845 605.6667,-845 605.6667,-845 547.3333,-845 547.3333,-845 542.6667,-845 538,-840.3333 538,-835.6667 538,-835.6667 538,-826.3333 538,-826.3333 538,-821.6667 542.6667,-817 547.3333,-817"/>
<text text-anchor="middle" x="576.5" y="-826.6" font-family="Times,serif" font-size="18.00" fill="#000000">mutt.h</text>
</g>
<!-- mutt_h&#45;&gt;hcachever_sh -->
<g id="edge11" class="edge">
<title>mutt_h&#45;&gt;hcachever_sh</title>
<path fill="none" stroke="#000000" stroke-width="2" d="M593.9707,-845.2309C625.1238,-870.0582 693.0133,-921.7143 757,-954 767.6816,-959.3896 779.4871,-964.2536 790.9686,-968.4684"/>
<polygon fill="#000000" stroke="#000000" stroke-width="2" points="789.9103,-971.8066 800.505,-971.8533 792.2518,-965.2098 789.9103,-971.8066"/>
</g>
<!-- mutt_h&#45;&gt;compulsory -->
<g id="edge12" class="edge">
<title>mutt_h&#45;&gt;compulsory</title>
<path fill="none" stroke="#000000" stroke-width="2" stroke-dasharray="5,2" d="M615.0892,-828.8157C729.1939,-822.3569 1067.1293,-803.2285 1229.4752,-794.0391"/>
<polygon fill="#000000" stroke="#000000" stroke-width="2" points="1230.1243,-797.5081 1239.9105,-793.4485 1229.7286,-790.5193 1230.1243,-797.5081"/>
</g>
<!-- mutt_pot -->
<g id="node36" class="node">
<title>mutt_pot</title>
<path fill="none" stroke="#0000ff" stroke-width="3" d="M1739.3333,-1062C1739.3333,-1062 1815.6667,-1062 1815.6667,-1062 1820.3333,-1062 1825,-1066.6667 1825,-1071.3333 1825,-1071.3333 1825,-1080.6667 1825,-1080.6667 1825,-1085.3333 1820.3333,-1090 1815.6667,-1090 1815.6667,-1090 1739.3333,-1090 1739.3333,-1090 1734.6667,-1090 1730,-1085.3333 1730,-1080.6667 1730,-1080.6667 1730,-1071.3333 1730,-1071.3333 1730,-1066.6667 1734.6667,-1062 1739.3333,-1062"/>
<text text-anchor="middle" x="1777.5" y="-1071.6" font-family="Times,serif" font-size="18.00" fill="#000000">mutt.pot</text>
</g>
<!-- mutt_pot&#45;&gt;lots_po -->
<g id="edge39" class="edge">
<title>mutt_pot&#45;&gt;lots_po</title>
<path fill="none" stroke="#000000" stroke-width="2" d="M1825.0656,-1076C1852.3055,-1076 1887.2349,-1076 1918.7449,-1076"/>
<polygon fill="#000000" stroke="#000000" stroke-width="2" points="1918.8412,-1079.5001 1928.8412,-1076 1918.8412,-1072.5001 1918.8412,-1079.5001"/>
<text text-anchor="middle" x="1882" y="-1079.8" font-family="Times,serif" font-size="14.00" fill="#000000">translator</text>
</g>
<!-- gen_alldefs -->
<g id="node40" class="node">
<title>gen_alldefs</title>
<polygon fill="none" stroke="#00ff00" stroke-width="3" points="1111,-1334 1015,-1334 1015,-1306 1111,-1306 1111,-1334"/>
<text text-anchor="middle" x="1063" y="-1315.6" font-family="Times,serif" font-size="18.00" fill="#000000">gen_defs</text>
</g>
<!-- ops&#45;&gt;gen_alldefs -->
<g id="edge20" class="edge">
<title>ops&#45;&gt;gen_alldefs</title>
<path fill="none" stroke="#000000" stroke-width="2" d="M620.1018,-1343.6698C707.8385,-1338.9809 905.7434,-1328.4043 1004.5625,-1323.1231"/>
<polygon fill="#000000" stroke="#000000" stroke-width="2" points="1004.8734,-1326.6115 1014.6723,-1322.5828 1004.4997,-1319.6215 1004.8734,-1326.6115"/>
</g>
<!-- gen_defs -->
<g id="node41" class="node">
<title>gen_defs</title>
<polygon fill="none" stroke="#00ff00" stroke-width="3" points="896.5,-1225 800.5,-1225 800.5,-1197 896.5,-1197 896.5,-1225"/>
<text text-anchor="middle" x="848.5" y="-1206.6" font-family="Times,serif" font-size="18.00" fill="#000000">gen_defs</text>
</g>
<!-- ops&#45;&gt;gen_defs -->
<g id="edge18" class="edge">
<title>ops&#45;&gt;gen_defs</title>
<path fill="none" stroke="#000000" stroke-width="2" d="M598.6531,-1331.8625C632.0748,-1310.9111 697.7881,-1271.1736 757,-1244 769.1081,-1238.4433 782.443,-1233.1775 795.0987,-1228.551"/>
<polygon fill="#000000" stroke="#000000" stroke-width="2" points="796.3785,-1231.8105 804.6127,-1225.1435 794.0181,-1225.2204 796.3785,-1231.8105"/>
</g>
<!-- ops&#45;&gt;gen_map_doc -->
<g id="edge60" class="edge">
<title>ops&#45;&gt;gen_map_doc</title>
<path fill="none" stroke="#000000" stroke-width="2" d="M620.2015,-1358.532C666.0978,-1371.6935 738.5478,-1392.4696 789.4967,-1407.0799"/>
<polygon fill="#000000" stroke="#000000" stroke-width="2" points="788.8082,-1410.5235 799.3856,-1409.9157 790.7379,-1403.7947 788.8082,-1410.5235"/>
</g>
<!-- patchlist_c -->
<g id="node38" class="node">
<title>patchlist_c</title>
<path fill="none" stroke="#0000ff" stroke-width="3" d="M1016.8333,-241C1016.8333,-241 1109.1667,-241 1109.1667,-241 1113.8333,-241 1118.5,-245.6667 1118.5,-250.3333 1118.5,-250.3333 1118.5,-259.6667 1118.5,-259.6667 1118.5,-264.3333 1113.8333,-269 1109.1667,-269 1109.1667,-269 1016.8333,-269 1016.8333,-269 1012.1667,-269 1007.5,-264.3333 1007.5,-259.6667 1007.5,-259.6667 1007.5,-250.3333 1007.5,-250.3333 1007.5,-245.6667 1012.1667,-241 1016.8333,-241"/>
<text text-anchor="middle" x="1063" y="-250.6" font-family="Times,serif" font-size="18.00" fill="#000000">patchlist.c</text>
</g>
<!-- patchlist_c&#45;&gt;generated -->
<g id="edge17" class="edge">
<title>patchlist_c&#45;&gt;generated</title>
<path fill="none" stroke="#000000" stroke-width="2" stroke-dasharray="5,2" d="M1116.0533,-269.0233C1124.8243,-273.483 1132.9994,-279.3342 1139,-287 1140.1569,-288.478 1221.7951,-819.5609 1223,-821 1227.5397,-826.422 1233.0177,-830.9547 1239.0261,-834.7437"/>
<polygon fill="#000000" stroke="#000000" stroke-width="2" points="1237.7138,-838.0168 1248.1609,-839.7799 1241.0934,-831.8867 1237.7138,-838.0168"/>
</g>
<!-- dot_configure&#45;&gt;config_h -->
<g id="edge4" class="edge">
<title>dot_configure&#45;&gt;config_h</title>
<path fill="none" stroke="#000000" stroke-width="2" d="M430.6082,-1055C460.5019,-1055 494.2063,-1055 521.6827,-1055"/>
<polygon fill="#000000" stroke="#000000" stroke-width="2" points="521.8875,-1058.5001 531.8875,-1055 521.8875,-1051.5001 521.8875,-1058.5001"/>
</g>
<!-- gen_alldefs&#45;&gt;keymap_alldefs_h -->
<g id="edge21" class="edge">
<title>gen_alldefs&#45;&gt;keymap_alldefs_h</title>
<path fill="none" stroke="#000000" stroke-width="2" d="M1111.0576,-1316.9905C1142.1087,-1315.046 1183.6182,-1312.4466 1221.3452,-1310.0841"/>
<polygon fill="#000000" stroke="#000000" stroke-width="2" points="1221.5968,-1313.5753 1231.3585,-1309.457 1221.1593,-1306.5889 1221.5968,-1313.5753"/>
</g>
<!-- gen_defs&#45;&gt;keymap_defs_h -->
<g id="edge19" class="edge">
<title>gen_defs&#45;&gt;keymap_defs_h</title>
<path fill="none" stroke="#000000" stroke-width="2" d="M892.6845,-1196.9928C926.3148,-1186.3314 972.7764,-1171.6023 1008.678,-1160.221"/>
<polygon fill="#000000" stroke="#000000" stroke-width="2" points="1010.0298,-1163.4641 1018.5046,-1157.1058 1007.9144,-1156.7914 1010.0298,-1163.4641"/>
</g>
<!-- gen_map_doc&#45;&gt;manual_xml -->
<g id="edge61" class="edge">
<title>gen_map_doc&#45;&gt;manual_xml</title>
<path fill="none" stroke="#000000" stroke-width="2" d="M860.8091,-1409.6392C883.7955,-1383.3712 935.5879,-1326.7269 987,-1288 998.7901,-1279.1189 1012.6058,-1270.7731 1025.2007,-1263.8402"/>
<polygon fill="#000000" stroke="#000000" stroke-width="2" points="1026.9566,-1266.8701 1034.1096,-1259.0543 1023.6439,-1260.7036 1026.9566,-1266.8701"/>
</g>
<!-- git -->
<g id="node43" class="node">
<title>git</title>
<polygon fill="none" stroke="#0000ff" stroke-width="3" points="880,-734 817,-734 817,-706 880,-706 880,-734"/>
<text text-anchor="start" x="825" y="-716.6" font-family="Times,serif" font-size="18.00" fill="#000000">git </text>
<text text-anchor="start" x="856" y="-716.6" font-family="Times,serif" font-size="18.00" fill="#ff0000">●</text>
</g>
<!-- git&#45;&gt;gitver_h -->
<g id="edge6" class="edge">
<title>git&#45;&gt;gitver_h</title>
<path fill="none" stroke="#000000" stroke-width="2" d="M880.1502,-719.8524C914.2062,-719.6937 968.9545,-719.4384 1009.6792,-719.2486"/>
<polygon fill="#000000" stroke="#000000" stroke-width="2" points="1009.7262,-722.7485 1019.7097,-719.2018 1009.6935,-715.7486 1009.7262,-722.7485"/>
</g>
<!-- mutt -->
<g id="node53" class="node">
<title>mutt</title>
<path fill="none" stroke="#0000ff" stroke-width="3" d="M1979.8333,-208C1979.8333,-208 2021.1667,-208 2021.1667,-208 2025.8333,-208 2030.5,-212.6667 2030.5,-217.3333 2030.5,-217.3333 2030.5,-226.6667 2030.5,-226.6667 2030.5,-231.3333 2025.8333,-236 2021.1667,-236 2021.1667,-236 1979.8333,-236 1979.8333,-236 1975.1667,-236 1970.5,-231.3333 1970.5,-226.6667 1970.5,-226.6667 1970.5,-217.3333 1970.5,-217.3333 1970.5,-212.6667 1975.1667,-208 1979.8333,-208"/>
<text text-anchor="middle" x="2000.5" y="-217.6" font-family="Times,serif" font-size="18.00" fill="#000000">mutt</text>
</g>
<!-- ld&#45;&gt;mutt -->
<g id="edge3" class="edge">
<title>ld&#45;&gt;mutt</title>
<path fill="none" stroke="#000000" stroke-width="2" d="M1804.8442,-222C1843.7136,-222 1915.2042,-222 1960.1677,-222"/>
<polygon fill="#000000" stroke="#000000" stroke-width="2" points="1960.4397,-225.5001 1970.4397,-222 1960.4397,-218.5001 1960.4397,-225.5001"/>
</g>
<!-- makedoc_c&#45;&gt;muttrc -->
<g id="edge47" class="edge">
<title>makedoc_c&#45;&gt;muttrc</title>
<path fill="none" stroke="#000000" stroke-width="2" d="M894.7792,-269.024C930.015,-279.7015 978.3986,-294.3632 1014.2338,-305.2224"/>
<polygon fill="#000000" stroke="#000000" stroke-width="2" points="1013.4018,-308.6273 1023.9871,-308.1779 1015.4319,-301.9282 1013.4018,-308.6273"/>
</g>
<!-- makedoc_m&#45;&gt;muttrc_man -->
<g id="edge43" class="edge">
<title>makedoc_m&#45;&gt;muttrc_man</title>
<path fill="none" stroke="#000000" stroke-width="2" d="M912.2763,-525C937.1333,-525 965.7406,-525 991.3078,-525"/>
<polygon fill="#000000" stroke="#000000" stroke-width="2" points="991.3129,-528.5001 1001.3129,-525 991.3129,-521.5001 991.3129,-528.5001"/>
</g>
<!-- makedoc_s&#45;&gt;manual_xml -->
<g id="edge63" class="edge">
<title>makedoc_s&#45;&gt;manual_xml</title>
<path fill="none" stroke="#000000" stroke-width="2" d="M908.0127,-933.0178C920.0056,-937.72 931.5164,-944.4286 940,-954 989.4986,-1009.8451 961.046,-1044.8894 976,-1118 981.2577,-1143.7051 974.1794,-1153.1084 987,-1176 997.975,-1195.5962 1016.5638,-1212.621 1032.6098,-1224.8568"/>
<polygon fill="#000000" stroke="#000000" stroke-width="2" points="1030.5829,-1227.7107 1040.7152,-1230.8071 1034.7253,-1222.068 1030.5829,-1227.7107"/>
</g>
<!-- patchlist_sh -->
<g id="node48" class="node">
<title>patchlist_sh</title>
<polygon fill="none" stroke="#00ff00" stroke-width="3" points="909.5,-139 787.5,-139 787.5,-111 909.5,-111 909.5,-139"/>
<text text-anchor="middle" x="848.5" y="-120.6" font-family="Times,serif" font-size="18.00" fill="#000000">patchlist.sh</text>
</g>
<!-- patchlist_sh&#45;&gt;patchlist_c -->
<g id="edge16" class="edge">
<title>patchlist_sh&#45;&gt;patchlist_c</title>
<path fill="none" stroke="#000000" stroke-width="2" d="M905.8654,-139.0566C917.8371,-143.5863 929.8807,-149.4564 940,-157 968.582,-178.3068 959.2169,-199.6614 987,-222 994.0047,-227.6321 1002.1177,-232.4808 1010.3807,-236.593"/>
<polygon fill="#000000" stroke="#000000" stroke-width="2" points="1009.178,-239.8932 1019.7224,-240.9253 1012.1231,-233.5429 1009.178,-239.8932"/>
</g>
<!-- txt2c -->
<g id="node49" class="node">
<title>txt2c</title>
<polygon fill="none" stroke="#00ff00" stroke-width="3" points="899,-872 798,-872 798,-844 899,-844 899,-872"/>
<text text-anchor="start" x="806" y="-854.6" font-family="Times,serif" font-size="18.00" fill="#000000">txt2c </text>
<text text-anchor="start" x="859" y="-854.6" font-family="Times,serif" font-size="18.00" fill="#ff0000">●</text>
<text text-anchor="start" x="875" y="-854.6" font-family="Times,serif" font-size="18.00" fill="#00ff00">★</text>
</g>
<!-- txt2c&#45;&gt;conststrings_c -->
<g id="edge8" class="edge">
<title>txt2c&#45;&gt;conststrings_c</title>
<path fill="none" stroke="#000000" stroke-width="2" d="M899.0619,-860.1215C923.551,-861.149 953.5738,-862.4087 981.2045,-863.568"/>
<polygon fill="#000000" stroke="#000000" stroke-width="2" points="981.1233,-867.0676 991.2612,-863.99 981.4168,-860.0738 981.1233,-867.0676"/>
</g>
<!-- xgettext&#45;&gt;mutt_pot -->
<g id="edge31" class="edge">
<title>xgettext&#45;&gt;mutt_pot</title>
<path fill="none" stroke="#000000" stroke-width="2" d="M1632.3568,-1076C1658.6793,-1076 1691.86,-1076 1719.8503,-1076"/>
<polygon fill="#000000" stroke="#000000" stroke-width="2" points="1719.9054,-1079.5001 1729.9053,-1076 1719.9053,-1072.5001 1719.9054,-1079.5001"/>
</g>
<!-- xsltproc&#45;&gt;manual_html -->
<g id="edge37" class="edge">
<title>xsltproc&#45;&gt;manual_html</title>
<path fill="none" stroke="#000000" stroke-width="2" d="M1363.2735,-1390C1400.1235,-1390 1453.4649,-1390 1498.7079,-1390"/>
<polygon fill="#000000" stroke="#000000" stroke-width="2" points="1498.8236,-1393.5001 1508.8235,-1390 1498.8235,-1386.5001 1498.8236,-1393.5001"/>
</g>
<!-- compulsory&#45;&gt;lots_obj -->
<g id="edge1" class="edge">
<title>compulsory&#45;&gt;lots_obj</title>
<path fill="none" stroke="#000000" stroke-width="2" d="M1378.6411,-774.9547C1391.1209,-770.2577 1403.617,-764.0798 1414,-756 1499.1696,-689.7234 1555.6097,-568.8802 1576.7147,-517.803"/>
<polygon fill="#000000" stroke="#000000" stroke-width="2" points="1580.0616,-518.863 1580.5714,-508.2804 1573.5735,-516.2352 1580.0616,-518.863"/>
<text text-anchor="middle" x="1460" y="-749.8" font-family="Times,serif" font-size="14.00" fill="#000000">gcc</text>
</g>
<!-- compulsory&#45;&gt;xgettext -->
<g id="edge30" class="edge">
<title>compulsory&#45;&gt;xgettext</title>
<path fill="none" stroke="#000000" stroke-width="2" d="M1380.0578,-803.0163C1392.0422,-807.5111 1403.9801,-813.3773 1414,-821 1498.0935,-884.9749 1554.9458,-1002.3939 1576.4294,-1052.4215"/>
<polygon fill="#000000" stroke="#000000" stroke-width="2" points="1573.2563,-1053.9047 1580.3634,-1061.7621 1579.7075,-1051.1876 1573.2563,-1053.9047"/>
</g>
<!-- PATCHES -->
<g id="node55" class="node">
<title>PATCHES</title>
<path fill="none" stroke="#0000ff" stroke-width="3" d="M532.8333,-111C532.8333,-111 620.1667,-111 620.1667,-111 624.8333,-111 629.5,-115.6667 629.5,-120.3333 629.5,-120.3333 629.5,-129.6667 629.5,-129.6667 629.5,-134.3333 624.8333,-139 620.1667,-139 620.1667,-139 532.8333,-139 532.8333,-139 528.1667,-139 523.5,-134.3333 523.5,-129.6667 523.5,-129.6667 523.5,-120.3333 523.5,-120.3333 523.5,-115.6667 528.1667,-111 532.8333,-111"/>
<text text-anchor="middle" x="576.5" y="-120.6" font-family="Times,serif" font-size="18.00" fill="#000000">PATCHES</text>
</g>
<!-- PATCHES&#45;&gt;patchlist_sh -->
<g id="edge15" class="edge">
<title>PATCHES&#45;&gt;patchlist_sh</title>
<path fill="none" stroke="#000000" stroke-width="2" d="M629.59,-125C671.7038,-125 730.9695,-125 777.216,-125"/>
<polygon fill="#000000" stroke="#000000" stroke-width="2" points="777.4725,-128.5001 787.4725,-125 777.4724,-121.5001 777.4725,-128.5001"/>
</g>
<!-- lots_imap_c -->
<g id="node56" class="node">
<title>lots_imap_c</title>
<path fill="none" stroke="#0000ff" stroke-width="3" d="M535.8333,-38C535.8333,-38 617.1667,-38 617.1667,-38 621.8333,-38 626.5,-42.6667 626.5,-47.3333 626.5,-47.3333 626.5,-56.6667 626.5,-56.6667 626.5,-61.3333 621.8333,-66 617.1667,-66 617.1667,-66 535.8333,-66 535.8333,-66 531.1667,-66 526.5,-61.3333 526.5,-56.6667 526.5,-56.6667 526.5,-47.3333 526.5,-47.3333 526.5,-42.6667 531.1667,-38 535.8333,-38"/>
<text text-anchor="middle" x="576.5" y="-47.6" font-family="Times,serif" font-size="18.00" fill="#000000">{imap.c}</text>
</g>
<!-- lots_imap_o -->
<g id="node57" class="node">
<title>lots_imap_o</title>
<path fill="none" stroke="#0000ff" stroke-width="3" d="M1021.8333,-38C1021.8333,-38 1104.1667,-38 1104.1667,-38 1108.8333,-38 1113.5,-42.6667 1113.5,-47.3333 1113.5,-47.3333 1113.5,-56.6667 1113.5,-56.6667 1113.5,-61.3333 1108.8333,-66 1104.1667,-66 1104.1667,-66 1021.8333,-66 1021.8333,-66 1017.1667,-66 1012.5,-61.3333 1012.5,-56.6667 1012.5,-56.6667 1012.5,-47.3333 1012.5,-47.3333 1012.5,-42.6667 1017.1667,-38 1021.8333,-38"/>
<text text-anchor="middle" x="1063" y="-47.6" font-family="Times,serif" font-size="18.00" fill="#000000">{imap.o}</text>
</g>
<!-- lots_imap_c&#45;&gt;lots_imap_o -->
<g id="edge25" class="edge">
<title>lots_imap_c&#45;&gt;lots_imap_o</title>
<path fill="none" stroke="#000000" stroke-width="2" d="M626.7317,-52C716.6792,-52 904.8982,-52 1002.0633,-52"/>
<polygon fill="#000000" stroke="#000000" stroke-width="2" points="1002.3128,-55.5001 1012.3127,-52 1002.3127,-48.5001 1002.3128,-55.5001"/>
<text text-anchor="middle" x="848.5" y="-55.8" font-family="Times,serif" font-size="14.00" fill="#000000">gcc</text>
</g>
<!-- imap_a -->
<g id="node58" class="node">
<title>imap_a</title>
<path fill="none" stroke="#0000ff" stroke-width="3" d="M1554.8333,-38C1554.8333,-38 1617.1667,-38 1617.1667,-38 1621.8333,-38 1626.5,-42.6667 1626.5,-47.3333 1626.5,-47.3333 1626.5,-56.6667 1626.5,-56.6667 1626.5,-61.3333 1621.8333,-66 1617.1667,-66 1617.1667,-66 1554.8333,-66 1554.8333,-66 1550.1667,-66 1545.5,-61.3333 1545.5,-56.6667 1545.5,-56.6667 1545.5,-47.3333 1545.5,-47.3333 1545.5,-42.6667 1550.1667,-38 1554.8333,-38"/>
<text text-anchor="middle" x="1586" y="-47.6" font-family="Times,serif" font-size="18.00" fill="#000000">imap_a</text>
</g>
<!-- lots_imap_o&#45;&gt;imap_a -->
<g id="edge26" class="edge">
<title>lots_imap_o&#45;&gt;imap_a</title>
<path fill="none" stroke="#000000" stroke-width="2" d="M1113.6226,-52C1213.5257,-52 1435.0175,-52 1535.125,-52"/>
<polygon fill="#000000" stroke="#000000" stroke-width="2" points="1535.2864,-55.5001 1545.2864,-52 1535.2863,-48.5001 1535.2864,-55.5001"/>
<text text-anchor="middle" x="1318.5" y="-55.8" font-family="Times,serif" font-size="14.00" fill="#000000">ar</text>
</g>
<!-- imap_a&#45;&gt;ld -->
<g id="edge27" class="edge">
<title>imap_a&#45;&gt;ld</title>
<path fill="none" stroke="#000000" stroke-width="2" d="M1602.2916,-66.0392C1617.9236,-79.5422 1642.1636,-100.5652 1663,-119 1694.8858,-147.2106 1731.4022,-180.1747 1754.4537,-201.0657"/>
<polygon fill="#000000" stroke="#000000" stroke-width="2" points="1752.2573,-203.7988 1762.0161,-207.924 1756.9598,-198.6136 1752.2573,-203.7988"/>
</g>
<!-- conditional -->
<g id="node59" class="node">
<title>conditional</title>
<path fill="none" stroke="#0000ff" stroke-width="3" d="M1250.3333,-710C1250.3333,-710 1386.6667,-710 1386.6667,-710 1391.3333,-710 1396,-714.6667 1396,-719.3333 1396,-719.3333 1396,-728.6667 1396,-728.6667 1396,-733.3333 1391.3333,-738 1386.6667,-738 1386.6667,-738 1250.3333,-738 1250.3333,-738 1245.6667,-738 1241,-733.3333 1241,-728.6667 1241,-728.6667 1241,-719.3333 1241,-719.3333 1241,-714.6667 1245.6667,-710 1250.3333,-710"/>
<text text-anchor="middle" x="1318.5" y="-719.6" font-family="Times,serif" font-size="18.00" fill="#000000">{conditional.c}</text>
</g>
<!-- enviromental -->
<g id="node60" class="node">
<title>enviromental</title>
<path fill="none" stroke="#0000ff" stroke-width="3" d="M1240.3333,-645C1240.3333,-645 1396.6667,-645 1396.6667,-645 1401.3333,-645 1406,-649.6667 1406,-654.3333 1406,-654.3333 1406,-663.6667 1406,-663.6667 1406,-668.3333 1401.3333,-673 1396.6667,-673 1396.6667,-673 1240.3333,-673 1240.3333,-673 1235.6667,-673 1231,-668.3333 1231,-663.6667 1231,-663.6667 1231,-654.3333 1231,-654.3333 1231,-649.6667 1235.6667,-645 1240.3333,-645"/>
<text text-anchor="middle" x="1318.5" y="-654.6" font-family="Times,serif" font-size="18.00" fill="#000000">{enviromental.c}</text>
</g>
<!-- foreign -->
<g id="node61" class="node">
<title>foreign</title>
<path fill="none" stroke="#0000ff" stroke-width="3" d="M1268.3333,-580C1268.3333,-580 1368.6667,-580 1368.6667,-580 1373.3333,-580 1378,-584.6667 1378,-589.3333 1378,-589.3333 1378,-598.6667 1378,-598.6667 1378,-603.3333 1373.3333,-608 1368.6667,-608 1368.6667,-608 1268.3333,-608 1268.3333,-608 1263.6667,-608 1259,-603.3333 1259,-598.6667 1259,-598.6667 1259,-589.3333 1259,-589.3333 1259,-584.6667 1263.6667,-580 1268.3333,-580"/>
<text text-anchor="middle" x="1318.5" y="-589.6" font-family="Times,serif" font-size="18.00" fill="#000000">{foreign.c}</text>
</g>
<!-- shared -->
<g id="node62" class="node">
<title>shared</title>
<path fill="none" stroke="#0000ff" stroke-width="3" d="M1269.8333,-515C1269.8333,-515 1367.1667,-515 1367.1667,-515 1371.8333,-515 1376.5,-519.6667 1376.5,-524.3333 1376.5,-524.3333 1376.5,-533.6667 1376.5,-533.6667 1376.5,-538.3333 1371.8333,-543 1367.1667,-543 1367.1667,-543 1269.8333,-543 1269.8333,-543 1265.1667,-543 1260.5,-538.3333 1260.5,-533.6667 1260.5,-533.6667 1260.5,-524.3333 1260.5,-524.3333 1260.5,-519.6667 1265.1667,-515 1269.8333,-515"/>
<text text-anchor="middle" x="1318.5" y="-524.6" font-family="Times,serif" font-size="18.00" fill="#000000">{shared.c}</text>
</g>
<!-- POTFILES -->
<g id="node63" class="node">
<title>POTFILES</title>
<path fill="none" stroke="#0000ff" stroke-width="3" d="M1271.3333,-1062C1271.3333,-1062 1365.6667,-1062 1365.6667,-1062 1370.3333,-1062 1375,-1066.6667 1375,-1071.3333 1375,-1071.3333 1375,-1080.6667 1375,-1080.6667 1375,-1085.3333 1370.3333,-1090 1365.6667,-1090 1365.6667,-1090 1271.3333,-1090 1271.3333,-1090 1266.6667,-1090 1262,-1085.3333 1262,-1080.6667 1262,-1080.6667 1262,-1071.3333 1262,-1071.3333 1262,-1066.6667 1266.6667,-1062 1271.3333,-1062"/>
<text text-anchor="middle" x="1318.5" y="-1071.6" font-family="Times,serif" font-size="18.00" fill="#000000">POTFILES</text>
</g>
<!-- POTFILES&#45;&gt;xgettext -->
<g id="edge28" class="edge">
<title>POTFILES&#45;&gt;xgettext</title>
<path fill="none" stroke="#000000" stroke-width="2" d="M1375.2299,-1076C1420.6174,-1076 1483.9553,-1076 1529.3277,-1076"/>
<polygon fill="#000000" stroke="#000000" stroke-width="2" points="1529.5865,-1079.5001 1539.5865,-1076 1529.5864,-1072.5001 1529.5865,-1079.5001"/>
</g>
<!-- muttrc_head -->
<g id="node64" class="node">
<title>muttrc_head</title>
<path fill="none" stroke="#0000ff" stroke-width="3" d="M792.3333,-306C792.3333,-306 904.6667,-306 904.6667,-306 909.3333,-306 914,-310.6667 914,-315.3333 914,-315.3333 914,-324.6667 914,-324.6667 914,-329.3333 909.3333,-334 904.6667,-334 904.6667,-334 792.3333,-334 792.3333,-334 787.6667,-334 783,-329.3333 783,-324.6667 783,-324.6667 783,-315.3333 783,-315.3333 783,-310.6667 787.6667,-306 792.3333,-306"/>
<text text-anchor="middle" x="848.5" y="-315.6" font-family="Times,serif" font-size="18.00" fill="#000000">muttrc_head</text>
</g>
<!-- muttrc_head&#45;&gt;muttrc -->
<g id="edge45" class="edge">
<title>muttrc_head&#45;&gt;muttrc</title>
<path fill="none" stroke="#000000" stroke-width="2" d="M914.0226,-320C946.0937,-320 984.0625,-320 1013.6421,-320"/>
<polygon fill="#000000" stroke="#000000" stroke-width="2" points="1013.7315,-323.5001 1023.7315,-320 1013.7315,-316.5001 1013.7315,-323.5001"/>
<text text-anchor="middle" x="963.5" y="-323.8" font-family="Times,serif" font-size="14.00" fill="#000000">sed</text>
</g>
<!-- dotlock_c -->
<g id="node65" class="node">
<title>dotlock_c</title>
<path fill="none" stroke="#0000ff" stroke-width="3" d="M38.8333,-1548C38.8333,-1548 122.1667,-1548 122.1667,-1548 126.8333,-1548 131.5,-1552.6667 131.5,-1557.3333 131.5,-1557.3333 131.5,-1566.6667 131.5,-1566.6667 131.5,-1571.3333 126.8333,-1576 122.1667,-1576 122.1667,-1576 38.8333,-1576 38.8333,-1576 34.1667,-1576 29.5,-1571.3333 29.5,-1566.6667 29.5,-1566.6667 29.5,-1557.3333 29.5,-1557.3333 29.5,-1552.6667 34.1667,-1548 38.8333,-1548"/>
<text text-anchor="middle" x="80.5" y="-1557.6" font-family="Times,serif" font-size="18.00" fill="#000000">dotlock_c</text>
</g>
<!-- mutt_dotlock_c -->
<g id="node66" class="node">
<title>mutt_dotlock_c</title>
<path fill="none" stroke="#0000ff" stroke-width="3" d="M286.8333,-1548C286.8333,-1548 423.1667,-1548 423.1667,-1548 427.8333,-1548 432.5,-1552.6667 432.5,-1557.3333 432.5,-1557.3333 432.5,-1566.6667 432.5,-1566.6667 432.5,-1571.3333 427.8333,-1576 423.1667,-1576 423.1667,-1576 286.8333,-1576 286.8333,-1576 282.1667,-1576 277.5,-1571.3333 277.5,-1566.6667 277.5,-1566.6667 277.5,-1557.3333 277.5,-1557.3333 277.5,-1552.6667 282.1667,-1548 286.8333,-1548"/>
<text text-anchor="middle" x="355" y="-1557.6" font-family="Times,serif" font-size="18.00" fill="#000000">mutt_dotlock_c</text>
</g>
<!-- dotlock_c&#45;&gt;mutt_dotlock_c -->
<g id="edge52" class="edge">
<title>dotlock_c&#45;&gt;mutt_dotlock_c</title>
<path fill="none" stroke="#000000" stroke-width="2" d="M131.8093,-1562C169.8154,-1562 222.5331,-1562 267.1904,-1562"/>
<polygon fill="#000000" stroke="#000000" stroke-width="2" points="267.4686,-1565.5001 277.4686,-1562 267.4686,-1558.5001 267.4686,-1565.5001"/>
<text text-anchor="middle" x="211" y="-1565.8" font-family="Times,serif" font-size="14.00" fill="#000000">cp</text>
</g>
<!-- mutt_dotlock -->
<g id="node67" class="node">
<title>mutt_dotlock</title>
<path fill="none" stroke="#0000ff" stroke-width="3" d="M517.8333,-1548C517.8333,-1548 635.1667,-1548 635.1667,-1548 639.8333,-1548 644.5,-1552.6667 644.5,-1557.3333 644.5,-1557.3333 644.5,-1566.6667 644.5,-1566.6667 644.5,-1571.3333 639.8333,-1576 635.1667,-1576 635.1667,-1576 517.8333,-1576 517.8333,-1576 513.1667,-1576 508.5,-1571.3333 508.5,-1566.6667 508.5,-1566.6667 508.5,-1557.3333 508.5,-1557.3333 508.5,-1552.6667 513.1667,-1548 517.8333,-1548"/>
<text text-anchor="middle" x="576.5" y="-1557.6" font-family="Times,serif" font-size="18.00" fill="#000000">mutt_dotlock</text>
</g>
<!-- mutt_dotlock_c&#45;&gt;mutt_dotlock -->
<g id="edge53" class="edge">
<title>mutt_dotlock_c&#45;&gt;mutt_dotlock</title>
<path fill="none" stroke="#000000" stroke-width="2" d="M432.7812,-1562C453.9919,-1562 476.9778,-1562 498.2163,-1562"/>
<polygon fill="#000000" stroke="#000000" stroke-width="2" points="498.4867,-1565.5001 508.4867,-1562 498.4866,-1558.5001 498.4867,-1565.5001"/>
<text text-anchor="middle" x="473" y="-1565.8" font-family="Times,serif" font-size="14.00" fill="#000000">gcc</text>
</g>
<!-- pgpewrap_c -->
<g id="node68" class="node">
<title>pgpewrap_c</title>
<path fill="none" stroke="#0000ff" stroke-width="3" d="M27.3333,-1613C27.3333,-1613 133.6667,-1613 133.6667,-1613 138.3333,-1613 143,-1617.6667 143,-1622.3333 143,-1622.3333 143,-1631.6667 143,-1631.6667 143,-1636.3333 138.3333,-1641 133.6667,-1641 133.6667,-1641 27.3333,-1641 27.3333,-1641 22.6667,-1641 18,-1636.3333 18,-1631.6667 18,-1631.6667 18,-1622.3333 18,-1622.3333 18,-1617.6667 22.6667,-1613 27.3333,-1613"/>
<text text-anchor="middle" x="80.5" y="-1622.6" font-family="Times,serif" font-size="18.00" fill="#000000">pgpewrap_c</text>
</g>
<!-- pgpewrap -->
<g id="node69" class="node">
<title>pgpewrap</title>
<path fill="none" stroke="#0000ff" stroke-width="3" d="M310.8333,-1613C310.8333,-1613 399.1667,-1613 399.1667,-1613 403.8333,-1613 408.5,-1617.6667 408.5,-1622.3333 408.5,-1622.3333 408.5,-1631.6667 408.5,-1631.6667 408.5,-1636.3333 403.8333,-1641 399.1667,-1641 399.1667,-1641 310.8333,-1641 310.8333,-1641 306.1667,-1641 301.5,-1636.3333 301.5,-1631.6667 301.5,-1631.6667 301.5,-1622.3333 301.5,-1622.3333 301.5,-1617.6667 306.1667,-1613 310.8333,-1613"/>
<text text-anchor="middle" x="355" y="-1622.6" font-family="Times,serif" font-size="18.00" fill="#000000">pgpewrap</text>
</g>
<!-- pgpewrap_c&#45;&gt;pgpewrap -->
<g id="edge54" class="edge">
<title>pgpewrap_c&#45;&gt;pgpewrap</title>
<path fill="none" stroke="#000000" stroke-width="2" d="M143.1318,-1627C187.4652,-1627 246.722,-1627 291.2939,-1627"/>
<polygon fill="#000000" stroke="#000000" stroke-width="2" points="291.4284,-1630.5001 301.4284,-1627 291.4283,-1623.5001 291.4284,-1630.5001"/>
<text text-anchor="middle" x="211" y="-1630.8" font-family="Times,serif" font-size="14.00" fill="#000000">gcc</text>
</g>
<!-- smime_keys_pl -->
<g id="node70" class="node">
<title>smime_keys_pl</title>
<path fill="none" stroke="#0000ff" stroke-width="3" d="M13.3333,-1678C13.3333,-1678 147.6667,-1678 147.6667,-1678 152.3333,-1678 157,-1682.6667 157,-1687.3333 157,-1687.3333 157,-1696.6667 157,-1696.6667 157,-1701.3333 152.3333,-1706 147.6667,-1706 147.6667,-1706 13.3333,-1706 13.3333,-1706 8.6667,-1706 4,-1701.3333 4,-1696.6667 4,-1696.6667 4,-1687.3333 4,-1687.3333 4,-1682.6667 8.6667,-1678 13.3333,-1678"/>
<text text-anchor="middle" x="80.5" y="-1687.6" font-family="Times,serif" font-size="18.00" fill="#000000">smime_keys_pl</text>
</g>
<!-- smime_keys -->
<g id="node71" class="node">
<title>smime_keys</title>
<path fill="none" stroke="#0000ff" stroke-width="3" d="M300.8333,-1678C300.8333,-1678 409.1667,-1678 409.1667,-1678 413.8333,-1678 418.5,-1682.6667 418.5,-1687.3333 418.5,-1687.3333 418.5,-1696.6667 418.5,-1696.6667 418.5,-1701.3333 413.8333,-1706 409.1667,-1706 409.1667,-1706 300.8333,-1706 300.8333,-1706 296.1667,-1706 291.5,-1701.3333 291.5,-1696.6667 291.5,-1696.6667 291.5,-1687.3333 291.5,-1687.3333 291.5,-1682.6667 296.1667,-1678 300.8333,-1678"/>
<text text-anchor="middle" x="355" y="-1687.6" font-family="Times,serif" font-size="18.00" fill="#000000">smime_keys</text>
</g>
<!-- smime_keys_pl&#45;&gt;smime_keys -->
<g id="edge55" class="edge">
<title>smime_keys_pl&#45;&gt;smime_keys</title>
<path fill="none" stroke="#000000" stroke-width="2" d="M157.3286,-1692C196.0572,-1692 242.8051,-1692 281.1145,-1692"/>
<polygon fill="#000000" stroke="#000000" stroke-width="2" points="281.1709,-1695.5001 291.1708,-1692 281.1708,-1688.5001 281.1709,-1695.5001"/>
<text text-anchor="middle" x="211" y="-1695.8" font-family="Times,serif" font-size="14.00" fill="#000000">cp</text>
</g>
<!-- shared_src -->
<g id="node73" class="node">
<title>shared_src</title>
<path fill="none" stroke="#0000ff" stroke-width="3" d="M1015.8333,-176C1015.8333,-176 1110.1667,-176 1110.1667,-176 1114.8333,-176 1119.5,-180.6667 1119.5,-185.3333 1119.5,-185.3333 1119.5,-194.6667 1119.5,-194.6667 1119.5,-199.3333 1114.8333,-204 1110.1667,-204 1110.1667,-204 1015.8333,-204 1015.8333,-204 1011.1667,-204 1006.5,-199.3333 1006.5,-194.6667 1006.5,-194.6667 1006.5,-185.3333 1006.5,-185.3333 1006.5,-180.6667 1011.1667,-176 1015.8333,-176"/>
<text text-anchor="middle" x="1063" y="-185.6" font-family="Times,serif" font-size="18.00" fill="#000000">shared_src</text>
</g>
<!-- shared_src&#45;&gt;shared -->
<g id="edge68" class="edge">
<title>shared_src&#45;&gt;shared</title>
<path fill="none" stroke="#000000" stroke-width="2" stroke-dasharray="5,2" d="M1104.755,-204.1294C1116.3279,-208.9474 1128.5683,-214.9361 1139,-222 1178.8148,-248.9608 1187.8155,-259.3376 1215,-299 1262.2255,-367.9024 1296.5419,-461.8364 1310.9636,-505.2322"/>
<polygon fill="#000000" stroke="#000000" stroke-width="2" points="1307.6877,-506.4756 1314.1213,-514.8934 1314.3414,-504.3009 1307.6877,-506.4756"/>
</g>
<!-- gcc -->
<g id="node74" class="node">
<title>gcc</title>
<path fill="none" stroke="#0000ff" stroke-width="3" d="M1300.8333,-138C1300.8333,-138 1336.1667,-138 1336.1667,-138 1340.8333,-138 1345.5,-142.6667 1345.5,-147.3333 1345.5,-147.3333 1345.5,-156.6667 1345.5,-156.6667 1345.5,-161.3333 1340.8333,-166 1336.1667,-166 1336.1667,-166 1300.8333,-166 1300.8333,-166 1296.1667,-166 1291.5,-161.3333 1291.5,-156.6667 1291.5,-156.6667 1291.5,-147.3333 1291.5,-147.3333 1291.5,-142.6667 1296.1667,-138 1300.8333,-138"/>
<text text-anchor="middle" x="1318.5" y="-147.6" font-family="Times,serif" font-size="18.00" fill="#000000">gcc</text>
</g>
<!-- shared_src&#45;&gt;gcc -->
<g id="edge67" class="edge">
<title>shared_src&#45;&gt;gcc</title>
<path fill="none" stroke="#000000" stroke-width="2" d="M1119.7037,-181.5666C1169.0056,-174.234 1239.0073,-163.8228 1281.4425,-157.5115"/>
<polygon fill="#000000" stroke="#000000" stroke-width="2" points="1281.9736,-160.9711 1291.3499,-156.038 1280.9437,-154.0472 1281.9736,-160.9711"/>
</g>
<!-- pgpring -->
<g id="node76" class="node">
<title>pgpring</title>
<path fill="none" stroke="#0000ff" stroke-width="3" d="M1551.8333,-138C1551.8333,-138 1620.1667,-138 1620.1667,-138 1624.8333,-138 1629.5,-142.6667 1629.5,-147.3333 1629.5,-147.3333 1629.5,-156.6667 1629.5,-156.6667 1629.5,-161.3333 1624.8333,-166 1620.1667,-166 1620.1667,-166 1551.8333,-166 1551.8333,-166 1547.1667,-166 1542.5,-161.3333 1542.5,-156.6667 1542.5,-156.6667 1542.5,-147.3333 1542.5,-147.3333 1542.5,-142.6667 1547.1667,-138 1551.8333,-138"/>
<text text-anchor="middle" x="1586" y="-147.6" font-family="Times,serif" font-size="18.00" fill="#000000">pgpring</text>
</g>
<!-- gcc&#45;&gt;pgpring -->
<g id="edge70" class="edge">
<title>gcc&#45;&gt;pgpring</title>
<path fill="none" stroke="#000000" stroke-width="2" d="M1345.6214,-152C1389.1361,-152 1475.3806,-152 1531.8566,-152"/>
<polygon fill="#000000" stroke="#000000" stroke-width="2" points="1532.0385,-155.5001 1542.0385,-152 1532.0385,-148.5001 1532.0385,-155.5001"/>
</g>
<!-- ring_src -->
<g id="node75" class="node">
<title>ring_src</title>
<path fill="none" stroke="#0000ff" stroke-width="3" d="M1027.8333,-111C1027.8333,-111 1098.1667,-111 1098.1667,-111 1102.8333,-111 1107.5,-115.6667 1107.5,-120.3333 1107.5,-120.3333 1107.5,-129.6667 1107.5,-129.6667 1107.5,-134.3333 1102.8333,-139 1098.1667,-139 1098.1667,-139 1027.8333,-139 1027.8333,-139 1023.1667,-139 1018.5,-134.3333 1018.5,-129.6667 1018.5,-129.6667 1018.5,-120.3333 1018.5,-120.3333 1018.5,-115.6667 1023.1667,-111 1027.8333,-111"/>
<text text-anchor="middle" x="1063" y="-120.6" font-family="Times,serif" font-size="18.00" fill="#000000">ring_src</text>
</g>
<!-- ring_src&#45;&gt;gcc -->
<g id="edge69" class="edge">
<title>ring_src&#45;&gt;gcc</title>
<path fill="none" stroke="#000000" stroke-width="2" d="M1107.5047,-129.703C1156.7147,-134.9033 1235.1139,-143.1882 1281.2191,-148.0603"/>
<polygon fill="#000000" stroke="#000000" stroke-width="2" points="1281.0638,-151.5633 1291.3763,-149.1337 1281.7995,-144.6021 1281.0638,-151.5633"/>
</g>
</g>
</svg>
