<?xml version="1.0" encoding="UTF-8" standalone="no"?>
<svg
   width="800"
   height="500"
   version="1.1"
   viewBox="0 0 211.67 132.29"
   id="svg34"
   sodipodi:docname="dlg-main-sot.svg"
   inkscape:version="1.3 (0e150ed6c4, 2023-07-21)"
   xmlns:inkscape="http://www.inkscape.org/namespaces/inkscape"
   xmlns:sodipodi="http://sodipodi.sourceforge.net/DTD/sodipodi-0.dtd"
   xmlns="http://www.w3.org/2000/svg"
   xmlns:svg="http://www.w3.org/2000/svg">
  <defs
     id="defs34" />
  <sodipodi:namedview
     id="namedview34"
     pagecolor="#ffffff"
     bordercolor="#000000"
     borderopacity="0.25"
     inkscape:showpageshadow="2"
     inkscape:pageopacity="0.0"
     inkscape:pagecheckerboard="0"
     inkscape:deskcolor="#d1d1d1"
     showgrid="true"
     inkscape:zoom="2.6684442"
     inkscape:cx="425.52885"
     inkscape:cy="259.70189"
     inkscape:window-width="3600"
     inkscape:window-height="2363"
     inkscape:window-x="0"
     inkscape:window-y="0"
     inkscape:window-maximized="1"
     inkscape:current-layer="svg34">
    <inkscape:grid
       id="grid34"
       units="px"
       originx="0"
       originy="0"
       spacingx="0.2645875"
       spacingy="0.26458"
       empcolor="#0099e5"
       empopacity="0.30196078"
       color="#0099e5"
       opacity="0.14901961"
       empspacing="5"
       dotted="false"
       gridanglex="30"
       gridanglez="30"
       visible="true" />
  </sodipodi:namedview>
  <rect
     x="2.6459999"
     y="2.6459999"
     width="206.38"
     height="127"
     fill="none"
     stroke="#ff0000"
     stroke-dasharray="0.79375, 0.79375"
     id="rect1"
     style="stroke-width:0.26458" />
  <path
     d="M 5.2949967,6.2893395 H 206.375 V 105.83313 H 5.2949967 Z"
     fill="none"
     stroke="#008000"
     stroke-dasharray="0.79375, 0.79375"
     id="path1"
     style="stroke-width:0.26458" />
  <path
     d="m 7.9437,7.6124 h 195.79 v 95.43085 H 7.9437 Z"
     fill="none"
     stroke="#ff0000"
     stroke-dasharray="0.860259, 0.860259"
     stroke-width="0.279369"
     id="path2" />
  <path
     d="M 13.235603,20.8402 H 198.4456 V 97.751409 H 13.235603 Z"
     fill="#d3ffff"
     stroke="#000000"
     stroke-width="0.28819"
     id="path3" />
  <path
     d="m 14.892603,22.4402 h 0.34796 v 2.5718 h -0.34796 z"
     id="path4"
     style="stroke-width:0.265" />
  <path
     d="m 17.522603,23.8482 v 1.1644 h -0.31695 v -1.1541 q 0,-0.27389 -0.1068,-0.40997 -0.1068,-0.13608 -0.3204,-0.13608 -0.25666,0 -0.4048,0.16364 -0.14814,0.16364 -0.14814,0.44614 v 1.0904 h -0.31867 v -1.9293 h 0.31867 v 0.29972 q 0.11369,-0.17398 0.267,-0.26011 0.15503,-0.08613 0.35657,-0.08613 0.33245,0 0.50299,0.20671 0.17053,0.20498 0.17053,0.60462 z"
     id="path5"
     style="stroke-width:0.265" />
  <path
     d="m 19.424603,23.3762 v -1.0439 h 0.31695 v 2.6803 h -0.31695 v -0.28939 q -0.09991,0.17226 -0.25322,0.25666 -0.15158,0.08268 -0.36518,0.08268 -0.34968,0 -0.57017,-0.27905 -0.21876,-0.27906 -0.21876,-0.73381 0,-0.45476 0.21876,-0.73381 0.22049,-0.27906 0.57017,-0.27906 0.2136,0 0.36518,0.08441 0.15331,0.08268 0.25322,0.25494 z m -1.08,0.67352 q 0,0.34968 0.14297,0.5495 0.1447,0.19809 0.39619,0.19809 0.25149,0 0.39619,-0.19809 0.1447,-0.19982 0.1447,-0.5495 0,-0.34968 -0.1447,-0.54777 -0.1447,-0.19982 -0.39619,-0.19982 -0.25149,0 -0.39619,0.19982 -0.14297,0.19809 -0.14297,0.54777 z"
     id="path6"
     style="stroke-width:0.265" />
  <path
     d="m 22.044603,23.9682 v 0.15503 h -1.4573 q 0.02067,0.32729 0.19637,0.49954 0.17742,0.17053 0.49265,0.17053 0.18259,0 0.35312,-0.04479 0.17226,-0.04479 0.34107,-0.13436 v 0.29972 q -0.17053,0.07235 -0.34968,0.11024 -0.17915,0.0379 -0.36346,0.0379 -0.46165,0 -0.73209,-0.26872 -0.26872,-0.26872 -0.26872,-0.72692 0,-0.4737 0.25494,-0.75104 0.25666,-0.27906 0.69075,-0.27906 0.3893,0 0.61495,0.25149 0.22738,0.24977 0.22738,0.68041 z m -0.31695,-0.09302 q -0.0034,-0.26011 -0.14642,-0.41514 -0.14125,-0.15503 -0.37552,-0.15503 -0.26527,0 -0.42547,0.14986 -0.15848,0.14986 -0.18259,0.42203 z"
     id="path7"
     style="stroke-width:0.265" />
  <path
     d="m 24.106603,23.0832 -0.69764,0.9388 0.73381,0.99047 h -0.3738 l -0.56155,-0.75793 -0.56156,0.75793 h -0.3738 l 0.74931,-1.0094 -0.68558,-0.91985 h 0.3738 l 0.5116,0.6873 0.5116,-0.6873 z"
     id="path8"
     style="stroke-width:0.265" />
  <circle
     cx="2.6643"
     cy="2.6666"
     r="1.9958"
     fill="#fff"
     stroke="#f00"
     stroke-width=".26458"
     id="circle9" />
  <text
     x="1.4455857"
     y="4.1193662"
     fill="#000000"
     font-size="3.5278px"
     stroke-width=".265"
     style="line-height:1.25"
     xml:space="preserve"
     id="text10"><tspan
       x="1.4455857"
       y="4.1193662"
       fill="#000000"
       stroke-width=".265"
       id="tspan10">R</tspan></text>
  <path
     d="m7.3644 4.8494a1.9896 1.9966 0 0 1-1.9896 1.9966 1.9896 1.9966 0 0 1-1.9896-1.9966 1.9896 1.9966 0 0 1 1.9896-1.9966 1.9896 1.9966 0 0 1 1.9896 1.9966"
     fill="#fff"
     stroke="#008000"
     stroke-width=".26458"
     id="path10" />
  <path
     d="m 5.2917081,3.96697 -0.47198,1.2799 h 0.94568 z m -0.19637,-0.34279 h 0.39447 l 0.98014,2.5718 h -0.36174 l -0.23427,-0.65974 h -1.1593 l -0.23427,0.65974 h -0.3669 z"
     stroke-width="0.265"
     id="path11" />
  <path
     d="m9.9649 7.6174a1.9958 1.9958 0 0 1-1.9958 1.9958 1.9958 1.9958 0 0 1-1.9958-1.9958 1.9958 1.9958 0 0 1 1.9958-1.9958 1.9958 1.9958 0 0 1 1.9958 1.9958"
     fill="#fff"
     stroke="#f00"
     stroke-width=".26458"
     id="path12" />
  <path
     d="m 7.408423,6.6128 v 1.9999 h 0.4203 q 0.53227,0 0.7786,-0.24116 0.24805,-0.24116 0.24805,-0.76137 0,-0.51677 -0.24805,-0.7562 -0.24633,-0.24116 -0.7786,-0.24116 z M 7.060463,6.32686 h 0.71486 q 0.74759,0 1.0973,0.31178 0.34968,0.31006 0.34968,0.97152 0,0.66491 -0.3514,0.97669 -0.3514,0.31178 -1.0955,0.31178 h -0.71486 z"
     stroke-width="0.265"
     id="path13" />
  <path
     d="M 13.235593,12.9 H 198.44559 v 5.2917 H 13.235593 Z"
     fill="#d3ffff"
     stroke="#000000"
     stroke-width="0.28819"
     id="path14" />
  <path
     d="m 14.783593,14.05 h 0.34796 v 2.5718 h -0.34796 z"
     id="path15"
     style="stroke-width:0.265" />
  <path
     d="m 17.414593,15.46 v 1.1644 h -0.31695 v -1.1541 q 0,-0.27389 -0.1068,-0.40997 -0.1068,-0.13608 -0.3204,-0.13608 -0.25666,0 -0.4048,0.16364 -0.14814,0.16364 -0.14814,0.44614 v 1.0904 h -0.31867 v -1.9293 h 0.31867 v 0.29972 q 0.11369,-0.17398 0.267,-0.2601 0.15503,-0.0861 0.35657,-0.0861 0.33245,0 0.50299,0.20671 0.17053,0.20498 0.17053,0.60461 z"
     id="path16"
     style="stroke-width:0.265" />
  <path
     d="m 19.315593,14.99 v -1.0439 h 0.31695 v 2.6803 h -0.31695 v -0.28939 q -0.09991,0.17226 -0.25322,0.25666 -0.15158,0.0827 -0.36518,0.0827 -0.34968,0 -0.57017,-0.27906 -0.21876,-0.27905 -0.21876,-0.73381 0,-0.45475 0.21876,-0.73381 0.22049,-0.27905 0.57017,-0.27905 0.2136,0 0.36518,0.0844 0.15331,0.0827 0.25322,0.25494 z m -1.08,0.67352 q 0,0.34968 0.14297,0.5495 0.1447,0.19809 0.39619,0.19809 0.25149,0 0.39619,-0.19809 0.1447,-0.19982 0.1447,-0.5495 0,-0.34968 -0.1447,-0.54777 -0.1447,-0.19982 -0.39619,-0.19982 -0.25149,0 -0.39619,0.19982 -0.14297,0.19809 -0.14297,0.54777 z"
     id="path17"
     style="stroke-width:0.265" />
  <path
     d="m 21.935593,15.58 v 0.15503 h -1.4573 q 0.02067,0.32729 0.19637,0.49954 0.17742,0.17054 0.49265,0.17054 0.18259,0 0.35312,-0.0448 0.17226,-0.0448 0.34107,-0.13436 v 0.29973 q -0.17053,0.0723 -0.34968,0.11024 -0.17915,0.0379 -0.36346,0.0379 -0.46164,0 -0.73209,-0.26872 -0.26872,-0.26872 -0.26872,-0.72692 0,-0.47371 0.25494,-0.75104 0.25666,-0.27905 0.69075,-0.27905 0.3893,0 0.61495,0.25149 0.22738,0.24977 0.22738,0.68041 z m -0.31695,-0.093 q -0.0034,-0.2601 -0.14642,-0.41513 -0.14125,-0.15503 -0.37552,-0.15503 -0.26528,0 -0.42547,0.14986 -0.15848,0.14986 -0.18259,0.42203 z"
     id="path18"
     style="stroke-width:0.265" />
  <path
     d="m 23.997593,14.69 -0.69764,0.93879 0.73381,0.99047 h -0.3738 l -0.56155,-0.75792 -0.56155,0.75792 h -0.3738 l 0.74931,-1.0094 -0.68558,-0.91984 h 0.3738 l 0.5116,0.6873 0.5116,-0.6873 z"
     id="path19"
     style="stroke-width:0.265" />
  <path
     d="m 25.964593,15.4 v 0.94224 h 0.55811 q 0.28078,0 0.41514,-0.11541 0.13608,-0.11714 0.13608,-0.35657 0,-0.24116 -0.13608,-0.35485 Q 26.803483,15.4 26.522703,15.4 Z m 0,-1.0576 v 0.77515 h 0.51504 q 0.25494,0 0.37896,-0.0947 0.12575,-0.0965 0.12575,-0.29284 0,-0.19465 -0.12575,-0.29111 -0.12402,-0.0965 -0.37896,-0.0965 z m -0.34796,-0.28595 h 0.88884 q 0.39791,0 0.61323,0.16537 0.21532,0.16536 0.21532,0.47026 0,0.23599 -0.11024,0.37551 -0.11024,0.13953 -0.32384,0.17398 0.25666,0.0551 0.39791,0.23083 0.14297,0.17397 0.14297,0.4358 0,0.34452 -0.23427,0.53227 -0.23427,0.18776 -0.66663,0.18776 h -0.92329 z"
     id="path20"
     style="stroke-width:0.265" />
  <path
     d="m 28.900593,15.65 q -0.38413,0 -0.53227,0.0878 -0.14814,0.0879 -0.14814,0.29973 0,0.16881 0.11024,0.26872 0.11197,0.0982 0.30317,0.0982 0.26355,0 0.42203,-0.18603 0.1602,-0.18776 0.1602,-0.49782 V 15.65 Z m 0.63218,-0.13091 v 1.1007 h -0.31695 v -0.29283 q -0.10852,0.1757 -0.27044,0.2601 -0.16192,0.0827 -0.39619,0.0827 -0.29628,0 -0.47198,-0.16537 -0.17398,-0.16709 -0.17398,-0.44614 0,-0.32556 0.21704,-0.49093 0.21876,-0.16537 0.65113,-0.16537 h 0.44442 v -0.031 q 0,-0.21877 -0.1447,-0.33762 -0.14297,-0.12058 -0.40308,-0.12058 -0.16536,0 -0.32212,0.0396 -0.15676,0.0396 -0.30145,0.11885 v -0.29283 q 0.17398,-0.0672 0.33762,-0.0999 0.16364,-0.0344 0.31867,-0.0344 0.41858,0 0.62529,0.21704 0.20671,0.21704 0.20671,0.65802 z"
     id="path21"
     style="stroke-width:0.265" />
  <path
     d="m 31.303593,14.99 q -0.0534,-0.031 -0.11713,-0.0448 -0.06201,-0.0155 -0.1378,-0.0155 -0.26872,0 -0.41341,0.1757 -0.14297,0.17398 -0.14297,0.50126 v 1.0163 h -0.31867 v -1.9293 h 0.31867 v 0.29972 q 0.09991,-0.1757 0.26011,-0.2601 0.1602,-0.0861 0.3893,-0.0861 0.03273,0 0.07235,0.005 0.03962,0.003 0.08785,0.0121 z"
     id="path22"
     style="stroke-width:0.265" />
  <path
     d="m 33.518593,13.95 q -0.23082,0.39619 -0.34279,0.78376 -0.11197,0.38758 -0.11197,0.78549 0,0.39791 0.11197,0.78893 0.11369,0.3893 0.34279,0.78376 h -0.27561 q -0.25838,-0.4048 -0.38758,-0.79582 -0.12747,-0.39102 -0.12747,-0.77687 0,-0.38413 0.12747,-0.77343 0.12747,-0.3893 0.38758,-0.79582 z"
     id="path23"
     style="stroke-width:0.265" />
  <path
     d="m 35.688593,14.14 v 0.33934 q -0.19809,-0.0947 -0.3738,-0.14125 -0.1757,-0.0465 -0.33934,-0.0465 -0.28422,0 -0.43925,0.11025 -0.15331,0.11024 -0.15331,0.3135 0,0.17054 0.10163,0.25839 0.10335,0.0861 0.3893,0.13952 l 0.21015,0.0431 q 0.3893,0.0741 0.57361,0.26183 0.18604,0.18603 0.18604,0.49954 0,0.37379 -0.25149,0.56672 -0.24977,0.19293 -0.73381,0.19293 -0.18259,0 -0.3893,-0.0413 -0.20498,-0.0414 -0.42547,-0.12231 v -0.35829 q 0.21188,0.11886 0.41514,0.17915 0.20326,0.0603 0.39963,0.0603 0.298,0 0.45992,-0.11714 0.16192,-0.11713 0.16192,-0.33417 0,-0.18948 -0.11713,-0.29628 -0.11541,-0.1068 -0.38069,-0.1602 l -0.21187,-0.0413 q -0.3893,-0.0775 -0.56328,-0.24288 -0.17398,-0.16537 -0.17398,-0.45993 0,-0.34106 0.23944,-0.53743 0.24116,-0.19638 0.66318,-0.19638 0.18087,0 0.36863,0.0327 0.18776,0.0327 0.38413,0.0982 z"
     id="path24"
     style="stroke-width:0.265" />
  <path
     d="m 36.686593,14.15 v 0.54778 h 0.65285 v 0.24632 h -0.65285 v 1.0473 q 0,0.23599 0.06374,0.30317 0.06546,0.0672 0.26355,0.0672 h 0.32556 v 0.26527 h -0.32556 q -0.3669,0 -0.50643,-0.13608 -0.13953,-0.1378 -0.13953,-0.49954 v -1.0473 h -0.23255 V 14.6978 h 0.23255 v -0.54778 z"
     id="path25"
     style="stroke-width:0.265" />
  <path
     d="m 38.632593,15.65 q -0.38413,0 -0.53227,0.0878 -0.14814,0.0879 -0.14814,0.29973 0,0.16881 0.11024,0.26872 0.11197,0.0982 0.30317,0.0982 0.26355,0 0.42203,-0.18603 0.1602,-0.18776 0.1602,-0.49782 V 15.65 Z m 0.63218,-0.13091 v 1.1007 h -0.31695 v -0.29283 q -0.10852,0.1757 -0.27044,0.2601 -0.16192,0.0827 -0.39619,0.0827 -0.29628,0 -0.47198,-0.16537 -0.17398,-0.16709 -0.17398,-0.44614 0,-0.32556 0.21704,-0.49093 0.21876,-0.16537 0.65113,-0.16537 h 0.44442 v -0.031 q 0,-0.21877 -0.1447,-0.33762 -0.14297,-0.12058 -0.40308,-0.12058 -0.16536,0 -0.32212,0.0396 -0.15676,0.0396 -0.30145,0.11885 v -0.29283 q 0.17398,-0.0672 0.33762,-0.0999 0.16364,-0.0344 0.31867,-0.0344 0.41858,0 0.62529,0.21704 0.20671,0.21704 0.20671,0.65802 z"
     id="path26"
     style="stroke-width:0.265" />
  <path
     d="m 40.231593,14.15 v 0.54778 h 0.65285 v 0.24632 h -0.65285 v 1.0473 q 0,0.23599 0.06374,0.30317 0.06546,0.0672 0.26355,0.0672 h 0.32556 v 0.26527 h -0.32556 q -0.3669,0 -0.50643,-0.13608 -0.13953,-0.1378 -0.13953,-0.49954 v -1.0473 h -0.23255 V 14.6978 h 0.23255 v -0.54778 z"
     id="path27"
     style="stroke-width:0.265" />
  <path
     d="m 41.268593,15.86 v -1.1679 h 0.31695 v 1.1558 q 0,0.27389 0.1068,0.4117 0.1068,0.13608 0.3204,0.13608 0.25666,0 0.4048,-0.16365 0.14986,-0.16364 0.14986,-0.44614 v -1.0938 h 0.31695 v 1.9293 h -0.31695 v -0.29628 q -0.11541,0.1757 -0.26872,0.26183 -0.15158,0.0844 -0.35312,0.0844 -0.33245,0 -0.50471,-0.20671 -0.17226,-0.20671 -0.17226,-0.60462 z"
     id="path28"
     style="stroke-width:0.265" />
  <path
     d="m 44.766593,14.75 v 0.29973 q -0.13436,-0.0689 -0.27906,-0.10336 -0.14469,-0.0344 -0.29972,-0.0344 -0.23599,0 -0.35485,0.0724 -0.11713,0.0724 -0.11713,0.21704 0,0.11025 0.08441,0.17398 0.08441,0.062 0.33934,0.11886 l 0.10852,0.0241 q 0.33762,0.0724 0.47887,0.20499 0.14297,0.13091 0.14297,0.3669 0,0.26872 -0.2136,0.42547 -0.21187,0.15676 -0.58395,0.15676 -0.15503,0 -0.32384,-0.031 -0.16709,-0.0293 -0.35312,-0.0896 v -0.32729 q 0.1757,0.0913 0.34624,0.13781 0.17053,0.0448 0.33762,0.0448 0.22393,0 0.34451,-0.0758 0.12058,-0.0775 0.12058,-0.21704 0,-0.12919 -0.08785,-0.1981 -0.08613,-0.0689 -0.38068,-0.13263 l -0.11024,-0.0258 q -0.29456,-0.062 -0.42547,-0.18948 -0.13091,-0.12919 -0.13091,-0.35313 0,-0.27216 0.19293,-0.4203 0.19293,-0.14814 0.54777,-0.14814 0.1757,0 0.33073,0.0258 0.15503,0.0258 0.28594,0.0775 z"
     id="path29"
     style="stroke-width:0.265" />
  <path
     d="m 45.324593,13.95 h 0.27561 q 0.25838,0.40652 0.38585,0.79582 0.12919,0.3893 0.12919,0.77343 0,0.38585 -0.12919,0.77687 -0.12747,0.39102 -0.38585,0.79582 h -0.27561 q 0.2291,-0.39446 0.34107,-0.78376 0.11369,-0.39102 0.11369,-0.78893 0,-0.39791 -0.11369,-0.78549 -0.11197,-0.38757 -0.34107,-0.78376 z"
     id="path30"
     style="stroke-width:0.265" />
  <path
     d="m 10.589,10.258 h 190.5 v 90.13965 h -190.5 z"
     fill="none"
     stroke="#ff0000"
     stroke-dasharray="0.862352, 0.862352"
     stroke-width="0.279633"
     id="path31" />
  <path
     d="m12.64 10.241a1.9958 1.9958 0 0 1-1.9958 1.9958 1.9958 1.9958 0 0 1-1.9958-1.9958 1.9958 1.9958 0 0 1 1.9958-1.9958 1.9958 1.9958 0 0 1 1.9958 1.9958"
     fill="#fff"
     stroke="#f00"
     stroke-width=".26458"
     id="path32" />
  <path
     d="m 10.767008,11.34557 h 0.32729 v 0.18259 h -1.0043 v -0.18259 h 0.32729 v -2.2049 h -0.32729 V 8.95636 h 1.0043 v 0.18431 h -0.32729 z"
     stroke-width="0.265"
     id="path33" />
  <rect
     x="5.2949967"
     y="108.47905"
     width="201.08"
     height="5.2916999"
     fill="#d3ffff"
     stroke="#000000"
     stroke-width="0.26458"
     id="rect33" />
  <text
     x="6.6619167"
     y="112.33159"
     fill="#000000"
     font-size="3.5278px"
     stroke-width="0.265"
     style="line-height:1.25"
     xml:space="preserve"
     id="text33"><tspan
       x="6.6619167"
       y="112.33159"
       stroke-width="0.265"
       id="tspan33">Help Bar</tspan></text>
  <rect
     x="5.1947122"
     y="116.57154"
     width="201.08"
     height="10.583501"
     fill="none"
     stroke="#008000"
     stroke-dasharray="0.79375, 0.79375"
     id="rect2-3"
     style="stroke-width:0.26458" />
  <rect
     x="7.9074244"
     y="119.06253"
     width="195.82495"
     height="5.2916999"
     fill="#d3ffff"
     stroke="#000000"
     id="rect3"
     style="stroke-width:0.26458" />
  <text
     x="8.8307066"
     y="122.80283"
     fill="#000000"
     font-size="3.5278px"
     stroke-width="0.265"
     style="line-height:1.25"
     xml:space="preserve"
     id="text6"><tspan
       sodipodi:role="line"
       id="tspan1"
       x="-30.431564"
       y="-55.123707"
       style="stroke-width:0.265"><tspan
         x="8.8307066"
         y="122.80283"
         stroke-width="0.265"
         id="tspan6" /></tspan><tspan
       sodipodi:role="line"
       id="tspan2"
       x="8.8307066"
       y="122.80283"
       style="stroke-width:0.265"><tspan
         x="8.8307066"
         y="122.80283"
         stroke-width="0.265"
         id="tspan3">Command Line / Message Window</tspan></tspan></text>
  <ellipse
     cx="5.292942"
     cy="116.60578"
     rx="1.9896001"
     ry="1.9966002"
     fill="#ffffff"
     stroke="#008000"
     stroke-width="0.26458"
     id="ellipse7-5" />
  <text
     x="3.6930826"
     y="117.8652"
     fill="#000000"
     font-size="3.5278px"
     stroke-width="0.265"
     style="line-height:1.25"
     xml:space="preserve"
     id="text8-3"><tspan
       x="3.6930826"
       y="117.8652"
       fill="#000000"
       stroke-width="0.265"
       id="tspan8-5">M</tspan></text>
</svg>
