<?xml version="1.0" encoding="UTF-8"?>
<svg width="800" height="500" version="1.1" viewBox="0 0 211.67 132.29" xmlns="http://www.w3.org/2000/svg">
 <g stroke-width=".26458">
  <rect x="2.646" y="2.646" width="206.38" height="127" fill="none" stroke="#f00" stroke-dasharray="0.79375, 0.79375"/>
  <path d="m5.2978 4.9664h201.08v105.83h-201.08z" fill="none" stroke="#008000" stroke-dasharray="0.79375, 0.79375"/>
  <rect x="5.292" y="121.71" width="201.08" height="5.2917" fill="#d3ffff" stroke="#000"/>
 </g>
 <path d="m7.9437 7.6124h195.79v100.54h-195.79z" fill="none" stroke="#f00" stroke-dasharray="0.860259, 0.860259" stroke-width=".28675"/>
 <g transform="translate(.005603 -.3268)">
  <path d="m13.23 21.167h185.21v82.021h-185.21z" fill="#d3ffff" stroke="#000" stroke-width=".28819"/>
  <g stroke-width=".265" aria-label="Index">
   <path d="m14.887 22.767h0.34796v2.5718h-0.34796z"/>
   <path d="m17.517 24.175v1.1644h-0.31695v-1.1541q0-0.27389-0.1068-0.40997-0.1068-0.13608-0.3204-0.13608-0.25666 0-0.4048 0.16364t-0.14814 0.44614v1.0904h-0.31867v-1.9293h0.31867v0.29972q0.11369-0.17398 0.267-0.26011 0.15503-0.08613 0.35657-0.08613 0.33245 0 0.50299 0.20671 0.17053 0.20498 0.17053 0.60462z"/>
   <path d="m19.419 23.703v-1.0439h0.31695v2.6803h-0.31695v-0.28939q-0.09991 0.17226-0.25322 0.25666-0.15158 0.08268-0.36518 0.08268-0.34968 0-0.57017-0.27905-0.21876-0.27906-0.21876-0.73381 0-0.45476 0.21876-0.73381 0.22049-0.27906 0.57017-0.27906 0.2136 0 0.36518 0.08441 0.15331 0.08268 0.25322 0.25494zm-1.08 0.67352q0 0.34968 0.14297 0.5495 0.1447 0.19809 0.39619 0.19809 0.25149 0 0.39619-0.19809 0.1447-0.19982 0.1447-0.5495 0-0.34968-0.1447-0.54777-0.1447-0.19982-0.39619-0.19982-0.25149 0-0.39619 0.19982-0.14297 0.19809-0.14297 0.54777z"/>
   <path d="m22.039 24.295v0.15503h-1.4573q0.02067 0.32729 0.19637 0.49954 0.17742 0.17053 0.49265 0.17053 0.18259 0 0.35312-0.04479 0.17226-0.04479 0.34107-0.13436v0.29972q-0.17053 0.07235-0.34968 0.11024-0.17915 0.0379-0.36346 0.0379-0.46165 0-0.73209-0.26872-0.26872-0.26872-0.26872-0.72692 0-0.4737 0.25494-0.75104 0.25666-0.27906 0.69075-0.27906 0.3893 0 0.61495 0.25149 0.22738 0.24977 0.22738 0.68041zm-0.31695-0.09302q-0.0034-0.26011-0.14642-0.41514-0.14125-0.15503-0.37552-0.15503-0.26527 0-0.42547 0.14986-0.15848 0.14986-0.18259 0.42203z"/>
   <path d="m24.101 23.41-0.69764 0.9388 0.73381 0.99047h-0.3738l-0.56155-0.75793-0.56156 0.75793h-0.3738l0.74931-1.0094-0.68558-0.91985h0.3738l0.5116 0.6873 0.5116-0.6873z"/>
  </g>
 </g>
 <text x="6.2152834" y="125.4533" fill="#000000" font-size="3.5278px" stroke-width=".265" style="line-height:1.25" xml:space="preserve"><tspan x="6.2152834" y="125.4533" stroke-width=".265">Command Line / Message Window</tspan></text>
 <circle cx="2.6643" cy="2.6666" r="1.9958" fill="#fff" stroke="#f00" stroke-width=".26458"/>
 <text x="1.4455857" y="4.1193662" fill="#000000" font-size="3.5278px" stroke-width=".265" style="line-height:1.25" xml:space="preserve"><tspan x="1.4455857" y="4.1193662" fill="#000000" stroke-width=".265">R</tspan></text>
 <path d="m7.3644 4.8494a1.9896 1.9966 0 0 1-1.9896 1.9966 1.9896 1.9966 0 0 1-1.9896-1.9966 1.9896 1.9966 0 0 1 1.9896-1.9966 1.9896 1.9966 0 0 1 1.9896 1.9966" fill="#fff" stroke="#008000" stroke-width=".26458"/>
 <g transform="translate(.0060081 -.32343)" stroke-width=".265" aria-label="A">
  <path d="m5.2857 4.2904-0.47198 1.2799h0.94568zm-0.19637-0.34279h0.39447l0.98014 2.5718h-0.36174l-0.23427-0.65974h-1.1593l-0.23427 0.65974h-0.3669z" stroke-width=".265"/>
 </g>
 <path d="m9.9649 7.6174a1.9958 1.9958 0 0 1-1.9958 1.9958 1.9958 1.9958 0 0 1-1.9958-1.9958 1.9958 1.9958 0 0 1 1.9958-1.9958 1.9958 1.9958 0 0 1 1.9958 1.9958" fill="#fff" stroke="#f00" stroke-width=".26458"/>
 <g transform="translate(-.030077 -.495)" stroke-width=".265" aria-label="D">
  <path d="m7.4385 7.1078v1.9999h0.4203q0.53227 0 0.7786-0.24116 0.24805-0.24116 0.24805-0.76137 0-0.51677-0.24805-0.7562-0.24633-0.24116-0.7786-0.24116zm-0.34796-0.28594h0.71486q0.74759 0 1.0973 0.31178 0.34968 0.31006 0.34968 0.97152 0 0.66491-0.3514 0.97669-0.3514 0.31178-1.0955 0.31178h-0.71486z" stroke-width=".265"/>
 </g>
 <g transform="translate(.0055934 -92.93)">
  <path d="m13.23 105.83h185.21v5.2917h-185.21z" fill="#d3ffff" stroke="#000" stroke-width=".28819"/>
  <g stroke-width=".265" aria-label="Index Bar (Status)">
   <path d="m14.778 106.98h0.34796v2.5718h-0.34796z"/>
   <path d="m17.409 108.39v1.1644h-0.31695v-1.1541q0-0.27389-0.1068-0.40997-0.1068-0.13608-0.3204-0.13608-0.25666 0-0.4048 0.16364t-0.14814 0.44614v1.0904h-0.31867v-1.9293h0.31867v0.29972q0.11369-0.17398 0.267-0.2601 0.15503-0.0861 0.35657-0.0861 0.33245 0 0.50299 0.20671 0.17053 0.20498 0.17053 0.60461z"/>
   <path d="m19.31 107.92v-1.0439h0.31695v2.6803h-0.31695v-0.28939q-0.09991 0.17226-0.25322 0.25666-0.15158 0.0827-0.36518 0.0827-0.34968 0-0.57017-0.27906-0.21876-0.27905-0.21876-0.73381 0-0.45475 0.21876-0.73381 0.22049-0.27905 0.57017-0.27905 0.2136 0 0.36518 0.0844 0.15331 0.0827 0.25322 0.25494zm-1.08 0.67352q0 0.34968 0.14297 0.5495 0.1447 0.19809 0.39619 0.19809 0.25149 0 0.39619-0.19809 0.1447-0.19982 0.1447-0.5495t-0.1447-0.54777q-0.1447-0.19982-0.39619-0.19982-0.25149 0-0.39619 0.19982-0.14297 0.19809-0.14297 0.54777z"/>
   <path d="m21.93 108.51v0.15503h-1.4573q0.02067 0.32729 0.19637 0.49954 0.17742 0.17054 0.49265 0.17054 0.18259 0 0.35312-0.0448 0.17226-0.0448 0.34107-0.13436v0.29973q-0.17053 0.0723-0.34968 0.11024-0.17915 0.0379-0.36346 0.0379-0.46164 0-0.73209-0.26872-0.26872-0.26872-0.26872-0.72692 0-0.47371 0.25494-0.75104 0.25666-0.27905 0.69075-0.27905 0.3893 0 0.61495 0.25149 0.22738 0.24977 0.22738 0.68041zm-0.31695-0.093q-0.0034-0.2601-0.14642-0.41513-0.14125-0.15503-0.37552-0.15503-0.26528 0-0.42547 0.14986-0.15848 0.14986-0.18259 0.42203z"/>
   <path d="m23.992 107.62-0.69764 0.93879 0.73381 0.99047h-0.3738l-0.56155-0.75792-0.56155 0.75792h-0.3738l0.74931-1.0094-0.68558-0.91984h0.3738l0.5116 0.6873 0.5116-0.6873z"/>
   <path d="m25.959 108.33v0.94224h0.55811q0.28078 0 0.41514-0.11541 0.13608-0.11714 0.13608-0.35657 0-0.24116-0.13608-0.35485-0.13436-0.11541-0.41514-0.11541zm0-1.0576v0.77515h0.51504q0.25494 0 0.37896-0.0947 0.12575-0.0965 0.12575-0.29284 0-0.19465-0.12575-0.29111-0.12402-0.0965-0.37896-0.0965zm-0.34796-0.28595h0.88884q0.39791 0 0.61323 0.16537 0.21532 0.16536 0.21532 0.47026 0 0.23599-0.11024 0.37551-0.11024 0.13953-0.32384 0.17398 0.25666 0.0551 0.39791 0.23083 0.14297 0.17397 0.14297 0.4358 0 0.34452-0.23427 0.53227-0.23427 0.18776-0.66663 0.18776h-0.92329z"/>
   <path d="m28.895 108.58q-0.38413 0-0.53227 0.0878-0.14814 0.0879-0.14814 0.29973 0 0.16881 0.11024 0.26872 0.11197 0.0982 0.30317 0.0982 0.26355 0 0.42203-0.18603 0.1602-0.18776 0.1602-0.49782v-0.0706zm0.63218-0.13091v1.1007h-0.31695v-0.29283q-0.10852 0.1757-0.27044 0.2601-0.16192 0.0827-0.39619 0.0827-0.29628 0-0.47198-0.16537-0.17398-0.16709-0.17398-0.44614 0-0.32556 0.21704-0.49093 0.21876-0.16537 0.65113-0.16537h0.44442v-0.031q0-0.21877-0.1447-0.33762-0.14297-0.12058-0.40308-0.12058-0.16536 0-0.32212 0.0396t-0.30145 0.11885v-0.29283q0.17398-0.0672 0.33762-0.0999 0.16364-0.0344 0.31867-0.0344 0.41858 0 0.62529 0.21704t0.20671 0.65802z"/>
   <path d="m31.298 107.92q-0.0534-0.031-0.11713-0.0448-0.06201-0.0155-0.1378-0.0155-0.26872 0-0.41341 0.1757-0.14297 0.17398-0.14297 0.50126v1.0163h-0.31867v-1.9293h0.31867v0.29972q0.09991-0.1757 0.26011-0.2601 0.1602-0.0861 0.3893-0.0861 0.03273 0 0.07235 5e-3 0.03962 3e-3 0.08785 0.0121z"/>
   <path d="m33.513 106.88q-0.23082 0.39619-0.34279 0.78376-0.11197 0.38758-0.11197 0.78549t0.11197 0.78893q0.11369 0.3893 0.34279 0.78376h-0.27561q-0.25838-0.4048-0.38758-0.79582-0.12747-0.39102-0.12747-0.77687 0-0.38413 0.12747-0.77343 0.12747-0.3893 0.38758-0.79582z"/>
   <path d="m35.683 107.07v0.33934q-0.19809-0.0947-0.3738-0.14125-0.1757-0.0465-0.33934-0.0465-0.28422 0-0.43925 0.11025-0.15331 0.11024-0.15331 0.3135 0 0.17054 0.10163 0.25839 0.10335 0.0861 0.3893 0.13952l0.21015 0.0431q0.3893 0.0741 0.57361 0.26183 0.18604 0.18603 0.18604 0.49954 0 0.37379-0.25149 0.56672-0.24977 0.19293-0.73381 0.19293-0.18259 0-0.3893-0.0413-0.20498-0.0414-0.42547-0.12231v-0.35829q0.21188 0.11886 0.41514 0.17915 0.20326 0.0603 0.39963 0.0603 0.298 0 0.45992-0.11714 0.16192-0.11713 0.16192-0.33417 0-0.18948-0.11713-0.29628-0.11541-0.1068-0.38069-0.1602l-0.21187-0.0413q-0.3893-0.0775-0.56328-0.24288-0.17398-0.16537-0.17398-0.45993 0-0.34106 0.23944-0.53743 0.24116-0.19638 0.66318-0.19638 0.18087 0 0.36863 0.0327t0.38413 0.0982z"/>
   <path d="m36.681 107.08v0.54778h0.65285v0.24632h-0.65285v1.0473q0 0.23599 0.06374 0.30317 0.06546 0.0672 0.26355 0.0672h0.32556v0.26527h-0.32556q-0.3669 0-0.50643-0.13608-0.13953-0.1378-0.13953-0.49954v-1.0473h-0.23255v-0.24632h0.23255v-0.54778z"/>
   <path d="m38.627 108.58q-0.38413 0-0.53227 0.0878-0.14814 0.0879-0.14814 0.29973 0 0.16881 0.11024 0.26872 0.11197 0.0982 0.30317 0.0982 0.26355 0 0.42203-0.18603 0.1602-0.18776 0.1602-0.49782v-0.0706zm0.63218-0.13091v1.1007h-0.31695v-0.29283q-0.10852 0.1757-0.27044 0.2601-0.16192 0.0827-0.39619 0.0827-0.29628 0-0.47198-0.16537-0.17398-0.16709-0.17398-0.44614 0-0.32556 0.21704-0.49093 0.21876-0.16537 0.65113-0.16537h0.44442v-0.031q0-0.21877-0.1447-0.33762-0.14297-0.12058-0.40308-0.12058-0.16536 0-0.32212 0.0396t-0.30145 0.11885v-0.29283q0.17398-0.0672 0.33762-0.0999 0.16364-0.0344 0.31867-0.0344 0.41858 0 0.62529 0.21704t0.20671 0.65802z"/>
   <path d="m40.226 107.08v0.54778h0.65285v0.24632h-0.65285v1.0473q0 0.23599 0.06374 0.30317 0.06546 0.0672 0.26355 0.0672h0.32556v0.26527h-0.32556q-0.3669 0-0.50643-0.13608-0.13953-0.1378-0.13953-0.49954v-1.0473h-0.23255v-0.24632h0.23255v-0.54778z"/>
   <path d="m41.263 108.79v-1.1679h0.31695v1.1558q0 0.27389 0.1068 0.4117 0.1068 0.13608 0.3204 0.13608 0.25666 0 0.4048-0.16365 0.14986-0.16364 0.14986-0.44614v-1.0938h0.31695v1.9293h-0.31695v-0.29628q-0.11541 0.1757-0.26872 0.26183-0.15158 0.0844-0.35312 0.0844-0.33245 0-0.50471-0.20671-0.17226-0.20671-0.17226-0.60462z"/>
   <path d="m44.761 107.68v0.29973q-0.13436-0.0689-0.27906-0.10336-0.14469-0.0344-0.29972-0.0344-0.23599 0-0.35485 0.0724-0.11713 0.0724-0.11713 0.21704 0 0.11025 0.08441 0.17398 0.08441 0.062 0.33934 0.11886l0.10852 0.0241q0.33762 0.0724 0.47887 0.20499 0.14297 0.13091 0.14297 0.3669 0 0.26872-0.2136 0.42547-0.21187 0.15676-0.58395 0.15676-0.15503 0-0.32384-0.031-0.16709-0.0293-0.35312-0.0896v-0.32729q0.1757 0.0913 0.34624 0.13781 0.17053 0.0448 0.33762 0.0448 0.22393 0 0.34451-0.0758 0.12058-0.0775 0.12058-0.21704 0-0.12919-0.08785-0.1981-0.08613-0.0689-0.38068-0.13263l-0.11024-0.0258q-0.29456-0.062-0.42547-0.18948-0.13091-0.12919-0.13091-0.35313 0-0.27216 0.19293-0.4203 0.19293-0.14814 0.54777-0.14814 0.1757 0 0.33073 0.0258 0.15503 0.0258 0.28594 0.0775z"/>
   <path d="m45.319 106.88h0.27561q0.25838 0.40652 0.38585 0.79582 0.12919 0.3893 0.12919 0.77343 0 0.38585-0.12919 0.77687-0.12747 0.39102-0.38585 0.79582h-0.27561q0.2291-0.39446 0.34107-0.78376 0.11369-0.39102 0.11369-0.78893t-0.11369-0.78549q-0.11197-0.38757-0.34107-0.78376z"/>
  </g>
 </g>
 <path d="m10.589 10.258h190.5v95.25h-190.5z" fill="none" stroke="#f00" stroke-dasharray="0.862352, 0.862352" stroke-width=".28745"/>
 <path d="m12.64 10.241a1.9958 1.9958 0 0 1-1.9958 1.9958 1.9958 1.9958 0 0 1-1.9958-1.9958 1.9958 1.9958 0 0 1 1.9958-1.9958 1.9958 1.9958 0 0 1 1.9958 1.9958" fill="#fff" stroke="#f00" stroke-width=".26458"/>
 <g transform="translate(.0060081 -.32343)" stroke-width=".265" aria-label="I">
  <path d="m10.761 11.669h0.32729v0.18259h-1.0043v-0.18259h0.32729v-2.2049h-0.32729v-0.18431h1.0043v0.18431h-0.32729z" stroke-width=".265"/>
 </g>
 <g transform="translate(-.00024982 108.48)">
  <rect x="5.292" y="5.292" width="201.08" height="5.2917" fill="#d3ffff" stroke="#000" stroke-width=".26458"/>
  <text x="6.6589198" y="9.1445389" fill="#000000" font-size="3.5278px" stroke-width=".265" style="line-height:1.25" xml:space="preserve"><tspan x="6.6589198" y="9.1445389" stroke-width=".265">Help Bar</tspan></text>
 </g>
</svg>
